%TF.GenerationSoftware,KiCad,Pcbnew,7.0.1*%
%TF.CreationDate,2023-06-02T18:37:56-05:00*%
%TF.ProjectId,PicoFeatherWingDuo,5069636f-4665-4617-9468-657257696e67,1*%
%TF.SameCoordinates,Original*%
%TF.FileFunction,Drillmap*%
%TF.FilePolarity,Positive*%
%FSLAX45Y45*%
G04 Gerber Fmt 4.5, Leading zero omitted, Abs format (unit mm)*
G04 Created by KiCad (PCBNEW 7.0.1) date 2023-06-02 18:37:56*
%MOMM*%
%LPD*%
G01*
G04 APERTURE LIST*
%ADD10C,0.100000*%
%ADD11C,0.200000*%
%ADD12C,0.150000*%
%ADD13C,0.180000*%
%ADD14C,0.220000*%
%ADD15C,0.228600*%
G04 APERTURE END LIST*
D10*
X13421421Y-3871421D02*
G75*
G03*
X13221421Y-4071421I-1J-199999D01*
G01*
X13421421Y-11098579D02*
X22898579Y-11098579D01*
X22898579Y-11098579D02*
G75*
G03*
X23098579Y-10898579I1J199999D01*
G01*
X23098579Y-10898579D02*
X23098579Y-4071421D01*
X23098579Y-4071421D02*
G75*
G03*
X22898579Y-3871421I-199999J1D01*
G01*
X13221421Y-4071421D02*
X13221421Y-10898579D01*
X13221421Y-10898579D02*
G75*
G03*
X13421421Y-11098579I199999J-1D01*
G01*
X22898579Y-3871421D02*
X13421421Y-3871421D01*
D11*
D12*
X15049500Y-4305000D02*
X15199500Y-4455000D01*
X15199500Y-4305000D02*
X15049500Y-4455000D01*
X15534500Y-4305000D02*
X15684500Y-4455000D01*
X15684500Y-4305000D02*
X15534500Y-4455000D01*
D13*
X15184500Y-4077000D02*
G75*
G03*
X15184500Y-4077000I-90000J0D01*
G01*
X15729500Y-4077000D02*
G75*
G03*
X15729500Y-4077000I-90000J0D01*
G01*
D14*
X13512800Y-4055600D02*
X13512800Y-4275600D01*
X13402800Y-4165600D02*
X13622800Y-4165600D01*
X13512800Y-10710400D02*
X13512800Y-10930400D01*
X13402800Y-10820400D02*
X13622800Y-10820400D01*
X22809200Y-4055600D02*
X22809200Y-4275600D01*
X22699200Y-4165600D02*
X22919200Y-4165600D01*
X22809200Y-10710400D02*
X22809200Y-10930400D01*
X22699200Y-10820400D02*
X22919200Y-10820400D01*
D15*
X17418043Y-8845043D02*
X17418043Y-8683397D01*
X17256397Y-8683397D01*
X17256397Y-8845043D01*
X17418043Y-8845043D01*
X19323043Y-8845043D02*
X19323043Y-8683397D01*
X19161397Y-8683397D01*
X19161397Y-8845043D01*
X19323043Y-8845043D01*
X20466043Y-8845043D02*
X20466043Y-8683397D01*
X20304397Y-8683397D01*
X20304397Y-8845043D01*
X20466043Y-8845043D01*
X22371043Y-8845043D02*
X22371043Y-8683397D01*
X22209397Y-8683397D01*
X22209397Y-8845043D01*
X22371043Y-8845043D01*
D11*
X13464040Y-11416102D02*
X13464040Y-11216102D01*
X13464040Y-11216102D02*
X13511659Y-11216102D01*
X13511659Y-11216102D02*
X13540231Y-11225626D01*
X13540231Y-11225626D02*
X13559278Y-11244674D01*
X13559278Y-11244674D02*
X13568802Y-11263721D01*
X13568802Y-11263721D02*
X13578326Y-11301817D01*
X13578326Y-11301817D02*
X13578326Y-11330388D01*
X13578326Y-11330388D02*
X13568802Y-11368483D01*
X13568802Y-11368483D02*
X13559278Y-11387531D01*
X13559278Y-11387531D02*
X13540231Y-11406579D01*
X13540231Y-11406579D02*
X13511659Y-11416102D01*
X13511659Y-11416102D02*
X13464040Y-11416102D01*
X13664040Y-11416102D02*
X13664040Y-11282769D01*
X13664040Y-11320864D02*
X13673564Y-11301817D01*
X13673564Y-11301817D02*
X13683088Y-11292293D01*
X13683088Y-11292293D02*
X13702136Y-11282769D01*
X13702136Y-11282769D02*
X13721183Y-11282769D01*
X13787850Y-11416102D02*
X13787850Y-11282769D01*
X13787850Y-11216102D02*
X13778326Y-11225626D01*
X13778326Y-11225626D02*
X13787850Y-11235150D01*
X13787850Y-11235150D02*
X13797374Y-11225626D01*
X13797374Y-11225626D02*
X13787850Y-11216102D01*
X13787850Y-11216102D02*
X13787850Y-11235150D01*
X13911659Y-11416102D02*
X13892612Y-11406579D01*
X13892612Y-11406579D02*
X13883088Y-11387531D01*
X13883088Y-11387531D02*
X13883088Y-11216102D01*
X14016421Y-11416102D02*
X13997374Y-11406579D01*
X13997374Y-11406579D02*
X13987850Y-11387531D01*
X13987850Y-11387531D02*
X13987850Y-11216102D01*
X14244993Y-11416102D02*
X14244993Y-11216102D01*
X14244993Y-11216102D02*
X14311659Y-11358959D01*
X14311659Y-11358959D02*
X14378326Y-11216102D01*
X14378326Y-11216102D02*
X14378326Y-11416102D01*
X14559278Y-11416102D02*
X14559278Y-11311340D01*
X14559278Y-11311340D02*
X14549755Y-11292293D01*
X14549755Y-11292293D02*
X14530707Y-11282769D01*
X14530707Y-11282769D02*
X14492612Y-11282769D01*
X14492612Y-11282769D02*
X14473564Y-11292293D01*
X14559278Y-11406579D02*
X14540231Y-11416102D01*
X14540231Y-11416102D02*
X14492612Y-11416102D01*
X14492612Y-11416102D02*
X14473564Y-11406579D01*
X14473564Y-11406579D02*
X14464040Y-11387531D01*
X14464040Y-11387531D02*
X14464040Y-11368483D01*
X14464040Y-11368483D02*
X14473564Y-11349436D01*
X14473564Y-11349436D02*
X14492612Y-11339912D01*
X14492612Y-11339912D02*
X14540231Y-11339912D01*
X14540231Y-11339912D02*
X14559278Y-11330388D01*
X14654517Y-11282769D02*
X14654517Y-11482769D01*
X14654517Y-11292293D02*
X14673564Y-11282769D01*
X14673564Y-11282769D02*
X14711659Y-11282769D01*
X14711659Y-11282769D02*
X14730707Y-11292293D01*
X14730707Y-11292293D02*
X14740231Y-11301817D01*
X14740231Y-11301817D02*
X14749755Y-11320864D01*
X14749755Y-11320864D02*
X14749755Y-11378007D01*
X14749755Y-11378007D02*
X14740231Y-11397055D01*
X14740231Y-11397055D02*
X14730707Y-11406579D01*
X14730707Y-11406579D02*
X14711659Y-11416102D01*
X14711659Y-11416102D02*
X14673564Y-11416102D01*
X14673564Y-11416102D02*
X14654517Y-11406579D01*
X14835469Y-11397055D02*
X14844993Y-11406579D01*
X14844993Y-11406579D02*
X14835469Y-11416102D01*
X14835469Y-11416102D02*
X14825945Y-11406579D01*
X14825945Y-11406579D02*
X14835469Y-11397055D01*
X14835469Y-11397055D02*
X14835469Y-11416102D01*
X14835469Y-11292293D02*
X14844993Y-11301817D01*
X14844993Y-11301817D02*
X14835469Y-11311340D01*
X14835469Y-11311340D02*
X14825945Y-11301817D01*
X14825945Y-11301817D02*
X14835469Y-11292293D01*
X14835469Y-11292293D02*
X14835469Y-11311340D01*
D12*
X13066421Y-11668579D02*
X13216421Y-11818579D01*
X13216421Y-11668579D02*
X13066421Y-11818579D01*
D11*
X13568802Y-11836102D02*
X13454517Y-11836102D01*
X13511659Y-11836102D02*
X13511659Y-11636102D01*
X13511659Y-11636102D02*
X13492612Y-11664674D01*
X13492612Y-11664674D02*
X13473564Y-11683721D01*
X13473564Y-11683721D02*
X13454517Y-11693245D01*
X13654517Y-11817055D02*
X13664040Y-11826579D01*
X13664040Y-11826579D02*
X13654517Y-11836102D01*
X13654517Y-11836102D02*
X13644993Y-11826579D01*
X13644993Y-11826579D02*
X13654517Y-11817055D01*
X13654517Y-11817055D02*
X13654517Y-11836102D01*
X13844993Y-11636102D02*
X13749755Y-11636102D01*
X13749755Y-11636102D02*
X13740231Y-11731340D01*
X13740231Y-11731340D02*
X13749755Y-11721817D01*
X13749755Y-11721817D02*
X13768802Y-11712293D01*
X13768802Y-11712293D02*
X13816421Y-11712293D01*
X13816421Y-11712293D02*
X13835469Y-11721817D01*
X13835469Y-11721817D02*
X13844993Y-11731340D01*
X13844993Y-11731340D02*
X13854517Y-11750388D01*
X13854517Y-11750388D02*
X13854517Y-11798007D01*
X13854517Y-11798007D02*
X13844993Y-11817055D01*
X13844993Y-11817055D02*
X13835469Y-11826579D01*
X13835469Y-11826579D02*
X13816421Y-11836102D01*
X13816421Y-11836102D02*
X13768802Y-11836102D01*
X13768802Y-11836102D02*
X13749755Y-11826579D01*
X13749755Y-11826579D02*
X13740231Y-11817055D01*
X13978326Y-11636102D02*
X13997374Y-11636102D01*
X13997374Y-11636102D02*
X14016421Y-11645626D01*
X14016421Y-11645626D02*
X14025945Y-11655150D01*
X14025945Y-11655150D02*
X14035469Y-11674198D01*
X14035469Y-11674198D02*
X14044993Y-11712293D01*
X14044993Y-11712293D02*
X14044993Y-11759912D01*
X14044993Y-11759912D02*
X14035469Y-11798007D01*
X14035469Y-11798007D02*
X14025945Y-11817055D01*
X14025945Y-11817055D02*
X14016421Y-11826579D01*
X14016421Y-11826579D02*
X13997374Y-11836102D01*
X13997374Y-11836102D02*
X13978326Y-11836102D01*
X13978326Y-11836102D02*
X13959278Y-11826579D01*
X13959278Y-11826579D02*
X13949755Y-11817055D01*
X13949755Y-11817055D02*
X13940231Y-11798007D01*
X13940231Y-11798007D02*
X13930707Y-11759912D01*
X13930707Y-11759912D02*
X13930707Y-11712293D01*
X13930707Y-11712293D02*
X13940231Y-11674198D01*
X13940231Y-11674198D02*
X13949755Y-11655150D01*
X13949755Y-11655150D02*
X13959278Y-11645626D01*
X13959278Y-11645626D02*
X13978326Y-11636102D01*
X14168802Y-11636102D02*
X14187850Y-11636102D01*
X14187850Y-11636102D02*
X14206898Y-11645626D01*
X14206898Y-11645626D02*
X14216421Y-11655150D01*
X14216421Y-11655150D02*
X14225945Y-11674198D01*
X14225945Y-11674198D02*
X14235469Y-11712293D01*
X14235469Y-11712293D02*
X14235469Y-11759912D01*
X14235469Y-11759912D02*
X14225945Y-11798007D01*
X14225945Y-11798007D02*
X14216421Y-11817055D01*
X14216421Y-11817055D02*
X14206898Y-11826579D01*
X14206898Y-11826579D02*
X14187850Y-11836102D01*
X14187850Y-11836102D02*
X14168802Y-11836102D01*
X14168802Y-11836102D02*
X14149755Y-11826579D01*
X14149755Y-11826579D02*
X14140231Y-11817055D01*
X14140231Y-11817055D02*
X14130707Y-11798007D01*
X14130707Y-11798007D02*
X14121183Y-11759912D01*
X14121183Y-11759912D02*
X14121183Y-11712293D01*
X14121183Y-11712293D02*
X14130707Y-11674198D01*
X14130707Y-11674198D02*
X14140231Y-11655150D01*
X14140231Y-11655150D02*
X14149755Y-11645626D01*
X14149755Y-11645626D02*
X14168802Y-11636102D01*
X14321183Y-11836102D02*
X14321183Y-11702769D01*
X14321183Y-11721817D02*
X14330707Y-11712293D01*
X14330707Y-11712293D02*
X14349755Y-11702769D01*
X14349755Y-11702769D02*
X14378326Y-11702769D01*
X14378326Y-11702769D02*
X14397374Y-11712293D01*
X14397374Y-11712293D02*
X14406898Y-11731340D01*
X14406898Y-11731340D02*
X14406898Y-11836102D01*
X14406898Y-11731340D02*
X14416421Y-11712293D01*
X14416421Y-11712293D02*
X14435469Y-11702769D01*
X14435469Y-11702769D02*
X14464040Y-11702769D01*
X14464040Y-11702769D02*
X14483088Y-11712293D01*
X14483088Y-11712293D02*
X14492612Y-11731340D01*
X14492612Y-11731340D02*
X14492612Y-11836102D01*
X14587850Y-11836102D02*
X14587850Y-11702769D01*
X14587850Y-11721817D02*
X14597374Y-11712293D01*
X14597374Y-11712293D02*
X14616421Y-11702769D01*
X14616421Y-11702769D02*
X14644993Y-11702769D01*
X14644993Y-11702769D02*
X14664040Y-11712293D01*
X14664040Y-11712293D02*
X14673564Y-11731340D01*
X14673564Y-11731340D02*
X14673564Y-11836102D01*
X14673564Y-11731340D02*
X14683088Y-11712293D01*
X14683088Y-11712293D02*
X14702136Y-11702769D01*
X14702136Y-11702769D02*
X14730707Y-11702769D01*
X14730707Y-11702769D02*
X14749755Y-11712293D01*
X14749755Y-11712293D02*
X14759279Y-11731340D01*
X14759279Y-11731340D02*
X14759279Y-11836102D01*
X15149755Y-11626579D02*
X14978326Y-11883721D01*
X15406898Y-11636102D02*
X15425945Y-11636102D01*
X15425945Y-11636102D02*
X15444993Y-11645626D01*
X15444993Y-11645626D02*
X15454517Y-11655150D01*
X15454517Y-11655150D02*
X15464041Y-11674198D01*
X15464041Y-11674198D02*
X15473564Y-11712293D01*
X15473564Y-11712293D02*
X15473564Y-11759912D01*
X15473564Y-11759912D02*
X15464041Y-11798007D01*
X15464041Y-11798007D02*
X15454517Y-11817055D01*
X15454517Y-11817055D02*
X15444993Y-11826579D01*
X15444993Y-11826579D02*
X15425945Y-11836102D01*
X15425945Y-11836102D02*
X15406898Y-11836102D01*
X15406898Y-11836102D02*
X15387850Y-11826579D01*
X15387850Y-11826579D02*
X15378326Y-11817055D01*
X15378326Y-11817055D02*
X15368802Y-11798007D01*
X15368802Y-11798007D02*
X15359279Y-11759912D01*
X15359279Y-11759912D02*
X15359279Y-11712293D01*
X15359279Y-11712293D02*
X15368802Y-11674198D01*
X15368802Y-11674198D02*
X15378326Y-11655150D01*
X15378326Y-11655150D02*
X15387850Y-11645626D01*
X15387850Y-11645626D02*
X15406898Y-11636102D01*
X15559279Y-11817055D02*
X15568802Y-11826579D01*
X15568802Y-11826579D02*
X15559279Y-11836102D01*
X15559279Y-11836102D02*
X15549755Y-11826579D01*
X15549755Y-11826579D02*
X15559279Y-11817055D01*
X15559279Y-11817055D02*
X15559279Y-11836102D01*
X15692612Y-11636102D02*
X15711660Y-11636102D01*
X15711660Y-11636102D02*
X15730707Y-11645626D01*
X15730707Y-11645626D02*
X15740231Y-11655150D01*
X15740231Y-11655150D02*
X15749755Y-11674198D01*
X15749755Y-11674198D02*
X15759279Y-11712293D01*
X15759279Y-11712293D02*
X15759279Y-11759912D01*
X15759279Y-11759912D02*
X15749755Y-11798007D01*
X15749755Y-11798007D02*
X15740231Y-11817055D01*
X15740231Y-11817055D02*
X15730707Y-11826579D01*
X15730707Y-11826579D02*
X15711660Y-11836102D01*
X15711660Y-11836102D02*
X15692612Y-11836102D01*
X15692612Y-11836102D02*
X15673564Y-11826579D01*
X15673564Y-11826579D02*
X15664041Y-11817055D01*
X15664041Y-11817055D02*
X15654517Y-11798007D01*
X15654517Y-11798007D02*
X15644993Y-11759912D01*
X15644993Y-11759912D02*
X15644993Y-11712293D01*
X15644993Y-11712293D02*
X15654517Y-11674198D01*
X15654517Y-11674198D02*
X15664041Y-11655150D01*
X15664041Y-11655150D02*
X15673564Y-11645626D01*
X15673564Y-11645626D02*
X15692612Y-11636102D01*
X15940231Y-11636102D02*
X15844993Y-11636102D01*
X15844993Y-11636102D02*
X15835469Y-11731340D01*
X15835469Y-11731340D02*
X15844993Y-11721817D01*
X15844993Y-11721817D02*
X15864041Y-11712293D01*
X15864041Y-11712293D02*
X15911660Y-11712293D01*
X15911660Y-11712293D02*
X15930707Y-11721817D01*
X15930707Y-11721817D02*
X15940231Y-11731340D01*
X15940231Y-11731340D02*
X15949755Y-11750388D01*
X15949755Y-11750388D02*
X15949755Y-11798007D01*
X15949755Y-11798007D02*
X15940231Y-11817055D01*
X15940231Y-11817055D02*
X15930707Y-11826579D01*
X15930707Y-11826579D02*
X15911660Y-11836102D01*
X15911660Y-11836102D02*
X15864041Y-11836102D01*
X15864041Y-11836102D02*
X15844993Y-11826579D01*
X15844993Y-11826579D02*
X15835469Y-11817055D01*
X16044993Y-11836102D02*
X16083088Y-11836102D01*
X16083088Y-11836102D02*
X16102136Y-11826579D01*
X16102136Y-11826579D02*
X16111660Y-11817055D01*
X16111660Y-11817055D02*
X16130707Y-11788483D01*
X16130707Y-11788483D02*
X16140231Y-11750388D01*
X16140231Y-11750388D02*
X16140231Y-11674198D01*
X16140231Y-11674198D02*
X16130707Y-11655150D01*
X16130707Y-11655150D02*
X16121183Y-11645626D01*
X16121183Y-11645626D02*
X16102136Y-11636102D01*
X16102136Y-11636102D02*
X16064041Y-11636102D01*
X16064041Y-11636102D02*
X16044993Y-11645626D01*
X16044993Y-11645626D02*
X16035469Y-11655150D01*
X16035469Y-11655150D02*
X16025945Y-11674198D01*
X16025945Y-11674198D02*
X16025945Y-11721817D01*
X16025945Y-11721817D02*
X16035469Y-11740864D01*
X16035469Y-11740864D02*
X16044993Y-11750388D01*
X16044993Y-11750388D02*
X16064041Y-11759912D01*
X16064041Y-11759912D02*
X16102136Y-11759912D01*
X16102136Y-11759912D02*
X16121183Y-11750388D01*
X16121183Y-11750388D02*
X16130707Y-11740864D01*
X16130707Y-11740864D02*
X16140231Y-11721817D01*
X16330707Y-11836102D02*
X16216422Y-11836102D01*
X16273564Y-11836102D02*
X16273564Y-11636102D01*
X16273564Y-11636102D02*
X16254517Y-11664674D01*
X16254517Y-11664674D02*
X16235469Y-11683721D01*
X16235469Y-11683721D02*
X16216422Y-11693245D01*
X16406898Y-11636102D02*
X16406898Y-11674198D01*
X16483088Y-11636102D02*
X16483088Y-11674198D01*
X16778327Y-11912293D02*
X16768803Y-11902769D01*
X16768803Y-11902769D02*
X16749755Y-11874198D01*
X16749755Y-11874198D02*
X16740231Y-11855150D01*
X16740231Y-11855150D02*
X16730707Y-11826579D01*
X16730707Y-11826579D02*
X16721184Y-11778959D01*
X16721184Y-11778959D02*
X16721184Y-11740864D01*
X16721184Y-11740864D02*
X16730707Y-11693245D01*
X16730707Y-11693245D02*
X16740231Y-11664674D01*
X16740231Y-11664674D02*
X16749755Y-11645626D01*
X16749755Y-11645626D02*
X16768803Y-11617055D01*
X16768803Y-11617055D02*
X16778327Y-11607531D01*
X16844993Y-11655150D02*
X16854517Y-11645626D01*
X16854517Y-11645626D02*
X16873565Y-11636102D01*
X16873565Y-11636102D02*
X16921184Y-11636102D01*
X16921184Y-11636102D02*
X16940231Y-11645626D01*
X16940231Y-11645626D02*
X16949755Y-11655150D01*
X16949755Y-11655150D02*
X16959279Y-11674198D01*
X16959279Y-11674198D02*
X16959279Y-11693245D01*
X16959279Y-11693245D02*
X16949755Y-11721817D01*
X16949755Y-11721817D02*
X16835469Y-11836102D01*
X16835469Y-11836102D02*
X16959279Y-11836102D01*
X17197374Y-11836102D02*
X17197374Y-11636102D01*
X17283088Y-11836102D02*
X17283088Y-11731340D01*
X17283088Y-11731340D02*
X17273565Y-11712293D01*
X17273565Y-11712293D02*
X17254517Y-11702769D01*
X17254517Y-11702769D02*
X17225946Y-11702769D01*
X17225946Y-11702769D02*
X17206898Y-11712293D01*
X17206898Y-11712293D02*
X17197374Y-11721817D01*
X17406898Y-11836102D02*
X17387850Y-11826579D01*
X17387850Y-11826579D02*
X17378327Y-11817055D01*
X17378327Y-11817055D02*
X17368803Y-11798007D01*
X17368803Y-11798007D02*
X17368803Y-11740864D01*
X17368803Y-11740864D02*
X17378327Y-11721817D01*
X17378327Y-11721817D02*
X17387850Y-11712293D01*
X17387850Y-11712293D02*
X17406898Y-11702769D01*
X17406898Y-11702769D02*
X17435469Y-11702769D01*
X17435469Y-11702769D02*
X17454517Y-11712293D01*
X17454517Y-11712293D02*
X17464041Y-11721817D01*
X17464041Y-11721817D02*
X17473565Y-11740864D01*
X17473565Y-11740864D02*
X17473565Y-11798007D01*
X17473565Y-11798007D02*
X17464041Y-11817055D01*
X17464041Y-11817055D02*
X17454517Y-11826579D01*
X17454517Y-11826579D02*
X17435469Y-11836102D01*
X17435469Y-11836102D02*
X17406898Y-11836102D01*
X17587850Y-11836102D02*
X17568803Y-11826579D01*
X17568803Y-11826579D02*
X17559279Y-11807531D01*
X17559279Y-11807531D02*
X17559279Y-11636102D01*
X17740231Y-11826579D02*
X17721184Y-11836102D01*
X17721184Y-11836102D02*
X17683088Y-11836102D01*
X17683088Y-11836102D02*
X17664041Y-11826579D01*
X17664041Y-11826579D02*
X17654517Y-11807531D01*
X17654517Y-11807531D02*
X17654517Y-11731340D01*
X17654517Y-11731340D02*
X17664041Y-11712293D01*
X17664041Y-11712293D02*
X17683088Y-11702769D01*
X17683088Y-11702769D02*
X17721184Y-11702769D01*
X17721184Y-11702769D02*
X17740231Y-11712293D01*
X17740231Y-11712293D02*
X17749755Y-11731340D01*
X17749755Y-11731340D02*
X17749755Y-11750388D01*
X17749755Y-11750388D02*
X17654517Y-11769436D01*
X17825946Y-11826579D02*
X17844993Y-11836102D01*
X17844993Y-11836102D02*
X17883088Y-11836102D01*
X17883088Y-11836102D02*
X17902136Y-11826579D01*
X17902136Y-11826579D02*
X17911660Y-11807531D01*
X17911660Y-11807531D02*
X17911660Y-11798007D01*
X17911660Y-11798007D02*
X17902136Y-11778959D01*
X17902136Y-11778959D02*
X17883088Y-11769436D01*
X17883088Y-11769436D02*
X17854517Y-11769436D01*
X17854517Y-11769436D02*
X17835469Y-11759912D01*
X17835469Y-11759912D02*
X17825946Y-11740864D01*
X17825946Y-11740864D02*
X17825946Y-11731340D01*
X17825946Y-11731340D02*
X17835469Y-11712293D01*
X17835469Y-11712293D02*
X17854517Y-11702769D01*
X17854517Y-11702769D02*
X17883088Y-11702769D01*
X17883088Y-11702769D02*
X17902136Y-11712293D01*
X17978327Y-11912293D02*
X17987850Y-11902769D01*
X17987850Y-11902769D02*
X18006898Y-11874198D01*
X18006898Y-11874198D02*
X18016422Y-11855150D01*
X18016422Y-11855150D02*
X18025946Y-11826579D01*
X18025946Y-11826579D02*
X18035469Y-11778959D01*
X18035469Y-11778959D02*
X18035469Y-11740864D01*
X18035469Y-11740864D02*
X18025946Y-11693245D01*
X18025946Y-11693245D02*
X18016422Y-11664674D01*
X18016422Y-11664674D02*
X18006898Y-11645626D01*
X18006898Y-11645626D02*
X17987850Y-11617055D01*
X17987850Y-11617055D02*
X17978327Y-11607531D01*
X18340231Y-11912293D02*
X18330708Y-11902769D01*
X18330708Y-11902769D02*
X18311660Y-11874198D01*
X18311660Y-11874198D02*
X18302136Y-11855150D01*
X18302136Y-11855150D02*
X18292612Y-11826579D01*
X18292612Y-11826579D02*
X18283089Y-11778959D01*
X18283089Y-11778959D02*
X18283089Y-11740864D01*
X18283089Y-11740864D02*
X18292612Y-11693245D01*
X18292612Y-11693245D02*
X18302136Y-11664674D01*
X18302136Y-11664674D02*
X18311660Y-11645626D01*
X18311660Y-11645626D02*
X18330708Y-11617055D01*
X18330708Y-11617055D02*
X18340231Y-11607531D01*
X18416422Y-11702769D02*
X18416422Y-11836102D01*
X18416422Y-11721817D02*
X18425946Y-11712293D01*
X18425946Y-11712293D02*
X18444993Y-11702769D01*
X18444993Y-11702769D02*
X18473565Y-11702769D01*
X18473565Y-11702769D02*
X18492612Y-11712293D01*
X18492612Y-11712293D02*
X18502136Y-11731340D01*
X18502136Y-11731340D02*
X18502136Y-11836102D01*
X18625946Y-11836102D02*
X18606898Y-11826579D01*
X18606898Y-11826579D02*
X18597374Y-11817055D01*
X18597374Y-11817055D02*
X18587850Y-11798007D01*
X18587850Y-11798007D02*
X18587850Y-11740864D01*
X18587850Y-11740864D02*
X18597374Y-11721817D01*
X18597374Y-11721817D02*
X18606898Y-11712293D01*
X18606898Y-11712293D02*
X18625946Y-11702769D01*
X18625946Y-11702769D02*
X18654517Y-11702769D01*
X18654517Y-11702769D02*
X18673565Y-11712293D01*
X18673565Y-11712293D02*
X18683089Y-11721817D01*
X18683089Y-11721817D02*
X18692612Y-11740864D01*
X18692612Y-11740864D02*
X18692612Y-11798007D01*
X18692612Y-11798007D02*
X18683089Y-11817055D01*
X18683089Y-11817055D02*
X18673565Y-11826579D01*
X18673565Y-11826579D02*
X18654517Y-11836102D01*
X18654517Y-11836102D02*
X18625946Y-11836102D01*
X18749755Y-11702769D02*
X18825946Y-11702769D01*
X18778327Y-11636102D02*
X18778327Y-11807531D01*
X18778327Y-11807531D02*
X18787850Y-11826579D01*
X18787850Y-11826579D02*
X18806898Y-11836102D01*
X18806898Y-11836102D02*
X18825946Y-11836102D01*
X19044993Y-11702769D02*
X19044993Y-11902769D01*
X19044993Y-11712293D02*
X19064041Y-11702769D01*
X19064041Y-11702769D02*
X19102136Y-11702769D01*
X19102136Y-11702769D02*
X19121184Y-11712293D01*
X19121184Y-11712293D02*
X19130708Y-11721817D01*
X19130708Y-11721817D02*
X19140231Y-11740864D01*
X19140231Y-11740864D02*
X19140231Y-11798007D01*
X19140231Y-11798007D02*
X19130708Y-11817055D01*
X19130708Y-11817055D02*
X19121184Y-11826579D01*
X19121184Y-11826579D02*
X19102136Y-11836102D01*
X19102136Y-11836102D02*
X19064041Y-11836102D01*
X19064041Y-11836102D02*
X19044993Y-11826579D01*
X19254517Y-11836102D02*
X19235470Y-11826579D01*
X19235470Y-11826579D02*
X19225946Y-11807531D01*
X19225946Y-11807531D02*
X19225946Y-11636102D01*
X19416422Y-11836102D02*
X19416422Y-11731340D01*
X19416422Y-11731340D02*
X19406898Y-11712293D01*
X19406898Y-11712293D02*
X19387851Y-11702769D01*
X19387851Y-11702769D02*
X19349755Y-11702769D01*
X19349755Y-11702769D02*
X19330708Y-11712293D01*
X19416422Y-11826579D02*
X19397374Y-11836102D01*
X19397374Y-11836102D02*
X19349755Y-11836102D01*
X19349755Y-11836102D02*
X19330708Y-11826579D01*
X19330708Y-11826579D02*
X19321184Y-11807531D01*
X19321184Y-11807531D02*
X19321184Y-11788483D01*
X19321184Y-11788483D02*
X19330708Y-11769436D01*
X19330708Y-11769436D02*
X19349755Y-11759912D01*
X19349755Y-11759912D02*
X19397374Y-11759912D01*
X19397374Y-11759912D02*
X19416422Y-11750388D01*
X19483089Y-11702769D02*
X19559279Y-11702769D01*
X19511660Y-11636102D02*
X19511660Y-11807531D01*
X19511660Y-11807531D02*
X19521184Y-11826579D01*
X19521184Y-11826579D02*
X19540231Y-11836102D01*
X19540231Y-11836102D02*
X19559279Y-11836102D01*
X19702136Y-11826579D02*
X19683089Y-11836102D01*
X19683089Y-11836102D02*
X19644993Y-11836102D01*
X19644993Y-11836102D02*
X19625946Y-11826579D01*
X19625946Y-11826579D02*
X19616422Y-11807531D01*
X19616422Y-11807531D02*
X19616422Y-11731340D01*
X19616422Y-11731340D02*
X19625946Y-11712293D01*
X19625946Y-11712293D02*
X19644993Y-11702769D01*
X19644993Y-11702769D02*
X19683089Y-11702769D01*
X19683089Y-11702769D02*
X19702136Y-11712293D01*
X19702136Y-11712293D02*
X19711660Y-11731340D01*
X19711660Y-11731340D02*
X19711660Y-11750388D01*
X19711660Y-11750388D02*
X19616422Y-11769436D01*
X19883089Y-11836102D02*
X19883089Y-11636102D01*
X19883089Y-11826579D02*
X19864041Y-11836102D01*
X19864041Y-11836102D02*
X19825946Y-11836102D01*
X19825946Y-11836102D02*
X19806898Y-11826579D01*
X19806898Y-11826579D02*
X19797374Y-11817055D01*
X19797374Y-11817055D02*
X19787851Y-11798007D01*
X19787851Y-11798007D02*
X19787851Y-11740864D01*
X19787851Y-11740864D02*
X19797374Y-11721817D01*
X19797374Y-11721817D02*
X19806898Y-11712293D01*
X19806898Y-11712293D02*
X19825946Y-11702769D01*
X19825946Y-11702769D02*
X19864041Y-11702769D01*
X19864041Y-11702769D02*
X19883089Y-11712293D01*
X19959279Y-11912293D02*
X19968803Y-11902769D01*
X19968803Y-11902769D02*
X19987851Y-11874198D01*
X19987851Y-11874198D02*
X19997374Y-11855150D01*
X19997374Y-11855150D02*
X20006898Y-11826579D01*
X20006898Y-11826579D02*
X20016422Y-11778959D01*
X20016422Y-11778959D02*
X20016422Y-11740864D01*
X20016422Y-11740864D02*
X20006898Y-11693245D01*
X20006898Y-11693245D02*
X19997374Y-11664674D01*
X19997374Y-11664674D02*
X19987851Y-11645626D01*
X19987851Y-11645626D02*
X19968803Y-11617055D01*
X19968803Y-11617055D02*
X19959279Y-11607531D01*
D13*
X13216421Y-12013579D02*
G75*
G03*
X13216421Y-12013579I-90000J0D01*
G01*
D11*
X13568802Y-12106102D02*
X13454517Y-12106102D01*
X13511659Y-12106102D02*
X13511659Y-11906102D01*
X13511659Y-11906102D02*
X13492612Y-11934674D01*
X13492612Y-11934674D02*
X13473564Y-11953721D01*
X13473564Y-11953721D02*
X13454517Y-11963245D01*
X13654517Y-12087055D02*
X13664040Y-12096579D01*
X13664040Y-12096579D02*
X13654517Y-12106102D01*
X13654517Y-12106102D02*
X13644993Y-12096579D01*
X13644993Y-12096579D02*
X13654517Y-12087055D01*
X13654517Y-12087055D02*
X13654517Y-12106102D01*
X13778326Y-11991817D02*
X13759278Y-11982293D01*
X13759278Y-11982293D02*
X13749755Y-11972769D01*
X13749755Y-11972769D02*
X13740231Y-11953721D01*
X13740231Y-11953721D02*
X13740231Y-11944198D01*
X13740231Y-11944198D02*
X13749755Y-11925150D01*
X13749755Y-11925150D02*
X13759278Y-11915626D01*
X13759278Y-11915626D02*
X13778326Y-11906102D01*
X13778326Y-11906102D02*
X13816421Y-11906102D01*
X13816421Y-11906102D02*
X13835469Y-11915626D01*
X13835469Y-11915626D02*
X13844993Y-11925150D01*
X13844993Y-11925150D02*
X13854517Y-11944198D01*
X13854517Y-11944198D02*
X13854517Y-11953721D01*
X13854517Y-11953721D02*
X13844993Y-11972769D01*
X13844993Y-11972769D02*
X13835469Y-11982293D01*
X13835469Y-11982293D02*
X13816421Y-11991817D01*
X13816421Y-11991817D02*
X13778326Y-11991817D01*
X13778326Y-11991817D02*
X13759278Y-12001340D01*
X13759278Y-12001340D02*
X13749755Y-12010864D01*
X13749755Y-12010864D02*
X13740231Y-12029912D01*
X13740231Y-12029912D02*
X13740231Y-12068007D01*
X13740231Y-12068007D02*
X13749755Y-12087055D01*
X13749755Y-12087055D02*
X13759278Y-12096579D01*
X13759278Y-12096579D02*
X13778326Y-12106102D01*
X13778326Y-12106102D02*
X13816421Y-12106102D01*
X13816421Y-12106102D02*
X13835469Y-12096579D01*
X13835469Y-12096579D02*
X13844993Y-12087055D01*
X13844993Y-12087055D02*
X13854517Y-12068007D01*
X13854517Y-12068007D02*
X13854517Y-12029912D01*
X13854517Y-12029912D02*
X13844993Y-12010864D01*
X13844993Y-12010864D02*
X13835469Y-12001340D01*
X13835469Y-12001340D02*
X13816421Y-11991817D01*
X13978326Y-11906102D02*
X13997374Y-11906102D01*
X13997374Y-11906102D02*
X14016421Y-11915626D01*
X14016421Y-11915626D02*
X14025945Y-11925150D01*
X14025945Y-11925150D02*
X14035469Y-11944198D01*
X14035469Y-11944198D02*
X14044993Y-11982293D01*
X14044993Y-11982293D02*
X14044993Y-12029912D01*
X14044993Y-12029912D02*
X14035469Y-12068007D01*
X14035469Y-12068007D02*
X14025945Y-12087055D01*
X14025945Y-12087055D02*
X14016421Y-12096579D01*
X14016421Y-12096579D02*
X13997374Y-12106102D01*
X13997374Y-12106102D02*
X13978326Y-12106102D01*
X13978326Y-12106102D02*
X13959278Y-12096579D01*
X13959278Y-12096579D02*
X13949755Y-12087055D01*
X13949755Y-12087055D02*
X13940231Y-12068007D01*
X13940231Y-12068007D02*
X13930707Y-12029912D01*
X13930707Y-12029912D02*
X13930707Y-11982293D01*
X13930707Y-11982293D02*
X13940231Y-11944198D01*
X13940231Y-11944198D02*
X13949755Y-11925150D01*
X13949755Y-11925150D02*
X13959278Y-11915626D01*
X13959278Y-11915626D02*
X13978326Y-11906102D01*
X14168802Y-11906102D02*
X14187850Y-11906102D01*
X14187850Y-11906102D02*
X14206898Y-11915626D01*
X14206898Y-11915626D02*
X14216421Y-11925150D01*
X14216421Y-11925150D02*
X14225945Y-11944198D01*
X14225945Y-11944198D02*
X14235469Y-11982293D01*
X14235469Y-11982293D02*
X14235469Y-12029912D01*
X14235469Y-12029912D02*
X14225945Y-12068007D01*
X14225945Y-12068007D02*
X14216421Y-12087055D01*
X14216421Y-12087055D02*
X14206898Y-12096579D01*
X14206898Y-12096579D02*
X14187850Y-12106102D01*
X14187850Y-12106102D02*
X14168802Y-12106102D01*
X14168802Y-12106102D02*
X14149755Y-12096579D01*
X14149755Y-12096579D02*
X14140231Y-12087055D01*
X14140231Y-12087055D02*
X14130707Y-12068007D01*
X14130707Y-12068007D02*
X14121183Y-12029912D01*
X14121183Y-12029912D02*
X14121183Y-11982293D01*
X14121183Y-11982293D02*
X14130707Y-11944198D01*
X14130707Y-11944198D02*
X14140231Y-11925150D01*
X14140231Y-11925150D02*
X14149755Y-11915626D01*
X14149755Y-11915626D02*
X14168802Y-11906102D01*
X14321183Y-12106102D02*
X14321183Y-11972769D01*
X14321183Y-11991817D02*
X14330707Y-11982293D01*
X14330707Y-11982293D02*
X14349755Y-11972769D01*
X14349755Y-11972769D02*
X14378326Y-11972769D01*
X14378326Y-11972769D02*
X14397374Y-11982293D01*
X14397374Y-11982293D02*
X14406898Y-12001340D01*
X14406898Y-12001340D02*
X14406898Y-12106102D01*
X14406898Y-12001340D02*
X14416421Y-11982293D01*
X14416421Y-11982293D02*
X14435469Y-11972769D01*
X14435469Y-11972769D02*
X14464040Y-11972769D01*
X14464040Y-11972769D02*
X14483088Y-11982293D01*
X14483088Y-11982293D02*
X14492612Y-12001340D01*
X14492612Y-12001340D02*
X14492612Y-12106102D01*
X14587850Y-12106102D02*
X14587850Y-11972769D01*
X14587850Y-11991817D02*
X14597374Y-11982293D01*
X14597374Y-11982293D02*
X14616421Y-11972769D01*
X14616421Y-11972769D02*
X14644993Y-11972769D01*
X14644993Y-11972769D02*
X14664040Y-11982293D01*
X14664040Y-11982293D02*
X14673564Y-12001340D01*
X14673564Y-12001340D02*
X14673564Y-12106102D01*
X14673564Y-12001340D02*
X14683088Y-11982293D01*
X14683088Y-11982293D02*
X14702136Y-11972769D01*
X14702136Y-11972769D02*
X14730707Y-11972769D01*
X14730707Y-11972769D02*
X14749755Y-11982293D01*
X14749755Y-11982293D02*
X14759279Y-12001340D01*
X14759279Y-12001340D02*
X14759279Y-12106102D01*
X15149755Y-11896579D02*
X14978326Y-12153721D01*
X15406898Y-11906102D02*
X15425945Y-11906102D01*
X15425945Y-11906102D02*
X15444993Y-11915626D01*
X15444993Y-11915626D02*
X15454517Y-11925150D01*
X15454517Y-11925150D02*
X15464041Y-11944198D01*
X15464041Y-11944198D02*
X15473564Y-11982293D01*
X15473564Y-11982293D02*
X15473564Y-12029912D01*
X15473564Y-12029912D02*
X15464041Y-12068007D01*
X15464041Y-12068007D02*
X15454517Y-12087055D01*
X15454517Y-12087055D02*
X15444993Y-12096579D01*
X15444993Y-12096579D02*
X15425945Y-12106102D01*
X15425945Y-12106102D02*
X15406898Y-12106102D01*
X15406898Y-12106102D02*
X15387850Y-12096579D01*
X15387850Y-12096579D02*
X15378326Y-12087055D01*
X15378326Y-12087055D02*
X15368802Y-12068007D01*
X15368802Y-12068007D02*
X15359279Y-12029912D01*
X15359279Y-12029912D02*
X15359279Y-11982293D01*
X15359279Y-11982293D02*
X15368802Y-11944198D01*
X15368802Y-11944198D02*
X15378326Y-11925150D01*
X15378326Y-11925150D02*
X15387850Y-11915626D01*
X15387850Y-11915626D02*
X15406898Y-11906102D01*
X15559279Y-12087055D02*
X15568802Y-12096579D01*
X15568802Y-12096579D02*
X15559279Y-12106102D01*
X15559279Y-12106102D02*
X15549755Y-12096579D01*
X15549755Y-12096579D02*
X15559279Y-12087055D01*
X15559279Y-12087055D02*
X15559279Y-12106102D01*
X15692612Y-11906102D02*
X15711660Y-11906102D01*
X15711660Y-11906102D02*
X15730707Y-11915626D01*
X15730707Y-11915626D02*
X15740231Y-11925150D01*
X15740231Y-11925150D02*
X15749755Y-11944198D01*
X15749755Y-11944198D02*
X15759279Y-11982293D01*
X15759279Y-11982293D02*
X15759279Y-12029912D01*
X15759279Y-12029912D02*
X15749755Y-12068007D01*
X15749755Y-12068007D02*
X15740231Y-12087055D01*
X15740231Y-12087055D02*
X15730707Y-12096579D01*
X15730707Y-12096579D02*
X15711660Y-12106102D01*
X15711660Y-12106102D02*
X15692612Y-12106102D01*
X15692612Y-12106102D02*
X15673564Y-12096579D01*
X15673564Y-12096579D02*
X15664041Y-12087055D01*
X15664041Y-12087055D02*
X15654517Y-12068007D01*
X15654517Y-12068007D02*
X15644993Y-12029912D01*
X15644993Y-12029912D02*
X15644993Y-11982293D01*
X15644993Y-11982293D02*
X15654517Y-11944198D01*
X15654517Y-11944198D02*
X15664041Y-11925150D01*
X15664041Y-11925150D02*
X15673564Y-11915626D01*
X15673564Y-11915626D02*
X15692612Y-11906102D01*
X15825945Y-11906102D02*
X15959279Y-11906102D01*
X15959279Y-11906102D02*
X15873564Y-12106102D01*
X16073564Y-11906102D02*
X16092612Y-11906102D01*
X16092612Y-11906102D02*
X16111660Y-11915626D01*
X16111660Y-11915626D02*
X16121183Y-11925150D01*
X16121183Y-11925150D02*
X16130707Y-11944198D01*
X16130707Y-11944198D02*
X16140231Y-11982293D01*
X16140231Y-11982293D02*
X16140231Y-12029912D01*
X16140231Y-12029912D02*
X16130707Y-12068007D01*
X16130707Y-12068007D02*
X16121183Y-12087055D01*
X16121183Y-12087055D02*
X16111660Y-12096579D01*
X16111660Y-12096579D02*
X16092612Y-12106102D01*
X16092612Y-12106102D02*
X16073564Y-12106102D01*
X16073564Y-12106102D02*
X16054517Y-12096579D01*
X16054517Y-12096579D02*
X16044993Y-12087055D01*
X16044993Y-12087055D02*
X16035469Y-12068007D01*
X16035469Y-12068007D02*
X16025945Y-12029912D01*
X16025945Y-12029912D02*
X16025945Y-11982293D01*
X16025945Y-11982293D02*
X16035469Y-11944198D01*
X16035469Y-11944198D02*
X16044993Y-11925150D01*
X16044993Y-11925150D02*
X16054517Y-11915626D01*
X16054517Y-11915626D02*
X16073564Y-11906102D01*
X16235469Y-12106102D02*
X16273564Y-12106102D01*
X16273564Y-12106102D02*
X16292612Y-12096579D01*
X16292612Y-12096579D02*
X16302136Y-12087055D01*
X16302136Y-12087055D02*
X16321183Y-12058483D01*
X16321183Y-12058483D02*
X16330707Y-12020388D01*
X16330707Y-12020388D02*
X16330707Y-11944198D01*
X16330707Y-11944198D02*
X16321183Y-11925150D01*
X16321183Y-11925150D02*
X16311660Y-11915626D01*
X16311660Y-11915626D02*
X16292612Y-11906102D01*
X16292612Y-11906102D02*
X16254517Y-11906102D01*
X16254517Y-11906102D02*
X16235469Y-11915626D01*
X16235469Y-11915626D02*
X16225945Y-11925150D01*
X16225945Y-11925150D02*
X16216422Y-11944198D01*
X16216422Y-11944198D02*
X16216422Y-11991817D01*
X16216422Y-11991817D02*
X16225945Y-12010864D01*
X16225945Y-12010864D02*
X16235469Y-12020388D01*
X16235469Y-12020388D02*
X16254517Y-12029912D01*
X16254517Y-12029912D02*
X16292612Y-12029912D01*
X16292612Y-12029912D02*
X16311660Y-12020388D01*
X16311660Y-12020388D02*
X16321183Y-12010864D01*
X16321183Y-12010864D02*
X16330707Y-11991817D01*
X16406898Y-11906102D02*
X16406898Y-11944198D01*
X16483088Y-11906102D02*
X16483088Y-11944198D01*
X16778327Y-12182293D02*
X16768803Y-12172769D01*
X16768803Y-12172769D02*
X16749755Y-12144198D01*
X16749755Y-12144198D02*
X16740231Y-12125150D01*
X16740231Y-12125150D02*
X16730707Y-12096579D01*
X16730707Y-12096579D02*
X16721184Y-12048959D01*
X16721184Y-12048959D02*
X16721184Y-12010864D01*
X16721184Y-12010864D02*
X16730707Y-11963245D01*
X16730707Y-11963245D02*
X16740231Y-11934674D01*
X16740231Y-11934674D02*
X16749755Y-11915626D01*
X16749755Y-11915626D02*
X16768803Y-11887055D01*
X16768803Y-11887055D02*
X16778327Y-11877531D01*
X16844993Y-11925150D02*
X16854517Y-11915626D01*
X16854517Y-11915626D02*
X16873565Y-11906102D01*
X16873565Y-11906102D02*
X16921184Y-11906102D01*
X16921184Y-11906102D02*
X16940231Y-11915626D01*
X16940231Y-11915626D02*
X16949755Y-11925150D01*
X16949755Y-11925150D02*
X16959279Y-11944198D01*
X16959279Y-11944198D02*
X16959279Y-11963245D01*
X16959279Y-11963245D02*
X16949755Y-11991817D01*
X16949755Y-11991817D02*
X16835469Y-12106102D01*
X16835469Y-12106102D02*
X16959279Y-12106102D01*
X17197374Y-12106102D02*
X17197374Y-11906102D01*
X17283088Y-12106102D02*
X17283088Y-12001340D01*
X17283088Y-12001340D02*
X17273565Y-11982293D01*
X17273565Y-11982293D02*
X17254517Y-11972769D01*
X17254517Y-11972769D02*
X17225946Y-11972769D01*
X17225946Y-11972769D02*
X17206898Y-11982293D01*
X17206898Y-11982293D02*
X17197374Y-11991817D01*
X17406898Y-12106102D02*
X17387850Y-12096579D01*
X17387850Y-12096579D02*
X17378327Y-12087055D01*
X17378327Y-12087055D02*
X17368803Y-12068007D01*
X17368803Y-12068007D02*
X17368803Y-12010864D01*
X17368803Y-12010864D02*
X17378327Y-11991817D01*
X17378327Y-11991817D02*
X17387850Y-11982293D01*
X17387850Y-11982293D02*
X17406898Y-11972769D01*
X17406898Y-11972769D02*
X17435469Y-11972769D01*
X17435469Y-11972769D02*
X17454517Y-11982293D01*
X17454517Y-11982293D02*
X17464041Y-11991817D01*
X17464041Y-11991817D02*
X17473565Y-12010864D01*
X17473565Y-12010864D02*
X17473565Y-12068007D01*
X17473565Y-12068007D02*
X17464041Y-12087055D01*
X17464041Y-12087055D02*
X17454517Y-12096579D01*
X17454517Y-12096579D02*
X17435469Y-12106102D01*
X17435469Y-12106102D02*
X17406898Y-12106102D01*
X17587850Y-12106102D02*
X17568803Y-12096579D01*
X17568803Y-12096579D02*
X17559279Y-12077531D01*
X17559279Y-12077531D02*
X17559279Y-11906102D01*
X17740231Y-12096579D02*
X17721184Y-12106102D01*
X17721184Y-12106102D02*
X17683088Y-12106102D01*
X17683088Y-12106102D02*
X17664041Y-12096579D01*
X17664041Y-12096579D02*
X17654517Y-12077531D01*
X17654517Y-12077531D02*
X17654517Y-12001340D01*
X17654517Y-12001340D02*
X17664041Y-11982293D01*
X17664041Y-11982293D02*
X17683088Y-11972769D01*
X17683088Y-11972769D02*
X17721184Y-11972769D01*
X17721184Y-11972769D02*
X17740231Y-11982293D01*
X17740231Y-11982293D02*
X17749755Y-12001340D01*
X17749755Y-12001340D02*
X17749755Y-12020388D01*
X17749755Y-12020388D02*
X17654517Y-12039436D01*
X17825946Y-12096579D02*
X17844993Y-12106102D01*
X17844993Y-12106102D02*
X17883088Y-12106102D01*
X17883088Y-12106102D02*
X17902136Y-12096579D01*
X17902136Y-12096579D02*
X17911660Y-12077531D01*
X17911660Y-12077531D02*
X17911660Y-12068007D01*
X17911660Y-12068007D02*
X17902136Y-12048959D01*
X17902136Y-12048959D02*
X17883088Y-12039436D01*
X17883088Y-12039436D02*
X17854517Y-12039436D01*
X17854517Y-12039436D02*
X17835469Y-12029912D01*
X17835469Y-12029912D02*
X17825946Y-12010864D01*
X17825946Y-12010864D02*
X17825946Y-12001340D01*
X17825946Y-12001340D02*
X17835469Y-11982293D01*
X17835469Y-11982293D02*
X17854517Y-11972769D01*
X17854517Y-11972769D02*
X17883088Y-11972769D01*
X17883088Y-11972769D02*
X17902136Y-11982293D01*
X17978327Y-12182293D02*
X17987850Y-12172769D01*
X17987850Y-12172769D02*
X18006898Y-12144198D01*
X18006898Y-12144198D02*
X18016422Y-12125150D01*
X18016422Y-12125150D02*
X18025946Y-12096579D01*
X18025946Y-12096579D02*
X18035469Y-12048959D01*
X18035469Y-12048959D02*
X18035469Y-12010864D01*
X18035469Y-12010864D02*
X18025946Y-11963245D01*
X18025946Y-11963245D02*
X18016422Y-11934674D01*
X18016422Y-11934674D02*
X18006898Y-11915626D01*
X18006898Y-11915626D02*
X17987850Y-11887055D01*
X17987850Y-11887055D02*
X17978327Y-11877531D01*
X18340231Y-12182293D02*
X18330708Y-12172769D01*
X18330708Y-12172769D02*
X18311660Y-12144198D01*
X18311660Y-12144198D02*
X18302136Y-12125150D01*
X18302136Y-12125150D02*
X18292612Y-12096579D01*
X18292612Y-12096579D02*
X18283089Y-12048959D01*
X18283089Y-12048959D02*
X18283089Y-12010864D01*
X18283089Y-12010864D02*
X18292612Y-11963245D01*
X18292612Y-11963245D02*
X18302136Y-11934674D01*
X18302136Y-11934674D02*
X18311660Y-11915626D01*
X18311660Y-11915626D02*
X18330708Y-11887055D01*
X18330708Y-11887055D02*
X18340231Y-11877531D01*
X18416422Y-11972769D02*
X18416422Y-12106102D01*
X18416422Y-11991817D02*
X18425946Y-11982293D01*
X18425946Y-11982293D02*
X18444993Y-11972769D01*
X18444993Y-11972769D02*
X18473565Y-11972769D01*
X18473565Y-11972769D02*
X18492612Y-11982293D01*
X18492612Y-11982293D02*
X18502136Y-12001340D01*
X18502136Y-12001340D02*
X18502136Y-12106102D01*
X18625946Y-12106102D02*
X18606898Y-12096579D01*
X18606898Y-12096579D02*
X18597374Y-12087055D01*
X18597374Y-12087055D02*
X18587850Y-12068007D01*
X18587850Y-12068007D02*
X18587850Y-12010864D01*
X18587850Y-12010864D02*
X18597374Y-11991817D01*
X18597374Y-11991817D02*
X18606898Y-11982293D01*
X18606898Y-11982293D02*
X18625946Y-11972769D01*
X18625946Y-11972769D02*
X18654517Y-11972769D01*
X18654517Y-11972769D02*
X18673565Y-11982293D01*
X18673565Y-11982293D02*
X18683089Y-11991817D01*
X18683089Y-11991817D02*
X18692612Y-12010864D01*
X18692612Y-12010864D02*
X18692612Y-12068007D01*
X18692612Y-12068007D02*
X18683089Y-12087055D01*
X18683089Y-12087055D02*
X18673565Y-12096579D01*
X18673565Y-12096579D02*
X18654517Y-12106102D01*
X18654517Y-12106102D02*
X18625946Y-12106102D01*
X18749755Y-11972769D02*
X18825946Y-11972769D01*
X18778327Y-11906102D02*
X18778327Y-12077531D01*
X18778327Y-12077531D02*
X18787850Y-12096579D01*
X18787850Y-12096579D02*
X18806898Y-12106102D01*
X18806898Y-12106102D02*
X18825946Y-12106102D01*
X19044993Y-11972769D02*
X19044993Y-12172769D01*
X19044993Y-11982293D02*
X19064041Y-11972769D01*
X19064041Y-11972769D02*
X19102136Y-11972769D01*
X19102136Y-11972769D02*
X19121184Y-11982293D01*
X19121184Y-11982293D02*
X19130708Y-11991817D01*
X19130708Y-11991817D02*
X19140231Y-12010864D01*
X19140231Y-12010864D02*
X19140231Y-12068007D01*
X19140231Y-12068007D02*
X19130708Y-12087055D01*
X19130708Y-12087055D02*
X19121184Y-12096579D01*
X19121184Y-12096579D02*
X19102136Y-12106102D01*
X19102136Y-12106102D02*
X19064041Y-12106102D01*
X19064041Y-12106102D02*
X19044993Y-12096579D01*
X19254517Y-12106102D02*
X19235470Y-12096579D01*
X19235470Y-12096579D02*
X19225946Y-12077531D01*
X19225946Y-12077531D02*
X19225946Y-11906102D01*
X19416422Y-12106102D02*
X19416422Y-12001340D01*
X19416422Y-12001340D02*
X19406898Y-11982293D01*
X19406898Y-11982293D02*
X19387851Y-11972769D01*
X19387851Y-11972769D02*
X19349755Y-11972769D01*
X19349755Y-11972769D02*
X19330708Y-11982293D01*
X19416422Y-12096579D02*
X19397374Y-12106102D01*
X19397374Y-12106102D02*
X19349755Y-12106102D01*
X19349755Y-12106102D02*
X19330708Y-12096579D01*
X19330708Y-12096579D02*
X19321184Y-12077531D01*
X19321184Y-12077531D02*
X19321184Y-12058483D01*
X19321184Y-12058483D02*
X19330708Y-12039436D01*
X19330708Y-12039436D02*
X19349755Y-12029912D01*
X19349755Y-12029912D02*
X19397374Y-12029912D01*
X19397374Y-12029912D02*
X19416422Y-12020388D01*
X19483089Y-11972769D02*
X19559279Y-11972769D01*
X19511660Y-11906102D02*
X19511660Y-12077531D01*
X19511660Y-12077531D02*
X19521184Y-12096579D01*
X19521184Y-12096579D02*
X19540231Y-12106102D01*
X19540231Y-12106102D02*
X19559279Y-12106102D01*
X19702136Y-12096579D02*
X19683089Y-12106102D01*
X19683089Y-12106102D02*
X19644993Y-12106102D01*
X19644993Y-12106102D02*
X19625946Y-12096579D01*
X19625946Y-12096579D02*
X19616422Y-12077531D01*
X19616422Y-12077531D02*
X19616422Y-12001340D01*
X19616422Y-12001340D02*
X19625946Y-11982293D01*
X19625946Y-11982293D02*
X19644993Y-11972769D01*
X19644993Y-11972769D02*
X19683089Y-11972769D01*
X19683089Y-11972769D02*
X19702136Y-11982293D01*
X19702136Y-11982293D02*
X19711660Y-12001340D01*
X19711660Y-12001340D02*
X19711660Y-12020388D01*
X19711660Y-12020388D02*
X19616422Y-12039436D01*
X19883089Y-12106102D02*
X19883089Y-11906102D01*
X19883089Y-12096579D02*
X19864041Y-12106102D01*
X19864041Y-12106102D02*
X19825946Y-12106102D01*
X19825946Y-12106102D02*
X19806898Y-12096579D01*
X19806898Y-12096579D02*
X19797374Y-12087055D01*
X19797374Y-12087055D02*
X19787851Y-12068007D01*
X19787851Y-12068007D02*
X19787851Y-12010864D01*
X19787851Y-12010864D02*
X19797374Y-11991817D01*
X19797374Y-11991817D02*
X19806898Y-11982293D01*
X19806898Y-11982293D02*
X19825946Y-11972769D01*
X19825946Y-11972769D02*
X19864041Y-11972769D01*
X19864041Y-11972769D02*
X19883089Y-11982293D01*
X19959279Y-12182293D02*
X19968803Y-12172769D01*
X19968803Y-12172769D02*
X19987851Y-12144198D01*
X19987851Y-12144198D02*
X19997374Y-12125150D01*
X19997374Y-12125150D02*
X20006898Y-12096579D01*
X20006898Y-12096579D02*
X20016422Y-12048959D01*
X20016422Y-12048959D02*
X20016422Y-12010864D01*
X20016422Y-12010864D02*
X20006898Y-11963245D01*
X20006898Y-11963245D02*
X19997374Y-11934674D01*
X19997374Y-11934674D02*
X19987851Y-11915626D01*
X19987851Y-11915626D02*
X19968803Y-11887055D01*
X19968803Y-11887055D02*
X19959279Y-11877531D01*
X13116421Y-12213579D02*
X13116421Y-12413579D01*
X13016421Y-12313579D02*
X13216421Y-12313579D01*
X13454517Y-12225150D02*
X13464040Y-12215626D01*
X13464040Y-12215626D02*
X13483088Y-12206102D01*
X13483088Y-12206102D02*
X13530707Y-12206102D01*
X13530707Y-12206102D02*
X13549755Y-12215626D01*
X13549755Y-12215626D02*
X13559278Y-12225150D01*
X13559278Y-12225150D02*
X13568802Y-12244198D01*
X13568802Y-12244198D02*
X13568802Y-12263245D01*
X13568802Y-12263245D02*
X13559278Y-12291817D01*
X13559278Y-12291817D02*
X13444993Y-12406102D01*
X13444993Y-12406102D02*
X13568802Y-12406102D01*
X13654517Y-12387055D02*
X13664040Y-12396579D01*
X13664040Y-12396579D02*
X13654517Y-12406102D01*
X13654517Y-12406102D02*
X13644993Y-12396579D01*
X13644993Y-12396579D02*
X13654517Y-12387055D01*
X13654517Y-12387055D02*
X13654517Y-12406102D01*
X13740231Y-12225150D02*
X13749755Y-12215626D01*
X13749755Y-12215626D02*
X13768802Y-12206102D01*
X13768802Y-12206102D02*
X13816421Y-12206102D01*
X13816421Y-12206102D02*
X13835469Y-12215626D01*
X13835469Y-12215626D02*
X13844993Y-12225150D01*
X13844993Y-12225150D02*
X13854517Y-12244198D01*
X13854517Y-12244198D02*
X13854517Y-12263245D01*
X13854517Y-12263245D02*
X13844993Y-12291817D01*
X13844993Y-12291817D02*
X13730707Y-12406102D01*
X13730707Y-12406102D02*
X13854517Y-12406102D01*
X13978326Y-12206102D02*
X13997374Y-12206102D01*
X13997374Y-12206102D02*
X14016421Y-12215626D01*
X14016421Y-12215626D02*
X14025945Y-12225150D01*
X14025945Y-12225150D02*
X14035469Y-12244198D01*
X14035469Y-12244198D02*
X14044993Y-12282293D01*
X14044993Y-12282293D02*
X14044993Y-12329912D01*
X14044993Y-12329912D02*
X14035469Y-12368007D01*
X14035469Y-12368007D02*
X14025945Y-12387055D01*
X14025945Y-12387055D02*
X14016421Y-12396579D01*
X14016421Y-12396579D02*
X13997374Y-12406102D01*
X13997374Y-12406102D02*
X13978326Y-12406102D01*
X13978326Y-12406102D02*
X13959278Y-12396579D01*
X13959278Y-12396579D02*
X13949755Y-12387055D01*
X13949755Y-12387055D02*
X13940231Y-12368007D01*
X13940231Y-12368007D02*
X13930707Y-12329912D01*
X13930707Y-12329912D02*
X13930707Y-12282293D01*
X13930707Y-12282293D02*
X13940231Y-12244198D01*
X13940231Y-12244198D02*
X13949755Y-12225150D01*
X13949755Y-12225150D02*
X13959278Y-12215626D01*
X13959278Y-12215626D02*
X13978326Y-12206102D01*
X14168802Y-12206102D02*
X14187850Y-12206102D01*
X14187850Y-12206102D02*
X14206898Y-12215626D01*
X14206898Y-12215626D02*
X14216421Y-12225150D01*
X14216421Y-12225150D02*
X14225945Y-12244198D01*
X14225945Y-12244198D02*
X14235469Y-12282293D01*
X14235469Y-12282293D02*
X14235469Y-12329912D01*
X14235469Y-12329912D02*
X14225945Y-12368007D01*
X14225945Y-12368007D02*
X14216421Y-12387055D01*
X14216421Y-12387055D02*
X14206898Y-12396579D01*
X14206898Y-12396579D02*
X14187850Y-12406102D01*
X14187850Y-12406102D02*
X14168802Y-12406102D01*
X14168802Y-12406102D02*
X14149755Y-12396579D01*
X14149755Y-12396579D02*
X14140231Y-12387055D01*
X14140231Y-12387055D02*
X14130707Y-12368007D01*
X14130707Y-12368007D02*
X14121183Y-12329912D01*
X14121183Y-12329912D02*
X14121183Y-12282293D01*
X14121183Y-12282293D02*
X14130707Y-12244198D01*
X14130707Y-12244198D02*
X14140231Y-12225150D01*
X14140231Y-12225150D02*
X14149755Y-12215626D01*
X14149755Y-12215626D02*
X14168802Y-12206102D01*
X14321183Y-12406102D02*
X14321183Y-12272769D01*
X14321183Y-12291817D02*
X14330707Y-12282293D01*
X14330707Y-12282293D02*
X14349755Y-12272769D01*
X14349755Y-12272769D02*
X14378326Y-12272769D01*
X14378326Y-12272769D02*
X14397374Y-12282293D01*
X14397374Y-12282293D02*
X14406898Y-12301340D01*
X14406898Y-12301340D02*
X14406898Y-12406102D01*
X14406898Y-12301340D02*
X14416421Y-12282293D01*
X14416421Y-12282293D02*
X14435469Y-12272769D01*
X14435469Y-12272769D02*
X14464040Y-12272769D01*
X14464040Y-12272769D02*
X14483088Y-12282293D01*
X14483088Y-12282293D02*
X14492612Y-12301340D01*
X14492612Y-12301340D02*
X14492612Y-12406102D01*
X14587850Y-12406102D02*
X14587850Y-12272769D01*
X14587850Y-12291817D02*
X14597374Y-12282293D01*
X14597374Y-12282293D02*
X14616421Y-12272769D01*
X14616421Y-12272769D02*
X14644993Y-12272769D01*
X14644993Y-12272769D02*
X14664040Y-12282293D01*
X14664040Y-12282293D02*
X14673564Y-12301340D01*
X14673564Y-12301340D02*
X14673564Y-12406102D01*
X14673564Y-12301340D02*
X14683088Y-12282293D01*
X14683088Y-12282293D02*
X14702136Y-12272769D01*
X14702136Y-12272769D02*
X14730707Y-12272769D01*
X14730707Y-12272769D02*
X14749755Y-12282293D01*
X14749755Y-12282293D02*
X14759279Y-12301340D01*
X14759279Y-12301340D02*
X14759279Y-12406102D01*
X15149755Y-12196579D02*
X14978326Y-12453721D01*
X15406898Y-12206102D02*
X15425945Y-12206102D01*
X15425945Y-12206102D02*
X15444993Y-12215626D01*
X15444993Y-12215626D02*
X15454517Y-12225150D01*
X15454517Y-12225150D02*
X15464041Y-12244198D01*
X15464041Y-12244198D02*
X15473564Y-12282293D01*
X15473564Y-12282293D02*
X15473564Y-12329912D01*
X15473564Y-12329912D02*
X15464041Y-12368007D01*
X15464041Y-12368007D02*
X15454517Y-12387055D01*
X15454517Y-12387055D02*
X15444993Y-12396579D01*
X15444993Y-12396579D02*
X15425945Y-12406102D01*
X15425945Y-12406102D02*
X15406898Y-12406102D01*
X15406898Y-12406102D02*
X15387850Y-12396579D01*
X15387850Y-12396579D02*
X15378326Y-12387055D01*
X15378326Y-12387055D02*
X15368802Y-12368007D01*
X15368802Y-12368007D02*
X15359279Y-12329912D01*
X15359279Y-12329912D02*
X15359279Y-12282293D01*
X15359279Y-12282293D02*
X15368802Y-12244198D01*
X15368802Y-12244198D02*
X15378326Y-12225150D01*
X15378326Y-12225150D02*
X15387850Y-12215626D01*
X15387850Y-12215626D02*
X15406898Y-12206102D01*
X15559279Y-12387055D02*
X15568802Y-12396579D01*
X15568802Y-12396579D02*
X15559279Y-12406102D01*
X15559279Y-12406102D02*
X15549755Y-12396579D01*
X15549755Y-12396579D02*
X15559279Y-12387055D01*
X15559279Y-12387055D02*
X15559279Y-12406102D01*
X15692612Y-12206102D02*
X15711660Y-12206102D01*
X15711660Y-12206102D02*
X15730707Y-12215626D01*
X15730707Y-12215626D02*
X15740231Y-12225150D01*
X15740231Y-12225150D02*
X15749755Y-12244198D01*
X15749755Y-12244198D02*
X15759279Y-12282293D01*
X15759279Y-12282293D02*
X15759279Y-12329912D01*
X15759279Y-12329912D02*
X15749755Y-12368007D01*
X15749755Y-12368007D02*
X15740231Y-12387055D01*
X15740231Y-12387055D02*
X15730707Y-12396579D01*
X15730707Y-12396579D02*
X15711660Y-12406102D01*
X15711660Y-12406102D02*
X15692612Y-12406102D01*
X15692612Y-12406102D02*
X15673564Y-12396579D01*
X15673564Y-12396579D02*
X15664041Y-12387055D01*
X15664041Y-12387055D02*
X15654517Y-12368007D01*
X15654517Y-12368007D02*
X15644993Y-12329912D01*
X15644993Y-12329912D02*
X15644993Y-12282293D01*
X15644993Y-12282293D02*
X15654517Y-12244198D01*
X15654517Y-12244198D02*
X15664041Y-12225150D01*
X15664041Y-12225150D02*
X15673564Y-12215626D01*
X15673564Y-12215626D02*
X15692612Y-12206102D01*
X15873564Y-12291817D02*
X15854517Y-12282293D01*
X15854517Y-12282293D02*
X15844993Y-12272769D01*
X15844993Y-12272769D02*
X15835469Y-12253721D01*
X15835469Y-12253721D02*
X15835469Y-12244198D01*
X15835469Y-12244198D02*
X15844993Y-12225150D01*
X15844993Y-12225150D02*
X15854517Y-12215626D01*
X15854517Y-12215626D02*
X15873564Y-12206102D01*
X15873564Y-12206102D02*
X15911660Y-12206102D01*
X15911660Y-12206102D02*
X15930707Y-12215626D01*
X15930707Y-12215626D02*
X15940231Y-12225150D01*
X15940231Y-12225150D02*
X15949755Y-12244198D01*
X15949755Y-12244198D02*
X15949755Y-12253721D01*
X15949755Y-12253721D02*
X15940231Y-12272769D01*
X15940231Y-12272769D02*
X15930707Y-12282293D01*
X15930707Y-12282293D02*
X15911660Y-12291817D01*
X15911660Y-12291817D02*
X15873564Y-12291817D01*
X15873564Y-12291817D02*
X15854517Y-12301340D01*
X15854517Y-12301340D02*
X15844993Y-12310864D01*
X15844993Y-12310864D02*
X15835469Y-12329912D01*
X15835469Y-12329912D02*
X15835469Y-12368007D01*
X15835469Y-12368007D02*
X15844993Y-12387055D01*
X15844993Y-12387055D02*
X15854517Y-12396579D01*
X15854517Y-12396579D02*
X15873564Y-12406102D01*
X15873564Y-12406102D02*
X15911660Y-12406102D01*
X15911660Y-12406102D02*
X15930707Y-12396579D01*
X15930707Y-12396579D02*
X15940231Y-12387055D01*
X15940231Y-12387055D02*
X15949755Y-12368007D01*
X15949755Y-12368007D02*
X15949755Y-12329912D01*
X15949755Y-12329912D02*
X15940231Y-12310864D01*
X15940231Y-12310864D02*
X15930707Y-12301340D01*
X15930707Y-12301340D02*
X15911660Y-12291817D01*
X16121183Y-12206102D02*
X16083088Y-12206102D01*
X16083088Y-12206102D02*
X16064041Y-12215626D01*
X16064041Y-12215626D02*
X16054517Y-12225150D01*
X16054517Y-12225150D02*
X16035469Y-12253721D01*
X16035469Y-12253721D02*
X16025945Y-12291817D01*
X16025945Y-12291817D02*
X16025945Y-12368007D01*
X16025945Y-12368007D02*
X16035469Y-12387055D01*
X16035469Y-12387055D02*
X16044993Y-12396579D01*
X16044993Y-12396579D02*
X16064041Y-12406102D01*
X16064041Y-12406102D02*
X16102136Y-12406102D01*
X16102136Y-12406102D02*
X16121183Y-12396579D01*
X16121183Y-12396579D02*
X16130707Y-12387055D01*
X16130707Y-12387055D02*
X16140231Y-12368007D01*
X16140231Y-12368007D02*
X16140231Y-12320388D01*
X16140231Y-12320388D02*
X16130707Y-12301340D01*
X16130707Y-12301340D02*
X16121183Y-12291817D01*
X16121183Y-12291817D02*
X16102136Y-12282293D01*
X16102136Y-12282293D02*
X16064041Y-12282293D01*
X16064041Y-12282293D02*
X16044993Y-12291817D01*
X16044993Y-12291817D02*
X16035469Y-12301340D01*
X16035469Y-12301340D02*
X16025945Y-12320388D01*
X16311660Y-12206102D02*
X16273564Y-12206102D01*
X16273564Y-12206102D02*
X16254517Y-12215626D01*
X16254517Y-12215626D02*
X16244993Y-12225150D01*
X16244993Y-12225150D02*
X16225945Y-12253721D01*
X16225945Y-12253721D02*
X16216422Y-12291817D01*
X16216422Y-12291817D02*
X16216422Y-12368007D01*
X16216422Y-12368007D02*
X16225945Y-12387055D01*
X16225945Y-12387055D02*
X16235469Y-12396579D01*
X16235469Y-12396579D02*
X16254517Y-12406102D01*
X16254517Y-12406102D02*
X16292612Y-12406102D01*
X16292612Y-12406102D02*
X16311660Y-12396579D01*
X16311660Y-12396579D02*
X16321183Y-12387055D01*
X16321183Y-12387055D02*
X16330707Y-12368007D01*
X16330707Y-12368007D02*
X16330707Y-12320388D01*
X16330707Y-12320388D02*
X16321183Y-12301340D01*
X16321183Y-12301340D02*
X16311660Y-12291817D01*
X16311660Y-12291817D02*
X16292612Y-12282293D01*
X16292612Y-12282293D02*
X16254517Y-12282293D01*
X16254517Y-12282293D02*
X16235469Y-12291817D01*
X16235469Y-12291817D02*
X16225945Y-12301340D01*
X16225945Y-12301340D02*
X16216422Y-12320388D01*
X16406898Y-12206102D02*
X16406898Y-12244198D01*
X16483088Y-12206102D02*
X16483088Y-12244198D01*
X16778327Y-12482293D02*
X16768803Y-12472769D01*
X16768803Y-12472769D02*
X16749755Y-12444198D01*
X16749755Y-12444198D02*
X16740231Y-12425150D01*
X16740231Y-12425150D02*
X16730707Y-12396579D01*
X16730707Y-12396579D02*
X16721184Y-12348959D01*
X16721184Y-12348959D02*
X16721184Y-12310864D01*
X16721184Y-12310864D02*
X16730707Y-12263245D01*
X16730707Y-12263245D02*
X16740231Y-12234674D01*
X16740231Y-12234674D02*
X16749755Y-12215626D01*
X16749755Y-12215626D02*
X16768803Y-12187055D01*
X16768803Y-12187055D02*
X16778327Y-12177531D01*
X16940231Y-12272769D02*
X16940231Y-12406102D01*
X16892612Y-12196579D02*
X16844993Y-12339436D01*
X16844993Y-12339436D02*
X16968803Y-12339436D01*
X17197374Y-12406102D02*
X17197374Y-12206102D01*
X17283088Y-12406102D02*
X17283088Y-12301340D01*
X17283088Y-12301340D02*
X17273565Y-12282293D01*
X17273565Y-12282293D02*
X17254517Y-12272769D01*
X17254517Y-12272769D02*
X17225946Y-12272769D01*
X17225946Y-12272769D02*
X17206898Y-12282293D01*
X17206898Y-12282293D02*
X17197374Y-12291817D01*
X17406898Y-12406102D02*
X17387850Y-12396579D01*
X17387850Y-12396579D02*
X17378327Y-12387055D01*
X17378327Y-12387055D02*
X17368803Y-12368007D01*
X17368803Y-12368007D02*
X17368803Y-12310864D01*
X17368803Y-12310864D02*
X17378327Y-12291817D01*
X17378327Y-12291817D02*
X17387850Y-12282293D01*
X17387850Y-12282293D02*
X17406898Y-12272769D01*
X17406898Y-12272769D02*
X17435469Y-12272769D01*
X17435469Y-12272769D02*
X17454517Y-12282293D01*
X17454517Y-12282293D02*
X17464041Y-12291817D01*
X17464041Y-12291817D02*
X17473565Y-12310864D01*
X17473565Y-12310864D02*
X17473565Y-12368007D01*
X17473565Y-12368007D02*
X17464041Y-12387055D01*
X17464041Y-12387055D02*
X17454517Y-12396579D01*
X17454517Y-12396579D02*
X17435469Y-12406102D01*
X17435469Y-12406102D02*
X17406898Y-12406102D01*
X17587850Y-12406102D02*
X17568803Y-12396579D01*
X17568803Y-12396579D02*
X17559279Y-12377531D01*
X17559279Y-12377531D02*
X17559279Y-12206102D01*
X17740231Y-12396579D02*
X17721184Y-12406102D01*
X17721184Y-12406102D02*
X17683088Y-12406102D01*
X17683088Y-12406102D02*
X17664041Y-12396579D01*
X17664041Y-12396579D02*
X17654517Y-12377531D01*
X17654517Y-12377531D02*
X17654517Y-12301340D01*
X17654517Y-12301340D02*
X17664041Y-12282293D01*
X17664041Y-12282293D02*
X17683088Y-12272769D01*
X17683088Y-12272769D02*
X17721184Y-12272769D01*
X17721184Y-12272769D02*
X17740231Y-12282293D01*
X17740231Y-12282293D02*
X17749755Y-12301340D01*
X17749755Y-12301340D02*
X17749755Y-12320388D01*
X17749755Y-12320388D02*
X17654517Y-12339436D01*
X17825946Y-12396579D02*
X17844993Y-12406102D01*
X17844993Y-12406102D02*
X17883088Y-12406102D01*
X17883088Y-12406102D02*
X17902136Y-12396579D01*
X17902136Y-12396579D02*
X17911660Y-12377531D01*
X17911660Y-12377531D02*
X17911660Y-12368007D01*
X17911660Y-12368007D02*
X17902136Y-12348959D01*
X17902136Y-12348959D02*
X17883088Y-12339436D01*
X17883088Y-12339436D02*
X17854517Y-12339436D01*
X17854517Y-12339436D02*
X17835469Y-12329912D01*
X17835469Y-12329912D02*
X17825946Y-12310864D01*
X17825946Y-12310864D02*
X17825946Y-12301340D01*
X17825946Y-12301340D02*
X17835469Y-12282293D01*
X17835469Y-12282293D02*
X17854517Y-12272769D01*
X17854517Y-12272769D02*
X17883088Y-12272769D01*
X17883088Y-12272769D02*
X17902136Y-12282293D01*
X17978327Y-12482293D02*
X17987850Y-12472769D01*
X17987850Y-12472769D02*
X18006898Y-12444198D01*
X18006898Y-12444198D02*
X18016422Y-12425150D01*
X18016422Y-12425150D02*
X18025946Y-12396579D01*
X18025946Y-12396579D02*
X18035469Y-12348959D01*
X18035469Y-12348959D02*
X18035469Y-12310864D01*
X18035469Y-12310864D02*
X18025946Y-12263245D01*
X18025946Y-12263245D02*
X18016422Y-12234674D01*
X18016422Y-12234674D02*
X18006898Y-12215626D01*
X18006898Y-12215626D02*
X17987850Y-12187055D01*
X17987850Y-12187055D02*
X17978327Y-12177531D01*
X18340231Y-12482293D02*
X18330708Y-12472769D01*
X18330708Y-12472769D02*
X18311660Y-12444198D01*
X18311660Y-12444198D02*
X18302136Y-12425150D01*
X18302136Y-12425150D02*
X18292612Y-12396579D01*
X18292612Y-12396579D02*
X18283089Y-12348959D01*
X18283089Y-12348959D02*
X18283089Y-12310864D01*
X18283089Y-12310864D02*
X18292612Y-12263245D01*
X18292612Y-12263245D02*
X18302136Y-12234674D01*
X18302136Y-12234674D02*
X18311660Y-12215626D01*
X18311660Y-12215626D02*
X18330708Y-12187055D01*
X18330708Y-12187055D02*
X18340231Y-12177531D01*
X18416422Y-12272769D02*
X18416422Y-12406102D01*
X18416422Y-12291817D02*
X18425946Y-12282293D01*
X18425946Y-12282293D02*
X18444993Y-12272769D01*
X18444993Y-12272769D02*
X18473565Y-12272769D01*
X18473565Y-12272769D02*
X18492612Y-12282293D01*
X18492612Y-12282293D02*
X18502136Y-12301340D01*
X18502136Y-12301340D02*
X18502136Y-12406102D01*
X18625946Y-12406102D02*
X18606898Y-12396579D01*
X18606898Y-12396579D02*
X18597374Y-12387055D01*
X18597374Y-12387055D02*
X18587850Y-12368007D01*
X18587850Y-12368007D02*
X18587850Y-12310864D01*
X18587850Y-12310864D02*
X18597374Y-12291817D01*
X18597374Y-12291817D02*
X18606898Y-12282293D01*
X18606898Y-12282293D02*
X18625946Y-12272769D01*
X18625946Y-12272769D02*
X18654517Y-12272769D01*
X18654517Y-12272769D02*
X18673565Y-12282293D01*
X18673565Y-12282293D02*
X18683089Y-12291817D01*
X18683089Y-12291817D02*
X18692612Y-12310864D01*
X18692612Y-12310864D02*
X18692612Y-12368007D01*
X18692612Y-12368007D02*
X18683089Y-12387055D01*
X18683089Y-12387055D02*
X18673565Y-12396579D01*
X18673565Y-12396579D02*
X18654517Y-12406102D01*
X18654517Y-12406102D02*
X18625946Y-12406102D01*
X18749755Y-12272769D02*
X18825946Y-12272769D01*
X18778327Y-12206102D02*
X18778327Y-12377531D01*
X18778327Y-12377531D02*
X18787850Y-12396579D01*
X18787850Y-12396579D02*
X18806898Y-12406102D01*
X18806898Y-12406102D02*
X18825946Y-12406102D01*
X19044993Y-12272769D02*
X19044993Y-12472769D01*
X19044993Y-12282293D02*
X19064041Y-12272769D01*
X19064041Y-12272769D02*
X19102136Y-12272769D01*
X19102136Y-12272769D02*
X19121184Y-12282293D01*
X19121184Y-12282293D02*
X19130708Y-12291817D01*
X19130708Y-12291817D02*
X19140231Y-12310864D01*
X19140231Y-12310864D02*
X19140231Y-12368007D01*
X19140231Y-12368007D02*
X19130708Y-12387055D01*
X19130708Y-12387055D02*
X19121184Y-12396579D01*
X19121184Y-12396579D02*
X19102136Y-12406102D01*
X19102136Y-12406102D02*
X19064041Y-12406102D01*
X19064041Y-12406102D02*
X19044993Y-12396579D01*
X19254517Y-12406102D02*
X19235470Y-12396579D01*
X19235470Y-12396579D02*
X19225946Y-12377531D01*
X19225946Y-12377531D02*
X19225946Y-12206102D01*
X19416422Y-12406102D02*
X19416422Y-12301340D01*
X19416422Y-12301340D02*
X19406898Y-12282293D01*
X19406898Y-12282293D02*
X19387851Y-12272769D01*
X19387851Y-12272769D02*
X19349755Y-12272769D01*
X19349755Y-12272769D02*
X19330708Y-12282293D01*
X19416422Y-12396579D02*
X19397374Y-12406102D01*
X19397374Y-12406102D02*
X19349755Y-12406102D01*
X19349755Y-12406102D02*
X19330708Y-12396579D01*
X19330708Y-12396579D02*
X19321184Y-12377531D01*
X19321184Y-12377531D02*
X19321184Y-12358483D01*
X19321184Y-12358483D02*
X19330708Y-12339436D01*
X19330708Y-12339436D02*
X19349755Y-12329912D01*
X19349755Y-12329912D02*
X19397374Y-12329912D01*
X19397374Y-12329912D02*
X19416422Y-12320388D01*
X19483089Y-12272769D02*
X19559279Y-12272769D01*
X19511660Y-12206102D02*
X19511660Y-12377531D01*
X19511660Y-12377531D02*
X19521184Y-12396579D01*
X19521184Y-12396579D02*
X19540231Y-12406102D01*
X19540231Y-12406102D02*
X19559279Y-12406102D01*
X19702136Y-12396579D02*
X19683089Y-12406102D01*
X19683089Y-12406102D02*
X19644993Y-12406102D01*
X19644993Y-12406102D02*
X19625946Y-12396579D01*
X19625946Y-12396579D02*
X19616422Y-12377531D01*
X19616422Y-12377531D02*
X19616422Y-12301340D01*
X19616422Y-12301340D02*
X19625946Y-12282293D01*
X19625946Y-12282293D02*
X19644993Y-12272769D01*
X19644993Y-12272769D02*
X19683089Y-12272769D01*
X19683089Y-12272769D02*
X19702136Y-12282293D01*
X19702136Y-12282293D02*
X19711660Y-12301340D01*
X19711660Y-12301340D02*
X19711660Y-12320388D01*
X19711660Y-12320388D02*
X19616422Y-12339436D01*
X19883089Y-12406102D02*
X19883089Y-12206102D01*
X19883089Y-12396579D02*
X19864041Y-12406102D01*
X19864041Y-12406102D02*
X19825946Y-12406102D01*
X19825946Y-12406102D02*
X19806898Y-12396579D01*
X19806898Y-12396579D02*
X19797374Y-12387055D01*
X19797374Y-12387055D02*
X19787851Y-12368007D01*
X19787851Y-12368007D02*
X19787851Y-12310864D01*
X19787851Y-12310864D02*
X19797374Y-12291817D01*
X19797374Y-12291817D02*
X19806898Y-12282293D01*
X19806898Y-12282293D02*
X19825946Y-12272769D01*
X19825946Y-12272769D02*
X19864041Y-12272769D01*
X19864041Y-12272769D02*
X19883089Y-12282293D01*
X19959279Y-12482293D02*
X19968803Y-12472769D01*
X19968803Y-12472769D02*
X19987851Y-12444198D01*
X19987851Y-12444198D02*
X19997374Y-12425150D01*
X19997374Y-12425150D02*
X20006898Y-12396579D01*
X20006898Y-12396579D02*
X20016422Y-12348959D01*
X20016422Y-12348959D02*
X20016422Y-12310864D01*
X20016422Y-12310864D02*
X20006898Y-12263245D01*
X20006898Y-12263245D02*
X19997374Y-12234674D01*
X19997374Y-12234674D02*
X19987851Y-12215626D01*
X19987851Y-12215626D02*
X19968803Y-12187055D01*
X19968803Y-12187055D02*
X19959279Y-12177531D01*
X13187133Y-12704290D02*
X13187133Y-12562867D01*
X13045710Y-12562867D01*
X13045710Y-12704290D01*
X13187133Y-12704290D01*
X13454517Y-12545150D02*
X13464040Y-12535626D01*
X13464040Y-12535626D02*
X13483088Y-12526102D01*
X13483088Y-12526102D02*
X13530707Y-12526102D01*
X13530707Y-12526102D02*
X13549755Y-12535626D01*
X13549755Y-12535626D02*
X13559278Y-12545150D01*
X13559278Y-12545150D02*
X13568802Y-12564198D01*
X13568802Y-12564198D02*
X13568802Y-12583245D01*
X13568802Y-12583245D02*
X13559278Y-12611817D01*
X13559278Y-12611817D02*
X13444993Y-12726102D01*
X13444993Y-12726102D02*
X13568802Y-12726102D01*
X13654517Y-12707055D02*
X13664040Y-12716579D01*
X13664040Y-12716579D02*
X13654517Y-12726102D01*
X13654517Y-12726102D02*
X13644993Y-12716579D01*
X13644993Y-12716579D02*
X13654517Y-12707055D01*
X13654517Y-12707055D02*
X13654517Y-12726102D01*
X13740231Y-12545150D02*
X13749755Y-12535626D01*
X13749755Y-12535626D02*
X13768802Y-12526102D01*
X13768802Y-12526102D02*
X13816421Y-12526102D01*
X13816421Y-12526102D02*
X13835469Y-12535626D01*
X13835469Y-12535626D02*
X13844993Y-12545150D01*
X13844993Y-12545150D02*
X13854517Y-12564198D01*
X13854517Y-12564198D02*
X13854517Y-12583245D01*
X13854517Y-12583245D02*
X13844993Y-12611817D01*
X13844993Y-12611817D02*
X13730707Y-12726102D01*
X13730707Y-12726102D02*
X13854517Y-12726102D01*
X13968802Y-12611817D02*
X13949755Y-12602293D01*
X13949755Y-12602293D02*
X13940231Y-12592769D01*
X13940231Y-12592769D02*
X13930707Y-12573721D01*
X13930707Y-12573721D02*
X13930707Y-12564198D01*
X13930707Y-12564198D02*
X13940231Y-12545150D01*
X13940231Y-12545150D02*
X13949755Y-12535626D01*
X13949755Y-12535626D02*
X13968802Y-12526102D01*
X13968802Y-12526102D02*
X14006898Y-12526102D01*
X14006898Y-12526102D02*
X14025945Y-12535626D01*
X14025945Y-12535626D02*
X14035469Y-12545150D01*
X14035469Y-12545150D02*
X14044993Y-12564198D01*
X14044993Y-12564198D02*
X14044993Y-12573721D01*
X14044993Y-12573721D02*
X14035469Y-12592769D01*
X14035469Y-12592769D02*
X14025945Y-12602293D01*
X14025945Y-12602293D02*
X14006898Y-12611817D01*
X14006898Y-12611817D02*
X13968802Y-12611817D01*
X13968802Y-12611817D02*
X13949755Y-12621340D01*
X13949755Y-12621340D02*
X13940231Y-12630864D01*
X13940231Y-12630864D02*
X13930707Y-12649912D01*
X13930707Y-12649912D02*
X13930707Y-12688007D01*
X13930707Y-12688007D02*
X13940231Y-12707055D01*
X13940231Y-12707055D02*
X13949755Y-12716579D01*
X13949755Y-12716579D02*
X13968802Y-12726102D01*
X13968802Y-12726102D02*
X14006898Y-12726102D01*
X14006898Y-12726102D02*
X14025945Y-12716579D01*
X14025945Y-12716579D02*
X14035469Y-12707055D01*
X14035469Y-12707055D02*
X14044993Y-12688007D01*
X14044993Y-12688007D02*
X14044993Y-12649912D01*
X14044993Y-12649912D02*
X14035469Y-12630864D01*
X14035469Y-12630864D02*
X14025945Y-12621340D01*
X14025945Y-12621340D02*
X14006898Y-12611817D01*
X14216421Y-12526102D02*
X14178326Y-12526102D01*
X14178326Y-12526102D02*
X14159278Y-12535626D01*
X14159278Y-12535626D02*
X14149755Y-12545150D01*
X14149755Y-12545150D02*
X14130707Y-12573721D01*
X14130707Y-12573721D02*
X14121183Y-12611817D01*
X14121183Y-12611817D02*
X14121183Y-12688007D01*
X14121183Y-12688007D02*
X14130707Y-12707055D01*
X14130707Y-12707055D02*
X14140231Y-12716579D01*
X14140231Y-12716579D02*
X14159278Y-12726102D01*
X14159278Y-12726102D02*
X14197374Y-12726102D01*
X14197374Y-12726102D02*
X14216421Y-12716579D01*
X14216421Y-12716579D02*
X14225945Y-12707055D01*
X14225945Y-12707055D02*
X14235469Y-12688007D01*
X14235469Y-12688007D02*
X14235469Y-12640388D01*
X14235469Y-12640388D02*
X14225945Y-12621340D01*
X14225945Y-12621340D02*
X14216421Y-12611817D01*
X14216421Y-12611817D02*
X14197374Y-12602293D01*
X14197374Y-12602293D02*
X14159278Y-12602293D01*
X14159278Y-12602293D02*
X14140231Y-12611817D01*
X14140231Y-12611817D02*
X14130707Y-12621340D01*
X14130707Y-12621340D02*
X14121183Y-12640388D01*
X14321183Y-12726102D02*
X14321183Y-12592769D01*
X14321183Y-12611817D02*
X14330707Y-12602293D01*
X14330707Y-12602293D02*
X14349755Y-12592769D01*
X14349755Y-12592769D02*
X14378326Y-12592769D01*
X14378326Y-12592769D02*
X14397374Y-12602293D01*
X14397374Y-12602293D02*
X14406898Y-12621340D01*
X14406898Y-12621340D02*
X14406898Y-12726102D01*
X14406898Y-12621340D02*
X14416421Y-12602293D01*
X14416421Y-12602293D02*
X14435469Y-12592769D01*
X14435469Y-12592769D02*
X14464040Y-12592769D01*
X14464040Y-12592769D02*
X14483088Y-12602293D01*
X14483088Y-12602293D02*
X14492612Y-12621340D01*
X14492612Y-12621340D02*
X14492612Y-12726102D01*
X14587850Y-12726102D02*
X14587850Y-12592769D01*
X14587850Y-12611817D02*
X14597374Y-12602293D01*
X14597374Y-12602293D02*
X14616421Y-12592769D01*
X14616421Y-12592769D02*
X14644993Y-12592769D01*
X14644993Y-12592769D02*
X14664040Y-12602293D01*
X14664040Y-12602293D02*
X14673564Y-12621340D01*
X14673564Y-12621340D02*
X14673564Y-12726102D01*
X14673564Y-12621340D02*
X14683088Y-12602293D01*
X14683088Y-12602293D02*
X14702136Y-12592769D01*
X14702136Y-12592769D02*
X14730707Y-12592769D01*
X14730707Y-12592769D02*
X14749755Y-12602293D01*
X14749755Y-12602293D02*
X14759279Y-12621340D01*
X14759279Y-12621340D02*
X14759279Y-12726102D01*
X15149755Y-12516579D02*
X14978326Y-12773721D01*
X15406898Y-12526102D02*
X15425945Y-12526102D01*
X15425945Y-12526102D02*
X15444993Y-12535626D01*
X15444993Y-12535626D02*
X15454517Y-12545150D01*
X15454517Y-12545150D02*
X15464041Y-12564198D01*
X15464041Y-12564198D02*
X15473564Y-12602293D01*
X15473564Y-12602293D02*
X15473564Y-12649912D01*
X15473564Y-12649912D02*
X15464041Y-12688007D01*
X15464041Y-12688007D02*
X15454517Y-12707055D01*
X15454517Y-12707055D02*
X15444993Y-12716579D01*
X15444993Y-12716579D02*
X15425945Y-12726102D01*
X15425945Y-12726102D02*
X15406898Y-12726102D01*
X15406898Y-12726102D02*
X15387850Y-12716579D01*
X15387850Y-12716579D02*
X15378326Y-12707055D01*
X15378326Y-12707055D02*
X15368802Y-12688007D01*
X15368802Y-12688007D02*
X15359279Y-12649912D01*
X15359279Y-12649912D02*
X15359279Y-12602293D01*
X15359279Y-12602293D02*
X15368802Y-12564198D01*
X15368802Y-12564198D02*
X15378326Y-12545150D01*
X15378326Y-12545150D02*
X15387850Y-12535626D01*
X15387850Y-12535626D02*
X15406898Y-12526102D01*
X15559279Y-12707055D02*
X15568802Y-12716579D01*
X15568802Y-12716579D02*
X15559279Y-12726102D01*
X15559279Y-12726102D02*
X15549755Y-12716579D01*
X15549755Y-12716579D02*
X15559279Y-12707055D01*
X15559279Y-12707055D02*
X15559279Y-12726102D01*
X15692612Y-12526102D02*
X15711660Y-12526102D01*
X15711660Y-12526102D02*
X15730707Y-12535626D01*
X15730707Y-12535626D02*
X15740231Y-12545150D01*
X15740231Y-12545150D02*
X15749755Y-12564198D01*
X15749755Y-12564198D02*
X15759279Y-12602293D01*
X15759279Y-12602293D02*
X15759279Y-12649912D01*
X15759279Y-12649912D02*
X15749755Y-12688007D01*
X15749755Y-12688007D02*
X15740231Y-12707055D01*
X15740231Y-12707055D02*
X15730707Y-12716579D01*
X15730707Y-12716579D02*
X15711660Y-12726102D01*
X15711660Y-12726102D02*
X15692612Y-12726102D01*
X15692612Y-12726102D02*
X15673564Y-12716579D01*
X15673564Y-12716579D02*
X15664041Y-12707055D01*
X15664041Y-12707055D02*
X15654517Y-12688007D01*
X15654517Y-12688007D02*
X15644993Y-12649912D01*
X15644993Y-12649912D02*
X15644993Y-12602293D01*
X15644993Y-12602293D02*
X15654517Y-12564198D01*
X15654517Y-12564198D02*
X15664041Y-12545150D01*
X15664041Y-12545150D02*
X15673564Y-12535626D01*
X15673564Y-12535626D02*
X15692612Y-12526102D01*
X15854517Y-12726102D02*
X15892612Y-12726102D01*
X15892612Y-12726102D02*
X15911660Y-12716579D01*
X15911660Y-12716579D02*
X15921183Y-12707055D01*
X15921183Y-12707055D02*
X15940231Y-12678483D01*
X15940231Y-12678483D02*
X15949755Y-12640388D01*
X15949755Y-12640388D02*
X15949755Y-12564198D01*
X15949755Y-12564198D02*
X15940231Y-12545150D01*
X15940231Y-12545150D02*
X15930707Y-12535626D01*
X15930707Y-12535626D02*
X15911660Y-12526102D01*
X15911660Y-12526102D02*
X15873564Y-12526102D01*
X15873564Y-12526102D02*
X15854517Y-12535626D01*
X15854517Y-12535626D02*
X15844993Y-12545150D01*
X15844993Y-12545150D02*
X15835469Y-12564198D01*
X15835469Y-12564198D02*
X15835469Y-12611817D01*
X15835469Y-12611817D02*
X15844993Y-12630864D01*
X15844993Y-12630864D02*
X15854517Y-12640388D01*
X15854517Y-12640388D02*
X15873564Y-12649912D01*
X15873564Y-12649912D02*
X15911660Y-12649912D01*
X15911660Y-12649912D02*
X15930707Y-12640388D01*
X15930707Y-12640388D02*
X15940231Y-12630864D01*
X15940231Y-12630864D02*
X15949755Y-12611817D01*
X16073564Y-12526102D02*
X16092612Y-12526102D01*
X16092612Y-12526102D02*
X16111660Y-12535626D01*
X16111660Y-12535626D02*
X16121183Y-12545150D01*
X16121183Y-12545150D02*
X16130707Y-12564198D01*
X16130707Y-12564198D02*
X16140231Y-12602293D01*
X16140231Y-12602293D02*
X16140231Y-12649912D01*
X16140231Y-12649912D02*
X16130707Y-12688007D01*
X16130707Y-12688007D02*
X16121183Y-12707055D01*
X16121183Y-12707055D02*
X16111660Y-12716579D01*
X16111660Y-12716579D02*
X16092612Y-12726102D01*
X16092612Y-12726102D02*
X16073564Y-12726102D01*
X16073564Y-12726102D02*
X16054517Y-12716579D01*
X16054517Y-12716579D02*
X16044993Y-12707055D01*
X16044993Y-12707055D02*
X16035469Y-12688007D01*
X16035469Y-12688007D02*
X16025945Y-12649912D01*
X16025945Y-12649912D02*
X16025945Y-12602293D01*
X16025945Y-12602293D02*
X16035469Y-12564198D01*
X16035469Y-12564198D02*
X16044993Y-12545150D01*
X16044993Y-12545150D02*
X16054517Y-12535626D01*
X16054517Y-12535626D02*
X16073564Y-12526102D01*
X16264041Y-12526102D02*
X16283088Y-12526102D01*
X16283088Y-12526102D02*
X16302136Y-12535626D01*
X16302136Y-12535626D02*
X16311660Y-12545150D01*
X16311660Y-12545150D02*
X16321183Y-12564198D01*
X16321183Y-12564198D02*
X16330707Y-12602293D01*
X16330707Y-12602293D02*
X16330707Y-12649912D01*
X16330707Y-12649912D02*
X16321183Y-12688007D01*
X16321183Y-12688007D02*
X16311660Y-12707055D01*
X16311660Y-12707055D02*
X16302136Y-12716579D01*
X16302136Y-12716579D02*
X16283088Y-12726102D01*
X16283088Y-12726102D02*
X16264041Y-12726102D01*
X16264041Y-12726102D02*
X16244993Y-12716579D01*
X16244993Y-12716579D02*
X16235469Y-12707055D01*
X16235469Y-12707055D02*
X16225945Y-12688007D01*
X16225945Y-12688007D02*
X16216422Y-12649912D01*
X16216422Y-12649912D02*
X16216422Y-12602293D01*
X16216422Y-12602293D02*
X16225945Y-12564198D01*
X16225945Y-12564198D02*
X16235469Y-12545150D01*
X16235469Y-12545150D02*
X16244993Y-12535626D01*
X16244993Y-12535626D02*
X16264041Y-12526102D01*
X16406898Y-12526102D02*
X16406898Y-12564198D01*
X16483088Y-12526102D02*
X16483088Y-12564198D01*
X16778327Y-12802293D02*
X16768803Y-12792769D01*
X16768803Y-12792769D02*
X16749755Y-12764198D01*
X16749755Y-12764198D02*
X16740231Y-12745150D01*
X16740231Y-12745150D02*
X16730707Y-12716579D01*
X16730707Y-12716579D02*
X16721184Y-12668959D01*
X16721184Y-12668959D02*
X16721184Y-12630864D01*
X16721184Y-12630864D02*
X16730707Y-12583245D01*
X16730707Y-12583245D02*
X16740231Y-12554674D01*
X16740231Y-12554674D02*
X16749755Y-12535626D01*
X16749755Y-12535626D02*
X16768803Y-12507055D01*
X16768803Y-12507055D02*
X16778327Y-12497531D01*
X16940231Y-12592769D02*
X16940231Y-12726102D01*
X16892612Y-12516579D02*
X16844993Y-12659436D01*
X16844993Y-12659436D02*
X16968803Y-12659436D01*
X17197374Y-12726102D02*
X17197374Y-12526102D01*
X17283088Y-12726102D02*
X17283088Y-12621340D01*
X17283088Y-12621340D02*
X17273565Y-12602293D01*
X17273565Y-12602293D02*
X17254517Y-12592769D01*
X17254517Y-12592769D02*
X17225946Y-12592769D01*
X17225946Y-12592769D02*
X17206898Y-12602293D01*
X17206898Y-12602293D02*
X17197374Y-12611817D01*
X17406898Y-12726102D02*
X17387850Y-12716579D01*
X17387850Y-12716579D02*
X17378327Y-12707055D01*
X17378327Y-12707055D02*
X17368803Y-12688007D01*
X17368803Y-12688007D02*
X17368803Y-12630864D01*
X17368803Y-12630864D02*
X17378327Y-12611817D01*
X17378327Y-12611817D02*
X17387850Y-12602293D01*
X17387850Y-12602293D02*
X17406898Y-12592769D01*
X17406898Y-12592769D02*
X17435469Y-12592769D01*
X17435469Y-12592769D02*
X17454517Y-12602293D01*
X17454517Y-12602293D02*
X17464041Y-12611817D01*
X17464041Y-12611817D02*
X17473565Y-12630864D01*
X17473565Y-12630864D02*
X17473565Y-12688007D01*
X17473565Y-12688007D02*
X17464041Y-12707055D01*
X17464041Y-12707055D02*
X17454517Y-12716579D01*
X17454517Y-12716579D02*
X17435469Y-12726102D01*
X17435469Y-12726102D02*
X17406898Y-12726102D01*
X17587850Y-12726102D02*
X17568803Y-12716579D01*
X17568803Y-12716579D02*
X17559279Y-12697531D01*
X17559279Y-12697531D02*
X17559279Y-12526102D01*
X17740231Y-12716579D02*
X17721184Y-12726102D01*
X17721184Y-12726102D02*
X17683088Y-12726102D01*
X17683088Y-12726102D02*
X17664041Y-12716579D01*
X17664041Y-12716579D02*
X17654517Y-12697531D01*
X17654517Y-12697531D02*
X17654517Y-12621340D01*
X17654517Y-12621340D02*
X17664041Y-12602293D01*
X17664041Y-12602293D02*
X17683088Y-12592769D01*
X17683088Y-12592769D02*
X17721184Y-12592769D01*
X17721184Y-12592769D02*
X17740231Y-12602293D01*
X17740231Y-12602293D02*
X17749755Y-12621340D01*
X17749755Y-12621340D02*
X17749755Y-12640388D01*
X17749755Y-12640388D02*
X17654517Y-12659436D01*
X17825946Y-12716579D02*
X17844993Y-12726102D01*
X17844993Y-12726102D02*
X17883088Y-12726102D01*
X17883088Y-12726102D02*
X17902136Y-12716579D01*
X17902136Y-12716579D02*
X17911660Y-12697531D01*
X17911660Y-12697531D02*
X17911660Y-12688007D01*
X17911660Y-12688007D02*
X17902136Y-12668959D01*
X17902136Y-12668959D02*
X17883088Y-12659436D01*
X17883088Y-12659436D02*
X17854517Y-12659436D01*
X17854517Y-12659436D02*
X17835469Y-12649912D01*
X17835469Y-12649912D02*
X17825946Y-12630864D01*
X17825946Y-12630864D02*
X17825946Y-12621340D01*
X17825946Y-12621340D02*
X17835469Y-12602293D01*
X17835469Y-12602293D02*
X17854517Y-12592769D01*
X17854517Y-12592769D02*
X17883088Y-12592769D01*
X17883088Y-12592769D02*
X17902136Y-12602293D01*
X17978327Y-12802293D02*
X17987850Y-12792769D01*
X17987850Y-12792769D02*
X18006898Y-12764198D01*
X18006898Y-12764198D02*
X18016422Y-12745150D01*
X18016422Y-12745150D02*
X18025946Y-12716579D01*
X18025946Y-12716579D02*
X18035469Y-12668959D01*
X18035469Y-12668959D02*
X18035469Y-12630864D01*
X18035469Y-12630864D02*
X18025946Y-12583245D01*
X18025946Y-12583245D02*
X18016422Y-12554674D01*
X18016422Y-12554674D02*
X18006898Y-12535626D01*
X18006898Y-12535626D02*
X17987850Y-12507055D01*
X17987850Y-12507055D02*
X17978327Y-12497531D01*
X18340231Y-12802293D02*
X18330708Y-12792769D01*
X18330708Y-12792769D02*
X18311660Y-12764198D01*
X18311660Y-12764198D02*
X18302136Y-12745150D01*
X18302136Y-12745150D02*
X18292612Y-12716579D01*
X18292612Y-12716579D02*
X18283089Y-12668959D01*
X18283089Y-12668959D02*
X18283089Y-12630864D01*
X18283089Y-12630864D02*
X18292612Y-12583245D01*
X18292612Y-12583245D02*
X18302136Y-12554674D01*
X18302136Y-12554674D02*
X18311660Y-12535626D01*
X18311660Y-12535626D02*
X18330708Y-12507055D01*
X18330708Y-12507055D02*
X18340231Y-12497531D01*
X18416422Y-12592769D02*
X18416422Y-12726102D01*
X18416422Y-12611817D02*
X18425946Y-12602293D01*
X18425946Y-12602293D02*
X18444993Y-12592769D01*
X18444993Y-12592769D02*
X18473565Y-12592769D01*
X18473565Y-12592769D02*
X18492612Y-12602293D01*
X18492612Y-12602293D02*
X18502136Y-12621340D01*
X18502136Y-12621340D02*
X18502136Y-12726102D01*
X18625946Y-12726102D02*
X18606898Y-12716579D01*
X18606898Y-12716579D02*
X18597374Y-12707055D01*
X18597374Y-12707055D02*
X18587850Y-12688007D01*
X18587850Y-12688007D02*
X18587850Y-12630864D01*
X18587850Y-12630864D02*
X18597374Y-12611817D01*
X18597374Y-12611817D02*
X18606898Y-12602293D01*
X18606898Y-12602293D02*
X18625946Y-12592769D01*
X18625946Y-12592769D02*
X18654517Y-12592769D01*
X18654517Y-12592769D02*
X18673565Y-12602293D01*
X18673565Y-12602293D02*
X18683089Y-12611817D01*
X18683089Y-12611817D02*
X18692612Y-12630864D01*
X18692612Y-12630864D02*
X18692612Y-12688007D01*
X18692612Y-12688007D02*
X18683089Y-12707055D01*
X18683089Y-12707055D02*
X18673565Y-12716579D01*
X18673565Y-12716579D02*
X18654517Y-12726102D01*
X18654517Y-12726102D02*
X18625946Y-12726102D01*
X18749755Y-12592769D02*
X18825946Y-12592769D01*
X18778327Y-12526102D02*
X18778327Y-12697531D01*
X18778327Y-12697531D02*
X18787850Y-12716579D01*
X18787850Y-12716579D02*
X18806898Y-12726102D01*
X18806898Y-12726102D02*
X18825946Y-12726102D01*
X19044993Y-12592769D02*
X19044993Y-12792769D01*
X19044993Y-12602293D02*
X19064041Y-12592769D01*
X19064041Y-12592769D02*
X19102136Y-12592769D01*
X19102136Y-12592769D02*
X19121184Y-12602293D01*
X19121184Y-12602293D02*
X19130708Y-12611817D01*
X19130708Y-12611817D02*
X19140231Y-12630864D01*
X19140231Y-12630864D02*
X19140231Y-12688007D01*
X19140231Y-12688007D02*
X19130708Y-12707055D01*
X19130708Y-12707055D02*
X19121184Y-12716579D01*
X19121184Y-12716579D02*
X19102136Y-12726102D01*
X19102136Y-12726102D02*
X19064041Y-12726102D01*
X19064041Y-12726102D02*
X19044993Y-12716579D01*
X19254517Y-12726102D02*
X19235470Y-12716579D01*
X19235470Y-12716579D02*
X19225946Y-12697531D01*
X19225946Y-12697531D02*
X19225946Y-12526102D01*
X19416422Y-12726102D02*
X19416422Y-12621340D01*
X19416422Y-12621340D02*
X19406898Y-12602293D01*
X19406898Y-12602293D02*
X19387851Y-12592769D01*
X19387851Y-12592769D02*
X19349755Y-12592769D01*
X19349755Y-12592769D02*
X19330708Y-12602293D01*
X19416422Y-12716579D02*
X19397374Y-12726102D01*
X19397374Y-12726102D02*
X19349755Y-12726102D01*
X19349755Y-12726102D02*
X19330708Y-12716579D01*
X19330708Y-12716579D02*
X19321184Y-12697531D01*
X19321184Y-12697531D02*
X19321184Y-12678483D01*
X19321184Y-12678483D02*
X19330708Y-12659436D01*
X19330708Y-12659436D02*
X19349755Y-12649912D01*
X19349755Y-12649912D02*
X19397374Y-12649912D01*
X19397374Y-12649912D02*
X19416422Y-12640388D01*
X19483089Y-12592769D02*
X19559279Y-12592769D01*
X19511660Y-12526102D02*
X19511660Y-12697531D01*
X19511660Y-12697531D02*
X19521184Y-12716579D01*
X19521184Y-12716579D02*
X19540231Y-12726102D01*
X19540231Y-12726102D02*
X19559279Y-12726102D01*
X19702136Y-12716579D02*
X19683089Y-12726102D01*
X19683089Y-12726102D02*
X19644993Y-12726102D01*
X19644993Y-12726102D02*
X19625946Y-12716579D01*
X19625946Y-12716579D02*
X19616422Y-12697531D01*
X19616422Y-12697531D02*
X19616422Y-12621340D01*
X19616422Y-12621340D02*
X19625946Y-12602293D01*
X19625946Y-12602293D02*
X19644993Y-12592769D01*
X19644993Y-12592769D02*
X19683089Y-12592769D01*
X19683089Y-12592769D02*
X19702136Y-12602293D01*
X19702136Y-12602293D02*
X19711660Y-12621340D01*
X19711660Y-12621340D02*
X19711660Y-12640388D01*
X19711660Y-12640388D02*
X19616422Y-12659436D01*
X19883089Y-12726102D02*
X19883089Y-12526102D01*
X19883089Y-12716579D02*
X19864041Y-12726102D01*
X19864041Y-12726102D02*
X19825946Y-12726102D01*
X19825946Y-12726102D02*
X19806898Y-12716579D01*
X19806898Y-12716579D02*
X19797374Y-12707055D01*
X19797374Y-12707055D02*
X19787851Y-12688007D01*
X19787851Y-12688007D02*
X19787851Y-12630864D01*
X19787851Y-12630864D02*
X19797374Y-12611817D01*
X19797374Y-12611817D02*
X19806898Y-12602293D01*
X19806898Y-12602293D02*
X19825946Y-12592769D01*
X19825946Y-12592769D02*
X19864041Y-12592769D01*
X19864041Y-12592769D02*
X19883089Y-12602293D01*
X19959279Y-12802293D02*
X19968803Y-12792769D01*
X19968803Y-12792769D02*
X19987851Y-12764198D01*
X19987851Y-12764198D02*
X19997374Y-12745150D01*
X19997374Y-12745150D02*
X20006898Y-12716579D01*
X20006898Y-12716579D02*
X20016422Y-12668959D01*
X20016422Y-12668959D02*
X20016422Y-12630864D01*
X20016422Y-12630864D02*
X20006898Y-12583245D01*
X20006898Y-12583245D02*
X19997374Y-12554674D01*
X19997374Y-12554674D02*
X19987851Y-12535626D01*
X19987851Y-12535626D02*
X19968803Y-12507055D01*
X19968803Y-12507055D02*
X19959279Y-12497531D01*
M02*
