G04 #@! TF.GenerationSoftware,KiCad,Pcbnew,7.0.1*
G04 #@! TF.CreationDate,2023-06-02T18:37:15-05:00*
G04 #@! TF.ProjectId,PicoFeatherWingDuo,5069636f-4665-4617-9468-657257696e67,1*
G04 #@! TF.SameCoordinates,Original*
G04 #@! TF.FileFunction,Copper,L1,Top*
G04 #@! TF.FilePolarity,Positive*
%FSLAX46Y46*%
G04 Gerber Fmt 4.6, Leading zero omitted, Abs format (unit mm)*
G04 Created by KiCad (PCBNEW 7.0.1) date 2023-06-02 18:37:15*
%MOMM*%
%LPD*%
G01*
G04 APERTURE LIST*
G04 Aperture macros list*
%AMRoundRect*
0 Rectangle with rounded corners*
0 $1 Rounding radius*
0 $2 $3 $4 $5 $6 $7 $8 $9 X,Y pos of 4 corners*
0 Add a 4 corners polygon primitive as box body*
4,1,4,$2,$3,$4,$5,$6,$7,$8,$9,$2,$3,0*
0 Add four circle primitives for the rounded corners*
1,1,$1+$1,$2,$3*
1,1,$1+$1,$4,$5*
1,1,$1+$1,$6,$7*
1,1,$1+$1,$8,$9*
0 Add four rect primitives between the rounded corners*
20,1,$1+$1,$2,$3,$4,$5,0*
20,1,$1+$1,$4,$5,$6,$7,0*
20,1,$1+$1,$6,$7,$8,$9,0*
20,1,$1+$1,$8,$9,$2,$3,0*%
G04 Aperture macros list end*
G04 #@! TA.AperFunction,ComponentPad*
%ADD10O,1.700000X1.700000*%
G04 #@! TD*
G04 #@! TA.AperFunction,ComponentPad*
%ADD11C,1.700000*%
G04 #@! TD*
G04 #@! TA.AperFunction,ComponentPad*
%ADD12R,1.700000X1.700000*%
G04 #@! TD*
G04 #@! TA.AperFunction,ComponentPad*
%ADD13C,4.500000*%
G04 #@! TD*
G04 #@! TA.AperFunction,SMDPad,CuDef*
%ADD14RoundRect,0.150000X-0.150000X-0.625000X0.150000X-0.625000X0.150000X0.625000X-0.150000X0.625000X0*%
G04 #@! TD*
G04 #@! TA.AperFunction,SMDPad,CuDef*
%ADD15RoundRect,0.250000X-0.350000X-0.650000X0.350000X-0.650000X0.350000X0.650000X-0.350000X0.650000X0*%
G04 #@! TD*
G04 #@! TA.AperFunction,SMDPad,CuDef*
%ADD16R,1.000000X0.700000*%
G04 #@! TD*
G04 #@! TA.AperFunction,SMDPad,CuDef*
%ADD17R,3.500000X1.700000*%
G04 #@! TD*
G04 #@! TA.AperFunction,SMDPad,CuDef*
%ADD18R,1.700000X3.500000*%
G04 #@! TD*
G04 #@! TA.AperFunction,ViaPad*
%ADD19C,0.600000*%
G04 #@! TD*
G04 #@! TA.AperFunction,ViaPad*
%ADD20C,0.900000*%
G04 #@! TD*
G04 #@! TA.AperFunction,Conductor*
%ADD21C,0.350000*%
G04 #@! TD*
G04 #@! TA.AperFunction,Conductor*
%ADD22C,0.450000*%
G04 #@! TD*
G04 APERTURE END LIST*
D10*
X185420000Y-50800000D03*
X187960000Y-106680000D03*
D11*
X198120000Y-45720000D03*
D10*
X198120000Y-48260000D03*
X198120000Y-50800000D03*
D12*
X198120000Y-53340000D03*
D10*
X198120000Y-55880000D03*
X198120000Y-58420000D03*
X198120000Y-60960000D03*
X198120000Y-63500000D03*
X198120000Y-66040000D03*
X198120000Y-68580000D03*
X198120000Y-71120000D03*
X198120000Y-73660000D03*
X198120000Y-76200000D03*
X198120000Y-78740000D03*
X198120000Y-81280000D03*
X198120000Y-83820000D03*
X218440000Y-68580000D03*
X220980000Y-66040000D03*
X185420000Y-58420000D03*
X218440000Y-76200000D03*
X210820000Y-83820000D03*
X182880000Y-50800000D03*
X177800000Y-83820000D03*
X177800000Y-71120000D03*
X172720000Y-45720000D03*
X172720000Y-48260000D03*
X172720000Y-50800000D03*
D12*
X172720000Y-53340000D03*
D10*
X172720000Y-55880000D03*
X172720000Y-58420000D03*
X172720000Y-60960000D03*
X172720000Y-63500000D03*
X172720000Y-66040000D03*
X172720000Y-68580000D03*
X172720000Y-71120000D03*
X172720000Y-73660000D03*
X172720000Y-76200000D03*
X172720000Y-78740000D03*
X172720000Y-81280000D03*
X172694600Y-83820000D03*
X193040000Y-83820000D03*
X193040000Y-81280000D03*
X193040000Y-78740000D03*
X193040000Y-76200000D03*
X193040000Y-73660000D03*
X193040000Y-71120000D03*
X193040000Y-68580000D03*
X193040000Y-66040000D03*
X193040000Y-63500000D03*
X193040000Y-60960000D03*
X193040000Y-58420000D03*
X193040000Y-55880000D03*
D13*
X173972200Y-41892200D03*
X191772200Y-41892200D03*
D10*
X180340000Y-48260000D03*
X177800000Y-68580000D03*
X190500000Y-93980000D03*
X223520000Y-45720000D03*
X215900000Y-86360000D03*
X198120000Y-101600000D03*
X182880000Y-83820000D03*
X187960000Y-83820000D03*
X218440000Y-40640000D03*
X218440000Y-60960000D03*
X205740000Y-55880000D03*
X208280000Y-45720000D03*
X208280000Y-83820000D03*
X223520000Y-50800000D03*
X208280000Y-71120000D03*
X190500000Y-58420000D03*
X190500000Y-60960000D03*
X187960000Y-86360000D03*
X175260000Y-101600000D03*
X218440000Y-83820000D03*
X190500000Y-96520000D03*
X185420000Y-78740000D03*
X205740000Y-63500000D03*
X177800000Y-48260000D03*
X190500000Y-104140000D03*
X218440000Y-45720000D03*
X198120000Y-96520000D03*
X198120000Y-93980000D03*
X190500000Y-63500000D03*
D12*
X218440000Y-53340000D03*
D10*
X213360000Y-86360000D03*
X195580000Y-104140000D03*
X218440000Y-86360000D03*
X180340000Y-71120000D03*
X187960000Y-63500000D03*
X210820000Y-88900000D03*
X210820000Y-63500000D03*
X175260000Y-73660000D03*
X198120000Y-106680000D03*
X185420000Y-106680000D03*
X177800000Y-60960000D03*
X177800000Y-101600000D03*
X205740000Y-83820000D03*
X180340000Y-63500000D03*
X177800000Y-109220000D03*
X220980000Y-73660000D03*
X175260000Y-50800000D03*
X185420000Y-99060000D03*
X218440000Y-63500000D03*
X180340000Y-109220000D03*
D12*
X175260000Y-93980000D03*
D10*
X180340000Y-76200000D03*
X180340000Y-40640000D03*
X193040000Y-96520000D03*
X215900000Y-60960000D03*
X180340000Y-88900000D03*
X193040000Y-93980000D03*
X185420000Y-109220000D03*
X210820000Y-48260000D03*
X185420000Y-63500000D03*
X180340000Y-68580000D03*
X190500000Y-83820000D03*
X190500000Y-99060000D03*
X185420000Y-86360000D03*
X210820000Y-71120000D03*
X215900000Y-45720000D03*
X182880000Y-40640000D03*
X208280000Y-86360000D03*
X220980000Y-68580000D03*
X218440000Y-48260000D03*
X185420000Y-93980000D03*
X208280000Y-60960000D03*
X215900000Y-71120000D03*
D11*
X139700000Y-40640000D03*
D10*
X139700000Y-43180000D03*
D12*
X139700000Y-45720000D03*
D10*
X139700000Y-48260000D03*
X139700000Y-50800000D03*
X139700000Y-53340000D03*
X139700000Y-55880000D03*
D12*
X139700000Y-58420000D03*
D10*
X139700000Y-60960000D03*
X139700000Y-63500000D03*
X139700000Y-66040000D03*
X139700000Y-68580000D03*
D12*
X139700000Y-71120000D03*
D10*
X139700000Y-73660000D03*
X139700000Y-76200000D03*
X139700000Y-78740000D03*
X139700000Y-81280000D03*
D12*
X139700000Y-83820000D03*
D10*
X139700000Y-86360000D03*
X139700000Y-88900000D03*
X215900000Y-73660000D03*
X187960000Y-50800000D03*
X175260000Y-55880000D03*
X182880000Y-60960000D03*
D12*
X223520000Y-53340000D03*
D10*
X208280000Y-55880000D03*
X177800000Y-50800000D03*
X182880000Y-93980000D03*
X182880000Y-78740000D03*
X177800000Y-40640000D03*
X187960000Y-68580000D03*
X182880000Y-71120000D03*
X180340000Y-83820000D03*
X177800000Y-45720000D03*
X220980000Y-55880000D03*
X220980000Y-78740000D03*
X208280000Y-63500000D03*
X180340000Y-93980000D03*
X215900000Y-55880000D03*
X213360000Y-88900000D03*
X180340000Y-81280000D03*
X213360000Y-50800000D03*
X180340000Y-104140000D03*
X215900000Y-66040000D03*
X208280000Y-78740000D03*
X210820000Y-73660000D03*
D12*
X180340000Y-53340000D03*
D10*
X185420000Y-68580000D03*
X205740000Y-78740000D03*
X208280000Y-88900000D03*
X205740000Y-81280000D03*
X208280000Y-50800000D03*
X210820000Y-43180000D03*
X210820000Y-60960000D03*
X182880000Y-101600000D03*
X187960000Y-104140000D03*
X215900000Y-58420000D03*
D12*
X177800000Y-53340000D03*
D10*
X175260000Y-63500000D03*
D14*
X140740000Y-105696000D03*
X141740000Y-105696000D03*
X142740000Y-105696000D03*
X143740000Y-105696000D03*
D15*
X139440000Y-109571000D03*
X145040000Y-109571000D03*
D12*
X187960000Y-53340000D03*
D10*
X177800000Y-66040000D03*
X180340000Y-50800000D03*
X218440000Y-73660000D03*
X180340000Y-55880000D03*
X185420000Y-66040000D03*
X177800000Y-88900000D03*
X213360000Y-43180000D03*
X218440000Y-66040000D03*
D12*
X213360000Y-53340000D03*
D10*
X180340000Y-106680000D03*
X215900000Y-50800000D03*
D12*
X215900000Y-53340000D03*
D10*
X198120000Y-104140000D03*
X182880000Y-63500000D03*
X182880000Y-48260000D03*
X187960000Y-55880000D03*
X220980000Y-63500000D03*
X175260000Y-58420000D03*
X180340000Y-43180000D03*
X190500000Y-106680000D03*
X190500000Y-55880000D03*
X182880000Y-109220000D03*
X195580000Y-101600000D03*
X210820000Y-40640000D03*
X180340000Y-58420000D03*
X175260000Y-104140000D03*
X193040000Y-109220000D03*
X213360000Y-45720000D03*
X218440000Y-55880000D03*
X187960000Y-109220000D03*
X220980000Y-50800000D03*
X218440000Y-88900000D03*
X190500000Y-48260000D03*
X205740000Y-73660000D03*
X187960000Y-96520000D03*
X213360000Y-78740000D03*
X177800000Y-86360000D03*
X208280000Y-81280000D03*
X195580000Y-109220000D03*
X205740000Y-58420000D03*
D12*
X172720000Y-93980000D03*
D10*
X172720000Y-96520000D03*
X172720000Y-99060000D03*
X172720000Y-101600000D03*
X172720000Y-104140000D03*
X172720000Y-106680000D03*
X172720000Y-109220000D03*
X220980000Y-71120000D03*
D12*
X190500000Y-53340000D03*
D10*
X213360000Y-71120000D03*
X218440000Y-78740000D03*
X193040000Y-48260000D03*
D12*
X175260000Y-53340000D03*
D10*
X185420000Y-48260000D03*
X205740000Y-48260000D03*
X180340000Y-45720000D03*
X175260000Y-66040000D03*
X187960000Y-48260000D03*
X215900000Y-81280000D03*
X220980000Y-45720000D03*
D12*
X177800000Y-93980000D03*
D10*
X205740000Y-71120000D03*
X182880000Y-43180000D03*
X198120000Y-109220000D03*
X180340000Y-96520000D03*
X218440000Y-50800000D03*
X218440000Y-71120000D03*
X205740000Y-45720000D03*
X190500000Y-78740000D03*
X182880000Y-81280000D03*
X177800000Y-104140000D03*
X193040000Y-99060000D03*
X190500000Y-66040000D03*
X205740000Y-60960000D03*
X198120000Y-99060000D03*
X193040000Y-106680000D03*
X175260000Y-45720000D03*
X187960000Y-81280000D03*
X175260000Y-78740000D03*
X180340000Y-60960000D03*
X177800000Y-76200000D03*
X175260000Y-106680000D03*
X193040000Y-104140000D03*
X175260000Y-109220000D03*
X177800000Y-78740000D03*
X175260000Y-71120000D03*
X210820000Y-68580000D03*
X187960000Y-76200000D03*
X187960000Y-99060000D03*
X187960000Y-101600000D03*
X185420000Y-104140000D03*
X180340000Y-99060000D03*
X177800000Y-99060000D03*
X185420000Y-88900000D03*
D12*
X185420000Y-53340000D03*
D10*
X210820000Y-81280000D03*
X213360000Y-60960000D03*
X185420000Y-96520000D03*
X193040000Y-50800000D03*
X208280000Y-73660000D03*
X223520000Y-48260000D03*
X185420000Y-81280000D03*
X185420000Y-55880000D03*
X182880000Y-106680000D03*
X177800000Y-106680000D03*
X215900000Y-48260000D03*
D12*
X208280000Y-53340000D03*
D10*
X215900000Y-76200000D03*
X177800000Y-63500000D03*
X213360000Y-68580000D03*
X205740000Y-66040000D03*
X193040000Y-101600000D03*
X190500000Y-73660000D03*
X208280000Y-43180000D03*
X205740000Y-76200000D03*
D11*
X167640000Y-88900000D03*
D10*
X167640000Y-86360000D03*
D12*
X167640000Y-83820000D03*
D10*
X167640000Y-81280000D03*
X167640000Y-78740000D03*
X167640000Y-76200000D03*
X167640000Y-73660000D03*
D12*
X167640000Y-71120000D03*
D10*
X167640000Y-68580000D03*
X167640000Y-66040000D03*
X167640000Y-63500000D03*
X167640000Y-60960000D03*
D12*
X167640000Y-58420000D03*
D10*
X167640000Y-55880000D03*
X167640000Y-53340000D03*
X167640000Y-50800000D03*
X167640000Y-48260000D03*
D12*
X167640000Y-45720000D03*
D10*
X167640000Y-43180000D03*
X167640000Y-40640000D03*
X210820000Y-78740000D03*
X210820000Y-76200000D03*
X218440000Y-43180000D03*
X180340000Y-86360000D03*
X190500000Y-50800000D03*
X175260000Y-81280000D03*
X175260000Y-68580000D03*
X215900000Y-43180000D03*
X182880000Y-45720000D03*
X213360000Y-63500000D03*
X185420000Y-101600000D03*
X203200000Y-45720000D03*
X203200000Y-48260000D03*
X203200000Y-50800000D03*
D12*
X203200000Y-53340000D03*
D10*
X203200000Y-55880000D03*
X203200000Y-58420000D03*
X203200000Y-60960000D03*
X203200000Y-63500000D03*
X203200000Y-66040000D03*
X203200000Y-68580000D03*
X203200000Y-71120000D03*
X203200000Y-73660000D03*
X203200000Y-76200000D03*
X203200000Y-78740000D03*
X203200000Y-81280000D03*
X203174600Y-83820000D03*
X223520000Y-83820000D03*
X223520000Y-81280000D03*
X223520000Y-78740000D03*
X223520000Y-76200000D03*
X223520000Y-73660000D03*
X223520000Y-71120000D03*
X223520000Y-68580000D03*
X223520000Y-66040000D03*
X223520000Y-63500000D03*
X223520000Y-60960000D03*
X223520000Y-58420000D03*
X223520000Y-55880000D03*
D13*
X204452200Y-41892200D03*
X222252200Y-41892200D03*
D10*
X182880000Y-99060000D03*
X185420000Y-83820000D03*
X215900000Y-78740000D03*
D12*
X210820000Y-53340000D03*
D10*
X187960000Y-45720000D03*
X175260000Y-99060000D03*
D11*
X228600000Y-83820000D03*
D10*
X228600000Y-81280000D03*
X228600000Y-78740000D03*
X228600000Y-76200000D03*
X228600000Y-73660000D03*
X228600000Y-71120000D03*
X228600000Y-68580000D03*
X228600000Y-66040000D03*
X228600000Y-63500000D03*
X228600000Y-60960000D03*
X228600000Y-58420000D03*
X228600000Y-55880000D03*
X215900000Y-68580000D03*
X177800000Y-73660000D03*
X187960000Y-78740000D03*
X187960000Y-73660000D03*
X220980000Y-81280000D03*
X180340000Y-73660000D03*
X208280000Y-76200000D03*
X190500000Y-101600000D03*
X195580000Y-96520000D03*
X187960000Y-40640000D03*
X185420000Y-71120000D03*
X175260000Y-48260000D03*
X220980000Y-60960000D03*
X220980000Y-76200000D03*
X213360000Y-48260000D03*
X213360000Y-83820000D03*
X182880000Y-58420000D03*
X208280000Y-68580000D03*
X210820000Y-50800000D03*
X205740000Y-50800000D03*
X218440000Y-81280000D03*
X190500000Y-109220000D03*
X177800000Y-43180000D03*
X195580000Y-93980000D03*
X220980000Y-83820000D03*
X177800000Y-81280000D03*
X208280000Y-58420000D03*
X185420000Y-43180000D03*
X190500000Y-76200000D03*
X213360000Y-73660000D03*
D12*
X193040000Y-53340000D03*
D10*
X177800000Y-96520000D03*
X210820000Y-58420000D03*
X180340000Y-78740000D03*
D16*
X152182000Y-96969000D03*
X156682000Y-96969000D03*
X152182000Y-99119000D03*
X156682000Y-99119000D03*
D10*
X182880000Y-86360000D03*
X195580000Y-106680000D03*
X213360000Y-76200000D03*
X213360000Y-40640000D03*
X175260000Y-76200000D03*
X208280000Y-66040000D03*
X213360000Y-58420000D03*
X182880000Y-76200000D03*
D12*
X220980000Y-53340000D03*
D10*
X182880000Y-104140000D03*
X185420000Y-60960000D03*
X215900000Y-83820000D03*
X175260000Y-96520000D03*
X218440000Y-58420000D03*
X213360000Y-66040000D03*
X185420000Y-73660000D03*
X210820000Y-86360000D03*
X210820000Y-55880000D03*
X187960000Y-43180000D03*
X182880000Y-55880000D03*
X208280000Y-48260000D03*
D12*
X182880000Y-53340000D03*
D10*
X182880000Y-68580000D03*
X182880000Y-88900000D03*
X215900000Y-63500000D03*
X210820000Y-45720000D03*
X215900000Y-88900000D03*
X185420000Y-45720000D03*
X187960000Y-66040000D03*
X187960000Y-93980000D03*
X182880000Y-66040000D03*
X182880000Y-96520000D03*
X180340000Y-66040000D03*
X210820000Y-66040000D03*
X205740000Y-68580000D03*
X175260000Y-83820000D03*
X175260000Y-60960000D03*
X190500000Y-81280000D03*
X182880000Y-73660000D03*
X177800000Y-58420000D03*
X220980000Y-58420000D03*
X144780000Y-40640000D03*
D17*
X143880000Y-40640000D03*
D10*
X144780000Y-43180000D03*
D17*
X143880000Y-43180000D03*
D12*
X144780000Y-45720000D03*
D17*
X143880000Y-45720000D03*
D10*
X144780000Y-48260000D03*
D17*
X143880000Y-48260000D03*
D10*
X144780000Y-50800000D03*
D17*
X143880000Y-50800000D03*
D10*
X144780000Y-53340000D03*
D17*
X143880000Y-53340000D03*
D10*
X144780000Y-55880000D03*
D17*
X143880000Y-55880000D03*
D12*
X144780000Y-58420000D03*
D17*
X143880000Y-58420000D03*
D10*
X144780000Y-60960000D03*
D17*
X143880000Y-60960000D03*
D10*
X144780000Y-63500000D03*
D17*
X143880000Y-63500000D03*
D10*
X144780000Y-66040000D03*
D17*
X143880000Y-66040000D03*
D10*
X144780000Y-68580000D03*
D17*
X143880000Y-68580000D03*
D12*
X144780000Y-71120000D03*
D17*
X143880000Y-71120000D03*
D10*
X144780000Y-73660000D03*
D17*
X143880000Y-73660000D03*
D10*
X144780000Y-76200000D03*
D17*
X143880000Y-76200000D03*
D10*
X144780000Y-78740000D03*
D17*
X143880000Y-78740000D03*
D10*
X144780000Y-81280000D03*
D17*
X143880000Y-81280000D03*
D12*
X144780000Y-83820000D03*
D17*
X143880000Y-83820000D03*
D10*
X144780000Y-86360000D03*
D17*
X143880000Y-86360000D03*
D10*
X144780000Y-88900000D03*
D17*
X143880000Y-88900000D03*
D10*
X162560000Y-88900000D03*
D17*
X163460000Y-88900000D03*
D10*
X162560000Y-86360000D03*
D17*
X163460000Y-86360000D03*
D12*
X162560000Y-83820000D03*
D17*
X163460000Y-83820000D03*
D10*
X162560000Y-81280000D03*
D17*
X163460000Y-81280000D03*
D10*
X162560000Y-78740000D03*
D17*
X163460000Y-78740000D03*
D10*
X162560000Y-76200000D03*
D17*
X163460000Y-76200000D03*
D10*
X162560000Y-73660000D03*
D17*
X163460000Y-73660000D03*
D12*
X162560000Y-71120000D03*
D17*
X163460000Y-71120000D03*
D10*
X162560000Y-68580000D03*
D17*
X163460000Y-68580000D03*
D10*
X162560000Y-66040000D03*
D17*
X163460000Y-66040000D03*
D10*
X162560000Y-63500000D03*
D17*
X163460000Y-63500000D03*
D10*
X162560000Y-60960000D03*
D17*
X163460000Y-60960000D03*
D12*
X162560000Y-58420000D03*
D17*
X163460000Y-58420000D03*
D10*
X162560000Y-55880000D03*
D17*
X163460000Y-55880000D03*
D10*
X162560000Y-53340000D03*
D17*
X163460000Y-53340000D03*
D10*
X162560000Y-50800000D03*
D17*
X163460000Y-50800000D03*
D10*
X162560000Y-48260000D03*
D17*
X163460000Y-48260000D03*
D12*
X162560000Y-45720000D03*
D17*
X163460000Y-45720000D03*
D10*
X162560000Y-43180000D03*
D17*
X163460000Y-43180000D03*
D10*
X162560000Y-40640000D03*
D17*
X163460000Y-40640000D03*
D10*
X151130000Y-88670000D03*
D18*
X151130000Y-89570000D03*
D12*
X153670000Y-88670000D03*
D18*
X153670000Y-89570000D03*
D10*
X156210000Y-88670000D03*
D18*
X156210000Y-89570000D03*
D10*
X220980000Y-48260000D03*
X213360000Y-81280000D03*
X185420000Y-40640000D03*
X187960000Y-88900000D03*
X177800000Y-55880000D03*
X190500000Y-68580000D03*
X190500000Y-71120000D03*
X215900000Y-40640000D03*
X187960000Y-58420000D03*
X195580000Y-99060000D03*
X185420000Y-76200000D03*
X213360000Y-55880000D03*
X187960000Y-71120000D03*
X180340000Y-101600000D03*
X187960000Y-60960000D03*
X208280000Y-40640000D03*
D12*
X205740000Y-53340000D03*
D19*
X158000000Y-76500000D03*
X158000000Y-80000000D03*
X156500000Y-92500000D03*
X154500000Y-96969000D03*
X136500000Y-45000000D03*
D20*
X170000000Y-48500000D03*
D19*
X147000000Y-47500000D03*
D20*
X159000000Y-51000000D03*
X153500000Y-56000000D03*
X137500000Y-72500000D03*
X168000000Y-105500000D03*
X162500000Y-93000000D03*
X168000000Y-108000000D03*
X153500000Y-74500000D03*
X169000000Y-97000000D03*
D19*
X154500000Y-99000000D03*
X146500000Y-72500000D03*
X159000000Y-70500000D03*
X147000000Y-60500000D03*
D20*
X168000000Y-100000000D03*
X198000000Y-41500000D03*
X168000000Y-103000000D03*
D19*
X169814194Y-59639694D03*
X170500000Y-58500000D03*
X171000000Y-68000000D03*
X170500000Y-74000000D03*
X156000000Y-82500000D03*
X156825500Y-83397390D03*
X153500000Y-67000000D03*
X155500000Y-69500000D03*
X152000000Y-70500002D03*
X189500000Y-90500000D03*
X189500000Y-86000000D03*
X148500000Y-76000000D03*
X149000000Y-83500000D03*
X150000000Y-92000000D03*
X147000000Y-90500000D03*
X147275999Y-78000000D03*
X147000000Y-83500000D03*
X146325500Y-85000000D03*
X146476496Y-78000000D03*
X146325500Y-88500000D03*
X176000000Y-89450500D03*
X148000000Y-83500000D03*
X150000000Y-65000000D03*
X151000000Y-64000000D03*
X189500000Y-45000000D03*
X187000000Y-57000000D03*
X164500000Y-93980000D03*
X165000000Y-94825500D03*
X151000000Y-102000000D03*
X160500000Y-92500000D03*
X159500000Y-92500000D03*
X158514306Y-92517404D03*
X157700497Y-92500000D03*
D21*
X176485000Y-46945000D02*
X196895000Y-46945000D01*
D22*
X170000000Y-64149400D02*
X171297200Y-62852200D01*
X167640000Y-66040000D02*
X169460000Y-66040000D01*
X198120000Y-45720000D02*
X205740000Y-45720000D01*
D21*
X196895000Y-46945000D02*
X198120000Y-45720000D01*
X160000000Y-66000000D02*
X158000000Y-68000000D01*
D22*
X171297200Y-47142800D02*
X172720000Y-45720000D01*
X172720000Y-45720000D02*
X175260000Y-45720000D01*
X162460000Y-66040000D02*
X162420000Y-66000000D01*
X156682000Y-96969000D02*
X154500000Y-96969000D01*
D21*
X162420000Y-66000000D02*
X160000000Y-66000000D01*
X157500000Y-80500000D02*
X158000000Y-80000000D01*
X156500000Y-92500000D02*
X157500000Y-91500000D01*
X157500000Y-91500000D02*
X157500000Y-80500000D01*
D22*
X170000000Y-65500000D02*
X170000000Y-64149400D01*
X169460000Y-66040000D02*
X170000000Y-65500000D01*
X171297200Y-62852200D02*
X171297200Y-47142800D01*
X154500000Y-96969000D02*
X152182000Y-96969000D01*
X162560000Y-66040000D02*
X167640000Y-66040000D01*
D21*
X158000000Y-68000000D02*
X158000000Y-76500000D01*
X175260000Y-45720000D02*
X176485000Y-46945000D01*
D22*
X162560000Y-66040000D02*
X162460000Y-66040000D01*
D21*
X134900998Y-46599002D02*
X136500000Y-45000000D01*
X134900998Y-97900998D02*
X134900998Y-46599002D01*
D22*
X167640000Y-50800000D02*
X167700000Y-50800000D01*
D21*
X141740000Y-105696000D02*
X141740000Y-104740000D01*
X141740000Y-104740000D02*
X134900998Y-97900998D01*
D22*
X162560000Y-50800000D02*
X167640000Y-50800000D01*
X167700000Y-50800000D02*
X170000000Y-48500000D01*
X172720000Y-48260000D02*
X223520000Y-48260000D01*
X162560000Y-53340000D02*
X167640000Y-53340000D01*
X172720000Y-50800000D02*
X223520000Y-50800000D01*
D21*
X152301000Y-99000000D02*
X152182000Y-99119000D01*
X154500000Y-99000000D02*
X156563000Y-99000000D01*
X154500000Y-99000000D02*
X152301000Y-99000000D01*
X156563000Y-99000000D02*
X156682000Y-99119000D01*
D22*
X198120000Y-55880000D02*
X205740000Y-55880000D01*
D21*
X175260000Y-55880000D02*
X176485000Y-54655000D01*
X176485000Y-54655000D02*
X196500000Y-54655000D01*
X196500000Y-54655000D02*
X198120000Y-55880000D01*
D22*
X172720000Y-55880000D02*
X175260000Y-55880000D01*
X162560000Y-63500000D02*
X167640000Y-63500000D01*
D21*
X167640000Y-63500000D02*
X169814194Y-61325806D01*
X169814194Y-61325806D02*
X169814194Y-59639694D01*
D22*
X162560000Y-60960000D02*
X167640000Y-60960000D01*
D21*
X196895000Y-59645000D02*
X198120000Y-58420000D01*
X170000000Y-58500000D02*
X169000000Y-59500000D01*
X170500000Y-58500000D02*
X170000000Y-58500000D01*
X169000000Y-59500000D02*
X169000000Y-60000000D01*
X168040000Y-60960000D02*
X167640000Y-60960000D01*
X175260000Y-58420000D02*
X176485000Y-59645000D01*
D22*
X205740000Y-58420000D02*
X198120000Y-58420000D01*
D21*
X169000000Y-60000000D02*
X168040000Y-60960000D01*
X176485000Y-59645000D02*
X196895000Y-59645000D01*
D22*
X172720000Y-58420000D02*
X175260000Y-58420000D01*
D21*
X175260000Y-60960000D02*
X176485000Y-62185000D01*
D22*
X172720000Y-60960000D02*
X175260000Y-60960000D01*
D21*
X176485000Y-62185000D02*
X196895000Y-62185000D01*
D22*
X162560000Y-55880000D02*
X167640000Y-55880000D01*
X198120000Y-60960000D02*
X205740000Y-60960000D01*
D21*
X196895000Y-62185000D02*
X198120000Y-60960000D01*
X196895000Y-64725000D02*
X198120000Y-63500000D01*
X167640000Y-76200000D02*
X168300000Y-76200000D01*
D22*
X172720000Y-63500000D02*
X175260000Y-63500000D01*
X198120000Y-63500000D02*
X205740000Y-63500000D01*
D21*
X171000000Y-68000000D02*
X171000000Y-65220000D01*
D22*
X162560000Y-76200000D02*
X167640000Y-76200000D01*
D21*
X176485000Y-64725000D02*
X196895000Y-64725000D01*
X171000000Y-65220000D02*
X172720000Y-63500000D01*
X168300000Y-76200000D02*
X170500000Y-74000000D01*
X175260000Y-63500000D02*
X176485000Y-64725000D01*
X196895000Y-67265000D02*
X198120000Y-66040000D01*
D22*
X162560000Y-73660000D02*
X167640000Y-73660000D01*
D21*
X175260000Y-66040000D02*
X176485000Y-67265000D01*
D22*
X172720000Y-66040000D02*
X175260000Y-66040000D01*
X198120000Y-66040000D02*
X205740000Y-66040000D01*
D21*
X176485000Y-67265000D02*
X196895000Y-67265000D01*
X176485000Y-69805000D02*
X196895000Y-69805000D01*
X175260000Y-68580000D02*
X176485000Y-69805000D01*
D22*
X168490000Y-69430000D02*
X171870000Y-69430000D01*
X162560000Y-68580000D02*
X167640000Y-68580000D01*
D21*
X196895000Y-69805000D02*
X198120000Y-68580000D01*
D22*
X171870000Y-69430000D02*
X172720000Y-68580000D01*
X198120000Y-68580000D02*
X205740000Y-68580000D01*
X172720000Y-68580000D02*
X175260000Y-68580000D01*
X167640000Y-68580000D02*
X168490000Y-69430000D01*
D21*
X161000000Y-74975000D02*
X156000000Y-79975000D01*
X172426112Y-71120000D02*
X168571112Y-74975000D01*
X176485000Y-72345000D02*
X196895000Y-72345000D01*
X172720000Y-71120000D02*
X172426112Y-71120000D01*
X196895000Y-72345000D02*
X198120000Y-71120000D01*
X144780000Y-86360000D02*
X139700000Y-86360000D01*
X168571112Y-74975000D02*
X161000000Y-74975000D01*
X156000000Y-79975000D02*
X156000000Y-82500000D01*
D22*
X198120000Y-71120000D02*
X205740000Y-71120000D01*
D21*
X175260000Y-71120000D02*
X176485000Y-72345000D01*
D22*
X172720000Y-71120000D02*
X175260000Y-71120000D01*
D21*
X168955000Y-77425000D02*
X159575000Y-77425000D01*
D22*
X172720000Y-73660000D02*
X175260000Y-73660000D01*
D21*
X176485000Y-74885000D02*
X196895000Y-74885000D01*
X172720000Y-73660000D02*
X168955000Y-77425000D01*
X156825500Y-80174500D02*
X156825500Y-83397390D01*
X175260000Y-73660000D02*
X176485000Y-74885000D01*
D22*
X198120000Y-73660000D02*
X205740000Y-73660000D01*
D21*
X144780000Y-88900000D02*
X139700000Y-88900000D01*
X159575000Y-77425000D02*
X156825500Y-80174500D01*
X196895000Y-74885000D02*
X198120000Y-73660000D01*
X144780000Y-66040000D02*
X139700000Y-66040000D01*
X176485000Y-77425000D02*
X196895000Y-77425000D01*
X196895000Y-77425000D02*
X198120000Y-76200000D01*
X175260000Y-76200000D02*
X176485000Y-77425000D01*
D22*
X198120000Y-76200000D02*
X205740000Y-76200000D01*
X172720000Y-76200000D02*
X175260000Y-76200000D01*
D21*
X153500000Y-67000000D02*
X153500000Y-61282888D01*
D22*
X172720000Y-78740000D02*
X175260000Y-78740000D01*
D21*
X153500000Y-61282888D02*
X148000000Y-55782888D01*
X176485000Y-79965000D02*
X196895000Y-79965000D01*
X148000000Y-46400000D02*
X144780000Y-43180000D01*
D22*
X198120000Y-78740000D02*
X205740000Y-78740000D01*
D21*
X148000000Y-55782888D02*
X148000000Y-46400000D01*
X175260000Y-78740000D02*
X176485000Y-79965000D01*
X196895000Y-79965000D02*
X198120000Y-78740000D01*
D22*
X198120000Y-81280000D02*
X205740000Y-81280000D01*
X172720000Y-81280000D02*
X175260000Y-81280000D01*
D21*
X148549501Y-44409501D02*
X148549501Y-55555277D01*
X196895000Y-82505000D02*
X198120000Y-81280000D01*
X176485000Y-82505000D02*
X196895000Y-82505000D01*
X148549501Y-55555277D02*
X155500000Y-62505776D01*
X175260000Y-81280000D02*
X176485000Y-82505000D01*
X155500000Y-62505776D02*
X155500000Y-69500000D01*
X144780000Y-40640000D02*
X148549501Y-44409501D01*
D22*
X198120000Y-83820000D02*
X205740000Y-83820000D01*
X172694600Y-83820000D02*
X175260000Y-83820000D01*
D21*
X196895000Y-85045000D02*
X198120000Y-83820000D01*
X152000000Y-60560000D02*
X152000000Y-70500002D01*
X144780000Y-53340000D02*
X152000000Y-60560000D01*
X176485000Y-85045000D02*
X196895000Y-85045000D01*
X175260000Y-83820000D02*
X176485000Y-85045000D01*
X150500000Y-101000000D02*
X162500000Y-101000000D01*
X143526538Y-107000000D02*
X144500000Y-107000000D01*
X162500000Y-101000000D02*
X171500000Y-92000000D01*
D22*
X220980000Y-83820000D02*
X228600000Y-83820000D01*
D21*
X142740000Y-106213462D02*
X143526538Y-107000000D01*
X188000000Y-92000000D02*
X189500000Y-90500000D01*
X135450499Y-97673387D02*
X142740000Y-104962888D01*
X142740000Y-104962888D02*
X142740000Y-105696000D01*
D22*
X190500000Y-83820000D02*
X193040000Y-83820000D01*
D21*
X171500000Y-92000000D02*
X188000000Y-92000000D01*
X142740000Y-105696000D02*
X142740000Y-106213462D01*
X135450499Y-52509501D02*
X135450499Y-97673387D01*
X144500000Y-107000000D02*
X150500000Y-101000000D01*
X139700000Y-48260000D02*
X135450499Y-52509501D01*
X143740000Y-105696000D02*
X151436000Y-98000000D01*
X151436000Y-98000000D02*
X164500000Y-98000000D01*
X164500000Y-98000000D02*
X171450499Y-91049501D01*
X189500000Y-89092412D02*
X189500000Y-86000000D01*
X187542911Y-91049501D02*
X189500000Y-89092412D01*
D22*
X220980000Y-81280000D02*
X228600000Y-81280000D01*
D21*
X171450499Y-91049501D02*
X187542911Y-91049501D01*
X136000000Y-97438538D02*
X143740000Y-105178538D01*
D22*
X193040000Y-81280000D02*
X190500000Y-81280000D01*
D21*
X143740000Y-105178538D02*
X143740000Y-105696000D01*
X139700000Y-50800000D02*
X136000000Y-54500000D01*
X136000000Y-54500000D02*
X136000000Y-97438538D01*
X148500000Y-58000000D02*
X148500000Y-76000000D01*
X144780000Y-55880000D02*
X146380000Y-55880000D01*
X149000000Y-91000000D02*
X150000000Y-92000000D01*
D22*
X220980000Y-78740000D02*
X228600000Y-78740000D01*
D21*
X146380000Y-55880000D02*
X148500000Y-58000000D01*
D22*
X190500000Y-78740000D02*
X193040000Y-78740000D01*
D21*
X149000000Y-83500000D02*
X149000000Y-91000000D01*
D22*
X220980000Y-76200000D02*
X228600000Y-76200000D01*
X190500000Y-76200000D02*
X193040000Y-76200000D01*
X190500000Y-73660000D02*
X193040000Y-73660000D01*
D21*
X147500000Y-71300000D02*
X147500000Y-77775999D01*
X147500000Y-77775999D02*
X147275999Y-78000000D01*
X144780000Y-68580000D02*
X147500000Y-71300000D01*
X144780000Y-68580000D02*
X139700000Y-68580000D01*
D22*
X220980000Y-73660000D02*
X228600000Y-73660000D01*
D21*
X147000000Y-83500000D02*
X147000000Y-90500000D01*
X144780000Y-73660000D02*
X145160000Y-73660000D01*
X144780000Y-73660000D02*
X139700000Y-73660000D01*
X145160000Y-73660000D02*
X146476496Y-74976496D01*
X146325500Y-85000000D02*
X146325500Y-88500000D01*
D22*
X220980000Y-71120000D02*
X228600000Y-71120000D01*
D21*
X146476496Y-74976496D02*
X146476496Y-78000000D01*
D22*
X190500000Y-71120000D02*
X193040000Y-71120000D01*
D21*
X171000000Y-90500000D02*
X166000000Y-95500000D01*
D22*
X228600000Y-68580000D02*
X220980000Y-68580000D01*
D21*
X176000000Y-89450500D02*
X174950500Y-90500000D01*
X144780000Y-76200000D02*
X139700000Y-76200000D01*
X148000000Y-91500000D02*
X148000000Y-83500000D01*
X166000000Y-95500000D02*
X152000000Y-95500000D01*
X174950500Y-90500000D02*
X171000000Y-90500000D01*
D22*
X190500000Y-68580000D02*
X193040000Y-68580000D01*
D21*
X152000000Y-95500000D02*
X148000000Y-91500000D01*
X149500000Y-77000000D02*
X149500000Y-65500000D01*
X144780000Y-78740000D02*
X139700000Y-78740000D01*
X149500000Y-65500000D02*
X150000000Y-65000000D01*
D22*
X190500000Y-66040000D02*
X193040000Y-66040000D01*
D21*
X144780000Y-78740000D02*
X147760000Y-78740000D01*
D22*
X220980000Y-66040000D02*
X228600000Y-66040000D01*
D21*
X147760000Y-78740000D02*
X149500000Y-77000000D01*
D22*
X228600000Y-63500000D02*
X220980000Y-63500000D01*
D21*
X151000000Y-77000000D02*
X151000000Y-64000000D01*
X144780000Y-81280000D02*
X146720000Y-81280000D01*
X190500000Y-63500000D02*
X193040000Y-63500000D01*
X144780000Y-81280000D02*
X139700000Y-81280000D01*
X146720000Y-81280000D02*
X151000000Y-77000000D01*
D22*
X190500000Y-60960000D02*
X193040000Y-60960000D01*
D21*
X174000000Y-45000000D02*
X174505000Y-44495000D01*
X170500000Y-41000000D02*
X170500000Y-42500000D01*
D22*
X162560000Y-40640000D02*
X167640000Y-40640000D01*
D21*
X172495000Y-44495000D02*
X173495000Y-44495000D01*
X170500000Y-42500000D02*
X172495000Y-44495000D01*
X170140000Y-40640000D02*
X170500000Y-41000000D01*
X174505000Y-44495000D02*
X188995000Y-44495000D01*
X167640000Y-40640000D02*
X170140000Y-40640000D01*
X188995000Y-44495000D02*
X189500000Y-45000000D01*
X173495000Y-44495000D02*
X174000000Y-45000000D01*
D22*
X220980000Y-60960000D02*
X228600000Y-60960000D01*
D21*
X187105000Y-57105000D02*
X189185000Y-57105000D01*
X187000000Y-57000000D02*
X187105000Y-57105000D01*
D22*
X228600000Y-58420000D02*
X220980000Y-58420000D01*
X162560000Y-48260000D02*
X167640000Y-48260000D01*
X190500000Y-58420000D02*
X193040000Y-58420000D01*
D21*
X189185000Y-57105000D02*
X190500000Y-58420000D01*
D22*
X220980000Y-55880000D02*
X228600000Y-55880000D01*
X190500000Y-55880000D02*
X193040000Y-55880000D01*
D21*
X157325500Y-63654500D02*
X157325500Y-76674500D01*
X154895000Y-93395000D02*
X155480000Y-93980000D01*
D22*
X172720000Y-93980000D02*
X177800000Y-93980000D01*
D21*
X162560000Y-58420000D02*
X157325500Y-63654500D01*
X155480000Y-93980000D02*
X164500000Y-93980000D01*
D22*
X162560000Y-58420000D02*
X167640000Y-58420000D01*
D21*
X154895000Y-79105000D02*
X154895000Y-93395000D01*
X157325500Y-76674500D02*
X154895000Y-79105000D01*
X155548388Y-94825500D02*
X165000000Y-94825500D01*
D22*
X162560000Y-43180000D02*
X167640000Y-43180000D01*
D21*
X156500000Y-49240000D02*
X156500000Y-75000000D01*
X152355000Y-79145000D02*
X152355000Y-91632112D01*
D22*
X172720000Y-96520000D02*
X177800000Y-96520000D01*
D21*
X152355000Y-91632112D02*
X155548388Y-94825500D01*
X162560000Y-43180000D02*
X156500000Y-49240000D01*
X156500000Y-75000000D02*
X152355000Y-79145000D01*
X172720000Y-99060000D02*
X172660000Y-99000000D01*
X163000000Y-102000000D02*
X151000000Y-102000000D01*
D22*
X172720000Y-99060000D02*
X177800000Y-99060000D01*
D21*
X172660000Y-99000000D02*
X166000000Y-99000000D01*
X144780000Y-63500000D02*
X139700000Y-63500000D01*
X166000000Y-99000000D02*
X163000000Y-102000000D01*
X161600000Y-88900000D02*
X160500000Y-90000000D01*
D22*
X177640000Y-101600000D02*
X177800000Y-101760000D01*
X172720000Y-101600000D02*
X177640000Y-101600000D01*
X162560000Y-88900000D02*
X167640000Y-88900000D01*
D21*
X162560000Y-88900000D02*
X161600000Y-88900000D01*
X160500000Y-90000000D02*
X160500000Y-92500000D01*
D22*
X172720000Y-104140000D02*
X177800000Y-104140000D01*
D21*
X162560000Y-86360000D02*
X160350000Y-86360000D01*
X160350000Y-86360000D02*
X159500000Y-87210000D01*
X159500000Y-87210000D02*
X159500000Y-92500000D01*
D22*
X162560000Y-86360000D02*
X167640000Y-86360000D01*
D21*
X158724001Y-85115999D02*
X158724001Y-92307709D01*
X162560000Y-81280000D02*
X158724001Y-85115999D01*
X158724001Y-92307709D02*
X158514306Y-92517404D01*
D22*
X162560000Y-81280000D02*
X167640000Y-81280000D01*
X172720000Y-106680000D02*
X177800000Y-106680000D01*
D21*
X162560000Y-78740000D02*
X158174500Y-83125500D01*
X158174500Y-83125500D02*
X158174500Y-91903322D01*
X158174500Y-91903322D02*
X157700497Y-92377325D01*
X157700497Y-92377325D02*
X157700497Y-92500000D01*
D22*
X162560000Y-78740000D02*
X167640000Y-78740000D01*
X172720000Y-109220000D02*
X177800000Y-109220000D01*
G04 #@! TA.AperFunction,Conductor*
G36*
X228996090Y-39209439D02*
G01*
X229036319Y-39236319D01*
X230463681Y-40663681D01*
X230490561Y-40703909D01*
X230500000Y-40751362D01*
X230500000Y-108948638D01*
X230490561Y-108996091D01*
X230463681Y-109036319D01*
X229036319Y-110463681D01*
X228996091Y-110490561D01*
X228948638Y-110500000D01*
X199039773Y-110500000D01*
X198979657Y-110484453D01*
X198934615Y-110441710D01*
X198915943Y-110382489D01*
X198928323Y-110321642D01*
X198968649Y-110274426D01*
X198991401Y-110258495D01*
X199158495Y-110091401D01*
X199294035Y-109897830D01*
X199393903Y-109683663D01*
X199455063Y-109455408D01*
X199475659Y-109220000D01*
X199471824Y-109176172D01*
X199455063Y-108984592D01*
X199442630Y-108938191D01*
X199393903Y-108756337D01*
X199294035Y-108542171D01*
X199158495Y-108348599D01*
X199132431Y-108322535D01*
X226661500Y-108322535D01*
X226700520Y-108556372D01*
X226766295Y-108747967D01*
X226777496Y-108780595D01*
X226890329Y-108989091D01*
X226890330Y-108989092D01*
X227035939Y-109176172D01*
X227091862Y-109227652D01*
X227210357Y-109336735D01*
X227408824Y-109466399D01*
X227625925Y-109561629D01*
X227855740Y-109619826D01*
X227926575Y-109625695D01*
X228032823Y-109634500D01*
X228032829Y-109634500D01*
X228151171Y-109634500D01*
X228151177Y-109634500D01*
X228247765Y-109626495D01*
X228328260Y-109619826D01*
X228558075Y-109561629D01*
X228775176Y-109466399D01*
X228973643Y-109336735D01*
X229148060Y-109176172D01*
X229293671Y-108989091D01*
X229406504Y-108780595D01*
X229483480Y-108556371D01*
X229522500Y-108322535D01*
X229522500Y-108085465D01*
X229483480Y-107851629D01*
X229406504Y-107627405D01*
X229293671Y-107418909D01*
X229211211Y-107312964D01*
X229148060Y-107231827D01*
X229052287Y-107143662D01*
X228973643Y-107071265D01*
X228817856Y-106969485D01*
X228775178Y-106941602D01*
X228732189Y-106922745D01*
X228558075Y-106846371D01*
X228328260Y-106788174D01*
X228328258Y-106788173D01*
X228328255Y-106788173D01*
X228151177Y-106773500D01*
X228151171Y-106773500D01*
X228032829Y-106773500D01*
X228032823Y-106773500D01*
X227855744Y-106788173D01*
X227625925Y-106846371D01*
X227408821Y-106941602D01*
X227210358Y-107071264D01*
X227035939Y-107231827D01*
X226890330Y-107418907D01*
X226867782Y-107460572D01*
X226779862Y-107623034D01*
X226777494Y-107627409D01*
X226700520Y-107851627D01*
X226661500Y-108085465D01*
X226661500Y-108322535D01*
X199132431Y-108322535D01*
X198991401Y-108181505D01*
X198805839Y-108051573D01*
X198766975Y-108007257D01*
X198752964Y-107950000D01*
X198766975Y-107892743D01*
X198805839Y-107848426D01*
X198991401Y-107718495D01*
X199158495Y-107551401D01*
X199294035Y-107357830D01*
X199393903Y-107143663D01*
X199455063Y-106915408D01*
X199475659Y-106680000D01*
X199455063Y-106444592D01*
X199393903Y-106216337D01*
X199294035Y-106002171D01*
X199158495Y-105808599D01*
X198991401Y-105641505D01*
X198805839Y-105511573D01*
X198766975Y-105467257D01*
X198752964Y-105410000D01*
X198766975Y-105352743D01*
X198805839Y-105308426D01*
X198991401Y-105178495D01*
X199158495Y-105011401D01*
X199294035Y-104817830D01*
X199393903Y-104603663D01*
X199455063Y-104375408D01*
X199475659Y-104140000D01*
X199455063Y-103904592D01*
X199393903Y-103676337D01*
X199294035Y-103462171D01*
X199158495Y-103268599D01*
X198991401Y-103101505D01*
X198805839Y-102971573D01*
X198766974Y-102927255D01*
X198752964Y-102869999D01*
X198766975Y-102812742D01*
X198805837Y-102768428D01*
X198991401Y-102638495D01*
X199158495Y-102471401D01*
X199294035Y-102277830D01*
X199393903Y-102063663D01*
X199455063Y-101835408D01*
X199475659Y-101600000D01*
X199455063Y-101364592D01*
X199393903Y-101136337D01*
X199294035Y-100922171D01*
X199158495Y-100728599D01*
X198991401Y-100561505D01*
X198805839Y-100431573D01*
X198766974Y-100387255D01*
X198752964Y-100329999D01*
X198766975Y-100272742D01*
X198805837Y-100228428D01*
X198991401Y-100098495D01*
X199158495Y-99931401D01*
X199294035Y-99737830D01*
X199393903Y-99523663D01*
X199455063Y-99295408D01*
X199475659Y-99060000D01*
X199455063Y-98824592D01*
X199393903Y-98596337D01*
X199294035Y-98382171D01*
X199158495Y-98188599D01*
X198991401Y-98021505D01*
X198805839Y-97891573D01*
X198766976Y-97847257D01*
X198752965Y-97790000D01*
X198766976Y-97732743D01*
X198805839Y-97688426D01*
X198991401Y-97558495D01*
X199158495Y-97391401D01*
X199294035Y-97197830D01*
X199393903Y-96983663D01*
X199455063Y-96755408D01*
X199475659Y-96520000D01*
X199455063Y-96284592D01*
X199393903Y-96056337D01*
X199294035Y-95842171D01*
X199158495Y-95648599D01*
X198991401Y-95481505D01*
X198805839Y-95351573D01*
X198766975Y-95307257D01*
X198752964Y-95250000D01*
X198766975Y-95192743D01*
X198805839Y-95148426D01*
X198991401Y-95018495D01*
X199158495Y-94851401D01*
X199294035Y-94657830D01*
X199393903Y-94443663D01*
X199455063Y-94215408D01*
X199475659Y-93980000D01*
X199455063Y-93744592D01*
X199393903Y-93516337D01*
X199294035Y-93302171D01*
X199158495Y-93108599D01*
X198991401Y-92941505D01*
X198797830Y-92805965D01*
X198583663Y-92706097D01*
X198522502Y-92689709D01*
X198355407Y-92644936D01*
X198120000Y-92624340D01*
X197884592Y-92644936D01*
X197656336Y-92706097D01*
X197442170Y-92805965D01*
X197248598Y-92941505D01*
X197081505Y-93108598D01*
X196951575Y-93294159D01*
X196907257Y-93333025D01*
X196850000Y-93347036D01*
X196792743Y-93333025D01*
X196748425Y-93294159D01*
X196682423Y-93199898D01*
X196618495Y-93108599D01*
X196451401Y-92941505D01*
X196257830Y-92805965D01*
X196043663Y-92706097D01*
X195982502Y-92689709D01*
X195815407Y-92644936D01*
X195580000Y-92624340D01*
X195344592Y-92644936D01*
X195116336Y-92706097D01*
X194902170Y-92805965D01*
X194708598Y-92941505D01*
X194541505Y-93108598D01*
X194411575Y-93294159D01*
X194367257Y-93333025D01*
X194310000Y-93347036D01*
X194252743Y-93333025D01*
X194208425Y-93294159D01*
X194142423Y-93199898D01*
X194078495Y-93108599D01*
X193911401Y-92941505D01*
X193717830Y-92805965D01*
X193503663Y-92706097D01*
X193442502Y-92689709D01*
X193275407Y-92644936D01*
X193040000Y-92624340D01*
X192804592Y-92644936D01*
X192576336Y-92706097D01*
X192362170Y-92805965D01*
X192168598Y-92941505D01*
X192001505Y-93108598D01*
X191871575Y-93294159D01*
X191827257Y-93333025D01*
X191770000Y-93347036D01*
X191712743Y-93333025D01*
X191668425Y-93294159D01*
X191602423Y-93199898D01*
X191538495Y-93108599D01*
X191371401Y-92941505D01*
X191177830Y-92805965D01*
X190963663Y-92706097D01*
X190902502Y-92689709D01*
X190735407Y-92644936D01*
X190500000Y-92624340D01*
X190264592Y-92644936D01*
X190036336Y-92706097D01*
X189822170Y-92805965D01*
X189628598Y-92941505D01*
X189461505Y-93108598D01*
X189331575Y-93294159D01*
X189287257Y-93333025D01*
X189230000Y-93347036D01*
X189172743Y-93333025D01*
X189128425Y-93294159D01*
X189062423Y-93199898D01*
X188998495Y-93108599D01*
X188831401Y-92941505D01*
X188637830Y-92805965D01*
X188565966Y-92772454D01*
X188466154Y-92725910D01*
X188416863Y-92684479D01*
X188394995Y-92623916D01*
X188406445Y-92560552D01*
X188448124Y-92511474D01*
X188451229Y-92509332D01*
X188489610Y-92466007D01*
X188494711Y-92460588D01*
X189644904Y-91310396D01*
X189691624Y-91281039D01*
X189849522Y-91225789D01*
X190002262Y-91129816D01*
X190129816Y-91002262D01*
X190225789Y-90849522D01*
X190285368Y-90679255D01*
X190305565Y-90500000D01*
X190285368Y-90320745D01*
X190225789Y-90150478D01*
X190129816Y-89997738D01*
X190129815Y-89997737D01*
X190129814Y-89997735D01*
X190002264Y-89870185D01*
X189946141Y-89834921D01*
X189934492Y-89827601D01*
X189895471Y-89788580D01*
X189877245Y-89736492D01*
X189883423Y-89681653D01*
X189912782Y-89634929D01*
X189960588Y-89587123D01*
X189966007Y-89582022D01*
X190009332Y-89543641D01*
X190042219Y-89495993D01*
X190046613Y-89490021D01*
X190082326Y-89444440D01*
X190086171Y-89435896D01*
X190097197Y-89416347D01*
X190098467Y-89414506D01*
X190102518Y-89408638D01*
X190123036Y-89354534D01*
X190125901Y-89347619D01*
X190149648Y-89294856D01*
X190149648Y-89294855D01*
X190149650Y-89294851D01*
X190151338Y-89285634D01*
X190157364Y-89264020D01*
X190160688Y-89255257D01*
X190167663Y-89197808D01*
X190168790Y-89190405D01*
X190179219Y-89133496D01*
X190175726Y-89075747D01*
X190175500Y-89068261D01*
X190175500Y-87764298D01*
X190948700Y-87764298D01*
X190988893Y-88005164D01*
X191068183Y-88236127D01*
X191184406Y-88450887D01*
X191334394Y-88643595D01*
X191379525Y-88685140D01*
X191514056Y-88808984D01*
X191718488Y-88942546D01*
X191718490Y-88942547D01*
X191731464Y-88948238D01*
X191942116Y-89040638D01*
X192178839Y-89100585D01*
X192261754Y-89107455D01*
X192361248Y-89115700D01*
X192361254Y-89115700D01*
X192483146Y-89115700D01*
X192483152Y-89115700D01*
X192574353Y-89108142D01*
X192665561Y-89100585D01*
X192902284Y-89040638D01*
X193125912Y-88942546D01*
X193330344Y-88808984D01*
X193510005Y-88643595D01*
X193659992Y-88450890D01*
X193776217Y-88236127D01*
X193855507Y-88005163D01*
X193895700Y-87764298D01*
X202378700Y-87764298D01*
X202418893Y-88005164D01*
X202498183Y-88236127D01*
X202614406Y-88450887D01*
X202764394Y-88643595D01*
X202809525Y-88685140D01*
X202944056Y-88808984D01*
X203148488Y-88942546D01*
X203148490Y-88942547D01*
X203161464Y-88948238D01*
X203372116Y-89040638D01*
X203608839Y-89100585D01*
X203691754Y-89107455D01*
X203791248Y-89115700D01*
X203791254Y-89115700D01*
X203913146Y-89115700D01*
X203913152Y-89115700D01*
X204004353Y-89108142D01*
X204095561Y-89100585D01*
X204332284Y-89040638D01*
X204555912Y-88942546D01*
X204760344Y-88808984D01*
X204940005Y-88643595D01*
X205089992Y-88450890D01*
X205206217Y-88236127D01*
X205285507Y-88005163D01*
X205325700Y-87764298D01*
X205325700Y-87520102D01*
X205285507Y-87279237D01*
X205206217Y-87048273D01*
X205089992Y-86833510D01*
X205027451Y-86753157D01*
X204940005Y-86640804D01*
X204850174Y-86558110D01*
X204760344Y-86475416D01*
X204555912Y-86341854D01*
X204555909Y-86341852D01*
X204332287Y-86243763D01*
X204332285Y-86243762D01*
X204332284Y-86243762D01*
X204095561Y-86183815D01*
X204095557Y-86183814D01*
X204095555Y-86183814D01*
X203913152Y-86168700D01*
X203913146Y-86168700D01*
X203791254Y-86168700D01*
X203791248Y-86168700D01*
X203608844Y-86183814D01*
X203608840Y-86183814D01*
X203608839Y-86183815D01*
X203383092Y-86240982D01*
X203372112Y-86243763D01*
X203148490Y-86341852D01*
X203128063Y-86355198D01*
X202944056Y-86475416D01*
X202944054Y-86475417D01*
X202944055Y-86475417D01*
X202764394Y-86640804D01*
X202614406Y-86833512D01*
X202498183Y-87048272D01*
X202418893Y-87279235D01*
X202378700Y-87520102D01*
X202378700Y-87764298D01*
X193895700Y-87764298D01*
X193895700Y-87520102D01*
X193855507Y-87279237D01*
X193776217Y-87048273D01*
X193659992Y-86833510D01*
X193597451Y-86753157D01*
X193510005Y-86640804D01*
X193420174Y-86558110D01*
X193330344Y-86475416D01*
X193125912Y-86341854D01*
X193125909Y-86341852D01*
X192902287Y-86243763D01*
X192902285Y-86243762D01*
X192902284Y-86243762D01*
X192665561Y-86183815D01*
X192665557Y-86183814D01*
X192665555Y-86183814D01*
X192483152Y-86168700D01*
X192483146Y-86168700D01*
X192361254Y-86168700D01*
X192361248Y-86168700D01*
X192178844Y-86183814D01*
X192178840Y-86183814D01*
X192178839Y-86183815D01*
X191953092Y-86240982D01*
X191942112Y-86243763D01*
X191718490Y-86341852D01*
X191698063Y-86355198D01*
X191514056Y-86475416D01*
X191514054Y-86475417D01*
X191514055Y-86475417D01*
X191334394Y-86640804D01*
X191184406Y-86833512D01*
X191068183Y-87048272D01*
X190988893Y-87279235D01*
X190948700Y-87520102D01*
X190948700Y-87764298D01*
X190175500Y-87764298D01*
X190175500Y-86465280D01*
X190194506Y-86399308D01*
X190225789Y-86349522D01*
X190285368Y-86179255D01*
X190305565Y-86000000D01*
X190289608Y-85858384D01*
X190301109Y-85790699D01*
X190346857Y-85739506D01*
X190412829Y-85720500D01*
X196870849Y-85720500D01*
X196878335Y-85720726D01*
X196936084Y-85724219D01*
X196936084Y-85724218D01*
X196936085Y-85724219D01*
X196992997Y-85713789D01*
X197000396Y-85712663D01*
X197057845Y-85705688D01*
X197066608Y-85702364D01*
X197088222Y-85696338D01*
X197097439Y-85694650D01*
X197097443Y-85694648D01*
X197097444Y-85694648D01*
X197150207Y-85670901D01*
X197157122Y-85668036D01*
X197211226Y-85647518D01*
X197218933Y-85642197D01*
X197238484Y-85631171D01*
X197247028Y-85627326D01*
X197292609Y-85591613D01*
X197298581Y-85587219D01*
X197346229Y-85554332D01*
X197384610Y-85511007D01*
X197389711Y-85505588D01*
X197720121Y-85175178D01*
X197775707Y-85143086D01*
X197839894Y-85143086D01*
X197884592Y-85155063D01*
X198120000Y-85175659D01*
X198355408Y-85155063D01*
X198583663Y-85093903D01*
X198797830Y-84994035D01*
X198991401Y-84858495D01*
X199158495Y-84691401D01*
X199223633Y-84598374D01*
X199267949Y-84559511D01*
X199325206Y-84545500D01*
X201969394Y-84545500D01*
X202026651Y-84559511D01*
X202070966Y-84598374D01*
X202136105Y-84691401D01*
X202303199Y-84858495D01*
X202496770Y-84994035D01*
X202710937Y-85093903D01*
X202939192Y-85155063D01*
X203174600Y-85175659D01*
X203410008Y-85155063D01*
X203638263Y-85093903D01*
X203852430Y-84994035D01*
X204046001Y-84858495D01*
X204213095Y-84691401D01*
X204278233Y-84598374D01*
X204322549Y-84559511D01*
X204379806Y-84545500D01*
X204534794Y-84545500D01*
X204592051Y-84559511D01*
X204636366Y-84598374D01*
X204701505Y-84691401D01*
X204868599Y-84858495D01*
X205062170Y-84994035D01*
X205276337Y-85093903D01*
X205504592Y-85155063D01*
X205740000Y-85175659D01*
X205975408Y-85155063D01*
X206203663Y-85093903D01*
X206417830Y-84994035D01*
X206611401Y-84858495D01*
X206778495Y-84691401D01*
X206908426Y-84505839D01*
X206952743Y-84466975D01*
X207010000Y-84452964D01*
X207067257Y-84466975D01*
X207111573Y-84505839D01*
X207241505Y-84691401D01*
X207408599Y-84858495D01*
X207594160Y-84988426D01*
X207633024Y-85032743D01*
X207647035Y-85090000D01*
X207633024Y-85147257D01*
X207594159Y-85191575D01*
X207408595Y-85321508D01*
X207241505Y-85488598D01*
X207105965Y-85682170D01*
X207006097Y-85896336D01*
X206944936Y-86124592D01*
X206924340Y-86360000D01*
X206944936Y-86595407D01*
X206989709Y-86762501D01*
X207006097Y-86823663D01*
X207105965Y-87037830D01*
X207241505Y-87231401D01*
X207408599Y-87398495D01*
X207594160Y-87528426D01*
X207633024Y-87572743D01*
X207647035Y-87630000D01*
X207633024Y-87687257D01*
X207594158Y-87731575D01*
X207485490Y-87807666D01*
X207408595Y-87861508D01*
X207241505Y-88028598D01*
X207105965Y-88222170D01*
X207006097Y-88436336D01*
X206944936Y-88664592D01*
X206924340Y-88899999D01*
X206944936Y-89135407D01*
X206983642Y-89279858D01*
X207006097Y-89363663D01*
X207105965Y-89577830D01*
X207241505Y-89771401D01*
X207408599Y-89938495D01*
X207602170Y-90074035D01*
X207816337Y-90173903D01*
X208044592Y-90235063D01*
X208279999Y-90255659D01*
X208279999Y-90255658D01*
X208280000Y-90255659D01*
X208515408Y-90235063D01*
X208743663Y-90173903D01*
X208957830Y-90074035D01*
X209151401Y-89938495D01*
X209318495Y-89771401D01*
X209448426Y-89585839D01*
X209492743Y-89546975D01*
X209550000Y-89532964D01*
X209607257Y-89546975D01*
X209651573Y-89585839D01*
X209781505Y-89771401D01*
X209948599Y-89938495D01*
X210142170Y-90074035D01*
X210356337Y-90173903D01*
X210584592Y-90235063D01*
X210819999Y-90255659D01*
X210819999Y-90255658D01*
X210820000Y-90255659D01*
X211055408Y-90235063D01*
X211283663Y-90173903D01*
X211497830Y-90074035D01*
X211691401Y-89938495D01*
X211858495Y-89771401D01*
X211988426Y-89585839D01*
X212032743Y-89546975D01*
X212090000Y-89532964D01*
X212147257Y-89546975D01*
X212191573Y-89585839D01*
X212321505Y-89771401D01*
X212488599Y-89938495D01*
X212682170Y-90074035D01*
X212896337Y-90173903D01*
X213124592Y-90235063D01*
X213359999Y-90255659D01*
X213359999Y-90255658D01*
X213360000Y-90255659D01*
X213595408Y-90235063D01*
X213823663Y-90173903D01*
X214037830Y-90074035D01*
X214231401Y-89938495D01*
X214398495Y-89771401D01*
X214528426Y-89585839D01*
X214572743Y-89546975D01*
X214630000Y-89532964D01*
X214687257Y-89546975D01*
X214731573Y-89585839D01*
X214861505Y-89771401D01*
X215028599Y-89938495D01*
X215222170Y-90074035D01*
X215436337Y-90173903D01*
X215664592Y-90235063D01*
X215899999Y-90255659D01*
X215899999Y-90255658D01*
X215900000Y-90255659D01*
X216135408Y-90235063D01*
X216363663Y-90173903D01*
X216577830Y-90074035D01*
X216771401Y-89938495D01*
X216938495Y-89771401D01*
X217068426Y-89585839D01*
X217112743Y-89546975D01*
X217170000Y-89532964D01*
X217227257Y-89546975D01*
X217271573Y-89585839D01*
X217401505Y-89771401D01*
X217568599Y-89938495D01*
X217762170Y-90074035D01*
X217976337Y-90173903D01*
X218204592Y-90235063D01*
X218439999Y-90255659D01*
X218439999Y-90255658D01*
X218440000Y-90255659D01*
X218675408Y-90235063D01*
X218903663Y-90173903D01*
X219117830Y-90074035D01*
X219311401Y-89938495D01*
X219478495Y-89771401D01*
X219614035Y-89577830D01*
X219713903Y-89363663D01*
X219775063Y-89135408D01*
X219795659Y-88900000D01*
X219775063Y-88664592D01*
X219713903Y-88436337D01*
X219614035Y-88222171D01*
X219478495Y-88028599D01*
X219311401Y-87861505D01*
X219172575Y-87764298D01*
X221428700Y-87764298D01*
X221468893Y-88005164D01*
X221548183Y-88236127D01*
X221664406Y-88450887D01*
X221814394Y-88643595D01*
X221859525Y-88685140D01*
X221994056Y-88808984D01*
X222198488Y-88942546D01*
X222198490Y-88942547D01*
X222211464Y-88948238D01*
X222422116Y-89040638D01*
X222658839Y-89100585D01*
X222741754Y-89107455D01*
X222841248Y-89115700D01*
X222841254Y-89115700D01*
X222963146Y-89115700D01*
X222963152Y-89115700D01*
X223054353Y-89108142D01*
X223145561Y-89100585D01*
X223382284Y-89040638D01*
X223605912Y-88942546D01*
X223810344Y-88808984D01*
X223990005Y-88643595D01*
X224139992Y-88450890D01*
X224256217Y-88236127D01*
X224335507Y-88005163D01*
X224375700Y-87764298D01*
X224375700Y-87520102D01*
X224335507Y-87279237D01*
X224256217Y-87048273D01*
X224139992Y-86833510D01*
X224077451Y-86753157D01*
X223990005Y-86640804D01*
X223900174Y-86558110D01*
X223810344Y-86475416D01*
X223605912Y-86341854D01*
X223605909Y-86341852D01*
X223382287Y-86243763D01*
X223382285Y-86243762D01*
X223382284Y-86243762D01*
X223145561Y-86183815D01*
X223145557Y-86183814D01*
X223145555Y-86183814D01*
X222963152Y-86168700D01*
X222963146Y-86168700D01*
X222841254Y-86168700D01*
X222841248Y-86168700D01*
X222658844Y-86183814D01*
X222658840Y-86183814D01*
X222658839Y-86183815D01*
X222433092Y-86240982D01*
X222422112Y-86243763D01*
X222198490Y-86341852D01*
X222178063Y-86355198D01*
X221994056Y-86475416D01*
X221994054Y-86475417D01*
X221994055Y-86475417D01*
X221814394Y-86640804D01*
X221664406Y-86833512D01*
X221548183Y-87048272D01*
X221468893Y-87279235D01*
X221428700Y-87520102D01*
X221428700Y-87764298D01*
X219172575Y-87764298D01*
X219125839Y-87731573D01*
X219086975Y-87687257D01*
X219072964Y-87630000D01*
X219086975Y-87572743D01*
X219125839Y-87528426D01*
X219311401Y-87398495D01*
X219478495Y-87231401D01*
X219614035Y-87037830D01*
X219713903Y-86823663D01*
X219775063Y-86595408D01*
X219795659Y-86360000D01*
X219775063Y-86124592D01*
X219713903Y-85896337D01*
X219614035Y-85682171D01*
X219478495Y-85488599D01*
X219311401Y-85321505D01*
X219125839Y-85191573D01*
X219086975Y-85147257D01*
X219072964Y-85090000D01*
X219086975Y-85032743D01*
X219125839Y-84988426D01*
X219311401Y-84858495D01*
X219478495Y-84691401D01*
X219608426Y-84505839D01*
X219652743Y-84466975D01*
X219710000Y-84452964D01*
X219767257Y-84466975D01*
X219811573Y-84505839D01*
X219941505Y-84691401D01*
X220108599Y-84858495D01*
X220302170Y-84994035D01*
X220516337Y-85093903D01*
X220744592Y-85155063D01*
X220980000Y-85175659D01*
X221215408Y-85155063D01*
X221443663Y-85093903D01*
X221657830Y-84994035D01*
X221851401Y-84858495D01*
X222018495Y-84691401D01*
X222083633Y-84598374D01*
X222127949Y-84559511D01*
X222185206Y-84545500D01*
X222314794Y-84545500D01*
X222372051Y-84559511D01*
X222416366Y-84598374D01*
X222481505Y-84691401D01*
X222648599Y-84858495D01*
X222842170Y-84994035D01*
X223056337Y-85093903D01*
X223284592Y-85155063D01*
X223520000Y-85175659D01*
X223755408Y-85155063D01*
X223983663Y-85093903D01*
X224197830Y-84994035D01*
X224391401Y-84858495D01*
X224558495Y-84691401D01*
X224623633Y-84598374D01*
X224667949Y-84559511D01*
X224725206Y-84545500D01*
X227394794Y-84545500D01*
X227452051Y-84559511D01*
X227496366Y-84598374D01*
X227561505Y-84691401D01*
X227728599Y-84858495D01*
X227922170Y-84994035D01*
X228136337Y-85093903D01*
X228364592Y-85155063D01*
X228600000Y-85175659D01*
X228835408Y-85155063D01*
X229063663Y-85093903D01*
X229277830Y-84994035D01*
X229471401Y-84858495D01*
X229638495Y-84691401D01*
X229774035Y-84497830D01*
X229873903Y-84283663D01*
X229935063Y-84055408D01*
X229955659Y-83820000D01*
X229935063Y-83584592D01*
X229873903Y-83356337D01*
X229774035Y-83142171D01*
X229638495Y-82948599D01*
X229471401Y-82781505D01*
X229285839Y-82651573D01*
X229246975Y-82607257D01*
X229232964Y-82550000D01*
X229246975Y-82492743D01*
X229285839Y-82448426D01*
X229471401Y-82318495D01*
X229638495Y-82151401D01*
X229774035Y-81957830D01*
X229873903Y-81743663D01*
X229935063Y-81515408D01*
X229955659Y-81280000D01*
X229935063Y-81044592D01*
X229873903Y-80816337D01*
X229774035Y-80602171D01*
X229638495Y-80408599D01*
X229471401Y-80241505D01*
X229285839Y-80111573D01*
X229246976Y-80067257D01*
X229232965Y-80010000D01*
X229246976Y-79952743D01*
X229285839Y-79908426D01*
X229471401Y-79778495D01*
X229638495Y-79611401D01*
X229774035Y-79417830D01*
X229873903Y-79203663D01*
X229935063Y-78975408D01*
X229955659Y-78740000D01*
X229935063Y-78504592D01*
X229873903Y-78276337D01*
X229774035Y-78062171D01*
X229638495Y-77868599D01*
X229471401Y-77701505D01*
X229285839Y-77571573D01*
X229246975Y-77527257D01*
X229232964Y-77470000D01*
X229246975Y-77412743D01*
X229285839Y-77368426D01*
X229471401Y-77238495D01*
X229638495Y-77071401D01*
X229774035Y-76877830D01*
X229873903Y-76663663D01*
X229935063Y-76435408D01*
X229955659Y-76200000D01*
X229935063Y-75964592D01*
X229873903Y-75736337D01*
X229774035Y-75522171D01*
X229638495Y-75328599D01*
X229471401Y-75161505D01*
X229285839Y-75031573D01*
X229246975Y-74987257D01*
X229232964Y-74930000D01*
X229246975Y-74872743D01*
X229285839Y-74828426D01*
X229471401Y-74698495D01*
X229638495Y-74531401D01*
X229774035Y-74337830D01*
X229873903Y-74123663D01*
X229935063Y-73895408D01*
X229955659Y-73660000D01*
X229935063Y-73424592D01*
X229873903Y-73196337D01*
X229774035Y-72982171D01*
X229638495Y-72788599D01*
X229471401Y-72621505D01*
X229285839Y-72491573D01*
X229246975Y-72447257D01*
X229232964Y-72390000D01*
X229246975Y-72332743D01*
X229285839Y-72288426D01*
X229471401Y-72158495D01*
X229638495Y-71991401D01*
X229774035Y-71797830D01*
X229873903Y-71583663D01*
X229935063Y-71355408D01*
X229955659Y-71120000D01*
X229935063Y-70884592D01*
X229873903Y-70656337D01*
X229774035Y-70442171D01*
X229638495Y-70248599D01*
X229471401Y-70081505D01*
X229285839Y-69951573D01*
X229246975Y-69907257D01*
X229232964Y-69850000D01*
X229246975Y-69792743D01*
X229285839Y-69748426D01*
X229471401Y-69618495D01*
X229638495Y-69451401D01*
X229774035Y-69257830D01*
X229873903Y-69043663D01*
X229935063Y-68815408D01*
X229955659Y-68580000D01*
X229935063Y-68344592D01*
X229873903Y-68116337D01*
X229774035Y-67902171D01*
X229638495Y-67708599D01*
X229471401Y-67541505D01*
X229285839Y-67411573D01*
X229246975Y-67367257D01*
X229232964Y-67310000D01*
X229246975Y-67252743D01*
X229285839Y-67208426D01*
X229471401Y-67078495D01*
X229638495Y-66911401D01*
X229774035Y-66717830D01*
X229873903Y-66503663D01*
X229935063Y-66275408D01*
X229955659Y-66040000D01*
X229935063Y-65804592D01*
X229873903Y-65576337D01*
X229774035Y-65362171D01*
X229638495Y-65168599D01*
X229471401Y-65001505D01*
X229285839Y-64871573D01*
X229246976Y-64827257D01*
X229232965Y-64770000D01*
X229246976Y-64712743D01*
X229285839Y-64668426D01*
X229471401Y-64538495D01*
X229638495Y-64371401D01*
X229774035Y-64177830D01*
X229873903Y-63963663D01*
X229935063Y-63735408D01*
X229955659Y-63500000D01*
X229935063Y-63264592D01*
X229873903Y-63036337D01*
X229774035Y-62822171D01*
X229638495Y-62628599D01*
X229471401Y-62461505D01*
X229285839Y-62331573D01*
X229246974Y-62287255D01*
X229232964Y-62229999D01*
X229246975Y-62172742D01*
X229285837Y-62128428D01*
X229471401Y-61998495D01*
X229638495Y-61831401D01*
X229774035Y-61637830D01*
X229873903Y-61423663D01*
X229935063Y-61195408D01*
X229955659Y-60960000D01*
X229935063Y-60724592D01*
X229873903Y-60496337D01*
X229774035Y-60282171D01*
X229638495Y-60088599D01*
X229471401Y-59921505D01*
X229285839Y-59791573D01*
X229246975Y-59747257D01*
X229232964Y-59690000D01*
X229246975Y-59632743D01*
X229285839Y-59588426D01*
X229471401Y-59458495D01*
X229638495Y-59291401D01*
X229774035Y-59097830D01*
X229873903Y-58883663D01*
X229935063Y-58655408D01*
X229955659Y-58420000D01*
X229935063Y-58184592D01*
X229873903Y-57956337D01*
X229774035Y-57742171D01*
X229638495Y-57548599D01*
X229471401Y-57381505D01*
X229285839Y-57251573D01*
X229246975Y-57207257D01*
X229232964Y-57150000D01*
X229246975Y-57092743D01*
X229285839Y-57048426D01*
X229471401Y-56918495D01*
X229638495Y-56751401D01*
X229774035Y-56557830D01*
X229873903Y-56343663D01*
X229935063Y-56115408D01*
X229955659Y-55880000D01*
X229935063Y-55644592D01*
X229873903Y-55416337D01*
X229774035Y-55202171D01*
X229638495Y-55008599D01*
X229471401Y-54841505D01*
X229277830Y-54705965D01*
X229063663Y-54606097D01*
X228949256Y-54575442D01*
X228835407Y-54544936D01*
X228600000Y-54524340D01*
X228364592Y-54544936D01*
X228136336Y-54606097D01*
X227922170Y-54705965D01*
X227728598Y-54841505D01*
X227561508Y-55008595D01*
X227561505Y-55008598D01*
X227561505Y-55008599D01*
X227496366Y-55101625D01*
X227452051Y-55140489D01*
X227394794Y-55154500D01*
X224725206Y-55154500D01*
X224667949Y-55140489D01*
X224623633Y-55101625D01*
X224558495Y-55008599D01*
X224436181Y-54886285D01*
X224404885Y-54833539D01*
X224402696Y-54772246D01*
X224430149Y-54717401D01*
X224480528Y-54682422D01*
X224612089Y-54633352D01*
X224727188Y-54547188D01*
X224813352Y-54432089D01*
X224863597Y-54297375D01*
X224870000Y-54237824D01*
X224870000Y-53590000D01*
X201850000Y-53590000D01*
X201850000Y-54237824D01*
X201856402Y-54297375D01*
X201906647Y-54432089D01*
X201992811Y-54547188D01*
X202107911Y-54633352D01*
X202239471Y-54682422D01*
X202289850Y-54717401D01*
X202317303Y-54772246D01*
X202315114Y-54833539D01*
X202283819Y-54886285D01*
X202161505Y-55008598D01*
X202131483Y-55051474D01*
X202096366Y-55101625D01*
X202052051Y-55140489D01*
X201994794Y-55154500D01*
X199325206Y-55154500D01*
X199267949Y-55140489D01*
X199223633Y-55101625D01*
X199158495Y-55008599D01*
X199036181Y-54886285D01*
X199004885Y-54833539D01*
X199002696Y-54772246D01*
X199030149Y-54717401D01*
X199080528Y-54682422D01*
X199212089Y-54633352D01*
X199327188Y-54547188D01*
X199413352Y-54432089D01*
X199463597Y-54297375D01*
X199470000Y-54237824D01*
X199470000Y-53590000D01*
X196770000Y-53590000D01*
X196770000Y-53864674D01*
X196756893Y-53920160D01*
X196720344Y-53963916D01*
X196668078Y-53986693D01*
X196611870Y-53983713D01*
X196560217Y-53981475D01*
X196550648Y-53980688D01*
X196540858Y-53979500D01*
X196540857Y-53979500D01*
X196517295Y-53979500D01*
X196511930Y-53979384D01*
X196447288Y-53976584D01*
X196444872Y-53977069D01*
X196420443Y-53979500D01*
X194514000Y-53979500D01*
X194452000Y-53962887D01*
X194406613Y-53917500D01*
X194390000Y-53855500D01*
X194390000Y-53590000D01*
X172594000Y-53590000D01*
X172532000Y-53573387D01*
X172486613Y-53528000D01*
X172470000Y-53466000D01*
X172470000Y-53214000D01*
X172486613Y-53152000D01*
X172532000Y-53106613D01*
X172594000Y-53090000D01*
X194390000Y-53090000D01*
X194390000Y-52442176D01*
X194383597Y-52382624D01*
X194333352Y-52247910D01*
X194247188Y-52132811D01*
X194132088Y-52046647D01*
X194000528Y-51997577D01*
X193950149Y-51962597D01*
X193922696Y-51907752D01*
X193924885Y-51846460D01*
X193956178Y-51793717D01*
X194078495Y-51671401D01*
X194143633Y-51578374D01*
X194187949Y-51539511D01*
X194245206Y-51525500D01*
X196914794Y-51525500D01*
X196972051Y-51539511D01*
X197016366Y-51578374D01*
X197081505Y-51671401D01*
X197081507Y-51671403D01*
X197081508Y-51671404D01*
X197203818Y-51793714D01*
X197235114Y-51846460D01*
X197237303Y-51907753D01*
X197209850Y-51962597D01*
X197159472Y-51997576D01*
X197027913Y-52046646D01*
X196912811Y-52132811D01*
X196826647Y-52247910D01*
X196776402Y-52382624D01*
X196770000Y-52442176D01*
X196770000Y-53090000D01*
X199470000Y-53090000D01*
X199470000Y-52442176D01*
X199463597Y-52382624D01*
X199413352Y-52247910D01*
X199327188Y-52132811D01*
X199212088Y-52046647D01*
X199080528Y-51997577D01*
X199030149Y-51962597D01*
X199002696Y-51907752D01*
X199004885Y-51846460D01*
X199036178Y-51793717D01*
X199158495Y-51671401D01*
X199223633Y-51578374D01*
X199267949Y-51539511D01*
X199325206Y-51525500D01*
X201994794Y-51525500D01*
X202052051Y-51539511D01*
X202096366Y-51578374D01*
X202161505Y-51671401D01*
X202161507Y-51671403D01*
X202161508Y-51671404D01*
X202283818Y-51793714D01*
X202315114Y-51846460D01*
X202317303Y-51907753D01*
X202289850Y-51962597D01*
X202239472Y-51997576D01*
X202107913Y-52046646D01*
X201992811Y-52132811D01*
X201906647Y-52247910D01*
X201856402Y-52382624D01*
X201850000Y-52442176D01*
X201850000Y-53090000D01*
X224870000Y-53090000D01*
X224870000Y-52442176D01*
X224863597Y-52382624D01*
X224813352Y-52247910D01*
X224727188Y-52132811D01*
X224612088Y-52046647D01*
X224480528Y-51997577D01*
X224430149Y-51962597D01*
X224402696Y-51907752D01*
X224404885Y-51846460D01*
X224436178Y-51793717D01*
X224558495Y-51671401D01*
X224694035Y-51477830D01*
X224793903Y-51263663D01*
X224855063Y-51035408D01*
X224875659Y-50800000D01*
X224855063Y-50564592D01*
X224793903Y-50336337D01*
X224694035Y-50122171D01*
X224558495Y-49928599D01*
X224391401Y-49761505D01*
X224205839Y-49631573D01*
X224166975Y-49587257D01*
X224152964Y-49530000D01*
X224166975Y-49472743D01*
X224205839Y-49428426D01*
X224391401Y-49298495D01*
X224558495Y-49131401D01*
X224694035Y-48937830D01*
X224793903Y-48723663D01*
X224855063Y-48495408D01*
X224875659Y-48260000D01*
X224855063Y-48024592D01*
X224793903Y-47796337D01*
X224694035Y-47582171D01*
X224558495Y-47388599D01*
X224391401Y-47221505D01*
X224205839Y-47091573D01*
X224166975Y-47047257D01*
X224152964Y-46990000D01*
X224166975Y-46932743D01*
X224205839Y-46888426D01*
X224391401Y-46758495D01*
X224558495Y-46591401D01*
X224694035Y-46397830D01*
X224793903Y-46183663D01*
X224855063Y-45955408D01*
X224875659Y-45720000D01*
X224855063Y-45484592D01*
X224793903Y-45256337D01*
X224694035Y-45042171D01*
X224558495Y-44848599D01*
X224391401Y-44681505D01*
X224197830Y-44545965D01*
X223983663Y-44446097D01*
X223923196Y-44429895D01*
X223821696Y-44402698D01*
X223771189Y-44375406D01*
X223738387Y-44328290D01*
X223730322Y-44271450D01*
X223748722Y-44217070D01*
X223789640Y-44176806D01*
X223817518Y-44159954D01*
X224079452Y-43954742D01*
X224314742Y-43719452D01*
X224519954Y-43457518D01*
X224692098Y-43172757D01*
X224828663Y-42869323D01*
X224927656Y-42551641D01*
X224987636Y-42224342D01*
X225007727Y-41892200D01*
X225000610Y-41774535D01*
X226661500Y-41774535D01*
X226700520Y-42008372D01*
X226777494Y-42232590D01*
X226777496Y-42232595D01*
X226890329Y-42441091D01*
X226890330Y-42441092D01*
X227035939Y-42628172D01*
X227106604Y-42693223D01*
X227210357Y-42788735D01*
X227408824Y-42918399D01*
X227625925Y-43013629D01*
X227855740Y-43071826D01*
X227926575Y-43077695D01*
X228032823Y-43086500D01*
X228032829Y-43086500D01*
X228151171Y-43086500D01*
X228151177Y-43086500D01*
X228247764Y-43078496D01*
X228328260Y-43071826D01*
X228558075Y-43013629D01*
X228775176Y-42918399D01*
X228973643Y-42788735D01*
X229148060Y-42628172D01*
X229293671Y-42441091D01*
X229406504Y-42232595D01*
X229483480Y-42008371D01*
X229522500Y-41774535D01*
X229522500Y-41537465D01*
X229483480Y-41303629D01*
X229406504Y-41079405D01*
X229293671Y-40870909D01*
X229231057Y-40790462D01*
X229148060Y-40683827D01*
X229047731Y-40591468D01*
X228973643Y-40523265D01*
X228858936Y-40448324D01*
X228775178Y-40393602D01*
X228775176Y-40393601D01*
X228558075Y-40298371D01*
X228328260Y-40240174D01*
X228328258Y-40240173D01*
X228328255Y-40240173D01*
X228151177Y-40225500D01*
X228151171Y-40225500D01*
X228032829Y-40225500D01*
X228032823Y-40225500D01*
X227855744Y-40240173D01*
X227625925Y-40298371D01*
X227408821Y-40393602D01*
X227210358Y-40523264D01*
X227035939Y-40683827D01*
X226890330Y-40870907D01*
X226890328Y-40870909D01*
X226890329Y-40870909D01*
X226807193Y-41024531D01*
X226777494Y-41079409D01*
X226700520Y-41303627D01*
X226661500Y-41537465D01*
X226661500Y-41774535D01*
X225000610Y-41774535D01*
X224987636Y-41560058D01*
X224927656Y-41232759D01*
X224875731Y-41066126D01*
X224828665Y-40915083D01*
X224828664Y-40915082D01*
X224828663Y-40915077D01*
X224692098Y-40611643D01*
X224593368Y-40448324D01*
X224519954Y-40326881D01*
X224399412Y-40173021D01*
X224314742Y-40064948D01*
X224079452Y-39829658D01*
X223960019Y-39736088D01*
X223817518Y-39624445D01*
X223532754Y-39452300D01*
X223499027Y-39437121D01*
X223447869Y-39394486D01*
X223426145Y-39331533D01*
X223440122Y-39266421D01*
X223485769Y-39217929D01*
X223549914Y-39200047D01*
X228948639Y-39200000D01*
X228996090Y-39209439D01*
G37*
G04 #@! TD.AperFunction*
G04 #@! TA.AperFunction,Conductor*
G36*
X141768835Y-39215920D02*
G01*
X141813724Y-39257713D01*
X141833093Y-39315906D01*
X141822204Y-39376263D01*
X141783721Y-39424019D01*
X141772454Y-39432452D01*
X141686204Y-39547668D01*
X141635909Y-39682515D01*
X141635909Y-39682517D01*
X141629878Y-39738618D01*
X141629500Y-39742130D01*
X141629500Y-41537869D01*
X141635909Y-41597484D01*
X141656027Y-41651423D01*
X141686204Y-41732331D01*
X141717798Y-41774535D01*
X141763577Y-41835688D01*
X141785476Y-41883641D01*
X141785476Y-41936356D01*
X141763578Y-41984309D01*
X141686204Y-42087669D01*
X141635909Y-42222516D01*
X141629500Y-42282130D01*
X141629500Y-44077869D01*
X141635909Y-44137484D01*
X141665294Y-44216268D01*
X141686204Y-44272331D01*
X141763891Y-44376107D01*
X141785789Y-44424057D01*
X141785789Y-44476774D01*
X141763890Y-44524726D01*
X141686648Y-44627908D01*
X141636402Y-44762624D01*
X141630000Y-44822176D01*
X141630000Y-45470000D01*
X146063337Y-45470000D01*
X146110790Y-45479439D01*
X146151018Y-45506319D01*
X147288181Y-46643482D01*
X147315061Y-46683710D01*
X147324500Y-46731163D01*
X147324500Y-54629837D01*
X147310985Y-54686132D01*
X147273385Y-54730155D01*
X147219898Y-54752310D01*
X147162182Y-54747768D01*
X147112819Y-54717518D01*
X146166818Y-53771517D01*
X146139938Y-53731289D01*
X146130499Y-53683836D01*
X146130499Y-53404386D01*
X146130971Y-53393577D01*
X146135659Y-53339999D01*
X146130971Y-53286422D01*
X146130499Y-53275613D01*
X146130499Y-52442130D01*
X146130499Y-52442127D01*
X146124091Y-52382517D01*
X146073796Y-52247669D01*
X145996421Y-52144310D01*
X145974523Y-52096358D01*
X145974523Y-52043642D01*
X145996422Y-51995689D01*
X146016832Y-51968425D01*
X146073796Y-51892331D01*
X146124091Y-51757483D01*
X146130500Y-51697873D01*
X146130499Y-50864384D01*
X146130971Y-50853576D01*
X146135659Y-50799999D01*
X146130971Y-50746422D01*
X146130499Y-50735613D01*
X146130499Y-49902130D01*
X146130499Y-49902127D01*
X146124091Y-49842517D01*
X146073796Y-49707669D01*
X145996421Y-49604310D01*
X145974523Y-49556358D01*
X145974523Y-49503642D01*
X145996422Y-49455689D01*
X146002664Y-49447351D01*
X146073796Y-49352331D01*
X146124091Y-49217483D01*
X146130500Y-49157873D01*
X146130499Y-48324384D01*
X146130971Y-48313576D01*
X146135659Y-48259999D01*
X146130971Y-48206422D01*
X146130499Y-48195613D01*
X146130499Y-47362130D01*
X146130499Y-47362127D01*
X146124091Y-47302517D01*
X146073796Y-47167669D01*
X145996108Y-47063892D01*
X145974210Y-47015940D01*
X145974210Y-46963223D01*
X145996110Y-46915270D01*
X146073352Y-46812089D01*
X146123597Y-46677375D01*
X146130000Y-46617824D01*
X146130000Y-45970000D01*
X141630000Y-45970000D01*
X141630000Y-46617824D01*
X141636402Y-46677375D01*
X141686647Y-46812089D01*
X141763890Y-46915272D01*
X141785789Y-46963225D01*
X141785789Y-47015941D01*
X141763890Y-47063894D01*
X141686204Y-47167668D01*
X141635909Y-47302516D01*
X141629500Y-47362130D01*
X141629500Y-49157869D01*
X141635909Y-49217484D01*
X141686204Y-49352332D01*
X141763577Y-49455690D01*
X141785476Y-49503642D01*
X141785476Y-49556358D01*
X141763577Y-49604310D01*
X141686205Y-49707666D01*
X141635909Y-49842516D01*
X141629500Y-49902130D01*
X141629500Y-51697869D01*
X141635909Y-51757483D01*
X141686204Y-51892331D01*
X141743168Y-51968425D01*
X141763578Y-51995689D01*
X141785477Y-52043642D01*
X141785477Y-52096358D01*
X141763578Y-52144311D01*
X141686204Y-52247668D01*
X141635909Y-52382516D01*
X141629500Y-52442130D01*
X141629500Y-54237869D01*
X141635909Y-54297484D01*
X141686204Y-54432332D01*
X141763577Y-54535690D01*
X141785476Y-54583642D01*
X141785476Y-54636358D01*
X141763577Y-54684310D01*
X141686205Y-54787666D01*
X141635909Y-54922516D01*
X141629500Y-54982130D01*
X141629500Y-56777869D01*
X141635909Y-56837484D01*
X141669095Y-56926460D01*
X141686204Y-56972331D01*
X141763891Y-57076107D01*
X141785789Y-57124057D01*
X141785789Y-57176774D01*
X141763890Y-57224726D01*
X141686648Y-57327908D01*
X141636402Y-57462624D01*
X141630000Y-57522176D01*
X141630000Y-58170000D01*
X146130000Y-58170000D01*
X146130000Y-57522176D01*
X146123597Y-57462624D01*
X146073352Y-57327911D01*
X145996109Y-57224727D01*
X145974210Y-57176774D01*
X145974210Y-57124057D01*
X145996107Y-57076109D01*
X146073796Y-56972331D01*
X146124091Y-56837483D01*
X146124091Y-56837482D01*
X146126775Y-56830287D01*
X146161754Y-56779907D01*
X146216599Y-56752454D01*
X146277892Y-56754643D01*
X146330638Y-56785939D01*
X147788181Y-58243482D01*
X147815061Y-58283710D01*
X147824500Y-58331163D01*
X147824500Y-70369837D01*
X147810985Y-70426132D01*
X147773385Y-70470155D01*
X147719898Y-70492310D01*
X147662182Y-70487768D01*
X147612819Y-70457518D01*
X146166818Y-69011517D01*
X146139938Y-68971289D01*
X146130499Y-68923836D01*
X146130499Y-68644386D01*
X146130971Y-68633577D01*
X146135659Y-68579999D01*
X146130971Y-68526422D01*
X146130499Y-68515613D01*
X146130499Y-67682130D01*
X146130499Y-67682127D01*
X146124091Y-67622517D01*
X146073796Y-67487669D01*
X145996421Y-67384310D01*
X145974523Y-67336358D01*
X145974523Y-67283642D01*
X145996422Y-67235689D01*
X146026514Y-67195491D01*
X146073796Y-67132331D01*
X146124091Y-66997483D01*
X146130500Y-66937873D01*
X146130499Y-66104384D01*
X146130971Y-66093576D01*
X146135659Y-66039999D01*
X146130971Y-65986422D01*
X146130499Y-65975613D01*
X146130499Y-65142130D01*
X146130499Y-65142127D01*
X146124091Y-65082517D01*
X146073796Y-64947669D01*
X145996420Y-64844308D01*
X145974522Y-64796357D01*
X145974522Y-64743640D01*
X145996419Y-64695692D01*
X146073796Y-64592331D01*
X146124091Y-64457483D01*
X146130500Y-64397873D01*
X146130499Y-63564384D01*
X146130971Y-63553576D01*
X146135659Y-63499999D01*
X146130971Y-63446422D01*
X146130499Y-63435613D01*
X146130499Y-62602130D01*
X146128981Y-62588007D01*
X146124091Y-62542517D01*
X146073796Y-62407669D01*
X146073795Y-62407667D01*
X145996422Y-62304309D01*
X145974523Y-62256357D01*
X145974523Y-62203640D01*
X145996420Y-62155691D01*
X146073796Y-62052331D01*
X146124091Y-61917483D01*
X146130500Y-61857873D01*
X146130499Y-61024384D01*
X146130971Y-61013576D01*
X146135659Y-60959999D01*
X146130971Y-60906422D01*
X146130499Y-60895613D01*
X146130499Y-60062130D01*
X146130499Y-60062127D01*
X146124091Y-60002517D01*
X146073796Y-59867669D01*
X145996108Y-59763892D01*
X145974210Y-59715940D01*
X145974210Y-59663223D01*
X145996110Y-59615270D01*
X146073352Y-59512089D01*
X146123597Y-59377375D01*
X146130000Y-59317824D01*
X146130000Y-58670000D01*
X141630000Y-58670000D01*
X141630000Y-59317824D01*
X141636402Y-59377375D01*
X141686647Y-59512089D01*
X141763890Y-59615272D01*
X141785789Y-59663225D01*
X141785789Y-59715941D01*
X141763890Y-59763894D01*
X141686204Y-59867668D01*
X141635909Y-60002516D01*
X141629500Y-60062130D01*
X141629500Y-61857869D01*
X141635909Y-61917483D01*
X141686204Y-62052331D01*
X141737162Y-62120402D01*
X141763577Y-62155688D01*
X141785476Y-62203641D01*
X141785476Y-62256356D01*
X141763578Y-62304309D01*
X141686204Y-62407669D01*
X141635909Y-62542516D01*
X141629500Y-62602131D01*
X141629500Y-62700500D01*
X141612887Y-62762500D01*
X141567500Y-62807887D01*
X141505500Y-62824500D01*
X140940216Y-62824500D01*
X140882959Y-62810489D01*
X140838641Y-62771623D01*
X140822981Y-62749258D01*
X140738495Y-62628599D01*
X140571401Y-62461505D01*
X140385839Y-62331573D01*
X140346974Y-62287255D01*
X140332964Y-62229999D01*
X140346975Y-62172742D01*
X140385837Y-62128428D01*
X140571401Y-61998495D01*
X140738495Y-61831401D01*
X140874035Y-61637830D01*
X140973903Y-61423663D01*
X141035063Y-61195408D01*
X141055659Y-60960000D01*
X141035063Y-60724592D01*
X140973903Y-60496337D01*
X140874035Y-60282171D01*
X140738495Y-60088599D01*
X140616180Y-59966284D01*
X140584885Y-59913539D01*
X140582696Y-59852246D01*
X140610149Y-59797401D01*
X140660528Y-59762422D01*
X140792089Y-59713352D01*
X140907188Y-59627188D01*
X140993352Y-59512089D01*
X141043597Y-59377375D01*
X141050000Y-59317824D01*
X141050000Y-58670000D01*
X138350000Y-58670000D01*
X138350000Y-59317824D01*
X138356402Y-59377375D01*
X138406647Y-59512089D01*
X138492811Y-59627188D01*
X138607911Y-59713352D01*
X138739471Y-59762422D01*
X138789850Y-59797401D01*
X138817303Y-59852246D01*
X138815114Y-59913539D01*
X138783819Y-59966285D01*
X138661503Y-60088601D01*
X138525965Y-60282170D01*
X138426097Y-60496336D01*
X138364936Y-60724592D01*
X138344340Y-60959999D01*
X138364936Y-61195407D01*
X138376913Y-61240105D01*
X138426097Y-61423663D01*
X138525965Y-61637830D01*
X138661505Y-61831401D01*
X138828599Y-61998495D01*
X139014160Y-62128426D01*
X139053024Y-62172743D01*
X139067035Y-62230000D01*
X139053024Y-62287257D01*
X139014159Y-62331575D01*
X138828595Y-62461508D01*
X138661505Y-62628598D01*
X138525965Y-62822170D01*
X138426097Y-63036336D01*
X138364936Y-63264592D01*
X138344340Y-63500000D01*
X138364936Y-63735407D01*
X138394112Y-63844292D01*
X138426097Y-63963663D01*
X138525965Y-64177830D01*
X138661505Y-64371401D01*
X138828599Y-64538495D01*
X139014160Y-64668426D01*
X139053024Y-64712743D01*
X139067035Y-64770000D01*
X139053024Y-64827257D01*
X139014159Y-64871575D01*
X138828595Y-65001508D01*
X138661505Y-65168598D01*
X138525965Y-65362170D01*
X138426097Y-65576336D01*
X138364936Y-65804592D01*
X138344340Y-66039999D01*
X138364936Y-66275407D01*
X138401855Y-66413191D01*
X138426097Y-66503663D01*
X138525965Y-66717830D01*
X138661505Y-66911401D01*
X138828599Y-67078495D01*
X139014160Y-67208426D01*
X139053024Y-67252743D01*
X139067035Y-67310000D01*
X139053024Y-67367257D01*
X139014158Y-67411575D01*
X138860369Y-67519260D01*
X138828595Y-67541508D01*
X138661505Y-67708598D01*
X138525965Y-67902170D01*
X138426097Y-68116336D01*
X138364936Y-68344592D01*
X138344340Y-68579999D01*
X138364936Y-68815407D01*
X138376913Y-68860105D01*
X138426097Y-69043663D01*
X138525965Y-69257830D01*
X138661505Y-69451401D01*
X138661507Y-69451403D01*
X138661508Y-69451404D01*
X138783818Y-69573714D01*
X138815114Y-69626460D01*
X138817303Y-69687753D01*
X138789850Y-69742597D01*
X138739472Y-69777576D01*
X138607913Y-69826646D01*
X138492811Y-69912811D01*
X138406647Y-70027910D01*
X138356402Y-70162624D01*
X138350000Y-70222176D01*
X138350000Y-70870000D01*
X141050000Y-70870000D01*
X141050000Y-70222176D01*
X141043597Y-70162624D01*
X140993352Y-70027910D01*
X140907188Y-69912811D01*
X140792088Y-69826647D01*
X140660528Y-69777577D01*
X140610149Y-69742597D01*
X140582696Y-69687752D01*
X140584885Y-69626460D01*
X140616178Y-69573717D01*
X140738495Y-69451401D01*
X140838642Y-69308375D01*
X140882960Y-69269511D01*
X140940217Y-69255500D01*
X141505501Y-69255500D01*
X141567501Y-69272113D01*
X141612888Y-69317500D01*
X141629501Y-69379500D01*
X141629501Y-69477872D01*
X141635909Y-69537483D01*
X141686204Y-69672331D01*
X141763891Y-69776107D01*
X141785789Y-69824057D01*
X141785789Y-69876774D01*
X141763890Y-69924726D01*
X141686648Y-70027908D01*
X141636402Y-70162624D01*
X141630000Y-70222176D01*
X141630000Y-70870000D01*
X146063337Y-70870000D01*
X146110790Y-70879439D01*
X146151018Y-70906319D01*
X146788181Y-71543482D01*
X146815061Y-71583710D01*
X146824500Y-71631163D01*
X146824500Y-74069836D01*
X146810985Y-74126131D01*
X146773385Y-74170154D01*
X146719898Y-74192309D01*
X146662182Y-74187767D01*
X146612819Y-74157517D01*
X146169524Y-73714222D01*
X146144823Y-73678946D01*
X146133677Y-73637349D01*
X146130971Y-73606421D01*
X146130499Y-73595613D01*
X146130499Y-72762130D01*
X146130499Y-72762127D01*
X146124091Y-72702517D01*
X146073796Y-72567669D01*
X145996108Y-72463892D01*
X145974210Y-72415940D01*
X145974210Y-72363223D01*
X145996110Y-72315270D01*
X146073352Y-72212089D01*
X146123597Y-72077375D01*
X146130000Y-72017824D01*
X146130000Y-71370000D01*
X141630000Y-71370000D01*
X141630000Y-72017824D01*
X141636402Y-72077375D01*
X141686647Y-72212089D01*
X141763890Y-72315272D01*
X141785789Y-72363225D01*
X141785789Y-72415941D01*
X141763890Y-72463894D01*
X141686204Y-72567668D01*
X141635909Y-72702516D01*
X141629500Y-72762131D01*
X141629500Y-72860500D01*
X141612887Y-72922500D01*
X141567500Y-72967887D01*
X141505500Y-72984500D01*
X140940216Y-72984500D01*
X140882959Y-72970489D01*
X140838641Y-72931623D01*
X140829023Y-72917887D01*
X140738495Y-72788599D01*
X140616181Y-72666284D01*
X140584885Y-72613539D01*
X140582696Y-72552246D01*
X140610149Y-72497401D01*
X140660528Y-72462422D01*
X140792089Y-72413352D01*
X140907188Y-72327188D01*
X140993352Y-72212089D01*
X141043597Y-72077375D01*
X141050000Y-72017824D01*
X141050000Y-71370000D01*
X138350000Y-71370000D01*
X138350000Y-72017824D01*
X138356402Y-72077375D01*
X138406647Y-72212089D01*
X138492811Y-72327188D01*
X138607911Y-72413352D01*
X138739471Y-72462422D01*
X138789850Y-72497401D01*
X138817303Y-72552246D01*
X138815114Y-72613539D01*
X138783819Y-72666285D01*
X138661503Y-72788601D01*
X138525965Y-72982170D01*
X138426097Y-73196336D01*
X138364936Y-73424592D01*
X138344340Y-73660000D01*
X138364936Y-73895407D01*
X138376913Y-73940105D01*
X138426097Y-74123663D01*
X138525965Y-74337830D01*
X138661505Y-74531401D01*
X138828599Y-74698495D01*
X139014160Y-74828426D01*
X139053024Y-74872743D01*
X139067035Y-74930000D01*
X139053024Y-74987257D01*
X139014158Y-75031575D01*
X138905490Y-75107666D01*
X138828595Y-75161508D01*
X138661505Y-75328598D01*
X138525965Y-75522170D01*
X138426097Y-75736336D01*
X138364936Y-75964592D01*
X138344340Y-76199999D01*
X138364936Y-76435407D01*
X138394112Y-76544292D01*
X138426097Y-76663663D01*
X138525965Y-76877830D01*
X138661505Y-77071401D01*
X138828599Y-77238495D01*
X139014160Y-77368426D01*
X139053024Y-77412743D01*
X139067035Y-77470000D01*
X139053024Y-77527257D01*
X139014158Y-77571575D01*
X138905490Y-77647666D01*
X138828595Y-77701508D01*
X138661505Y-77868598D01*
X138525965Y-78062170D01*
X138426097Y-78276336D01*
X138364936Y-78504592D01*
X138344340Y-78739999D01*
X138364936Y-78975407D01*
X138388651Y-79063912D01*
X138426097Y-79203663D01*
X138525965Y-79417830D01*
X138661505Y-79611401D01*
X138828599Y-79778495D01*
X139014160Y-79908426D01*
X139053024Y-79952743D01*
X139067035Y-80010000D01*
X139053024Y-80067257D01*
X139014158Y-80111575D01*
X138905490Y-80187666D01*
X138828595Y-80241508D01*
X138661505Y-80408598D01*
X138525965Y-80602170D01*
X138426097Y-80816336D01*
X138364936Y-81044592D01*
X138344340Y-81280000D01*
X138364936Y-81515407D01*
X138376913Y-81560105D01*
X138426097Y-81743663D01*
X138525965Y-81957830D01*
X138661505Y-82151401D01*
X138661508Y-82151404D01*
X138783818Y-82273714D01*
X138815114Y-82326460D01*
X138817303Y-82387753D01*
X138789850Y-82442597D01*
X138739472Y-82477576D01*
X138607913Y-82526646D01*
X138492811Y-82612811D01*
X138406647Y-82727910D01*
X138356402Y-82862624D01*
X138350000Y-82922176D01*
X138350000Y-83570000D01*
X141050000Y-83570000D01*
X141050000Y-82922176D01*
X141043597Y-82862624D01*
X140993352Y-82727910D01*
X140907188Y-82612811D01*
X140792088Y-82526647D01*
X140660528Y-82477577D01*
X140610149Y-82442597D01*
X140582696Y-82387752D01*
X140584885Y-82326460D01*
X140616178Y-82273717D01*
X140738495Y-82151401D01*
X140838642Y-82008375D01*
X140882960Y-81969511D01*
X140940217Y-81955500D01*
X141505501Y-81955500D01*
X141567501Y-81972113D01*
X141612888Y-82017500D01*
X141629501Y-82079500D01*
X141629501Y-82177872D01*
X141635909Y-82237483D01*
X141686204Y-82372331D01*
X141763891Y-82476107D01*
X141785789Y-82524057D01*
X141785789Y-82576774D01*
X141763890Y-82624726D01*
X141686648Y-82727908D01*
X141636402Y-82862624D01*
X141630000Y-82922176D01*
X141630000Y-83570000D01*
X144006000Y-83570000D01*
X144068000Y-83586613D01*
X144113387Y-83632000D01*
X144130000Y-83694000D01*
X144130000Y-83946000D01*
X144113387Y-84008000D01*
X144068000Y-84053387D01*
X144006000Y-84070000D01*
X141630000Y-84070000D01*
X141630000Y-84717824D01*
X141636402Y-84777375D01*
X141686647Y-84912089D01*
X141763890Y-85015272D01*
X141785789Y-85063225D01*
X141785789Y-85115941D01*
X141763890Y-85163894D01*
X141686204Y-85267668D01*
X141635909Y-85402516D01*
X141629500Y-85462131D01*
X141629500Y-85560500D01*
X141612887Y-85622500D01*
X141567500Y-85667887D01*
X141505500Y-85684500D01*
X140940216Y-85684500D01*
X140882959Y-85670489D01*
X140838641Y-85631623D01*
X140807532Y-85587194D01*
X140738495Y-85488599D01*
X140616181Y-85366284D01*
X140584885Y-85313539D01*
X140582696Y-85252246D01*
X140610149Y-85197401D01*
X140660528Y-85162422D01*
X140792089Y-85113352D01*
X140907188Y-85027188D01*
X140993352Y-84912089D01*
X141043597Y-84777375D01*
X141050000Y-84717824D01*
X141050000Y-84070000D01*
X138350000Y-84070000D01*
X138350000Y-84717824D01*
X138356402Y-84777375D01*
X138406647Y-84912089D01*
X138492811Y-85027188D01*
X138607911Y-85113352D01*
X138739471Y-85162422D01*
X138789850Y-85197401D01*
X138817303Y-85252246D01*
X138815114Y-85313539D01*
X138783819Y-85366285D01*
X138661503Y-85488601D01*
X138525965Y-85682170D01*
X138426097Y-85896336D01*
X138364936Y-86124592D01*
X138344340Y-86360000D01*
X138364936Y-86595407D01*
X138409709Y-86762502D01*
X138426097Y-86823663D01*
X138525965Y-87037830D01*
X138661505Y-87231401D01*
X138828599Y-87398495D01*
X139014160Y-87528426D01*
X139053024Y-87572743D01*
X139067035Y-87630000D01*
X139053024Y-87687257D01*
X139014158Y-87731575D01*
X138905490Y-87807666D01*
X138828595Y-87861508D01*
X138661505Y-88028598D01*
X138525965Y-88222170D01*
X138426097Y-88436336D01*
X138364936Y-88664592D01*
X138344340Y-88899999D01*
X138364936Y-89135407D01*
X138403642Y-89279858D01*
X138426097Y-89363663D01*
X138525965Y-89577830D01*
X138661505Y-89771401D01*
X138828599Y-89938495D01*
X139022170Y-90074035D01*
X139236337Y-90173903D01*
X139464592Y-90235063D01*
X139699999Y-90255659D01*
X139699999Y-90255658D01*
X139700000Y-90255659D01*
X139935408Y-90235063D01*
X140163663Y-90173903D01*
X140377830Y-90074035D01*
X140571401Y-89938495D01*
X140738495Y-89771401D01*
X140838642Y-89628375D01*
X140882960Y-89589511D01*
X140940217Y-89575500D01*
X141505501Y-89575500D01*
X141567501Y-89592113D01*
X141612888Y-89637500D01*
X141629501Y-89699500D01*
X141629501Y-89797870D01*
X141635909Y-89857484D01*
X141652814Y-89902807D01*
X141686204Y-89992331D01*
X141772454Y-90107546D01*
X141887669Y-90193796D01*
X142022517Y-90244091D01*
X142082127Y-90250500D01*
X144715611Y-90250499D01*
X144726420Y-90250971D01*
X144779999Y-90255659D01*
X144779999Y-90255658D01*
X144780000Y-90255659D01*
X144833580Y-90250970D01*
X144844389Y-90250499D01*
X145677870Y-90250499D01*
X145677872Y-90250499D01*
X145737483Y-90244091D01*
X145872331Y-90193796D01*
X145987546Y-90107546D01*
X146073796Y-89992331D01*
X146084318Y-89964117D01*
X146124780Y-89909257D01*
X146188126Y-89884072D01*
X146255212Y-89896176D01*
X146305762Y-89941910D01*
X146324500Y-90007453D01*
X146324500Y-90034720D01*
X146305494Y-90100692D01*
X146277649Y-90145007D01*
X146274211Y-90150478D01*
X146239212Y-90250499D01*
X146214631Y-90320748D01*
X146194434Y-90500000D01*
X146214631Y-90679251D01*
X146214631Y-90679253D01*
X146214632Y-90679255D01*
X146274211Y-90849522D01*
X146274212Y-90849523D01*
X146370185Y-91002264D01*
X146497735Y-91129814D01*
X146497737Y-91129815D01*
X146497738Y-91129816D01*
X146650478Y-91225789D01*
X146820745Y-91285368D01*
X147000000Y-91305565D01*
X147186616Y-91284539D01*
X147254302Y-91296039D01*
X147305494Y-91341787D01*
X147324500Y-91407759D01*
X147324500Y-91475849D01*
X147324274Y-91483336D01*
X147320780Y-91541087D01*
X147331207Y-91597987D01*
X147332334Y-91605386D01*
X147339312Y-91662847D01*
X147342636Y-91671612D01*
X147348660Y-91693223D01*
X147350348Y-91702436D01*
X147362643Y-91729754D01*
X147374101Y-91755215D01*
X147376960Y-91762117D01*
X147397482Y-91816227D01*
X147402804Y-91823938D01*
X147413824Y-91843476D01*
X147417673Y-91852026D01*
X147417674Y-91852028D01*
X147422824Y-91858601D01*
X147453360Y-91897577D01*
X147457800Y-91903611D01*
X147490668Y-91951229D01*
X147533989Y-91989608D01*
X147539426Y-91994727D01*
X151505279Y-95960581D01*
X151510421Y-95966044D01*
X151512305Y-95968171D01*
X151539921Y-96020887D01*
X151539796Y-96080400D01*
X151511956Y-96132999D01*
X151462816Y-96166570D01*
X151439671Y-96175202D01*
X151324454Y-96261454D01*
X151238204Y-96376668D01*
X151187909Y-96511516D01*
X151181500Y-96571131D01*
X151181500Y-97289795D01*
X151167296Y-97347422D01*
X151127937Y-97391847D01*
X151112062Y-97402804D01*
X151092524Y-97413824D01*
X151083973Y-97417673D01*
X151038417Y-97453363D01*
X151032387Y-97457800D01*
X150984770Y-97490668D01*
X150946406Y-97533972D01*
X150941273Y-97539424D01*
X144092995Y-104387702D01*
X144048232Y-104416357D01*
X143995584Y-104423639D01*
X143981291Y-104422514D01*
X143939107Y-104411506D01*
X143903340Y-104386577D01*
X136711819Y-97195056D01*
X136684939Y-97154828D01*
X136675500Y-97107375D01*
X136675500Y-54831163D01*
X136684939Y-54783710D01*
X136711819Y-54743482D01*
X137023212Y-54432089D01*
X138137883Y-53317416D01*
X138198723Y-53284038D01*
X138267972Y-53288577D01*
X138323938Y-53329612D01*
X138349090Y-53394291D01*
X138364936Y-53575407D01*
X138393990Y-53683836D01*
X138426097Y-53803663D01*
X138525965Y-54017830D01*
X138661505Y-54211401D01*
X138828599Y-54378495D01*
X139014160Y-54508426D01*
X139053024Y-54552743D01*
X139067035Y-54610000D01*
X139053024Y-54667257D01*
X139014159Y-54711575D01*
X139002700Y-54719599D01*
X138905490Y-54787666D01*
X138828595Y-54841508D01*
X138661505Y-55008598D01*
X138525965Y-55202170D01*
X138426097Y-55416336D01*
X138364936Y-55644592D01*
X138344340Y-55880000D01*
X138364936Y-56115407D01*
X138409709Y-56282502D01*
X138426097Y-56343663D01*
X138525965Y-56557830D01*
X138661505Y-56751401D01*
X138661508Y-56751404D01*
X138783818Y-56873714D01*
X138815114Y-56926460D01*
X138817303Y-56987753D01*
X138789850Y-57042597D01*
X138739472Y-57077576D01*
X138607913Y-57126646D01*
X138492811Y-57212811D01*
X138406647Y-57327910D01*
X138356402Y-57462624D01*
X138350000Y-57522176D01*
X138350000Y-58170000D01*
X141050000Y-58170000D01*
X141050000Y-57522176D01*
X141043597Y-57462624D01*
X140993352Y-57327910D01*
X140907188Y-57212811D01*
X140792088Y-57126647D01*
X140660528Y-57077577D01*
X140610149Y-57042597D01*
X140582696Y-56987752D01*
X140584885Y-56926460D01*
X140616178Y-56873717D01*
X140738495Y-56751401D01*
X140874035Y-56557830D01*
X140973903Y-56343663D01*
X141035063Y-56115408D01*
X141055659Y-55880000D01*
X141035063Y-55644592D01*
X140973903Y-55416337D01*
X140874035Y-55202171D01*
X140738495Y-55008599D01*
X140571401Y-54841505D01*
X140385839Y-54711573D01*
X140346974Y-54667255D01*
X140332964Y-54609999D01*
X140346975Y-54552742D01*
X140385837Y-54508428D01*
X140571401Y-54378495D01*
X140738495Y-54211401D01*
X140874035Y-54017830D01*
X140973903Y-53803663D01*
X141035063Y-53575408D01*
X141055659Y-53340000D01*
X141035063Y-53104592D01*
X140973903Y-52876337D01*
X140874035Y-52662171D01*
X140738495Y-52468599D01*
X140571401Y-52301505D01*
X140385839Y-52171573D01*
X140346975Y-52127257D01*
X140332964Y-52070000D01*
X140346975Y-52012743D01*
X140385839Y-51968426D01*
X140571401Y-51838495D01*
X140738495Y-51671401D01*
X140874035Y-51477830D01*
X140973903Y-51263663D01*
X141035063Y-51035408D01*
X141055659Y-50800000D01*
X141035063Y-50564592D01*
X140973903Y-50336337D01*
X140874035Y-50122171D01*
X140738495Y-49928599D01*
X140571401Y-49761505D01*
X140385839Y-49631573D01*
X140346975Y-49587257D01*
X140332964Y-49530000D01*
X140346975Y-49472743D01*
X140385839Y-49428426D01*
X140571401Y-49298495D01*
X140738495Y-49131401D01*
X140874035Y-48937830D01*
X140973903Y-48723663D01*
X141035063Y-48495408D01*
X141055659Y-48260000D01*
X141035063Y-48024592D01*
X140973903Y-47796337D01*
X140874035Y-47582171D01*
X140738495Y-47388599D01*
X140616181Y-47266285D01*
X140584885Y-47213539D01*
X140582696Y-47152246D01*
X140610149Y-47097401D01*
X140660528Y-47062422D01*
X140792089Y-47013352D01*
X140907188Y-46927188D01*
X140993352Y-46812089D01*
X141043597Y-46677375D01*
X141050000Y-46617824D01*
X141050000Y-45970000D01*
X138350000Y-45970000D01*
X138350000Y-46617824D01*
X138356402Y-46677375D01*
X138406647Y-46812089D01*
X138492811Y-46927188D01*
X138607911Y-47013352D01*
X138739471Y-47062422D01*
X138789850Y-47097401D01*
X138817303Y-47152246D01*
X138815114Y-47213539D01*
X138783819Y-47266285D01*
X138661503Y-47388601D01*
X138525965Y-47582170D01*
X138426097Y-47796336D01*
X138364936Y-48024592D01*
X138344340Y-48259999D01*
X138364936Y-48495406D01*
X138376913Y-48540104D01*
X138376913Y-48604291D01*
X138344819Y-48659878D01*
X135788179Y-51216520D01*
X135738816Y-51246770D01*
X135681100Y-51251312D01*
X135627613Y-51229157D01*
X135590013Y-51185134D01*
X135576498Y-51128839D01*
X135576498Y-46930165D01*
X135585937Y-46882712D01*
X135612817Y-46842484D01*
X136118431Y-46336870D01*
X136644904Y-45810396D01*
X136691624Y-45781039D01*
X136849522Y-45725789D01*
X137002262Y-45629816D01*
X137129816Y-45502262D01*
X137225789Y-45349522D01*
X137285368Y-45179255D01*
X137305565Y-45000000D01*
X137285368Y-44820745D01*
X137225789Y-44650478D01*
X137129816Y-44497738D01*
X137129815Y-44497737D01*
X137129814Y-44497735D01*
X137002264Y-44370185D01*
X136934289Y-44327474D01*
X136849522Y-44274211D01*
X136679255Y-44214632D01*
X136679253Y-44214631D01*
X136679251Y-44214631D01*
X136499999Y-44194434D01*
X136320748Y-44214631D01*
X136320745Y-44214631D01*
X136320745Y-44214632D01*
X136150478Y-44274211D01*
X136150476Y-44274211D01*
X136150476Y-44274212D01*
X135997735Y-44370185D01*
X135870185Y-44497735D01*
X135774209Y-44650480D01*
X135718962Y-44808368D01*
X135689602Y-44855094D01*
X134440422Y-46104275D01*
X134434970Y-46109408D01*
X134391666Y-46147772D01*
X134358798Y-46195389D01*
X134354361Y-46201419D01*
X134318671Y-46246975D01*
X134314822Y-46255526D01*
X134303805Y-46275060D01*
X134298479Y-46282777D01*
X134277963Y-46336870D01*
X134275100Y-46343784D01*
X134251347Y-46396564D01*
X134249659Y-46405778D01*
X134243636Y-46427385D01*
X134240308Y-46436159D01*
X134233331Y-46493614D01*
X134232205Y-46501013D01*
X134221778Y-46557914D01*
X134225272Y-46615666D01*
X134225498Y-46623153D01*
X134225498Y-97876847D01*
X134225272Y-97884334D01*
X134221778Y-97942085D01*
X134232205Y-97998985D01*
X134233332Y-98006384D01*
X134240310Y-98063845D01*
X134243634Y-98072610D01*
X134249658Y-98094221D01*
X134251346Y-98103434D01*
X134255570Y-98112819D01*
X134275099Y-98156213D01*
X134277958Y-98163115D01*
X134298480Y-98217225D01*
X134303802Y-98224936D01*
X134314822Y-98244474D01*
X134318671Y-98253024D01*
X134318672Y-98253026D01*
X134333243Y-98271624D01*
X134354358Y-98298575D01*
X134358798Y-98304609D01*
X134391666Y-98352227D01*
X134434987Y-98390606D01*
X134440424Y-98395725D01*
X140332771Y-104288073D01*
X140362405Y-104335588D01*
X140368112Y-104391295D01*
X140348730Y-104443833D01*
X140308211Y-104482486D01*
X140188442Y-104553317D01*
X140072317Y-104669442D01*
X139988717Y-104810802D01*
X139942900Y-104968506D01*
X139940000Y-105005361D01*
X139940000Y-105446000D01*
X140815500Y-105446000D01*
X140877500Y-105462613D01*
X140922887Y-105508000D01*
X140939500Y-105570000D01*
X140939500Y-106386692D01*
X140942402Y-106423572D01*
X140985076Y-106570453D01*
X140990000Y-106605048D01*
X140990000Y-106968295D01*
X140992488Y-106968099D01*
X141150201Y-106922280D01*
X141176387Y-106906794D01*
X141239508Y-106889525D01*
X141302630Y-106906793D01*
X141329602Y-106922744D01*
X141487427Y-106968597D01*
X141487431Y-106968598D01*
X141524306Y-106971500D01*
X141955692Y-106971500D01*
X141955694Y-106971500D01*
X141992569Y-106968598D01*
X142150398Y-106922744D01*
X142176877Y-106907083D01*
X142239998Y-106889815D01*
X142303120Y-106907083D01*
X142329602Y-106922744D01*
X142487427Y-106968597D01*
X142487431Y-106968598D01*
X142498707Y-106969485D01*
X142540891Y-106980493D01*
X142576659Y-107005422D01*
X143031809Y-107460572D01*
X143036944Y-107466027D01*
X143075308Y-107509332D01*
X143122927Y-107542200D01*
X143128960Y-107546639D01*
X143174510Y-107582326D01*
X143183061Y-107586174D01*
X143202597Y-107597193D01*
X143210312Y-107602518D01*
X143264421Y-107623039D01*
X143271336Y-107625903D01*
X143324099Y-107649650D01*
X143333295Y-107651335D01*
X143333306Y-107651337D01*
X143354926Y-107657364D01*
X143363689Y-107660687D01*
X143363691Y-107660687D01*
X143363693Y-107660688D01*
X143421155Y-107667665D01*
X143428520Y-107668785D01*
X143485453Y-107679219D01*
X143543202Y-107675726D01*
X143550689Y-107675500D01*
X144475849Y-107675500D01*
X144483335Y-107675726D01*
X144541084Y-107679219D01*
X144541084Y-107679218D01*
X144541085Y-107679219D01*
X144597997Y-107668789D01*
X144605396Y-107667663D01*
X144662845Y-107660688D01*
X144671608Y-107657364D01*
X144693222Y-107651338D01*
X144702439Y-107649650D01*
X144702443Y-107649648D01*
X144702444Y-107649648D01*
X144744242Y-107630835D01*
X144755208Y-107625900D01*
X144762122Y-107623036D01*
X144816226Y-107602518D01*
X144823933Y-107597197D01*
X144843484Y-107586171D01*
X144852028Y-107582326D01*
X144897609Y-107546613D01*
X144903581Y-107542219D01*
X144951229Y-107509332D01*
X144989610Y-107466007D01*
X144994711Y-107460588D01*
X150099272Y-102356028D01*
X150145993Y-102326671D01*
X150200832Y-102320493D01*
X150252920Y-102338719D01*
X150291942Y-102377741D01*
X150370184Y-102502263D01*
X150497735Y-102629814D01*
X150497737Y-102629815D01*
X150497738Y-102629816D01*
X150650478Y-102725789D01*
X150820745Y-102785368D01*
X151000000Y-102805565D01*
X151179255Y-102785368D01*
X151349522Y-102725789D01*
X151399308Y-102694505D01*
X151465280Y-102675500D01*
X162975849Y-102675500D01*
X162983335Y-102675726D01*
X163041084Y-102679219D01*
X163041084Y-102679218D01*
X163041085Y-102679219D01*
X163097997Y-102668789D01*
X163105396Y-102667663D01*
X163162845Y-102660688D01*
X163171608Y-102657364D01*
X163193222Y-102651338D01*
X163202439Y-102649650D01*
X163202443Y-102649648D01*
X163202444Y-102649648D01*
X163255207Y-102625901D01*
X163262122Y-102623036D01*
X163316226Y-102602518D01*
X163323933Y-102597197D01*
X163343484Y-102586171D01*
X163352028Y-102582326D01*
X163397609Y-102546613D01*
X163403581Y-102542219D01*
X163451229Y-102509332D01*
X163489610Y-102466007D01*
X163494711Y-102460588D01*
X166243481Y-99711819D01*
X166283710Y-99684939D01*
X166331163Y-99675500D01*
X171437904Y-99675500D01*
X171504559Y-99694939D01*
X171536403Y-99731281D01*
X171539743Y-99728943D01*
X171545963Y-99737826D01*
X171545965Y-99737830D01*
X171681505Y-99931401D01*
X171848599Y-100098495D01*
X172034160Y-100228426D01*
X172073024Y-100272743D01*
X172087035Y-100330000D01*
X172073024Y-100387257D01*
X172034159Y-100431575D01*
X171848595Y-100561508D01*
X171681505Y-100728598D01*
X171545965Y-100922170D01*
X171446097Y-101136336D01*
X171384936Y-101364592D01*
X171364340Y-101600000D01*
X171384936Y-101835407D01*
X171429709Y-102002501D01*
X171446097Y-102063663D01*
X171545965Y-102277830D01*
X171681505Y-102471401D01*
X171848599Y-102638495D01*
X172034160Y-102768426D01*
X172073024Y-102812743D01*
X172087035Y-102870000D01*
X172073024Y-102927257D01*
X172034159Y-102971575D01*
X171848595Y-103101508D01*
X171681505Y-103268598D01*
X171545965Y-103462170D01*
X171446097Y-103676336D01*
X171384936Y-103904592D01*
X171364340Y-104140000D01*
X171384936Y-104375407D01*
X171397860Y-104423639D01*
X171446097Y-104603663D01*
X171545965Y-104817830D01*
X171681505Y-105011401D01*
X171848599Y-105178495D01*
X172034160Y-105308426D01*
X172073024Y-105352743D01*
X172087035Y-105410000D01*
X172073024Y-105467257D01*
X172034159Y-105511575D01*
X171848595Y-105641508D01*
X171681505Y-105808598D01*
X171545965Y-106002170D01*
X171446097Y-106216336D01*
X171384936Y-106444592D01*
X171364340Y-106679999D01*
X171384936Y-106915407D01*
X171402376Y-106980493D01*
X171446097Y-107143663D01*
X171545965Y-107357830D01*
X171681505Y-107551401D01*
X171848599Y-107718495D01*
X172034160Y-107848426D01*
X172073024Y-107892743D01*
X172087035Y-107950000D01*
X172073024Y-108007257D01*
X172034158Y-108051575D01*
X171849321Y-108181000D01*
X171848595Y-108181508D01*
X171681505Y-108348598D01*
X171545965Y-108542170D01*
X171446097Y-108756336D01*
X171384936Y-108984592D01*
X171364340Y-109219999D01*
X171384936Y-109455407D01*
X171413398Y-109561628D01*
X171446097Y-109683663D01*
X171545965Y-109897830D01*
X171681505Y-110091401D01*
X171848599Y-110258495D01*
X171871350Y-110274426D01*
X171911677Y-110321642D01*
X171924057Y-110382489D01*
X171905385Y-110441710D01*
X171860343Y-110484453D01*
X171800227Y-110500000D01*
X146254420Y-110500000D01*
X146188812Y-110481222D01*
X146143075Y-110430575D01*
X146131062Y-110363398D01*
X146135327Y-110321642D01*
X146140500Y-110271009D01*
X146140499Y-108870992D01*
X146129999Y-108768203D01*
X146074814Y-108601666D01*
X145982712Y-108452344D01*
X145982711Y-108452342D01*
X145858657Y-108328288D01*
X145709334Y-108236186D01*
X145542797Y-108181000D01*
X145440009Y-108170500D01*
X144639991Y-108170500D01*
X144537203Y-108181000D01*
X144370665Y-108236186D01*
X144221342Y-108328288D01*
X144097288Y-108452342D01*
X144005186Y-108601665D01*
X143950000Y-108768202D01*
X143939500Y-108870990D01*
X143939500Y-110271008D01*
X143948939Y-110363399D01*
X143936925Y-110430575D01*
X143891189Y-110481222D01*
X143825581Y-110500000D01*
X140654420Y-110500000D01*
X140588812Y-110481222D01*
X140543075Y-110430575D01*
X140531062Y-110363398D01*
X140535327Y-110321642D01*
X140540500Y-110271009D01*
X140540499Y-108870992D01*
X140529999Y-108768203D01*
X140474814Y-108601666D01*
X140382712Y-108452344D01*
X140382711Y-108452342D01*
X140258657Y-108328288D01*
X140109334Y-108236186D01*
X139942797Y-108181000D01*
X139840009Y-108170500D01*
X139039991Y-108170500D01*
X138937203Y-108181000D01*
X138770665Y-108236186D01*
X138621342Y-108328288D01*
X138497288Y-108452342D01*
X138405186Y-108601665D01*
X138350000Y-108768202D01*
X138339500Y-108870990D01*
X138339500Y-110271008D01*
X138348939Y-110363399D01*
X138336925Y-110430575D01*
X138291189Y-110481222D01*
X138225581Y-110500000D01*
X134351362Y-110500000D01*
X134303909Y-110490561D01*
X134263681Y-110463681D01*
X132736319Y-108936319D01*
X132709439Y-108896091D01*
X132700000Y-108848638D01*
X132700000Y-108322535D01*
X133697500Y-108322535D01*
X133736520Y-108556372D01*
X133802295Y-108747967D01*
X133813496Y-108780595D01*
X133926329Y-108989091D01*
X133926330Y-108989092D01*
X134071939Y-109176172D01*
X134127862Y-109227652D01*
X134246357Y-109336735D01*
X134444824Y-109466399D01*
X134661925Y-109561629D01*
X134891740Y-109619826D01*
X134962575Y-109625695D01*
X135068823Y-109634500D01*
X135068829Y-109634500D01*
X135187171Y-109634500D01*
X135187177Y-109634500D01*
X135283765Y-109626495D01*
X135364260Y-109619826D01*
X135594075Y-109561629D01*
X135811176Y-109466399D01*
X136009643Y-109336735D01*
X136184060Y-109176172D01*
X136329671Y-108989091D01*
X136442504Y-108780595D01*
X136519480Y-108556371D01*
X136558500Y-108322535D01*
X136558500Y-108085465D01*
X136519480Y-107851629D01*
X136442504Y-107627405D01*
X136329671Y-107418909D01*
X136247211Y-107312964D01*
X136184060Y-107231827D01*
X136088287Y-107143662D01*
X136009643Y-107071265D01*
X135853856Y-106969485D01*
X135811178Y-106941602D01*
X135768189Y-106922745D01*
X135594075Y-106846371D01*
X135364260Y-106788174D01*
X135364258Y-106788173D01*
X135364255Y-106788173D01*
X135187177Y-106773500D01*
X135187171Y-106773500D01*
X135068829Y-106773500D01*
X135068823Y-106773500D01*
X134891744Y-106788173D01*
X134661925Y-106846371D01*
X134444821Y-106941602D01*
X134246358Y-107071264D01*
X134071939Y-107231827D01*
X133926330Y-107418907D01*
X133903782Y-107460572D01*
X133815862Y-107623034D01*
X133813494Y-107627409D01*
X133736520Y-107851627D01*
X133697500Y-108085465D01*
X133697500Y-108322535D01*
X132700000Y-108322535D01*
X132700000Y-105946000D01*
X139940000Y-105946000D01*
X139940000Y-106386639D01*
X139942900Y-106423493D01*
X139988717Y-106581197D01*
X140072317Y-106722557D01*
X140188442Y-106838682D01*
X140329799Y-106922280D01*
X140487511Y-106968099D01*
X140489999Y-106968295D01*
X140490000Y-106968295D01*
X140490000Y-105946000D01*
X139940000Y-105946000D01*
X132700000Y-105946000D01*
X132700000Y-41774535D01*
X133697500Y-41774535D01*
X133736520Y-42008372D01*
X133813494Y-42232590D01*
X133813496Y-42232595D01*
X133926329Y-42441091D01*
X133926330Y-42441092D01*
X134071939Y-42628172D01*
X134142604Y-42693223D01*
X134246357Y-42788735D01*
X134444824Y-42918399D01*
X134661925Y-43013629D01*
X134891740Y-43071826D01*
X134962575Y-43077695D01*
X135068823Y-43086500D01*
X135068829Y-43086500D01*
X135187171Y-43086500D01*
X135187177Y-43086500D01*
X135283764Y-43078496D01*
X135364260Y-43071826D01*
X135594075Y-43013629D01*
X135811176Y-42918399D01*
X136009643Y-42788735D01*
X136184060Y-42628172D01*
X136329671Y-42441091D01*
X136442504Y-42232595D01*
X136519480Y-42008371D01*
X136558500Y-41774535D01*
X136558500Y-41537465D01*
X136519480Y-41303629D01*
X136442504Y-41079405D01*
X136329671Y-40870909D01*
X136267057Y-40790462D01*
X136184060Y-40683827D01*
X136083731Y-40591468D01*
X136009643Y-40523265D01*
X135894936Y-40448324D01*
X135811178Y-40393602D01*
X135811176Y-40393601D01*
X135594075Y-40298371D01*
X135364260Y-40240174D01*
X135364258Y-40240173D01*
X135364255Y-40240173D01*
X135187177Y-40225500D01*
X135187171Y-40225500D01*
X135068829Y-40225500D01*
X135068823Y-40225500D01*
X134891744Y-40240173D01*
X134661925Y-40298371D01*
X134444821Y-40393602D01*
X134246358Y-40523264D01*
X134071939Y-40683827D01*
X133926330Y-40870907D01*
X133926328Y-40870909D01*
X133926329Y-40870909D01*
X133843193Y-41024531D01*
X133813494Y-41079409D01*
X133736520Y-41303627D01*
X133697500Y-41537465D01*
X133697500Y-41774535D01*
X132700000Y-41774535D01*
X132700000Y-40751382D01*
X132709445Y-40703914D01*
X132736343Y-40663677D01*
X133006565Y-40393602D01*
X134163688Y-39237109D01*
X134203904Y-39210250D01*
X134251338Y-39200817D01*
X139031542Y-39200776D01*
X139095406Y-39218487D01*
X139141027Y-39266561D01*
X139155372Y-39331265D01*
X139134343Y-39394115D01*
X139083947Y-39437158D01*
X139022170Y-39465965D01*
X138828598Y-39601505D01*
X138661505Y-39768598D01*
X138525965Y-39962170D01*
X138426097Y-40176336D01*
X138364936Y-40404592D01*
X138344340Y-40640000D01*
X138364936Y-40875407D01*
X138398671Y-41001306D01*
X138426097Y-41103663D01*
X138525965Y-41317830D01*
X138661505Y-41511401D01*
X138828599Y-41678495D01*
X139014160Y-41808426D01*
X139053024Y-41852743D01*
X139067035Y-41910000D01*
X139053024Y-41967257D01*
X139014159Y-42011575D01*
X138828595Y-42141508D01*
X138661505Y-42308598D01*
X138525965Y-42502170D01*
X138426097Y-42716336D01*
X138364936Y-42944592D01*
X138344340Y-43179999D01*
X138364936Y-43415407D01*
X138393990Y-43523836D01*
X138426097Y-43643663D01*
X138525965Y-43857830D01*
X138661505Y-44051401D01*
X138661508Y-44051404D01*
X138783818Y-44173714D01*
X138815114Y-44226460D01*
X138817303Y-44287753D01*
X138789850Y-44342597D01*
X138739472Y-44377576D01*
X138607913Y-44426646D01*
X138492811Y-44512811D01*
X138406647Y-44627910D01*
X138356402Y-44762624D01*
X138350000Y-44822176D01*
X138350000Y-45470000D01*
X141050000Y-45470000D01*
X141050000Y-44822176D01*
X141043597Y-44762624D01*
X140993352Y-44627910D01*
X140907188Y-44512811D01*
X140792088Y-44426647D01*
X140660528Y-44377577D01*
X140610149Y-44342597D01*
X140582696Y-44287752D01*
X140584885Y-44226460D01*
X140616178Y-44173717D01*
X140738495Y-44051401D01*
X140874035Y-43857830D01*
X140973903Y-43643663D01*
X141035063Y-43415408D01*
X141055659Y-43180000D01*
X141035063Y-42944592D01*
X140973903Y-42716337D01*
X140874035Y-42502171D01*
X140738495Y-42308599D01*
X140571401Y-42141505D01*
X140385839Y-42011573D01*
X140346975Y-41967257D01*
X140332964Y-41910000D01*
X140346975Y-41852743D01*
X140385839Y-41808426D01*
X140571401Y-41678495D01*
X140738495Y-41511401D01*
X140874035Y-41317830D01*
X140973903Y-41103663D01*
X141035063Y-40875408D01*
X141055659Y-40640000D01*
X141035063Y-40404592D01*
X140973903Y-40176337D01*
X140874035Y-39962171D01*
X140738495Y-39768599D01*
X140571401Y-39601505D01*
X140377830Y-39465965D01*
X140321586Y-39439738D01*
X140316028Y-39437146D01*
X140265632Y-39394104D01*
X140244603Y-39331254D01*
X140258947Y-39266550D01*
X140304568Y-39218476D01*
X140368429Y-39200764D01*
X141709408Y-39200753D01*
X141768835Y-39215920D01*
G37*
G04 #@! TD.AperFunction*
G04 #@! TA.AperFunction,Conductor*
G36*
X155620000Y-98692113D02*
G01*
X155665387Y-98737500D01*
X155682000Y-98799500D01*
X155682000Y-98869000D01*
X157682000Y-98869000D01*
X157682000Y-98799500D01*
X157698613Y-98737500D01*
X157744000Y-98692113D01*
X157806000Y-98675500D01*
X163569837Y-98675500D01*
X163626132Y-98689015D01*
X163670155Y-98726615D01*
X163692310Y-98780102D01*
X163687768Y-98837818D01*
X163657518Y-98887181D01*
X162256518Y-100288181D01*
X162216290Y-100315061D01*
X162168837Y-100324500D01*
X150524145Y-100324500D01*
X150516658Y-100324274D01*
X150458911Y-100320780D01*
X150402011Y-100331207D01*
X150394611Y-100332334D01*
X150369299Y-100335408D01*
X150308983Y-100327715D01*
X150259576Y-100292274D01*
X150232957Y-100237605D01*
X150235527Y-100176855D01*
X150266667Y-100124633D01*
X150970319Y-99420982D01*
X151019682Y-99390732D01*
X151077398Y-99386190D01*
X151130885Y-99408345D01*
X151168485Y-99452368D01*
X151182000Y-99508663D01*
X151182000Y-99516824D01*
X151188402Y-99576375D01*
X151238647Y-99711089D01*
X151324811Y-99826188D01*
X151439910Y-99912352D01*
X151574624Y-99962597D01*
X151634176Y-99969000D01*
X151932000Y-99969000D01*
X151932000Y-99369000D01*
X152432000Y-99369000D01*
X152432000Y-99969000D01*
X152729824Y-99969000D01*
X152789375Y-99962597D01*
X152924089Y-99912352D01*
X153039188Y-99826188D01*
X153125352Y-99711089D01*
X153175597Y-99576375D01*
X153182000Y-99516824D01*
X153182000Y-99369000D01*
X155682000Y-99369000D01*
X155682000Y-99516824D01*
X155688402Y-99576375D01*
X155738647Y-99711089D01*
X155824811Y-99826188D01*
X155939910Y-99912352D01*
X156074624Y-99962597D01*
X156134176Y-99969000D01*
X156432000Y-99969000D01*
X156432000Y-99369000D01*
X156932000Y-99369000D01*
X156932000Y-99969000D01*
X157229824Y-99969000D01*
X157289375Y-99962597D01*
X157424089Y-99912352D01*
X157539188Y-99826188D01*
X157625352Y-99711089D01*
X157675597Y-99576375D01*
X157682000Y-99516824D01*
X157682000Y-99369000D01*
X156932000Y-99369000D01*
X156432000Y-99369000D01*
X155682000Y-99369000D01*
X153182000Y-99369000D01*
X152432000Y-99369000D01*
X151932000Y-99369000D01*
X151932000Y-98993000D01*
X151948613Y-98931000D01*
X151994000Y-98885613D01*
X152056000Y-98869000D01*
X153182000Y-98869000D01*
X153182000Y-98799500D01*
X153198613Y-98737500D01*
X153244000Y-98692113D01*
X153306000Y-98675500D01*
X155558000Y-98675500D01*
X155620000Y-98692113D01*
G37*
G04 #@! TD.AperFunction*
G04 #@! TA.AperFunction,Conductor*
G36*
X171318385Y-93284843D02*
G01*
X171355985Y-93328866D01*
X171369500Y-93385161D01*
X171369500Y-94877869D01*
X171375909Y-94937484D01*
X171401056Y-95004907D01*
X171426204Y-95072331D01*
X171512454Y-95187546D01*
X171627669Y-95273796D01*
X171717383Y-95307257D01*
X171759082Y-95322810D01*
X171809462Y-95357789D01*
X171836915Y-95412634D01*
X171834726Y-95473926D01*
X171803431Y-95526673D01*
X171681503Y-95648601D01*
X171545965Y-95842170D01*
X171446097Y-96056336D01*
X171384936Y-96284592D01*
X171364340Y-96519999D01*
X171384936Y-96755407D01*
X171429709Y-96922502D01*
X171446097Y-96983663D01*
X171545965Y-97197830D01*
X171681505Y-97391401D01*
X171848599Y-97558495D01*
X172034160Y-97688426D01*
X172073024Y-97732743D01*
X172087035Y-97790000D01*
X172073024Y-97847257D01*
X172034159Y-97891575D01*
X171848595Y-98021508D01*
X171681508Y-98188595D01*
X171681505Y-98188598D01*
X171681505Y-98188599D01*
X171623368Y-98271625D01*
X171579053Y-98310489D01*
X171521796Y-98324500D01*
X166430163Y-98324500D01*
X166373868Y-98310985D01*
X166329845Y-98273385D01*
X166307690Y-98219898D01*
X166312232Y-98162182D01*
X166342482Y-98112819D01*
X167471639Y-96983662D01*
X171157821Y-93297478D01*
X171207182Y-93267230D01*
X171264898Y-93262688D01*
X171318385Y-93284843D01*
G37*
G04 #@! TD.AperFunction*
G04 #@! TA.AperFunction,Conductor*
G36*
X171287972Y-76148577D02*
G01*
X171343938Y-76189612D01*
X171369090Y-76254291D01*
X171384936Y-76435407D01*
X171414112Y-76544292D01*
X171446097Y-76663663D01*
X171545965Y-76877830D01*
X171681505Y-77071401D01*
X171848599Y-77238495D01*
X172034160Y-77368426D01*
X172073024Y-77412743D01*
X172087035Y-77470000D01*
X172073024Y-77527257D01*
X172034158Y-77571575D01*
X171925490Y-77647666D01*
X171848595Y-77701508D01*
X171681505Y-77868598D01*
X171545965Y-78062170D01*
X171446097Y-78276336D01*
X171384936Y-78504592D01*
X171364340Y-78739999D01*
X171384936Y-78975407D01*
X171408651Y-79063912D01*
X171446097Y-79203663D01*
X171545965Y-79417830D01*
X171681505Y-79611401D01*
X171848599Y-79778495D01*
X172034160Y-79908426D01*
X172073024Y-79952743D01*
X172087035Y-80010000D01*
X172073024Y-80067257D01*
X172034158Y-80111575D01*
X171925490Y-80187666D01*
X171848595Y-80241508D01*
X171681505Y-80408598D01*
X171545965Y-80602170D01*
X171446097Y-80816336D01*
X171384936Y-81044592D01*
X171364340Y-81280000D01*
X171384936Y-81515407D01*
X171396913Y-81560105D01*
X171446097Y-81743663D01*
X171545965Y-81957830D01*
X171681505Y-82151401D01*
X171848599Y-82318495D01*
X172021461Y-82439534D01*
X172060324Y-82483850D01*
X172074335Y-82541107D01*
X172060324Y-82598364D01*
X172021459Y-82642682D01*
X171823195Y-82781508D01*
X171656105Y-82948598D01*
X171520565Y-83142170D01*
X171420697Y-83356336D01*
X171359536Y-83584592D01*
X171338940Y-83820000D01*
X171359536Y-84055407D01*
X171371513Y-84100105D01*
X171420697Y-84283663D01*
X171520565Y-84497830D01*
X171656105Y-84691401D01*
X171823199Y-84858495D01*
X172016770Y-84994035D01*
X172230937Y-85093903D01*
X172459192Y-85155063D01*
X172694600Y-85175659D01*
X172930008Y-85155063D01*
X173158263Y-85093903D01*
X173372430Y-84994035D01*
X173566001Y-84858495D01*
X173733095Y-84691401D01*
X173798233Y-84598374D01*
X173842549Y-84559511D01*
X173899806Y-84545500D01*
X174054794Y-84545500D01*
X174112051Y-84559511D01*
X174156366Y-84598374D01*
X174221505Y-84691401D01*
X174388599Y-84858495D01*
X174582170Y-84994035D01*
X174796337Y-85093903D01*
X175014855Y-85152454D01*
X175024592Y-85155063D01*
X175260000Y-85175659D01*
X175495409Y-85155063D01*
X175540103Y-85143087D01*
X175604291Y-85143086D01*
X175659879Y-85175180D01*
X175990271Y-85505572D01*
X175995406Y-85511027D01*
X176033770Y-85554332D01*
X176081389Y-85587200D01*
X176087422Y-85591639D01*
X176132972Y-85627326D01*
X176141523Y-85631174D01*
X176161059Y-85642193D01*
X176168774Y-85647518D01*
X176222883Y-85668039D01*
X176229798Y-85670903D01*
X176282561Y-85694650D01*
X176291757Y-85696335D01*
X176291768Y-85696337D01*
X176313388Y-85702364D01*
X176322151Y-85705687D01*
X176322153Y-85705687D01*
X176322155Y-85705688D01*
X176379617Y-85712665D01*
X176386987Y-85713786D01*
X176435716Y-85722716D01*
X176487187Y-85745056D01*
X176523543Y-85787795D01*
X176537338Y-85842183D01*
X176528160Y-85885657D01*
X176528905Y-85885857D01*
X176464936Y-86124592D01*
X176444340Y-86360000D01*
X176464936Y-86595407D01*
X176509709Y-86762501D01*
X176526097Y-86823663D01*
X176625965Y-87037830D01*
X176761505Y-87231401D01*
X176928599Y-87398495D01*
X177114160Y-87528426D01*
X177153024Y-87572743D01*
X177167035Y-87630000D01*
X177153024Y-87687257D01*
X177114158Y-87731575D01*
X177005490Y-87807666D01*
X176928595Y-87861508D01*
X176761505Y-88028598D01*
X176625965Y-88222170D01*
X176526097Y-88436335D01*
X176474903Y-88627394D01*
X176440596Y-88685140D01*
X176381212Y-88716526D01*
X176314174Y-88712342D01*
X176179252Y-88665131D01*
X176000000Y-88644934D01*
X175820748Y-88665131D01*
X175820745Y-88665131D01*
X175820745Y-88665132D01*
X175650478Y-88724711D01*
X175650476Y-88724711D01*
X175650476Y-88724712D01*
X175497735Y-88820685D01*
X175370185Y-88948235D01*
X175274209Y-89100980D01*
X175218962Y-89258869D01*
X175189602Y-89305595D01*
X174707018Y-89788181D01*
X174666790Y-89815061D01*
X174619337Y-89824500D01*
X171024151Y-89824500D01*
X171016665Y-89824274D01*
X171014385Y-89824136D01*
X170958912Y-89820780D01*
X170902011Y-89831207D01*
X170894612Y-89832333D01*
X170837157Y-89839310D01*
X170828383Y-89842638D01*
X170806776Y-89848661D01*
X170797562Y-89850349D01*
X170744782Y-89874102D01*
X170737868Y-89876965D01*
X170683775Y-89897481D01*
X170676058Y-89902807D01*
X170656524Y-89913824D01*
X170647973Y-89917673D01*
X170602417Y-89953363D01*
X170596387Y-89957800D01*
X170548770Y-89990668D01*
X170510406Y-90033972D01*
X170505273Y-90039424D01*
X165954224Y-94590473D01*
X165900870Y-94621946D01*
X165838950Y-94623683D01*
X165783915Y-94595251D01*
X165749503Y-94543749D01*
X165725789Y-94475978D01*
X165629816Y-94323238D01*
X165629815Y-94323237D01*
X165629814Y-94323235D01*
X165502263Y-94195684D01*
X165361847Y-94107455D01*
X165316098Y-94056262D01*
X165304599Y-93988575D01*
X165305565Y-93979999D01*
X165285368Y-93800748D01*
X165285368Y-93800745D01*
X165225789Y-93630478D01*
X165129816Y-93477738D01*
X165129815Y-93477737D01*
X165129814Y-93477735D01*
X165002264Y-93350185D01*
X164908047Y-93290985D01*
X164849522Y-93254211D01*
X164679255Y-93194632D01*
X164679253Y-93194631D01*
X164679251Y-93194631D01*
X164500000Y-93174434D01*
X164320748Y-93194631D01*
X164320745Y-93194631D01*
X164320745Y-93194632D01*
X164150478Y-93254211D01*
X164150476Y-93254211D01*
X164150476Y-93254212D01*
X164128245Y-93268181D01*
X164100893Y-93285368D01*
X164100692Y-93285494D01*
X164034720Y-93304500D01*
X161126941Y-93304500D01*
X161070646Y-93290985D01*
X161026623Y-93253385D01*
X161004468Y-93199898D01*
X161009010Y-93142182D01*
X161039260Y-93092819D01*
X161129814Y-93002264D01*
X161129816Y-93002262D01*
X161225789Y-92849522D01*
X161285368Y-92679255D01*
X161305565Y-92500000D01*
X161285368Y-92320745D01*
X161225789Y-92150478D01*
X161194505Y-92100691D01*
X161175500Y-92034720D01*
X161175500Y-90331163D01*
X161184939Y-90283711D01*
X161211815Y-90243485D01*
X161273793Y-90181507D01*
X161323713Y-90151079D01*
X161382033Y-90146908D01*
X161435779Y-90169923D01*
X161467669Y-90193796D01*
X161602517Y-90244091D01*
X161662127Y-90250500D01*
X162495615Y-90250499D01*
X162506424Y-90250971D01*
X162559999Y-90255659D01*
X162559999Y-90255658D01*
X162560000Y-90255659D01*
X162613574Y-90250971D01*
X162624384Y-90250499D01*
X165257870Y-90250499D01*
X165257872Y-90250499D01*
X165317483Y-90244091D01*
X165452331Y-90193796D01*
X165567546Y-90107546D01*
X165653796Y-89992331D01*
X165704091Y-89857483D01*
X165710500Y-89797873D01*
X165710500Y-89749500D01*
X165727113Y-89687500D01*
X165772500Y-89642113D01*
X165834500Y-89625500D01*
X166434794Y-89625500D01*
X166492051Y-89639511D01*
X166536366Y-89678374D01*
X166601505Y-89771401D01*
X166768599Y-89938495D01*
X166962170Y-90074035D01*
X167176337Y-90173903D01*
X167404592Y-90235063D01*
X167639999Y-90255659D01*
X167639999Y-90255658D01*
X167640000Y-90255659D01*
X167875408Y-90235063D01*
X168103663Y-90173903D01*
X168317830Y-90074035D01*
X168511401Y-89938495D01*
X168678495Y-89771401D01*
X168814035Y-89577830D01*
X168913903Y-89363663D01*
X168975063Y-89135408D01*
X168995659Y-88900000D01*
X168975063Y-88664592D01*
X168913903Y-88436337D01*
X168814035Y-88222171D01*
X168678495Y-88028599D01*
X168511401Y-87861505D01*
X168372575Y-87764298D01*
X171898700Y-87764298D01*
X171938893Y-88005164D01*
X172018183Y-88236127D01*
X172134406Y-88450887D01*
X172284394Y-88643595D01*
X172329525Y-88685140D01*
X172464056Y-88808984D01*
X172668488Y-88942546D01*
X172668490Y-88942547D01*
X172681464Y-88948238D01*
X172892116Y-89040638D01*
X173128839Y-89100585D01*
X173211754Y-89107455D01*
X173311248Y-89115700D01*
X173311254Y-89115700D01*
X173433146Y-89115700D01*
X173433152Y-89115700D01*
X173524353Y-89108142D01*
X173615561Y-89100585D01*
X173852284Y-89040638D01*
X174075912Y-88942546D01*
X174280344Y-88808984D01*
X174460005Y-88643595D01*
X174609992Y-88450890D01*
X174726217Y-88236127D01*
X174805507Y-88005163D01*
X174845700Y-87764298D01*
X174845700Y-87520102D01*
X174805507Y-87279237D01*
X174726217Y-87048273D01*
X174609992Y-86833510D01*
X174547451Y-86753157D01*
X174460005Y-86640804D01*
X174370174Y-86558110D01*
X174280344Y-86475416D01*
X174075912Y-86341854D01*
X174075909Y-86341852D01*
X173852287Y-86243763D01*
X173852285Y-86243762D01*
X173852284Y-86243762D01*
X173615561Y-86183815D01*
X173615557Y-86183814D01*
X173615555Y-86183814D01*
X173433152Y-86168700D01*
X173433146Y-86168700D01*
X173311254Y-86168700D01*
X173311248Y-86168700D01*
X173128844Y-86183814D01*
X173128840Y-86183814D01*
X173128839Y-86183815D01*
X172903092Y-86240982D01*
X172892112Y-86243763D01*
X172668490Y-86341852D01*
X172648063Y-86355198D01*
X172464056Y-86475416D01*
X172464054Y-86475417D01*
X172464055Y-86475417D01*
X172284394Y-86640804D01*
X172134406Y-86833512D01*
X172018183Y-87048272D01*
X171938893Y-87279235D01*
X171898700Y-87520102D01*
X171898700Y-87764298D01*
X168372575Y-87764298D01*
X168325839Y-87731573D01*
X168286975Y-87687257D01*
X168272964Y-87630000D01*
X168286975Y-87572743D01*
X168325839Y-87528426D01*
X168511401Y-87398495D01*
X168678495Y-87231401D01*
X168814035Y-87037830D01*
X168913903Y-86823663D01*
X168975063Y-86595408D01*
X168995659Y-86360000D01*
X168975063Y-86124592D01*
X168913903Y-85896337D01*
X168814035Y-85682171D01*
X168678495Y-85488599D01*
X168556181Y-85366284D01*
X168524885Y-85313539D01*
X168522696Y-85252246D01*
X168550149Y-85197401D01*
X168600528Y-85162422D01*
X168732089Y-85113352D01*
X168847188Y-85027188D01*
X168933352Y-84912089D01*
X168983597Y-84777375D01*
X168990000Y-84717824D01*
X168990000Y-84070000D01*
X166290000Y-84070000D01*
X166290000Y-84717824D01*
X166296402Y-84777375D01*
X166346647Y-84912089D01*
X166432811Y-85027188D01*
X166547911Y-85113352D01*
X166679471Y-85162422D01*
X166729850Y-85197401D01*
X166757303Y-85252246D01*
X166755114Y-85313539D01*
X166723819Y-85366285D01*
X166601505Y-85488598D01*
X166585800Y-85511028D01*
X166536366Y-85581625D01*
X166492051Y-85620489D01*
X166434794Y-85634500D01*
X165834499Y-85634500D01*
X165772499Y-85617887D01*
X165727112Y-85572500D01*
X165710499Y-85510500D01*
X165710499Y-85462130D01*
X165708890Y-85447162D01*
X165704091Y-85402517D01*
X165653796Y-85267669D01*
X165576108Y-85163892D01*
X165554210Y-85115940D01*
X165554210Y-85063223D01*
X165576110Y-85015270D01*
X165653352Y-84912089D01*
X165703597Y-84777375D01*
X165710000Y-84717824D01*
X165710000Y-84070000D01*
X161210000Y-84070000D01*
X161210000Y-84717824D01*
X161216402Y-84777375D01*
X161266647Y-84912089D01*
X161343890Y-85015272D01*
X161365789Y-85063225D01*
X161365789Y-85115941D01*
X161343890Y-85163894D01*
X161266204Y-85267668D01*
X161215909Y-85402516D01*
X161209500Y-85462131D01*
X161209500Y-85560500D01*
X161192887Y-85622500D01*
X161147500Y-85667887D01*
X161085500Y-85684500D01*
X160374162Y-85684500D01*
X160366675Y-85684274D01*
X160365340Y-85684193D01*
X160308915Y-85680780D01*
X160308914Y-85680780D01*
X160251997Y-85691210D01*
X160244594Y-85692337D01*
X160187151Y-85699312D01*
X160178384Y-85702637D01*
X160156777Y-85708660D01*
X160147561Y-85710349D01*
X160094783Y-85734101D01*
X160087868Y-85736965D01*
X160033775Y-85757481D01*
X160026058Y-85762807D01*
X160006524Y-85773824D01*
X159997973Y-85777673D01*
X159952417Y-85813363D01*
X159946387Y-85817800D01*
X159898770Y-85850668D01*
X159860406Y-85893972D01*
X159855273Y-85899424D01*
X159611179Y-86143519D01*
X159561819Y-86173767D01*
X159504103Y-86178309D01*
X159450616Y-86156154D01*
X159413016Y-86112131D01*
X159399501Y-86055836D01*
X159399501Y-85447162D01*
X159408940Y-85399709D01*
X159435820Y-85359481D01*
X160297563Y-84497738D01*
X161188982Y-83606318D01*
X161229209Y-83579439D01*
X161276662Y-83570000D01*
X165710000Y-83570000D01*
X165710000Y-82922176D01*
X165703597Y-82862624D01*
X165653352Y-82727911D01*
X165576109Y-82624727D01*
X165554210Y-82576774D01*
X165554210Y-82524057D01*
X165576107Y-82476109D01*
X165653796Y-82372331D01*
X165704091Y-82237483D01*
X165710500Y-82177873D01*
X165710500Y-82129500D01*
X165727113Y-82067500D01*
X165772500Y-82022113D01*
X165834500Y-82005500D01*
X166434794Y-82005500D01*
X166492051Y-82019511D01*
X166536366Y-82058374D01*
X166601505Y-82151401D01*
X166601508Y-82151404D01*
X166723818Y-82273714D01*
X166755114Y-82326460D01*
X166757303Y-82387753D01*
X166729850Y-82442597D01*
X166679472Y-82477576D01*
X166547913Y-82526646D01*
X166432811Y-82612811D01*
X166346647Y-82727910D01*
X166296402Y-82862624D01*
X166290000Y-82922176D01*
X166290000Y-83570000D01*
X168990000Y-83570000D01*
X168990000Y-82922176D01*
X168983597Y-82862624D01*
X168933352Y-82727910D01*
X168847188Y-82612811D01*
X168732088Y-82526647D01*
X168600528Y-82477577D01*
X168550149Y-82442597D01*
X168522696Y-82387752D01*
X168524885Y-82326460D01*
X168556178Y-82273717D01*
X168678495Y-82151401D01*
X168814035Y-81957830D01*
X168913903Y-81743663D01*
X168975063Y-81515408D01*
X168995659Y-81280000D01*
X168975063Y-81044592D01*
X168913903Y-80816337D01*
X168814035Y-80602171D01*
X168678495Y-80408599D01*
X168511401Y-80241505D01*
X168325839Y-80111573D01*
X168286976Y-80067257D01*
X168272965Y-80010000D01*
X168286976Y-79952743D01*
X168325839Y-79908426D01*
X168511401Y-79778495D01*
X168678495Y-79611401D01*
X168814035Y-79417830D01*
X168913903Y-79203663D01*
X168975063Y-78975408D01*
X168995659Y-78740000D01*
X168975063Y-78504592D01*
X168913903Y-78276337D01*
X168913903Y-78276336D01*
X168911095Y-78265857D01*
X168911840Y-78265657D01*
X168902661Y-78222191D01*
X168916454Y-78167799D01*
X168952811Y-78125057D01*
X169004283Y-78102716D01*
X169052992Y-78093790D01*
X169060396Y-78092663D01*
X169117845Y-78085688D01*
X169126608Y-78082364D01*
X169148222Y-78076338D01*
X169157439Y-78074650D01*
X169157443Y-78074648D01*
X169157444Y-78074648D01*
X169210207Y-78050901D01*
X169217122Y-78048036D01*
X169271226Y-78027518D01*
X169278933Y-78022197D01*
X169298484Y-78011171D01*
X169307028Y-78007326D01*
X169352609Y-77971613D01*
X169358581Y-77967219D01*
X169406229Y-77934332D01*
X169444610Y-77891007D01*
X169449711Y-77885588D01*
X171157883Y-76177416D01*
X171218723Y-76144038D01*
X171287972Y-76148577D01*
G37*
G04 #@! TD.AperFunction*
G04 #@! TA.AperFunction,Conductor*
G36*
X154337818Y-62318008D02*
G01*
X154387181Y-62348258D01*
X154788181Y-62749258D01*
X154815061Y-62789486D01*
X154824500Y-62836939D01*
X154824500Y-69034720D01*
X154805494Y-69100691D01*
X154774211Y-69150478D01*
X154715064Y-69319511D01*
X154714631Y-69320748D01*
X154694434Y-69500000D01*
X154714631Y-69679251D01*
X154714631Y-69679253D01*
X154714632Y-69679255D01*
X154774211Y-69849522D01*
X154825092Y-69930499D01*
X154870185Y-70002264D01*
X154997735Y-70129814D01*
X154997737Y-70129815D01*
X154997738Y-70129816D01*
X155150478Y-70225789D01*
X155320745Y-70285368D01*
X155500000Y-70305565D01*
X155686616Y-70284539D01*
X155754302Y-70296039D01*
X155805494Y-70341787D01*
X155824500Y-70407759D01*
X155824500Y-74668836D01*
X155815061Y-74716289D01*
X155788181Y-74756517D01*
X151894424Y-78650273D01*
X151888972Y-78655406D01*
X151845668Y-78693770D01*
X151812800Y-78741387D01*
X151808363Y-78747417D01*
X151772673Y-78792973D01*
X151768824Y-78801524D01*
X151757807Y-78821058D01*
X151752481Y-78828775D01*
X151731965Y-78882868D01*
X151729102Y-78889782D01*
X151705349Y-78942562D01*
X151703661Y-78951776D01*
X151697638Y-78973383D01*
X151694310Y-78982157D01*
X151687333Y-79039612D01*
X151686207Y-79047011D01*
X151675780Y-79103912D01*
X151679274Y-79161664D01*
X151679500Y-79169151D01*
X151679500Y-87195500D01*
X151662887Y-87257500D01*
X151617500Y-87302887D01*
X151555500Y-87319500D01*
X151194383Y-87319500D01*
X151183576Y-87319028D01*
X151180170Y-87318730D01*
X151129999Y-87314340D01*
X151076422Y-87319028D01*
X151065615Y-87319500D01*
X150232130Y-87319500D01*
X150172515Y-87325909D01*
X150037669Y-87376204D01*
X149922454Y-87462454D01*
X149898767Y-87494096D01*
X149851011Y-87532579D01*
X149790654Y-87543469D01*
X149732460Y-87524100D01*
X149690668Y-87479212D01*
X149675500Y-87419785D01*
X149675500Y-83965280D01*
X149694506Y-83899308D01*
X149725789Y-83849522D01*
X149785368Y-83679255D01*
X149805565Y-83500000D01*
X149785368Y-83320745D01*
X149725789Y-83150478D01*
X149629816Y-82997738D01*
X149629815Y-82997737D01*
X149629814Y-82997735D01*
X149502264Y-82870185D01*
X149349525Y-82774213D01*
X149349522Y-82774211D01*
X149179255Y-82714632D01*
X149179253Y-82714631D01*
X149179251Y-82714631D01*
X149000000Y-82694434D01*
X148820748Y-82714631D01*
X148820745Y-82714631D01*
X148820745Y-82714632D01*
X148650478Y-82774211D01*
X148650477Y-82774211D01*
X148650473Y-82774213D01*
X148565971Y-82827309D01*
X148500000Y-82846315D01*
X148434029Y-82827309D01*
X148349526Y-82774213D01*
X148349524Y-82774212D01*
X148349522Y-82774211D01*
X148179255Y-82714632D01*
X148179253Y-82714631D01*
X148179251Y-82714631D01*
X148000000Y-82694434D01*
X147820748Y-82714631D01*
X147820745Y-82714631D01*
X147820745Y-82714632D01*
X147650478Y-82774211D01*
X147650477Y-82774211D01*
X147650473Y-82774213D01*
X147565971Y-82827309D01*
X147500000Y-82846315D01*
X147434029Y-82827309D01*
X147349526Y-82774213D01*
X147349524Y-82774212D01*
X147349522Y-82774211D01*
X147179255Y-82714632D01*
X147179253Y-82714631D01*
X147179251Y-82714631D01*
X147000000Y-82694434D01*
X146820748Y-82714631D01*
X146820745Y-82714631D01*
X146820745Y-82714632D01*
X146650478Y-82774211D01*
X146650476Y-82774211D01*
X146650476Y-82774212D01*
X146497735Y-82870185D01*
X146370183Y-82997737D01*
X146358993Y-83015547D01*
X146312759Y-83058768D01*
X146251217Y-83073543D01*
X146190400Y-83056022D01*
X146146152Y-83010769D01*
X146130000Y-82949574D01*
X146130000Y-82922176D01*
X146123597Y-82862624D01*
X146073352Y-82727911D01*
X145996109Y-82624727D01*
X145974210Y-82576774D01*
X145974210Y-82524057D01*
X145996107Y-82476109D01*
X146073796Y-82372331D01*
X146124091Y-82237483D01*
X146130500Y-82177873D01*
X146130500Y-82079500D01*
X146147113Y-82017500D01*
X146192500Y-81972113D01*
X146254500Y-81955500D01*
X146695849Y-81955500D01*
X146703335Y-81955726D01*
X146761084Y-81959219D01*
X146761084Y-81959218D01*
X146761085Y-81959219D01*
X146817997Y-81948789D01*
X146825396Y-81947663D01*
X146882845Y-81940688D01*
X146891608Y-81937364D01*
X146913222Y-81931338D01*
X146922439Y-81929650D01*
X146922443Y-81929648D01*
X146922444Y-81929648D01*
X146975207Y-81905901D01*
X146982122Y-81903036D01*
X147036226Y-81882518D01*
X147043933Y-81877197D01*
X147063484Y-81866171D01*
X147072028Y-81862326D01*
X147117609Y-81826613D01*
X147123581Y-81822219D01*
X147171229Y-81789332D01*
X147209610Y-81746007D01*
X147214711Y-81740588D01*
X151460588Y-77494711D01*
X151466007Y-77489610D01*
X151509332Y-77451229D01*
X151542219Y-77403581D01*
X151546613Y-77397609D01*
X151582326Y-77352028D01*
X151586171Y-77343484D01*
X151597197Y-77323935D01*
X151598467Y-77322094D01*
X151602518Y-77316226D01*
X151623036Y-77262122D01*
X151625901Y-77255207D01*
X151649648Y-77202444D01*
X151649648Y-77202443D01*
X151649650Y-77202439D01*
X151651338Y-77193222D01*
X151657364Y-77171608D01*
X151660688Y-77162845D01*
X151667663Y-77105396D01*
X151668790Y-77097993D01*
X151679219Y-77041084D01*
X151675726Y-76983335D01*
X151675500Y-76975849D01*
X151675500Y-71407761D01*
X151694506Y-71341789D01*
X151745698Y-71296041D01*
X151813384Y-71284541D01*
X151999999Y-71305567D01*
X151999999Y-71305566D01*
X152000000Y-71305567D01*
X152179255Y-71285370D01*
X152349522Y-71225791D01*
X152502262Y-71129818D01*
X152629816Y-71002264D01*
X152725789Y-70849524D01*
X152785368Y-70679257D01*
X152805565Y-70500002D01*
X152785368Y-70320747D01*
X152725789Y-70150480D01*
X152694505Y-70100693D01*
X152675500Y-70034722D01*
X152675500Y-67606941D01*
X152689015Y-67550646D01*
X152726615Y-67506623D01*
X152780102Y-67484468D01*
X152837818Y-67489010D01*
X152887181Y-67519260D01*
X152997735Y-67629814D01*
X152997737Y-67629815D01*
X152997738Y-67629816D01*
X153150478Y-67725789D01*
X153320745Y-67785368D01*
X153455186Y-67800515D01*
X153499999Y-67805565D01*
X153499999Y-67805564D01*
X153500000Y-67805565D01*
X153679255Y-67785368D01*
X153849522Y-67725789D01*
X154002262Y-67629816D01*
X154129816Y-67502262D01*
X154225789Y-67349522D01*
X154285368Y-67179255D01*
X154305565Y-67000000D01*
X154305281Y-66997483D01*
X154285368Y-66820748D01*
X154285368Y-66820745D01*
X154225789Y-66650478D01*
X154194505Y-66600691D01*
X154175500Y-66534720D01*
X154175500Y-62435939D01*
X154189015Y-62379644D01*
X154226615Y-62335621D01*
X154280102Y-62313466D01*
X154337818Y-62318008D01*
G37*
G04 #@! TD.AperFunction*
G04 #@! TA.AperFunction,Conductor*
G36*
X161147501Y-66692113D02*
G01*
X161192888Y-66737500D01*
X161209501Y-66799500D01*
X161209501Y-66937870D01*
X161215909Y-66997484D01*
X161266204Y-67132332D01*
X161343577Y-67235690D01*
X161365476Y-67283642D01*
X161365476Y-67336358D01*
X161343577Y-67384310D01*
X161266205Y-67487666D01*
X161215909Y-67622516D01*
X161209500Y-67682131D01*
X161209500Y-68515616D01*
X161209028Y-68526424D01*
X161204340Y-68580000D01*
X161209028Y-68633576D01*
X161209500Y-68644384D01*
X161209500Y-69477869D01*
X161215909Y-69537483D01*
X161266204Y-69672331D01*
X161343891Y-69776107D01*
X161365789Y-69824057D01*
X161365789Y-69876774D01*
X161343890Y-69924726D01*
X161266648Y-70027908D01*
X161216402Y-70162624D01*
X161210000Y-70222176D01*
X161210000Y-70870000D01*
X165710000Y-70870000D01*
X165710000Y-70222176D01*
X165703597Y-70162624D01*
X165653352Y-70027911D01*
X165576109Y-69924727D01*
X165554210Y-69876774D01*
X165554210Y-69824057D01*
X165576107Y-69776109D01*
X165653796Y-69672331D01*
X165704091Y-69537483D01*
X165710500Y-69477873D01*
X165710500Y-69429500D01*
X165727113Y-69367500D01*
X165772500Y-69322113D01*
X165834500Y-69305500D01*
X166434794Y-69305500D01*
X166492051Y-69319511D01*
X166536366Y-69358374D01*
X166601505Y-69451401D01*
X166601508Y-69451404D01*
X166723818Y-69573714D01*
X166755114Y-69626460D01*
X166757303Y-69687753D01*
X166729850Y-69742597D01*
X166679472Y-69777576D01*
X166547913Y-69826646D01*
X166432811Y-69912811D01*
X166346647Y-70027910D01*
X166296402Y-70162624D01*
X166290000Y-70222176D01*
X166290000Y-70870000D01*
X168990000Y-70870000D01*
X168990000Y-70279500D01*
X169006613Y-70217500D01*
X169052000Y-70172113D01*
X169114000Y-70155500D01*
X171508492Y-70155500D01*
X171572820Y-70173491D01*
X171618481Y-70222243D01*
X171632227Y-70287610D01*
X171610067Y-70350623D01*
X171545965Y-70442170D01*
X171446097Y-70656336D01*
X171384936Y-70884592D01*
X171364340Y-71120001D01*
X171367866Y-71160302D01*
X171360860Y-71213519D01*
X171332019Y-71258789D01*
X169167327Y-73423481D01*
X169111740Y-73455575D01*
X169047552Y-73455575D01*
X168991965Y-73423481D01*
X168959871Y-73367893D01*
X168947595Y-73322079D01*
X168913903Y-73196337D01*
X168814035Y-72982171D01*
X168678495Y-72788599D01*
X168556181Y-72666284D01*
X168524885Y-72613539D01*
X168522696Y-72552246D01*
X168550149Y-72497401D01*
X168600528Y-72462422D01*
X168732089Y-72413352D01*
X168847188Y-72327188D01*
X168933352Y-72212089D01*
X168983597Y-72077375D01*
X168990000Y-72017824D01*
X168990000Y-71370000D01*
X166290000Y-71370000D01*
X166290000Y-72017824D01*
X166296402Y-72077375D01*
X166346647Y-72212089D01*
X166432811Y-72327188D01*
X166547911Y-72413352D01*
X166679471Y-72462422D01*
X166729850Y-72497401D01*
X166757303Y-72552246D01*
X166755114Y-72613539D01*
X166723819Y-72666285D01*
X166601505Y-72788598D01*
X166571483Y-72831474D01*
X166536366Y-72881625D01*
X166492051Y-72920489D01*
X166434794Y-72934500D01*
X165834499Y-72934500D01*
X165772499Y-72917887D01*
X165727112Y-72872500D01*
X165710499Y-72810500D01*
X165710499Y-72762130D01*
X165710499Y-72762127D01*
X165704091Y-72702517D01*
X165653796Y-72567669D01*
X165576108Y-72463892D01*
X165554210Y-72415940D01*
X165554210Y-72363223D01*
X165576110Y-72315270D01*
X165653352Y-72212089D01*
X165703597Y-72077375D01*
X165710000Y-72017824D01*
X165710000Y-71370000D01*
X161210000Y-71370000D01*
X161210000Y-72017824D01*
X161216402Y-72077375D01*
X161266647Y-72212089D01*
X161343890Y-72315272D01*
X161365789Y-72363225D01*
X161365789Y-72415941D01*
X161343890Y-72463894D01*
X161266204Y-72567668D01*
X161215909Y-72702516D01*
X161209500Y-72762131D01*
X161209500Y-73595616D01*
X161209028Y-73606424D01*
X161204340Y-73660000D01*
X161209028Y-73713576D01*
X161209500Y-73724384D01*
X161209500Y-74004292D01*
X161209501Y-74175500D01*
X161192888Y-74237500D01*
X161147501Y-74282887D01*
X161085501Y-74299500D01*
X161024151Y-74299500D01*
X161016665Y-74299274D01*
X161014385Y-74299136D01*
X160958912Y-74295780D01*
X160902011Y-74306207D01*
X160894612Y-74307333D01*
X160837157Y-74314310D01*
X160828383Y-74317638D01*
X160806776Y-74323661D01*
X160797562Y-74325349D01*
X160744782Y-74349102D01*
X160737868Y-74351965D01*
X160683775Y-74372481D01*
X160676058Y-74377807D01*
X160656524Y-74388824D01*
X160647973Y-74392673D01*
X160602417Y-74428363D01*
X160596387Y-74432800D01*
X160548770Y-74465668D01*
X160510406Y-74508972D01*
X160505273Y-74514424D01*
X158891084Y-76128613D01*
X158844357Y-76157974D01*
X158789518Y-76164152D01*
X158737429Y-76145924D01*
X158698408Y-76106902D01*
X158694503Y-76100688D01*
X158675500Y-76034720D01*
X158675500Y-68331163D01*
X158684939Y-68283710D01*
X158711819Y-68243482D01*
X160243482Y-66711819D01*
X160283710Y-66684939D01*
X160331163Y-66675500D01*
X161085501Y-66675500D01*
X161147501Y-66692113D01*
G37*
G04 #@! TD.AperFunction*
G04 #@! TA.AperFunction,Conductor*
G36*
X169762500Y-41332113D02*
G01*
X169807887Y-41377500D01*
X169824500Y-41439500D01*
X169824500Y-42475849D01*
X169824274Y-42483336D01*
X169820780Y-42541087D01*
X169831207Y-42597987D01*
X169832334Y-42605386D01*
X169839312Y-42662847D01*
X169842636Y-42671612D01*
X169848660Y-42693223D01*
X169850348Y-42702436D01*
X169862643Y-42729754D01*
X169874101Y-42755215D01*
X169876960Y-42762117D01*
X169897482Y-42816227D01*
X169902804Y-42823938D01*
X169913824Y-42843476D01*
X169917673Y-42852026D01*
X169917674Y-42852028D01*
X169931219Y-42869316D01*
X169953360Y-42897577D01*
X169957800Y-42903611D01*
X169990668Y-42951229D01*
X170033989Y-42989608D01*
X170039426Y-42994727D01*
X171699719Y-44655020D01*
X171731812Y-44710606D01*
X171731814Y-44774791D01*
X171699723Y-44830379D01*
X171681504Y-44848599D01*
X171545965Y-45042170D01*
X171446097Y-45256336D01*
X171384936Y-45484592D01*
X171364340Y-45720000D01*
X171385821Y-45965525D01*
X171378815Y-46018743D01*
X171349974Y-46064013D01*
X170827957Y-46586030D01*
X170814327Y-46597810D01*
X170795940Y-46611499D01*
X170765264Y-46648056D01*
X170757968Y-46656019D01*
X170754316Y-46659671D01*
X170735784Y-46683108D01*
X170733510Y-46685900D01*
X170685938Y-46742595D01*
X170676161Y-46757941D01*
X170644899Y-46824982D01*
X170643329Y-46828226D01*
X170610119Y-46894354D01*
X170604147Y-46911538D01*
X170589185Y-46983989D01*
X170588406Y-46987504D01*
X170571342Y-47059508D01*
X170569495Y-47077585D01*
X170569540Y-47079137D01*
X170569540Y-47079138D01*
X170571357Y-47141613D01*
X170571648Y-47151582D01*
X170571700Y-47155188D01*
X170571700Y-47520939D01*
X170555591Y-47582059D01*
X170511448Y-47627298D01*
X170450743Y-47644902D01*
X170389249Y-47630297D01*
X170365501Y-47617604D01*
X170365500Y-47617603D01*
X170365497Y-47617602D01*
X170186332Y-47563253D01*
X170093165Y-47554076D01*
X170000000Y-47544901D01*
X169999999Y-47544901D01*
X169813667Y-47563253D01*
X169634499Y-47617603D01*
X169469375Y-47705863D01*
X169324643Y-47824643D01*
X169205864Y-47969374D01*
X169190193Y-47998693D01*
X169151068Y-48042431D01*
X169096214Y-48063282D01*
X169037916Y-48056574D01*
X168989230Y-48023812D01*
X168961060Y-47972332D01*
X168960268Y-47969375D01*
X168913903Y-47796337D01*
X168814035Y-47582171D01*
X168678495Y-47388599D01*
X168556180Y-47266284D01*
X168524885Y-47213539D01*
X168522696Y-47152246D01*
X168550149Y-47097401D01*
X168600528Y-47062422D01*
X168732089Y-47013352D01*
X168847188Y-46927188D01*
X168933352Y-46812089D01*
X168983597Y-46677375D01*
X168990000Y-46617824D01*
X168990000Y-45970000D01*
X166290000Y-45970000D01*
X166290000Y-46617824D01*
X166296402Y-46677375D01*
X166346647Y-46812089D01*
X166432811Y-46927188D01*
X166547911Y-47013352D01*
X166679471Y-47062422D01*
X166729850Y-47097401D01*
X166757303Y-47152246D01*
X166755114Y-47213539D01*
X166723819Y-47266285D01*
X166601505Y-47388598D01*
X166571483Y-47431474D01*
X166536366Y-47481625D01*
X166492051Y-47520489D01*
X166434794Y-47534500D01*
X165834499Y-47534500D01*
X165772499Y-47517887D01*
X165727112Y-47472500D01*
X165710499Y-47410500D01*
X165710499Y-47362130D01*
X165710499Y-47362127D01*
X165704091Y-47302517D01*
X165653796Y-47167669D01*
X165576108Y-47063892D01*
X165554210Y-47015940D01*
X165554210Y-46963223D01*
X165576110Y-46915270D01*
X165653352Y-46812089D01*
X165703597Y-46677375D01*
X165710000Y-46617824D01*
X165710000Y-45970000D01*
X161210000Y-45970000D01*
X161210000Y-46617824D01*
X161216402Y-46677375D01*
X161266647Y-46812089D01*
X161343890Y-46915272D01*
X161365789Y-46963225D01*
X161365789Y-47015941D01*
X161343890Y-47063894D01*
X161266204Y-47167668D01*
X161215909Y-47302516D01*
X161209500Y-47362131D01*
X161209500Y-48195616D01*
X161209028Y-48206424D01*
X161204340Y-48260000D01*
X161209028Y-48313576D01*
X161209500Y-48324384D01*
X161209500Y-49157869D01*
X161215909Y-49217484D01*
X161266204Y-49352332D01*
X161343577Y-49455690D01*
X161365476Y-49503642D01*
X161365476Y-49556358D01*
X161343577Y-49604310D01*
X161266205Y-49707666D01*
X161215909Y-49842516D01*
X161209500Y-49902131D01*
X161209500Y-50735616D01*
X161209028Y-50746424D01*
X161204340Y-50800000D01*
X161209028Y-50853576D01*
X161209500Y-50864384D01*
X161209500Y-51697869D01*
X161215909Y-51757483D01*
X161266204Y-51892331D01*
X161323168Y-51968425D01*
X161343578Y-51995689D01*
X161365477Y-52043642D01*
X161365477Y-52096358D01*
X161343578Y-52144311D01*
X161266204Y-52247668D01*
X161215909Y-52382516D01*
X161209500Y-52442131D01*
X161209500Y-53275616D01*
X161209028Y-53286424D01*
X161204340Y-53340000D01*
X161209028Y-53393576D01*
X161209500Y-53404384D01*
X161209500Y-54237869D01*
X161215909Y-54297484D01*
X161266204Y-54432332D01*
X161343577Y-54535690D01*
X161365476Y-54583642D01*
X161365476Y-54636358D01*
X161343577Y-54684310D01*
X161266205Y-54787666D01*
X161215909Y-54922516D01*
X161209500Y-54982131D01*
X161209500Y-55815616D01*
X161209028Y-55826424D01*
X161204340Y-55880000D01*
X161209028Y-55933576D01*
X161209500Y-55944384D01*
X161209500Y-56777869D01*
X161215909Y-56837484D01*
X161266204Y-56972332D01*
X161343577Y-57075690D01*
X161365476Y-57123642D01*
X161365476Y-57176358D01*
X161343577Y-57224310D01*
X161266205Y-57327666D01*
X161215909Y-57462516D01*
X161209500Y-57522131D01*
X161209500Y-58763836D01*
X161200061Y-58811289D01*
X161173180Y-58851517D01*
X159208092Y-60816607D01*
X157387181Y-62637518D01*
X157337818Y-62667768D01*
X157280102Y-62672310D01*
X157226615Y-62650155D01*
X157189015Y-62606132D01*
X157175500Y-62549837D01*
X157175500Y-49571163D01*
X157184939Y-49523710D01*
X157211819Y-49483482D01*
X159177414Y-47517887D01*
X161188981Y-45506318D01*
X161229209Y-45479439D01*
X161276662Y-45470000D01*
X165710000Y-45470000D01*
X165710000Y-44822176D01*
X165703597Y-44762624D01*
X165653352Y-44627911D01*
X165576109Y-44524727D01*
X165554210Y-44476774D01*
X165554210Y-44424057D01*
X165576107Y-44376109D01*
X165653796Y-44272331D01*
X165704091Y-44137483D01*
X165710500Y-44077873D01*
X165710500Y-44029500D01*
X165727113Y-43967500D01*
X165772500Y-43922113D01*
X165834500Y-43905500D01*
X166434794Y-43905500D01*
X166492051Y-43919511D01*
X166536366Y-43958374D01*
X166601505Y-44051401D01*
X166601507Y-44051403D01*
X166601508Y-44051404D01*
X166723818Y-44173714D01*
X166755114Y-44226460D01*
X166757303Y-44287753D01*
X166729850Y-44342597D01*
X166679472Y-44377576D01*
X166547913Y-44426646D01*
X166432811Y-44512811D01*
X166346647Y-44627910D01*
X166296402Y-44762624D01*
X166290000Y-44822176D01*
X166290000Y-45470000D01*
X168990000Y-45470000D01*
X168990000Y-44822176D01*
X168983597Y-44762624D01*
X168933352Y-44627910D01*
X168847188Y-44512811D01*
X168732088Y-44426647D01*
X168600528Y-44377577D01*
X168550149Y-44342597D01*
X168522696Y-44287752D01*
X168524885Y-44226460D01*
X168556178Y-44173717D01*
X168678495Y-44051401D01*
X168814035Y-43857830D01*
X168913903Y-43643663D01*
X168975063Y-43415408D01*
X168995659Y-43180000D01*
X168975063Y-42944592D01*
X168913903Y-42716337D01*
X168814035Y-42502171D01*
X168678495Y-42308599D01*
X168511401Y-42141505D01*
X168325839Y-42011573D01*
X168286975Y-41967257D01*
X168272964Y-41910000D01*
X168286975Y-41852743D01*
X168325839Y-41808426D01*
X168511401Y-41678495D01*
X168678495Y-41511401D01*
X168778642Y-41368375D01*
X168822960Y-41329511D01*
X168880217Y-41315500D01*
X169700500Y-41315500D01*
X169762500Y-41332113D01*
G37*
G04 #@! TD.AperFunction*
G04 #@! TA.AperFunction,Conductor*
G36*
X161349060Y-39215750D02*
G01*
X161393949Y-39257542D01*
X161413319Y-39315734D01*
X161402431Y-39376091D01*
X161363949Y-39423848D01*
X161352454Y-39432453D01*
X161266204Y-39547668D01*
X161215909Y-39682515D01*
X161215909Y-39682517D01*
X161209878Y-39738618D01*
X161209500Y-39742131D01*
X161209500Y-40575616D01*
X161209028Y-40586424D01*
X161204340Y-40640000D01*
X161209028Y-40693576D01*
X161209500Y-40704384D01*
X161209500Y-41537869D01*
X161215909Y-41597484D01*
X161236027Y-41651423D01*
X161266204Y-41732331D01*
X161297798Y-41774535D01*
X161343577Y-41835688D01*
X161365476Y-41883641D01*
X161365476Y-41936356D01*
X161343578Y-41984309D01*
X161266204Y-42087669D01*
X161215909Y-42222516D01*
X161209500Y-42282131D01*
X161209500Y-43115616D01*
X161209028Y-43126424D01*
X161204340Y-43180000D01*
X161209028Y-43233576D01*
X161209500Y-43244384D01*
X161209500Y-43523835D01*
X161200061Y-43571288D01*
X161173181Y-43611516D01*
X156039424Y-48745273D01*
X156033972Y-48750406D01*
X155990668Y-48788770D01*
X155957800Y-48836387D01*
X155953363Y-48842417D01*
X155917673Y-48887973D01*
X155913824Y-48896524D01*
X155902807Y-48916058D01*
X155897481Y-48923775D01*
X155876965Y-48977868D01*
X155874102Y-48984782D01*
X155850349Y-49037562D01*
X155848661Y-49046776D01*
X155842638Y-49068383D01*
X155839310Y-49077157D01*
X155832333Y-49134612D01*
X155831207Y-49142011D01*
X155820780Y-49198912D01*
X155824274Y-49256664D01*
X155824500Y-49264151D01*
X155824500Y-61575613D01*
X155810985Y-61631908D01*
X155773385Y-61675931D01*
X155719898Y-61698086D01*
X155662182Y-61693544D01*
X155612819Y-61663294D01*
X149261320Y-55311795D01*
X149234440Y-55271567D01*
X149225001Y-55224114D01*
X149225001Y-51200000D01*
X150100000Y-51200000D01*
X150100000Y-53400000D01*
X152300000Y-53400000D01*
X152300000Y-51200000D01*
X150100000Y-51200000D01*
X149225001Y-51200000D01*
X149225001Y-48700000D01*
X150100000Y-48700000D01*
X150100000Y-50900000D01*
X152300000Y-50900000D01*
X152300000Y-48700000D01*
X150100000Y-48700000D01*
X149225001Y-48700000D01*
X149225001Y-46200000D01*
X150100000Y-46200000D01*
X150100000Y-48400000D01*
X152300000Y-48400000D01*
X152300000Y-46200000D01*
X150100000Y-46200000D01*
X149225001Y-46200000D01*
X149225001Y-44433646D01*
X149225227Y-44426159D01*
X149226646Y-44402698D01*
X149228720Y-44368416D01*
X149218286Y-44311483D01*
X149217164Y-44304104D01*
X149210189Y-44246656D01*
X149206864Y-44237890D01*
X149200838Y-44216268D01*
X149199151Y-44207062D01*
X149193468Y-44194435D01*
X149175404Y-44154299D01*
X149172540Y-44147384D01*
X149152020Y-44093276D01*
X149146695Y-44085562D01*
X149135668Y-44066011D01*
X149131826Y-44057473D01*
X149096128Y-44011908D01*
X149091712Y-44005906D01*
X149058833Y-43958272D01*
X149054848Y-43954742D01*
X149015536Y-43919914D01*
X149010082Y-43914780D01*
X147589461Y-42494159D01*
X146166817Y-41071516D01*
X146139938Y-41031289D01*
X146130499Y-40983836D01*
X146130499Y-40704386D01*
X146130971Y-40693577D01*
X146135659Y-40639999D01*
X146130971Y-40586422D01*
X146130499Y-40575613D01*
X146130499Y-39742130D01*
X146130499Y-39742127D01*
X146124091Y-39682517D01*
X146073796Y-39547669D01*
X145987546Y-39432454D01*
X145987543Y-39432452D01*
X145976229Y-39423982D01*
X145937745Y-39376226D01*
X145926856Y-39315869D01*
X145946224Y-39257676D01*
X145991113Y-39215883D01*
X146050536Y-39200715D01*
X150445693Y-39200677D01*
X150503076Y-39214754D01*
X150547432Y-39253791D01*
X150568686Y-39308923D01*
X150562013Y-39367632D01*
X150528928Y-39416588D01*
X150486077Y-39439738D01*
X150486367Y-39440378D01*
X150477348Y-39444454D01*
X150476942Y-39444674D01*
X150476754Y-39444722D01*
X150433361Y-39464337D01*
X150422554Y-39468624D01*
X150380496Y-39483063D01*
X150326395Y-39512341D01*
X150318460Y-39516276D01*
X150259509Y-39542925D01*
X150222882Y-39567679D01*
X150212470Y-39573994D01*
X150176373Y-39593529D01*
X150125124Y-39633417D01*
X150118402Y-39638296D01*
X150061999Y-39676418D01*
X150032549Y-39704643D01*
X150022916Y-39712970D01*
X149993215Y-39736088D01*
X149971217Y-39759984D01*
X149929798Y-39789556D01*
X149905309Y-39794690D01*
X149897479Y-39802520D01*
X149893766Y-39825648D01*
X149875692Y-39860564D01*
X149874909Y-39861624D01*
X149867655Y-39871431D01*
X149859196Y-39881670D01*
X149836023Y-39906843D01*
X149796782Y-39966905D01*
X149792671Y-39972815D01*
X149748119Y-40033054D01*
X149732826Y-40063384D01*
X149725917Y-40075371D01*
X149709077Y-40101147D01*
X149678887Y-40169974D01*
X149676054Y-40175987D01*
X149640792Y-40245925D01*
X149631847Y-40275131D01*
X149626842Y-40288620D01*
X149615844Y-40313695D01*
X149596552Y-40389871D01*
X149594912Y-40395736D01*
X149570983Y-40473875D01*
X149567538Y-40500775D01*
X149564750Y-40515455D01*
X149558865Y-40538697D01*
X149552097Y-40620377D01*
X149551517Y-40625886D01*
X149540701Y-40710348D01*
X149541707Y-40734025D01*
X149541396Y-40749520D01*
X149539699Y-40769998D01*
X149546750Y-40855097D01*
X149547061Y-40860071D01*
X149550820Y-40948532D01*
X149555092Y-40968356D01*
X149557451Y-40984237D01*
X149558865Y-41001301D01*
X149580661Y-41087371D01*
X149581669Y-41091676D01*
X149593630Y-41147171D01*
X149601046Y-41181581D01*
X149607333Y-41197226D01*
X149612479Y-41213017D01*
X149615843Y-41226301D01*
X149652875Y-41310727D01*
X149654377Y-41314301D01*
X149689936Y-41402790D01*
X149696979Y-41414229D01*
X149704945Y-41429431D01*
X149709076Y-41438849D01*
X149761366Y-41518886D01*
X149763147Y-41521693D01*
X149814931Y-41605796D01*
X149821539Y-41613303D01*
X149832269Y-41627410D01*
X149836022Y-41633155D01*
X149867230Y-41667056D01*
X149891517Y-41705963D01*
X149900000Y-41751038D01*
X149900000Y-44700000D01*
X150325163Y-44700000D01*
X150372617Y-44709439D01*
X150412842Y-44736317D01*
X150430349Y-44753824D01*
X150438126Y-44761601D01*
X150467330Y-44782049D01*
X150477793Y-44790244D01*
X150490608Y-44801440D01*
X150507004Y-44815765D01*
X150560940Y-44847990D01*
X150568435Y-44852843D01*
X150617361Y-44887102D01*
X150627490Y-44891825D01*
X150652799Y-44903628D01*
X150663991Y-44909560D01*
X150700236Y-44931215D01*
X150700239Y-44931216D01*
X150755839Y-44952083D01*
X150764669Y-44955792D01*
X150809003Y-44976466D01*
X150815670Y-44979575D01*
X150856757Y-44990584D01*
X150868235Y-44994266D01*
X150868859Y-44994500D01*
X150910976Y-45010307D01*
X150966024Y-45020296D01*
X150975970Y-45022527D01*
X151027023Y-45036207D01*
X151071133Y-45040065D01*
X151072814Y-45040213D01*
X151084148Y-45041733D01*
X151132453Y-45050500D01*
X151184985Y-45050500D01*
X151195791Y-45050971D01*
X151218447Y-45052954D01*
X151244999Y-45055277D01*
X151244999Y-45055276D01*
X151245000Y-45055277D01*
X151294208Y-45050971D01*
X151297511Y-45050827D01*
X151301145Y-45050500D01*
X151301155Y-45050500D01*
X151355172Y-45045638D01*
X151355180Y-45045727D01*
X151355479Y-45045611D01*
X151462977Y-45036207D01*
X151462977Y-45036206D01*
X151467663Y-45035797D01*
X151469183Y-45035377D01*
X151469188Y-45035377D01*
X151572726Y-45006800D01*
X151573413Y-45006614D01*
X151619500Y-44994266D01*
X151679377Y-44978223D01*
X151684148Y-44976466D01*
X151686166Y-44975494D01*
X151686170Y-44975493D01*
X151779951Y-44930329D01*
X151781007Y-44929830D01*
X151872639Y-44887102D01*
X151872645Y-44887097D01*
X151874392Y-44886283D01*
X151888155Y-44878222D01*
X151888973Y-44877829D01*
X151970324Y-44818722D01*
X151972043Y-44817497D01*
X152051871Y-44761603D01*
X152051873Y-44761600D01*
X152051877Y-44761598D01*
X152052746Y-44760728D01*
X152067557Y-44748080D01*
X152067905Y-44747826D01*
X152071078Y-44745522D01*
X152077975Y-44738307D01*
X152118867Y-44709979D01*
X152167602Y-44700000D01*
X155175163Y-44700000D01*
X155222617Y-44709439D01*
X155262842Y-44736317D01*
X155280349Y-44753824D01*
X155288126Y-44761601D01*
X155317330Y-44782049D01*
X155327793Y-44790244D01*
X155340608Y-44801440D01*
X155357004Y-44815765D01*
X155410940Y-44847990D01*
X155418435Y-44852843D01*
X155467361Y-44887102D01*
X155477490Y-44891825D01*
X155502799Y-44903628D01*
X155513991Y-44909560D01*
X155550236Y-44931215D01*
X155550239Y-44931216D01*
X155605839Y-44952083D01*
X155614669Y-44955792D01*
X155659003Y-44976466D01*
X155665670Y-44979575D01*
X155706757Y-44990584D01*
X155718235Y-44994266D01*
X155718859Y-44994500D01*
X155760976Y-45010307D01*
X155816024Y-45020296D01*
X155825970Y-45022527D01*
X155877023Y-45036207D01*
X155921133Y-45040065D01*
X155922814Y-45040213D01*
X155934148Y-45041733D01*
X155982453Y-45050500D01*
X156034985Y-45050500D01*
X156045791Y-45050971D01*
X156068447Y-45052954D01*
X156094999Y-45055277D01*
X156094999Y-45055276D01*
X156095000Y-45055277D01*
X156144208Y-45050971D01*
X156147511Y-45050827D01*
X156151145Y-45050500D01*
X156151155Y-45050500D01*
X156205172Y-45045638D01*
X156205180Y-45045727D01*
X156205479Y-45045611D01*
X156312977Y-45036207D01*
X156312977Y-45036206D01*
X156317663Y-45035797D01*
X156319183Y-45035377D01*
X156319188Y-45035377D01*
X156422726Y-45006800D01*
X156423413Y-45006614D01*
X156469500Y-44994266D01*
X156529377Y-44978223D01*
X156534148Y-44976466D01*
X156536166Y-44975494D01*
X156536170Y-44975493D01*
X156629951Y-44930329D01*
X156631007Y-44929830D01*
X156722639Y-44887102D01*
X156722645Y-44887097D01*
X156724392Y-44886283D01*
X156738155Y-44878222D01*
X156738973Y-44877829D01*
X156820324Y-44818722D01*
X156822043Y-44817497D01*
X156901871Y-44761603D01*
X156901873Y-44761600D01*
X156901877Y-44761598D01*
X156902746Y-44760728D01*
X156917557Y-44748080D01*
X156917905Y-44747826D01*
X156921078Y-44745522D01*
X156927975Y-44738307D01*
X156968867Y-44709979D01*
X157017602Y-44700000D01*
X157500000Y-44700000D01*
X157500000Y-41676159D01*
X157505155Y-41640778D01*
X157520190Y-41608339D01*
X157543233Y-41573067D01*
X157547317Y-41567196D01*
X157591879Y-41506947D01*
X157607163Y-41476630D01*
X157614079Y-41464632D01*
X157617704Y-41459082D01*
X157630924Y-41438849D01*
X157661123Y-41370000D01*
X157663927Y-41364045D01*
X157699207Y-41294074D01*
X157708150Y-41264868D01*
X157713158Y-41251374D01*
X157724157Y-41226300D01*
X157743453Y-41150099D01*
X157745088Y-41144255D01*
X157769015Y-41066126D01*
X157769014Y-41066126D01*
X157769016Y-41066123D01*
X157772461Y-41039215D01*
X157775247Y-41024548D01*
X157781134Y-41001305D01*
X157787903Y-40919600D01*
X157788484Y-40914095D01*
X157790504Y-40898322D01*
X157799298Y-40829654D01*
X157798291Y-40805960D01*
X157798602Y-40790481D01*
X157800300Y-40770000D01*
X157793248Y-40684902D01*
X157792938Y-40679944D01*
X157789180Y-40591468D01*
X157784907Y-40571642D01*
X157782547Y-40555756D01*
X157781134Y-40538695D01*
X157759328Y-40452589D01*
X157758336Y-40448354D01*
X157738954Y-40358419D01*
X157732665Y-40342770D01*
X157727521Y-40326989D01*
X157724157Y-40313700D01*
X157687102Y-40229224D01*
X157685621Y-40225696D01*
X157650066Y-40137214D01*
X157650064Y-40137210D01*
X157643016Y-40125764D01*
X157635051Y-40110561D01*
X157630924Y-40101151D01*
X157578628Y-40021106D01*
X157576879Y-40018350D01*
X157525069Y-39934205D01*
X157519535Y-39925217D01*
X157520983Y-39924324D01*
X157507988Y-39902712D01*
X157500000Y-39858925D01*
X157500000Y-39800000D01*
X157463005Y-39800000D01*
X157411929Y-39788992D01*
X157369921Y-39757923D01*
X157367563Y-39755243D01*
X157362440Y-39751107D01*
X157349114Y-39738618D01*
X157346784Y-39736087D01*
X157265936Y-39673161D01*
X157264199Y-39671783D01*
X157182082Y-39605477D01*
X157179315Y-39603932D01*
X157163637Y-39593538D01*
X157163626Y-39593529D01*
X157070552Y-39543161D01*
X157069209Y-39542423D01*
X156973954Y-39489210D01*
X156973947Y-39489207D01*
X156973753Y-39489099D01*
X156962401Y-39484059D01*
X156911944Y-39466737D01*
X156856252Y-39447617D01*
X156855272Y-39447276D01*
X156848050Y-39444725D01*
X156839026Y-39441536D01*
X156783204Y-39401695D01*
X156757095Y-39338277D01*
X156768687Y-39270683D01*
X156814433Y-39219587D01*
X156880335Y-39200622D01*
X161289638Y-39200584D01*
X161349060Y-39215750D01*
G37*
G04 #@! TD.AperFunction*
G04 #@! TA.AperFunction,Conductor*
G36*
X203218238Y-39218104D02*
G01*
X203263885Y-39266595D01*
X203277863Y-39331707D01*
X203256140Y-39394661D01*
X203204982Y-39437297D01*
X203171643Y-39452302D01*
X202886881Y-39624445D01*
X202624945Y-39829660D01*
X202389660Y-40064945D01*
X202184445Y-40326881D01*
X202012302Y-40611642D01*
X201875734Y-40915083D01*
X201776745Y-41232753D01*
X201716764Y-41560057D01*
X201696672Y-41892199D01*
X201713746Y-42174451D01*
X201716764Y-42224342D01*
X201773332Y-42533025D01*
X201776745Y-42551646D01*
X201875734Y-42869316D01*
X201875736Y-42869321D01*
X201875737Y-42869323D01*
X201971492Y-43082081D01*
X202012302Y-43172757D01*
X202184445Y-43457518D01*
X202305096Y-43611517D01*
X202389658Y-43719452D01*
X202624948Y-43954742D01*
X202690230Y-44005887D01*
X202886881Y-44159954D01*
X202908615Y-44173092D01*
X202914755Y-44176804D01*
X202919548Y-44179701D01*
X202960469Y-44219966D01*
X202978868Y-44274347D01*
X202970803Y-44331187D01*
X202938001Y-44378302D01*
X202887494Y-44405594D01*
X202736335Y-44446097D01*
X202522170Y-44545965D01*
X202328598Y-44681505D01*
X202161508Y-44848595D01*
X202161505Y-44848598D01*
X202161505Y-44848599D01*
X202096366Y-44941625D01*
X202052051Y-44980489D01*
X201994794Y-44994500D01*
X199325206Y-44994500D01*
X199267949Y-44980489D01*
X199223633Y-44941625D01*
X199158495Y-44848599D01*
X198991401Y-44681505D01*
X198797830Y-44545965D01*
X198583663Y-44446097D01*
X198511070Y-44426646D01*
X198355407Y-44384936D01*
X198120000Y-44364340D01*
X197884592Y-44384936D01*
X197656336Y-44446097D01*
X197442170Y-44545965D01*
X197248598Y-44681505D01*
X197081505Y-44848598D01*
X196945965Y-45042170D01*
X196846097Y-45256336D01*
X196784936Y-45484592D01*
X196764340Y-45719999D01*
X196784936Y-45955406D01*
X196796913Y-46000105D01*
X196796913Y-46064292D01*
X196764821Y-46119877D01*
X196651515Y-46233183D01*
X196611290Y-46260061D01*
X196563837Y-46269500D01*
X189372503Y-46269500D01*
X189317659Y-46256712D01*
X189274127Y-46220987D01*
X189250886Y-46169691D01*
X189252728Y-46113407D01*
X189265963Y-46064013D01*
X189295063Y-45955408D01*
X189298964Y-45910811D01*
X189321511Y-45849653D01*
X189371962Y-45808380D01*
X189436376Y-45798397D01*
X189499999Y-45805565D01*
X189499999Y-45805564D01*
X189500000Y-45805565D01*
X189679255Y-45785368D01*
X189849522Y-45725789D01*
X190002262Y-45629816D01*
X190129816Y-45502262D01*
X190225789Y-45349522D01*
X190285368Y-45179255D01*
X190305565Y-45000000D01*
X190285368Y-44820745D01*
X190225789Y-44650478D01*
X190129816Y-44497738D01*
X190129815Y-44497737D01*
X190129814Y-44497735D01*
X190002264Y-44370185D01*
X189849519Y-44274209D01*
X189691627Y-44218960D01*
X189644901Y-44189600D01*
X189489727Y-44034426D01*
X189484608Y-44028989D01*
X189446229Y-43985668D01*
X189398611Y-43952800D01*
X189392577Y-43948360D01*
X189347028Y-43912674D01*
X189347026Y-43912673D01*
X189338476Y-43908824D01*
X189318938Y-43897804D01*
X189311228Y-43892482D01*
X189271764Y-43877515D01*
X189217784Y-43837608D01*
X189192513Y-43775416D01*
X189203357Y-43709168D01*
X189233902Y-43643665D01*
X189242517Y-43611516D01*
X189276223Y-43485719D01*
X189303514Y-43435213D01*
X189350629Y-43402411D01*
X189407468Y-43394345D01*
X189461848Y-43412743D01*
X189502114Y-43453662D01*
X189504443Y-43457515D01*
X189596642Y-43575198D01*
X189709658Y-43719452D01*
X189944948Y-43954742D01*
X190010230Y-44005887D01*
X190206881Y-44159954D01*
X190379025Y-44264018D01*
X190491643Y-44332098D01*
X190795077Y-44468663D01*
X190795082Y-44468664D01*
X190795083Y-44468665D01*
X190918930Y-44507257D01*
X191112759Y-44567656D01*
X191440058Y-44627636D01*
X191772200Y-44647727D01*
X192104342Y-44627636D01*
X192431641Y-44567656D01*
X192749323Y-44468663D01*
X193052757Y-44332098D01*
X193337518Y-44159954D01*
X193599452Y-43954742D01*
X193834742Y-43719452D01*
X194039954Y-43457518D01*
X194212098Y-43172757D01*
X194348663Y-42869323D01*
X194447656Y-42551641D01*
X194507636Y-42224342D01*
X194527727Y-41892200D01*
X194507636Y-41560058D01*
X194447656Y-41232759D01*
X194395731Y-41066126D01*
X194348665Y-40915083D01*
X194348664Y-40915082D01*
X194348663Y-40915077D01*
X194212098Y-40611643D01*
X194113368Y-40448324D01*
X194039954Y-40326881D01*
X193919412Y-40173021D01*
X193834742Y-40064948D01*
X193599452Y-39829658D01*
X193480019Y-39736088D01*
X193337518Y-39624445D01*
X193113810Y-39489210D01*
X193052757Y-39452302D01*
X193019611Y-39437384D01*
X192968453Y-39394748D01*
X192946730Y-39331795D01*
X192960707Y-39266683D01*
X193006354Y-39218192D01*
X193070499Y-39200310D01*
X203154091Y-39200223D01*
X203218238Y-39218104D01*
G37*
G04 #@! TD.AperFunction*
M02*
