M48
; DRILL file {KiCad 7.0.1} date Fri Sep  8 10:56:41 2023
; FORMAT={-:-/ absolute / metric / decimal}
; #@! TF.CreationDate,2023-09-08T10:56:41-05:00
; #@! TF.GenerationSoftware,Kicad,Pcbnew,7.0.1
; #@! TF.FileFunction,Plated,1,2,PTH
FMAT,2
METRIC
; #@! TA.AperFunction,Plated,PTH,ViaDrill
T1C0.300
; #@! TA.AperFunction,Plated,PTH,ViaDrill
T2C0.400
; #@! TA.AperFunction,Plated,PTH,ComponentDrill
T3C1.000
; #@! TA.AperFunction,Plated,PTH,ComponentDrill
T4C1.020
; #@! TA.AperFunction,Plated,PTH,ComponentDrill
T5C2.700
%
G90
G05
T1
X136.5Y-45.0
X146.812Y-80.01
X147.828Y-79.502
X153.5Y-67.0
X154.5Y-96.969
X154.5Y-99.0
X155.5Y-69.5
X155.702Y-74.676
X155.831Y-85.68
X156.083Y-86.868
X156.5Y-92.5
X156.591Y-74.676
X157.48Y-76.2
X157.892Y-79.849
X158.242Y-93.504
X158.532Y-80.328
X159.258Y-80.772
X159.385Y-93.472
X160.274Y-93.504
X161.036Y-93.218
X164.338Y-92.202
X165.735Y-93.98
X166.116Y-96.012
X166.126Y-94.678
X166.169Y-92.876
X168.402Y-91.186
X168.479Y-92.063
X169.164Y-98.298
X169.672Y-83.058
X169.76Y-50.8
X169.814Y-59.64
X170.18Y-77.47
X170.434Y-88.9
X170.5Y-58.5
X170.688Y-57.404
X171.196Y-84.328
X173.736Y-79.756
X183.642Y-91.186
X184.809Y-90.194
X187.048Y-91.544
X187.561Y-92.438
T2
X137.541Y-69.85
X137.541Y-106.172
X146.812Y-49.53
X148.082Y-59.69
X148.082Y-72.39
X153.5Y-56.704
X153.67Y-74.422
X153.67Y-84.328
X154.305Y-93.218
X157.988Y-73.406
X159.0Y-51.0
X168.0Y-100.0
X168.0Y-103.0
X168.0Y-105.5
X168.0Y-108.0
X169.609Y-48.625
X170.18Y-69.85
X195.58Y-52.832
X198.0Y-41.5
X201.549Y-99.949
X201.93Y-109.22
X202.438Y-101.854
X202.819Y-95.123
X207.391Y-99.06
T3
X139.7Y-40.64
X139.7Y-43.18
X139.7Y-45.72
X139.7Y-48.26
X139.7Y-50.8
X139.7Y-53.34
X139.7Y-55.88
X139.7Y-58.42
X139.7Y-60.96
X139.7Y-63.5
X139.7Y-66.04
X139.7Y-68.58
X139.7Y-71.12
X139.7Y-73.66
X139.7Y-76.2
X139.7Y-78.74
X139.7Y-81.28
X139.7Y-83.82
X139.7Y-86.36
X139.7Y-88.9
X143.256Y-96.012
X145.796Y-96.012
X148.336Y-96.012
X167.64Y-40.64
X167.64Y-43.18
X167.64Y-45.72
X167.64Y-48.26
X167.64Y-50.8
X167.64Y-53.34
X167.64Y-55.88
X167.64Y-58.42
X167.64Y-60.96
X167.64Y-63.5
X167.64Y-66.04
X167.64Y-68.58
X167.64Y-71.12
X167.64Y-73.66
X167.64Y-76.2
X167.64Y-78.74
X167.64Y-81.28
X167.64Y-83.82
X167.64Y-86.36
X167.64Y-88.9
X172.695Y-83.82
X172.72Y-45.72
X172.72Y-48.26
X172.72Y-50.8
X172.72Y-53.34
X172.72Y-55.88
X172.72Y-58.42
X172.72Y-60.96
X172.72Y-63.5
X172.72Y-66.04
X172.72Y-68.58
X172.72Y-71.12
X172.72Y-73.66
X172.72Y-76.2
X172.72Y-78.74
X172.72Y-81.28
X172.72Y-93.98
X172.72Y-96.52
X172.72Y-99.06
X172.72Y-101.6
X172.72Y-104.14
X172.72Y-106.68
X172.72Y-109.22
X175.26Y-45.72
X175.26Y-48.26
X175.26Y-50.8
X175.26Y-53.34
X175.26Y-55.88
X175.26Y-58.42
X175.26Y-60.96
X175.26Y-63.5
X175.26Y-66.04
X175.26Y-68.58
X175.26Y-71.12
X175.26Y-73.66
X175.26Y-76.2
X175.26Y-78.74
X175.26Y-81.28
X175.26Y-83.82
X175.26Y-96.52
X175.26Y-99.06
X175.26Y-101.6
X175.26Y-104.14
X175.26Y-106.68
X175.26Y-109.22
X175.3Y-93.98
X177.8Y-40.64
X177.8Y-43.18
X177.8Y-45.72
X177.8Y-48.26
X177.8Y-50.8
X177.8Y-53.34
X177.8Y-55.88
X177.8Y-58.42
X177.8Y-60.96
X177.8Y-63.5
X177.8Y-66.04
X177.8Y-68.58
X177.8Y-71.12
X177.8Y-73.66
X177.8Y-76.2
X177.8Y-78.74
X177.8Y-81.28
X177.8Y-83.82
X177.8Y-86.36
X177.8Y-88.9
X177.8Y-93.98
X177.8Y-96.52
X177.8Y-99.06
X177.8Y-101.6
X177.8Y-104.14
X177.8Y-106.68
X177.8Y-109.22
X180.34Y-40.64
X180.34Y-43.18
X180.34Y-45.72
X180.34Y-48.26
X180.34Y-50.8
X180.34Y-53.34
X180.34Y-55.88
X180.34Y-58.42
X180.34Y-60.96
X180.34Y-63.5
X180.34Y-66.04
X180.34Y-68.58
X180.34Y-71.12
X180.34Y-73.66
X180.34Y-76.2
X180.34Y-78.74
X180.34Y-81.28
X180.34Y-83.82
X180.34Y-86.36
X180.34Y-88.9
X180.34Y-93.98
X180.34Y-96.52
X180.34Y-99.06
X180.34Y-101.6
X180.34Y-104.14
X180.34Y-106.68
X180.34Y-109.22
X182.88Y-40.64
X182.88Y-43.18
X182.88Y-45.72
X182.88Y-48.26
X182.88Y-50.8
X182.88Y-53.34
X182.88Y-55.88
X182.88Y-58.42
X182.88Y-60.96
X182.88Y-63.5
X182.88Y-66.04
X182.88Y-68.58
X182.88Y-71.12
X182.88Y-73.66
X182.88Y-76.2
X182.88Y-78.74
X182.88Y-81.28
X182.88Y-83.82
X182.88Y-86.36
X182.88Y-88.9
X182.88Y-93.98
X182.88Y-96.52
X182.88Y-99.06
X182.88Y-101.6
X182.88Y-104.14
X182.88Y-106.68
X182.88Y-109.22
X185.42Y-40.64
X185.42Y-43.18
X185.42Y-45.72
X185.42Y-48.26
X185.42Y-50.8
X185.42Y-53.34
X185.42Y-55.88
X185.42Y-58.42
X185.42Y-60.96
X185.42Y-63.5
X185.42Y-66.04
X185.42Y-68.58
X185.42Y-71.12
X185.42Y-73.66
X185.42Y-76.2
X185.42Y-78.74
X185.42Y-81.28
X185.42Y-83.82
X185.42Y-86.36
X185.42Y-88.9
X185.42Y-93.98
X185.42Y-96.52
X185.42Y-99.06
X185.42Y-101.6
X185.42Y-104.14
X185.42Y-106.68
X185.42Y-109.22
X187.96Y-40.64
X187.96Y-43.18
X187.96Y-45.72
X187.96Y-48.26
X187.96Y-50.8
X187.96Y-53.34
X187.96Y-55.88
X187.96Y-58.42
X187.96Y-60.96
X187.96Y-63.5
X187.96Y-66.04
X187.96Y-68.58
X187.96Y-71.12
X187.96Y-73.66
X187.96Y-76.2
X187.96Y-78.74
X187.96Y-81.28
X187.96Y-83.82
X187.96Y-86.36
X187.96Y-88.9
X187.96Y-93.98
X187.96Y-96.52
X187.96Y-99.06
X187.96Y-101.6
X187.96Y-104.14
X187.96Y-106.68
X187.96Y-109.22
X190.5Y-45.72
X190.5Y-48.26
X190.5Y-50.8
X190.5Y-53.34
X190.5Y-55.88
X190.5Y-58.42
X190.5Y-60.96
X190.5Y-63.5
X190.5Y-66.04
X190.5Y-68.58
X190.5Y-71.12
X190.5Y-73.66
X190.5Y-76.2
X190.5Y-78.74
X190.5Y-81.28
X190.5Y-83.82
X190.5Y-93.98
X190.5Y-96.52
X190.5Y-99.06
X190.5Y-101.6
X190.5Y-104.14
X190.5Y-106.68
X190.5Y-109.22
X193.04Y-45.72
X193.04Y-48.26
X193.04Y-50.8
X193.04Y-53.34
X193.04Y-55.88
X193.04Y-58.42
X193.04Y-60.96
X193.04Y-63.5
X193.04Y-66.04
X193.04Y-68.58
X193.04Y-71.12
X193.04Y-73.66
X193.04Y-76.2
X193.04Y-78.74
X193.04Y-81.28
X193.04Y-83.82
X193.04Y-93.98
X193.04Y-96.52
X193.04Y-99.06
X193.04Y-101.6
X193.04Y-104.14
X193.04Y-106.68
X193.04Y-109.22
X198.12Y-45.72
X198.12Y-48.26
X198.12Y-50.8
X198.12Y-53.34
X198.12Y-55.88
X198.12Y-58.42
X198.12Y-60.96
X198.12Y-63.5
X198.12Y-66.04
X198.12Y-68.58
X198.12Y-71.12
X198.12Y-73.66
X198.12Y-76.2
X198.12Y-78.74
X198.12Y-81.28
X198.12Y-83.82
X203.175Y-83.82
X203.2Y-45.72
X203.2Y-48.26
X203.2Y-50.8
X203.2Y-53.34
X203.2Y-55.88
X203.2Y-58.42
X203.2Y-60.96
X203.2Y-63.5
X203.2Y-66.04
X203.2Y-68.58
X203.2Y-71.12
X203.2Y-73.66
X203.2Y-76.2
X203.2Y-78.74
X203.2Y-81.28
X205.74Y-45.72
X205.74Y-48.26
X205.74Y-50.8
X205.74Y-53.34
X205.74Y-55.88
X205.74Y-58.42
X205.74Y-60.96
X205.74Y-63.5
X205.74Y-66.04
X205.74Y-68.58
X205.74Y-71.12
X205.74Y-73.66
X205.74Y-76.2
X205.74Y-78.74
X205.74Y-81.28
X205.74Y-83.82
X208.28Y-40.64
X208.28Y-43.18
X208.28Y-45.72
X208.28Y-48.26
X208.28Y-50.8
X208.28Y-53.34
X208.28Y-55.88
X208.28Y-58.42
X208.28Y-60.96
X208.28Y-63.5
X208.28Y-66.04
X208.28Y-68.58
X208.28Y-71.12
X208.28Y-73.66
X208.28Y-76.2
X208.28Y-78.74
X208.28Y-81.28
X208.28Y-83.82
X208.28Y-86.36
X208.28Y-88.9
X210.82Y-40.64
X210.82Y-43.18
X210.82Y-45.72
X210.82Y-48.26
X210.82Y-50.8
X210.82Y-53.34
X210.82Y-55.88
X210.82Y-58.42
X210.82Y-60.96
X210.82Y-63.5
X210.82Y-66.04
X210.82Y-68.58
X210.82Y-71.12
X210.82Y-73.66
X210.82Y-76.2
X210.82Y-78.74
X210.82Y-81.28
X210.82Y-83.82
X210.82Y-86.36
X210.82Y-88.9
X213.36Y-40.64
X213.36Y-43.18
X213.36Y-45.72
X213.36Y-48.26
X213.36Y-50.8
X213.36Y-53.34
X213.36Y-55.88
X213.36Y-58.42
X213.36Y-60.96
X213.36Y-63.5
X213.36Y-66.04
X213.36Y-68.58
X213.36Y-71.12
X213.36Y-73.66
X213.36Y-76.2
X213.36Y-78.74
X213.36Y-81.28
X213.36Y-83.82
X213.36Y-86.36
X213.36Y-88.9
X215.9Y-40.64
X215.9Y-43.18
X215.9Y-45.72
X215.9Y-48.26
X215.9Y-50.8
X215.9Y-53.34
X215.9Y-55.88
X215.9Y-58.42
X215.9Y-60.96
X215.9Y-63.5
X215.9Y-66.04
X215.9Y-68.58
X215.9Y-71.12
X215.9Y-73.66
X215.9Y-76.2
X215.9Y-78.74
X215.9Y-81.28
X215.9Y-83.82
X215.9Y-86.36
X215.9Y-88.9
X215.9Y-99.06
X215.9Y-101.6
X215.9Y-104.14
X215.9Y-106.68
X215.9Y-109.22
X218.44Y-40.64
X218.44Y-43.18
X218.44Y-45.72
X218.44Y-48.26
X218.44Y-50.8
X218.44Y-53.34
X218.44Y-55.88
X218.44Y-58.42
X218.44Y-60.96
X218.44Y-63.5
X218.44Y-66.04
X218.44Y-68.58
X218.44Y-71.12
X218.44Y-73.66
X218.44Y-76.2
X218.44Y-78.74
X218.44Y-81.28
X218.44Y-83.82
X218.44Y-86.36
X218.44Y-88.9
X218.44Y-99.06
X218.44Y-101.6
X218.44Y-104.14
X218.44Y-106.68
X218.44Y-109.22
X220.98Y-45.72
X220.98Y-48.26
X220.98Y-50.8
X220.98Y-53.34
X220.98Y-55.88
X220.98Y-58.42
X220.98Y-60.96
X220.98Y-63.5
X220.98Y-66.04
X220.98Y-68.58
X220.98Y-71.12
X220.98Y-73.66
X220.98Y-76.2
X220.98Y-78.74
X220.98Y-81.28
X220.98Y-83.82
X220.98Y-99.06
X220.98Y-101.6
X220.98Y-104.14
X220.98Y-106.68
X220.98Y-109.22
X223.52Y-45.72
X223.52Y-48.26
X223.52Y-50.8
X223.52Y-53.34
X223.52Y-55.88
X223.52Y-58.42
X223.52Y-60.96
X223.52Y-63.5
X223.52Y-66.04
X223.52Y-68.58
X223.52Y-71.12
X223.52Y-73.66
X223.52Y-76.2
X223.52Y-78.74
X223.52Y-81.28
X223.52Y-83.82
X223.52Y-99.06
X223.52Y-101.6
X223.52Y-104.14
X223.52Y-106.68
X223.52Y-109.22
X228.6Y-55.88
X228.6Y-58.42
X228.6Y-60.96
X228.6Y-63.5
X228.6Y-66.04
X228.6Y-68.58
X228.6Y-71.12
X228.6Y-73.66
X228.6Y-76.2
X228.6Y-78.74
X228.6Y-81.28
X228.6Y-83.82
X228.6Y-93.98
X228.6Y-96.52
T4
X144.78Y-40.64
X144.78Y-43.18
X144.78Y-45.72
X144.78Y-48.26
X144.78Y-50.8
X144.78Y-53.34
X144.78Y-55.88
X144.78Y-58.42
X144.78Y-60.96
X144.78Y-63.5
X144.78Y-66.04
X144.78Y-68.58
X144.78Y-71.12
X144.78Y-73.66
X144.78Y-76.2
X144.78Y-78.74
X144.78Y-81.28
X144.78Y-83.82
X144.78Y-86.36
X144.78Y-88.9
X151.13Y-88.67
X153.67Y-88.67
X156.21Y-88.67
X162.56Y-40.64
X162.56Y-43.18
X162.56Y-45.72
X162.56Y-48.26
X162.56Y-50.8
X162.56Y-53.34
X162.56Y-55.88
X162.56Y-58.42
X162.56Y-60.96
X162.56Y-63.5
X162.56Y-66.04
X162.56Y-68.58
X162.56Y-71.12
X162.56Y-73.66
X162.56Y-76.2
X162.56Y-78.74
X162.56Y-81.28
X162.56Y-83.82
X162.56Y-86.36
X162.56Y-88.9
T5
X173.972Y-41.892
X191.772Y-41.892
X204.452Y-41.892
X222.252Y-41.892
T0
M30
