G04 #@! TF.GenerationSoftware,KiCad,Pcbnew,7.0.1*
G04 #@! TF.CreationDate,2023-09-08T10:55:18-05:00*
G04 #@! TF.ProjectId,ProtoPropDuo,50726f74-6f50-4726-9f70-44756f2e6b69,B*
G04 #@! TF.SameCoordinates,Original*
G04 #@! TF.FileFunction,Copper,L1,Top*
G04 #@! TF.FilePolarity,Positive*
%FSLAX46Y46*%
G04 Gerber Fmt 4.6, Leading zero omitted, Abs format (unit mm)*
G04 Created by KiCad (PCBNEW 7.0.1) date 2023-09-08 10:55:18*
%MOMM*%
%LPD*%
G01*
G04 APERTURE LIST*
G04 Aperture macros list*
%AMRoundRect*
0 Rectangle with rounded corners*
0 $1 Rounding radius*
0 $2 $3 $4 $5 $6 $7 $8 $9 X,Y pos of 4 corners*
0 Add a 4 corners polygon primitive as box body*
4,1,4,$2,$3,$4,$5,$6,$7,$8,$9,$2,$3,0*
0 Add four circle primitives for the rounded corners*
1,1,$1+$1,$2,$3*
1,1,$1+$1,$4,$5*
1,1,$1+$1,$6,$7*
1,1,$1+$1,$8,$9*
0 Add four rect primitives between the rounded corners*
20,1,$1+$1,$2,$3,$4,$5,0*
20,1,$1+$1,$4,$5,$6,$7,0*
20,1,$1+$1,$6,$7,$8,$9,0*
20,1,$1+$1,$8,$9,$2,$3,0*%
G04 Aperture macros list end*
G04 #@! TA.AperFunction,ComponentPad*
%ADD10O,1.700000X1.700000*%
G04 #@! TD*
G04 #@! TA.AperFunction,ComponentPad*
%ADD11C,1.700000*%
G04 #@! TD*
G04 #@! TA.AperFunction,ComponentPad*
%ADD12R,1.700000X1.700000*%
G04 #@! TD*
G04 #@! TA.AperFunction,ComponentPad*
%ADD13C,4.500000*%
G04 #@! TD*
G04 #@! TA.AperFunction,SMDPad,CuDef*
%ADD14RoundRect,0.150000X-0.150000X-0.625000X0.150000X-0.625000X0.150000X0.625000X-0.150000X0.625000X0*%
G04 #@! TD*
G04 #@! TA.AperFunction,SMDPad,CuDef*
%ADD15RoundRect,0.250000X-0.350000X-0.650000X0.350000X-0.650000X0.350000X0.650000X-0.350000X0.650000X0*%
G04 #@! TD*
G04 #@! TA.AperFunction,SMDPad,CuDef*
%ADD16RoundRect,0.237500X-0.300000X-0.237500X0.300000X-0.237500X0.300000X0.237500X-0.300000X0.237500X0*%
G04 #@! TD*
G04 #@! TA.AperFunction,SMDPad,CuDef*
%ADD17RoundRect,0.237500X-0.250000X-0.237500X0.250000X-0.237500X0.250000X0.237500X-0.250000X0.237500X0*%
G04 #@! TD*
G04 #@! TA.AperFunction,SMDPad,CuDef*
%ADD18RoundRect,0.020500X-0.764500X-0.184500X0.764500X-0.184500X0.764500X0.184500X-0.764500X0.184500X0*%
G04 #@! TD*
G04 #@! TA.AperFunction,SMDPad,CuDef*
%ADD19R,1.000000X0.700000*%
G04 #@! TD*
G04 #@! TA.AperFunction,SMDPad,CuDef*
%ADD20R,3.500000X1.700000*%
G04 #@! TD*
G04 #@! TA.AperFunction,SMDPad,CuDef*
%ADD21R,1.700000X3.500000*%
G04 #@! TD*
G04 #@! TA.AperFunction,ViaPad*
%ADD22C,0.600000*%
G04 #@! TD*
G04 #@! TA.AperFunction,ViaPad*
%ADD23C,0.900000*%
G04 #@! TD*
G04 #@! TA.AperFunction,ViaPad*
%ADD24C,0.800000*%
G04 #@! TD*
G04 #@! TA.AperFunction,Conductor*
%ADD25C,0.350000*%
G04 #@! TD*
G04 #@! TA.AperFunction,Conductor*
%ADD26C,0.450000*%
G04 #@! TD*
G04 #@! TA.AperFunction,Conductor*
%ADD27C,0.250000*%
G04 #@! TD*
G04 APERTURE END LIST*
D10*
X185420000Y-50800000D03*
X210820000Y-86360000D03*
X185420000Y-73660000D03*
X180340000Y-73660000D03*
D11*
X198120000Y-45720000D03*
D10*
X198120000Y-48260000D03*
X198120000Y-50800000D03*
D12*
X198120000Y-53340000D03*
D10*
X198120000Y-55880000D03*
X198120000Y-58420000D03*
X198120000Y-60960000D03*
X198120000Y-63500000D03*
X198120000Y-66040000D03*
X198120000Y-68580000D03*
X198120000Y-71120000D03*
X198120000Y-73660000D03*
X198120000Y-76200000D03*
X198120000Y-78740000D03*
X198120000Y-81280000D03*
X198120000Y-83820000D03*
X210820000Y-43180000D03*
X220980000Y-66040000D03*
X208280000Y-86360000D03*
X180340000Y-76200000D03*
X218440000Y-81280000D03*
X208280000Y-88900000D03*
X182880000Y-50800000D03*
X187960000Y-106680000D03*
X172720000Y-45720000D03*
X172720000Y-48260000D03*
X172720000Y-50800000D03*
D12*
X172720000Y-53340000D03*
D10*
X172720000Y-55880000D03*
X172720000Y-58420000D03*
X172720000Y-60960000D03*
X172720000Y-63500000D03*
X172720000Y-66040000D03*
X172720000Y-68580000D03*
X172720000Y-71120000D03*
X172720000Y-73660000D03*
X172720000Y-76200000D03*
X172720000Y-78740000D03*
X172720000Y-81280000D03*
X172694600Y-83820000D03*
X193040000Y-83820000D03*
X193040000Y-81280000D03*
X193040000Y-78740000D03*
X193040000Y-76200000D03*
X193040000Y-73660000D03*
X193040000Y-71120000D03*
X193040000Y-68580000D03*
X193040000Y-66040000D03*
X193040000Y-63500000D03*
X193040000Y-60960000D03*
X193040000Y-58420000D03*
X193040000Y-55880000D03*
D13*
X173972200Y-41892200D03*
X191772200Y-41892200D03*
D10*
X180340000Y-48260000D03*
X187960000Y-43180000D03*
X208280000Y-83820000D03*
X213360000Y-88900000D03*
X210820000Y-45720000D03*
X218440000Y-43180000D03*
X190500000Y-106680000D03*
X210820000Y-68580000D03*
X205740000Y-55880000D03*
X187960000Y-81280000D03*
X180340000Y-104140000D03*
X223520000Y-50800000D03*
X190500000Y-58420000D03*
X190500000Y-60960000D03*
X175260000Y-104140000D03*
X187960000Y-66040000D03*
X210820000Y-63500000D03*
X182880000Y-83820000D03*
X182880000Y-88900000D03*
X185420000Y-81280000D03*
X187960000Y-109220000D03*
X177800000Y-63500000D03*
X185420000Y-83820000D03*
X205740000Y-63500000D03*
X180340000Y-109220000D03*
X187960000Y-86360000D03*
X177800000Y-48260000D03*
X218440000Y-86360000D03*
X218440000Y-66040000D03*
X177800000Y-68580000D03*
X190500000Y-63500000D03*
X177800000Y-45720000D03*
D12*
X218440000Y-53340000D03*
D10*
X180340000Y-96520000D03*
X213360000Y-81280000D03*
X208280000Y-55880000D03*
X218440000Y-71120000D03*
X175260000Y-73660000D03*
X177800000Y-104140000D03*
X205740000Y-83820000D03*
X187960000Y-45720000D03*
X208280000Y-71120000D03*
X218440000Y-40640000D03*
X177800000Y-76200000D03*
X220980000Y-73660000D03*
X175260000Y-50800000D03*
X213360000Y-40640000D03*
X175260000Y-96520000D03*
X182880000Y-86360000D03*
X215900000Y-60960000D03*
X218440000Y-73660000D03*
X177800000Y-81280000D03*
X218440000Y-83820000D03*
X187960000Y-104140000D03*
X210820000Y-48260000D03*
X182880000Y-81280000D03*
X215900000Y-40640000D03*
X208280000Y-60960000D03*
X190500000Y-83820000D03*
X208280000Y-76200000D03*
X220980000Y-68580000D03*
X213360000Y-71120000D03*
X208280000Y-81280000D03*
X218440000Y-48260000D03*
X220980000Y-99060000D03*
X220980000Y-101600000D03*
X220980000Y-104140000D03*
X220980000Y-106680000D03*
X220980000Y-109220000D03*
X215900000Y-76200000D03*
X208280000Y-63500000D03*
X180340000Y-63500000D03*
D11*
X139700000Y-40640000D03*
D10*
X139700000Y-43180000D03*
D12*
X139700000Y-45720000D03*
D10*
X139700000Y-48260000D03*
X139700000Y-50800000D03*
X139700000Y-53340000D03*
X139700000Y-55880000D03*
D12*
X139700000Y-58420000D03*
D10*
X139700000Y-60960000D03*
X139700000Y-63500000D03*
X139700000Y-66040000D03*
X139700000Y-68580000D03*
D12*
X139700000Y-71120000D03*
D10*
X139700000Y-73660000D03*
X139700000Y-76200000D03*
X139700000Y-78740000D03*
X139700000Y-81280000D03*
D12*
X139700000Y-83820000D03*
D10*
X139700000Y-86360000D03*
X139700000Y-88900000D03*
X187960000Y-55880000D03*
X223520000Y-45720000D03*
X187960000Y-50800000D03*
X175260000Y-55880000D03*
D12*
X223520000Y-53340000D03*
D10*
X185420000Y-86360000D03*
X177800000Y-50800000D03*
X213360000Y-68580000D03*
X190500000Y-101600000D03*
X193040000Y-109220000D03*
X215900000Y-68580000D03*
X182880000Y-73660000D03*
X210820000Y-66040000D03*
X187960000Y-40640000D03*
X220980000Y-55880000D03*
X220980000Y-78740000D03*
X208280000Y-66040000D03*
X218440000Y-60960000D03*
D12*
X223520000Y-99060000D03*
X223520000Y-101600000D03*
X223520000Y-104140000D03*
X223520000Y-106680000D03*
X223520000Y-109220000D03*
D10*
X208280000Y-43180000D03*
X213360000Y-50800000D03*
X182880000Y-99060000D03*
D12*
X180340000Y-93980000D03*
D10*
X218440000Y-55880000D03*
X182880000Y-101600000D03*
X187960000Y-58420000D03*
X213360000Y-76200000D03*
X213360000Y-45720000D03*
X187960000Y-88900000D03*
X182880000Y-104140000D03*
D12*
X180340000Y-53340000D03*
D10*
X205740000Y-78740000D03*
X180340000Y-66040000D03*
X205740000Y-81280000D03*
X208280000Y-50800000D03*
X185420000Y-104140000D03*
X210820000Y-83820000D03*
X215900000Y-78740000D03*
X220980000Y-45720000D03*
D12*
X177800000Y-53340000D03*
D10*
X175260000Y-63500000D03*
X182880000Y-45720000D03*
D14*
X140740000Y-105696000D03*
X141740000Y-105696000D03*
X142740000Y-105696000D03*
X143740000Y-105696000D03*
D15*
X139440000Y-109571000D03*
X145040000Y-109571000D03*
D10*
X180340000Y-81280000D03*
X193040000Y-45720000D03*
X213360000Y-73660000D03*
D12*
X187960000Y-53340000D03*
D10*
X180340000Y-86360000D03*
X180340000Y-50800000D03*
X215900000Y-63500000D03*
X185420000Y-43180000D03*
D12*
X182880000Y-93980000D03*
D10*
X177800000Y-60960000D03*
D12*
X213360000Y-53340000D03*
D10*
X177800000Y-83820000D03*
D12*
X190500000Y-93980000D03*
D10*
X215900000Y-50800000D03*
D12*
X215900000Y-53340000D03*
D10*
X182880000Y-109220000D03*
X187960000Y-96520000D03*
X182880000Y-48260000D03*
X220980000Y-63500000D03*
X175260000Y-58420000D03*
X190500000Y-55880000D03*
X187960000Y-68580000D03*
X218440000Y-58420000D03*
X187960000Y-99060000D03*
X175260000Y-106680000D03*
D12*
X177800000Y-93980000D03*
D10*
X193040000Y-96520000D03*
X190500000Y-96520000D03*
X187960000Y-101600000D03*
X180340000Y-45720000D03*
X180340000Y-60960000D03*
X220980000Y-50800000D03*
X213360000Y-55880000D03*
X180340000Y-43180000D03*
X190500000Y-48260000D03*
D12*
X175300000Y-93980000D03*
D10*
X205740000Y-73660000D03*
X180340000Y-101600000D03*
D16*
X203607500Y-99060000D03*
X205332500Y-99060000D03*
D10*
X218440000Y-78740000D03*
X213360000Y-58420000D03*
X193040000Y-101600000D03*
X205740000Y-58420000D03*
X218440000Y-99060000D03*
X218440000Y-101600000D03*
X218440000Y-104140000D03*
X218440000Y-106680000D03*
X218440000Y-109220000D03*
X177800000Y-71120000D03*
X220980000Y-71120000D03*
X185420000Y-63500000D03*
X187960000Y-78740000D03*
D12*
X190500000Y-53340000D03*
D10*
X210820000Y-71120000D03*
X185420000Y-78740000D03*
X210820000Y-76200000D03*
X193040000Y-48260000D03*
X185420000Y-76200000D03*
D12*
X175260000Y-53340000D03*
D10*
X185420000Y-48260000D03*
D17*
X209503000Y-104200000D03*
X211328000Y-104200000D03*
D10*
X205740000Y-48260000D03*
X180340000Y-68580000D03*
X187960000Y-73660000D03*
X175260000Y-66040000D03*
X182880000Y-66040000D03*
D18*
X199060000Y-101215000D03*
X199060000Y-101865000D03*
X199060000Y-102515000D03*
X199060000Y-103165000D03*
X199060000Y-103815000D03*
X199060000Y-104465000D03*
X199060000Y-105115000D03*
X199060000Y-105765000D03*
X199060000Y-106415000D03*
X199060000Y-107065000D03*
X204800000Y-107065000D03*
X204800000Y-106415000D03*
X204800000Y-105765000D03*
X204800000Y-105115000D03*
X204800000Y-104465000D03*
X204800000Y-103815000D03*
X204800000Y-103165000D03*
X204800000Y-102515000D03*
X204800000Y-101865000D03*
X204800000Y-101215000D03*
D10*
X187960000Y-48260000D03*
X187960000Y-63500000D03*
X177800000Y-96520000D03*
X205740000Y-71120000D03*
X182880000Y-63500000D03*
X218440000Y-50800000D03*
X213360000Y-78740000D03*
X180340000Y-106680000D03*
X205740000Y-45720000D03*
X190500000Y-78740000D03*
X213360000Y-60960000D03*
X177800000Y-106680000D03*
X190500000Y-66040000D03*
X205740000Y-60960000D03*
X190500000Y-109220000D03*
X182880000Y-58420000D03*
D12*
X143256000Y-96012000D03*
D10*
X145796000Y-96012000D03*
X148336000Y-96012000D03*
X193040000Y-104140000D03*
X175260000Y-45720000D03*
X175260000Y-78740000D03*
X180340000Y-40640000D03*
X185420000Y-45720000D03*
X228600000Y-96520000D03*
D12*
X228600000Y-93980000D03*
D10*
X185420000Y-106680000D03*
X175260000Y-109220000D03*
D17*
X209503000Y-101690000D03*
X211328000Y-101690000D03*
D10*
X215900000Y-71120000D03*
X175260000Y-71120000D03*
X215900000Y-81280000D03*
X182880000Y-55880000D03*
X208280000Y-78740000D03*
X218440000Y-76200000D03*
X182880000Y-96520000D03*
X177800000Y-101600000D03*
X177800000Y-40640000D03*
D12*
X185420000Y-53340000D03*
D10*
X185420000Y-66040000D03*
X182880000Y-76200000D03*
X193040000Y-50800000D03*
D12*
X187960000Y-93980000D03*
D10*
X223520000Y-48260000D03*
X210820000Y-55880000D03*
X213360000Y-43180000D03*
D12*
X185420000Y-93980000D03*
D10*
X182880000Y-40640000D03*
X210820000Y-58420000D03*
X213360000Y-83820000D03*
X210820000Y-60960000D03*
X177800000Y-109220000D03*
X185420000Y-40640000D03*
X185420000Y-55880000D03*
X215900000Y-48260000D03*
D12*
X208280000Y-53340000D03*
D10*
X185420000Y-68580000D03*
D12*
X172720000Y-93980000D03*
D10*
X172720000Y-96520000D03*
X172720000Y-99060000D03*
X172720000Y-101600000D03*
X172720000Y-104140000D03*
X172720000Y-106680000D03*
X172720000Y-109220000D03*
X187960000Y-76200000D03*
X205740000Y-66040000D03*
X213360000Y-86360000D03*
X190500000Y-73660000D03*
X210820000Y-73660000D03*
X210820000Y-78740000D03*
X218440000Y-45720000D03*
X205740000Y-76200000D03*
X185420000Y-71120000D03*
D11*
X167640000Y-88900000D03*
D10*
X167640000Y-86360000D03*
D12*
X167640000Y-83820000D03*
D10*
X167640000Y-81280000D03*
X167640000Y-78740000D03*
X167640000Y-76200000D03*
X167640000Y-73660000D03*
D12*
X167640000Y-71120000D03*
D10*
X167640000Y-68580000D03*
X167640000Y-66040000D03*
X167640000Y-63500000D03*
X167640000Y-60960000D03*
D12*
X167640000Y-58420000D03*
D10*
X167640000Y-55880000D03*
X167640000Y-53340000D03*
X167640000Y-50800000D03*
X167640000Y-48260000D03*
D12*
X167640000Y-45720000D03*
D10*
X167640000Y-43180000D03*
X167640000Y-40640000D03*
X208280000Y-68580000D03*
X190500000Y-50800000D03*
X175260000Y-81280000D03*
X177800000Y-88900000D03*
X175260000Y-68580000D03*
X177800000Y-66040000D03*
X203200000Y-45720000D03*
X203200000Y-48260000D03*
X203200000Y-50800000D03*
D12*
X203200000Y-53340000D03*
D10*
X203200000Y-55880000D03*
X203200000Y-58420000D03*
X203200000Y-60960000D03*
X203200000Y-63500000D03*
X203200000Y-66040000D03*
X203200000Y-68580000D03*
X203200000Y-71120000D03*
X203200000Y-73660000D03*
X203200000Y-76200000D03*
X203200000Y-78740000D03*
X203200000Y-81280000D03*
X203174600Y-83820000D03*
X223520000Y-83820000D03*
X223520000Y-81280000D03*
X223520000Y-78740000D03*
X223520000Y-76200000D03*
X223520000Y-73660000D03*
X223520000Y-71120000D03*
X223520000Y-68580000D03*
X223520000Y-66040000D03*
X223520000Y-63500000D03*
X223520000Y-60960000D03*
X223520000Y-58420000D03*
X223520000Y-55880000D03*
D13*
X204452200Y-41892200D03*
X222252200Y-41892200D03*
D10*
X218440000Y-88900000D03*
D12*
X210820000Y-53340000D03*
D10*
X175260000Y-101600000D03*
X180340000Y-71120000D03*
D11*
X228600000Y-83820000D03*
D10*
X228600000Y-81280000D03*
X228600000Y-78740000D03*
X228600000Y-76200000D03*
X228600000Y-73660000D03*
X228600000Y-71120000D03*
X228600000Y-68580000D03*
X228600000Y-66040000D03*
X228600000Y-63500000D03*
X228600000Y-60960000D03*
X228600000Y-58420000D03*
X228600000Y-55880000D03*
X177800000Y-58420000D03*
X190500000Y-45720000D03*
X213360000Y-66040000D03*
X220980000Y-81280000D03*
X187960000Y-71120000D03*
X208280000Y-40640000D03*
X175260000Y-48260000D03*
D17*
X209503000Y-99180000D03*
X211328000Y-99180000D03*
D10*
X220980000Y-60960000D03*
X215900000Y-66040000D03*
X220980000Y-76200000D03*
X210820000Y-81280000D03*
X185420000Y-96520000D03*
X213360000Y-48260000D03*
X180340000Y-58420000D03*
X177800000Y-86360000D03*
X213360000Y-63500000D03*
X210820000Y-50800000D03*
X205740000Y-50800000D03*
X182880000Y-68580000D03*
X215900000Y-83820000D03*
X182880000Y-78740000D03*
X220980000Y-83820000D03*
X180340000Y-78740000D03*
X190500000Y-99060000D03*
X193040000Y-106680000D03*
X190500000Y-76200000D03*
X190500000Y-104140000D03*
X208280000Y-45720000D03*
D12*
X193040000Y-53340000D03*
D10*
X175260000Y-99060000D03*
X215900000Y-58420000D03*
D19*
X152182000Y-96969000D03*
X156682000Y-96969000D03*
X152182000Y-99119000D03*
X156682000Y-99119000D03*
D10*
X218440000Y-63500000D03*
X185420000Y-60960000D03*
D12*
X193040000Y-93980000D03*
D10*
X175260000Y-76200000D03*
X177800000Y-55880000D03*
X185420000Y-109220000D03*
X215900000Y-86360000D03*
X218440000Y-68580000D03*
X215900000Y-45720000D03*
X215900000Y-88900000D03*
D17*
X209503000Y-109220000D03*
X211328000Y-109220000D03*
D12*
X220980000Y-53340000D03*
D10*
X185420000Y-99060000D03*
X210820000Y-88900000D03*
X185420000Y-58420000D03*
X177800000Y-99060000D03*
X215900000Y-73660000D03*
D12*
X215900000Y-99060000D03*
X215900000Y-101600000D03*
X215900000Y-104140000D03*
X215900000Y-106680000D03*
X215900000Y-109220000D03*
D10*
X177800000Y-78740000D03*
X187960000Y-83820000D03*
X208280000Y-48260000D03*
D12*
X182880000Y-53340000D03*
D10*
X180340000Y-55880000D03*
X208280000Y-58420000D03*
X177800000Y-43180000D03*
X180340000Y-83820000D03*
X205740000Y-68580000D03*
X175260000Y-83820000D03*
X193040000Y-99060000D03*
X210820000Y-40640000D03*
X175260000Y-60960000D03*
X190500000Y-81280000D03*
X208280000Y-73660000D03*
X215900000Y-43180000D03*
X187960000Y-60960000D03*
X220980000Y-58420000D03*
X144780000Y-40640000D03*
D20*
X143880000Y-40640000D03*
D10*
X144780000Y-43180000D03*
D20*
X143880000Y-43180000D03*
D12*
X144780000Y-45720000D03*
D20*
X143880000Y-45720000D03*
D10*
X144780000Y-48260000D03*
D20*
X143880000Y-48260000D03*
D10*
X144780000Y-50800000D03*
D20*
X143880000Y-50800000D03*
D10*
X144780000Y-53340000D03*
D20*
X143880000Y-53340000D03*
D10*
X144780000Y-55880000D03*
D20*
X143880000Y-55880000D03*
D12*
X144780000Y-58420000D03*
D20*
X143880000Y-58420000D03*
D10*
X144780000Y-60960000D03*
D20*
X143880000Y-60960000D03*
D10*
X144780000Y-63500000D03*
D20*
X143880000Y-63500000D03*
D10*
X144780000Y-66040000D03*
D20*
X143880000Y-66040000D03*
D10*
X144780000Y-68580000D03*
D20*
X143880000Y-68580000D03*
D12*
X144780000Y-71120000D03*
D20*
X143880000Y-71120000D03*
D10*
X144780000Y-73660000D03*
D20*
X143880000Y-73660000D03*
D10*
X144780000Y-76200000D03*
D20*
X143880000Y-76200000D03*
D10*
X144780000Y-78740000D03*
D20*
X143880000Y-78740000D03*
D10*
X144780000Y-81280000D03*
D20*
X143880000Y-81280000D03*
D12*
X144780000Y-83820000D03*
D20*
X143880000Y-83820000D03*
D10*
X144780000Y-86360000D03*
D20*
X143880000Y-86360000D03*
D10*
X144780000Y-88900000D03*
D20*
X143880000Y-88900000D03*
D10*
X162560000Y-88900000D03*
D20*
X163460000Y-88900000D03*
D10*
X162560000Y-86360000D03*
D20*
X163460000Y-86360000D03*
D12*
X162560000Y-83820000D03*
D20*
X163460000Y-83820000D03*
D10*
X162560000Y-81280000D03*
D20*
X163460000Y-81280000D03*
D10*
X162560000Y-78740000D03*
D20*
X163460000Y-78740000D03*
D10*
X162560000Y-76200000D03*
D20*
X163460000Y-76200000D03*
D10*
X162560000Y-73660000D03*
D20*
X163460000Y-73660000D03*
D12*
X162560000Y-71120000D03*
D20*
X163460000Y-71120000D03*
D10*
X162560000Y-68580000D03*
D20*
X163460000Y-68580000D03*
D10*
X162560000Y-66040000D03*
D20*
X163460000Y-66040000D03*
D10*
X162560000Y-63500000D03*
D20*
X163460000Y-63500000D03*
D10*
X162560000Y-60960000D03*
D20*
X163460000Y-60960000D03*
D12*
X162560000Y-58420000D03*
D20*
X163460000Y-58420000D03*
D10*
X162560000Y-55880000D03*
D20*
X163460000Y-55880000D03*
D10*
X162560000Y-53340000D03*
D20*
X163460000Y-53340000D03*
D10*
X162560000Y-50800000D03*
D20*
X163460000Y-50800000D03*
D10*
X162560000Y-48260000D03*
D20*
X163460000Y-48260000D03*
D12*
X162560000Y-45720000D03*
D20*
X163460000Y-45720000D03*
D10*
X162560000Y-43180000D03*
D20*
X163460000Y-43180000D03*
D10*
X162560000Y-40640000D03*
D20*
X163460000Y-40640000D03*
D10*
X151130000Y-88670000D03*
D21*
X151130000Y-89570000D03*
D12*
X153670000Y-88670000D03*
D21*
X153670000Y-89570000D03*
D10*
X156210000Y-88670000D03*
D21*
X156210000Y-89570000D03*
D10*
X220980000Y-48260000D03*
X215900000Y-55880000D03*
X180340000Y-99060000D03*
X182880000Y-43180000D03*
X182880000Y-106680000D03*
X182880000Y-71120000D03*
X190500000Y-68580000D03*
X190500000Y-71120000D03*
X185420000Y-88900000D03*
X177800000Y-73660000D03*
D17*
X209503000Y-106710000D03*
X211328000Y-106710000D03*
D10*
X182880000Y-60960000D03*
X185420000Y-101600000D03*
X180340000Y-88900000D03*
D12*
X205740000Y-53340000D03*
D22*
X155702000Y-74676000D03*
X157891747Y-79848859D03*
X156500000Y-92500000D03*
X154500000Y-96969000D03*
X136500000Y-45000000D03*
D23*
X169609500Y-48625411D03*
D22*
X169759500Y-50800000D03*
D23*
X159000000Y-51000000D03*
X195580000Y-52832000D03*
X153500000Y-56704500D03*
X148082000Y-72390000D03*
X157988000Y-73406000D03*
X153670000Y-74422000D03*
X146812000Y-49530000D03*
X168000000Y-105500000D03*
X137541000Y-106172000D03*
X168000000Y-108000000D03*
X170180000Y-69850000D03*
D24*
X202438000Y-101854000D03*
D23*
X207391000Y-99060000D03*
D22*
X154500000Y-99000000D03*
D23*
X201930000Y-109220000D03*
X154305000Y-93218000D03*
X153670000Y-84328000D03*
X148082000Y-59690000D03*
X168000000Y-100000000D03*
X198000000Y-41500000D03*
X168000000Y-103000000D03*
D22*
X169814194Y-59639694D03*
X170500000Y-58500000D03*
X155831330Y-85680330D03*
X156083000Y-86868000D03*
X153500000Y-67000000D03*
X155500000Y-69500000D03*
X187561500Y-92438500D03*
X187048206Y-91544206D03*
X184808812Y-90193812D03*
D24*
X137541000Y-69850000D03*
D22*
X183642000Y-91186000D03*
X147828000Y-79502000D03*
X166169105Y-92876500D03*
X168479193Y-92062696D03*
X146812000Y-80010000D03*
X164338000Y-92202000D03*
X168402000Y-91186000D03*
X171196000Y-84328000D03*
X173736000Y-79756000D03*
X170688000Y-57404000D03*
X165735000Y-93980000D03*
X166125577Y-94677605D03*
X169672000Y-83058000D03*
X166116000Y-96012000D03*
X169164000Y-98298000D03*
X170434000Y-88900000D03*
X170180000Y-77470000D03*
X159258000Y-80772000D03*
X157480000Y-76200000D03*
X159385000Y-93472000D03*
X161036000Y-93218000D03*
X160274000Y-93503608D03*
X158531657Y-80328149D03*
X156591000Y-74676000D03*
X158242000Y-93503608D03*
D23*
X202819000Y-95123000D03*
D24*
X201549000Y-99949000D03*
D25*
X176485000Y-46945000D02*
X196895000Y-46945000D01*
D26*
X171445001Y-46994999D02*
X172720000Y-45720000D01*
X198120000Y-45720000D02*
X205740000Y-45720000D01*
D25*
X196895000Y-46945000D02*
X198120000Y-45720000D01*
D26*
X167640000Y-66040000D02*
X171445001Y-62234999D01*
X172720000Y-45720000D02*
X175260000Y-45720000D01*
X162460000Y-66040000D02*
X162420000Y-66000000D01*
X171445001Y-62234999D02*
X171445001Y-46994999D01*
X156682000Y-96969000D02*
X154500000Y-96969000D01*
D25*
X161822888Y-66000000D02*
X155702000Y-72120888D01*
X155702000Y-72120888D02*
X155702000Y-74676000D01*
X157438499Y-80302107D02*
X157891747Y-79848859D01*
D26*
X154500000Y-96969000D02*
X152182000Y-96969000D01*
D25*
X157438499Y-91561501D02*
X157438499Y-80302107D01*
D26*
X162560000Y-66040000D02*
X167640000Y-66040000D01*
D25*
X162420000Y-66000000D02*
X161822888Y-66000000D01*
X175260000Y-45720000D02*
X176485000Y-46945000D01*
X156500000Y-92500000D02*
X157438499Y-91561501D01*
D26*
X162560000Y-66040000D02*
X162460000Y-66040000D01*
D25*
X134900998Y-95530998D02*
X141740000Y-102370000D01*
D26*
X167640000Y-50800000D02*
X169609500Y-48830500D01*
D25*
X134900998Y-46599002D02*
X134900998Y-95530998D01*
X136500000Y-45000000D02*
X134900998Y-46599002D01*
D26*
X169609500Y-48830500D02*
X169609500Y-48625411D01*
X162560000Y-50800000D02*
X167640000Y-50800000D01*
D25*
X141740000Y-102370000D02*
X141740000Y-105696000D01*
D26*
X172720000Y-48260000D02*
X223520000Y-48260000D01*
X162560000Y-53340000D02*
X167640000Y-53340000D01*
D25*
X167640000Y-53340000D02*
X169759500Y-51220500D01*
X169759500Y-51220500D02*
X169759500Y-50800000D01*
D26*
X172720000Y-50800000D02*
X223520000Y-50800000D01*
D25*
X160454786Y-39189214D02*
X160274000Y-39370000D01*
X152301000Y-99000000D02*
X152182000Y-99119000D01*
X193875214Y-39189214D02*
X160454786Y-39189214D01*
D27*
X204800000Y-101865000D02*
X202449000Y-101865000D01*
D25*
X154500000Y-99000000D02*
X156563000Y-99000000D01*
X154500000Y-99000000D02*
X152301000Y-99000000D01*
X224282000Y-39370000D02*
X223442311Y-39370000D01*
D26*
X162560000Y-71120000D02*
X160274000Y-71120000D01*
D25*
X156563000Y-99000000D02*
X156682000Y-99119000D01*
X223442311Y-39370000D02*
X223339511Y-39267200D01*
X194056000Y-39370000D02*
X193875214Y-39189214D01*
X201270800Y-39267200D02*
X201168000Y-39370000D01*
D26*
X205332500Y-99060000D02*
X207391000Y-99060000D01*
D27*
X202449000Y-101865000D02*
X202438000Y-101854000D01*
D25*
X199060000Y-107065000D02*
X197735000Y-107065000D01*
X199060000Y-107065000D02*
X200529000Y-107065000D01*
D26*
X160274000Y-71120000D02*
X157988000Y-73406000D01*
D25*
X223339511Y-39267200D02*
X201270800Y-39267200D01*
D26*
X198120000Y-55880000D02*
X205740000Y-55880000D01*
D25*
X176530000Y-57150000D02*
X196850000Y-57150000D01*
X196850000Y-57150000D02*
X198120000Y-55880000D01*
X175260000Y-55880000D02*
X176530000Y-57150000D01*
D26*
X172720000Y-55880000D02*
X175260000Y-55880000D01*
X162560000Y-63500000D02*
X167640000Y-63500000D01*
D25*
X167640000Y-63500000D02*
X169814194Y-61325806D01*
X169814194Y-61325806D02*
X169814194Y-59639694D01*
D26*
X162560000Y-60960000D02*
X167640000Y-60960000D01*
D25*
X196895000Y-59645000D02*
X198120000Y-58420000D01*
X170000000Y-58500000D02*
X169000000Y-59500000D01*
X170500000Y-58500000D02*
X170000000Y-58500000D01*
X169000000Y-59500000D02*
X169000000Y-60000000D01*
X168040000Y-60960000D02*
X167640000Y-60960000D01*
X175260000Y-58420000D02*
X176485000Y-59645000D01*
D26*
X205740000Y-58420000D02*
X198120000Y-58420000D01*
D25*
X169000000Y-60000000D02*
X168040000Y-60960000D01*
X176485000Y-59645000D02*
X196895000Y-59645000D01*
D26*
X172720000Y-58420000D02*
X175260000Y-58420000D01*
D25*
X175260000Y-60960000D02*
X176485000Y-62185000D01*
D26*
X172720000Y-60960000D02*
X175260000Y-60960000D01*
D25*
X176485000Y-62185000D02*
X196895000Y-62185000D01*
D26*
X162560000Y-55880000D02*
X167640000Y-55880000D01*
X198120000Y-60960000D02*
X205740000Y-60960000D01*
D25*
X196895000Y-62185000D02*
X198120000Y-60960000D01*
X196895000Y-64725000D02*
X198120000Y-63500000D01*
D26*
X172720000Y-63500000D02*
X175260000Y-63500000D01*
X198120000Y-63500000D02*
X205740000Y-63500000D01*
D25*
X176485000Y-64725000D02*
X196895000Y-64725000D01*
X175260000Y-63500000D02*
X176485000Y-64725000D01*
X196895000Y-67265000D02*
X198120000Y-66040000D01*
X175260000Y-66040000D02*
X176485000Y-67265000D01*
D26*
X172720000Y-66040000D02*
X175260000Y-66040000D01*
X198120000Y-66040000D02*
X205740000Y-66040000D01*
D25*
X176485000Y-67265000D02*
X196895000Y-67265000D01*
X176485000Y-69805000D02*
X196895000Y-69805000D01*
X175260000Y-68580000D02*
X176485000Y-69805000D01*
X196895000Y-69805000D02*
X198120000Y-68580000D01*
D26*
X198120000Y-68580000D02*
X205740000Y-68580000D01*
X172720000Y-68580000D02*
X175260000Y-68580000D01*
D25*
X172720000Y-71120000D02*
X168865000Y-74975000D01*
X161034606Y-74975000D02*
X155831330Y-80178276D01*
X168865000Y-74975000D02*
X161034606Y-74975000D01*
X176485000Y-72345000D02*
X196895000Y-72345000D01*
X155831330Y-80178276D02*
X155831330Y-85680330D01*
X196895000Y-72345000D02*
X198120000Y-71120000D01*
D26*
X144780000Y-86360000D02*
X139700000Y-86360000D01*
X198120000Y-71120000D02*
X205740000Y-71120000D01*
D25*
X175260000Y-71120000D02*
X176485000Y-72345000D01*
D26*
X172720000Y-71120000D02*
X175260000Y-71120000D01*
X172720000Y-73660000D02*
X175260000Y-73660000D01*
D25*
X176485000Y-74885000D02*
X196895000Y-74885000D01*
X168955000Y-77425000D02*
X159361718Y-77425000D01*
X175260000Y-73660000D02*
X176485000Y-74885000D01*
D26*
X198120000Y-73660000D02*
X205740000Y-73660000D01*
X144780000Y-88900000D02*
X139700000Y-88900000D01*
D25*
X172720000Y-73660000D02*
X168955000Y-77425000D01*
X196895000Y-74885000D02*
X198120000Y-73660000D01*
X156771359Y-80015359D02*
X156771359Y-86179641D01*
X156771359Y-86179641D02*
X156083000Y-86868000D01*
X159361718Y-77425000D02*
X156771359Y-80015359D01*
D26*
X144780000Y-66040000D02*
X139700000Y-66040000D01*
D25*
X176485000Y-77425000D02*
X196895000Y-77425000D01*
X196895000Y-77425000D02*
X198120000Y-76200000D01*
X175260000Y-76200000D02*
X176485000Y-77425000D01*
D26*
X198120000Y-76200000D02*
X205740000Y-76200000D01*
X172720000Y-76200000D02*
X175260000Y-76200000D01*
D25*
X153500000Y-67000000D02*
X153500000Y-61282888D01*
D26*
X172720000Y-78740000D02*
X175260000Y-78740000D01*
D25*
X153500000Y-61282888D02*
X148000000Y-55782888D01*
X176485000Y-79965000D02*
X196895000Y-79965000D01*
X148000000Y-46400000D02*
X144780000Y-43180000D01*
D26*
X198120000Y-78740000D02*
X205740000Y-78740000D01*
D25*
X148000000Y-55782888D02*
X148000000Y-46400000D01*
X175260000Y-78740000D02*
X176485000Y-79965000D01*
X196895000Y-79965000D02*
X198120000Y-78740000D01*
D26*
X198120000Y-81280000D02*
X205740000Y-81280000D01*
X172720000Y-81280000D02*
X175260000Y-81280000D01*
D25*
X148549501Y-44409501D02*
X148549501Y-55555277D01*
X148549501Y-55555277D02*
X155500000Y-62505776D01*
X196805000Y-82595000D02*
X198120000Y-81280000D01*
X175260000Y-81280000D02*
X176575000Y-82595000D01*
X176575000Y-82595000D02*
X196805000Y-82595000D01*
X155500000Y-62505776D02*
X155500000Y-69500000D01*
X144780000Y-40640000D02*
X148549501Y-44409501D01*
D26*
X198120000Y-83820000D02*
X205740000Y-83820000D01*
X172694600Y-83820000D02*
X175260000Y-83820000D01*
X144780000Y-78740000D02*
X139700000Y-78740000D01*
D25*
X196895000Y-85045000D02*
X198120000Y-83820000D01*
X176485000Y-85045000D02*
X196895000Y-85045000D01*
X175260000Y-83820000D02*
X176485000Y-85045000D01*
D26*
X220980000Y-83820000D02*
X228600000Y-83820000D01*
D25*
X139700000Y-48260000D02*
X135450499Y-52509501D01*
X158413224Y-107000000D02*
X168439003Y-96974221D01*
X142740000Y-105696000D02*
X142740000Y-106213462D01*
X135450499Y-94971943D02*
X142740000Y-102261444D01*
X168439003Y-96974221D02*
X168439003Y-96797445D01*
D26*
X190500000Y-83820000D02*
X193040000Y-83820000D01*
D25*
X171362004Y-93874444D02*
X171362004Y-92887290D01*
X143526538Y-107000000D02*
X158413224Y-107000000D01*
X187335999Y-92664001D02*
X187561500Y-92438500D01*
X171585293Y-92664001D02*
X187335999Y-92664001D01*
X171362004Y-92887290D02*
X171585293Y-92664001D01*
X168439003Y-96797445D02*
X171362004Y-93874444D01*
X142740000Y-102261444D02*
X142740000Y-105696000D01*
X135450499Y-52509501D02*
X135450499Y-94971943D01*
X142740000Y-106213462D02*
X143526538Y-107000000D01*
X170812503Y-93646833D02*
X170812503Y-92659679D01*
X143740000Y-105696000D02*
X158940112Y-105696000D01*
X139700000Y-50800000D02*
X136000000Y-54500000D01*
X186485410Y-92107002D02*
X187048206Y-91544206D01*
X167889502Y-96746610D02*
X167889502Y-96569834D01*
X143740000Y-102484332D02*
X143740000Y-105696000D01*
D26*
X220980000Y-81280000D02*
X228600000Y-81280000D01*
D25*
X167889502Y-96569834D02*
X170812503Y-93646833D01*
X170812503Y-92659679D02*
X171365180Y-92107002D01*
X158940112Y-105696000D02*
X167889502Y-96746610D01*
D26*
X193040000Y-81280000D02*
X190500000Y-81280000D01*
D25*
X171365180Y-92107002D02*
X186485410Y-92107002D01*
X136000000Y-94744332D02*
X143740000Y-102484332D01*
X136000000Y-54500000D02*
X136000000Y-94744332D01*
X160507888Y-102574000D02*
X166790500Y-96291388D01*
X169713501Y-93191611D02*
X169713501Y-92204457D01*
X166790500Y-96291388D02*
X166790500Y-96114612D01*
D26*
X220980000Y-78740000D02*
X228600000Y-78740000D01*
X144780000Y-63500000D02*
X139700000Y-63500000D01*
D25*
X145383892Y-102574000D02*
X160507888Y-102574000D01*
X171724146Y-90193812D02*
X184808812Y-90193812D01*
X166790500Y-96114612D02*
X169713501Y-93191611D01*
D26*
X190500000Y-78740000D02*
X193040000Y-78740000D01*
D25*
X137541000Y-69850000D02*
X137541000Y-94731108D01*
X137541000Y-94731108D02*
X145383892Y-102574000D01*
X169713501Y-92204457D02*
X171724146Y-90193812D01*
D26*
X220980000Y-76200000D02*
X228600000Y-76200000D01*
D25*
X160735000Y-103124000D02*
X167340001Y-96518999D01*
X170263002Y-93419222D02*
X170263002Y-92432068D01*
X167340001Y-96342223D02*
X170263002Y-93419222D01*
X136652000Y-94619220D02*
X145156780Y-103124000D01*
X136652000Y-69469000D02*
X136652000Y-94619220D01*
D26*
X190500000Y-76200000D02*
X193040000Y-76200000D01*
D25*
X137541000Y-68580000D02*
X136652000Y-69469000D01*
X167340001Y-96518999D02*
X167340001Y-96342223D01*
D26*
X144780000Y-68580000D02*
X139700000Y-68580000D01*
D25*
X171509070Y-91186000D02*
X183642000Y-91186000D01*
X170263002Y-92432068D02*
X171509070Y-91186000D01*
X145156780Y-103124000D02*
X160735000Y-103124000D01*
X139700000Y-68580000D02*
X137541000Y-68580000D01*
X147828000Y-76708000D02*
X147828000Y-79502000D01*
D26*
X144780000Y-73660000D02*
X139700000Y-73660000D01*
X190500000Y-73660000D02*
X193040000Y-73660000D01*
D25*
X144780000Y-73660000D02*
X147828000Y-76708000D01*
D26*
X220980000Y-73660000D02*
X228600000Y-73660000D01*
D25*
X166169105Y-92876500D02*
X167665389Y-92876500D01*
X144780000Y-76200000D02*
X146812000Y-78232000D01*
X167665389Y-92876500D02*
X168479193Y-92062696D01*
D26*
X144780000Y-76200000D02*
X139700000Y-76200000D01*
D25*
X146812000Y-78232000D02*
X146812000Y-80010000D01*
D26*
X220980000Y-71120000D02*
X228600000Y-71120000D01*
X190500000Y-71120000D02*
X193040000Y-71120000D01*
X228600000Y-68580000D02*
X220980000Y-68580000D01*
D25*
X167386000Y-92202000D02*
X168402000Y-91186000D01*
D26*
X190500000Y-68580000D02*
X193040000Y-68580000D01*
D25*
X164338000Y-92202000D02*
X167386000Y-92202000D01*
X144780000Y-81280000D02*
X139700000Y-81280000D01*
X167640000Y-88900000D02*
X169164000Y-88900000D01*
X169926000Y-85598000D02*
X171196000Y-84328000D01*
X169926000Y-88138000D02*
X169926000Y-85598000D01*
D26*
X162560000Y-88900000D02*
X167640000Y-88900000D01*
X190500000Y-66040000D02*
X193040000Y-66040000D01*
D25*
X169164000Y-88900000D02*
X169926000Y-88138000D01*
D26*
X220980000Y-66040000D02*
X228600000Y-66040000D01*
D25*
X172257588Y-80010000D02*
X173482000Y-80010000D01*
D26*
X228600000Y-63500000D02*
X220980000Y-63500000D01*
D25*
X167640000Y-86360000D02*
X171495000Y-82505000D01*
X171495000Y-82505000D02*
X171495000Y-80772588D01*
X190500000Y-63500000D02*
X193040000Y-63500000D01*
D26*
X162560000Y-86360000D02*
X167640000Y-86360000D01*
D25*
X171495000Y-80772588D02*
X172257588Y-80010000D01*
X173482000Y-80010000D02*
X173736000Y-79756000D01*
D26*
X190500000Y-60960000D02*
X193040000Y-60960000D01*
X162560000Y-40640000D02*
X167640000Y-40640000D01*
D25*
X167640000Y-40640000D02*
X170688000Y-43688000D01*
X170688000Y-43688000D02*
X170688000Y-57404000D01*
D26*
X220980000Y-60960000D02*
X228600000Y-60960000D01*
X228600000Y-58420000D02*
X220980000Y-58420000D01*
X162560000Y-48260000D02*
X167640000Y-48260000D01*
X190500000Y-58420000D02*
X193040000Y-58420000D01*
X220980000Y-55880000D02*
X228600000Y-55880000D01*
X190500000Y-55880000D02*
X193040000Y-55880000D01*
D25*
X187960000Y-93980000D02*
X190500000Y-93980000D01*
X156761998Y-64218002D02*
X156761998Y-70283778D01*
X190500000Y-93980000D02*
X193040000Y-93980000D01*
X177800000Y-93980000D02*
X180340000Y-93980000D01*
X185420000Y-93980000D02*
X187960000Y-93980000D01*
X156761998Y-70283778D02*
X154985000Y-72060776D01*
X175300000Y-93980000D02*
X177800000Y-93980000D01*
X162560000Y-58420000D02*
X156761998Y-64218002D01*
X182880000Y-93980000D02*
X185420000Y-93980000D01*
X165536892Y-94178108D02*
X165735000Y-93980000D01*
X154985000Y-92065381D02*
X157097727Y-94178108D01*
X172720000Y-93980000D02*
X175300000Y-93980000D01*
X154985000Y-72060776D02*
X154985000Y-92065381D01*
X157097727Y-94178108D02*
X165536892Y-94178108D01*
D26*
X162560000Y-58420000D02*
X167640000Y-58420000D01*
D25*
X180340000Y-93980000D02*
X182880000Y-93980000D01*
X166017683Y-94785499D02*
X166125577Y-94677605D01*
X180340000Y-96520000D02*
X182880000Y-96520000D01*
X172720000Y-96520000D02*
X175260000Y-96520000D01*
X156212497Y-49527503D02*
X156212497Y-70056167D01*
X190500000Y-96520000D02*
X193040000Y-96520000D01*
D26*
X162560000Y-43180000D02*
X167640000Y-43180000D01*
D25*
X185420000Y-96520000D02*
X187960000Y-96520000D01*
X182880000Y-96520000D02*
X185420000Y-96520000D01*
X152355000Y-92919000D02*
X154221499Y-94785499D01*
X177800000Y-96520000D02*
X180340000Y-96520000D01*
X152355000Y-73913664D02*
X152355000Y-92919000D01*
X187960000Y-96520000D02*
X190500000Y-96520000D01*
X162560000Y-43180000D02*
X156212497Y-49527503D01*
X156212497Y-70056167D02*
X152355000Y-73913664D01*
X175260000Y-96520000D02*
X177800000Y-96520000D01*
X154221499Y-94785499D02*
X166017683Y-94785499D01*
X169164000Y-98298000D02*
X169164000Y-100584000D01*
X170434000Y-88900000D02*
X169164000Y-90170000D01*
D27*
X185420000Y-104140000D02*
X187960000Y-104140000D01*
X177800000Y-104140000D02*
X180340000Y-104140000D01*
X190500000Y-104140000D02*
X193040000Y-104140000D01*
D25*
X169164000Y-100584000D02*
X172720000Y-104140000D01*
D27*
X180340000Y-104140000D02*
X182880000Y-104140000D01*
D26*
X162560000Y-76200000D02*
X167640000Y-76200000D01*
D27*
X187960000Y-104140000D02*
X190500000Y-104140000D01*
D25*
X169164000Y-90170000D02*
X169164000Y-92964000D01*
D27*
X182880000Y-104140000D02*
X185420000Y-104140000D01*
X193040000Y-104140000D02*
X194015000Y-103165000D01*
X175260000Y-104140000D02*
X177800000Y-104140000D01*
D25*
X170180000Y-82550000D02*
X169672000Y-83058000D01*
D27*
X194015000Y-103165000D02*
X199060000Y-103165000D01*
X172720000Y-104140000D02*
X175260000Y-104140000D01*
D25*
X170180000Y-77470000D02*
X170180000Y-82550000D01*
X169164000Y-92964000D02*
X166116000Y-96012000D01*
X159258000Y-80772000D02*
X159258000Y-93345000D01*
D27*
X187960000Y-106680000D02*
X190500000Y-106680000D01*
X190500000Y-106680000D02*
X193040000Y-106680000D01*
D25*
X159512000Y-73660000D02*
X159004000Y-74168000D01*
D27*
X177800000Y-106680000D02*
X180340000Y-106680000D01*
D25*
X159258000Y-93345000D02*
X159385000Y-93472000D01*
D27*
X172720000Y-106680000D02*
X175260000Y-106680000D01*
D26*
X162560000Y-73660000D02*
X167640000Y-73660000D01*
D25*
X157480000Y-75692000D02*
X157480000Y-76200000D01*
D27*
X182880000Y-106680000D02*
X185420000Y-106680000D01*
X193040000Y-106680000D02*
X195905000Y-103815000D01*
X185420000Y-106680000D02*
X187960000Y-106680000D01*
D25*
X162560000Y-73660000D02*
X159512000Y-73660000D01*
D27*
X175260000Y-106680000D02*
X177800000Y-106680000D01*
X180340000Y-106680000D02*
X182880000Y-106680000D01*
X195905000Y-103815000D02*
X199060000Y-103815000D01*
D25*
X159004000Y-74168000D02*
X157480000Y-75692000D01*
X180340000Y-99060000D02*
X182880000Y-99060000D01*
X162560000Y-81280000D02*
X161036000Y-82804000D01*
X161036000Y-82804000D02*
X161036000Y-93218000D01*
X193040000Y-99060000D02*
X194564000Y-99060000D01*
X197369000Y-101865000D02*
X199060000Y-101865000D01*
X187960000Y-99060000D02*
X190500000Y-99060000D01*
X182880000Y-99060000D02*
X185420000Y-99060000D01*
X185420000Y-99060000D02*
X187960000Y-99060000D01*
X190500000Y-99060000D02*
X193040000Y-99060000D01*
D26*
X162560000Y-81280000D02*
X167640000Y-81280000D01*
D25*
X172720000Y-99060000D02*
X175260000Y-99060000D01*
X177800000Y-99060000D02*
X180340000Y-99060000D01*
X175260000Y-99060000D02*
X177800000Y-99060000D01*
X194564000Y-99060000D02*
X197369000Y-101865000D01*
X187960000Y-101600000D02*
X190500000Y-101600000D01*
X177800000Y-101600000D02*
X180340000Y-101600000D01*
X162560000Y-78740000D02*
X160274000Y-81026000D01*
X185420000Y-101600000D02*
X187960000Y-101600000D01*
X190500000Y-101600000D02*
X193040000Y-101600000D01*
D26*
X162560000Y-78740000D02*
X167640000Y-78740000D01*
D25*
X193040000Y-101600000D02*
X193955000Y-102515000D01*
X175260000Y-101600000D02*
X177800000Y-101600000D01*
X160274000Y-81026000D02*
X160274000Y-93503608D01*
X172720000Y-101600000D02*
X175260000Y-101600000D01*
X180340000Y-101600000D02*
X182880000Y-101600000D01*
X182880000Y-101600000D02*
X185420000Y-101600000D01*
X193955000Y-102515000D02*
X199060000Y-102515000D01*
X162560000Y-68580000D02*
X160020000Y-68580000D01*
D27*
X197795000Y-104465000D02*
X199060000Y-104465000D01*
X185420000Y-109220000D02*
X187960000Y-109220000D01*
X177800000Y-109220000D02*
X180340000Y-109220000D01*
D25*
X156591000Y-72009000D02*
X156591000Y-74676000D01*
D27*
X187960000Y-109220000D02*
X190500000Y-109220000D01*
D25*
X160020000Y-68580000D02*
X156591000Y-72009000D01*
D27*
X175260000Y-109220000D02*
X177800000Y-109220000D01*
D26*
X162560000Y-68580000D02*
X167640000Y-68580000D01*
D25*
X158248747Y-90417253D02*
X158248747Y-80611059D01*
X158248747Y-80611059D02*
X158531657Y-80328149D01*
D27*
X182880000Y-109220000D02*
X185420000Y-109220000D01*
X172720000Y-109220000D02*
X175260000Y-109220000D01*
X190500000Y-109220000D02*
X193040000Y-109220000D01*
D25*
X158115000Y-93376608D02*
X158115000Y-90551000D01*
D27*
X193040000Y-109220000D02*
X197795000Y-104465000D01*
X180340000Y-109220000D02*
X182880000Y-109220000D01*
D25*
X158242000Y-93503608D02*
X158115000Y-93376608D01*
X158115000Y-90551000D02*
X158248747Y-90417253D01*
D26*
X203607500Y-100022500D02*
X204800000Y-101215000D01*
X203607500Y-99060000D02*
X203607500Y-95911500D01*
X203607500Y-95911500D02*
X202819000Y-95123000D01*
X203607500Y-99060000D02*
X203607500Y-100022500D01*
D27*
X217265000Y-97885000D02*
X218440000Y-99060000D01*
X212623000Y-97885000D02*
X217265000Y-97885000D01*
X211328000Y-99180000D02*
X212623000Y-97885000D01*
X211328000Y-101690000D02*
X212593000Y-100425000D01*
X217265000Y-100425000D02*
X218440000Y-101600000D01*
X212593000Y-100425000D02*
X217265000Y-100425000D01*
X211328000Y-104200000D02*
X212563000Y-102965000D01*
X217265000Y-102965000D02*
X218440000Y-104140000D01*
X212563000Y-102965000D02*
X217265000Y-102965000D01*
X217265000Y-105505000D02*
X218440000Y-106680000D01*
X211328000Y-106710000D02*
X212533000Y-105505000D01*
X212533000Y-105505000D02*
X217265000Y-105505000D01*
X212503000Y-108045000D02*
X217265000Y-108045000D01*
X217265000Y-108045000D02*
X218440000Y-109220000D01*
X211328000Y-109220000D02*
X212503000Y-108045000D01*
X200283000Y-101215000D02*
X199060000Y-101215000D01*
X201549000Y-99949000D02*
X200283000Y-101215000D01*
X205587611Y-102515000D02*
X208922611Y-99180000D01*
X204800000Y-102515000D02*
X205587611Y-102515000D01*
X208922611Y-99180000D02*
X209503000Y-99180000D01*
X205587611Y-103165000D02*
X207062611Y-101690000D01*
X207062611Y-101690000D02*
X209503000Y-101690000D01*
X204800000Y-103165000D02*
X205587611Y-103165000D01*
X204800000Y-103815000D02*
X209118000Y-103815000D01*
X209118000Y-103815000D02*
X209503000Y-104200000D01*
X204800000Y-104465000D02*
X207258000Y-104465000D01*
X207258000Y-104465000D02*
X209503000Y-106710000D01*
X205587611Y-105115000D02*
X209503000Y-109030389D01*
X204800000Y-105115000D02*
X205587611Y-105115000D01*
X209503000Y-109030389D02*
X209503000Y-109220000D01*
G04 #@! TA.AperFunction,Conductor*
G36*
X228996090Y-39209439D02*
G01*
X229036319Y-39236319D01*
X230463681Y-40663681D01*
X230490561Y-40703909D01*
X230500000Y-40751362D01*
X230500000Y-108948638D01*
X230490561Y-108996091D01*
X230463681Y-109036319D01*
X229036319Y-110463681D01*
X228996091Y-110490561D01*
X228948638Y-110500000D01*
X224920405Y-110500000D01*
X224855239Y-110481496D01*
X224809522Y-110431507D01*
X224796898Y-110364952D01*
X224810297Y-110329977D01*
X224807122Y-110328793D01*
X224863597Y-110177375D01*
X224870000Y-110117824D01*
X224870000Y-109470000D01*
X223394000Y-109470000D01*
X223332000Y-109453387D01*
X223286613Y-109408000D01*
X223270000Y-109346000D01*
X223270000Y-106930000D01*
X223770000Y-106930000D01*
X223770000Y-108970000D01*
X224870000Y-108970000D01*
X224870000Y-108322535D01*
X226661500Y-108322535D01*
X226700520Y-108556372D01*
X226760985Y-108732500D01*
X226777496Y-108780595D01*
X226890329Y-108989091D01*
X226890330Y-108989092D01*
X227035939Y-109176172D01*
X227091862Y-109227652D01*
X227210357Y-109336735D01*
X227408824Y-109466399D01*
X227625925Y-109561629D01*
X227855740Y-109619826D01*
X227926575Y-109625695D01*
X228032823Y-109634500D01*
X228032829Y-109634500D01*
X228151171Y-109634500D01*
X228151177Y-109634500D01*
X228247765Y-109626495D01*
X228328260Y-109619826D01*
X228558075Y-109561629D01*
X228775176Y-109466399D01*
X228973643Y-109336735D01*
X229148060Y-109176172D01*
X229293671Y-108989091D01*
X229406504Y-108780595D01*
X229483480Y-108556371D01*
X229522500Y-108322535D01*
X229522500Y-108085465D01*
X229483480Y-107851629D01*
X229406504Y-107627405D01*
X229293671Y-107418909D01*
X229211211Y-107312964D01*
X229148060Y-107231827D01*
X229027126Y-107120500D01*
X228973643Y-107071265D01*
X228817856Y-106969485D01*
X228775178Y-106941602D01*
X228775176Y-106941601D01*
X228558075Y-106846371D01*
X228328260Y-106788174D01*
X228328258Y-106788173D01*
X228328255Y-106788173D01*
X228151177Y-106773500D01*
X228151171Y-106773500D01*
X228032829Y-106773500D01*
X228032823Y-106773500D01*
X227855744Y-106788173D01*
X227625925Y-106846371D01*
X227408821Y-106941602D01*
X227210358Y-107071264D01*
X227035939Y-107231827D01*
X226890330Y-107418907D01*
X226867782Y-107460572D01*
X226779862Y-107623034D01*
X226777494Y-107627409D01*
X226700520Y-107851627D01*
X226661500Y-108085465D01*
X226661500Y-108322535D01*
X224870000Y-108322535D01*
X224870000Y-108322176D01*
X224863597Y-108262624D01*
X224813352Y-108127911D01*
X224735797Y-108024311D01*
X224713898Y-107976358D01*
X224713898Y-107923642D01*
X224735797Y-107875689D01*
X224813352Y-107772088D01*
X224863597Y-107637375D01*
X224870000Y-107577824D01*
X224870000Y-106930000D01*
X223770000Y-106930000D01*
X223270000Y-106930000D01*
X223270000Y-104390000D01*
X223770000Y-104390000D01*
X223770000Y-106430000D01*
X224870000Y-106430000D01*
X224870000Y-105782176D01*
X224863597Y-105722624D01*
X224813352Y-105587911D01*
X224735797Y-105484311D01*
X224713898Y-105436358D01*
X224713898Y-105383642D01*
X224735797Y-105335689D01*
X224813352Y-105232088D01*
X224863597Y-105097375D01*
X224870000Y-105037824D01*
X224870000Y-104390000D01*
X223770000Y-104390000D01*
X223270000Y-104390000D01*
X223270000Y-101850000D01*
X223770000Y-101850000D01*
X223770000Y-103890000D01*
X224870000Y-103890000D01*
X224870000Y-103242176D01*
X224863597Y-103182624D01*
X224813352Y-103047911D01*
X224735797Y-102944311D01*
X224713898Y-102896358D01*
X224713898Y-102843642D01*
X224735797Y-102795689D01*
X224813352Y-102692088D01*
X224863597Y-102557375D01*
X224870000Y-102497824D01*
X224870000Y-101850000D01*
X223770000Y-101850000D01*
X223270000Y-101850000D01*
X223270000Y-99310000D01*
X223770000Y-99310000D01*
X223770000Y-101350000D01*
X224870000Y-101350000D01*
X224870000Y-100702176D01*
X224863597Y-100642624D01*
X224813352Y-100507910D01*
X224735797Y-100404310D01*
X224713898Y-100356357D01*
X224713898Y-100303640D01*
X224735798Y-100255687D01*
X224813352Y-100152089D01*
X224863597Y-100017375D01*
X224870000Y-99957824D01*
X224870000Y-99310000D01*
X223770000Y-99310000D01*
X223270000Y-99310000D01*
X223270000Y-97710000D01*
X223770000Y-97710000D01*
X223770000Y-98810000D01*
X224870000Y-98810000D01*
X224870000Y-98162176D01*
X224863597Y-98102624D01*
X224813352Y-97967910D01*
X224727188Y-97852811D01*
X224612089Y-97766647D01*
X224477375Y-97716402D01*
X224417824Y-97710000D01*
X223770000Y-97710000D01*
X223270000Y-97710000D01*
X222622176Y-97710000D01*
X222562624Y-97716402D01*
X222427910Y-97766647D01*
X222312811Y-97852811D01*
X222226646Y-97967913D01*
X222177576Y-98099472D01*
X222142597Y-98149850D01*
X222087753Y-98177303D01*
X222026460Y-98175114D01*
X221973714Y-98143818D01*
X221851404Y-98021508D01*
X221851401Y-98021505D01*
X221657830Y-97885965D01*
X221443663Y-97786097D01*
X221371074Y-97766647D01*
X221215407Y-97724936D01*
X220980000Y-97704340D01*
X220744592Y-97724936D01*
X220516336Y-97786097D01*
X220302170Y-97885965D01*
X220108598Y-98021505D01*
X219941505Y-98188598D01*
X219811575Y-98374159D01*
X219767257Y-98413025D01*
X219710000Y-98427036D01*
X219652743Y-98413025D01*
X219608425Y-98374159D01*
X219539275Y-98275402D01*
X219478495Y-98188599D01*
X219311401Y-98021505D01*
X219117830Y-97885965D01*
X218903663Y-97786097D01*
X218831074Y-97766647D01*
X218675407Y-97724936D01*
X218440000Y-97704340D01*
X218204591Y-97724936D01*
X218104125Y-97751855D01*
X218039939Y-97751855D01*
X217984352Y-97719761D01*
X217765802Y-97501211D01*
X217752906Y-97485113D01*
X217701775Y-97437098D01*
X217698978Y-97434387D01*
X217679470Y-97414879D01*
X217676290Y-97412412D01*
X217667424Y-97404839D01*
X217635582Y-97374938D01*
X217618024Y-97365285D01*
X217601764Y-97354604D01*
X217585936Y-97342327D01*
X217545851Y-97324980D01*
X217535361Y-97319841D01*
X217497091Y-97298802D01*
X217477691Y-97293821D01*
X217459284Y-97287519D01*
X217440897Y-97279562D01*
X217397758Y-97272729D01*
X217386324Y-97270361D01*
X217344019Y-97259500D01*
X217323984Y-97259500D01*
X217304586Y-97257973D01*
X217297162Y-97256797D01*
X217284805Y-97254840D01*
X217284804Y-97254840D01*
X217259468Y-97257235D01*
X217241325Y-97258950D01*
X217229656Y-97259500D01*
X212705744Y-97259500D01*
X212685236Y-97257235D01*
X212615113Y-97259439D01*
X212611219Y-97259500D01*
X212583650Y-97259500D01*
X212579671Y-97260002D01*
X212568041Y-97260917D01*
X212524372Y-97262289D01*
X212505128Y-97267880D01*
X212486084Y-97271824D01*
X212466208Y-97274335D01*
X212425600Y-97290413D01*
X212414554Y-97294194D01*
X212374627Y-97305796D01*
X212372607Y-97306383D01*
X212355365Y-97316579D01*
X212337904Y-97325133D01*
X212319267Y-97332512D01*
X212283931Y-97358185D01*
X212274174Y-97364595D01*
X212236580Y-97386829D01*
X212222413Y-97400996D01*
X212207624Y-97413626D01*
X212191413Y-97425404D01*
X212163572Y-97459058D01*
X212155711Y-97467697D01*
X211455227Y-98168181D01*
X211414999Y-98195061D01*
X211367546Y-98204500D01*
X211028823Y-98204500D01*
X210927747Y-98214825D01*
X210763984Y-98269091D01*
X210617147Y-98359661D01*
X210503181Y-98473628D01*
X210447594Y-98505722D01*
X210383406Y-98505722D01*
X210327819Y-98473628D01*
X210213852Y-98359661D01*
X210067015Y-98269091D01*
X209903253Y-98214825D01*
X209811544Y-98205457D01*
X209802176Y-98204500D01*
X209203823Y-98204500D01*
X209102747Y-98214825D01*
X208938984Y-98269091D01*
X208792147Y-98359661D01*
X208670161Y-98481647D01*
X208652365Y-98510500D01*
X208579592Y-98628484D01*
X208579591Y-98628485D01*
X208571985Y-98640818D01*
X208571100Y-98640272D01*
X208561635Y-98657629D01*
X208546892Y-98670385D01*
X208547264Y-98670757D01*
X208522021Y-98695998D01*
X208507233Y-98708628D01*
X208491024Y-98720405D01*
X208463183Y-98754058D01*
X208455322Y-98762696D01*
X206276037Y-100941982D01*
X206223844Y-100973114D01*
X206163127Y-100975707D01*
X206108470Y-100949139D01*
X206073003Y-100899794D01*
X206022904Y-100772752D01*
X205959686Y-100689386D01*
X205936366Y-100658633D01*
X205861120Y-100601574D01*
X205822248Y-100572096D01*
X205822246Y-100572095D01*
X205689014Y-100519554D01*
X205605290Y-100509500D01*
X205605286Y-100509500D01*
X205171874Y-100509500D01*
X205124421Y-100500061D01*
X205084193Y-100473181D01*
X204973066Y-100362054D01*
X204854088Y-100243076D01*
X204823083Y-100191306D01*
X204820188Y-100131029D01*
X204846089Y-100076523D01*
X204894651Y-100040698D01*
X204954373Y-100032039D01*
X204983354Y-100035000D01*
X205082500Y-100035000D01*
X205082500Y-99310000D01*
X205582500Y-99310000D01*
X205582500Y-100034999D01*
X205681647Y-100034999D01*
X205782650Y-100024681D01*
X205946301Y-99970453D01*
X206093040Y-99879943D01*
X206214943Y-99758040D01*
X206305453Y-99611301D01*
X206359681Y-99447651D01*
X206370000Y-99346647D01*
X206370000Y-99310000D01*
X205582500Y-99310000D01*
X205082500Y-99310000D01*
X205082500Y-98085001D01*
X204983353Y-98085001D01*
X204882349Y-98095318D01*
X204718698Y-98149546D01*
X204571958Y-98240057D01*
X204558032Y-98253983D01*
X204502445Y-98286075D01*
X204438259Y-98286075D01*
X204382672Y-98253981D01*
X204369319Y-98240628D01*
X204342439Y-98200400D01*
X204333000Y-98152947D01*
X204333000Y-98085000D01*
X205582500Y-98085000D01*
X205582500Y-98810000D01*
X206369999Y-98810000D01*
X206369999Y-98773353D01*
X206359681Y-98672349D01*
X206305453Y-98508698D01*
X206214943Y-98361959D01*
X206093040Y-98240056D01*
X205946301Y-98149546D01*
X205782651Y-98095318D01*
X205681647Y-98085000D01*
X205582500Y-98085000D01*
X204333000Y-98085000D01*
X204333000Y-96519999D01*
X227244340Y-96519999D01*
X227264936Y-96755407D01*
X227299232Y-96883401D01*
X227326097Y-96983663D01*
X227425965Y-97197830D01*
X227561505Y-97391401D01*
X227728599Y-97558495D01*
X227922170Y-97694035D01*
X228136337Y-97793903D01*
X228364592Y-97855063D01*
X228600000Y-97875659D01*
X228835408Y-97855063D01*
X229063663Y-97793903D01*
X229277830Y-97694035D01*
X229471401Y-97558495D01*
X229638495Y-97391401D01*
X229774035Y-97197830D01*
X229873903Y-96983663D01*
X229935063Y-96755408D01*
X229955659Y-96520000D01*
X229935063Y-96284592D01*
X229873903Y-96056337D01*
X229774035Y-95842171D01*
X229638495Y-95648599D01*
X229516181Y-95526285D01*
X229484885Y-95473539D01*
X229482696Y-95412246D01*
X229510149Y-95357401D01*
X229560528Y-95322422D01*
X229692089Y-95273352D01*
X229807188Y-95187188D01*
X229893352Y-95072089D01*
X229943597Y-94937375D01*
X229950000Y-94877824D01*
X229950000Y-94230000D01*
X227250000Y-94230000D01*
X227250000Y-94877824D01*
X227256402Y-94937375D01*
X227306647Y-95072089D01*
X227392811Y-95187188D01*
X227507911Y-95273352D01*
X227639471Y-95322422D01*
X227689850Y-95357401D01*
X227717303Y-95412246D01*
X227715114Y-95473539D01*
X227683819Y-95526285D01*
X227561503Y-95648601D01*
X227425965Y-95842170D01*
X227326097Y-96056336D01*
X227264936Y-96284592D01*
X227244340Y-96519999D01*
X204333000Y-96519999D01*
X204333000Y-95973387D01*
X204334309Y-95955417D01*
X204334768Y-95952278D01*
X204337630Y-95932744D01*
X204333472Y-95885216D01*
X204333000Y-95874409D01*
X204333000Y-95869245D01*
X204331327Y-95854936D01*
X204329523Y-95839502D01*
X204329165Y-95836000D01*
X204322849Y-95763792D01*
X204322714Y-95762248D01*
X204318781Y-95744510D01*
X204318250Y-95743052D01*
X204318250Y-95743049D01*
X204293469Y-95674965D01*
X204292286Y-95671561D01*
X204269502Y-95602803D01*
X204269500Y-95602799D01*
X204269013Y-95601330D01*
X204261094Y-95584972D01*
X204220431Y-95523146D01*
X204218493Y-95520104D01*
X204179653Y-95457134D01*
X204168179Y-95443049D01*
X204114350Y-95392264D01*
X204111762Y-95389750D01*
X203797724Y-95075713D01*
X203773310Y-95041048D01*
X203762002Y-95000185D01*
X203759944Y-94979287D01*
X203755747Y-94936669D01*
X203701396Y-94757499D01*
X203613136Y-94592375D01*
X203494357Y-94447643D01*
X203349625Y-94328864D01*
X203349624Y-94328863D01*
X203184500Y-94240603D01*
X203005332Y-94186253D01*
X202819000Y-94167901D01*
X202632667Y-94186253D01*
X202453499Y-94240603D01*
X202288375Y-94328863D01*
X202143643Y-94447643D01*
X202024863Y-94592375D01*
X201936603Y-94757499D01*
X201882253Y-94936667D01*
X201863901Y-95123000D01*
X201882253Y-95309332D01*
X201936603Y-95488500D01*
X202024863Y-95653624D01*
X202042379Y-95674967D01*
X202143643Y-95798357D01*
X202288375Y-95917136D01*
X202453499Y-96005396D01*
X202632669Y-96059747D01*
X202696185Y-96066002D01*
X202737047Y-96077310D01*
X202771712Y-96101724D01*
X202845681Y-96175693D01*
X202872561Y-96215921D01*
X202882000Y-96263374D01*
X202882000Y-98152947D01*
X202872561Y-98200400D01*
X202845681Y-98240628D01*
X202724661Y-98361647D01*
X202634091Y-98508484D01*
X202579825Y-98672246D01*
X202569500Y-98773323D01*
X202569500Y-99346676D01*
X202581206Y-99461264D01*
X202577753Y-99461616D01*
X202580298Y-99495554D01*
X202556077Y-99550565D01*
X202508831Y-99587722D01*
X202449662Y-99598295D01*
X202392471Y-99579799D01*
X202350698Y-99536581D01*
X202281533Y-99416783D01*
X202154870Y-99276110D01*
X202001730Y-99164848D01*
X201828802Y-99087855D01*
X201643648Y-99048500D01*
X201643646Y-99048500D01*
X201454354Y-99048500D01*
X201454352Y-99048500D01*
X201269197Y-99087855D01*
X201096269Y-99164848D01*
X200943129Y-99276110D01*
X200816466Y-99416783D01*
X200721820Y-99580715D01*
X200663326Y-99760742D01*
X200645679Y-99928649D01*
X200634279Y-99969070D01*
X200610039Y-100003368D01*
X200110400Y-100503007D01*
X200070824Y-100529615D01*
X200024132Y-100539318D01*
X199977231Y-100530681D01*
X199949014Y-100519554D01*
X199865290Y-100509500D01*
X199865286Y-100509500D01*
X198254714Y-100509500D01*
X198254710Y-100509500D01*
X198170985Y-100519554D01*
X198037753Y-100572095D01*
X197923633Y-100658633D01*
X197837095Y-100772753D01*
X197784554Y-100905985D01*
X197774500Y-100989710D01*
X197774500Y-101015837D01*
X197760985Y-101072132D01*
X197723385Y-101116155D01*
X197669898Y-101138310D01*
X197612182Y-101133768D01*
X197562819Y-101103518D01*
X195058727Y-98599426D01*
X195053608Y-98593989D01*
X195015229Y-98550668D01*
X194967611Y-98517800D01*
X194961577Y-98513360D01*
X194916028Y-98477674D01*
X194915097Y-98477255D01*
X194907476Y-98473824D01*
X194887938Y-98462804D01*
X194880227Y-98457482D01*
X194826117Y-98436960D01*
X194819215Y-98434101D01*
X194793754Y-98422643D01*
X194766436Y-98410348D01*
X194757223Y-98408660D01*
X194735612Y-98402636D01*
X194726847Y-98399312D01*
X194669386Y-98392334D01*
X194661987Y-98391207D01*
X194605087Y-98380780D01*
X194549463Y-98384145D01*
X194547334Y-98384274D01*
X194539849Y-98384500D01*
X194280216Y-98384500D01*
X194222959Y-98370489D01*
X194178641Y-98331623D01*
X194139275Y-98275402D01*
X194078495Y-98188599D01*
X193911401Y-98021505D01*
X193725839Y-97891573D01*
X193686976Y-97847257D01*
X193672965Y-97790000D01*
X193686976Y-97732743D01*
X193725839Y-97688426D01*
X193911401Y-97558495D01*
X194078495Y-97391401D01*
X194214035Y-97197830D01*
X194313903Y-96983663D01*
X194375063Y-96755408D01*
X194395659Y-96520000D01*
X194375063Y-96284592D01*
X194313903Y-96056337D01*
X194214035Y-95842171D01*
X194078495Y-95648599D01*
X193956569Y-95526672D01*
X193925273Y-95473927D01*
X193923084Y-95412634D01*
X193950537Y-95357789D01*
X194000916Y-95322810D01*
X194132331Y-95273796D01*
X194247546Y-95187546D01*
X194333796Y-95072331D01*
X194384091Y-94937483D01*
X194390500Y-94877873D01*
X194390499Y-93730000D01*
X227250000Y-93730000D01*
X228350000Y-93730000D01*
X228350000Y-92630000D01*
X228850000Y-92630000D01*
X228850000Y-93730000D01*
X229950000Y-93730000D01*
X229950000Y-93082176D01*
X229943597Y-93022624D01*
X229893352Y-92887910D01*
X229807188Y-92772811D01*
X229692089Y-92686647D01*
X229557375Y-92636402D01*
X229497824Y-92630000D01*
X228850000Y-92630000D01*
X228350000Y-92630000D01*
X227702176Y-92630000D01*
X227642624Y-92636402D01*
X227507910Y-92686647D01*
X227392811Y-92772811D01*
X227306647Y-92887910D01*
X227256402Y-93022624D01*
X227250000Y-93082176D01*
X227250000Y-93730000D01*
X194390499Y-93730000D01*
X194390499Y-93082128D01*
X194384091Y-93022517D01*
X194333796Y-92887669D01*
X194247546Y-92772454D01*
X194132331Y-92686204D01*
X193997483Y-92635909D01*
X193937873Y-92629500D01*
X193937869Y-92629500D01*
X192142130Y-92629500D01*
X192082515Y-92635909D01*
X191947667Y-92686204D01*
X191844310Y-92763577D01*
X191796358Y-92785476D01*
X191743642Y-92785476D01*
X191695690Y-92763577D01*
X191592333Y-92686205D01*
X191592331Y-92686204D01*
X191457483Y-92635909D01*
X191397873Y-92629500D01*
X191397869Y-92629500D01*
X189602130Y-92629500D01*
X189542515Y-92635909D01*
X189407667Y-92686204D01*
X189304310Y-92763577D01*
X189256358Y-92785476D01*
X189203642Y-92785476D01*
X189155690Y-92763577D01*
X189052333Y-92686205D01*
X189052331Y-92686204D01*
X188917483Y-92635909D01*
X188857873Y-92629500D01*
X188857869Y-92629500D01*
X188484301Y-92629500D01*
X188418329Y-92610494D01*
X188372581Y-92559302D01*
X188361081Y-92491617D01*
X188367065Y-92438500D01*
X188346868Y-92259248D01*
X188346868Y-92259245D01*
X188287289Y-92088978D01*
X188191316Y-91936238D01*
X188191315Y-91936237D01*
X188191314Y-91936235D01*
X188063763Y-91808684D01*
X187905797Y-91709428D01*
X187860048Y-91658235D01*
X187848549Y-91590549D01*
X187853771Y-91544204D01*
X187840620Y-91427484D01*
X187833574Y-91364951D01*
X187773995Y-91194684D01*
X187678022Y-91041944D01*
X187678021Y-91041943D01*
X187678020Y-91041941D01*
X187550470Y-90914391D01*
X187426475Y-90836480D01*
X187397728Y-90818417D01*
X187227461Y-90758838D01*
X187227459Y-90758837D01*
X187227457Y-90758837D01*
X187048206Y-90738640D01*
X186868954Y-90758837D01*
X186868951Y-90758837D01*
X186868951Y-90758838D01*
X186698684Y-90818417D01*
X186698682Y-90818417D01*
X186698682Y-90818418D01*
X186545941Y-90914391D01*
X186418391Y-91041941D01*
X186322415Y-91194686D01*
X186268609Y-91348457D01*
X186242466Y-91391843D01*
X186201155Y-91421156D01*
X186151568Y-91431502D01*
X184558660Y-91431502D01*
X184492688Y-91412496D01*
X184446940Y-91361304D01*
X184435440Y-91293618D01*
X184447565Y-91186000D01*
X184437932Y-91100500D01*
X184446591Y-91039163D01*
X184483839Y-90989669D01*
X184540381Y-90964368D01*
X184602107Y-90969575D01*
X184629556Y-90979180D01*
X184808812Y-90999377D01*
X184988067Y-90979180D01*
X185158334Y-90919601D01*
X185311074Y-90823628D01*
X185438628Y-90696074D01*
X185534601Y-90543334D01*
X185594180Y-90373067D01*
X185598841Y-90331690D01*
X185613909Y-90284922D01*
X185645963Y-90247674D01*
X185689964Y-90225803D01*
X185883663Y-90173903D01*
X186097830Y-90074035D01*
X186291401Y-89938495D01*
X186458495Y-89771401D01*
X186588426Y-89585839D01*
X186632743Y-89546975D01*
X186690000Y-89532964D01*
X186747257Y-89546975D01*
X186791573Y-89585839D01*
X186921505Y-89771401D01*
X187088599Y-89938495D01*
X187282170Y-90074035D01*
X187496337Y-90173903D01*
X187724592Y-90235063D01*
X187959999Y-90255659D01*
X187959999Y-90255658D01*
X187960000Y-90255659D01*
X188195408Y-90235063D01*
X188423663Y-90173903D01*
X188637830Y-90074035D01*
X188831401Y-89938495D01*
X188998495Y-89771401D01*
X189134035Y-89577830D01*
X189233903Y-89363663D01*
X189295063Y-89135408D01*
X189315659Y-88900000D01*
X189295063Y-88664592D01*
X189233903Y-88436337D01*
X189134035Y-88222171D01*
X188998495Y-88028599D01*
X188831401Y-87861505D01*
X188692575Y-87764298D01*
X190948700Y-87764298D01*
X190988893Y-88005164D01*
X191068183Y-88236127D01*
X191184406Y-88450887D01*
X191334394Y-88643595D01*
X191417088Y-88719719D01*
X191514056Y-88808984D01*
X191718488Y-88942546D01*
X191942116Y-89040638D01*
X192178839Y-89100585D01*
X192261754Y-89107455D01*
X192361248Y-89115700D01*
X192361254Y-89115700D01*
X192483146Y-89115700D01*
X192483152Y-89115700D01*
X192574353Y-89108142D01*
X192665561Y-89100585D01*
X192902284Y-89040638D01*
X193125912Y-88942546D01*
X193330344Y-88808984D01*
X193510005Y-88643595D01*
X193659992Y-88450890D01*
X193776217Y-88236127D01*
X193855507Y-88005163D01*
X193895700Y-87764298D01*
X202378700Y-87764298D01*
X202418893Y-88005164D01*
X202498183Y-88236127D01*
X202614406Y-88450887D01*
X202764394Y-88643595D01*
X202847088Y-88719719D01*
X202944056Y-88808984D01*
X203148488Y-88942546D01*
X203372116Y-89040638D01*
X203608839Y-89100585D01*
X203691754Y-89107455D01*
X203791248Y-89115700D01*
X203791254Y-89115700D01*
X203913146Y-89115700D01*
X203913152Y-89115700D01*
X204004353Y-89108142D01*
X204095561Y-89100585D01*
X204332284Y-89040638D01*
X204555912Y-88942546D01*
X204760344Y-88808984D01*
X204940005Y-88643595D01*
X205089992Y-88450890D01*
X205206217Y-88236127D01*
X205285507Y-88005163D01*
X205325700Y-87764298D01*
X205325700Y-87520102D01*
X205285507Y-87279237D01*
X205206217Y-87048273D01*
X205089992Y-86833510D01*
X205027451Y-86753157D01*
X204940005Y-86640804D01*
X204850174Y-86558110D01*
X204760344Y-86475416D01*
X204555912Y-86341854D01*
X204555909Y-86341852D01*
X204332287Y-86243763D01*
X204332285Y-86243762D01*
X204332284Y-86243762D01*
X204095561Y-86183815D01*
X204095557Y-86183814D01*
X204095555Y-86183814D01*
X203913152Y-86168700D01*
X203913146Y-86168700D01*
X203791254Y-86168700D01*
X203791248Y-86168700D01*
X203608844Y-86183814D01*
X203608840Y-86183814D01*
X203608839Y-86183815D01*
X203383092Y-86240982D01*
X203372112Y-86243763D01*
X203148490Y-86341852D01*
X203022165Y-86424385D01*
X202944056Y-86475416D01*
X202944054Y-86475417D01*
X202944055Y-86475417D01*
X202764394Y-86640804D01*
X202614406Y-86833512D01*
X202498183Y-87048272D01*
X202418893Y-87279235D01*
X202378700Y-87520102D01*
X202378700Y-87764298D01*
X193895700Y-87764298D01*
X193895700Y-87520102D01*
X193855507Y-87279237D01*
X193776217Y-87048273D01*
X193659992Y-86833510D01*
X193597451Y-86753157D01*
X193510005Y-86640804D01*
X193420174Y-86558110D01*
X193330344Y-86475416D01*
X193125912Y-86341854D01*
X193125909Y-86341852D01*
X192902287Y-86243763D01*
X192902285Y-86243762D01*
X192902284Y-86243762D01*
X192665561Y-86183815D01*
X192665557Y-86183814D01*
X192665555Y-86183814D01*
X192483152Y-86168700D01*
X192483146Y-86168700D01*
X192361254Y-86168700D01*
X192361248Y-86168700D01*
X192178844Y-86183814D01*
X192178840Y-86183814D01*
X192178839Y-86183815D01*
X191953092Y-86240982D01*
X191942112Y-86243763D01*
X191718490Y-86341852D01*
X191592165Y-86424385D01*
X191514056Y-86475416D01*
X191514054Y-86475417D01*
X191514055Y-86475417D01*
X191334394Y-86640804D01*
X191184406Y-86833512D01*
X191068183Y-87048272D01*
X190988893Y-87279235D01*
X190948700Y-87520102D01*
X190948700Y-87764298D01*
X188692575Y-87764298D01*
X188645839Y-87731573D01*
X188606975Y-87687257D01*
X188592964Y-87630000D01*
X188606975Y-87572743D01*
X188645839Y-87528426D01*
X188831401Y-87398495D01*
X188998495Y-87231401D01*
X189134035Y-87037830D01*
X189233903Y-86823663D01*
X189295063Y-86595408D01*
X189315659Y-86360000D01*
X189295063Y-86124592D01*
X189237650Y-85910322D01*
X189231095Y-85885857D01*
X189232047Y-85885601D01*
X189222815Y-85836391D01*
X189241969Y-85777875D01*
X189286907Y-85735786D01*
X189346550Y-85720500D01*
X196870849Y-85720500D01*
X196878335Y-85720726D01*
X196936084Y-85724219D01*
X196936084Y-85724218D01*
X196936085Y-85724219D01*
X196992997Y-85713789D01*
X197000396Y-85712663D01*
X197057845Y-85705688D01*
X197066608Y-85702364D01*
X197088222Y-85696338D01*
X197097439Y-85694650D01*
X197097443Y-85694648D01*
X197097444Y-85694648D01*
X197150207Y-85670901D01*
X197157122Y-85668036D01*
X197211226Y-85647518D01*
X197218933Y-85642197D01*
X197238484Y-85631171D01*
X197247028Y-85627326D01*
X197292609Y-85591613D01*
X197298581Y-85587219D01*
X197346229Y-85554332D01*
X197384610Y-85511007D01*
X197389711Y-85505588D01*
X197720121Y-85175178D01*
X197775707Y-85143086D01*
X197839894Y-85143086D01*
X197884592Y-85155063D01*
X198120000Y-85175659D01*
X198355408Y-85155063D01*
X198583663Y-85093903D01*
X198797830Y-84994035D01*
X198991401Y-84858495D01*
X199158495Y-84691401D01*
X199223633Y-84598374D01*
X199267949Y-84559511D01*
X199325206Y-84545500D01*
X201969394Y-84545500D01*
X202026651Y-84559511D01*
X202070966Y-84598374D01*
X202136105Y-84691401D01*
X202303199Y-84858495D01*
X202496770Y-84994035D01*
X202710937Y-85093903D01*
X202939192Y-85155063D01*
X203174600Y-85175659D01*
X203410008Y-85155063D01*
X203638263Y-85093903D01*
X203852430Y-84994035D01*
X204046001Y-84858495D01*
X204213095Y-84691401D01*
X204278233Y-84598374D01*
X204322549Y-84559511D01*
X204379806Y-84545500D01*
X204534794Y-84545500D01*
X204592051Y-84559511D01*
X204636366Y-84598374D01*
X204701505Y-84691401D01*
X204868599Y-84858495D01*
X205062170Y-84994035D01*
X205276337Y-85093903D01*
X205504592Y-85155063D01*
X205740000Y-85175659D01*
X205975408Y-85155063D01*
X206203663Y-85093903D01*
X206417830Y-84994035D01*
X206611401Y-84858495D01*
X206778495Y-84691401D01*
X206908426Y-84505839D01*
X206952743Y-84466975D01*
X207010000Y-84452964D01*
X207067257Y-84466975D01*
X207111573Y-84505839D01*
X207241505Y-84691401D01*
X207408599Y-84858495D01*
X207594160Y-84988426D01*
X207633024Y-85032743D01*
X207647035Y-85090000D01*
X207633024Y-85147257D01*
X207594159Y-85191575D01*
X207408595Y-85321508D01*
X207241505Y-85488598D01*
X207105965Y-85682170D01*
X207006097Y-85896336D01*
X206944936Y-86124592D01*
X206924340Y-86360000D01*
X206944936Y-86595407D01*
X206989709Y-86762501D01*
X207006097Y-86823663D01*
X207105965Y-87037830D01*
X207241505Y-87231401D01*
X207408599Y-87398495D01*
X207594160Y-87528426D01*
X207633024Y-87572743D01*
X207647035Y-87630000D01*
X207633024Y-87687257D01*
X207594158Y-87731575D01*
X207413321Y-87858199D01*
X207408595Y-87861508D01*
X207241505Y-88028598D01*
X207105965Y-88222170D01*
X207006097Y-88436336D01*
X206944936Y-88664592D01*
X206924340Y-88899999D01*
X206944936Y-89135407D01*
X206989709Y-89302501D01*
X207006097Y-89363663D01*
X207105965Y-89577830D01*
X207241505Y-89771401D01*
X207408599Y-89938495D01*
X207602170Y-90074035D01*
X207816337Y-90173903D01*
X208044592Y-90235063D01*
X208279999Y-90255659D01*
X208279999Y-90255658D01*
X208280000Y-90255659D01*
X208515408Y-90235063D01*
X208743663Y-90173903D01*
X208957830Y-90074035D01*
X209151401Y-89938495D01*
X209318495Y-89771401D01*
X209448426Y-89585839D01*
X209492743Y-89546975D01*
X209550000Y-89532964D01*
X209607257Y-89546975D01*
X209651573Y-89585839D01*
X209781505Y-89771401D01*
X209948599Y-89938495D01*
X210142170Y-90074035D01*
X210356337Y-90173903D01*
X210584592Y-90235063D01*
X210819999Y-90255659D01*
X210819999Y-90255658D01*
X210820000Y-90255659D01*
X211055408Y-90235063D01*
X211283663Y-90173903D01*
X211497830Y-90074035D01*
X211691401Y-89938495D01*
X211858495Y-89771401D01*
X211988426Y-89585839D01*
X212032743Y-89546975D01*
X212090000Y-89532964D01*
X212147257Y-89546975D01*
X212191573Y-89585839D01*
X212321505Y-89771401D01*
X212488599Y-89938495D01*
X212682170Y-90074035D01*
X212896337Y-90173903D01*
X213124592Y-90235063D01*
X213359999Y-90255659D01*
X213359999Y-90255658D01*
X213360000Y-90255659D01*
X213595408Y-90235063D01*
X213823663Y-90173903D01*
X214037830Y-90074035D01*
X214231401Y-89938495D01*
X214398495Y-89771401D01*
X214528426Y-89585839D01*
X214572743Y-89546975D01*
X214630000Y-89532964D01*
X214687257Y-89546975D01*
X214731573Y-89585839D01*
X214861505Y-89771401D01*
X215028599Y-89938495D01*
X215222170Y-90074035D01*
X215436337Y-90173903D01*
X215664592Y-90235063D01*
X215899999Y-90255659D01*
X215899999Y-90255658D01*
X215900000Y-90255659D01*
X216135408Y-90235063D01*
X216363663Y-90173903D01*
X216577830Y-90074035D01*
X216771401Y-89938495D01*
X216938495Y-89771401D01*
X217068426Y-89585839D01*
X217112743Y-89546975D01*
X217170000Y-89532964D01*
X217227257Y-89546975D01*
X217271573Y-89585839D01*
X217401505Y-89771401D01*
X217568599Y-89938495D01*
X217762170Y-90074035D01*
X217976337Y-90173903D01*
X218204592Y-90235063D01*
X218439999Y-90255659D01*
X218439999Y-90255658D01*
X218440000Y-90255659D01*
X218675408Y-90235063D01*
X218903663Y-90173903D01*
X219117830Y-90074035D01*
X219311401Y-89938495D01*
X219478495Y-89771401D01*
X219614035Y-89577830D01*
X219713903Y-89363663D01*
X219775063Y-89135408D01*
X219795659Y-88900000D01*
X219775063Y-88664592D01*
X219713903Y-88436337D01*
X219614035Y-88222171D01*
X219478495Y-88028599D01*
X219311401Y-87861505D01*
X219172575Y-87764298D01*
X221428700Y-87764298D01*
X221468893Y-88005164D01*
X221548183Y-88236127D01*
X221664406Y-88450887D01*
X221814394Y-88643595D01*
X221897088Y-88719719D01*
X221994056Y-88808984D01*
X222198488Y-88942546D01*
X222422116Y-89040638D01*
X222658839Y-89100585D01*
X222741754Y-89107455D01*
X222841248Y-89115700D01*
X222841254Y-89115700D01*
X222963146Y-89115700D01*
X222963152Y-89115700D01*
X223054353Y-89108142D01*
X223145561Y-89100585D01*
X223382284Y-89040638D01*
X223605912Y-88942546D01*
X223810344Y-88808984D01*
X223990005Y-88643595D01*
X224139992Y-88450890D01*
X224256217Y-88236127D01*
X224335507Y-88005163D01*
X224375700Y-87764298D01*
X224375700Y-87520102D01*
X224335507Y-87279237D01*
X224256217Y-87048273D01*
X224139992Y-86833510D01*
X224077451Y-86753157D01*
X223990005Y-86640804D01*
X223900174Y-86558110D01*
X223810344Y-86475416D01*
X223605912Y-86341854D01*
X223605909Y-86341852D01*
X223382287Y-86243763D01*
X223382285Y-86243762D01*
X223382284Y-86243762D01*
X223145561Y-86183815D01*
X223145557Y-86183814D01*
X223145555Y-86183814D01*
X222963152Y-86168700D01*
X222963146Y-86168700D01*
X222841254Y-86168700D01*
X222841248Y-86168700D01*
X222658844Y-86183814D01*
X222658840Y-86183814D01*
X222658839Y-86183815D01*
X222433092Y-86240982D01*
X222422112Y-86243763D01*
X222198490Y-86341852D01*
X222072165Y-86424385D01*
X221994056Y-86475416D01*
X221994054Y-86475417D01*
X221994055Y-86475417D01*
X221814394Y-86640804D01*
X221664406Y-86833512D01*
X221548183Y-87048272D01*
X221468893Y-87279235D01*
X221428700Y-87520102D01*
X221428700Y-87764298D01*
X219172575Y-87764298D01*
X219125839Y-87731573D01*
X219086975Y-87687257D01*
X219072964Y-87630000D01*
X219086975Y-87572743D01*
X219125839Y-87528426D01*
X219311401Y-87398495D01*
X219478495Y-87231401D01*
X219614035Y-87037830D01*
X219713903Y-86823663D01*
X219775063Y-86595408D01*
X219795659Y-86360000D01*
X219775063Y-86124592D01*
X219713903Y-85896337D01*
X219614035Y-85682171D01*
X219478495Y-85488599D01*
X219311401Y-85321505D01*
X219125839Y-85191573D01*
X219086975Y-85147257D01*
X219072964Y-85090000D01*
X219086975Y-85032743D01*
X219125839Y-84988426D01*
X219311401Y-84858495D01*
X219478495Y-84691401D01*
X219608426Y-84505839D01*
X219652743Y-84466975D01*
X219710000Y-84452964D01*
X219767257Y-84466975D01*
X219811573Y-84505839D01*
X219941505Y-84691401D01*
X220108599Y-84858495D01*
X220302170Y-84994035D01*
X220516337Y-85093903D01*
X220744592Y-85155063D01*
X220980000Y-85175659D01*
X221215408Y-85155063D01*
X221443663Y-85093903D01*
X221657830Y-84994035D01*
X221851401Y-84858495D01*
X222018495Y-84691401D01*
X222083633Y-84598374D01*
X222127949Y-84559511D01*
X222185206Y-84545500D01*
X222314794Y-84545500D01*
X222372051Y-84559511D01*
X222416366Y-84598374D01*
X222481505Y-84691401D01*
X222648599Y-84858495D01*
X222842170Y-84994035D01*
X223056337Y-85093903D01*
X223284592Y-85155063D01*
X223520000Y-85175659D01*
X223755408Y-85155063D01*
X223983663Y-85093903D01*
X224197830Y-84994035D01*
X224391401Y-84858495D01*
X224558495Y-84691401D01*
X224623633Y-84598374D01*
X224667949Y-84559511D01*
X224725206Y-84545500D01*
X227394794Y-84545500D01*
X227452051Y-84559511D01*
X227496366Y-84598374D01*
X227561505Y-84691401D01*
X227728599Y-84858495D01*
X227922170Y-84994035D01*
X228136337Y-85093903D01*
X228364592Y-85155063D01*
X228600000Y-85175659D01*
X228835408Y-85155063D01*
X229063663Y-85093903D01*
X229277830Y-84994035D01*
X229471401Y-84858495D01*
X229638495Y-84691401D01*
X229774035Y-84497830D01*
X229873903Y-84283663D01*
X229935063Y-84055408D01*
X229955659Y-83820000D01*
X229935063Y-83584592D01*
X229873903Y-83356337D01*
X229774035Y-83142171D01*
X229638495Y-82948599D01*
X229471401Y-82781505D01*
X229285839Y-82651573D01*
X229246975Y-82607257D01*
X229232964Y-82550000D01*
X229246975Y-82492743D01*
X229285839Y-82448426D01*
X229471401Y-82318495D01*
X229638495Y-82151401D01*
X229774035Y-81957830D01*
X229873903Y-81743663D01*
X229935063Y-81515408D01*
X229955659Y-81280000D01*
X229935063Y-81044592D01*
X229873903Y-80816337D01*
X229774035Y-80602171D01*
X229638495Y-80408599D01*
X229471401Y-80241505D01*
X229285839Y-80111573D01*
X229246976Y-80067257D01*
X229232965Y-80010000D01*
X229246976Y-79952743D01*
X229285839Y-79908426D01*
X229471401Y-79778495D01*
X229638495Y-79611401D01*
X229774035Y-79417830D01*
X229873903Y-79203663D01*
X229935063Y-78975408D01*
X229955659Y-78740000D01*
X229935063Y-78504592D01*
X229873903Y-78276337D01*
X229774035Y-78062171D01*
X229638495Y-77868599D01*
X229471401Y-77701505D01*
X229285839Y-77571573D01*
X229246975Y-77527257D01*
X229232964Y-77470000D01*
X229246975Y-77412743D01*
X229285839Y-77368426D01*
X229471401Y-77238495D01*
X229638495Y-77071401D01*
X229774035Y-76877830D01*
X229873903Y-76663663D01*
X229935063Y-76435408D01*
X229955659Y-76200000D01*
X229935063Y-75964592D01*
X229873903Y-75736337D01*
X229774035Y-75522171D01*
X229638495Y-75328599D01*
X229471401Y-75161505D01*
X229285839Y-75031573D01*
X229246975Y-74987257D01*
X229232964Y-74930000D01*
X229246975Y-74872743D01*
X229285839Y-74828426D01*
X229471401Y-74698495D01*
X229638495Y-74531401D01*
X229774035Y-74337830D01*
X229873903Y-74123663D01*
X229935063Y-73895408D01*
X229955659Y-73660000D01*
X229950185Y-73597439D01*
X229935063Y-73424592D01*
X229877650Y-73210322D01*
X229873903Y-73196337D01*
X229774035Y-72982171D01*
X229638495Y-72788599D01*
X229471401Y-72621505D01*
X229285839Y-72491573D01*
X229246975Y-72447257D01*
X229232964Y-72390000D01*
X229246975Y-72332743D01*
X229285839Y-72288426D01*
X229471401Y-72158495D01*
X229638495Y-71991401D01*
X229774035Y-71797830D01*
X229873903Y-71583663D01*
X229935063Y-71355408D01*
X229955659Y-71120000D01*
X229935063Y-70884592D01*
X229873903Y-70656337D01*
X229774035Y-70442171D01*
X229638495Y-70248599D01*
X229471401Y-70081505D01*
X229285839Y-69951573D01*
X229246975Y-69907257D01*
X229232964Y-69850000D01*
X229246975Y-69792743D01*
X229285839Y-69748426D01*
X229471401Y-69618495D01*
X229638495Y-69451401D01*
X229774035Y-69257830D01*
X229873903Y-69043663D01*
X229935063Y-68815408D01*
X229955659Y-68580000D01*
X229935063Y-68344592D01*
X229873903Y-68116337D01*
X229774035Y-67902171D01*
X229638495Y-67708599D01*
X229471401Y-67541505D01*
X229285839Y-67411573D01*
X229246975Y-67367257D01*
X229232964Y-67310000D01*
X229246975Y-67252743D01*
X229285839Y-67208426D01*
X229471401Y-67078495D01*
X229638495Y-66911401D01*
X229774035Y-66717830D01*
X229873903Y-66503663D01*
X229935063Y-66275408D01*
X229955659Y-66040000D01*
X229935063Y-65804592D01*
X229873903Y-65576337D01*
X229774035Y-65362171D01*
X229638495Y-65168599D01*
X229471401Y-65001505D01*
X229285839Y-64871573D01*
X229246976Y-64827257D01*
X229232965Y-64770000D01*
X229246976Y-64712743D01*
X229285839Y-64668426D01*
X229471401Y-64538495D01*
X229638495Y-64371401D01*
X229774035Y-64177830D01*
X229873903Y-63963663D01*
X229935063Y-63735408D01*
X229955659Y-63500000D01*
X229935063Y-63264592D01*
X229873903Y-63036337D01*
X229774035Y-62822171D01*
X229638495Y-62628599D01*
X229471401Y-62461505D01*
X229285839Y-62331573D01*
X229246974Y-62287255D01*
X229232964Y-62229999D01*
X229246975Y-62172742D01*
X229285837Y-62128428D01*
X229471401Y-61998495D01*
X229638495Y-61831401D01*
X229774035Y-61637830D01*
X229873903Y-61423663D01*
X229935063Y-61195408D01*
X229955659Y-60960000D01*
X229935063Y-60724592D01*
X229873903Y-60496337D01*
X229774035Y-60282171D01*
X229638495Y-60088599D01*
X229471401Y-59921505D01*
X229285839Y-59791573D01*
X229246975Y-59747257D01*
X229232964Y-59690000D01*
X229246975Y-59632743D01*
X229285839Y-59588426D01*
X229471401Y-59458495D01*
X229638495Y-59291401D01*
X229774035Y-59097830D01*
X229873903Y-58883663D01*
X229935063Y-58655408D01*
X229955659Y-58420000D01*
X229935063Y-58184592D01*
X229873903Y-57956337D01*
X229774035Y-57742171D01*
X229638495Y-57548599D01*
X229471401Y-57381505D01*
X229285839Y-57251573D01*
X229246975Y-57207257D01*
X229232964Y-57150000D01*
X229246975Y-57092743D01*
X229285839Y-57048426D01*
X229471401Y-56918495D01*
X229638495Y-56751401D01*
X229774035Y-56557830D01*
X229873903Y-56343663D01*
X229935063Y-56115408D01*
X229955659Y-55880000D01*
X229935063Y-55644592D01*
X229873903Y-55416337D01*
X229774035Y-55202171D01*
X229638495Y-55008599D01*
X229471401Y-54841505D01*
X229277830Y-54705965D01*
X229063663Y-54606097D01*
X228979859Y-54583642D01*
X228835407Y-54544936D01*
X228600000Y-54524340D01*
X228364592Y-54544936D01*
X228136336Y-54606097D01*
X227922170Y-54705965D01*
X227728598Y-54841505D01*
X227561508Y-55008595D01*
X227561505Y-55008598D01*
X227561505Y-55008599D01*
X227496366Y-55101625D01*
X227452051Y-55140489D01*
X227394794Y-55154500D01*
X224725206Y-55154500D01*
X224667949Y-55140489D01*
X224623633Y-55101625D01*
X224558495Y-55008599D01*
X224436181Y-54886285D01*
X224404885Y-54833539D01*
X224402696Y-54772246D01*
X224430149Y-54717401D01*
X224480528Y-54682422D01*
X224612089Y-54633352D01*
X224727188Y-54547188D01*
X224813352Y-54432089D01*
X224863597Y-54297375D01*
X224870000Y-54237824D01*
X224870000Y-53590000D01*
X201850000Y-53590000D01*
X201850000Y-54237824D01*
X201856402Y-54297375D01*
X201906647Y-54432089D01*
X201992811Y-54547188D01*
X202107911Y-54633352D01*
X202239471Y-54682422D01*
X202289850Y-54717401D01*
X202317303Y-54772246D01*
X202315114Y-54833539D01*
X202283819Y-54886285D01*
X202161505Y-55008598D01*
X202131483Y-55051474D01*
X202096366Y-55101625D01*
X202052051Y-55140489D01*
X201994794Y-55154500D01*
X199325206Y-55154500D01*
X199267949Y-55140489D01*
X199223633Y-55101625D01*
X199158495Y-55008599D01*
X199036181Y-54886285D01*
X199004885Y-54833539D01*
X199002696Y-54772246D01*
X199030149Y-54717401D01*
X199080528Y-54682422D01*
X199212089Y-54633352D01*
X199327188Y-54547188D01*
X199413352Y-54432089D01*
X199463597Y-54297375D01*
X199470000Y-54237824D01*
X199470000Y-53590000D01*
X196770000Y-53590000D01*
X196770000Y-54237824D01*
X196776402Y-54297375D01*
X196826647Y-54432089D01*
X196912811Y-54547188D01*
X197027911Y-54633352D01*
X197159471Y-54682422D01*
X197209850Y-54717401D01*
X197237303Y-54772246D01*
X197235114Y-54833539D01*
X197203819Y-54886285D01*
X197081503Y-55008601D01*
X196945965Y-55202170D01*
X196846097Y-55416336D01*
X196784936Y-55644592D01*
X196764340Y-55879999D01*
X196784936Y-56115406D01*
X196796913Y-56160104D01*
X196796913Y-56224290D01*
X196764819Y-56279878D01*
X196606515Y-56438183D01*
X196566290Y-56465061D01*
X196518837Y-56474500D01*
X194440445Y-56474500D01*
X194385601Y-56461712D01*
X194342069Y-56425986D01*
X194318828Y-56374691D01*
X194320669Y-56318408D01*
X194375063Y-56115408D01*
X194395659Y-55880000D01*
X194375063Y-55644592D01*
X194313903Y-55416337D01*
X194214035Y-55202171D01*
X194078495Y-55008599D01*
X193956181Y-54886285D01*
X193924885Y-54833539D01*
X193922696Y-54772246D01*
X193950149Y-54717401D01*
X194000528Y-54682422D01*
X194132089Y-54633352D01*
X194247188Y-54547188D01*
X194333352Y-54432089D01*
X194383597Y-54297375D01*
X194390000Y-54237824D01*
X194390000Y-53590000D01*
X172594000Y-53590000D01*
X172532000Y-53573387D01*
X172486613Y-53528000D01*
X172470000Y-53466000D01*
X172470000Y-53214000D01*
X172486613Y-53152000D01*
X172532000Y-53106613D01*
X172594000Y-53090000D01*
X194390000Y-53090000D01*
X194390000Y-52442176D01*
X194383597Y-52382624D01*
X194333352Y-52247910D01*
X194247188Y-52132811D01*
X194132088Y-52046647D01*
X194000528Y-51997577D01*
X193950149Y-51962597D01*
X193922696Y-51907752D01*
X193924885Y-51846460D01*
X193956178Y-51793717D01*
X194078495Y-51671401D01*
X194143633Y-51578374D01*
X194187949Y-51539511D01*
X194245206Y-51525500D01*
X196914794Y-51525500D01*
X196972051Y-51539511D01*
X197016366Y-51578374D01*
X197081505Y-51671401D01*
X197081507Y-51671403D01*
X197081508Y-51671404D01*
X197203818Y-51793714D01*
X197235114Y-51846460D01*
X197237303Y-51907753D01*
X197209850Y-51962597D01*
X197159472Y-51997576D01*
X197027913Y-52046646D01*
X196912811Y-52132811D01*
X196826647Y-52247910D01*
X196776402Y-52382624D01*
X196770000Y-52442176D01*
X196770000Y-53090000D01*
X199470000Y-53090000D01*
X199470000Y-52442176D01*
X199463597Y-52382624D01*
X199413352Y-52247910D01*
X199327188Y-52132811D01*
X199212088Y-52046647D01*
X199080528Y-51997577D01*
X199030149Y-51962597D01*
X199002696Y-51907752D01*
X199004885Y-51846460D01*
X199036178Y-51793717D01*
X199158495Y-51671401D01*
X199223633Y-51578374D01*
X199267949Y-51539511D01*
X199325206Y-51525500D01*
X201994794Y-51525500D01*
X202052051Y-51539511D01*
X202096366Y-51578374D01*
X202161505Y-51671401D01*
X202161507Y-51671403D01*
X202161508Y-51671404D01*
X202283818Y-51793714D01*
X202315114Y-51846460D01*
X202317303Y-51907753D01*
X202289850Y-51962597D01*
X202239472Y-51997576D01*
X202107913Y-52046646D01*
X201992811Y-52132811D01*
X201906647Y-52247910D01*
X201856402Y-52382624D01*
X201850000Y-52442176D01*
X201850000Y-53090000D01*
X224870000Y-53090000D01*
X224870000Y-52442176D01*
X224863597Y-52382624D01*
X224813352Y-52247910D01*
X224727188Y-52132811D01*
X224612088Y-52046647D01*
X224480528Y-51997577D01*
X224430149Y-51962597D01*
X224402696Y-51907752D01*
X224404885Y-51846460D01*
X224436178Y-51793717D01*
X224558495Y-51671401D01*
X224694035Y-51477830D01*
X224793903Y-51263663D01*
X224855063Y-51035408D01*
X224875659Y-50800000D01*
X224855063Y-50564592D01*
X224793903Y-50336337D01*
X224694035Y-50122171D01*
X224558495Y-49928599D01*
X224391401Y-49761505D01*
X224205839Y-49631573D01*
X224166975Y-49587257D01*
X224152964Y-49530000D01*
X224166975Y-49472743D01*
X224205839Y-49428426D01*
X224391401Y-49298495D01*
X224558495Y-49131401D01*
X224694035Y-48937830D01*
X224793903Y-48723663D01*
X224855063Y-48495408D01*
X224875659Y-48260000D01*
X224855063Y-48024592D01*
X224793903Y-47796337D01*
X224694035Y-47582171D01*
X224558495Y-47388599D01*
X224391401Y-47221505D01*
X224205839Y-47091573D01*
X224166975Y-47047257D01*
X224152964Y-46990000D01*
X224166975Y-46932743D01*
X224205839Y-46888426D01*
X224391401Y-46758495D01*
X224558495Y-46591401D01*
X224694035Y-46397830D01*
X224793903Y-46183663D01*
X224855063Y-45955408D01*
X224875659Y-45720000D01*
X224855063Y-45484592D01*
X224793903Y-45256337D01*
X224694035Y-45042171D01*
X224558495Y-44848599D01*
X224391401Y-44681505D01*
X224197830Y-44545965D01*
X223983663Y-44446097D01*
X223923196Y-44429895D01*
X223821696Y-44402698D01*
X223771189Y-44375406D01*
X223738387Y-44328290D01*
X223730322Y-44271450D01*
X223748722Y-44217070D01*
X223789640Y-44176806D01*
X223817518Y-44159954D01*
X224079452Y-43954742D01*
X224314742Y-43719452D01*
X224519954Y-43457518D01*
X224692098Y-43172757D01*
X224828663Y-42869323D01*
X224927656Y-42551641D01*
X224987636Y-42224342D01*
X225007727Y-41892200D01*
X225000610Y-41774535D01*
X226661500Y-41774535D01*
X226700520Y-42008372D01*
X226777494Y-42232590D01*
X226777496Y-42232595D01*
X226890329Y-42441091D01*
X226890330Y-42441092D01*
X227035939Y-42628172D01*
X227122620Y-42707967D01*
X227210357Y-42788735D01*
X227408824Y-42918399D01*
X227625925Y-43013629D01*
X227855740Y-43071826D01*
X227926575Y-43077695D01*
X228032823Y-43086500D01*
X228032829Y-43086500D01*
X228151171Y-43086500D01*
X228151177Y-43086500D01*
X228247764Y-43078496D01*
X228328260Y-43071826D01*
X228558075Y-43013629D01*
X228775176Y-42918399D01*
X228973643Y-42788735D01*
X229148060Y-42628172D01*
X229293671Y-42441091D01*
X229406504Y-42232595D01*
X229483480Y-42008371D01*
X229522500Y-41774535D01*
X229522500Y-41537465D01*
X229483480Y-41303629D01*
X229406504Y-41079405D01*
X229293671Y-40870909D01*
X229231057Y-40790462D01*
X229148060Y-40683827D01*
X229047731Y-40591468D01*
X228973643Y-40523265D01*
X228858936Y-40448324D01*
X228775178Y-40393602D01*
X228775176Y-40393601D01*
X228558075Y-40298371D01*
X228328260Y-40240174D01*
X228328258Y-40240173D01*
X228328255Y-40240173D01*
X228151177Y-40225500D01*
X228151171Y-40225500D01*
X228032829Y-40225500D01*
X228032823Y-40225500D01*
X227855744Y-40240173D01*
X227625925Y-40298371D01*
X227408821Y-40393602D01*
X227210358Y-40523264D01*
X227035939Y-40683827D01*
X226890330Y-40870907D01*
X226890328Y-40870909D01*
X226890329Y-40870909D01*
X226807193Y-41024531D01*
X226777494Y-41079409D01*
X226700520Y-41303627D01*
X226661500Y-41537465D01*
X226661500Y-41774535D01*
X225000610Y-41774535D01*
X224987636Y-41560058D01*
X224927656Y-41232759D01*
X224875731Y-41066126D01*
X224828665Y-40915083D01*
X224828664Y-40915082D01*
X224828663Y-40915077D01*
X224692098Y-40611643D01*
X224593368Y-40448324D01*
X224519954Y-40326881D01*
X224399412Y-40173021D01*
X224314742Y-40064948D01*
X224079452Y-39829658D01*
X223960019Y-39736088D01*
X223817518Y-39624445D01*
X223532754Y-39452300D01*
X223499027Y-39437121D01*
X223447869Y-39394486D01*
X223426145Y-39331533D01*
X223440122Y-39266421D01*
X223485769Y-39217929D01*
X223549914Y-39200047D01*
X228948639Y-39200000D01*
X228996090Y-39209439D01*
G37*
G04 #@! TD.AperFunction*
G04 #@! TA.AperFunction,Conductor*
G36*
X202611064Y-99601295D02*
G01*
X202653460Y-99642917D01*
X202671232Y-99671731D01*
X202724661Y-99758352D01*
X202844858Y-99878549D01*
X202874883Y-99927225D01*
X202879868Y-99984199D01*
X202877370Y-100001255D01*
X202881528Y-100048784D01*
X202882000Y-100059591D01*
X202882000Y-100064755D01*
X202885471Y-100094456D01*
X202885837Y-100098041D01*
X202892285Y-100171745D01*
X202896221Y-100189500D01*
X202921518Y-100259004D01*
X202922702Y-100262408D01*
X202945981Y-100332660D01*
X202953905Y-100349026D01*
X202994551Y-100410827D01*
X202996487Y-100413866D01*
X203035345Y-100476862D01*
X203046827Y-100490956D01*
X203047950Y-100492015D01*
X203047951Y-100492017D01*
X203059600Y-100503007D01*
X203100647Y-100541733D01*
X203103234Y-100544246D01*
X203478181Y-100919193D01*
X203505061Y-100959421D01*
X203514500Y-101006874D01*
X203514500Y-101440291D01*
X203524950Y-101527312D01*
X203524951Y-101556880D01*
X203515000Y-101639749D01*
X203515000Y-101660000D01*
X203517593Y-101660000D01*
X203572753Y-101672944D01*
X203616397Y-101709075D01*
X203673932Y-101784947D01*
X203672952Y-101785689D01*
X203692946Y-101809841D01*
X203705890Y-101865000D01*
X203692946Y-101920159D01*
X203672952Y-101944310D01*
X203673932Y-101945053D01*
X203616397Y-102020925D01*
X203572753Y-102057056D01*
X203517593Y-102070000D01*
X203515000Y-102070000D01*
X203515000Y-102090251D01*
X203524951Y-102173120D01*
X203524950Y-102202688D01*
X203514500Y-102289709D01*
X203514500Y-102740283D01*
X203524699Y-102825215D01*
X203524699Y-102854783D01*
X203524555Y-102855986D01*
X203514500Y-102939714D01*
X203514500Y-103390286D01*
X203519675Y-103433383D01*
X203524699Y-103475216D01*
X203524699Y-103504784D01*
X203519675Y-103546616D01*
X203514501Y-103589711D01*
X203514500Y-103589717D01*
X203514500Y-104040283D01*
X203524699Y-104125216D01*
X203524699Y-104154784D01*
X203514500Y-104239717D01*
X203514500Y-104690283D01*
X203524699Y-104775216D01*
X203524699Y-104804784D01*
X203519675Y-104846616D01*
X203514500Y-104889714D01*
X203514500Y-105340286D01*
X203515996Y-105352743D01*
X203524699Y-105425216D01*
X203524699Y-105454784D01*
X203524555Y-105455986D01*
X203514500Y-105539714D01*
X203514500Y-105990286D01*
X203517066Y-106011650D01*
X203524699Y-106075216D01*
X203524699Y-106104784D01*
X203520374Y-106140799D01*
X203514500Y-106189714D01*
X203514500Y-106640286D01*
X203514501Y-106640291D01*
X203524699Y-106725215D01*
X203524699Y-106754783D01*
X203519697Y-106796442D01*
X203514501Y-106839712D01*
X203514500Y-106839717D01*
X203514500Y-107290290D01*
X203524554Y-107374014D01*
X203576998Y-107507000D01*
X203577096Y-107507248D01*
X203587996Y-107521622D01*
X203663633Y-107621366D01*
X203700931Y-107649649D01*
X203777752Y-107707904D01*
X203822372Y-107725500D01*
X203910985Y-107760445D01*
X203994710Y-107770500D01*
X203994714Y-107770500D01*
X205605286Y-107770500D01*
X205605290Y-107770500D01*
X205689014Y-107760445D01*
X205690257Y-107759955D01*
X205822248Y-107707904D01*
X205936366Y-107621366D01*
X206022904Y-107507248D01*
X206075445Y-107374014D01*
X206085500Y-107290286D01*
X206085500Y-106839714D01*
X206081545Y-106806788D01*
X206089306Y-106746513D01*
X206124775Y-106697164D01*
X206179432Y-106670596D01*
X206240149Y-106673189D01*
X206292341Y-106704320D01*
X207428302Y-107840282D01*
X208478681Y-108890661D01*
X208505561Y-108930889D01*
X208515000Y-108978342D01*
X208515000Y-109506676D01*
X208525325Y-109607752D01*
X208579591Y-109771515D01*
X208670161Y-109918352D01*
X208792147Y-110040338D01*
X208792149Y-110040339D01*
X208792150Y-110040340D01*
X208937753Y-110130149D01*
X208938984Y-110130908D01*
X209102746Y-110185174D01*
X209112114Y-110186131D01*
X209203823Y-110195500D01*
X209802176Y-110195499D01*
X209903253Y-110185174D01*
X210067016Y-110130908D01*
X210213850Y-110040340D01*
X210213851Y-110040338D01*
X210327819Y-109926372D01*
X210383406Y-109894278D01*
X210447594Y-109894278D01*
X210503181Y-109926372D01*
X210617147Y-110040338D01*
X210617149Y-110040339D01*
X210617150Y-110040340D01*
X210762753Y-110130149D01*
X210763984Y-110130908D01*
X210927746Y-110185174D01*
X210937114Y-110186131D01*
X211028823Y-110195500D01*
X211627176Y-110195499D01*
X211728253Y-110185174D01*
X211892016Y-110130908D01*
X212038850Y-110040340D01*
X212160840Y-109918350D01*
X212251408Y-109771516D01*
X212305674Y-109607753D01*
X212316000Y-109506677D01*
X212315999Y-109167951D01*
X212325438Y-109120499D01*
X212352315Y-109080274D01*
X212725771Y-108706819D01*
X212766000Y-108679939D01*
X212813453Y-108670500D01*
X214426000Y-108670500D01*
X214488000Y-108687113D01*
X214533387Y-108732500D01*
X214550000Y-108794500D01*
X214550000Y-108970000D01*
X215650000Y-108970000D01*
X215650000Y-108794500D01*
X215666613Y-108732500D01*
X215712000Y-108687113D01*
X215774000Y-108670500D01*
X216026000Y-108670500D01*
X216088000Y-108687113D01*
X216133387Y-108732500D01*
X216150000Y-108794500D01*
X216150000Y-109346000D01*
X216133387Y-109408000D01*
X216088000Y-109453387D01*
X216026000Y-109470000D01*
X214550000Y-109470000D01*
X214550000Y-110117824D01*
X214556402Y-110177375D01*
X214612878Y-110328793D01*
X214609702Y-110329977D01*
X214623102Y-110364952D01*
X214610478Y-110431507D01*
X214564761Y-110481496D01*
X214499595Y-110500000D01*
X193959773Y-110500000D01*
X193899657Y-110484453D01*
X193854615Y-110441710D01*
X193835943Y-110382489D01*
X193848323Y-110321642D01*
X193888649Y-110274426D01*
X193911401Y-110258495D01*
X194078495Y-110091401D01*
X194214035Y-109897830D01*
X194313903Y-109683663D01*
X194375063Y-109455408D01*
X194395659Y-109220000D01*
X194375063Y-108984592D01*
X194348143Y-108884126D01*
X194348143Y-108819939D01*
X194380235Y-108764353D01*
X197562818Y-105581771D01*
X197612182Y-105551521D01*
X197669898Y-105546979D01*
X197723385Y-105569134D01*
X197760985Y-105613157D01*
X197774500Y-105669452D01*
X197774500Y-105990286D01*
X197777066Y-106011650D01*
X197784699Y-106075216D01*
X197784699Y-106104784D01*
X197780374Y-106140799D01*
X197777250Y-106166819D01*
X197774500Y-106189717D01*
X197774500Y-106640291D01*
X197784950Y-106727312D01*
X197784951Y-106756880D01*
X197775000Y-106839749D01*
X197775000Y-106860000D01*
X197777593Y-106860000D01*
X197832753Y-106872944D01*
X197876397Y-106909075D01*
X197923633Y-106971366D01*
X198023631Y-107047196D01*
X198061755Y-107095049D01*
X198072356Y-107155306D01*
X198052855Y-107213298D01*
X198007998Y-107254906D01*
X197948706Y-107270000D01*
X197775000Y-107270000D01*
X197775000Y-107290251D01*
X197785044Y-107373897D01*
X197837534Y-107507000D01*
X197923989Y-107621010D01*
X198037999Y-107707465D01*
X198171102Y-107759955D01*
X198254749Y-107770000D01*
X198855000Y-107770000D01*
X198855000Y-107244500D01*
X198871613Y-107182500D01*
X198917000Y-107137113D01*
X198979000Y-107120500D01*
X199141000Y-107120500D01*
X199203000Y-107137113D01*
X199248387Y-107182500D01*
X199265000Y-107244500D01*
X199265000Y-107770000D01*
X199865251Y-107770000D01*
X199948897Y-107759955D01*
X200082000Y-107707465D01*
X200196010Y-107621010D01*
X200282465Y-107507000D01*
X200334955Y-107373897D01*
X200345000Y-107290251D01*
X200345000Y-107270000D01*
X200171294Y-107270000D01*
X200112002Y-107254906D01*
X200067145Y-107213298D01*
X200047644Y-107155306D01*
X200058245Y-107095049D01*
X200096369Y-107047196D01*
X200196366Y-106971366D01*
X200243603Y-106909075D01*
X200287247Y-106872944D01*
X200342407Y-106860000D01*
X200345000Y-106860000D01*
X200345000Y-106839742D01*
X200335049Y-106756878D01*
X200335049Y-106727307D01*
X200335444Y-106724015D01*
X200335445Y-106724014D01*
X200343378Y-106657953D01*
X200345500Y-106640288D01*
X200345500Y-106189713D01*
X200344416Y-106180692D01*
X200335445Y-106105986D01*
X200335443Y-106105982D01*
X200335300Y-106104787D01*
X200335300Y-106075213D01*
X200335443Y-106074017D01*
X200335445Y-106074014D01*
X200345500Y-105990286D01*
X200345500Y-105539714D01*
X200335445Y-105455986D01*
X200335301Y-105454784D01*
X200335301Y-105425214D01*
X200345500Y-105340289D01*
X200345500Y-104889712D01*
X200337829Y-104825841D01*
X200335445Y-104805986D01*
X200335443Y-104805983D01*
X200335300Y-104804785D01*
X200335300Y-104775212D01*
X200335443Y-104774018D01*
X200335445Y-104774014D01*
X200345500Y-104690286D01*
X200345500Y-104239714D01*
X200335445Y-104155986D01*
X200335443Y-104155982D01*
X200335300Y-104154787D01*
X200335300Y-104125213D01*
X200335443Y-104124017D01*
X200335445Y-104124014D01*
X200345500Y-104040286D01*
X200345500Y-103589714D01*
X200344464Y-103581089D01*
X200335301Y-103504784D01*
X200335301Y-103475214D01*
X200345500Y-103390289D01*
X200345500Y-102939713D01*
X200340293Y-102896358D01*
X200335445Y-102855986D01*
X200335443Y-102855982D01*
X200335300Y-102854787D01*
X200335300Y-102825213D01*
X200335443Y-102824017D01*
X200335445Y-102824014D01*
X200345500Y-102740286D01*
X200345500Y-102289714D01*
X200345499Y-102289709D01*
X200343075Y-102269527D01*
X200335445Y-102205986D01*
X200335443Y-102205983D01*
X200335300Y-102204785D01*
X200335300Y-102175212D01*
X200335443Y-102174018D01*
X200335445Y-102174014D01*
X200345500Y-102090286D01*
X200345500Y-101946897D01*
X200359617Y-101889436D01*
X200398753Y-101845059D01*
X200426418Y-101834448D01*
X200425224Y-101831432D01*
X200439792Y-101825664D01*
X200480407Y-101809582D01*
X200491444Y-101805803D01*
X200533390Y-101793618D01*
X200550629Y-101783422D01*
X200568102Y-101774862D01*
X200586732Y-101767486D01*
X200622064Y-101741814D01*
X200631830Y-101735400D01*
X200669418Y-101713171D01*
X200669417Y-101713171D01*
X200669420Y-101713170D01*
X200683585Y-101699004D01*
X200698373Y-101686373D01*
X200714587Y-101674594D01*
X200742438Y-101640926D01*
X200750279Y-101632309D01*
X201496771Y-100885819D01*
X201537000Y-100858939D01*
X201584453Y-100849500D01*
X201643648Y-100849500D01*
X201767083Y-100823262D01*
X201828803Y-100810144D01*
X202001730Y-100733151D01*
X202069631Y-100683818D01*
X202154870Y-100621889D01*
X202209238Y-100561508D01*
X202281533Y-100481216D01*
X202376179Y-100317284D01*
X202434674Y-100137256D01*
X202454460Y-99949000D01*
X202434674Y-99760744D01*
X202429990Y-99746330D01*
X202425703Y-99687076D01*
X202449473Y-99632624D01*
X202495844Y-99595481D01*
X202554171Y-99584173D01*
X202611064Y-99601295D01*
G37*
G04 #@! TD.AperFunction*
G04 #@! TA.AperFunction,Conductor*
G36*
X141768835Y-39215920D02*
G01*
X141813724Y-39257713D01*
X141833093Y-39315906D01*
X141822204Y-39376263D01*
X141783721Y-39424019D01*
X141772454Y-39432452D01*
X141686204Y-39547668D01*
X141635909Y-39682515D01*
X141635909Y-39682517D01*
X141629878Y-39738618D01*
X141629500Y-39742130D01*
X141629500Y-41537869D01*
X141635909Y-41597484D01*
X141656027Y-41651423D01*
X141686204Y-41732331D01*
X141717798Y-41774535D01*
X141763577Y-41835688D01*
X141785476Y-41883641D01*
X141785476Y-41936356D01*
X141763578Y-41984309D01*
X141686204Y-42087669D01*
X141635909Y-42222516D01*
X141629500Y-42282130D01*
X141629500Y-44077869D01*
X141635909Y-44137484D01*
X141665294Y-44216268D01*
X141686204Y-44272331D01*
X141763891Y-44376107D01*
X141785789Y-44424057D01*
X141785789Y-44476774D01*
X141763890Y-44524726D01*
X141686648Y-44627908D01*
X141636402Y-44762624D01*
X141630000Y-44822176D01*
X141630000Y-45470000D01*
X146063337Y-45470000D01*
X146110790Y-45479439D01*
X146151018Y-45506319D01*
X147288181Y-46643482D01*
X147315061Y-46683710D01*
X147324500Y-46731163D01*
X147324500Y-55758737D01*
X147324274Y-55766224D01*
X147320780Y-55823975D01*
X147331207Y-55880875D01*
X147332334Y-55888274D01*
X147339312Y-55945735D01*
X147342636Y-55954500D01*
X147348660Y-55976111D01*
X147350348Y-55985324D01*
X147362643Y-56012642D01*
X147374101Y-56038103D01*
X147376960Y-56045005D01*
X147397482Y-56099115D01*
X147402804Y-56106826D01*
X147413824Y-56126364D01*
X147417673Y-56134914D01*
X147417674Y-56134916D01*
X147437408Y-56160104D01*
X147453360Y-56180465D01*
X147457800Y-56186499D01*
X147490668Y-56234117D01*
X147533989Y-56272496D01*
X147539426Y-56277615D01*
X152788181Y-61526370D01*
X152815061Y-61566598D01*
X152824500Y-61614051D01*
X152824500Y-66534720D01*
X152805494Y-66600691D01*
X152774211Y-66650478D01*
X152728150Y-66782113D01*
X152714631Y-66820748D01*
X152694434Y-66999999D01*
X152714631Y-67179251D01*
X152714631Y-67179253D01*
X152714632Y-67179255D01*
X152774211Y-67349522D01*
X152809677Y-67405965D01*
X152870185Y-67502264D01*
X152997735Y-67629814D01*
X152997737Y-67629815D01*
X152997738Y-67629816D01*
X153150478Y-67725789D01*
X153320745Y-67785368D01*
X153455186Y-67800515D01*
X153499999Y-67805565D01*
X153499999Y-67805564D01*
X153500000Y-67805565D01*
X153679255Y-67785368D01*
X153849522Y-67725789D01*
X154002262Y-67629816D01*
X154129816Y-67502262D01*
X154225789Y-67349522D01*
X154285368Y-67179255D01*
X154305565Y-67000000D01*
X154305281Y-66997483D01*
X154285368Y-66820748D01*
X154285368Y-66820745D01*
X154225789Y-66650478D01*
X154194505Y-66600691D01*
X154175500Y-66534720D01*
X154175500Y-62435939D01*
X154189015Y-62379644D01*
X154226615Y-62335621D01*
X154280102Y-62313466D01*
X154337818Y-62318008D01*
X154387181Y-62348258D01*
X154788181Y-62749258D01*
X154815061Y-62789486D01*
X154824500Y-62836939D01*
X154824500Y-69034720D01*
X154805494Y-69100691D01*
X154774211Y-69150478D01*
X154715668Y-69317784D01*
X154714631Y-69320748D01*
X154694434Y-69500000D01*
X154714631Y-69679251D01*
X154714631Y-69679253D01*
X154714632Y-69679255D01*
X154774211Y-69849522D01*
X154825092Y-69930499D01*
X154870185Y-70002264D01*
X155002960Y-70135039D01*
X155035054Y-70190626D01*
X155035054Y-70254814D01*
X155002960Y-70310401D01*
X151894424Y-73418937D01*
X151888972Y-73424070D01*
X151845668Y-73462434D01*
X151812800Y-73510051D01*
X151808363Y-73516081D01*
X151772673Y-73561637D01*
X151768824Y-73570188D01*
X151757807Y-73589722D01*
X151752481Y-73597439D01*
X151731965Y-73651532D01*
X151729102Y-73658446D01*
X151705349Y-73711226D01*
X151703661Y-73720440D01*
X151697638Y-73742047D01*
X151694310Y-73750821D01*
X151687333Y-73808276D01*
X151686207Y-73815675D01*
X151675780Y-73872576D01*
X151679274Y-73930328D01*
X151679500Y-73937815D01*
X151679500Y-87195500D01*
X151662887Y-87257500D01*
X151617500Y-87302887D01*
X151555500Y-87319500D01*
X151194383Y-87319500D01*
X151183576Y-87319028D01*
X151180170Y-87318730D01*
X151129999Y-87314340D01*
X151076422Y-87319028D01*
X151065615Y-87319500D01*
X150232130Y-87319500D01*
X150172515Y-87325909D01*
X150037669Y-87376204D01*
X149922454Y-87462454D01*
X149836204Y-87577668D01*
X149785909Y-87712516D01*
X149779500Y-87772131D01*
X149779500Y-88605619D01*
X149779028Y-88616427D01*
X149774340Y-88670000D01*
X149779028Y-88723573D01*
X149779500Y-88734381D01*
X149779500Y-91367869D01*
X149785229Y-91421156D01*
X149785909Y-91427483D01*
X149836204Y-91562331D01*
X149922454Y-91677546D01*
X150037669Y-91763796D01*
X150172517Y-91814091D01*
X150232127Y-91820500D01*
X151555500Y-91820499D01*
X151617500Y-91837112D01*
X151662887Y-91882499D01*
X151679500Y-91944499D01*
X151679500Y-92894849D01*
X151679274Y-92902336D01*
X151675780Y-92960087D01*
X151686207Y-93016987D01*
X151687334Y-93024386D01*
X151694312Y-93081847D01*
X151697636Y-93090612D01*
X151703660Y-93112223D01*
X151705348Y-93121436D01*
X151707403Y-93126001D01*
X151729101Y-93174215D01*
X151731960Y-93181117D01*
X151752482Y-93235227D01*
X151757804Y-93242938D01*
X151768824Y-93262476D01*
X151772673Y-93271026D01*
X151772674Y-93271028D01*
X151773396Y-93271949D01*
X151808360Y-93316577D01*
X151812800Y-93322611D01*
X151845668Y-93370229D01*
X151888989Y-93408608D01*
X151894426Y-93413727D01*
X153726778Y-95246080D01*
X153731912Y-95251534D01*
X153770268Y-95294830D01*
X153817879Y-95327693D01*
X153823912Y-95332132D01*
X153866453Y-95365461D01*
X153869471Y-95367825D01*
X153878022Y-95371673D01*
X153897558Y-95382692D01*
X153905273Y-95388017D01*
X153952537Y-95405942D01*
X153959382Y-95408538D01*
X153966297Y-95411402D01*
X154019060Y-95435149D01*
X154028267Y-95436836D01*
X154049887Y-95442863D01*
X154058650Y-95446186D01*
X154058652Y-95446186D01*
X154058654Y-95446187D01*
X154116116Y-95453164D01*
X154123481Y-95454284D01*
X154180414Y-95464718D01*
X154238163Y-95461225D01*
X154245650Y-95460999D01*
X165292448Y-95460999D01*
X165355450Y-95478196D01*
X165400976Y-95525019D01*
X165416399Y-95588478D01*
X165397441Y-95650972D01*
X165390212Y-95662475D01*
X165330631Y-95832748D01*
X165310434Y-96012000D01*
X165330631Y-96191251D01*
X165330631Y-96191253D01*
X165330632Y-96191255D01*
X165390211Y-96361522D01*
X165390213Y-96361525D01*
X165482247Y-96507999D01*
X165500473Y-96560087D01*
X165494294Y-96614925D01*
X165464934Y-96661651D01*
X160264406Y-101862181D01*
X160224178Y-101889061D01*
X160176725Y-101898500D01*
X145715056Y-101898500D01*
X145667603Y-101889061D01*
X145627375Y-101862181D01*
X143134193Y-99369000D01*
X151182000Y-99369000D01*
X151182000Y-99516824D01*
X151188402Y-99576375D01*
X151238647Y-99711089D01*
X151324811Y-99826188D01*
X151439910Y-99912352D01*
X151574624Y-99962597D01*
X151634176Y-99969000D01*
X151932000Y-99969000D01*
X151932000Y-99369000D01*
X152432000Y-99369000D01*
X152432000Y-99969000D01*
X152729824Y-99969000D01*
X152789375Y-99962597D01*
X152924089Y-99912352D01*
X153039188Y-99826188D01*
X153125352Y-99711089D01*
X153175597Y-99576375D01*
X153182000Y-99516824D01*
X153182000Y-99369000D01*
X155682000Y-99369000D01*
X155682000Y-99516824D01*
X155688402Y-99576375D01*
X155738647Y-99711089D01*
X155824811Y-99826188D01*
X155939910Y-99912352D01*
X156074624Y-99962597D01*
X156134176Y-99969000D01*
X156432000Y-99969000D01*
X156432000Y-99369000D01*
X156932000Y-99369000D01*
X156932000Y-99969000D01*
X157229824Y-99969000D01*
X157289375Y-99962597D01*
X157424089Y-99912352D01*
X157539188Y-99826188D01*
X157625352Y-99711089D01*
X157675597Y-99576375D01*
X157682000Y-99516824D01*
X157682000Y-99369000D01*
X156932000Y-99369000D01*
X156432000Y-99369000D01*
X155682000Y-99369000D01*
X153182000Y-99369000D01*
X152432000Y-99369000D01*
X151932000Y-99369000D01*
X151182000Y-99369000D01*
X143134193Y-99369000D01*
X142634193Y-98869000D01*
X151182000Y-98869000D01*
X151932000Y-98869000D01*
X151932000Y-98269000D01*
X152432000Y-98269000D01*
X152432000Y-98869000D01*
X153182000Y-98869000D01*
X155682000Y-98869000D01*
X156432000Y-98869000D01*
X156432000Y-98269000D01*
X156932000Y-98269000D01*
X156932000Y-98869000D01*
X157682000Y-98869000D01*
X157682000Y-98721176D01*
X157675597Y-98661624D01*
X157625352Y-98526910D01*
X157539188Y-98411811D01*
X157424089Y-98325647D01*
X157289375Y-98275402D01*
X157229824Y-98269000D01*
X156932000Y-98269000D01*
X156432000Y-98269000D01*
X156134176Y-98269000D01*
X156074624Y-98275402D01*
X155939910Y-98325647D01*
X155824811Y-98411811D01*
X155738647Y-98526910D01*
X155688402Y-98661624D01*
X155682000Y-98721176D01*
X155682000Y-98869000D01*
X153182000Y-98869000D01*
X153182000Y-98721176D01*
X153175597Y-98661624D01*
X153125352Y-98526910D01*
X153039188Y-98411811D01*
X152924089Y-98325647D01*
X152789375Y-98275402D01*
X152729824Y-98269000D01*
X152432000Y-98269000D01*
X151932000Y-98269000D01*
X151634176Y-98269000D01*
X151574624Y-98275402D01*
X151439910Y-98325647D01*
X151324811Y-98411811D01*
X151238647Y-98526910D01*
X151188402Y-98661624D01*
X151182000Y-98721176D01*
X151182000Y-98869000D01*
X142634193Y-98869000D01*
X140675062Y-96909869D01*
X141905500Y-96909869D01*
X141911909Y-96969484D01*
X141937056Y-97036907D01*
X141962204Y-97104331D01*
X142048454Y-97219546D01*
X142163669Y-97305796D01*
X142298517Y-97356091D01*
X142358127Y-97362500D01*
X144153872Y-97362499D01*
X144213483Y-97356091D01*
X144348331Y-97305796D01*
X144463546Y-97219546D01*
X144549796Y-97104331D01*
X144599003Y-96972398D01*
X144633981Y-96922021D01*
X144688826Y-96894568D01*
X144750119Y-96896757D01*
X144802865Y-96928053D01*
X144924918Y-97050106D01*
X145118423Y-97185600D01*
X145332507Y-97285430D01*
X145545999Y-97342635D01*
X145546000Y-97342636D01*
X145546000Y-97342635D01*
X146046000Y-97342635D01*
X146259492Y-97285430D01*
X146473576Y-97185600D01*
X146667081Y-97050106D01*
X146834109Y-96883078D01*
X146964119Y-96697405D01*
X147008437Y-96658539D01*
X147065694Y-96644528D01*
X147122951Y-96658539D01*
X147167267Y-96697402D01*
X147297505Y-96883401D01*
X147464599Y-97050495D01*
X147658170Y-97186035D01*
X147872337Y-97285903D01*
X148100592Y-97347063D01*
X148336000Y-97367659D01*
X148345030Y-97366869D01*
X151181500Y-97366869D01*
X151187909Y-97426484D01*
X151202759Y-97466299D01*
X151238204Y-97561331D01*
X151324454Y-97676546D01*
X151439669Y-97762796D01*
X151574517Y-97813091D01*
X151634127Y-97819500D01*
X152729872Y-97819499D01*
X152789483Y-97813091D01*
X152924331Y-97762796D01*
X152964477Y-97732743D01*
X152982525Y-97719233D01*
X153017676Y-97700846D01*
X153056835Y-97694500D01*
X154128584Y-97694500D01*
X154169534Y-97701457D01*
X154320745Y-97754368D01*
X154500000Y-97774565D01*
X154679255Y-97754368D01*
X154830465Y-97701457D01*
X154871416Y-97694500D01*
X155807165Y-97694500D01*
X155846324Y-97700846D01*
X155881475Y-97719233D01*
X155939666Y-97762794D01*
X155939669Y-97762796D01*
X156074517Y-97813091D01*
X156134127Y-97819500D01*
X157229872Y-97819499D01*
X157289483Y-97813091D01*
X157424331Y-97762796D01*
X157539546Y-97676546D01*
X157625796Y-97561331D01*
X157676091Y-97426483D01*
X157682500Y-97366873D01*
X157682499Y-96571128D01*
X157676091Y-96511517D01*
X157625796Y-96376669D01*
X157539546Y-96261454D01*
X157424331Y-96175204D01*
X157289483Y-96124909D01*
X157229873Y-96118500D01*
X157229869Y-96118500D01*
X156134130Y-96118500D01*
X156074515Y-96124909D01*
X155939667Y-96175204D01*
X155881475Y-96218767D01*
X155846324Y-96237154D01*
X155807165Y-96243500D01*
X154871416Y-96243500D01*
X154830465Y-96236542D01*
X154679255Y-96183632D01*
X154679253Y-96183631D01*
X154679251Y-96183631D01*
X154500000Y-96163434D01*
X154320748Y-96183631D01*
X154320745Y-96183631D01*
X154320745Y-96183632D01*
X154169534Y-96236542D01*
X154128584Y-96243500D01*
X153056835Y-96243500D01*
X153017676Y-96237154D01*
X152982525Y-96218767D01*
X152924333Y-96175205D01*
X152924331Y-96175204D01*
X152789483Y-96124909D01*
X152729873Y-96118500D01*
X152729869Y-96118500D01*
X151634130Y-96118500D01*
X151574515Y-96124909D01*
X151439669Y-96175204D01*
X151324454Y-96261454D01*
X151238204Y-96376668D01*
X151187909Y-96511516D01*
X151181500Y-96571130D01*
X151181500Y-97366869D01*
X148345030Y-97366869D01*
X148571408Y-97347063D01*
X148799663Y-97285903D01*
X149013830Y-97186035D01*
X149207401Y-97050495D01*
X149374495Y-96883401D01*
X149510035Y-96689830D01*
X149609903Y-96475663D01*
X149671063Y-96247408D01*
X149691659Y-96012000D01*
X149676257Y-95835964D01*
X149671063Y-95776592D01*
X149648891Y-95693845D01*
X149609903Y-95548337D01*
X149510035Y-95334171D01*
X149374495Y-95140599D01*
X149207401Y-94973505D01*
X149013830Y-94837965D01*
X148799663Y-94738097D01*
X148738501Y-94721709D01*
X148571407Y-94676936D01*
X148336000Y-94656340D01*
X148100592Y-94676936D01*
X147872336Y-94738097D01*
X147658170Y-94837965D01*
X147464598Y-94973505D01*
X147297508Y-95140595D01*
X147297505Y-95140598D01*
X147297505Y-95140599D01*
X147247935Y-95211393D01*
X147167269Y-95326596D01*
X147122951Y-95365461D01*
X147065694Y-95379472D01*
X147008437Y-95365461D01*
X146964119Y-95326595D01*
X146834109Y-95140921D01*
X146667081Y-94973893D01*
X146473576Y-94838399D01*
X146259492Y-94738569D01*
X146046000Y-94681364D01*
X146046000Y-97342635D01*
X145546000Y-97342635D01*
X145546000Y-94681364D01*
X145545999Y-94681364D01*
X145332507Y-94738569D01*
X145118421Y-94838400D01*
X144924924Y-94973888D01*
X144802865Y-95095947D01*
X144750118Y-95127242D01*
X144688825Y-95129431D01*
X144633981Y-95101978D01*
X144599002Y-95051598D01*
X144579826Y-95000185D01*
X144549796Y-94919669D01*
X144463546Y-94804454D01*
X144348331Y-94718204D01*
X144213483Y-94667909D01*
X144153873Y-94661500D01*
X144153869Y-94661500D01*
X142358130Y-94661500D01*
X142298515Y-94667909D01*
X142163669Y-94718204D01*
X142048454Y-94804454D01*
X141962204Y-94919668D01*
X141911909Y-95054516D01*
X141905500Y-95114130D01*
X141905500Y-96909869D01*
X140675062Y-96909869D01*
X138252819Y-94487626D01*
X138225939Y-94447398D01*
X138216500Y-94399945D01*
X138216500Y-89473508D01*
X138234211Y-89409643D01*
X138282285Y-89364023D01*
X138346990Y-89349678D01*
X138409840Y-89370707D01*
X138452881Y-89421102D01*
X138525965Y-89577830D01*
X138661505Y-89771401D01*
X138828599Y-89938495D01*
X139022170Y-90074035D01*
X139236337Y-90173903D01*
X139464592Y-90235063D01*
X139699999Y-90255659D01*
X139699999Y-90255658D01*
X139700000Y-90255659D01*
X139935408Y-90235063D01*
X140163663Y-90173903D01*
X140377830Y-90074035D01*
X140571401Y-89938495D01*
X140738495Y-89771401D01*
X140803633Y-89678374D01*
X140847949Y-89639511D01*
X140905206Y-89625500D01*
X141505501Y-89625500D01*
X141567501Y-89642113D01*
X141612888Y-89687500D01*
X141629501Y-89749500D01*
X141629501Y-89797872D01*
X141635909Y-89857483D01*
X141686204Y-89992331D01*
X141772454Y-90107546D01*
X141887669Y-90193796D01*
X142022517Y-90244091D01*
X142082127Y-90250500D01*
X144715611Y-90250499D01*
X144726420Y-90250971D01*
X144779999Y-90255659D01*
X144779999Y-90255658D01*
X144780000Y-90255659D01*
X144833580Y-90250970D01*
X144844389Y-90250499D01*
X145677870Y-90250499D01*
X145677872Y-90250499D01*
X145737483Y-90244091D01*
X145872331Y-90193796D01*
X145987546Y-90107546D01*
X146073796Y-89992331D01*
X146124091Y-89857483D01*
X146130500Y-89797873D01*
X146130499Y-88964384D01*
X146130971Y-88953576D01*
X146135659Y-88899999D01*
X146130971Y-88846422D01*
X146130499Y-88835613D01*
X146130499Y-88002130D01*
X146130499Y-88002127D01*
X146124091Y-87942517D01*
X146073796Y-87807669D01*
X145996421Y-87704310D01*
X145974523Y-87656358D01*
X145974523Y-87603642D01*
X145996422Y-87555689D01*
X146016832Y-87528425D01*
X146073796Y-87452331D01*
X146124091Y-87317483D01*
X146130500Y-87257873D01*
X146130499Y-86424384D01*
X146130971Y-86413576D01*
X146135659Y-86359999D01*
X146130971Y-86306422D01*
X146130499Y-86295613D01*
X146130499Y-85462130D01*
X146130499Y-85462127D01*
X146124091Y-85402517D01*
X146073796Y-85267669D01*
X145996108Y-85163892D01*
X145974210Y-85115940D01*
X145974210Y-85063223D01*
X145996110Y-85015270D01*
X146073352Y-84912089D01*
X146123597Y-84777375D01*
X146130000Y-84717824D01*
X146130000Y-84070000D01*
X141630000Y-84070000D01*
X141630000Y-84717824D01*
X141636402Y-84777375D01*
X141686647Y-84912089D01*
X141763890Y-85015272D01*
X141785789Y-85063225D01*
X141785789Y-85115941D01*
X141763890Y-85163894D01*
X141686204Y-85267668D01*
X141635909Y-85402516D01*
X141629500Y-85462131D01*
X141629500Y-85510500D01*
X141612887Y-85572500D01*
X141567500Y-85617887D01*
X141505500Y-85634500D01*
X140905206Y-85634500D01*
X140847949Y-85620489D01*
X140803633Y-85581625D01*
X140738495Y-85488599D01*
X140616181Y-85366284D01*
X140584885Y-85313539D01*
X140582696Y-85252246D01*
X140610149Y-85197401D01*
X140660528Y-85162422D01*
X140792089Y-85113352D01*
X140907188Y-85027188D01*
X140993352Y-84912089D01*
X141043597Y-84777375D01*
X141050000Y-84717824D01*
X141050000Y-84070000D01*
X139574000Y-84070000D01*
X139512000Y-84053387D01*
X139466613Y-84008000D01*
X139450000Y-83946000D01*
X139450000Y-83694000D01*
X139466613Y-83632000D01*
X139512000Y-83586613D01*
X139574000Y-83570000D01*
X141050000Y-83570000D01*
X141050000Y-82922176D01*
X141043597Y-82862624D01*
X140993352Y-82727910D01*
X140907188Y-82612811D01*
X140792088Y-82526647D01*
X140660528Y-82477577D01*
X140610149Y-82442597D01*
X140582696Y-82387752D01*
X140584885Y-82326460D01*
X140616178Y-82273717D01*
X140738495Y-82151401D01*
X140838642Y-82008375D01*
X140882960Y-81969511D01*
X140940217Y-81955500D01*
X141505501Y-81955500D01*
X141567501Y-81972113D01*
X141612888Y-82017500D01*
X141629501Y-82079500D01*
X141629501Y-82177872D01*
X141633772Y-82217612D01*
X141635909Y-82237484D01*
X141666123Y-82318491D01*
X141686204Y-82372331D01*
X141763891Y-82476107D01*
X141785789Y-82524057D01*
X141785789Y-82576774D01*
X141763890Y-82624726D01*
X141686648Y-82727908D01*
X141636402Y-82862624D01*
X141630000Y-82922176D01*
X141630000Y-83570000D01*
X146130000Y-83570000D01*
X146130000Y-82922176D01*
X146123597Y-82862624D01*
X146073352Y-82727911D01*
X145996109Y-82624727D01*
X145974210Y-82576774D01*
X145974210Y-82524057D01*
X145996107Y-82476109D01*
X146073796Y-82372331D01*
X146124091Y-82237483D01*
X146130500Y-82177873D01*
X146130499Y-81344384D01*
X146130971Y-81333576D01*
X146135659Y-81279999D01*
X146130971Y-81226422D01*
X146130499Y-81215613D01*
X146130499Y-80751554D01*
X146147696Y-80688553D01*
X146194518Y-80643026D01*
X146257977Y-80627603D01*
X146320471Y-80646560D01*
X146462478Y-80735789D01*
X146632745Y-80795368D01*
X146812000Y-80815565D01*
X146991255Y-80795368D01*
X147161522Y-80735789D01*
X147314262Y-80639816D01*
X147441816Y-80512262D01*
X147537789Y-80359522D01*
X147537789Y-80359520D01*
X147545222Y-80347692D01*
X147547598Y-80349185D01*
X147562941Y-80324734D01*
X147609683Y-80295338D01*
X147664552Y-80289149D01*
X147828000Y-80307565D01*
X148007255Y-80287368D01*
X148177522Y-80227789D01*
X148330262Y-80131816D01*
X148457816Y-80004262D01*
X148553789Y-79851522D01*
X148613368Y-79681255D01*
X148633565Y-79502000D01*
X148613368Y-79322745D01*
X148553789Y-79152478D01*
X148522505Y-79102691D01*
X148503500Y-79036720D01*
X148503500Y-76732151D01*
X148503726Y-76724665D01*
X148504340Y-76714516D01*
X148507219Y-76666915D01*
X148496785Y-76609982D01*
X148495663Y-76602603D01*
X148488688Y-76545155D01*
X148488687Y-76545153D01*
X148488687Y-76545151D01*
X148485364Y-76536388D01*
X148479337Y-76514768D01*
X148477650Y-76505561D01*
X148453903Y-76452798D01*
X148451039Y-76445883D01*
X148447066Y-76435407D01*
X148430518Y-76391774D01*
X148425193Y-76384059D01*
X148414174Y-76364523D01*
X148410326Y-76355972D01*
X148374639Y-76310422D01*
X148370200Y-76304389D01*
X148337332Y-76256770D01*
X148294027Y-76218406D01*
X148288572Y-76213271D01*
X146166818Y-74091517D01*
X146139938Y-74051289D01*
X146130499Y-74003836D01*
X146130499Y-73724386D01*
X146130971Y-73713577D01*
X146135659Y-73659999D01*
X146130971Y-73606422D01*
X146130499Y-73595613D01*
X146130499Y-72762130D01*
X146130499Y-72762127D01*
X146124091Y-72702517D01*
X146073796Y-72567669D01*
X145996108Y-72463892D01*
X145974210Y-72415940D01*
X145974210Y-72363223D01*
X145996110Y-72315270D01*
X146073352Y-72212089D01*
X146123597Y-72077375D01*
X146130000Y-72017824D01*
X146130000Y-71370000D01*
X141630000Y-71370000D01*
X141630000Y-72017824D01*
X141636402Y-72077375D01*
X141686647Y-72212089D01*
X141763890Y-72315272D01*
X141785789Y-72363225D01*
X141785789Y-72415941D01*
X141763890Y-72463894D01*
X141686204Y-72567668D01*
X141635909Y-72702516D01*
X141629500Y-72762131D01*
X141629500Y-72810500D01*
X141612887Y-72872500D01*
X141567500Y-72917887D01*
X141505500Y-72934500D01*
X140905206Y-72934500D01*
X140847949Y-72920489D01*
X140803633Y-72881625D01*
X140738495Y-72788599D01*
X140616181Y-72666284D01*
X140584885Y-72613539D01*
X140582696Y-72552246D01*
X140610149Y-72497401D01*
X140660528Y-72462422D01*
X140792089Y-72413352D01*
X140907188Y-72327188D01*
X140993352Y-72212089D01*
X141043597Y-72077375D01*
X141050000Y-72017824D01*
X141050000Y-71370000D01*
X139574000Y-71370000D01*
X139512000Y-71353387D01*
X139466613Y-71308000D01*
X139450000Y-71246000D01*
X139450000Y-70994000D01*
X139466613Y-70932000D01*
X139512000Y-70886613D01*
X139574000Y-70870000D01*
X141050000Y-70870000D01*
X141050000Y-70222176D01*
X141043597Y-70162624D01*
X140993352Y-70027910D01*
X140907188Y-69912811D01*
X140792088Y-69826647D01*
X140660528Y-69777577D01*
X140610149Y-69742597D01*
X140582696Y-69687752D01*
X140584885Y-69626460D01*
X140616178Y-69573717D01*
X140738495Y-69451401D01*
X140803633Y-69358374D01*
X140847949Y-69319511D01*
X140905206Y-69305500D01*
X141505501Y-69305500D01*
X141567501Y-69322113D01*
X141612888Y-69367500D01*
X141629501Y-69429500D01*
X141629501Y-69477870D01*
X141635909Y-69537484D01*
X141682255Y-69661744D01*
X141686204Y-69672331D01*
X141763891Y-69776107D01*
X141785789Y-69824057D01*
X141785789Y-69876774D01*
X141763890Y-69924726D01*
X141686648Y-70027908D01*
X141636402Y-70162624D01*
X141630000Y-70222176D01*
X141630000Y-70870000D01*
X146130000Y-70870000D01*
X146130000Y-70222176D01*
X146123597Y-70162624D01*
X146073352Y-70027911D01*
X145996109Y-69924727D01*
X145974210Y-69876774D01*
X145974210Y-69824057D01*
X145996107Y-69776109D01*
X146073796Y-69672331D01*
X146124091Y-69537483D01*
X146130500Y-69477873D01*
X146130499Y-68644384D01*
X146130971Y-68633576D01*
X146135659Y-68579999D01*
X146130971Y-68526422D01*
X146130499Y-68515613D01*
X146130499Y-67682130D01*
X146130499Y-67682127D01*
X146124091Y-67622517D01*
X146073796Y-67487669D01*
X145996421Y-67384310D01*
X145974523Y-67336358D01*
X145974523Y-67283642D01*
X145996422Y-67235689D01*
X146016832Y-67208425D01*
X146073796Y-67132331D01*
X146124091Y-66997483D01*
X146130500Y-66937873D01*
X146130499Y-66104384D01*
X146130971Y-66093576D01*
X146135659Y-66039999D01*
X146130971Y-65986422D01*
X146130499Y-65975613D01*
X146130499Y-65142130D01*
X146130499Y-65142127D01*
X146124091Y-65082517D01*
X146073796Y-64947669D01*
X145996420Y-64844308D01*
X145974522Y-64796357D01*
X145974522Y-64743640D01*
X145996419Y-64695692D01*
X146073796Y-64592331D01*
X146124091Y-64457483D01*
X146130500Y-64397873D01*
X146130499Y-63564384D01*
X146130971Y-63553576D01*
X146135659Y-63500000D01*
X146130970Y-63446420D01*
X146130499Y-63435613D01*
X146130499Y-62602130D01*
X146130499Y-62602127D01*
X146124091Y-62542517D01*
X146073796Y-62407669D01*
X146073795Y-62407667D01*
X145996422Y-62304309D01*
X145974523Y-62256357D01*
X145974523Y-62203640D01*
X145996420Y-62155691D01*
X146073796Y-62052331D01*
X146124091Y-61917483D01*
X146130500Y-61857873D01*
X146130499Y-61024384D01*
X146130971Y-61013576D01*
X146135659Y-60959999D01*
X146130971Y-60906422D01*
X146130499Y-60895613D01*
X146130499Y-60062130D01*
X146130499Y-60062127D01*
X146124091Y-60002517D01*
X146073796Y-59867669D01*
X145996108Y-59763892D01*
X145974210Y-59715940D01*
X145974210Y-59663223D01*
X145996110Y-59615270D01*
X146073352Y-59512089D01*
X146123597Y-59377375D01*
X146130000Y-59317824D01*
X146130000Y-58670000D01*
X141630000Y-58670000D01*
X141630000Y-59317824D01*
X141636402Y-59377375D01*
X141686647Y-59512089D01*
X141763890Y-59615272D01*
X141785789Y-59663225D01*
X141785789Y-59715941D01*
X141763890Y-59763894D01*
X141686204Y-59867668D01*
X141635909Y-60002516D01*
X141629500Y-60062130D01*
X141629500Y-61857869D01*
X141635909Y-61917483D01*
X141686204Y-62052331D01*
X141743167Y-62128424D01*
X141763577Y-62155688D01*
X141785476Y-62203641D01*
X141785476Y-62256356D01*
X141763578Y-62304309D01*
X141686204Y-62407669D01*
X141635909Y-62542516D01*
X141629500Y-62602131D01*
X141629500Y-62650500D01*
X141612887Y-62712500D01*
X141567500Y-62757887D01*
X141505500Y-62774500D01*
X140905206Y-62774500D01*
X140847949Y-62760489D01*
X140803633Y-62721625D01*
X140738495Y-62628599D01*
X140571401Y-62461505D01*
X140385839Y-62331573D01*
X140346974Y-62287255D01*
X140332964Y-62229999D01*
X140346975Y-62172742D01*
X140385837Y-62128428D01*
X140571401Y-61998495D01*
X140738495Y-61831401D01*
X140874035Y-61637830D01*
X140973903Y-61423663D01*
X141035063Y-61195408D01*
X141055659Y-60960000D01*
X141035063Y-60724592D01*
X140973903Y-60496337D01*
X140874035Y-60282171D01*
X140738495Y-60088599D01*
X140616180Y-59966284D01*
X140584885Y-59913539D01*
X140582696Y-59852246D01*
X140610149Y-59797401D01*
X140660528Y-59762422D01*
X140792089Y-59713352D01*
X140907188Y-59627188D01*
X140993352Y-59512089D01*
X141043597Y-59377375D01*
X141050000Y-59317824D01*
X141050000Y-58670000D01*
X138350000Y-58670000D01*
X138350000Y-59317824D01*
X138356402Y-59377375D01*
X138406647Y-59512089D01*
X138492811Y-59627188D01*
X138607911Y-59713352D01*
X138739471Y-59762422D01*
X138789850Y-59797401D01*
X138817303Y-59852246D01*
X138815114Y-59913539D01*
X138783819Y-59966285D01*
X138661503Y-60088601D01*
X138525965Y-60282170D01*
X138426097Y-60496336D01*
X138364936Y-60724592D01*
X138344340Y-60959999D01*
X138364936Y-61195407D01*
X138376913Y-61240105D01*
X138426097Y-61423663D01*
X138525965Y-61637830D01*
X138661505Y-61831401D01*
X138828599Y-61998495D01*
X139014160Y-62128426D01*
X139053024Y-62172743D01*
X139067035Y-62230000D01*
X139053024Y-62287257D01*
X139014159Y-62331575D01*
X138828595Y-62461508D01*
X138661505Y-62628598D01*
X138525965Y-62822170D01*
X138426097Y-63036336D01*
X138364936Y-63264592D01*
X138344340Y-63500000D01*
X138364936Y-63735407D01*
X138376913Y-63780105D01*
X138426097Y-63963663D01*
X138525965Y-64177830D01*
X138661505Y-64371401D01*
X138828599Y-64538495D01*
X139014160Y-64668426D01*
X139053024Y-64712743D01*
X139067035Y-64770000D01*
X139053024Y-64827257D01*
X139014159Y-64871575D01*
X138828595Y-65001508D01*
X138661505Y-65168598D01*
X138525965Y-65362170D01*
X138426097Y-65576336D01*
X138364936Y-65804592D01*
X138344340Y-66039999D01*
X138364936Y-66275407D01*
X138376913Y-66320105D01*
X138426097Y-66503663D01*
X138525965Y-66717830D01*
X138661505Y-66911401D01*
X138828599Y-67078495D01*
X139014160Y-67208426D01*
X139053024Y-67252743D01*
X139067035Y-67310000D01*
X139053024Y-67367257D01*
X139014158Y-67411575D01*
X138905490Y-67487666D01*
X138828595Y-67541508D01*
X138661505Y-67708598D01*
X138561359Y-67851623D01*
X138517041Y-67890489D01*
X138459784Y-67904500D01*
X137565151Y-67904500D01*
X137557665Y-67904274D01*
X137555385Y-67904136D01*
X137499912Y-67900780D01*
X137443011Y-67911207D01*
X137435612Y-67912333D01*
X137378157Y-67919310D01*
X137369383Y-67922638D01*
X137347776Y-67928661D01*
X137338562Y-67930349D01*
X137285782Y-67954102D01*
X137278868Y-67956965D01*
X137224775Y-67977481D01*
X137217058Y-67982807D01*
X137197524Y-67993824D01*
X137188973Y-67997673D01*
X137143417Y-68033363D01*
X137137387Y-68037800D01*
X137089770Y-68070668D01*
X137051406Y-68113972D01*
X137046273Y-68119424D01*
X136887180Y-68278517D01*
X136837818Y-68308767D01*
X136780102Y-68313309D01*
X136726615Y-68291154D01*
X136689015Y-68247131D01*
X136675500Y-68190836D01*
X136675500Y-54831163D01*
X136684939Y-54783710D01*
X136711819Y-54743482D01*
X137023212Y-54432089D01*
X138137883Y-53317416D01*
X138198723Y-53284038D01*
X138267972Y-53288577D01*
X138323938Y-53329612D01*
X138349090Y-53394291D01*
X138364936Y-53575407D01*
X138409709Y-53742501D01*
X138426097Y-53803663D01*
X138525965Y-54017830D01*
X138661505Y-54211401D01*
X138828599Y-54378495D01*
X139014160Y-54508426D01*
X139053024Y-54552743D01*
X139067035Y-54610000D01*
X139053024Y-54667257D01*
X139014160Y-54711574D01*
X138905490Y-54787666D01*
X138828595Y-54841508D01*
X138661505Y-55008598D01*
X138525965Y-55202170D01*
X138426097Y-55416336D01*
X138364936Y-55644592D01*
X138344340Y-55880000D01*
X138364936Y-56115407D01*
X138407024Y-56272480D01*
X138426097Y-56343663D01*
X138525965Y-56557830D01*
X138661505Y-56751401D01*
X138661508Y-56751404D01*
X138783818Y-56873714D01*
X138815114Y-56926460D01*
X138817303Y-56987753D01*
X138789850Y-57042597D01*
X138739472Y-57077576D01*
X138607913Y-57126646D01*
X138492811Y-57212811D01*
X138406647Y-57327910D01*
X138356402Y-57462624D01*
X138350000Y-57522176D01*
X138350000Y-58170000D01*
X141050000Y-58170000D01*
X141050000Y-57522176D01*
X141043597Y-57462624D01*
X140993352Y-57327910D01*
X140907188Y-57212811D01*
X140792088Y-57126647D01*
X140660528Y-57077577D01*
X140610149Y-57042597D01*
X140582696Y-56987752D01*
X140584885Y-56926460D01*
X140616178Y-56873717D01*
X140712027Y-56777869D01*
X141629500Y-56777869D01*
X141635909Y-56837484D01*
X141669095Y-56926460D01*
X141686204Y-56972331D01*
X141763891Y-57076107D01*
X141785789Y-57124057D01*
X141785789Y-57176774D01*
X141763890Y-57224726D01*
X141686648Y-57327908D01*
X141636402Y-57462624D01*
X141630000Y-57522176D01*
X141630000Y-58170000D01*
X146130000Y-58170000D01*
X146130000Y-57522176D01*
X146123597Y-57462624D01*
X146073352Y-57327911D01*
X145996109Y-57224727D01*
X145974210Y-57176774D01*
X145974210Y-57124057D01*
X145996107Y-57076109D01*
X146073796Y-56972331D01*
X146124091Y-56837483D01*
X146130500Y-56777873D01*
X146130499Y-55944384D01*
X146130971Y-55933576D01*
X146134935Y-55888274D01*
X146135659Y-55880000D01*
X146130970Y-55826420D01*
X146130499Y-55815613D01*
X146130499Y-54982130D01*
X146130499Y-54982127D01*
X146124091Y-54922517D01*
X146073796Y-54787669D01*
X145996421Y-54684310D01*
X145974523Y-54636358D01*
X145974523Y-54583642D01*
X145996422Y-54535689D01*
X146016832Y-54508425D01*
X146073796Y-54432331D01*
X146124091Y-54297483D01*
X146130500Y-54237873D01*
X146130499Y-53404384D01*
X146130971Y-53393576D01*
X146135659Y-53339999D01*
X146130971Y-53286422D01*
X146130499Y-53275613D01*
X146130499Y-52442130D01*
X146130499Y-52442127D01*
X146124091Y-52382517D01*
X146073796Y-52247669D01*
X145996421Y-52144310D01*
X145974523Y-52096358D01*
X145974523Y-52043642D01*
X145996422Y-51995689D01*
X146016832Y-51968425D01*
X146073796Y-51892331D01*
X146124091Y-51757483D01*
X146130500Y-51697873D01*
X146130499Y-50864384D01*
X146130971Y-50853576D01*
X146135659Y-50799999D01*
X146130971Y-50746422D01*
X146130499Y-50735613D01*
X146130499Y-49902130D01*
X146128570Y-49884185D01*
X146124091Y-49842517D01*
X146073796Y-49707669D01*
X145996421Y-49604310D01*
X145974523Y-49556358D01*
X145974523Y-49503642D01*
X145996422Y-49455689D01*
X146012632Y-49434035D01*
X146073796Y-49352331D01*
X146124091Y-49217483D01*
X146130500Y-49157873D01*
X146130499Y-48324384D01*
X146130971Y-48313576D01*
X146135659Y-48259999D01*
X146130971Y-48206422D01*
X146130499Y-48195613D01*
X146130499Y-47362130D01*
X146130499Y-47362127D01*
X146124091Y-47302517D01*
X146073796Y-47167669D01*
X145996108Y-47063892D01*
X145974210Y-47015940D01*
X145974210Y-46963223D01*
X145996110Y-46915270D01*
X146073352Y-46812089D01*
X146123597Y-46677375D01*
X146130000Y-46617824D01*
X146130000Y-45970000D01*
X141630000Y-45970000D01*
X141630000Y-46617824D01*
X141636402Y-46677375D01*
X141686647Y-46812089D01*
X141763890Y-46915272D01*
X141785789Y-46963225D01*
X141785789Y-47015941D01*
X141763890Y-47063894D01*
X141686204Y-47167668D01*
X141635909Y-47302516D01*
X141629500Y-47362130D01*
X141629500Y-49157869D01*
X141635909Y-49217484D01*
X141686204Y-49352332D01*
X141763577Y-49455690D01*
X141785476Y-49503642D01*
X141785476Y-49556358D01*
X141763577Y-49604310D01*
X141686205Y-49707666D01*
X141635909Y-49842516D01*
X141629500Y-49902130D01*
X141629500Y-51697869D01*
X141635909Y-51757483D01*
X141686204Y-51892331D01*
X141743168Y-51968425D01*
X141763578Y-51995689D01*
X141785477Y-52043642D01*
X141785477Y-52096358D01*
X141763578Y-52144311D01*
X141686204Y-52247668D01*
X141635909Y-52382516D01*
X141629500Y-52442130D01*
X141629500Y-54237869D01*
X141635909Y-54297484D01*
X141686204Y-54432332D01*
X141763577Y-54535690D01*
X141785476Y-54583642D01*
X141785476Y-54636358D01*
X141763577Y-54684310D01*
X141686205Y-54787666D01*
X141635909Y-54922516D01*
X141629500Y-54982130D01*
X141629500Y-56777869D01*
X140712027Y-56777869D01*
X140738495Y-56751401D01*
X140874035Y-56557830D01*
X140973903Y-56343663D01*
X141035063Y-56115408D01*
X141055659Y-55880000D01*
X141035063Y-55644592D01*
X140973903Y-55416337D01*
X140874035Y-55202171D01*
X140738495Y-55008599D01*
X140571401Y-54841505D01*
X140385839Y-54711573D01*
X140346974Y-54667255D01*
X140332964Y-54609999D01*
X140346975Y-54552742D01*
X140385837Y-54508428D01*
X140571401Y-54378495D01*
X140738495Y-54211401D01*
X140874035Y-54017830D01*
X140973903Y-53803663D01*
X141035063Y-53575408D01*
X141055659Y-53340000D01*
X141035063Y-53104592D01*
X140973903Y-52876337D01*
X140874035Y-52662171D01*
X140738495Y-52468599D01*
X140571401Y-52301505D01*
X140385839Y-52171573D01*
X140346975Y-52127257D01*
X140332964Y-52070000D01*
X140346975Y-52012743D01*
X140385839Y-51968426D01*
X140571401Y-51838495D01*
X140738495Y-51671401D01*
X140874035Y-51477830D01*
X140973903Y-51263663D01*
X141035063Y-51035408D01*
X141055659Y-50800000D01*
X141035063Y-50564592D01*
X140973903Y-50336337D01*
X140874035Y-50122171D01*
X140738495Y-49928599D01*
X140571401Y-49761505D01*
X140385839Y-49631573D01*
X140346975Y-49587257D01*
X140332964Y-49530000D01*
X140346975Y-49472743D01*
X140385839Y-49428426D01*
X140571401Y-49298495D01*
X140738495Y-49131401D01*
X140874035Y-48937830D01*
X140973903Y-48723663D01*
X141035063Y-48495408D01*
X141055659Y-48260000D01*
X141035063Y-48024592D01*
X140973903Y-47796337D01*
X140874035Y-47582171D01*
X140738495Y-47388599D01*
X140616181Y-47266285D01*
X140584885Y-47213539D01*
X140582696Y-47152246D01*
X140610149Y-47097401D01*
X140660528Y-47062422D01*
X140792089Y-47013352D01*
X140907188Y-46927188D01*
X140993352Y-46812089D01*
X141043597Y-46677375D01*
X141050000Y-46617824D01*
X141050000Y-45970000D01*
X138350000Y-45970000D01*
X138350000Y-46617824D01*
X138356402Y-46677375D01*
X138406647Y-46812089D01*
X138492811Y-46927188D01*
X138607911Y-47013352D01*
X138739471Y-47062422D01*
X138789850Y-47097401D01*
X138817303Y-47152246D01*
X138815114Y-47213539D01*
X138783819Y-47266285D01*
X138661503Y-47388601D01*
X138525965Y-47582170D01*
X138426097Y-47796336D01*
X138364936Y-48024592D01*
X138344340Y-48259999D01*
X138364936Y-48495406D01*
X138376913Y-48540104D01*
X138376913Y-48604291D01*
X138344819Y-48659878D01*
X135788179Y-51216520D01*
X135738816Y-51246770D01*
X135681100Y-51251312D01*
X135627613Y-51229157D01*
X135590013Y-51185134D01*
X135576498Y-51128839D01*
X135576498Y-46930165D01*
X135585937Y-46882712D01*
X135612817Y-46842484D01*
X136118431Y-46336870D01*
X136644904Y-45810396D01*
X136691624Y-45781039D01*
X136849522Y-45725789D01*
X137002262Y-45629816D01*
X137129816Y-45502262D01*
X137225789Y-45349522D01*
X137285368Y-45179255D01*
X137305565Y-45000000D01*
X137285368Y-44820745D01*
X137225789Y-44650478D01*
X137129816Y-44497738D01*
X137129815Y-44497737D01*
X137129814Y-44497735D01*
X137002264Y-44370185D01*
X136934289Y-44327474D01*
X136849522Y-44274211D01*
X136679255Y-44214632D01*
X136679253Y-44214631D01*
X136679251Y-44214631D01*
X136499999Y-44194434D01*
X136320748Y-44214631D01*
X136320745Y-44214631D01*
X136320745Y-44214632D01*
X136150478Y-44274211D01*
X136150476Y-44274211D01*
X136150476Y-44274212D01*
X135997735Y-44370185D01*
X135870185Y-44497735D01*
X135774209Y-44650480D01*
X135718962Y-44808368D01*
X135689602Y-44855094D01*
X134440422Y-46104275D01*
X134434970Y-46109408D01*
X134391666Y-46147772D01*
X134358798Y-46195389D01*
X134354361Y-46201419D01*
X134318671Y-46246975D01*
X134314822Y-46255526D01*
X134303805Y-46275060D01*
X134298479Y-46282777D01*
X134277963Y-46336870D01*
X134275100Y-46343784D01*
X134251347Y-46396564D01*
X134249659Y-46405778D01*
X134243636Y-46427385D01*
X134240308Y-46436159D01*
X134233331Y-46493614D01*
X134232205Y-46501013D01*
X134221778Y-46557914D01*
X134225272Y-46615666D01*
X134225498Y-46623153D01*
X134225498Y-95506847D01*
X134225272Y-95514334D01*
X134221778Y-95572085D01*
X134232205Y-95628985D01*
X134233332Y-95636384D01*
X134240310Y-95693845D01*
X134243634Y-95702610D01*
X134249658Y-95724221D01*
X134251346Y-95733434D01*
X134256331Y-95744510D01*
X134275099Y-95786213D01*
X134277958Y-95793115D01*
X134298480Y-95847225D01*
X134303802Y-95854936D01*
X134314822Y-95874474D01*
X134317229Y-95879821D01*
X134318672Y-95883026D01*
X134320388Y-95885216D01*
X134354358Y-95928575D01*
X134358798Y-95934609D01*
X134391666Y-95982227D01*
X134434987Y-96020606D01*
X134440424Y-96025725D01*
X141028181Y-102613483D01*
X141055061Y-102653711D01*
X141064500Y-102701164D01*
X141064500Y-104300598D01*
X141054107Y-104350290D01*
X141024672Y-104391653D01*
X140990000Y-104423704D01*
X140990000Y-104786952D01*
X140985076Y-104821547D01*
X140942402Y-104968427D01*
X140939500Y-105005308D01*
X140939500Y-106386692D01*
X140942402Y-106423572D01*
X140985076Y-106570453D01*
X140990000Y-106605048D01*
X140990000Y-106968295D01*
X140992488Y-106968099D01*
X141150201Y-106922280D01*
X141176387Y-106906794D01*
X141239508Y-106889525D01*
X141302630Y-106906793D01*
X141329602Y-106922744D01*
X141487427Y-106968597D01*
X141487431Y-106968598D01*
X141524306Y-106971500D01*
X141955692Y-106971500D01*
X141955694Y-106971500D01*
X141992569Y-106968598D01*
X142150398Y-106922744D01*
X142176877Y-106907083D01*
X142239998Y-106889815D01*
X142303120Y-106907083D01*
X142329602Y-106922744D01*
X142487427Y-106968597D01*
X142487431Y-106968598D01*
X142498707Y-106969485D01*
X142540891Y-106980493D01*
X142576659Y-107005422D01*
X143031809Y-107460572D01*
X143036944Y-107466027D01*
X143075308Y-107509332D01*
X143122927Y-107542200D01*
X143128960Y-107546639D01*
X143174510Y-107582326D01*
X143183061Y-107586174D01*
X143202597Y-107597193D01*
X143210312Y-107602518D01*
X143264421Y-107623039D01*
X143271336Y-107625903D01*
X143324099Y-107649650D01*
X143333295Y-107651335D01*
X143333306Y-107651337D01*
X143354926Y-107657364D01*
X143363689Y-107660687D01*
X143363691Y-107660687D01*
X143363693Y-107660688D01*
X143421155Y-107667665D01*
X143428520Y-107668785D01*
X143485453Y-107679219D01*
X143543202Y-107675726D01*
X143550689Y-107675500D01*
X158389073Y-107675500D01*
X158396559Y-107675726D01*
X158454308Y-107679219D01*
X158454308Y-107679218D01*
X158454309Y-107679219D01*
X158511221Y-107668789D01*
X158518620Y-107667663D01*
X158576069Y-107660688D01*
X158584832Y-107657364D01*
X158606446Y-107651338D01*
X158615663Y-107649650D01*
X158615667Y-107649648D01*
X158615668Y-107649648D01*
X158657466Y-107630835D01*
X158668432Y-107625900D01*
X158675346Y-107623036D01*
X158729450Y-107602518D01*
X158737157Y-107597197D01*
X158756708Y-107586171D01*
X158765252Y-107582326D01*
X158810833Y-107546613D01*
X158816805Y-107542219D01*
X158864453Y-107509332D01*
X158902834Y-107466007D01*
X158907935Y-107460588D01*
X168147210Y-98221313D01*
X168207296Y-98188105D01*
X168275844Y-98191954D01*
X168331836Y-98231683D01*
X168358109Y-98295112D01*
X168378631Y-98477251D01*
X168378631Y-98477253D01*
X168378632Y-98477255D01*
X168438211Y-98647522D01*
X168468671Y-98695998D01*
X168469494Y-98697308D01*
X168488500Y-98763280D01*
X168488500Y-100559849D01*
X168488274Y-100567336D01*
X168484780Y-100625087D01*
X168495207Y-100681987D01*
X168496334Y-100689386D01*
X168503312Y-100746847D01*
X168506636Y-100755612D01*
X168512660Y-100777223D01*
X168514348Y-100786436D01*
X168525018Y-100810144D01*
X168538101Y-100839215D01*
X168540960Y-100846117D01*
X168561482Y-100900227D01*
X168566804Y-100907938D01*
X168577824Y-100927476D01*
X168581673Y-100936026D01*
X168581674Y-100936028D01*
X168605968Y-100967036D01*
X168617360Y-100981577D01*
X168621800Y-100987611D01*
X168654668Y-101035229D01*
X168697989Y-101073608D01*
X168703426Y-101078727D01*
X171364819Y-103740120D01*
X171396913Y-103795707D01*
X171396913Y-103859893D01*
X171384936Y-103904591D01*
X171364340Y-104140000D01*
X171384936Y-104375407D01*
X171414751Y-104486676D01*
X171446097Y-104603663D01*
X171545965Y-104817830D01*
X171681505Y-105011401D01*
X171848599Y-105178495D01*
X172034160Y-105308426D01*
X172073024Y-105352743D01*
X172087035Y-105410000D01*
X172073024Y-105467257D01*
X172034158Y-105511575D01*
X171889085Y-105613157D01*
X171848595Y-105641508D01*
X171681505Y-105808598D01*
X171545965Y-106002170D01*
X171446097Y-106216336D01*
X171384936Y-106444592D01*
X171364340Y-106679999D01*
X171384936Y-106915407D01*
X171420249Y-107047196D01*
X171446097Y-107143663D01*
X171545965Y-107357830D01*
X171681505Y-107551401D01*
X171848599Y-107718495D01*
X172034160Y-107848426D01*
X172073024Y-107892743D01*
X172087035Y-107950000D01*
X172073024Y-108007257D01*
X172034158Y-108051575D01*
X171849321Y-108181000D01*
X171848595Y-108181508D01*
X171681505Y-108348598D01*
X171545965Y-108542170D01*
X171446097Y-108756336D01*
X171384936Y-108984592D01*
X171364340Y-109219999D01*
X171384936Y-109455407D01*
X171398674Y-109506676D01*
X171446097Y-109683663D01*
X171545965Y-109897830D01*
X171681505Y-110091401D01*
X171848599Y-110258495D01*
X171871350Y-110274426D01*
X171911677Y-110321642D01*
X171924057Y-110382489D01*
X171905385Y-110441710D01*
X171860343Y-110484453D01*
X171800227Y-110500000D01*
X146254420Y-110500000D01*
X146188812Y-110481222D01*
X146143075Y-110430575D01*
X146131062Y-110363398D01*
X146135327Y-110321642D01*
X146140500Y-110271009D01*
X146140499Y-108870992D01*
X146129999Y-108768203D01*
X146074814Y-108601666D01*
X145982712Y-108452344D01*
X145982711Y-108452342D01*
X145858657Y-108328288D01*
X145709334Y-108236186D01*
X145542797Y-108181000D01*
X145440009Y-108170500D01*
X144639991Y-108170500D01*
X144537203Y-108181000D01*
X144370665Y-108236186D01*
X144221342Y-108328288D01*
X144097288Y-108452342D01*
X144005186Y-108601665D01*
X143950000Y-108768202D01*
X143939500Y-108870990D01*
X143939500Y-110271008D01*
X143948939Y-110363399D01*
X143936925Y-110430575D01*
X143891189Y-110481222D01*
X143825581Y-110500000D01*
X140654420Y-110500000D01*
X140588812Y-110481222D01*
X140543075Y-110430575D01*
X140531062Y-110363398D01*
X140535327Y-110321642D01*
X140540500Y-110271009D01*
X140540499Y-108870992D01*
X140529999Y-108768203D01*
X140474814Y-108601666D01*
X140382712Y-108452344D01*
X140382711Y-108452342D01*
X140258657Y-108328288D01*
X140109334Y-108236186D01*
X139942797Y-108181000D01*
X139840009Y-108170500D01*
X139039991Y-108170500D01*
X138937203Y-108181000D01*
X138770665Y-108236186D01*
X138621342Y-108328288D01*
X138497288Y-108452342D01*
X138405186Y-108601665D01*
X138350000Y-108768202D01*
X138339500Y-108870990D01*
X138339500Y-110271008D01*
X138348939Y-110363399D01*
X138336925Y-110430575D01*
X138291189Y-110481222D01*
X138225581Y-110500000D01*
X134351362Y-110500000D01*
X134303909Y-110490561D01*
X134263681Y-110463681D01*
X132736319Y-108936319D01*
X132709439Y-108896091D01*
X132700000Y-108848638D01*
X132700000Y-108322535D01*
X133697500Y-108322535D01*
X133736520Y-108556372D01*
X133796985Y-108732500D01*
X133813496Y-108780595D01*
X133926329Y-108989091D01*
X133926330Y-108989092D01*
X134071939Y-109176172D01*
X134127862Y-109227652D01*
X134246357Y-109336735D01*
X134444824Y-109466399D01*
X134661925Y-109561629D01*
X134891740Y-109619826D01*
X134962575Y-109625695D01*
X135068823Y-109634500D01*
X135068829Y-109634500D01*
X135187171Y-109634500D01*
X135187177Y-109634500D01*
X135283765Y-109626495D01*
X135364260Y-109619826D01*
X135594075Y-109561629D01*
X135811176Y-109466399D01*
X136009643Y-109336735D01*
X136184060Y-109176172D01*
X136329671Y-108989091D01*
X136442504Y-108780595D01*
X136519480Y-108556371D01*
X136558500Y-108322535D01*
X136558500Y-108085465D01*
X136519480Y-107851629D01*
X136442504Y-107627405D01*
X136329671Y-107418909D01*
X136247211Y-107312964D01*
X136184060Y-107231827D01*
X136063126Y-107120500D01*
X136009643Y-107071265D01*
X135853856Y-106969485D01*
X135811178Y-106941602D01*
X135811176Y-106941601D01*
X135594075Y-106846371D01*
X135364260Y-106788174D01*
X135364258Y-106788173D01*
X135364255Y-106788173D01*
X135187177Y-106773500D01*
X135187171Y-106773500D01*
X135068829Y-106773500D01*
X135068823Y-106773500D01*
X134891744Y-106788173D01*
X134661925Y-106846371D01*
X134444821Y-106941602D01*
X134246358Y-107071264D01*
X134071939Y-107231827D01*
X133926330Y-107418907D01*
X133903782Y-107460572D01*
X133815862Y-107623034D01*
X133813494Y-107627409D01*
X133736520Y-107851627D01*
X133697500Y-108085465D01*
X133697500Y-108322535D01*
X132700000Y-108322535D01*
X132700000Y-105946000D01*
X139940000Y-105946000D01*
X139940000Y-106386639D01*
X139942900Y-106423493D01*
X139988717Y-106581197D01*
X140072317Y-106722557D01*
X140188442Y-106838682D01*
X140329799Y-106922280D01*
X140487511Y-106968099D01*
X140489999Y-106968295D01*
X140490000Y-106968295D01*
X140490000Y-105946000D01*
X139940000Y-105946000D01*
X132700000Y-105946000D01*
X132700000Y-105446000D01*
X139940000Y-105446000D01*
X140490000Y-105446000D01*
X140490000Y-104423705D01*
X140489999Y-104423704D01*
X140487511Y-104423900D01*
X140329799Y-104469719D01*
X140188442Y-104553317D01*
X140072317Y-104669442D01*
X139988717Y-104810802D01*
X139942900Y-104968506D01*
X139940000Y-105005361D01*
X139940000Y-105446000D01*
X132700000Y-105446000D01*
X132700000Y-41774535D01*
X133697500Y-41774535D01*
X133736520Y-42008372D01*
X133813494Y-42232590D01*
X133813496Y-42232595D01*
X133926329Y-42441091D01*
X133926330Y-42441092D01*
X134071939Y-42628172D01*
X134158620Y-42707967D01*
X134246357Y-42788735D01*
X134444824Y-42918399D01*
X134661925Y-43013629D01*
X134891740Y-43071826D01*
X134962575Y-43077695D01*
X135068823Y-43086500D01*
X135068829Y-43086500D01*
X135187171Y-43086500D01*
X135187177Y-43086500D01*
X135283764Y-43078496D01*
X135364260Y-43071826D01*
X135594075Y-43013629D01*
X135811176Y-42918399D01*
X136009643Y-42788735D01*
X136184060Y-42628172D01*
X136329671Y-42441091D01*
X136442504Y-42232595D01*
X136519480Y-42008371D01*
X136558500Y-41774535D01*
X136558500Y-41537465D01*
X136519480Y-41303629D01*
X136442504Y-41079405D01*
X136329671Y-40870909D01*
X136267057Y-40790462D01*
X136184060Y-40683827D01*
X136083731Y-40591468D01*
X136009643Y-40523265D01*
X135894936Y-40448324D01*
X135811178Y-40393602D01*
X135811176Y-40393601D01*
X135594075Y-40298371D01*
X135364260Y-40240174D01*
X135364258Y-40240173D01*
X135364255Y-40240173D01*
X135187177Y-40225500D01*
X135187171Y-40225500D01*
X135068829Y-40225500D01*
X135068823Y-40225500D01*
X134891744Y-40240173D01*
X134661925Y-40298371D01*
X134444821Y-40393602D01*
X134246358Y-40523264D01*
X134071939Y-40683827D01*
X133926330Y-40870907D01*
X133926328Y-40870909D01*
X133926329Y-40870909D01*
X133843193Y-41024531D01*
X133813494Y-41079409D01*
X133736520Y-41303627D01*
X133697500Y-41537465D01*
X133697500Y-41774535D01*
X132700000Y-41774535D01*
X132700000Y-40751382D01*
X132709445Y-40703914D01*
X132736343Y-40663677D01*
X133006565Y-40393602D01*
X134163688Y-39237109D01*
X134203904Y-39210250D01*
X134251338Y-39200817D01*
X139031542Y-39200776D01*
X139095406Y-39218487D01*
X139141027Y-39266561D01*
X139155372Y-39331265D01*
X139134343Y-39394115D01*
X139083947Y-39437158D01*
X139022170Y-39465965D01*
X138828598Y-39601505D01*
X138661505Y-39768598D01*
X138525965Y-39962170D01*
X138426097Y-40176336D01*
X138364936Y-40404592D01*
X138344340Y-40640000D01*
X138364936Y-40875407D01*
X138398671Y-41001306D01*
X138426097Y-41103663D01*
X138525965Y-41317830D01*
X138661505Y-41511401D01*
X138828599Y-41678495D01*
X139014160Y-41808426D01*
X139053024Y-41852743D01*
X139067035Y-41910000D01*
X139053024Y-41967257D01*
X139014159Y-42011575D01*
X138828595Y-42141508D01*
X138661505Y-42308598D01*
X138525965Y-42502170D01*
X138426097Y-42716336D01*
X138364936Y-42944592D01*
X138344340Y-43179999D01*
X138364936Y-43415407D01*
X138386201Y-43494768D01*
X138426097Y-43643663D01*
X138525965Y-43857830D01*
X138661505Y-44051401D01*
X138661508Y-44051404D01*
X138783818Y-44173714D01*
X138815114Y-44226460D01*
X138817303Y-44287753D01*
X138789850Y-44342597D01*
X138739472Y-44377576D01*
X138607913Y-44426646D01*
X138492811Y-44512811D01*
X138406647Y-44627910D01*
X138356402Y-44762624D01*
X138350000Y-44822176D01*
X138350000Y-45470000D01*
X141050000Y-45470000D01*
X141050000Y-44822176D01*
X141043597Y-44762624D01*
X140993352Y-44627910D01*
X140907188Y-44512811D01*
X140792088Y-44426647D01*
X140660528Y-44377577D01*
X140610149Y-44342597D01*
X140582696Y-44287752D01*
X140584885Y-44226460D01*
X140616178Y-44173717D01*
X140738495Y-44051401D01*
X140874035Y-43857830D01*
X140973903Y-43643663D01*
X141035063Y-43415408D01*
X141055659Y-43180000D01*
X141035063Y-42944592D01*
X140973903Y-42716337D01*
X140874035Y-42502171D01*
X140738495Y-42308599D01*
X140571401Y-42141505D01*
X140385839Y-42011573D01*
X140346975Y-41967257D01*
X140332964Y-41910000D01*
X140346975Y-41852743D01*
X140385839Y-41808426D01*
X140571401Y-41678495D01*
X140738495Y-41511401D01*
X140874035Y-41317830D01*
X140973903Y-41103663D01*
X141035063Y-40875408D01*
X141055659Y-40640000D01*
X141035063Y-40404592D01*
X140973903Y-40176337D01*
X140874035Y-39962171D01*
X140738495Y-39768599D01*
X140571401Y-39601505D01*
X140377830Y-39465965D01*
X140321586Y-39439738D01*
X140316028Y-39437146D01*
X140265632Y-39394104D01*
X140244603Y-39331254D01*
X140258947Y-39266550D01*
X140304568Y-39218476D01*
X140368429Y-39200764D01*
X141709408Y-39200753D01*
X141768835Y-39215920D01*
G37*
G04 #@! TD.AperFunction*
G04 #@! TA.AperFunction,Conductor*
G36*
X214488000Y-106147113D02*
G01*
X214533387Y-106192500D01*
X214550000Y-106254500D01*
X214550000Y-106430000D01*
X215650000Y-106430000D01*
X215650000Y-106254500D01*
X215666613Y-106192500D01*
X215712000Y-106147113D01*
X215774000Y-106130500D01*
X216026000Y-106130500D01*
X216088000Y-106147113D01*
X216133387Y-106192500D01*
X216150000Y-106254500D01*
X216150000Y-107295500D01*
X216133387Y-107357500D01*
X216088000Y-107402887D01*
X216026000Y-107419500D01*
X215774000Y-107419500D01*
X215712000Y-107402887D01*
X215666613Y-107357500D01*
X215650000Y-107295500D01*
X215650000Y-106930000D01*
X214550000Y-106930000D01*
X214550000Y-107295500D01*
X214533387Y-107357500D01*
X214488000Y-107402887D01*
X214426000Y-107419500D01*
X212585744Y-107419500D01*
X212565237Y-107417235D01*
X212495127Y-107419439D01*
X212491232Y-107419500D01*
X212463650Y-107419500D01*
X212459665Y-107420003D01*
X212448033Y-107420918D01*
X212404369Y-107422290D01*
X212402644Y-107422792D01*
X212336096Y-107423525D01*
X212278754Y-107389745D01*
X212247136Y-107331184D01*
X212250349Y-107264709D01*
X212251405Y-107261519D01*
X212251408Y-107261516D01*
X212305674Y-107097753D01*
X212316000Y-106996677D01*
X212315999Y-106657951D01*
X212325438Y-106610499D01*
X212352315Y-106570274D01*
X212755771Y-106166819D01*
X212796000Y-106139939D01*
X212843453Y-106130500D01*
X214426000Y-106130500D01*
X214488000Y-106147113D01*
G37*
G04 #@! TD.AperFunction*
G04 #@! TA.AperFunction,Conductor*
G36*
X214488000Y-103607113D02*
G01*
X214533387Y-103652500D01*
X214550000Y-103714500D01*
X214550000Y-103890000D01*
X215650000Y-103890000D01*
X215650000Y-103714500D01*
X215666613Y-103652500D01*
X215712000Y-103607113D01*
X215774000Y-103590500D01*
X216026000Y-103590500D01*
X216088000Y-103607113D01*
X216133387Y-103652500D01*
X216150000Y-103714500D01*
X216150000Y-104755500D01*
X216133387Y-104817500D01*
X216088000Y-104862887D01*
X216026000Y-104879500D01*
X215774000Y-104879500D01*
X215712000Y-104862887D01*
X215666613Y-104817500D01*
X215650000Y-104755500D01*
X215650000Y-104390000D01*
X214550000Y-104390000D01*
X214550000Y-104755500D01*
X214533387Y-104817500D01*
X214488000Y-104862887D01*
X214426000Y-104879500D01*
X212615740Y-104879500D01*
X212595236Y-104877236D01*
X212525144Y-104879439D01*
X212521250Y-104879500D01*
X212493648Y-104879500D01*
X212489653Y-104880004D01*
X212478029Y-104880918D01*
X212434372Y-104882290D01*
X212415135Y-104887879D01*
X212396103Y-104891821D01*
X212391683Y-104892380D01*
X212330322Y-104884590D01*
X212280357Y-104848128D01*
X212254222Y-104792067D01*
X212258418Y-104730359D01*
X212305674Y-104587753D01*
X212316000Y-104486677D01*
X212315999Y-104147950D01*
X212325438Y-104100498D01*
X212352315Y-104060273D01*
X212785770Y-103626819D01*
X212825999Y-103599939D01*
X212873452Y-103590500D01*
X214426000Y-103590500D01*
X214488000Y-103607113D01*
G37*
G04 #@! TD.AperFunction*
G04 #@! TA.AperFunction,Conductor*
G36*
X214488000Y-101067113D02*
G01*
X214533387Y-101112500D01*
X214550000Y-101174500D01*
X214550000Y-101350000D01*
X215650000Y-101350000D01*
X215650000Y-101174500D01*
X215666613Y-101112500D01*
X215712000Y-101067113D01*
X215774000Y-101050500D01*
X216026000Y-101050500D01*
X216088000Y-101067113D01*
X216133387Y-101112500D01*
X216150000Y-101174500D01*
X216150000Y-102215500D01*
X216133387Y-102277500D01*
X216088000Y-102322887D01*
X216026000Y-102339500D01*
X215774000Y-102339500D01*
X215712000Y-102322887D01*
X215666613Y-102277500D01*
X215650000Y-102215500D01*
X215650000Y-101850000D01*
X214550000Y-101850000D01*
X214550000Y-102215500D01*
X214533387Y-102277500D01*
X214488000Y-102322887D01*
X214426000Y-102339500D01*
X212645744Y-102339500D01*
X212625236Y-102337235D01*
X212555113Y-102339439D01*
X212551219Y-102339500D01*
X212523650Y-102339500D01*
X212519671Y-102340002D01*
X212508041Y-102340917D01*
X212464372Y-102342289D01*
X212445128Y-102347880D01*
X212426083Y-102351824D01*
X212400735Y-102355027D01*
X212339377Y-102347232D01*
X212289418Y-102310768D01*
X212263286Y-102254709D01*
X212267483Y-102193002D01*
X212305674Y-102077753D01*
X212316000Y-101976677D01*
X212315999Y-101637951D01*
X212325438Y-101590499D01*
X212352315Y-101550274D01*
X212815771Y-101086819D01*
X212856000Y-101059939D01*
X212903453Y-101050500D01*
X214426000Y-101050500D01*
X214488000Y-101067113D01*
G37*
G04 #@! TD.AperFunction*
G04 #@! TA.AperFunction,Conductor*
G36*
X214488000Y-98527113D02*
G01*
X214533387Y-98572500D01*
X214550000Y-98634500D01*
X214550000Y-98810000D01*
X216026000Y-98810000D01*
X216088000Y-98826613D01*
X216133387Y-98872000D01*
X216150000Y-98934000D01*
X216150000Y-99675500D01*
X216133387Y-99737500D01*
X216088000Y-99782887D01*
X216026000Y-99799500D01*
X215774000Y-99799500D01*
X215712000Y-99782887D01*
X215666613Y-99737500D01*
X215650000Y-99675500D01*
X215650000Y-99310000D01*
X214550000Y-99310000D01*
X214550000Y-99675500D01*
X214533387Y-99737500D01*
X214488000Y-99782887D01*
X214426000Y-99799500D01*
X212675741Y-99799500D01*
X212655237Y-99797236D01*
X212585145Y-99799439D01*
X212581251Y-99799500D01*
X212553648Y-99799500D01*
X212549653Y-99800004D01*
X212538029Y-99800918D01*
X212494368Y-99802290D01*
X212475128Y-99807880D01*
X212456081Y-99811825D01*
X212420671Y-99816299D01*
X212420510Y-99815030D01*
X212369717Y-99819791D01*
X212307986Y-99788164D01*
X212272898Y-99728333D01*
X212275430Y-99659020D01*
X212305674Y-99567753D01*
X212316000Y-99466677D01*
X212315999Y-99127950D01*
X212325438Y-99080498D01*
X212352315Y-99040273D01*
X212845770Y-98546819D01*
X212885999Y-98519939D01*
X212933452Y-98510500D01*
X214426000Y-98510500D01*
X214488000Y-98527113D01*
G37*
G04 #@! TD.AperFunction*
G04 #@! TA.AperFunction,Conductor*
G36*
X154258385Y-73113509D02*
G01*
X154295985Y-73157532D01*
X154309500Y-73213827D01*
X154309500Y-87196000D01*
X154292887Y-87258000D01*
X154247500Y-87303387D01*
X154185500Y-87320000D01*
X153920000Y-87320000D01*
X153920000Y-91820000D01*
X154185500Y-91820000D01*
X154247500Y-91836613D01*
X154292887Y-91882000D01*
X154309500Y-91944000D01*
X154309500Y-92041230D01*
X154309274Y-92048717D01*
X154305780Y-92106468D01*
X154316207Y-92163368D01*
X154317334Y-92170767D01*
X154324312Y-92228228D01*
X154327636Y-92236993D01*
X154333660Y-92258604D01*
X154335348Y-92267817D01*
X154347643Y-92295135D01*
X154359101Y-92320596D01*
X154361960Y-92327498D01*
X154382482Y-92381608D01*
X154387804Y-92389319D01*
X154398824Y-92408857D01*
X154402673Y-92417407D01*
X154402674Y-92417409D01*
X154419198Y-92438500D01*
X154438360Y-92462958D01*
X154442800Y-92468992D01*
X154475668Y-92516610D01*
X154518989Y-92554989D01*
X154524426Y-92560108D01*
X155862636Y-93898318D01*
X155892886Y-93947681D01*
X155897428Y-94005397D01*
X155875273Y-94058884D01*
X155831250Y-94096484D01*
X155774955Y-94109999D01*
X154552663Y-94109999D01*
X154505210Y-94100560D01*
X154464982Y-94073680D01*
X153066819Y-92675518D01*
X153039939Y-92635290D01*
X153030500Y-92587837D01*
X153030500Y-91944000D01*
X153047113Y-91882000D01*
X153092500Y-91836613D01*
X153154500Y-91820000D01*
X153420000Y-91820000D01*
X153420000Y-87320000D01*
X153154500Y-87320000D01*
X153092500Y-87303387D01*
X153047113Y-87258000D01*
X153030500Y-87196000D01*
X153030500Y-74244827D01*
X153039939Y-74197374D01*
X153066819Y-74157146D01*
X154097819Y-73126146D01*
X154147182Y-73095896D01*
X154204898Y-73091354D01*
X154258385Y-73113509D01*
G37*
G04 #@! TD.AperFunction*
G04 #@! TA.AperFunction,Conductor*
G36*
X166492051Y-82019511D02*
G01*
X166536366Y-82058374D01*
X166601505Y-82151401D01*
X166601508Y-82151404D01*
X166723818Y-82273714D01*
X166755114Y-82326460D01*
X166757303Y-82387753D01*
X166729850Y-82442597D01*
X166679472Y-82477576D01*
X166547913Y-82526646D01*
X166432811Y-82612811D01*
X166346647Y-82727910D01*
X166296402Y-82862624D01*
X166290000Y-82922176D01*
X166290000Y-83570000D01*
X167766000Y-83570000D01*
X167828000Y-83586613D01*
X167873387Y-83632000D01*
X167890000Y-83694000D01*
X167890000Y-83946000D01*
X167873387Y-84008000D01*
X167828000Y-84053387D01*
X167766000Y-84070000D01*
X166290000Y-84070000D01*
X166290000Y-84717824D01*
X166296402Y-84777375D01*
X166346647Y-84912089D01*
X166432811Y-85027188D01*
X166547911Y-85113352D01*
X166679471Y-85162422D01*
X166729850Y-85197401D01*
X166757303Y-85252246D01*
X166755114Y-85313539D01*
X166723819Y-85366285D01*
X166601505Y-85488598D01*
X166585800Y-85511028D01*
X166536366Y-85581625D01*
X166492051Y-85620489D01*
X166434794Y-85634500D01*
X165834499Y-85634500D01*
X165772499Y-85617887D01*
X165727112Y-85572500D01*
X165710499Y-85510500D01*
X165710499Y-85462130D01*
X165710499Y-85462127D01*
X165704091Y-85402517D01*
X165653796Y-85267669D01*
X165576108Y-85163892D01*
X165554210Y-85115940D01*
X165554210Y-85063223D01*
X165576110Y-85015270D01*
X165653352Y-84912089D01*
X165703597Y-84777375D01*
X165710000Y-84717824D01*
X165710000Y-84070000D01*
X161835500Y-84070000D01*
X161773500Y-84053387D01*
X161728113Y-84008000D01*
X161711500Y-83946000D01*
X161711500Y-83694000D01*
X161728113Y-83632000D01*
X161773500Y-83586613D01*
X161835500Y-83570000D01*
X165710000Y-83570000D01*
X165710000Y-82922176D01*
X165703597Y-82862624D01*
X165653352Y-82727911D01*
X165576109Y-82624727D01*
X165554210Y-82576774D01*
X165554210Y-82524057D01*
X165576107Y-82476109D01*
X165653796Y-82372331D01*
X165704091Y-82237483D01*
X165710500Y-82177873D01*
X165710500Y-82129500D01*
X165727113Y-82067500D01*
X165772500Y-82022113D01*
X165834500Y-82005500D01*
X166434794Y-82005500D01*
X166492051Y-82019511D01*
G37*
G04 #@! TD.AperFunction*
G04 #@! TA.AperFunction,Conductor*
G36*
X171293661Y-63513598D02*
G01*
X171349627Y-63554633D01*
X171374779Y-63619312D01*
X171384936Y-63735407D01*
X171396913Y-63780105D01*
X171446097Y-63963663D01*
X171545965Y-64177830D01*
X171681505Y-64371401D01*
X171848599Y-64538495D01*
X172034160Y-64668426D01*
X172073024Y-64712743D01*
X172087035Y-64770000D01*
X172073024Y-64827257D01*
X172034159Y-64871575D01*
X171848595Y-65001508D01*
X171681505Y-65168598D01*
X171545965Y-65362170D01*
X171446097Y-65576336D01*
X171384936Y-65804592D01*
X171364340Y-66040000D01*
X171384936Y-66275407D01*
X171396913Y-66320105D01*
X171446097Y-66503663D01*
X171545965Y-66717830D01*
X171681505Y-66911401D01*
X171848599Y-67078495D01*
X172034160Y-67208426D01*
X172073024Y-67252743D01*
X172087035Y-67310000D01*
X172073024Y-67367257D01*
X172034158Y-67411575D01*
X171925490Y-67487666D01*
X171848595Y-67541508D01*
X171681505Y-67708598D01*
X171545965Y-67902170D01*
X171446097Y-68116336D01*
X171384936Y-68344592D01*
X171364340Y-68579999D01*
X171384936Y-68815407D01*
X171396913Y-68860105D01*
X171446097Y-69043663D01*
X171545965Y-69257830D01*
X171681505Y-69451401D01*
X171848599Y-69618495D01*
X172034160Y-69748426D01*
X172073024Y-69792743D01*
X172087035Y-69850000D01*
X172073024Y-69907257D01*
X172034158Y-69951575D01*
X171925140Y-70027911D01*
X171848595Y-70081508D01*
X171681505Y-70248598D01*
X171545965Y-70442170D01*
X171446097Y-70656336D01*
X171384936Y-70884592D01*
X171364340Y-71119999D01*
X171384936Y-71355406D01*
X171396913Y-71400104D01*
X171396913Y-71464291D01*
X171364819Y-71519878D01*
X169202118Y-73682579D01*
X169141276Y-73715959D01*
X169072027Y-73711420D01*
X169016061Y-73670384D01*
X168990909Y-73605705D01*
X168975063Y-73424592D01*
X168917650Y-73210322D01*
X168913903Y-73196337D01*
X168814035Y-72982171D01*
X168678495Y-72788599D01*
X168556181Y-72666284D01*
X168524885Y-72613539D01*
X168522696Y-72552246D01*
X168550149Y-72497401D01*
X168600528Y-72462422D01*
X168732089Y-72413352D01*
X168847188Y-72327188D01*
X168933352Y-72212089D01*
X168983597Y-72077375D01*
X168990000Y-72017824D01*
X168990000Y-71370000D01*
X166290000Y-71370000D01*
X166290000Y-72017824D01*
X166296402Y-72077375D01*
X166346647Y-72212089D01*
X166432811Y-72327188D01*
X166547911Y-72413352D01*
X166679471Y-72462422D01*
X166729850Y-72497401D01*
X166757303Y-72552246D01*
X166755114Y-72613539D01*
X166723819Y-72666285D01*
X166601505Y-72788598D01*
X166571483Y-72831474D01*
X166536366Y-72881625D01*
X166492051Y-72920489D01*
X166434794Y-72934500D01*
X165834499Y-72934500D01*
X165772499Y-72917887D01*
X165727112Y-72872500D01*
X165710499Y-72810500D01*
X165710499Y-72762130D01*
X165710499Y-72762127D01*
X165704091Y-72702517D01*
X165653796Y-72567669D01*
X165576108Y-72463892D01*
X165554210Y-72415940D01*
X165554210Y-72363223D01*
X165576110Y-72315270D01*
X165653352Y-72212089D01*
X165703597Y-72077375D01*
X165710000Y-72017824D01*
X165710000Y-71370000D01*
X161210000Y-71370000D01*
X161210000Y-72017824D01*
X161216402Y-72077375D01*
X161266647Y-72212089D01*
X161343890Y-72315272D01*
X161365789Y-72363225D01*
X161365789Y-72415941D01*
X161343890Y-72463894D01*
X161266204Y-72567668D01*
X161215909Y-72702516D01*
X161209500Y-72762131D01*
X161209500Y-72860500D01*
X161192887Y-72922500D01*
X161147500Y-72967887D01*
X161085500Y-72984500D01*
X159536145Y-72984500D01*
X159528658Y-72984274D01*
X159470911Y-72980780D01*
X159414011Y-72991207D01*
X159406612Y-72992333D01*
X159349157Y-72999310D01*
X159340383Y-73002638D01*
X159318776Y-73008661D01*
X159309562Y-73010349D01*
X159280017Y-73023646D01*
X159256793Y-73034097D01*
X159249885Y-73036959D01*
X159195771Y-73057482D01*
X159188056Y-73062808D01*
X159168521Y-73073826D01*
X159159973Y-73077673D01*
X159142511Y-73091354D01*
X159114418Y-73113362D01*
X159108400Y-73117791D01*
X159060770Y-73150668D01*
X159022413Y-73193964D01*
X159017280Y-73199416D01*
X158555243Y-73661455D01*
X158555239Y-73661459D01*
X157593232Y-74623465D01*
X157533143Y-74656675D01*
X157464596Y-74652825D01*
X157408604Y-74613096D01*
X157382331Y-74549667D01*
X157380273Y-74531401D01*
X157376368Y-74496745D01*
X157316789Y-74326478D01*
X157285505Y-74276691D01*
X157266500Y-74210720D01*
X157266500Y-72340163D01*
X157275939Y-72292710D01*
X157302819Y-72252482D01*
X160263483Y-69291819D01*
X160303711Y-69264939D01*
X160351164Y-69255500D01*
X161085501Y-69255500D01*
X161147501Y-69272113D01*
X161192888Y-69317500D01*
X161209501Y-69379500D01*
X161209501Y-69477870D01*
X161215909Y-69537484D01*
X161262255Y-69661744D01*
X161266204Y-69672331D01*
X161343891Y-69776107D01*
X161365789Y-69824057D01*
X161365789Y-69876774D01*
X161343890Y-69924726D01*
X161266648Y-70027908D01*
X161216402Y-70162624D01*
X161210000Y-70222176D01*
X161210000Y-70870000D01*
X165710000Y-70870000D01*
X165710000Y-70222176D01*
X165703597Y-70162624D01*
X165653352Y-70027911D01*
X165576109Y-69924727D01*
X165554210Y-69876774D01*
X165554210Y-69824057D01*
X165576107Y-69776109D01*
X165653796Y-69672331D01*
X165704091Y-69537483D01*
X165710500Y-69477873D01*
X165710500Y-69429500D01*
X165727113Y-69367500D01*
X165772500Y-69322113D01*
X165834500Y-69305500D01*
X166434794Y-69305500D01*
X166492051Y-69319511D01*
X166536366Y-69358374D01*
X166601505Y-69451401D01*
X166601508Y-69451404D01*
X166723818Y-69573714D01*
X166755114Y-69626460D01*
X166757303Y-69687753D01*
X166729850Y-69742597D01*
X166679472Y-69777576D01*
X166547913Y-69826646D01*
X166432811Y-69912811D01*
X166346647Y-70027910D01*
X166296402Y-70162624D01*
X166290000Y-70222176D01*
X166290000Y-70870000D01*
X168990000Y-70870000D01*
X168990000Y-70222176D01*
X168983597Y-70162624D01*
X168933352Y-70027910D01*
X168847188Y-69912811D01*
X168732088Y-69826647D01*
X168600528Y-69777577D01*
X168550149Y-69742597D01*
X168522696Y-69687752D01*
X168524885Y-69626460D01*
X168556178Y-69573717D01*
X168678495Y-69451401D01*
X168814035Y-69257830D01*
X168913903Y-69043663D01*
X168975063Y-68815408D01*
X168995659Y-68580000D01*
X168975063Y-68344592D01*
X168913903Y-68116337D01*
X168814035Y-67902171D01*
X168678495Y-67708599D01*
X168511401Y-67541505D01*
X168325839Y-67411573D01*
X168286975Y-67367257D01*
X168272964Y-67310000D01*
X168286975Y-67252743D01*
X168325839Y-67208426D01*
X168511401Y-67078495D01*
X168678495Y-66911401D01*
X168814035Y-66717830D01*
X168913903Y-66503663D01*
X168975063Y-66275408D01*
X168995659Y-66040000D01*
X168975063Y-65804592D01*
X168974178Y-65794474D01*
X168981184Y-65741256D01*
X169010023Y-65695987D01*
X171163572Y-63542437D01*
X171224412Y-63509059D01*
X171293661Y-63513598D01*
G37*
G04 #@! TD.AperFunction*
G04 #@! TA.AperFunction,Conductor*
G36*
X169202118Y-43157419D02*
G01*
X169976181Y-43931482D01*
X170003061Y-43971710D01*
X170012500Y-44019163D01*
X170012500Y-47587195D01*
X169999260Y-47642947D01*
X169962367Y-47686793D01*
X169909699Y-47709369D01*
X169852505Y-47705856D01*
X169795829Y-47688663D01*
X169609500Y-47670312D01*
X169423167Y-47688664D01*
X169244001Y-47743014D01*
X169075349Y-47833159D01*
X169010587Y-47847639D01*
X168947632Y-47826651D01*
X168904515Y-47776205D01*
X168814035Y-47582171D01*
X168678495Y-47388599D01*
X168556180Y-47266284D01*
X168524885Y-47213539D01*
X168522696Y-47152246D01*
X168550149Y-47097401D01*
X168600528Y-47062422D01*
X168732089Y-47013352D01*
X168847188Y-46927188D01*
X168933352Y-46812089D01*
X168983597Y-46677375D01*
X168990000Y-46617824D01*
X168990000Y-45970000D01*
X166290000Y-45970000D01*
X166290000Y-46617824D01*
X166296402Y-46677375D01*
X166346647Y-46812089D01*
X166432811Y-46927188D01*
X166547911Y-47013352D01*
X166679471Y-47062422D01*
X166729850Y-47097401D01*
X166757303Y-47152246D01*
X166755114Y-47213539D01*
X166723819Y-47266285D01*
X166601505Y-47388598D01*
X166571483Y-47431474D01*
X166536366Y-47481625D01*
X166492051Y-47520489D01*
X166434794Y-47534500D01*
X165834499Y-47534500D01*
X165772499Y-47517887D01*
X165727112Y-47472500D01*
X165710499Y-47410500D01*
X165710499Y-47362130D01*
X165710499Y-47362127D01*
X165704091Y-47302517D01*
X165653796Y-47167669D01*
X165576108Y-47063892D01*
X165554210Y-47015940D01*
X165554210Y-46963223D01*
X165576110Y-46915270D01*
X165653352Y-46812089D01*
X165703597Y-46677375D01*
X165710000Y-46617824D01*
X165710000Y-45970000D01*
X161210000Y-45970000D01*
X161210000Y-46617824D01*
X161216402Y-46677375D01*
X161266647Y-46812089D01*
X161343890Y-46915272D01*
X161365789Y-46963225D01*
X161365789Y-47015941D01*
X161343890Y-47063894D01*
X161266204Y-47167668D01*
X161215909Y-47302516D01*
X161209500Y-47362131D01*
X161209500Y-48195616D01*
X161209028Y-48206424D01*
X161204340Y-48260000D01*
X161209028Y-48313576D01*
X161209500Y-48324384D01*
X161209500Y-49157869D01*
X161215909Y-49217484D01*
X161266204Y-49352332D01*
X161343577Y-49455690D01*
X161365476Y-49503642D01*
X161365476Y-49556358D01*
X161343577Y-49604310D01*
X161266205Y-49707666D01*
X161215909Y-49842516D01*
X161209500Y-49902131D01*
X161209500Y-50735616D01*
X161209028Y-50746424D01*
X161204340Y-50800000D01*
X161209028Y-50853576D01*
X161209500Y-50864384D01*
X161209500Y-51697869D01*
X161215909Y-51757483D01*
X161266204Y-51892331D01*
X161323168Y-51968425D01*
X161343578Y-51995689D01*
X161365477Y-52043642D01*
X161365477Y-52096358D01*
X161343578Y-52144311D01*
X161266204Y-52247668D01*
X161215909Y-52382516D01*
X161209500Y-52442131D01*
X161209500Y-53275616D01*
X161209028Y-53286424D01*
X161204340Y-53340000D01*
X161209028Y-53393576D01*
X161209500Y-53404384D01*
X161209500Y-54237869D01*
X161215909Y-54297484D01*
X161266204Y-54432332D01*
X161343577Y-54535690D01*
X161365476Y-54583642D01*
X161365476Y-54636358D01*
X161343577Y-54684310D01*
X161266205Y-54787666D01*
X161215909Y-54922516D01*
X161209500Y-54982131D01*
X161209500Y-55815616D01*
X161209028Y-55826424D01*
X161204340Y-55880000D01*
X161209028Y-55933576D01*
X161209500Y-55944384D01*
X161209500Y-56777869D01*
X161215909Y-56837484D01*
X161266204Y-56972332D01*
X161343577Y-57075690D01*
X161365476Y-57123642D01*
X161365476Y-57176358D01*
X161343577Y-57224310D01*
X161266205Y-57327666D01*
X161215909Y-57462516D01*
X161209500Y-57522131D01*
X161209500Y-58763836D01*
X161200061Y-58811289D01*
X161173180Y-58851517D01*
X159055832Y-60968867D01*
X157099678Y-62925021D01*
X157050315Y-62955271D01*
X156992599Y-62959813D01*
X156939112Y-62937658D01*
X156901512Y-62893635D01*
X156887997Y-62837340D01*
X156887997Y-49858666D01*
X156897436Y-49811213D01*
X156924316Y-49770985D01*
X159052354Y-47642947D01*
X161188981Y-45506318D01*
X161229209Y-45479439D01*
X161276662Y-45470000D01*
X165710000Y-45470000D01*
X165710000Y-44822176D01*
X165703597Y-44762624D01*
X165653352Y-44627911D01*
X165576109Y-44524727D01*
X165554210Y-44476774D01*
X165554210Y-44424057D01*
X165576107Y-44376109D01*
X165653796Y-44272331D01*
X165704091Y-44137483D01*
X165710500Y-44077873D01*
X165710500Y-44029500D01*
X165727113Y-43967500D01*
X165772500Y-43922113D01*
X165834500Y-43905500D01*
X166434794Y-43905500D01*
X166492051Y-43919511D01*
X166536366Y-43958374D01*
X166601505Y-44051401D01*
X166601507Y-44051403D01*
X166601508Y-44051404D01*
X166723818Y-44173714D01*
X166755114Y-44226460D01*
X166757303Y-44287753D01*
X166729850Y-44342597D01*
X166679472Y-44377576D01*
X166547913Y-44426646D01*
X166432811Y-44512811D01*
X166346647Y-44627910D01*
X166296402Y-44762624D01*
X166290000Y-44822176D01*
X166290000Y-45470000D01*
X168990000Y-45470000D01*
X168990000Y-44822176D01*
X168983597Y-44762624D01*
X168933352Y-44627910D01*
X168847188Y-44512811D01*
X168732088Y-44426647D01*
X168600528Y-44377577D01*
X168550149Y-44342597D01*
X168522696Y-44287752D01*
X168524885Y-44226460D01*
X168556178Y-44173717D01*
X168678495Y-44051401D01*
X168814035Y-43857830D01*
X168913903Y-43643663D01*
X168975063Y-43415408D01*
X168990908Y-43234293D01*
X169016061Y-43169614D01*
X169072026Y-43128578D01*
X169141275Y-43124039D01*
X169202118Y-43157419D01*
G37*
G04 #@! TD.AperFunction*
G04 #@! TA.AperFunction,Conductor*
G36*
X161349060Y-39215750D02*
G01*
X161393949Y-39257542D01*
X161413319Y-39315734D01*
X161402431Y-39376091D01*
X161363949Y-39423848D01*
X161352454Y-39432453D01*
X161266204Y-39547668D01*
X161215909Y-39682515D01*
X161215909Y-39682517D01*
X161209878Y-39738618D01*
X161209500Y-39742131D01*
X161209500Y-40575616D01*
X161209028Y-40586424D01*
X161204340Y-40640000D01*
X161209028Y-40693576D01*
X161209500Y-40704384D01*
X161209500Y-41537869D01*
X161215909Y-41597484D01*
X161236027Y-41651423D01*
X161266204Y-41732331D01*
X161297798Y-41774535D01*
X161343577Y-41835688D01*
X161365476Y-41883641D01*
X161365476Y-41936356D01*
X161343578Y-41984309D01*
X161266204Y-42087669D01*
X161215909Y-42222516D01*
X161209500Y-42282131D01*
X161209500Y-43115616D01*
X161209028Y-43126424D01*
X161204340Y-43180000D01*
X161209028Y-43233576D01*
X161209500Y-43244384D01*
X161209500Y-43523836D01*
X161200061Y-43571289D01*
X161173181Y-43611517D01*
X155751921Y-49032776D01*
X155746469Y-49037909D01*
X155703165Y-49076273D01*
X155670297Y-49123890D01*
X155665860Y-49129920D01*
X155630170Y-49175476D01*
X155626321Y-49184027D01*
X155615304Y-49203561D01*
X155609978Y-49211278D01*
X155589462Y-49265371D01*
X155586599Y-49272285D01*
X155562846Y-49325065D01*
X155561158Y-49334279D01*
X155555135Y-49355886D01*
X155551807Y-49364660D01*
X155544830Y-49422115D01*
X155543704Y-49429514D01*
X155533277Y-49486415D01*
X155536771Y-49544167D01*
X155536997Y-49551654D01*
X155536997Y-61288110D01*
X155523482Y-61344405D01*
X155485882Y-61388428D01*
X155432395Y-61410583D01*
X155374679Y-61406041D01*
X155325316Y-61375791D01*
X149261320Y-55311795D01*
X149234440Y-55271567D01*
X149225001Y-55224114D01*
X149225001Y-51200000D01*
X150100000Y-51200000D01*
X150100000Y-53400000D01*
X152300000Y-53400000D01*
X152300000Y-51200000D01*
X150100000Y-51200000D01*
X149225001Y-51200000D01*
X149225001Y-48700000D01*
X150100000Y-48700000D01*
X150100000Y-50900000D01*
X152300000Y-50900000D01*
X152300000Y-48700000D01*
X150100000Y-48700000D01*
X149225001Y-48700000D01*
X149225001Y-46200000D01*
X150100000Y-46200000D01*
X150100000Y-48400000D01*
X152300000Y-48400000D01*
X152300000Y-46200000D01*
X150100000Y-46200000D01*
X149225001Y-46200000D01*
X149225001Y-44433646D01*
X149225227Y-44426159D01*
X149226646Y-44402698D01*
X149228720Y-44368416D01*
X149218286Y-44311483D01*
X149217164Y-44304104D01*
X149210189Y-44246656D01*
X149206864Y-44237890D01*
X149200838Y-44216268D01*
X149199151Y-44207062D01*
X149193468Y-44194435D01*
X149175404Y-44154299D01*
X149172540Y-44147384D01*
X149152020Y-44093276D01*
X149146695Y-44085562D01*
X149135668Y-44066011D01*
X149131826Y-44057473D01*
X149096128Y-44011908D01*
X149091712Y-44005906D01*
X149058833Y-43958272D01*
X149054848Y-43954742D01*
X149015536Y-43919914D01*
X149010082Y-43914780D01*
X146166818Y-41071517D01*
X146139938Y-41031289D01*
X146130499Y-40983836D01*
X146130499Y-40704386D01*
X146130971Y-40693577D01*
X146135659Y-40639999D01*
X146130971Y-40586422D01*
X146130499Y-40575613D01*
X146130499Y-39742130D01*
X146130499Y-39742127D01*
X146124091Y-39682517D01*
X146073796Y-39547669D01*
X145987546Y-39432454D01*
X145987543Y-39432452D01*
X145976229Y-39423982D01*
X145937745Y-39376226D01*
X145926856Y-39315869D01*
X145946224Y-39257676D01*
X145991113Y-39215883D01*
X146050536Y-39200715D01*
X150445693Y-39200677D01*
X150503076Y-39214754D01*
X150547432Y-39253791D01*
X150568686Y-39308923D01*
X150562013Y-39367632D01*
X150528928Y-39416588D01*
X150486077Y-39439738D01*
X150486367Y-39440378D01*
X150477348Y-39444454D01*
X150476942Y-39444674D01*
X150476754Y-39444722D01*
X150433361Y-39464337D01*
X150422554Y-39468624D01*
X150380496Y-39483063D01*
X150326395Y-39512341D01*
X150318460Y-39516276D01*
X150259509Y-39542925D01*
X150222882Y-39567679D01*
X150212470Y-39573994D01*
X150176373Y-39593529D01*
X150125124Y-39633417D01*
X150118402Y-39638296D01*
X150061999Y-39676418D01*
X150032549Y-39704643D01*
X150022916Y-39712970D01*
X149993215Y-39736088D01*
X149971217Y-39759984D01*
X149929798Y-39789556D01*
X149905309Y-39794690D01*
X149897479Y-39802520D01*
X149893766Y-39825648D01*
X149875692Y-39860564D01*
X149874909Y-39861624D01*
X149867655Y-39871431D01*
X149859196Y-39881670D01*
X149836023Y-39906843D01*
X149796782Y-39966905D01*
X149792671Y-39972815D01*
X149748119Y-40033054D01*
X149732826Y-40063384D01*
X149725917Y-40075371D01*
X149709077Y-40101147D01*
X149678887Y-40169974D01*
X149676054Y-40175987D01*
X149640792Y-40245925D01*
X149631847Y-40275131D01*
X149626842Y-40288620D01*
X149615844Y-40313695D01*
X149596552Y-40389871D01*
X149594912Y-40395736D01*
X149570983Y-40473875D01*
X149567538Y-40500775D01*
X149564750Y-40515455D01*
X149558865Y-40538697D01*
X149552097Y-40620377D01*
X149551517Y-40625886D01*
X149540701Y-40710348D01*
X149541707Y-40734025D01*
X149541396Y-40749520D01*
X149539699Y-40769998D01*
X149546750Y-40855097D01*
X149547061Y-40860071D01*
X149550820Y-40948532D01*
X149555092Y-40968356D01*
X149557451Y-40984237D01*
X149558865Y-41001301D01*
X149580661Y-41087371D01*
X149581669Y-41091676D01*
X149593630Y-41147171D01*
X149601046Y-41181581D01*
X149607333Y-41197226D01*
X149612479Y-41213017D01*
X149615843Y-41226301D01*
X149652875Y-41310727D01*
X149654377Y-41314301D01*
X149689936Y-41402790D01*
X149696979Y-41414229D01*
X149704945Y-41429431D01*
X149709076Y-41438849D01*
X149761366Y-41518886D01*
X149763147Y-41521693D01*
X149814931Y-41605796D01*
X149821539Y-41613303D01*
X149832269Y-41627410D01*
X149836022Y-41633155D01*
X149867230Y-41667056D01*
X149891517Y-41705963D01*
X149900000Y-41751038D01*
X149900000Y-44700000D01*
X150325163Y-44700000D01*
X150372617Y-44709439D01*
X150412842Y-44736317D01*
X150430349Y-44753824D01*
X150438126Y-44761601D01*
X150467330Y-44782049D01*
X150477793Y-44790244D01*
X150490608Y-44801440D01*
X150507004Y-44815765D01*
X150560940Y-44847990D01*
X150568435Y-44852843D01*
X150617361Y-44887102D01*
X150627490Y-44891825D01*
X150652799Y-44903628D01*
X150663991Y-44909560D01*
X150700236Y-44931215D01*
X150700239Y-44931216D01*
X150755839Y-44952083D01*
X150764669Y-44955792D01*
X150809003Y-44976466D01*
X150815670Y-44979575D01*
X150856757Y-44990584D01*
X150868235Y-44994266D01*
X150868859Y-44994500D01*
X150910976Y-45010307D01*
X150966024Y-45020296D01*
X150975970Y-45022527D01*
X151027023Y-45036207D01*
X151071133Y-45040065D01*
X151072814Y-45040213D01*
X151084148Y-45041733D01*
X151132453Y-45050500D01*
X151184985Y-45050500D01*
X151195791Y-45050971D01*
X151218447Y-45052954D01*
X151244999Y-45055277D01*
X151244999Y-45055276D01*
X151245000Y-45055277D01*
X151294208Y-45050971D01*
X151297511Y-45050827D01*
X151301145Y-45050500D01*
X151301155Y-45050500D01*
X151355172Y-45045638D01*
X151355180Y-45045727D01*
X151355479Y-45045611D01*
X151462977Y-45036207D01*
X151462977Y-45036206D01*
X151467663Y-45035797D01*
X151469183Y-45035377D01*
X151469188Y-45035377D01*
X151572726Y-45006800D01*
X151573413Y-45006614D01*
X151619500Y-44994266D01*
X151679377Y-44978223D01*
X151684148Y-44976466D01*
X151686166Y-44975494D01*
X151686170Y-44975493D01*
X151779951Y-44930329D01*
X151781007Y-44929830D01*
X151872639Y-44887102D01*
X151872645Y-44887097D01*
X151874392Y-44886283D01*
X151888155Y-44878222D01*
X151888973Y-44877829D01*
X151970324Y-44818722D01*
X151972043Y-44817497D01*
X152051871Y-44761603D01*
X152051873Y-44761600D01*
X152051877Y-44761598D01*
X152052746Y-44760728D01*
X152067557Y-44748080D01*
X152067905Y-44747826D01*
X152071078Y-44745522D01*
X152077975Y-44738307D01*
X152118867Y-44709979D01*
X152167602Y-44700000D01*
X155175163Y-44700000D01*
X155222617Y-44709439D01*
X155262842Y-44736317D01*
X155280349Y-44753824D01*
X155288126Y-44761601D01*
X155317330Y-44782049D01*
X155327793Y-44790244D01*
X155340608Y-44801440D01*
X155357004Y-44815765D01*
X155410940Y-44847990D01*
X155418435Y-44852843D01*
X155467361Y-44887102D01*
X155477490Y-44891825D01*
X155502799Y-44903628D01*
X155513991Y-44909560D01*
X155550236Y-44931215D01*
X155550239Y-44931216D01*
X155605839Y-44952083D01*
X155614669Y-44955792D01*
X155659003Y-44976466D01*
X155665670Y-44979575D01*
X155706757Y-44990584D01*
X155718235Y-44994266D01*
X155718859Y-44994500D01*
X155760976Y-45010307D01*
X155816024Y-45020296D01*
X155825970Y-45022527D01*
X155877023Y-45036207D01*
X155921133Y-45040065D01*
X155922814Y-45040213D01*
X155934148Y-45041733D01*
X155982453Y-45050500D01*
X156034985Y-45050500D01*
X156045791Y-45050971D01*
X156068447Y-45052954D01*
X156094999Y-45055277D01*
X156094999Y-45055276D01*
X156095000Y-45055277D01*
X156144208Y-45050971D01*
X156147511Y-45050827D01*
X156151145Y-45050500D01*
X156151155Y-45050500D01*
X156205172Y-45045638D01*
X156205180Y-45045727D01*
X156205479Y-45045611D01*
X156312977Y-45036207D01*
X156312977Y-45036206D01*
X156317663Y-45035797D01*
X156319183Y-45035377D01*
X156319188Y-45035377D01*
X156422726Y-45006800D01*
X156423413Y-45006614D01*
X156469500Y-44994266D01*
X156529377Y-44978223D01*
X156534148Y-44976466D01*
X156536166Y-44975494D01*
X156536170Y-44975493D01*
X156629951Y-44930329D01*
X156631007Y-44929830D01*
X156722639Y-44887102D01*
X156722645Y-44887097D01*
X156724392Y-44886283D01*
X156738155Y-44878222D01*
X156738973Y-44877829D01*
X156820324Y-44818722D01*
X156822043Y-44817497D01*
X156901871Y-44761603D01*
X156901873Y-44761600D01*
X156901877Y-44761598D01*
X156902746Y-44760728D01*
X156917557Y-44748080D01*
X156917905Y-44747826D01*
X156921078Y-44745522D01*
X156927975Y-44738307D01*
X156968867Y-44709979D01*
X157017602Y-44700000D01*
X157500000Y-44700000D01*
X157500000Y-41676159D01*
X157505155Y-41640778D01*
X157520190Y-41608339D01*
X157543233Y-41573067D01*
X157547317Y-41567196D01*
X157591879Y-41506947D01*
X157607163Y-41476630D01*
X157614079Y-41464632D01*
X157617704Y-41459082D01*
X157630924Y-41438849D01*
X157661123Y-41370000D01*
X157663927Y-41364045D01*
X157699207Y-41294074D01*
X157708150Y-41264868D01*
X157713158Y-41251374D01*
X157724157Y-41226300D01*
X157743453Y-41150099D01*
X157745088Y-41144255D01*
X157769015Y-41066126D01*
X157769014Y-41066126D01*
X157769016Y-41066123D01*
X157772461Y-41039215D01*
X157775247Y-41024548D01*
X157781134Y-41001305D01*
X157787903Y-40919600D01*
X157788484Y-40914095D01*
X157793438Y-40875409D01*
X157799298Y-40829654D01*
X157798291Y-40805960D01*
X157798602Y-40790481D01*
X157800300Y-40770000D01*
X157793248Y-40684902D01*
X157792938Y-40679944D01*
X157792247Y-40663677D01*
X157789180Y-40591468D01*
X157784907Y-40571642D01*
X157782547Y-40555756D01*
X157781134Y-40538695D01*
X157759328Y-40452589D01*
X157758336Y-40448354D01*
X157738954Y-40358419D01*
X157732665Y-40342770D01*
X157727521Y-40326989D01*
X157724157Y-40313700D01*
X157687102Y-40229224D01*
X157685621Y-40225696D01*
X157650066Y-40137214D01*
X157650064Y-40137210D01*
X157643016Y-40125764D01*
X157635051Y-40110561D01*
X157630924Y-40101151D01*
X157578628Y-40021106D01*
X157576879Y-40018350D01*
X157525069Y-39934205D01*
X157519535Y-39925217D01*
X157520983Y-39924324D01*
X157507988Y-39902712D01*
X157500000Y-39858925D01*
X157500000Y-39800000D01*
X157463005Y-39800000D01*
X157411929Y-39788992D01*
X157369921Y-39757923D01*
X157367563Y-39755243D01*
X157362440Y-39751107D01*
X157349114Y-39738618D01*
X157346784Y-39736087D01*
X157265936Y-39673161D01*
X157264199Y-39671783D01*
X157182082Y-39605477D01*
X157179315Y-39603932D01*
X157163637Y-39593538D01*
X157163626Y-39593529D01*
X157070552Y-39543161D01*
X157069209Y-39542423D01*
X156973954Y-39489210D01*
X156973947Y-39489207D01*
X156973753Y-39489099D01*
X156962401Y-39484059D01*
X156911944Y-39466737D01*
X156856252Y-39447617D01*
X156855272Y-39447276D01*
X156848050Y-39444725D01*
X156839026Y-39441536D01*
X156783204Y-39401695D01*
X156757095Y-39338277D01*
X156768687Y-39270683D01*
X156814433Y-39219587D01*
X156880335Y-39200622D01*
X161289638Y-39200584D01*
X161349060Y-39215750D01*
G37*
G04 #@! TD.AperFunction*
G04 #@! TA.AperFunction,Conductor*
G36*
X203218238Y-39218104D02*
G01*
X203263885Y-39266595D01*
X203277863Y-39331707D01*
X203256140Y-39394661D01*
X203204982Y-39437297D01*
X203171643Y-39452302D01*
X202886881Y-39624445D01*
X202624945Y-39829660D01*
X202389660Y-40064945D01*
X202184445Y-40326881D01*
X202012302Y-40611642D01*
X201875734Y-40915083D01*
X201776745Y-41232753D01*
X201716764Y-41560057D01*
X201696672Y-41892199D01*
X201713746Y-42174451D01*
X201716764Y-42224342D01*
X201773332Y-42533025D01*
X201776745Y-42551646D01*
X201875734Y-42869316D01*
X201875736Y-42869321D01*
X201875737Y-42869323D01*
X201971492Y-43082081D01*
X202012302Y-43172757D01*
X202184445Y-43457518D01*
X202305096Y-43611517D01*
X202389658Y-43719452D01*
X202624948Y-43954742D01*
X202720370Y-44029500D01*
X202886881Y-44159954D01*
X202908615Y-44173092D01*
X202914755Y-44176804D01*
X202919548Y-44179701D01*
X202960469Y-44219966D01*
X202978868Y-44274347D01*
X202970803Y-44331187D01*
X202938001Y-44378302D01*
X202887494Y-44405594D01*
X202736335Y-44446097D01*
X202522170Y-44545965D01*
X202328598Y-44681505D01*
X202161508Y-44848595D01*
X202161505Y-44848598D01*
X202161505Y-44848599D01*
X202096366Y-44941625D01*
X202052051Y-44980489D01*
X201994794Y-44994500D01*
X199325206Y-44994500D01*
X199267949Y-44980489D01*
X199223633Y-44941625D01*
X199158495Y-44848599D01*
X198991401Y-44681505D01*
X198797830Y-44545965D01*
X198583663Y-44446097D01*
X198511070Y-44426646D01*
X198355407Y-44384936D01*
X198120000Y-44364340D01*
X197884592Y-44384936D01*
X197656336Y-44446097D01*
X197442170Y-44545965D01*
X197248598Y-44681505D01*
X197081505Y-44848598D01*
X196945965Y-45042170D01*
X196846097Y-45256336D01*
X196784936Y-45484592D01*
X196764340Y-45719999D01*
X196784936Y-45955406D01*
X196796913Y-46000105D01*
X196796913Y-46064292D01*
X196764821Y-46119877D01*
X196651515Y-46233183D01*
X196611290Y-46260061D01*
X196563837Y-46269500D01*
X194452503Y-46269500D01*
X194397659Y-46256712D01*
X194354127Y-46220986D01*
X194330886Y-46169691D01*
X194332728Y-46113407D01*
X194359500Y-46013489D01*
X194375063Y-45955408D01*
X194395659Y-45720000D01*
X194375063Y-45484592D01*
X194313903Y-45256337D01*
X194214035Y-45042171D01*
X194078495Y-44848599D01*
X193911401Y-44681505D01*
X193717830Y-44545965D01*
X193503663Y-44446097D01*
X193443196Y-44429895D01*
X193341696Y-44402698D01*
X193291189Y-44375406D01*
X193258387Y-44328290D01*
X193250322Y-44271450D01*
X193268722Y-44217070D01*
X193309640Y-44176806D01*
X193337518Y-44159954D01*
X193599452Y-43954742D01*
X193834742Y-43719452D01*
X194039954Y-43457518D01*
X194212098Y-43172757D01*
X194348663Y-42869323D01*
X194447656Y-42551641D01*
X194507636Y-42224342D01*
X194527727Y-41892200D01*
X194507636Y-41560058D01*
X194447656Y-41232759D01*
X194395731Y-41066126D01*
X194348665Y-40915083D01*
X194348664Y-40915082D01*
X194348663Y-40915077D01*
X194212098Y-40611643D01*
X194113368Y-40448324D01*
X194039954Y-40326881D01*
X193919412Y-40173021D01*
X193834742Y-40064948D01*
X193599452Y-39829658D01*
X193480019Y-39736088D01*
X193337518Y-39624445D01*
X193113810Y-39489210D01*
X193052757Y-39452302D01*
X193019611Y-39437384D01*
X192968453Y-39394748D01*
X192946730Y-39331795D01*
X192960707Y-39266683D01*
X193006354Y-39218192D01*
X193070499Y-39200310D01*
X203154091Y-39200223D01*
X203218238Y-39218104D01*
G37*
G04 #@! TD.AperFunction*
G04 #@! TA.AperFunction,Conductor*
G36*
X172737654Y-39218368D02*
G01*
X172783301Y-39266858D01*
X172797279Y-39331971D01*
X172775556Y-39394924D01*
X172724398Y-39437560D01*
X172691643Y-39452302D01*
X172406881Y-39624445D01*
X172144945Y-39829660D01*
X171909660Y-40064945D01*
X171704445Y-40326881D01*
X171532302Y-40611642D01*
X171395734Y-40915083D01*
X171296745Y-41232753D01*
X171236764Y-41560057D01*
X171216672Y-41892199D01*
X171233746Y-42174451D01*
X171236764Y-42224342D01*
X171293332Y-42533025D01*
X171296745Y-42551646D01*
X171395734Y-42869316D01*
X171395736Y-42869321D01*
X171395737Y-42869323D01*
X171491492Y-43082081D01*
X171532302Y-43172757D01*
X171704445Y-43457518D01*
X171825096Y-43611517D01*
X171909658Y-43719452D01*
X172144948Y-43954742D01*
X172240370Y-44029500D01*
X172406881Y-44159954D01*
X172428615Y-44173092D01*
X172434755Y-44176804D01*
X172439548Y-44179701D01*
X172480469Y-44219966D01*
X172498868Y-44274347D01*
X172490803Y-44331187D01*
X172458001Y-44378302D01*
X172407494Y-44405594D01*
X172256335Y-44446097D01*
X172042170Y-44545965D01*
X171848598Y-44681505D01*
X171681508Y-44848595D01*
X171681505Y-44848598D01*
X171681505Y-44848599D01*
X171589073Y-44980605D01*
X171541858Y-45020930D01*
X171481010Y-45033310D01*
X171421790Y-45014638D01*
X171379047Y-44969596D01*
X171363500Y-44909480D01*
X171363500Y-43712151D01*
X171363726Y-43704665D01*
X171366909Y-43652032D01*
X171367219Y-43646915D01*
X171356785Y-43589982D01*
X171355663Y-43582603D01*
X171354764Y-43575198D01*
X171348688Y-43525155D01*
X171348687Y-43525153D01*
X171348687Y-43525151D01*
X171345364Y-43516388D01*
X171339337Y-43494768D01*
X171337650Y-43485561D01*
X171313903Y-43432798D01*
X171311039Y-43425883D01*
X171307066Y-43415407D01*
X171290518Y-43371774D01*
X171285193Y-43364059D01*
X171274174Y-43344523D01*
X171270326Y-43335972D01*
X171234639Y-43290422D01*
X171230200Y-43284389D01*
X171197332Y-43236770D01*
X171154027Y-43198406D01*
X171148572Y-43193271D01*
X168995180Y-41039879D01*
X168963086Y-40984291D01*
X168963087Y-40920103D01*
X168975063Y-40875409D01*
X168995659Y-40640000D01*
X168975063Y-40404592D01*
X168967938Y-40378001D01*
X168913903Y-40176337D01*
X168814035Y-39962171D01*
X168678495Y-39768599D01*
X168511401Y-39601505D01*
X168317830Y-39465965D01*
X168255509Y-39436904D01*
X168205114Y-39393863D01*
X168184085Y-39331013D01*
X168198429Y-39266309D01*
X168244050Y-39218235D01*
X168307911Y-39200523D01*
X172673507Y-39200486D01*
X172737654Y-39218368D01*
G37*
G04 #@! TD.AperFunction*
G04 #@! TA.AperFunction,Conductor*
G36*
X207676676Y-39217894D02*
G01*
X207722297Y-39265967D01*
X207736642Y-39330671D01*
X207715614Y-39393521D01*
X207665218Y-39436564D01*
X207602173Y-39465963D01*
X207408598Y-39601505D01*
X207241505Y-39768598D01*
X207105965Y-39962170D01*
X207006097Y-40176335D01*
X206965594Y-40327494D01*
X206938302Y-40378001D01*
X206891187Y-40410803D01*
X206834347Y-40418868D01*
X206779966Y-40400469D01*
X206739701Y-40359548D01*
X206719954Y-40326881D01*
X206599412Y-40173021D01*
X206514742Y-40064948D01*
X206279452Y-39829658D01*
X206160019Y-39736088D01*
X206017518Y-39624445D01*
X205732754Y-39452300D01*
X205699367Y-39437274D01*
X205648209Y-39394639D01*
X205626485Y-39331686D01*
X205640462Y-39266574D01*
X205686109Y-39218082D01*
X205750252Y-39200200D01*
X207612816Y-39200184D01*
X207676676Y-39217894D01*
G37*
G04 #@! TD.AperFunction*
G04 #@! TA.AperFunction,Conductor*
G36*
X177196112Y-39218157D02*
G01*
X177241733Y-39266230D01*
X177256078Y-39330934D01*
X177235050Y-39393784D01*
X177184654Y-39436827D01*
X177122173Y-39465963D01*
X176928598Y-39601505D01*
X176761505Y-39768598D01*
X176625965Y-39962170D01*
X176526097Y-40176335D01*
X176485594Y-40327494D01*
X176458302Y-40378001D01*
X176411187Y-40410803D01*
X176354347Y-40418868D01*
X176299966Y-40400469D01*
X176259701Y-40359548D01*
X176239954Y-40326881D01*
X176119412Y-40173021D01*
X176034742Y-40064948D01*
X175799452Y-39829658D01*
X175680019Y-39736088D01*
X175537518Y-39624445D01*
X175313810Y-39489210D01*
X175252757Y-39452302D01*
X175219951Y-39437537D01*
X175168793Y-39394901D01*
X175147070Y-39331948D01*
X175161047Y-39266836D01*
X175206694Y-39218345D01*
X175270837Y-39200463D01*
X177132252Y-39200447D01*
X177196112Y-39218157D01*
G37*
G04 #@! TD.AperFunction*
G04 #@! TA.AperFunction,Conductor*
G36*
X221018578Y-39217951D02*
G01*
X221064225Y-39266442D01*
X221078203Y-39331554D01*
X221056480Y-39394508D01*
X221005322Y-39437144D01*
X220971643Y-39452302D01*
X220686881Y-39624445D01*
X220424945Y-39829660D01*
X220189660Y-40064945D01*
X219984446Y-40326881D01*
X219975505Y-40341671D01*
X219935239Y-40382590D01*
X219880858Y-40400987D01*
X219824019Y-40392921D01*
X219776905Y-40360119D01*
X219749614Y-40309613D01*
X219731008Y-40240174D01*
X219713903Y-40176337D01*
X219614035Y-39962171D01*
X219478495Y-39768599D01*
X219311401Y-39601505D01*
X219117830Y-39465965D01*
X219054570Y-39436466D01*
X219004175Y-39393425D01*
X218983146Y-39330575D01*
X218997490Y-39265871D01*
X219043111Y-39217797D01*
X219106973Y-39200085D01*
X220954429Y-39200069D01*
X221018578Y-39217951D01*
G37*
G04 #@! TD.AperFunction*
G04 #@! TA.AperFunction,Conductor*
G36*
X190537994Y-39218215D02*
G01*
X190583641Y-39266705D01*
X190597619Y-39331818D01*
X190575896Y-39394771D01*
X190524738Y-39437407D01*
X190491643Y-39452302D01*
X190206881Y-39624445D01*
X189944945Y-39829660D01*
X189709660Y-40064945D01*
X189504446Y-40326881D01*
X189495505Y-40341671D01*
X189455239Y-40382590D01*
X189400858Y-40400987D01*
X189344019Y-40392921D01*
X189296905Y-40360119D01*
X189269614Y-40309613D01*
X189251008Y-40240174D01*
X189233903Y-40176337D01*
X189134035Y-39962171D01*
X188998495Y-39768599D01*
X188831401Y-39601505D01*
X188637830Y-39465965D01*
X188575134Y-39436729D01*
X188524739Y-39393688D01*
X188503710Y-39330838D01*
X188518054Y-39266134D01*
X188563675Y-39218060D01*
X188627537Y-39200348D01*
X190473845Y-39200332D01*
X190537994Y-39218215D01*
G37*
G04 #@! TD.AperFunction*
G04 #@! TA.AperFunction,Conductor*
G36*
X217836863Y-39217807D02*
G01*
X217882484Y-39265880D01*
X217896829Y-39330584D01*
X217875801Y-39393435D01*
X217825405Y-39436477D01*
X217762172Y-39465963D01*
X217568598Y-39601505D01*
X217401505Y-39768598D01*
X217271575Y-39954159D01*
X217227257Y-39993025D01*
X217170000Y-40007036D01*
X217112743Y-39993025D01*
X217068425Y-39954159D01*
X217035294Y-39906843D01*
X216938495Y-39768599D01*
X216771401Y-39601505D01*
X216577830Y-39465965D01*
X216532274Y-39444722D01*
X216514617Y-39436488D01*
X216464221Y-39393446D01*
X216443192Y-39330596D01*
X216457536Y-39265892D01*
X216503157Y-39217818D01*
X216567016Y-39200107D01*
X217773001Y-39200096D01*
X217836863Y-39217807D01*
G37*
G04 #@! TD.AperFunction*
G04 #@! TA.AperFunction,Conductor*
G36*
X215296816Y-39217829D02*
G01*
X215342437Y-39265902D01*
X215356782Y-39330606D01*
X215335753Y-39393457D01*
X215285358Y-39436499D01*
X215222172Y-39465963D01*
X215028598Y-39601505D01*
X214861505Y-39768598D01*
X214731575Y-39954159D01*
X214687257Y-39993025D01*
X214630000Y-40007036D01*
X214572743Y-39993025D01*
X214528425Y-39954159D01*
X214495294Y-39906843D01*
X214398495Y-39768599D01*
X214231401Y-39601505D01*
X214037830Y-39465965D01*
X213981586Y-39439738D01*
X213974664Y-39436510D01*
X213924268Y-39393468D01*
X213903239Y-39330618D01*
X213917583Y-39265914D01*
X213963204Y-39217840D01*
X214027063Y-39200129D01*
X215232953Y-39200118D01*
X215296816Y-39217829D01*
G37*
G04 #@! TD.AperFunction*
G04 #@! TA.AperFunction,Conductor*
G36*
X212756770Y-39217851D02*
G01*
X212802391Y-39265925D01*
X212816736Y-39330629D01*
X212795707Y-39393479D01*
X212745311Y-39436522D01*
X212682170Y-39465965D01*
X212488598Y-39601505D01*
X212321505Y-39768598D01*
X212191575Y-39954159D01*
X212147257Y-39993025D01*
X212090000Y-40007036D01*
X212032743Y-39993025D01*
X211988425Y-39954159D01*
X211955294Y-39906843D01*
X211858495Y-39768599D01*
X211691401Y-39601505D01*
X211497830Y-39465965D01*
X211440737Y-39439342D01*
X211434711Y-39436532D01*
X211384315Y-39393490D01*
X211363286Y-39330640D01*
X211377630Y-39265936D01*
X211423251Y-39217862D01*
X211487110Y-39200151D01*
X212692907Y-39200140D01*
X212756770Y-39217851D01*
G37*
G04 #@! TD.AperFunction*
G04 #@! TA.AperFunction,Conductor*
G36*
X210216723Y-39217872D02*
G01*
X210262344Y-39265945D01*
X210276689Y-39330649D01*
X210255661Y-39393499D01*
X210205266Y-39436542D01*
X210142171Y-39465964D01*
X209948598Y-39601505D01*
X209781505Y-39768598D01*
X209651575Y-39954159D01*
X209607257Y-39993025D01*
X209550000Y-40007036D01*
X209492743Y-39993025D01*
X209448425Y-39954159D01*
X209415294Y-39906843D01*
X209318495Y-39768599D01*
X209151401Y-39601505D01*
X208957830Y-39465965D01*
X208894757Y-39436553D01*
X208844362Y-39393512D01*
X208823333Y-39330662D01*
X208837677Y-39265958D01*
X208883298Y-39217884D01*
X208947158Y-39200173D01*
X210152863Y-39200162D01*
X210216723Y-39217872D01*
G37*
G04 #@! TD.AperFunction*
G04 #@! TA.AperFunction,Conductor*
G36*
X187356299Y-39218070D02*
G01*
X187401920Y-39266143D01*
X187416265Y-39330847D01*
X187395237Y-39393698D01*
X187344841Y-39436740D01*
X187282172Y-39465963D01*
X187088598Y-39601505D01*
X186921505Y-39768598D01*
X186791575Y-39954159D01*
X186747257Y-39993025D01*
X186690000Y-40007036D01*
X186632743Y-39993025D01*
X186588425Y-39954159D01*
X186555294Y-39906843D01*
X186458495Y-39768599D01*
X186291401Y-39601505D01*
X186097830Y-39465965D01*
X186052274Y-39444722D01*
X186035181Y-39436751D01*
X185984785Y-39393709D01*
X185963756Y-39330859D01*
X185978100Y-39266155D01*
X186023721Y-39218081D01*
X186087580Y-39200370D01*
X187292437Y-39200359D01*
X187356299Y-39218070D01*
G37*
G04 #@! TD.AperFunction*
G04 #@! TA.AperFunction,Conductor*
G36*
X184816252Y-39218092D02*
G01*
X184861873Y-39266165D01*
X184876218Y-39330869D01*
X184855189Y-39393720D01*
X184804794Y-39436762D01*
X184742172Y-39465963D01*
X184548598Y-39601505D01*
X184381505Y-39768598D01*
X184251575Y-39954159D01*
X184207257Y-39993025D01*
X184150000Y-40007036D01*
X184092743Y-39993025D01*
X184048425Y-39954159D01*
X184015294Y-39906843D01*
X183918495Y-39768599D01*
X183751401Y-39601505D01*
X183557830Y-39465965D01*
X183501586Y-39439738D01*
X183495228Y-39436773D01*
X183444832Y-39393731D01*
X183423803Y-39330881D01*
X183438147Y-39266177D01*
X183483768Y-39218103D01*
X183547627Y-39200392D01*
X184752389Y-39200381D01*
X184816252Y-39218092D01*
G37*
G04 #@! TD.AperFunction*
G04 #@! TA.AperFunction,Conductor*
G36*
X182276206Y-39218114D02*
G01*
X182321827Y-39266188D01*
X182336172Y-39330892D01*
X182315143Y-39393742D01*
X182264747Y-39436785D01*
X182202170Y-39465965D01*
X182008598Y-39601505D01*
X181841505Y-39768598D01*
X181711575Y-39954159D01*
X181667257Y-39993025D01*
X181610000Y-40007036D01*
X181552743Y-39993025D01*
X181508425Y-39954159D01*
X181475294Y-39906843D01*
X181378495Y-39768599D01*
X181211401Y-39601505D01*
X181017830Y-39465965D01*
X180961025Y-39439476D01*
X180955275Y-39436795D01*
X180904879Y-39393753D01*
X180883850Y-39330903D01*
X180898194Y-39266199D01*
X180943815Y-39218125D01*
X181007674Y-39200414D01*
X182212343Y-39200403D01*
X182276206Y-39218114D01*
G37*
G04 #@! TD.AperFunction*
G04 #@! TA.AperFunction,Conductor*
G36*
X179736159Y-39218135D02*
G01*
X179781780Y-39266208D01*
X179796125Y-39330912D01*
X179775097Y-39393762D01*
X179724702Y-39436805D01*
X179662171Y-39465964D01*
X179468598Y-39601505D01*
X179301505Y-39768598D01*
X179171575Y-39954159D01*
X179127257Y-39993025D01*
X179070000Y-40007036D01*
X179012743Y-39993025D01*
X178968425Y-39954159D01*
X178935294Y-39906843D01*
X178838495Y-39768599D01*
X178671401Y-39601505D01*
X178477830Y-39465965D01*
X178415321Y-39436816D01*
X178364926Y-39393775D01*
X178343897Y-39330925D01*
X178358241Y-39266221D01*
X178403862Y-39218147D01*
X178467722Y-39200436D01*
X179672299Y-39200425D01*
X179736159Y-39218135D01*
G37*
G04 #@! TD.AperFunction*
G04 #@! TA.AperFunction,Conductor*
G36*
X167035924Y-39218245D02*
G01*
X167081545Y-39266318D01*
X167095890Y-39331022D01*
X167074861Y-39393873D01*
X167024466Y-39436916D01*
X166962168Y-39465966D01*
X166768598Y-39601505D01*
X166601508Y-39768595D01*
X166601505Y-39768598D01*
X166601505Y-39768599D01*
X166536366Y-39861625D01*
X166492051Y-39900489D01*
X166434794Y-39914500D01*
X165834499Y-39914500D01*
X165772499Y-39897887D01*
X165727112Y-39852500D01*
X165710499Y-39790500D01*
X165710499Y-39742130D01*
X165710499Y-39742127D01*
X165704091Y-39682517D01*
X165653796Y-39547669D01*
X165567546Y-39432454D01*
X165556002Y-39423812D01*
X165517520Y-39376057D01*
X165506630Y-39315700D01*
X165525998Y-39257507D01*
X165570886Y-39215714D01*
X165630309Y-39200546D01*
X166972063Y-39200535D01*
X167035924Y-39218245D01*
G37*
G04 #@! TD.AperFunction*
M02*
