G04 #@! TF.GenerationSoftware,KiCad,Pcbnew,7.0.1*
G04 #@! TF.CreationDate,2023-09-08T10:55:18-05:00*
G04 #@! TF.ProjectId,ProtoPropDuo,50726f74-6f50-4726-9f70-44756f2e6b69,B*
G04 #@! TF.SameCoordinates,Original*
G04 #@! TF.FileFunction,Copper,L2,Bot*
G04 #@! TF.FilePolarity,Positive*
%FSLAX46Y46*%
G04 Gerber Fmt 4.6, Leading zero omitted, Abs format (unit mm)*
G04 Created by KiCad (PCBNEW 7.0.1) date 2023-09-08 10:55:18*
%MOMM*%
%LPD*%
G01*
G04 APERTURE LIST*
G04 #@! TA.AperFunction,ComponentPad*
%ADD10O,1.700000X1.700000*%
G04 #@! TD*
G04 #@! TA.AperFunction,ComponentPad*
%ADD11C,1.700000*%
G04 #@! TD*
G04 #@! TA.AperFunction,ComponentPad*
%ADD12R,1.700000X1.700000*%
G04 #@! TD*
G04 #@! TA.AperFunction,ComponentPad*
%ADD13C,4.500000*%
G04 #@! TD*
G04 #@! TA.AperFunction,SMDPad,CuDef*
%ADD14R,1.000000X1.500000*%
G04 #@! TD*
G04 #@! TA.AperFunction,ViaPad*
%ADD15C,0.600000*%
G04 #@! TD*
G04 #@! TA.AperFunction,ViaPad*
%ADD16C,0.900000*%
G04 #@! TD*
G04 #@! TA.AperFunction,ViaPad*
%ADD17C,0.800000*%
G04 #@! TD*
G04 #@! TA.AperFunction,Conductor*
%ADD18C,0.350000*%
G04 #@! TD*
G04 #@! TA.AperFunction,Conductor*
%ADD19C,0.450000*%
G04 #@! TD*
G04 #@! TA.AperFunction,Conductor*
%ADD20C,0.250000*%
G04 #@! TD*
G04 #@! TA.AperFunction,Conductor*
%ADD21C,1.000000*%
G04 #@! TD*
G04 APERTURE END LIST*
G04 #@! TA.AperFunction,EtchedComponent*
G36*
X223150000Y-95042000D02*
G01*
X222650000Y-95042000D01*
X222650000Y-94442000D01*
X223150000Y-94442000D01*
X223150000Y-95042000D01*
G37*
G04 #@! TD.AperFunction*
G04 #@! TA.AperFunction,EtchedComponent*
G36*
X201500000Y-98344000D02*
G01*
X201000000Y-98344000D01*
X201000000Y-97744000D01*
X201500000Y-97744000D01*
X201500000Y-98344000D01*
G37*
G04 #@! TD.AperFunction*
G04 #@! TA.AperFunction,EtchedComponent*
G36*
X202800000Y-93137000D02*
G01*
X202300000Y-93137000D01*
X202300000Y-92537000D01*
X202800000Y-92537000D01*
X202800000Y-93137000D01*
G37*
G04 #@! TD.AperFunction*
D10*
X185420000Y-50800000D03*
X210820000Y-86360000D03*
X185420000Y-73660000D03*
X180340000Y-73660000D03*
D11*
X198120000Y-45720000D03*
D10*
X198120000Y-48260000D03*
X198120000Y-50800000D03*
D12*
X198120000Y-53340000D03*
D10*
X198120000Y-55880000D03*
X198120000Y-58420000D03*
X198120000Y-60960000D03*
X198120000Y-63500000D03*
X198120000Y-66040000D03*
X198120000Y-68580000D03*
X198120000Y-71120000D03*
X198120000Y-73660000D03*
X198120000Y-76200000D03*
X198120000Y-78740000D03*
X198120000Y-81280000D03*
X198120000Y-83820000D03*
X210820000Y-43180000D03*
X220980000Y-66040000D03*
X208280000Y-86360000D03*
X180340000Y-76200000D03*
X218440000Y-81280000D03*
X208280000Y-88900000D03*
X182880000Y-50800000D03*
X187960000Y-106680000D03*
X172720000Y-45720000D03*
X172720000Y-48260000D03*
X172720000Y-50800000D03*
D12*
X172720000Y-53340000D03*
D10*
X172720000Y-55880000D03*
X172720000Y-58420000D03*
X172720000Y-60960000D03*
X172720000Y-63500000D03*
X172720000Y-66040000D03*
X172720000Y-68580000D03*
X172720000Y-71120000D03*
X172720000Y-73660000D03*
X172720000Y-76200000D03*
X172720000Y-78740000D03*
X172720000Y-81280000D03*
X172694600Y-83820000D03*
X193040000Y-83820000D03*
X193040000Y-81280000D03*
X193040000Y-78740000D03*
X193040000Y-76200000D03*
X193040000Y-73660000D03*
X193040000Y-71120000D03*
X193040000Y-68580000D03*
X193040000Y-66040000D03*
X193040000Y-63500000D03*
X193040000Y-60960000D03*
X193040000Y-58420000D03*
X193040000Y-55880000D03*
D13*
X173972200Y-41892200D03*
X191772200Y-41892200D03*
D10*
X180340000Y-48260000D03*
X187960000Y-43180000D03*
X208280000Y-83820000D03*
X213360000Y-88900000D03*
X210820000Y-45720000D03*
X218440000Y-43180000D03*
X190500000Y-106680000D03*
X210820000Y-68580000D03*
X205740000Y-55880000D03*
X187960000Y-81280000D03*
X180340000Y-104140000D03*
X223520000Y-50800000D03*
X190500000Y-58420000D03*
X190500000Y-60960000D03*
X175260000Y-104140000D03*
X187960000Y-66040000D03*
X210820000Y-63500000D03*
X182880000Y-83820000D03*
X182880000Y-88900000D03*
X185420000Y-81280000D03*
X187960000Y-109220000D03*
X177800000Y-63500000D03*
X185420000Y-83820000D03*
X205740000Y-63500000D03*
X180340000Y-109220000D03*
X187960000Y-86360000D03*
X177800000Y-48260000D03*
X218440000Y-86360000D03*
X218440000Y-66040000D03*
X177800000Y-68580000D03*
X190500000Y-63500000D03*
X177800000Y-45720000D03*
D12*
X218440000Y-53340000D03*
D10*
X180340000Y-96520000D03*
X213360000Y-81280000D03*
X208280000Y-55880000D03*
X218440000Y-71120000D03*
X175260000Y-73660000D03*
X177800000Y-104140000D03*
X205740000Y-83820000D03*
X187960000Y-45720000D03*
X208280000Y-71120000D03*
X218440000Y-40640000D03*
X177800000Y-76200000D03*
X220980000Y-73660000D03*
X175260000Y-50800000D03*
X213360000Y-40640000D03*
X175260000Y-96520000D03*
X182880000Y-86360000D03*
X215900000Y-60960000D03*
X218440000Y-73660000D03*
X177800000Y-81280000D03*
X218440000Y-83820000D03*
X187960000Y-104140000D03*
X210820000Y-48260000D03*
X182880000Y-81280000D03*
X215900000Y-40640000D03*
X208280000Y-60960000D03*
X190500000Y-83820000D03*
X208280000Y-76200000D03*
X220980000Y-68580000D03*
X213360000Y-71120000D03*
X208280000Y-81280000D03*
X218440000Y-48260000D03*
X220980000Y-99060000D03*
X220980000Y-101600000D03*
X220980000Y-104140000D03*
X220980000Y-106680000D03*
X220980000Y-109220000D03*
X215900000Y-76200000D03*
X208280000Y-63500000D03*
X180340000Y-63500000D03*
D11*
X139700000Y-40640000D03*
D10*
X139700000Y-43180000D03*
D12*
X139700000Y-45720000D03*
D10*
X139700000Y-48260000D03*
X139700000Y-50800000D03*
X139700000Y-53340000D03*
X139700000Y-55880000D03*
D12*
X139700000Y-58420000D03*
D10*
X139700000Y-60960000D03*
X139700000Y-63500000D03*
X139700000Y-66040000D03*
X139700000Y-68580000D03*
D12*
X139700000Y-71120000D03*
D10*
X139700000Y-73660000D03*
X139700000Y-76200000D03*
X139700000Y-78740000D03*
X139700000Y-81280000D03*
D12*
X139700000Y-83820000D03*
D10*
X139700000Y-86360000D03*
X139700000Y-88900000D03*
X187960000Y-55880000D03*
X223520000Y-45720000D03*
X187960000Y-50800000D03*
X175260000Y-55880000D03*
D12*
X223520000Y-53340000D03*
D10*
X185420000Y-86360000D03*
X177800000Y-50800000D03*
X213360000Y-68580000D03*
X190500000Y-101600000D03*
X193040000Y-109220000D03*
X215900000Y-68580000D03*
X182880000Y-73660000D03*
X210820000Y-66040000D03*
X187960000Y-40640000D03*
X220980000Y-55880000D03*
X220980000Y-78740000D03*
X208280000Y-66040000D03*
X218440000Y-60960000D03*
D12*
X223520000Y-99060000D03*
X223520000Y-101600000D03*
X223520000Y-104140000D03*
X223520000Y-106680000D03*
X223520000Y-109220000D03*
D10*
X208280000Y-43180000D03*
X213360000Y-50800000D03*
X182880000Y-99060000D03*
D12*
X180340000Y-93980000D03*
D10*
X218440000Y-55880000D03*
X182880000Y-101600000D03*
X187960000Y-58420000D03*
X213360000Y-76200000D03*
X213360000Y-45720000D03*
X187960000Y-88900000D03*
X182880000Y-104140000D03*
D12*
X180340000Y-53340000D03*
D10*
X205740000Y-78740000D03*
X180340000Y-66040000D03*
X205740000Y-81280000D03*
X208280000Y-50800000D03*
X185420000Y-104140000D03*
X210820000Y-83820000D03*
X215900000Y-78740000D03*
X220980000Y-45720000D03*
D12*
X177800000Y-53340000D03*
D10*
X175260000Y-63500000D03*
X182880000Y-45720000D03*
X180340000Y-81280000D03*
X193040000Y-45720000D03*
X213360000Y-73660000D03*
D12*
X187960000Y-53340000D03*
D10*
X180340000Y-86360000D03*
X180340000Y-50800000D03*
X215900000Y-63500000D03*
X185420000Y-43180000D03*
D12*
X182880000Y-93980000D03*
D10*
X177800000Y-60960000D03*
D12*
X213360000Y-53340000D03*
D10*
X177800000Y-83820000D03*
D12*
X190500000Y-93980000D03*
D10*
X215900000Y-50800000D03*
D12*
X215900000Y-53340000D03*
D10*
X182880000Y-109220000D03*
X187960000Y-96520000D03*
X182880000Y-48260000D03*
X220980000Y-63500000D03*
X175260000Y-58420000D03*
X190500000Y-55880000D03*
X187960000Y-68580000D03*
X218440000Y-58420000D03*
X187960000Y-99060000D03*
X175260000Y-106680000D03*
D12*
X177800000Y-93980000D03*
D10*
X193040000Y-96520000D03*
X190500000Y-96520000D03*
X187960000Y-101600000D03*
X180340000Y-45720000D03*
X180340000Y-60960000D03*
X220980000Y-50800000D03*
X213360000Y-55880000D03*
X180340000Y-43180000D03*
X190500000Y-48260000D03*
D12*
X175300000Y-93980000D03*
D10*
X205740000Y-73660000D03*
X180340000Y-101600000D03*
X218440000Y-78740000D03*
X213360000Y-58420000D03*
X193040000Y-101600000D03*
X205740000Y-58420000D03*
X218440000Y-99060000D03*
X218440000Y-101600000D03*
X218440000Y-104140000D03*
X218440000Y-106680000D03*
X218440000Y-109220000D03*
X177800000Y-71120000D03*
X220980000Y-71120000D03*
X185420000Y-63500000D03*
X187960000Y-78740000D03*
D12*
X190500000Y-53340000D03*
D10*
X210820000Y-71120000D03*
X185420000Y-78740000D03*
X210820000Y-76200000D03*
X193040000Y-48260000D03*
X185420000Y-76200000D03*
D12*
X175260000Y-53340000D03*
D10*
X185420000Y-48260000D03*
X205740000Y-48260000D03*
X180340000Y-68580000D03*
X187960000Y-73660000D03*
X175260000Y-66040000D03*
X182880000Y-66040000D03*
X187960000Y-48260000D03*
X187960000Y-63500000D03*
X177800000Y-96520000D03*
X205740000Y-71120000D03*
X182880000Y-63500000D03*
X218440000Y-50800000D03*
X213360000Y-78740000D03*
X180340000Y-106680000D03*
X205740000Y-45720000D03*
X190500000Y-78740000D03*
X213360000Y-60960000D03*
X177800000Y-106680000D03*
X190500000Y-66040000D03*
X205740000Y-60960000D03*
X190500000Y-109220000D03*
X182880000Y-58420000D03*
D12*
X143256000Y-96012000D03*
D10*
X145796000Y-96012000D03*
X148336000Y-96012000D03*
X193040000Y-104140000D03*
X175260000Y-45720000D03*
X175260000Y-78740000D03*
X180340000Y-40640000D03*
X185420000Y-45720000D03*
X228600000Y-96520000D03*
D12*
X228600000Y-93980000D03*
D10*
X185420000Y-106680000D03*
X175260000Y-109220000D03*
X215900000Y-71120000D03*
X175260000Y-71120000D03*
X215900000Y-81280000D03*
X182880000Y-55880000D03*
X208280000Y-78740000D03*
X218440000Y-76200000D03*
X182880000Y-96520000D03*
X177800000Y-101600000D03*
X177800000Y-40640000D03*
D12*
X185420000Y-53340000D03*
D10*
X185420000Y-66040000D03*
X182880000Y-76200000D03*
X193040000Y-50800000D03*
D12*
X187960000Y-93980000D03*
D10*
X223520000Y-48260000D03*
X210820000Y-55880000D03*
X213360000Y-43180000D03*
D12*
X185420000Y-93980000D03*
D10*
X182880000Y-40640000D03*
X210820000Y-58420000D03*
X213360000Y-83820000D03*
X210820000Y-60960000D03*
X177800000Y-109220000D03*
X185420000Y-40640000D03*
X185420000Y-55880000D03*
X215900000Y-48260000D03*
D12*
X208280000Y-53340000D03*
D10*
X185420000Y-68580000D03*
D12*
X172720000Y-93980000D03*
D10*
X172720000Y-96520000D03*
X172720000Y-99060000D03*
X172720000Y-101600000D03*
X172720000Y-104140000D03*
X172720000Y-106680000D03*
X172720000Y-109220000D03*
X187960000Y-76200000D03*
X205740000Y-66040000D03*
X213360000Y-86360000D03*
X190500000Y-73660000D03*
X210820000Y-73660000D03*
X210820000Y-78740000D03*
X218440000Y-45720000D03*
X205740000Y-76200000D03*
X185420000Y-71120000D03*
D11*
X167640000Y-88900000D03*
D10*
X167640000Y-86360000D03*
D12*
X167640000Y-83820000D03*
D10*
X167640000Y-81280000D03*
X167640000Y-78740000D03*
X167640000Y-76200000D03*
X167640000Y-73660000D03*
D12*
X167640000Y-71120000D03*
D10*
X167640000Y-68580000D03*
X167640000Y-66040000D03*
X167640000Y-63500000D03*
X167640000Y-60960000D03*
D12*
X167640000Y-58420000D03*
D10*
X167640000Y-55880000D03*
X167640000Y-53340000D03*
X167640000Y-50800000D03*
X167640000Y-48260000D03*
D12*
X167640000Y-45720000D03*
D10*
X167640000Y-43180000D03*
X167640000Y-40640000D03*
X208280000Y-68580000D03*
X190500000Y-50800000D03*
X175260000Y-81280000D03*
X177800000Y-88900000D03*
X175260000Y-68580000D03*
X177800000Y-66040000D03*
X203200000Y-45720000D03*
X203200000Y-48260000D03*
X203200000Y-50800000D03*
D12*
X203200000Y-53340000D03*
D10*
X203200000Y-55880000D03*
X203200000Y-58420000D03*
X203200000Y-60960000D03*
X203200000Y-63500000D03*
X203200000Y-66040000D03*
X203200000Y-68580000D03*
X203200000Y-71120000D03*
X203200000Y-73660000D03*
X203200000Y-76200000D03*
X203200000Y-78740000D03*
X203200000Y-81280000D03*
X203174600Y-83820000D03*
X223520000Y-83820000D03*
X223520000Y-81280000D03*
X223520000Y-78740000D03*
X223520000Y-76200000D03*
X223520000Y-73660000D03*
X223520000Y-71120000D03*
X223520000Y-68580000D03*
X223520000Y-66040000D03*
X223520000Y-63500000D03*
X223520000Y-60960000D03*
X223520000Y-58420000D03*
X223520000Y-55880000D03*
D13*
X204452200Y-41892200D03*
X222252200Y-41892200D03*
D10*
X218440000Y-88900000D03*
D12*
X210820000Y-53340000D03*
D10*
X175260000Y-101600000D03*
X180340000Y-71120000D03*
D11*
X228600000Y-83820000D03*
D10*
X228600000Y-81280000D03*
X228600000Y-78740000D03*
X228600000Y-76200000D03*
X228600000Y-73660000D03*
X228600000Y-71120000D03*
X228600000Y-68580000D03*
X228600000Y-66040000D03*
X228600000Y-63500000D03*
X228600000Y-60960000D03*
X228600000Y-58420000D03*
X228600000Y-55880000D03*
X177800000Y-58420000D03*
X190500000Y-45720000D03*
X213360000Y-66040000D03*
X220980000Y-81280000D03*
X187960000Y-71120000D03*
X208280000Y-40640000D03*
X175260000Y-48260000D03*
X220980000Y-60960000D03*
X215900000Y-66040000D03*
X220980000Y-76200000D03*
X210820000Y-81280000D03*
X185420000Y-96520000D03*
X213360000Y-48260000D03*
X180340000Y-58420000D03*
X177800000Y-86360000D03*
X213360000Y-63500000D03*
X210820000Y-50800000D03*
X205740000Y-50800000D03*
X182880000Y-68580000D03*
X215900000Y-83820000D03*
X182880000Y-78740000D03*
X220980000Y-83820000D03*
X180340000Y-78740000D03*
X190500000Y-99060000D03*
X193040000Y-106680000D03*
X190500000Y-76200000D03*
X190500000Y-104140000D03*
X208280000Y-45720000D03*
D12*
X193040000Y-53340000D03*
D10*
X175260000Y-99060000D03*
X215900000Y-58420000D03*
X218440000Y-63500000D03*
X185420000Y-60960000D03*
D12*
X193040000Y-93980000D03*
D10*
X175260000Y-76200000D03*
X177800000Y-55880000D03*
X185420000Y-109220000D03*
X215900000Y-86360000D03*
X218440000Y-68580000D03*
X215900000Y-45720000D03*
X215900000Y-88900000D03*
D12*
X220980000Y-53340000D03*
D10*
X185420000Y-99060000D03*
X210820000Y-88900000D03*
X185420000Y-58420000D03*
X177800000Y-99060000D03*
X215900000Y-73660000D03*
D12*
X215900000Y-99060000D03*
X215900000Y-101600000D03*
X215900000Y-104140000D03*
X215900000Y-106680000D03*
X215900000Y-109220000D03*
D10*
X177800000Y-78740000D03*
X187960000Y-83820000D03*
X208280000Y-48260000D03*
D12*
X182880000Y-53340000D03*
D10*
X180340000Y-55880000D03*
X208280000Y-58420000D03*
X177800000Y-43180000D03*
X180340000Y-83820000D03*
X205740000Y-68580000D03*
X175260000Y-83820000D03*
X193040000Y-99060000D03*
X210820000Y-40640000D03*
X175260000Y-60960000D03*
X190500000Y-81280000D03*
X208280000Y-73660000D03*
X215900000Y-43180000D03*
X187960000Y-60960000D03*
X220980000Y-58420000D03*
X144780000Y-40640000D03*
X144780000Y-43180000D03*
D12*
X144780000Y-45720000D03*
D10*
X144780000Y-48260000D03*
X144780000Y-50800000D03*
X144780000Y-53340000D03*
X144780000Y-55880000D03*
D12*
X144780000Y-58420000D03*
D10*
X144780000Y-60960000D03*
X144780000Y-63500000D03*
X144780000Y-66040000D03*
X144780000Y-68580000D03*
D12*
X144780000Y-71120000D03*
D10*
X144780000Y-73660000D03*
X144780000Y-76200000D03*
X144780000Y-78740000D03*
X144780000Y-81280000D03*
D12*
X144780000Y-83820000D03*
D10*
X144780000Y-86360000D03*
X144780000Y-88900000D03*
X162560000Y-88900000D03*
X162560000Y-86360000D03*
D12*
X162560000Y-83820000D03*
D10*
X162560000Y-81280000D03*
X162560000Y-78740000D03*
X162560000Y-76200000D03*
X162560000Y-73660000D03*
D12*
X162560000Y-71120000D03*
D10*
X162560000Y-68580000D03*
X162560000Y-66040000D03*
X162560000Y-63500000D03*
X162560000Y-60960000D03*
D12*
X162560000Y-58420000D03*
D10*
X162560000Y-55880000D03*
X162560000Y-53340000D03*
X162560000Y-50800000D03*
X162560000Y-48260000D03*
D12*
X162560000Y-45720000D03*
D10*
X162560000Y-43180000D03*
X162560000Y-40640000D03*
X151130000Y-88670000D03*
D12*
X153670000Y-88670000D03*
D10*
X156210000Y-88670000D03*
X220980000Y-48260000D03*
X215900000Y-55880000D03*
X180340000Y-99060000D03*
X182880000Y-43180000D03*
X182880000Y-106680000D03*
X182880000Y-71120000D03*
X190500000Y-68580000D03*
X190500000Y-71120000D03*
X185420000Y-88900000D03*
X177800000Y-73660000D03*
X182880000Y-60960000D03*
X185420000Y-101600000D03*
X180340000Y-88900000D03*
D12*
X205740000Y-53340000D03*
D14*
X222250000Y-94742000D03*
X223550000Y-94742000D03*
X200600000Y-98044000D03*
X201900000Y-98044000D03*
X203200000Y-98044000D03*
X203200000Y-92837000D03*
X201900000Y-92837000D03*
X200600000Y-92837000D03*
D15*
X155702000Y-74676000D03*
X157891747Y-79848859D03*
X156500000Y-92500000D03*
X154500000Y-96969000D03*
X136500000Y-45000000D03*
D16*
X169609500Y-48625411D03*
D15*
X169759500Y-50800000D03*
D16*
X159000000Y-51000000D03*
X195580000Y-52832000D03*
X153500000Y-56704500D03*
X148082000Y-72390000D03*
X157988000Y-73406000D03*
X153670000Y-74422000D03*
X146812000Y-49530000D03*
X168000000Y-105500000D03*
X137541000Y-106172000D03*
X168000000Y-108000000D03*
X170180000Y-69850000D03*
D17*
X202438000Y-101854000D03*
D16*
X207391000Y-99060000D03*
D15*
X154500000Y-99000000D03*
D16*
X201930000Y-109220000D03*
X154305000Y-93218000D03*
X153670000Y-84328000D03*
X148082000Y-59690000D03*
X168000000Y-100000000D03*
X198000000Y-41500000D03*
X168000000Y-103000000D03*
D15*
X169814194Y-59639694D03*
X170500000Y-58500000D03*
X155831330Y-85680330D03*
X156083000Y-86868000D03*
X153500000Y-67000000D03*
X155500000Y-69500000D03*
X187561500Y-92438500D03*
X187048206Y-91544206D03*
X184808812Y-90193812D03*
D17*
X137541000Y-69850000D03*
D15*
X183642000Y-91186000D03*
X147828000Y-79502000D03*
X166169105Y-92876500D03*
X168479193Y-92062696D03*
X146812000Y-80010000D03*
X164338000Y-92202000D03*
X168402000Y-91186000D03*
X171196000Y-84328000D03*
X173736000Y-79756000D03*
X170688000Y-57404000D03*
X165735000Y-93980000D03*
X166125577Y-94677605D03*
X169672000Y-83058000D03*
X166116000Y-96012000D03*
X169164000Y-98298000D03*
X170434000Y-88900000D03*
X170180000Y-77470000D03*
X159258000Y-80772000D03*
X157480000Y-76200000D03*
X159385000Y-93472000D03*
X161036000Y-93218000D03*
X160274000Y-93503608D03*
X158531657Y-80328149D03*
X156591000Y-74676000D03*
X158242000Y-93503608D03*
D16*
X202819000Y-95123000D03*
D17*
X201549000Y-99949000D03*
D18*
X156500000Y-94969000D02*
X154500000Y-96969000D01*
X155702000Y-77659112D02*
X155702000Y-74676000D01*
X157891747Y-79848859D02*
X155702000Y-77659112D01*
X156500000Y-92500000D02*
X156500000Y-94969000D01*
D19*
X223520000Y-48260000D02*
X225806000Y-50546000D01*
X200600000Y-92037000D02*
X200600000Y-92837000D01*
D18*
X162560000Y-50800000D02*
X157260000Y-45500000D01*
X149500000Y-45500000D02*
X148495000Y-44495000D01*
D19*
X172720000Y-48260000D02*
X169974911Y-48260000D01*
X225806000Y-89154000D02*
X224155000Y-90805000D01*
D18*
X148495000Y-44495000D02*
X137005000Y-44495000D01*
D19*
X224155000Y-90805000D02*
X201832000Y-90805000D01*
X225806000Y-50546000D02*
X225806000Y-89154000D01*
X201832000Y-90805000D02*
X200600000Y-92037000D01*
X200600000Y-92837000D02*
X200600000Y-98044000D01*
D18*
X137005000Y-44495000D02*
X136500000Y-45000000D01*
D19*
X169974911Y-48260000D02*
X169609500Y-48625411D01*
D18*
X157260000Y-45500000D02*
X149500000Y-45500000D01*
X172720000Y-50800000D02*
X169759500Y-50800000D01*
X193621214Y-39189214D02*
X171704000Y-39189214D01*
X170614786Y-39189214D02*
X170180000Y-39624000D01*
X171704000Y-39189214D02*
X170614786Y-39189214D01*
X202794800Y-39267200D02*
X202438000Y-39624000D01*
X223339511Y-39267200D02*
X202794800Y-39267200D01*
X223442311Y-39370000D02*
X223339511Y-39267200D01*
X224282000Y-39370000D02*
X223442311Y-39370000D01*
X193802000Y-39370000D02*
X193621214Y-39189214D01*
X171258112Y-55880000D02*
X169814194Y-57323918D01*
X172720000Y-55880000D02*
X171258112Y-55880000D01*
X169814194Y-57323918D02*
X169814194Y-59639694D01*
X172640000Y-58500000D02*
X172720000Y-58420000D01*
X170500000Y-58500000D02*
X172640000Y-58500000D01*
X169960000Y-60960000D02*
X172720000Y-60960000D01*
X169000000Y-56500000D02*
X169000000Y-60000000D01*
X169000000Y-60000000D02*
X169960000Y-60960000D01*
X168380000Y-55880000D02*
X169000000Y-56500000D01*
X167640000Y-55880000D02*
X168380000Y-55880000D01*
X171450000Y-62230000D02*
X172720000Y-63500000D01*
X167177588Y-62230000D02*
X171450000Y-62230000D01*
X164764000Y-54655000D02*
X166415000Y-56306000D01*
X166415000Y-56306000D02*
X166415000Y-61467412D01*
X146095000Y-54655000D02*
X164764000Y-54655000D01*
X144780000Y-53340000D02*
X146095000Y-54655000D01*
X166415000Y-61467412D02*
X167177588Y-62230000D01*
D19*
X144780000Y-53340000D02*
X139700000Y-53340000D01*
D18*
X162142588Y-57195000D02*
X163621000Y-57195000D01*
X165865499Y-63457911D02*
X167222588Y-64815000D01*
D19*
X144780000Y-55880000D02*
X139700000Y-55880000D01*
D18*
X171495000Y-64815000D02*
X172720000Y-66040000D01*
X167222588Y-64815000D02*
X171495000Y-64815000D01*
X144780000Y-55880000D02*
X160827588Y-55880000D01*
X163621000Y-57195000D02*
X165865499Y-59439499D01*
X165865499Y-59439499D02*
X165865499Y-63457911D01*
X160827588Y-55880000D02*
X162142588Y-57195000D01*
X167222588Y-67355000D02*
X171495000Y-67355000D01*
X171495000Y-67355000D02*
X172720000Y-68580000D01*
X148545000Y-64725000D02*
X164592588Y-64725000D01*
X164592588Y-64725000D02*
X167222588Y-67355000D01*
X144780000Y-60960000D02*
X148545000Y-64725000D01*
D19*
X144780000Y-60960000D02*
X139700000Y-60960000D01*
D18*
X145669000Y-85471000D02*
X155622000Y-85471000D01*
X155622000Y-85471000D02*
X155831330Y-85680330D01*
X144780000Y-86360000D02*
X145669000Y-85471000D01*
X144780000Y-88900000D02*
X146812000Y-86868000D01*
X146812000Y-86868000D02*
X156083000Y-86868000D01*
X161975000Y-74975000D02*
X161099002Y-74099002D01*
X171495000Y-74975000D02*
X161975000Y-74975000D01*
X158040000Y-66040000D02*
X144780000Y-66040000D01*
X172720000Y-76200000D02*
X171495000Y-74975000D01*
X161099002Y-69099002D02*
X158040000Y-66040000D01*
X161099002Y-74099002D02*
X161099002Y-69099002D01*
X169402888Y-78740000D02*
X172720000Y-78740000D01*
D19*
X144780000Y-43180000D02*
X139700000Y-43180000D01*
D18*
X162127588Y-77500000D02*
X168162888Y-77500000D01*
X153500000Y-67000000D02*
X154000000Y-67500000D01*
X160549501Y-75921913D02*
X162127588Y-77500000D01*
X168162888Y-77500000D02*
X169402888Y-78740000D01*
X154000000Y-67500000D02*
X158500000Y-67500000D01*
X158500000Y-67500000D02*
X160549501Y-69549501D01*
X160549501Y-69549501D02*
X160549501Y-75921913D01*
X159918000Y-77830412D02*
X159918000Y-72831191D01*
X171495000Y-80055000D02*
X162142588Y-80055000D01*
X159918000Y-72831191D02*
X156586809Y-69500000D01*
X156586809Y-69500000D02*
X155500000Y-69500000D01*
X162142588Y-80055000D02*
X159918000Y-77830412D01*
D19*
X144780000Y-40640000D02*
X139700000Y-40640000D01*
D18*
X172720000Y-81280000D02*
X171495000Y-80055000D01*
X162108613Y-87671501D02*
X168251613Y-87671501D01*
X171237501Y-89050387D02*
X171237501Y-85277099D01*
X170154612Y-89574500D02*
X170713388Y-89574500D01*
X144780000Y-78740000D02*
X153177112Y-78740000D01*
X168251613Y-87671501D02*
X170154612Y-89574500D01*
X171237501Y-85277099D02*
X172694600Y-83820000D01*
X153177112Y-78740000D02*
X162108613Y-87671501D01*
X170713388Y-89574500D02*
X171237501Y-89050387D01*
X194265000Y-85045000D02*
X219755000Y-85045000D01*
X189992000Y-90008000D02*
X189992000Y-85598000D01*
X190500000Y-85090000D02*
X190500000Y-83820000D01*
X219755000Y-85045000D02*
X220980000Y-83820000D01*
D19*
X144780000Y-48260000D02*
X139700000Y-48260000D01*
D18*
X187561500Y-92438500D02*
X189992000Y-90008000D01*
X189992000Y-85598000D02*
X190500000Y-85090000D01*
X193040000Y-83820000D02*
X194265000Y-85045000D01*
D19*
X144780000Y-50800000D02*
X139700000Y-50800000D01*
D18*
X187048206Y-91544206D02*
X189275000Y-89317412D01*
X219755000Y-82505000D02*
X220980000Y-81280000D01*
X189275000Y-89317412D02*
X189275000Y-82505000D01*
X189275000Y-82505000D02*
X190500000Y-81280000D01*
X193040000Y-81280000D02*
X194265000Y-82505000D01*
X194265000Y-82505000D02*
X219755000Y-82505000D01*
X194265000Y-79965000D02*
X219755000Y-79965000D01*
X189230000Y-80010000D02*
X187497588Y-80010000D01*
X219755000Y-79965000D02*
X220980000Y-78740000D01*
X137541000Y-65659000D02*
X137541000Y-69850000D01*
X193040000Y-78740000D02*
X194265000Y-79965000D01*
X186735000Y-80772588D02*
X186735000Y-89317412D01*
X139700000Y-63500000D02*
X137541000Y-65659000D01*
X185927412Y-90125000D02*
X184877624Y-90125000D01*
X186735000Y-89317412D02*
X185927412Y-90125000D01*
X184877624Y-90125000D02*
X184808812Y-90193812D01*
X187497588Y-80010000D02*
X186735000Y-80772588D01*
X190500000Y-78740000D02*
X189230000Y-80010000D01*
X186227000Y-79965000D02*
X186735000Y-79457000D01*
X184105000Y-90723000D02*
X184105000Y-80862588D01*
X219755000Y-77425000D02*
X220980000Y-76200000D01*
X186735000Y-78232588D02*
X187497588Y-77470000D01*
X194265000Y-77425000D02*
X219755000Y-77425000D01*
X186735000Y-79457000D02*
X186735000Y-78232588D01*
X184105000Y-80862588D02*
X185002588Y-79965000D01*
X189230000Y-77470000D02*
X190500000Y-76200000D01*
X187497588Y-77470000D02*
X189230000Y-77470000D01*
X193040000Y-76200000D02*
X194265000Y-77425000D01*
X183642000Y-91186000D02*
X184105000Y-90723000D01*
X185002588Y-79965000D02*
X186227000Y-79965000D01*
X184957588Y-77470000D02*
X185882412Y-77470000D01*
X152400000Y-79502000D02*
X160020000Y-87122000D01*
X160020000Y-87122000D02*
X160020000Y-88092412D01*
X182462588Y-79965000D02*
X183387412Y-79965000D01*
X193040000Y-73660000D02*
X194265000Y-74885000D01*
X219755000Y-74885000D02*
X220980000Y-73660000D01*
X194265000Y-74885000D02*
X219755000Y-74885000D01*
X160020000Y-88092412D02*
X162605588Y-90678000D01*
X181655000Y-91857412D02*
X181655000Y-80772588D01*
X186735000Y-76617412D02*
X186735000Y-75692588D01*
X185882412Y-77470000D02*
X186735000Y-76617412D01*
X167685000Y-92755000D02*
X180757412Y-92755000D01*
X162605588Y-90678000D02*
X165608000Y-90678000D01*
X187452588Y-74975000D02*
X189185000Y-74975000D01*
X189185000Y-74975000D02*
X190500000Y-73660000D01*
X184150000Y-79202412D02*
X184150000Y-78277588D01*
X147828000Y-79502000D02*
X152400000Y-79502000D01*
X183387412Y-79965000D02*
X184150000Y-79202412D01*
X184150000Y-78277588D02*
X184957588Y-77470000D01*
X165608000Y-90678000D02*
X167685000Y-92755000D01*
X181655000Y-80772588D02*
X182462588Y-79965000D01*
X186735000Y-75692588D02*
X187452588Y-74975000D01*
X180757412Y-92755000D02*
X181655000Y-91857412D01*
X186735000Y-73152588D02*
X186735000Y-74077412D01*
X164520106Y-91227501D02*
X166169105Y-92876500D01*
X190500000Y-71120000D02*
X189230000Y-72390000D01*
X181610000Y-79202412D02*
X180847412Y-79965000D01*
X159258000Y-87330412D02*
X159258000Y-88107524D01*
X184195000Y-76617412D02*
X183387412Y-77425000D01*
X187497588Y-72390000D02*
X186735000Y-73152588D01*
X179877588Y-79965000D02*
X179070000Y-80772588D01*
X185882412Y-74930000D02*
X184957588Y-74930000D01*
X180847412Y-79965000D02*
X179877588Y-79965000D01*
X183387412Y-77425000D02*
X182417588Y-77425000D01*
X181610000Y-78232588D02*
X181610000Y-79202412D01*
X159258000Y-88107524D02*
X162377977Y-91227501D01*
X186735000Y-74077412D02*
X185882412Y-74930000D01*
X176415304Y-92062696D02*
X168479193Y-92062696D01*
X162377977Y-91227501D02*
X164520106Y-91227501D01*
X184957588Y-74930000D02*
X184195000Y-75692588D01*
X146812000Y-80010000D02*
X147320000Y-80518000D01*
X193040000Y-71120000D02*
X194265000Y-72345000D01*
X152445588Y-80518000D02*
X159258000Y-87330412D01*
X179070000Y-89408000D02*
X176415304Y-92062696D01*
X189230000Y-72390000D02*
X187497588Y-72390000D01*
X184195000Y-75692588D02*
X184195000Y-76617412D01*
X194265000Y-72345000D02*
X219755000Y-72345000D01*
X147320000Y-80518000D02*
X152445588Y-80518000D01*
X182417588Y-77425000D02*
X181610000Y-78232588D01*
X219755000Y-72345000D02*
X220980000Y-71120000D01*
X179070000Y-80772588D02*
X179070000Y-89408000D01*
X187542588Y-69805000D02*
X189275000Y-69805000D01*
X144780000Y-81280000D02*
X152384888Y-81280000D01*
X186735000Y-70612588D02*
X187542588Y-69805000D01*
X158708499Y-91159611D02*
X159325890Y-91777002D01*
X158708499Y-87603611D02*
X158708499Y-91159611D01*
X183432412Y-74930000D02*
X184195000Y-74167412D01*
X159325890Y-91777002D02*
X163659002Y-91777002D01*
X194265000Y-69805000D02*
X219755000Y-69805000D01*
X185973000Y-72345000D02*
X186735000Y-71583000D01*
X184195000Y-74167412D02*
X184195000Y-73152588D01*
X168402000Y-91186000D02*
X175514000Y-91186000D01*
X178307412Y-79965000D02*
X179115000Y-79157412D01*
X181655000Y-76662412D02*
X181655000Y-75692588D01*
X193040000Y-68580000D02*
X194265000Y-69805000D01*
X189275000Y-69805000D02*
X190500000Y-68580000D01*
X175514000Y-91186000D02*
X176530000Y-90170000D01*
X176530000Y-90170000D02*
X176530000Y-80817588D01*
X176530000Y-80817588D02*
X177382588Y-79965000D01*
X163659002Y-91777002D02*
X164125501Y-92243501D01*
X182417588Y-74930000D02*
X183432412Y-74930000D01*
X164167002Y-92202000D02*
X164338000Y-92202000D01*
X185002588Y-72345000D02*
X185973000Y-72345000D01*
X184195000Y-73152588D02*
X185002588Y-72345000D01*
X179115000Y-79157412D02*
X179115000Y-78232588D01*
X177382588Y-79965000D02*
X178307412Y-79965000D01*
X152384888Y-81280000D02*
X158708499Y-87603611D01*
X164125501Y-92243501D02*
X164167002Y-92202000D01*
X181655000Y-75692588D02*
X182417588Y-74930000D01*
X186735000Y-71583000D02*
X186735000Y-70612588D01*
X179877588Y-77470000D02*
X180847412Y-77470000D01*
X179115000Y-78232588D02*
X179877588Y-77470000D01*
X219755000Y-69805000D02*
X220980000Y-68580000D01*
X180847412Y-77470000D02*
X181655000Y-76662412D01*
X184150000Y-71582412D02*
X184150000Y-70657588D01*
X176575000Y-78142588D02*
X177292588Y-77425000D01*
X185927412Y-69805000D02*
X186735000Y-68997412D01*
X180847412Y-74885000D02*
X181610000Y-74122412D01*
X219755000Y-67265000D02*
X220980000Y-66040000D01*
X179115000Y-76617412D02*
X179115000Y-75602588D01*
X174842588Y-79965000D02*
X176067000Y-79965000D01*
X171196000Y-84328000D02*
X171196000Y-83586188D01*
X181610000Y-74122412D02*
X181610000Y-73197588D01*
X174035000Y-80772588D02*
X174842588Y-79965000D01*
X186735000Y-68072588D02*
X187542588Y-67265000D01*
X187542588Y-67265000D02*
X189275000Y-67265000D01*
X171196000Y-83586188D02*
X172277188Y-82505000D01*
X183342412Y-72390000D02*
X184150000Y-71582412D01*
X176067000Y-79965000D02*
X176575000Y-79457000D01*
X189275000Y-67265000D02*
X190500000Y-66040000D01*
X186735000Y-68997412D02*
X186735000Y-68072588D01*
X174035000Y-82251000D02*
X174035000Y-80772588D01*
X184150000Y-70657588D02*
X185002588Y-69805000D01*
X173781000Y-82505000D02*
X174035000Y-82251000D01*
X179832588Y-74885000D02*
X180847412Y-74885000D01*
X182417588Y-72390000D02*
X183342412Y-72390000D01*
X194265000Y-67265000D02*
X219755000Y-67265000D01*
X172277188Y-82505000D02*
X173781000Y-82505000D01*
X176575000Y-79457000D02*
X176575000Y-78142588D01*
X177292588Y-77425000D02*
X178307412Y-77425000D01*
X179115000Y-75602588D02*
X179832588Y-74885000D01*
X193040000Y-66040000D02*
X194265000Y-67265000D01*
X181610000Y-73197588D02*
X182417588Y-72390000D01*
X185002588Y-69805000D02*
X185927412Y-69805000D01*
X178307412Y-77425000D02*
X179115000Y-76617412D01*
X181655000Y-70567000D02*
X182417000Y-69805000D01*
X189275000Y-64725000D02*
X190500000Y-63500000D01*
X182417000Y-69805000D02*
X183387412Y-69805000D01*
X176575000Y-75692588D02*
X177382588Y-74885000D01*
X177382588Y-74885000D02*
X178397412Y-74885000D01*
X183387412Y-69805000D02*
X184195000Y-68997412D01*
X186690000Y-66502412D02*
X186690000Y-65577588D01*
X185927412Y-67265000D02*
X186690000Y-66502412D01*
X179922588Y-72345000D02*
X180847412Y-72345000D01*
X176275412Y-77425000D02*
X176575000Y-77125412D01*
X179115000Y-73152588D02*
X179922588Y-72345000D01*
X194265000Y-64725000D02*
X219755000Y-64725000D01*
X174842588Y-77425000D02*
X176275412Y-77425000D01*
X180847412Y-72345000D02*
X181655000Y-71537412D01*
X176575000Y-77125412D02*
X176575000Y-75692588D01*
X186690000Y-65577588D02*
X187542588Y-64725000D01*
X174035000Y-79457000D02*
X174035000Y-78232588D01*
X184195000Y-68997412D02*
X184195000Y-67982588D01*
X219755000Y-64725000D02*
X220980000Y-63500000D01*
X193040000Y-63500000D02*
X194265000Y-64725000D01*
X181655000Y-71537412D02*
X181655000Y-70567000D01*
X173736000Y-79756000D02*
X174035000Y-79457000D01*
X174035000Y-78232588D02*
X174842588Y-77425000D01*
X187542588Y-64725000D02*
X189275000Y-64725000D01*
X179115000Y-74167412D02*
X179115000Y-73152588D01*
X184195000Y-67982588D02*
X184912588Y-67265000D01*
X184912588Y-67265000D02*
X185927412Y-67265000D01*
X178397412Y-74885000D02*
X179115000Y-74167412D01*
X186481000Y-57195000D02*
X186735000Y-57449000D01*
D19*
X226455501Y-63104499D02*
X226455501Y-89423032D01*
X222250000Y-93628533D02*
X222250000Y-94742000D01*
X228600000Y-60960000D02*
X226455501Y-63104499D01*
D18*
X170688000Y-57404000D02*
X170897000Y-57195000D01*
X186735000Y-57449000D02*
X186735000Y-58927412D01*
D19*
X226455501Y-89423032D02*
X222250000Y-93628533D01*
D18*
X194265000Y-62185000D02*
X219755000Y-62185000D01*
D19*
X222250000Y-94742000D02*
X220345000Y-92837000D01*
X220345000Y-92837000D02*
X203200000Y-92837000D01*
D18*
X187497588Y-59690000D02*
X189230000Y-59690000D01*
X189230000Y-59690000D02*
X190500000Y-60960000D01*
X193040000Y-60960000D02*
X194265000Y-62185000D01*
X219755000Y-62185000D02*
X220980000Y-60960000D01*
X186735000Y-58927412D02*
X187497588Y-59690000D01*
X170897000Y-57195000D02*
X186481000Y-57195000D01*
X219755000Y-59645000D02*
X220980000Y-58420000D01*
X169085000Y-49705000D02*
X169085000Y-52155000D01*
X169085000Y-52155000D02*
X171495000Y-54565000D01*
X171495000Y-54565000D02*
X188377412Y-54565000D01*
X189275000Y-57195000D02*
X190500000Y-58420000D01*
X194265000Y-59645000D02*
X219755000Y-59645000D01*
X189275000Y-55462588D02*
X189275000Y-57195000D01*
X188377412Y-54565000D02*
X189275000Y-55462588D01*
X193040000Y-58420000D02*
X194265000Y-59645000D01*
X167640000Y-48260000D02*
X169085000Y-49705000D01*
X193040000Y-55880000D02*
X194265000Y-57105000D01*
X219755000Y-57105000D02*
X220980000Y-55880000D01*
X194265000Y-57105000D02*
X219755000Y-57105000D01*
X172720000Y-93980000D02*
X165735000Y-93980000D01*
X172720000Y-96520000D02*
X170877605Y-94677605D01*
X170877605Y-94677605D02*
X166125577Y-94677605D01*
X169672000Y-88138000D02*
X170434000Y-88900000D01*
X169672000Y-83058000D02*
X169672000Y-88138000D01*
X168910000Y-76200000D02*
X170180000Y-77470000D01*
X168402000Y-98298000D02*
X169164000Y-98298000D01*
X167640000Y-76200000D02*
X168910000Y-76200000D01*
X166116000Y-96012000D02*
X168402000Y-98298000D01*
X161925000Y-106680000D02*
X172720000Y-106680000D01*
X157480000Y-76200000D02*
X157480000Y-77470000D01*
X157480000Y-77470000D02*
X159258000Y-79248000D01*
X159258000Y-79248000D02*
X159258000Y-80772000D01*
X159385000Y-93472000D02*
X159385000Y-104140000D01*
X159385000Y-104140000D02*
X161925000Y-106680000D01*
X172720000Y-99060000D02*
X166878000Y-99060000D01*
X166878000Y-99060000D02*
X161036000Y-93218000D01*
X168370392Y-101600000D02*
X160274000Y-93503608D01*
X172720000Y-101600000D02*
X168370392Y-101600000D01*
X158531657Y-80328149D02*
X158566247Y-80293559D01*
X158242000Y-107442000D02*
X158242000Y-93503608D01*
X160020000Y-109220000D02*
X158242000Y-107442000D01*
X172720000Y-109220000D02*
X160020000Y-109220000D01*
X156591000Y-77470000D02*
X156591000Y-74676000D01*
X158566247Y-79445247D02*
X156591000Y-77470000D01*
X158566247Y-80293559D02*
X158566247Y-79445247D01*
D20*
X151130000Y-88670000D02*
X143788000Y-96012000D01*
X143788000Y-96012000D02*
X143256000Y-96012000D01*
X148868000Y-96012000D02*
X148336000Y-96012000D01*
X156210000Y-88670000D02*
X148868000Y-96012000D01*
D19*
X201900000Y-94204000D02*
X201900000Y-92837000D01*
X202819000Y-95123000D02*
X201900000Y-94204000D01*
D21*
X220980000Y-99060000D02*
X220980000Y-101600000D01*
X220980000Y-104140000D02*
X220980000Y-106680000D01*
X220980000Y-101600000D02*
X220980000Y-104140000D01*
X220980000Y-106680000D02*
X220980000Y-109220000D01*
X223550000Y-94742000D02*
X225328000Y-96520000D01*
X220980000Y-98500000D02*
X223550000Y-95930000D01*
X220980000Y-99060000D02*
X220980000Y-98500000D01*
X223550000Y-95930000D02*
X223550000Y-94742000D01*
X225328000Y-96520000D02*
X228600000Y-96520000D01*
D20*
X201900000Y-99598000D02*
X201549000Y-99949000D01*
X201900000Y-98044000D02*
X201900000Y-99598000D01*
G04 #@! TA.AperFunction,Conductor*
G36*
X228996090Y-39209439D02*
G01*
X229036319Y-39236319D01*
X230463681Y-40663681D01*
X230490561Y-40703909D01*
X230500000Y-40751362D01*
X230500000Y-108948638D01*
X230490561Y-108996091D01*
X230463681Y-109036319D01*
X229036319Y-110463681D01*
X228996091Y-110490561D01*
X228948638Y-110500000D01*
X224920405Y-110500000D01*
X224855239Y-110481496D01*
X224809522Y-110431507D01*
X224796898Y-110364952D01*
X224810297Y-110329977D01*
X224807122Y-110328793D01*
X224863597Y-110177375D01*
X224870000Y-110117824D01*
X224870000Y-109470000D01*
X223394000Y-109470000D01*
X223332000Y-109453387D01*
X223286613Y-109408000D01*
X223270000Y-109346000D01*
X223270000Y-106930000D01*
X223770000Y-106930000D01*
X223770000Y-108970000D01*
X224870000Y-108970000D01*
X224870000Y-108322535D01*
X226661500Y-108322535D01*
X226696813Y-108534159D01*
X226700520Y-108556371D01*
X226777496Y-108780595D01*
X226890329Y-108989091D01*
X226890330Y-108989092D01*
X227035939Y-109176172D01*
X227091862Y-109227652D01*
X227210357Y-109336735D01*
X227408824Y-109466399D01*
X227625925Y-109561629D01*
X227855740Y-109619826D01*
X227926575Y-109625695D01*
X228032823Y-109634500D01*
X228032829Y-109634500D01*
X228151171Y-109634500D01*
X228151177Y-109634500D01*
X228247765Y-109626495D01*
X228328260Y-109619826D01*
X228558075Y-109561629D01*
X228775176Y-109466399D01*
X228973643Y-109336735D01*
X229148060Y-109176172D01*
X229293671Y-108989091D01*
X229406504Y-108780595D01*
X229483480Y-108556371D01*
X229522500Y-108322535D01*
X229522500Y-108085465D01*
X229483480Y-107851629D01*
X229406504Y-107627405D01*
X229293671Y-107418909D01*
X229211211Y-107312964D01*
X229148060Y-107231827D01*
X229052287Y-107143662D01*
X228973643Y-107071265D01*
X228775176Y-106941601D01*
X228558075Y-106846371D01*
X228328260Y-106788174D01*
X228328258Y-106788173D01*
X228328255Y-106788173D01*
X228151177Y-106773500D01*
X228151171Y-106773500D01*
X228032829Y-106773500D01*
X228032823Y-106773500D01*
X227855744Y-106788173D01*
X227625925Y-106846371D01*
X227408821Y-106941602D01*
X227210358Y-107071264D01*
X227035939Y-107231827D01*
X226890330Y-107418907D01*
X226890328Y-107418909D01*
X226890329Y-107418909D01*
X226784961Y-107613612D01*
X226777494Y-107627409D01*
X226700520Y-107851627D01*
X226661500Y-108085465D01*
X226661500Y-108322535D01*
X224870000Y-108322535D01*
X224870000Y-108322176D01*
X224863597Y-108262624D01*
X224813352Y-108127911D01*
X224735797Y-108024311D01*
X224713898Y-107976358D01*
X224713898Y-107923642D01*
X224735797Y-107875689D01*
X224813352Y-107772088D01*
X224863597Y-107637375D01*
X224870000Y-107577824D01*
X224870000Y-106930000D01*
X223770000Y-106930000D01*
X223270000Y-106930000D01*
X223270000Y-104390000D01*
X223770000Y-104390000D01*
X223770000Y-106430000D01*
X224870000Y-106430000D01*
X224870000Y-105782176D01*
X224863597Y-105722624D01*
X224813352Y-105587911D01*
X224735797Y-105484311D01*
X224713898Y-105436358D01*
X224713898Y-105383642D01*
X224735797Y-105335689D01*
X224813352Y-105232088D01*
X224863597Y-105097375D01*
X224870000Y-105037824D01*
X224870000Y-104390000D01*
X223770000Y-104390000D01*
X223270000Y-104390000D01*
X223270000Y-101850000D01*
X223770000Y-101850000D01*
X223770000Y-103890000D01*
X224870000Y-103890000D01*
X224870000Y-103242176D01*
X224863597Y-103182624D01*
X224813352Y-103047911D01*
X224735797Y-102944311D01*
X224713898Y-102896358D01*
X224713898Y-102843642D01*
X224735797Y-102795689D01*
X224813352Y-102692088D01*
X224863597Y-102557375D01*
X224870000Y-102497824D01*
X224870000Y-101850000D01*
X223770000Y-101850000D01*
X223270000Y-101850000D01*
X223270000Y-99310000D01*
X223770000Y-99310000D01*
X223770000Y-101350000D01*
X224870000Y-101350000D01*
X224870000Y-100702176D01*
X224863597Y-100642624D01*
X224813352Y-100507910D01*
X224735797Y-100404310D01*
X224713898Y-100356357D01*
X224713898Y-100303640D01*
X224735798Y-100255687D01*
X224813352Y-100152089D01*
X224863597Y-100017375D01*
X224870000Y-99957824D01*
X224870000Y-99310000D01*
X223770000Y-99310000D01*
X223270000Y-99310000D01*
X223270000Y-97710000D01*
X223770000Y-97710000D01*
X223770000Y-98810000D01*
X224870000Y-98810000D01*
X224870000Y-98162176D01*
X224863597Y-98102624D01*
X224813352Y-97967910D01*
X224727188Y-97852811D01*
X224612089Y-97766647D01*
X224477375Y-97716402D01*
X224417824Y-97710000D01*
X223770000Y-97710000D01*
X223270000Y-97710000D01*
X223270000Y-97676282D01*
X223279439Y-97628829D01*
X223306319Y-97588601D01*
X224056318Y-96838601D01*
X224111905Y-96806507D01*
X224176093Y-96806507D01*
X224231680Y-96838601D01*
X224610449Y-97217370D01*
X224612642Y-97219619D01*
X224637886Y-97246176D01*
X224672941Y-97283053D01*
X224721358Y-97316752D01*
X224728865Y-97322413D01*
X224774593Y-97359698D01*
X224789834Y-97367659D01*
X224801556Y-97373782D01*
X224814980Y-97381915D01*
X224839951Y-97399295D01*
X224894163Y-97422559D01*
X224902663Y-97426595D01*
X224954950Y-97453908D01*
X224954951Y-97453909D01*
X224984196Y-97462277D01*
X224998986Y-97467543D01*
X225006464Y-97470752D01*
X225026942Y-97479540D01*
X225084737Y-97491416D01*
X225093854Y-97493654D01*
X225150582Y-97509887D01*
X225180916Y-97512196D01*
X225196453Y-97514374D01*
X225226259Y-97520500D01*
X225285243Y-97520500D01*
X225294657Y-97520858D01*
X225353477Y-97525337D01*
X225383652Y-97521493D01*
X225399318Y-97520500D01*
X227639242Y-97520500D01*
X227686695Y-97529939D01*
X227726923Y-97556819D01*
X227728599Y-97558495D01*
X227922170Y-97694035D01*
X228136337Y-97793903D01*
X228364592Y-97855063D01*
X228600000Y-97875659D01*
X228835408Y-97855063D01*
X229063663Y-97793903D01*
X229277830Y-97694035D01*
X229471401Y-97558495D01*
X229638495Y-97391401D01*
X229774035Y-97197830D01*
X229873903Y-96983663D01*
X229935063Y-96755408D01*
X229955659Y-96520000D01*
X229935063Y-96284592D01*
X229873903Y-96056337D01*
X229774035Y-95842171D01*
X229638495Y-95648599D01*
X229516181Y-95526285D01*
X229484885Y-95473539D01*
X229482696Y-95412246D01*
X229510149Y-95357401D01*
X229560528Y-95322422D01*
X229692089Y-95273352D01*
X229807188Y-95187188D01*
X229893352Y-95072089D01*
X229943597Y-94937375D01*
X229950000Y-94877824D01*
X229950000Y-94230000D01*
X227250000Y-94230000D01*
X227250000Y-94877824D01*
X227256402Y-94937375D01*
X227306647Y-95072089D01*
X227392811Y-95187188D01*
X227507911Y-95273352D01*
X227523905Y-95279318D01*
X227578768Y-95319779D01*
X227603953Y-95383125D01*
X227591849Y-95450211D01*
X227546115Y-95500762D01*
X227480572Y-95519500D01*
X225793782Y-95519500D01*
X225746329Y-95510061D01*
X225706101Y-95483181D01*
X224586818Y-94363898D01*
X224559938Y-94323670D01*
X224550499Y-94276217D01*
X224550499Y-93944130D01*
X224549320Y-93933164D01*
X224544091Y-93884517D01*
X224493796Y-93749669D01*
X224479072Y-93730000D01*
X227250000Y-93730000D01*
X228350000Y-93730000D01*
X228350000Y-92630000D01*
X228850000Y-92630000D01*
X228850000Y-93730000D01*
X229950000Y-93730000D01*
X229950000Y-93082176D01*
X229943597Y-93022624D01*
X229893352Y-92887910D01*
X229807188Y-92772811D01*
X229692089Y-92686647D01*
X229557375Y-92636402D01*
X229497824Y-92630000D01*
X228850000Y-92630000D01*
X228350000Y-92630000D01*
X227702176Y-92630000D01*
X227642624Y-92636402D01*
X227507910Y-92686647D01*
X227392811Y-92772811D01*
X227306647Y-92887910D01*
X227256402Y-93022624D01*
X227250000Y-93082176D01*
X227250000Y-93730000D01*
X224479072Y-93730000D01*
X224407546Y-93634454D01*
X224292331Y-93548204D01*
X224157483Y-93497909D01*
X224097873Y-93491500D01*
X224097869Y-93491500D01*
X223712406Y-93491500D01*
X223656111Y-93477985D01*
X223612088Y-93440385D01*
X223589933Y-93386898D01*
X223594475Y-93329182D01*
X223624725Y-93279819D01*
X225269442Y-91635102D01*
X226924748Y-89979795D01*
X226938373Y-89968020D01*
X226956759Y-89954334D01*
X226987444Y-89917763D01*
X226994732Y-89909812D01*
X226998387Y-89906158D01*
X227016928Y-89882707D01*
X227019209Y-89879908D01*
X227029353Y-89867819D01*
X227065774Y-89824415D01*
X227065775Y-89824412D01*
X227066770Y-89823227D01*
X227076531Y-89807908D01*
X227107812Y-89740824D01*
X227109368Y-89737609D01*
X227141889Y-89672857D01*
X227141889Y-89672852D01*
X227142585Y-89671469D01*
X227148550Y-89654308D01*
X227148862Y-89652792D01*
X227148865Y-89652788D01*
X227163528Y-89581767D01*
X227164283Y-89578363D01*
X227181001Y-89507831D01*
X227181001Y-89507825D01*
X227181358Y-89506319D01*
X227183205Y-89488245D01*
X227183160Y-89486698D01*
X227183161Y-89486694D01*
X227181053Y-89414250D01*
X227181001Y-89410644D01*
X227181001Y-84531830D01*
X227198712Y-84467965D01*
X227246787Y-84422344D01*
X227311491Y-84408000D01*
X227374341Y-84429030D01*
X227417383Y-84479426D01*
X227425965Y-84497830D01*
X227561505Y-84691401D01*
X227728599Y-84858495D01*
X227922170Y-84994035D01*
X228136337Y-85093903D01*
X228364592Y-85155063D01*
X228600000Y-85175659D01*
X228835408Y-85155063D01*
X229063663Y-85093903D01*
X229277830Y-84994035D01*
X229471401Y-84858495D01*
X229638495Y-84691401D01*
X229774035Y-84497830D01*
X229873903Y-84283663D01*
X229935063Y-84055408D01*
X229955659Y-83820000D01*
X229935063Y-83584592D01*
X229873903Y-83356337D01*
X229774035Y-83142171D01*
X229638495Y-82948599D01*
X229471401Y-82781505D01*
X229285839Y-82651573D01*
X229246975Y-82607257D01*
X229232964Y-82550000D01*
X229246975Y-82492743D01*
X229285839Y-82448426D01*
X229471401Y-82318495D01*
X229638495Y-82151401D01*
X229774035Y-81957830D01*
X229873903Y-81743663D01*
X229935063Y-81515408D01*
X229955659Y-81280000D01*
X229935063Y-81044592D01*
X229873903Y-80816337D01*
X229774035Y-80602171D01*
X229638495Y-80408599D01*
X229471401Y-80241505D01*
X229285839Y-80111573D01*
X229246976Y-80067257D01*
X229232965Y-80010000D01*
X229246976Y-79952743D01*
X229285839Y-79908426D01*
X229471401Y-79778495D01*
X229638495Y-79611401D01*
X229774035Y-79417830D01*
X229873903Y-79203663D01*
X229935063Y-78975408D01*
X229955659Y-78740000D01*
X229935063Y-78504592D01*
X229873903Y-78276337D01*
X229774035Y-78062171D01*
X229638495Y-77868599D01*
X229471401Y-77701505D01*
X229285839Y-77571573D01*
X229246975Y-77527257D01*
X229232964Y-77470000D01*
X229246975Y-77412743D01*
X229285839Y-77368426D01*
X229471401Y-77238495D01*
X229638495Y-77071401D01*
X229774035Y-76877830D01*
X229873903Y-76663663D01*
X229935063Y-76435408D01*
X229955659Y-76200000D01*
X229935063Y-75964592D01*
X229873903Y-75736337D01*
X229774035Y-75522171D01*
X229638495Y-75328599D01*
X229471401Y-75161505D01*
X229285839Y-75031573D01*
X229246975Y-74987257D01*
X229232964Y-74930000D01*
X229246975Y-74872743D01*
X229285839Y-74828426D01*
X229471401Y-74698495D01*
X229638495Y-74531401D01*
X229774035Y-74337830D01*
X229873903Y-74123663D01*
X229935063Y-73895408D01*
X229955659Y-73660000D01*
X229935063Y-73424592D01*
X229873903Y-73196337D01*
X229774035Y-72982171D01*
X229638495Y-72788599D01*
X229471401Y-72621505D01*
X229285839Y-72491573D01*
X229246975Y-72447257D01*
X229232964Y-72390000D01*
X229246975Y-72332743D01*
X229285839Y-72288426D01*
X229471401Y-72158495D01*
X229638495Y-71991401D01*
X229774035Y-71797830D01*
X229873903Y-71583663D01*
X229935063Y-71355408D01*
X229955659Y-71120000D01*
X229935063Y-70884592D01*
X229873903Y-70656337D01*
X229774035Y-70442171D01*
X229638495Y-70248599D01*
X229471401Y-70081505D01*
X229285839Y-69951573D01*
X229246975Y-69907257D01*
X229232964Y-69850000D01*
X229246975Y-69792743D01*
X229285839Y-69748426D01*
X229471401Y-69618495D01*
X229638495Y-69451401D01*
X229774035Y-69257830D01*
X229873903Y-69043663D01*
X229935063Y-68815408D01*
X229955659Y-68580000D01*
X229935063Y-68344592D01*
X229873903Y-68116337D01*
X229774035Y-67902171D01*
X229638495Y-67708599D01*
X229471401Y-67541505D01*
X229285839Y-67411573D01*
X229246975Y-67367257D01*
X229232964Y-67310000D01*
X229246975Y-67252743D01*
X229285839Y-67208426D01*
X229471401Y-67078495D01*
X229638495Y-66911401D01*
X229774035Y-66717830D01*
X229873903Y-66503663D01*
X229935063Y-66275408D01*
X229955659Y-66040000D01*
X229935063Y-65804592D01*
X229873903Y-65576337D01*
X229774035Y-65362171D01*
X229638495Y-65168599D01*
X229471401Y-65001505D01*
X229285839Y-64871573D01*
X229246976Y-64827257D01*
X229232965Y-64770000D01*
X229246976Y-64712743D01*
X229285839Y-64668426D01*
X229471401Y-64538495D01*
X229638495Y-64371401D01*
X229774035Y-64177830D01*
X229873903Y-63963663D01*
X229935063Y-63735408D01*
X229955659Y-63500000D01*
X229935063Y-63264592D01*
X229873903Y-63036337D01*
X229774035Y-62822171D01*
X229638495Y-62628599D01*
X229471401Y-62461505D01*
X229285839Y-62331573D01*
X229246974Y-62287255D01*
X229232964Y-62229999D01*
X229246975Y-62172742D01*
X229285837Y-62128428D01*
X229471401Y-61998495D01*
X229638495Y-61831401D01*
X229774035Y-61637830D01*
X229873903Y-61423663D01*
X229935063Y-61195408D01*
X229955659Y-60960000D01*
X229935063Y-60724592D01*
X229873903Y-60496337D01*
X229774035Y-60282171D01*
X229638495Y-60088599D01*
X229471401Y-59921505D01*
X229285839Y-59791573D01*
X229246975Y-59747257D01*
X229232964Y-59690000D01*
X229246975Y-59632743D01*
X229285839Y-59588426D01*
X229471401Y-59458495D01*
X229638495Y-59291401D01*
X229774035Y-59097830D01*
X229873903Y-58883663D01*
X229935063Y-58655408D01*
X229955659Y-58420000D01*
X229935063Y-58184592D01*
X229873903Y-57956337D01*
X229774035Y-57742171D01*
X229638495Y-57548599D01*
X229471401Y-57381505D01*
X229285839Y-57251573D01*
X229246975Y-57207257D01*
X229232964Y-57150000D01*
X229246975Y-57092743D01*
X229285839Y-57048426D01*
X229471401Y-56918495D01*
X229638495Y-56751401D01*
X229774035Y-56557830D01*
X229873903Y-56343663D01*
X229935063Y-56115408D01*
X229955659Y-55880000D01*
X229935063Y-55644592D01*
X229873903Y-55416337D01*
X229774035Y-55202171D01*
X229638495Y-55008599D01*
X229471401Y-54841505D01*
X229277830Y-54705965D01*
X229063663Y-54606097D01*
X229002502Y-54589709D01*
X228835407Y-54544936D01*
X228600000Y-54524340D01*
X228364592Y-54544936D01*
X228136336Y-54606097D01*
X227922170Y-54705965D01*
X227728598Y-54841505D01*
X227561505Y-55008598D01*
X227425965Y-55202170D01*
X227326097Y-55416336D01*
X227264936Y-55644592D01*
X227244340Y-55879999D01*
X227264936Y-56115407D01*
X227298692Y-56241385D01*
X227326097Y-56343663D01*
X227425965Y-56557830D01*
X227561505Y-56751401D01*
X227728599Y-56918495D01*
X227914160Y-57048426D01*
X227953024Y-57092743D01*
X227967035Y-57150000D01*
X227953024Y-57207257D01*
X227914159Y-57251575D01*
X227728595Y-57381508D01*
X227561505Y-57548598D01*
X227425965Y-57742170D01*
X227326097Y-57956336D01*
X227264936Y-58184592D01*
X227244340Y-58420000D01*
X227264936Y-58655407D01*
X227291874Y-58755941D01*
X227326097Y-58883663D01*
X227425965Y-59097830D01*
X227561505Y-59291401D01*
X227728599Y-59458495D01*
X227914160Y-59588426D01*
X227953024Y-59632743D01*
X227967035Y-59690000D01*
X227953024Y-59747257D01*
X227914159Y-59791575D01*
X227883738Y-59812875D01*
X227826958Y-59852634D01*
X227728595Y-59921508D01*
X227561505Y-60088598D01*
X227425965Y-60282170D01*
X227326097Y-60496336D01*
X227264936Y-60724592D01*
X227244340Y-60960000D01*
X227265821Y-61205524D01*
X227258815Y-61258741D01*
X227229974Y-61304012D01*
X226743181Y-61790807D01*
X226693818Y-61821057D01*
X226636102Y-61825599D01*
X226582615Y-61803444D01*
X226545015Y-61759421D01*
X226531500Y-61703126D01*
X226531500Y-50607887D01*
X226532809Y-50589917D01*
X226533023Y-50588453D01*
X226536130Y-50567244D01*
X226531972Y-50519716D01*
X226531500Y-50508909D01*
X226531500Y-50503745D01*
X226531500Y-50503744D01*
X226528023Y-50474002D01*
X226527665Y-50470500D01*
X226521349Y-50398292D01*
X226521214Y-50396748D01*
X226517281Y-50379010D01*
X226516750Y-50377552D01*
X226516750Y-50377549D01*
X226491969Y-50309465D01*
X226490786Y-50306061D01*
X226468002Y-50237303D01*
X226468000Y-50237299D01*
X226467513Y-50235830D01*
X226459594Y-50219472D01*
X226418931Y-50157646D01*
X226416993Y-50154604D01*
X226378153Y-50091634D01*
X226366680Y-50077549D01*
X226312851Y-50026765D01*
X226310263Y-50024251D01*
X225705559Y-49419547D01*
X224890024Y-48604013D01*
X224861184Y-48558743D01*
X224854178Y-48505525D01*
X224875659Y-48259999D01*
X224855063Y-48024592D01*
X224855062Y-48024591D01*
X224793903Y-47796337D01*
X224694035Y-47582171D01*
X224558495Y-47388599D01*
X224391401Y-47221505D01*
X224205839Y-47091573D01*
X224166975Y-47047257D01*
X224152964Y-46990000D01*
X224166975Y-46932743D01*
X224205839Y-46888426D01*
X224391401Y-46758495D01*
X224558495Y-46591401D01*
X224694035Y-46397830D01*
X224793903Y-46183663D01*
X224855063Y-45955408D01*
X224875659Y-45720000D01*
X224855063Y-45484592D01*
X224793903Y-45256337D01*
X224694035Y-45042171D01*
X224558495Y-44848599D01*
X224391401Y-44681505D01*
X224197830Y-44545965D01*
X223983663Y-44446097D01*
X223983662Y-44446096D01*
X223821696Y-44402698D01*
X223771189Y-44375406D01*
X223738387Y-44328290D01*
X223730322Y-44271450D01*
X223748722Y-44217070D01*
X223789640Y-44176806D01*
X223817518Y-44159954D01*
X224079452Y-43954742D01*
X224314742Y-43719452D01*
X224519954Y-43457518D01*
X224692098Y-43172757D01*
X224828663Y-42869323D01*
X224927656Y-42551641D01*
X224987636Y-42224342D01*
X225007727Y-41892200D01*
X225000610Y-41774535D01*
X226661500Y-41774535D01*
X226700520Y-42008372D01*
X226777494Y-42232590D01*
X226777496Y-42232595D01*
X226890329Y-42441091D01*
X226890330Y-42441092D01*
X227035939Y-42628172D01*
X227122620Y-42707967D01*
X227210357Y-42788735D01*
X227408824Y-42918399D01*
X227625925Y-43013629D01*
X227855740Y-43071826D01*
X227926575Y-43077695D01*
X228032823Y-43086500D01*
X228032829Y-43086500D01*
X228151171Y-43086500D01*
X228151177Y-43086500D01*
X228247764Y-43078496D01*
X228328260Y-43071826D01*
X228558075Y-43013629D01*
X228775176Y-42918399D01*
X228973643Y-42788735D01*
X229148060Y-42628172D01*
X229293671Y-42441091D01*
X229406504Y-42232595D01*
X229483480Y-42008371D01*
X229522500Y-41774535D01*
X229522500Y-41537465D01*
X229483480Y-41303629D01*
X229406504Y-41079405D01*
X229293671Y-40870909D01*
X229231057Y-40790462D01*
X229148060Y-40683827D01*
X229026194Y-40571642D01*
X228973643Y-40523265D01*
X228858936Y-40448324D01*
X228775178Y-40393602D01*
X228775176Y-40393601D01*
X228558075Y-40298371D01*
X228328260Y-40240174D01*
X228328258Y-40240173D01*
X228328255Y-40240173D01*
X228151177Y-40225500D01*
X228151171Y-40225500D01*
X228032829Y-40225500D01*
X228032823Y-40225500D01*
X227855744Y-40240173D01*
X227625925Y-40298371D01*
X227408821Y-40393602D01*
X227210358Y-40523264D01*
X227035939Y-40683827D01*
X226890330Y-40870907D01*
X226890328Y-40870909D01*
X226890329Y-40870909D01*
X226807193Y-41024531D01*
X226777494Y-41079409D01*
X226700520Y-41303627D01*
X226661500Y-41537465D01*
X226661500Y-41774535D01*
X225000610Y-41774535D01*
X224987636Y-41560058D01*
X224927656Y-41232759D01*
X224875731Y-41066126D01*
X224828665Y-40915083D01*
X224828664Y-40915082D01*
X224828663Y-40915077D01*
X224692098Y-40611643D01*
X224593368Y-40448324D01*
X224519954Y-40326881D01*
X224399412Y-40173021D01*
X224314742Y-40064948D01*
X224079452Y-39829658D01*
X223960019Y-39736088D01*
X223817518Y-39624445D01*
X223532754Y-39452300D01*
X223499027Y-39437121D01*
X223447869Y-39394486D01*
X223426145Y-39331533D01*
X223440122Y-39266421D01*
X223485769Y-39217929D01*
X223549914Y-39200047D01*
X228948639Y-39200000D01*
X228996090Y-39209439D01*
G37*
G04 #@! TD.AperFunction*
G04 #@! TA.AperFunction,Conductor*
G36*
X191827257Y-84466975D02*
G01*
X191871573Y-84505839D01*
X192001505Y-84691401D01*
X192168599Y-84858495D01*
X192362170Y-84994035D01*
X192576337Y-85093903D01*
X192804592Y-85155063D01*
X193040000Y-85175659D01*
X193275409Y-85155063D01*
X193320103Y-85143087D01*
X193384291Y-85143086D01*
X193439879Y-85175180D01*
X193770271Y-85505572D01*
X193775406Y-85511027D01*
X193813770Y-85554332D01*
X193861389Y-85587200D01*
X193867422Y-85591639D01*
X193912972Y-85627326D01*
X193921523Y-85631174D01*
X193941059Y-85642193D01*
X193948774Y-85647518D01*
X194002883Y-85668039D01*
X194009798Y-85670903D01*
X194062561Y-85694650D01*
X194071757Y-85696335D01*
X194071768Y-85696337D01*
X194093388Y-85702364D01*
X194102151Y-85705687D01*
X194102153Y-85705687D01*
X194102155Y-85705688D01*
X194159617Y-85712665D01*
X194166982Y-85713785D01*
X194223915Y-85724219D01*
X194281664Y-85720726D01*
X194289151Y-85720500D01*
X206893450Y-85720500D01*
X206953093Y-85735786D01*
X206998031Y-85777875D01*
X207017185Y-85836391D01*
X207007952Y-85885601D01*
X207008905Y-85885857D01*
X206944936Y-86124592D01*
X206924340Y-86360000D01*
X206944936Y-86595407D01*
X206979016Y-86722595D01*
X207006097Y-86823663D01*
X207105965Y-87037830D01*
X207241505Y-87231401D01*
X207408599Y-87398495D01*
X207594160Y-87528426D01*
X207633024Y-87572743D01*
X207647035Y-87630000D01*
X207633024Y-87687257D01*
X207594158Y-87731575D01*
X207413321Y-87858199D01*
X207408595Y-87861508D01*
X207241505Y-88028598D01*
X207105965Y-88222170D01*
X207006097Y-88436336D01*
X206944936Y-88664592D01*
X206924340Y-88899999D01*
X206944936Y-89135407D01*
X206976400Y-89252831D01*
X207006097Y-89363663D01*
X207105965Y-89577830D01*
X207241505Y-89771401D01*
X207241507Y-89771403D01*
X207241508Y-89771404D01*
X207337923Y-89867819D01*
X207368173Y-89917182D01*
X207372715Y-89974898D01*
X207350560Y-90028385D01*
X207306537Y-90065985D01*
X207250242Y-90079500D01*
X201893887Y-90079500D01*
X201875917Y-90078191D01*
X201867964Y-90077026D01*
X201853244Y-90074870D01*
X201853243Y-90074870D01*
X201805716Y-90079028D01*
X201794909Y-90079500D01*
X201789744Y-90079500D01*
X201760041Y-90082971D01*
X201756457Y-90083337D01*
X201682758Y-90089785D01*
X201665000Y-90093721D01*
X201595478Y-90119025D01*
X201592074Y-90120208D01*
X201521845Y-90143480D01*
X201505466Y-90151410D01*
X201443665Y-90192055D01*
X201440629Y-90193988D01*
X201377645Y-90232839D01*
X201363537Y-90244332D01*
X201312746Y-90298166D01*
X201310235Y-90300751D01*
X200130757Y-91480230D01*
X200117127Y-91492010D01*
X200098740Y-91505699D01*
X200068064Y-91542256D01*
X200060763Y-91550224D01*
X200052097Y-91558891D01*
X200018004Y-91583035D01*
X200006663Y-91586267D01*
X200007110Y-91587466D01*
X199857669Y-91643204D01*
X199742454Y-91729454D01*
X199656204Y-91844668D01*
X199605909Y-91979515D01*
X199605909Y-91979517D01*
X199600588Y-92029014D01*
X199599500Y-92039130D01*
X199599500Y-93634869D01*
X199603626Y-93673246D01*
X199605909Y-93694483D01*
X199656204Y-93829331D01*
X199742454Y-93944546D01*
X199824812Y-94006199D01*
X199861384Y-94049961D01*
X199874500Y-94105465D01*
X199874500Y-96775535D01*
X199861384Y-96831039D01*
X199824812Y-96874800D01*
X199777967Y-96909869D01*
X199742454Y-96936454D01*
X199656204Y-97051668D01*
X199605909Y-97186516D01*
X199599500Y-97246130D01*
X199599500Y-98841869D01*
X199605897Y-98901375D01*
X199605909Y-98901483D01*
X199656204Y-99036331D01*
X199742454Y-99151546D01*
X199857669Y-99237796D01*
X199992517Y-99288091D01*
X200052127Y-99294500D01*
X200672294Y-99294499D01*
X200734293Y-99311112D01*
X200779680Y-99356499D01*
X200796293Y-99418498D01*
X200779681Y-99480498D01*
X200721820Y-99580716D01*
X200663326Y-99760742D01*
X200643972Y-99944885D01*
X200643540Y-99949000D01*
X200646397Y-99976181D01*
X200663326Y-100137257D01*
X200721820Y-100317284D01*
X200816466Y-100481216D01*
X200943129Y-100621889D01*
X201096269Y-100733151D01*
X201269197Y-100810144D01*
X201454352Y-100849500D01*
X201454354Y-100849500D01*
X201643646Y-100849500D01*
X201643648Y-100849500D01*
X201767083Y-100823262D01*
X201828803Y-100810144D01*
X202001730Y-100733151D01*
X202061329Y-100689850D01*
X202154870Y-100621889D01*
X202193697Y-100578768D01*
X202281533Y-100481216D01*
X202376179Y-100317284D01*
X202434674Y-100137256D01*
X202454460Y-99949000D01*
X202453123Y-99936281D01*
X202454890Y-99898814D01*
X202467781Y-99863588D01*
X202486197Y-99830092D01*
X202491175Y-99810699D01*
X202497481Y-99792282D01*
X202499933Y-99786615D01*
X202505438Y-99773896D01*
X202512272Y-99730745D01*
X202514635Y-99719331D01*
X202525500Y-99677019D01*
X202525500Y-99656984D01*
X202527027Y-99637585D01*
X202530160Y-99617804D01*
X202526050Y-99574325D01*
X202525500Y-99562656D01*
X202525500Y-99418000D01*
X202542113Y-99356000D01*
X202587500Y-99310613D01*
X202589788Y-99310000D01*
X214550000Y-99310000D01*
X214550000Y-99957824D01*
X214556402Y-100017375D01*
X214606647Y-100152089D01*
X214684202Y-100255689D01*
X214706101Y-100303642D01*
X214706101Y-100356358D01*
X214684202Y-100404311D01*
X214606647Y-100507910D01*
X214556402Y-100642624D01*
X214550000Y-100702176D01*
X214550000Y-101350000D01*
X215650000Y-101350000D01*
X215650000Y-99310000D01*
X214550000Y-99310000D01*
X202589788Y-99310000D01*
X202649500Y-99294000D01*
X202950000Y-99294000D01*
X202950000Y-98294000D01*
X203450000Y-98294000D01*
X203450000Y-99294000D01*
X203747824Y-99294000D01*
X203807375Y-99287597D01*
X203942089Y-99237352D01*
X204057188Y-99151188D01*
X204143352Y-99036089D01*
X204193597Y-98901375D01*
X204200000Y-98841824D01*
X204200000Y-98810000D01*
X214550000Y-98810000D01*
X215650000Y-98810000D01*
X215650000Y-97710000D01*
X215002176Y-97710000D01*
X214942624Y-97716402D01*
X214807910Y-97766647D01*
X214692811Y-97852811D01*
X214606647Y-97967910D01*
X214556402Y-98102624D01*
X214550000Y-98162176D01*
X214550000Y-98810000D01*
X204200000Y-98810000D01*
X204200000Y-98294000D01*
X203450000Y-98294000D01*
X202950000Y-98294000D01*
X202950000Y-96794000D01*
X203450000Y-96794000D01*
X203450000Y-97794000D01*
X204200000Y-97794000D01*
X204200000Y-97246176D01*
X204193597Y-97186624D01*
X204143352Y-97051910D01*
X204057188Y-96936811D01*
X203942089Y-96850647D01*
X203807375Y-96800402D01*
X203747824Y-96794000D01*
X203450000Y-96794000D01*
X202950000Y-96794000D01*
X202652176Y-96794000D01*
X202588864Y-96800806D01*
X202550712Y-96807688D01*
X202507755Y-96799938D01*
X202483849Y-96797368D01*
X202447873Y-96793500D01*
X202447869Y-96793500D01*
X202447827Y-96793500D01*
X201449499Y-96793500D01*
X201387500Y-96776888D01*
X201342113Y-96731501D01*
X201325500Y-96669501D01*
X201325500Y-94954874D01*
X201339015Y-94898579D01*
X201376615Y-94854556D01*
X201430102Y-94832401D01*
X201487818Y-94836943D01*
X201537181Y-94867193D01*
X201840274Y-95170286D01*
X201864687Y-95204950D01*
X201875996Y-95245811D01*
X201882253Y-95309333D01*
X201936603Y-95488500D01*
X202024863Y-95653624D01*
X202046162Y-95679576D01*
X202143643Y-95798357D01*
X202288375Y-95917136D01*
X202453499Y-96005396D01*
X202632669Y-96059747D01*
X202819000Y-96078099D01*
X203005331Y-96059747D01*
X203184501Y-96005396D01*
X203349625Y-95917136D01*
X203494357Y-95798357D01*
X203613136Y-95653625D01*
X203701396Y-95488501D01*
X203755747Y-95309331D01*
X203774099Y-95123000D01*
X203755747Y-94936669D01*
X203701396Y-94757499D01*
X203613136Y-94592375D01*
X203494357Y-94447643D01*
X203349625Y-94328864D01*
X203334642Y-94320855D01*
X203287371Y-94276289D01*
X203269122Y-94213934D01*
X203284908Y-94150910D01*
X203330396Y-94104520D01*
X203393098Y-94087499D01*
X203747870Y-94087499D01*
X203747872Y-94087499D01*
X203807483Y-94081091D01*
X203942331Y-94030796D01*
X204057546Y-93944546D01*
X204143796Y-93829331D01*
X204194091Y-93694483D01*
X204196374Y-93673244D01*
X204216973Y-93616997D01*
X204261536Y-93576968D01*
X204319664Y-93562500D01*
X219993126Y-93562500D01*
X220040579Y-93571939D01*
X220080807Y-93598819D01*
X221213181Y-94731193D01*
X221240061Y-94771421D01*
X221249500Y-94818874D01*
X221249500Y-95539869D01*
X221255909Y-95599483D01*
X221306204Y-95734331D01*
X221392454Y-95849546D01*
X221507669Y-95935796D01*
X221642517Y-95986091D01*
X221702127Y-95992500D01*
X221773218Y-95992499D01*
X221829511Y-96006014D01*
X221873535Y-96043613D01*
X221895690Y-96097100D01*
X221891148Y-96154817D01*
X221860898Y-96204180D01*
X220282646Y-97782432D01*
X220280399Y-97784623D01*
X220216948Y-97844939D01*
X220183244Y-97893362D01*
X220177573Y-97900882D01*
X220140300Y-97946593D01*
X220126209Y-97973567D01*
X220118082Y-97986982D01*
X220100704Y-98011951D01*
X220096993Y-98020599D01*
X220070726Y-98059376D01*
X219941502Y-98188601D01*
X219811574Y-98374159D01*
X219767256Y-98413025D01*
X219709999Y-98427036D01*
X219652742Y-98413025D01*
X219608426Y-98374161D01*
X219478495Y-98188599D01*
X219311401Y-98021505D01*
X219117830Y-97885965D01*
X218903663Y-97786097D01*
X218831074Y-97766647D01*
X218675407Y-97724936D01*
X218440000Y-97704340D01*
X218204592Y-97724936D01*
X217976336Y-97786097D01*
X217762170Y-97885965D01*
X217568601Y-98021503D01*
X217446285Y-98143819D01*
X217393539Y-98175114D01*
X217332246Y-98177303D01*
X217277401Y-98149850D01*
X217242422Y-98099471D01*
X217193352Y-97967911D01*
X217107188Y-97852811D01*
X216992089Y-97766647D01*
X216857375Y-97716402D01*
X216797824Y-97710000D01*
X216150000Y-97710000D01*
X216150000Y-109346000D01*
X216133387Y-109408000D01*
X216088000Y-109453387D01*
X216026000Y-109470000D01*
X214550000Y-109470000D01*
X214550000Y-110117824D01*
X214556402Y-110177375D01*
X214612878Y-110328793D01*
X214609702Y-110329977D01*
X214623102Y-110364952D01*
X214610478Y-110431507D01*
X214564761Y-110481496D01*
X214499595Y-110500000D01*
X193959773Y-110500000D01*
X193899657Y-110484453D01*
X193854615Y-110441710D01*
X193835943Y-110382489D01*
X193848323Y-110321642D01*
X193888649Y-110274426D01*
X193911401Y-110258495D01*
X194078495Y-110091401D01*
X194214035Y-109897830D01*
X194313903Y-109683663D01*
X194375063Y-109455408D01*
X194395659Y-109220000D01*
X194391824Y-109176172D01*
X194375063Y-108984592D01*
X194362630Y-108938191D01*
X194313903Y-108756337D01*
X194214035Y-108542171D01*
X194078495Y-108348599D01*
X193911401Y-108181505D01*
X193725839Y-108051573D01*
X193686975Y-108007257D01*
X193672964Y-107950000D01*
X193686975Y-107892743D01*
X193725839Y-107848426D01*
X193911401Y-107718495D01*
X194078495Y-107551401D01*
X194214035Y-107357830D01*
X194313903Y-107143663D01*
X194371153Y-106930000D01*
X214550000Y-106930000D01*
X214550000Y-107577824D01*
X214556402Y-107637375D01*
X214606647Y-107772089D01*
X214684202Y-107875689D01*
X214706101Y-107923642D01*
X214706101Y-107976358D01*
X214684202Y-108024311D01*
X214606647Y-108127910D01*
X214556402Y-108262624D01*
X214550000Y-108322176D01*
X214550000Y-108970000D01*
X215650000Y-108970000D01*
X215650000Y-106930000D01*
X214550000Y-106930000D01*
X194371153Y-106930000D01*
X194375063Y-106915408D01*
X194395659Y-106680000D01*
X194375063Y-106444592D01*
X194313903Y-106216337D01*
X194214035Y-106002171D01*
X194078495Y-105808599D01*
X193911401Y-105641505D01*
X193725839Y-105511573D01*
X193686975Y-105467257D01*
X193672964Y-105410000D01*
X193686975Y-105352743D01*
X193725839Y-105308426D01*
X193911401Y-105178495D01*
X194078495Y-105011401D01*
X194214035Y-104817830D01*
X194313903Y-104603663D01*
X194371153Y-104390000D01*
X214550000Y-104390000D01*
X214550000Y-105037824D01*
X214556402Y-105097375D01*
X214606647Y-105232089D01*
X214684202Y-105335689D01*
X214706101Y-105383642D01*
X214706101Y-105436358D01*
X214684202Y-105484311D01*
X214606647Y-105587910D01*
X214556402Y-105722624D01*
X214550000Y-105782176D01*
X214550000Y-106430000D01*
X215650000Y-106430000D01*
X215650000Y-104390000D01*
X214550000Y-104390000D01*
X194371153Y-104390000D01*
X194375063Y-104375408D01*
X194395659Y-104140000D01*
X194375063Y-103904592D01*
X194313903Y-103676337D01*
X194214035Y-103462171D01*
X194078495Y-103268599D01*
X193911401Y-103101505D01*
X193725839Y-102971573D01*
X193686974Y-102927255D01*
X193672964Y-102869999D01*
X193686975Y-102812742D01*
X193725837Y-102768428D01*
X193911401Y-102638495D01*
X194078495Y-102471401D01*
X194214035Y-102277830D01*
X194313903Y-102063663D01*
X194371153Y-101850000D01*
X214550000Y-101850000D01*
X214550000Y-102497824D01*
X214556402Y-102557375D01*
X214606647Y-102692089D01*
X214684202Y-102795689D01*
X214706101Y-102843642D01*
X214706101Y-102896358D01*
X214684202Y-102944311D01*
X214606647Y-103047910D01*
X214556402Y-103182624D01*
X214550000Y-103242176D01*
X214550000Y-103890000D01*
X215650000Y-103890000D01*
X215650000Y-101850000D01*
X214550000Y-101850000D01*
X194371153Y-101850000D01*
X194375063Y-101835408D01*
X194395659Y-101600000D01*
X194375063Y-101364592D01*
X194313903Y-101136337D01*
X194214035Y-100922171D01*
X194078495Y-100728599D01*
X193911401Y-100561505D01*
X193725839Y-100431573D01*
X193686974Y-100387255D01*
X193672964Y-100329999D01*
X193686975Y-100272742D01*
X193725837Y-100228428D01*
X193911401Y-100098495D01*
X194078495Y-99931401D01*
X194214035Y-99737830D01*
X194313903Y-99523663D01*
X194375063Y-99295408D01*
X194395659Y-99060000D01*
X194375063Y-98824592D01*
X194313903Y-98596337D01*
X194214035Y-98382171D01*
X194078495Y-98188599D01*
X193911401Y-98021505D01*
X193725839Y-97891573D01*
X193686976Y-97847257D01*
X193672965Y-97790000D01*
X193686976Y-97732743D01*
X193725839Y-97688426D01*
X193911401Y-97558495D01*
X194078495Y-97391401D01*
X194214035Y-97197830D01*
X194313903Y-96983663D01*
X194375063Y-96755408D01*
X194395659Y-96520000D01*
X194375063Y-96284592D01*
X194313903Y-96056337D01*
X194214035Y-95842171D01*
X194078495Y-95648599D01*
X193956569Y-95526672D01*
X193925273Y-95473927D01*
X193923084Y-95412634D01*
X193950537Y-95357789D01*
X194000916Y-95322810D01*
X194132331Y-95273796D01*
X194247546Y-95187546D01*
X194333796Y-95072331D01*
X194384091Y-94937483D01*
X194390500Y-94877873D01*
X194390499Y-93082128D01*
X194384091Y-93022517D01*
X194333796Y-92887669D01*
X194247546Y-92772454D01*
X194132331Y-92686204D01*
X193997483Y-92635909D01*
X193937873Y-92629500D01*
X193937869Y-92629500D01*
X192142130Y-92629500D01*
X192082515Y-92635909D01*
X191947667Y-92686204D01*
X191844310Y-92763577D01*
X191796358Y-92785476D01*
X191743642Y-92785476D01*
X191695690Y-92763577D01*
X191592333Y-92686205D01*
X191592331Y-92686204D01*
X191457483Y-92635909D01*
X191397873Y-92629500D01*
X191397869Y-92629500D01*
X189602130Y-92629500D01*
X189542515Y-92635909D01*
X189407667Y-92686204D01*
X189304310Y-92763577D01*
X189256358Y-92785476D01*
X189203642Y-92785476D01*
X189155690Y-92763577D01*
X189052333Y-92686205D01*
X189052331Y-92686204D01*
X188917483Y-92635909D01*
X188857873Y-92629500D01*
X188857869Y-92629500D01*
X188625162Y-92629500D01*
X188568867Y-92615985D01*
X188524844Y-92578385D01*
X188502689Y-92524898D01*
X188507231Y-92467182D01*
X188537481Y-92417819D01*
X189479463Y-91475837D01*
X190452588Y-90502711D01*
X190458007Y-90497610D01*
X190501332Y-90459229D01*
X190534219Y-90411581D01*
X190538613Y-90405609D01*
X190574326Y-90360028D01*
X190578171Y-90351484D01*
X190589197Y-90331935D01*
X190594479Y-90324282D01*
X190594518Y-90324226D01*
X190615036Y-90270122D01*
X190617901Y-90263207D01*
X190641648Y-90210444D01*
X190641648Y-90210443D01*
X190641650Y-90210439D01*
X190643338Y-90201222D01*
X190649364Y-90179608D01*
X190652688Y-90170845D01*
X190659663Y-90113396D01*
X190660790Y-90105993D01*
X190663991Y-90088525D01*
X190671219Y-90049085D01*
X190669072Y-90013597D01*
X190667726Y-89991335D01*
X190667500Y-89983849D01*
X190667500Y-87764298D01*
X190948700Y-87764298D01*
X190988893Y-88005164D01*
X191068183Y-88236127D01*
X191176681Y-88436613D01*
X191184408Y-88450890D01*
X191208622Y-88482000D01*
X191334394Y-88643595D01*
X191417088Y-88719719D01*
X191514056Y-88808984D01*
X191718488Y-88942546D01*
X191942116Y-89040638D01*
X192178839Y-89100585D01*
X192261754Y-89107455D01*
X192361248Y-89115700D01*
X192361254Y-89115700D01*
X192483146Y-89115700D01*
X192483152Y-89115700D01*
X192574353Y-89108142D01*
X192665561Y-89100585D01*
X192902284Y-89040638D01*
X193125912Y-88942546D01*
X193330344Y-88808984D01*
X193510005Y-88643595D01*
X193659992Y-88450890D01*
X193776217Y-88236127D01*
X193855507Y-88005163D01*
X193895700Y-87764298D01*
X202378700Y-87764298D01*
X202418893Y-88005164D01*
X202498183Y-88236127D01*
X202606681Y-88436613D01*
X202614408Y-88450890D01*
X202638622Y-88482000D01*
X202764394Y-88643595D01*
X202847088Y-88719719D01*
X202944056Y-88808984D01*
X203148488Y-88942546D01*
X203372116Y-89040638D01*
X203608839Y-89100585D01*
X203691754Y-89107455D01*
X203791248Y-89115700D01*
X203791254Y-89115700D01*
X203913146Y-89115700D01*
X203913152Y-89115700D01*
X204004353Y-89108142D01*
X204095561Y-89100585D01*
X204332284Y-89040638D01*
X204555912Y-88942546D01*
X204760344Y-88808984D01*
X204940005Y-88643595D01*
X205089992Y-88450890D01*
X205206217Y-88236127D01*
X205285507Y-88005163D01*
X205325700Y-87764298D01*
X205325700Y-87520102D01*
X205285507Y-87279237D01*
X205206217Y-87048273D01*
X205089992Y-86833510D01*
X205003664Y-86722595D01*
X204940005Y-86640804D01*
X204850174Y-86558110D01*
X204760344Y-86475416D01*
X204555912Y-86341854D01*
X204555909Y-86341852D01*
X204332287Y-86243763D01*
X204332285Y-86243762D01*
X204332284Y-86243762D01*
X204095561Y-86183815D01*
X204095557Y-86183814D01*
X204095555Y-86183814D01*
X203913152Y-86168700D01*
X203913146Y-86168700D01*
X203791254Y-86168700D01*
X203791248Y-86168700D01*
X203608844Y-86183814D01*
X203608840Y-86183814D01*
X203608839Y-86183815D01*
X203487155Y-86214630D01*
X203372112Y-86243763D01*
X203148490Y-86341852D01*
X203120713Y-86360000D01*
X202944056Y-86475416D01*
X202944054Y-86475417D01*
X202944055Y-86475417D01*
X202764394Y-86640804D01*
X202614406Y-86833512D01*
X202498183Y-87048272D01*
X202418893Y-87279235D01*
X202378700Y-87520102D01*
X202378700Y-87764298D01*
X193895700Y-87764298D01*
X193895700Y-87520102D01*
X193855507Y-87279237D01*
X193776217Y-87048273D01*
X193659992Y-86833510D01*
X193573664Y-86722595D01*
X193510005Y-86640804D01*
X193420174Y-86558110D01*
X193330344Y-86475416D01*
X193125912Y-86341854D01*
X193125909Y-86341852D01*
X192902287Y-86243763D01*
X192902285Y-86243762D01*
X192902284Y-86243762D01*
X192665561Y-86183815D01*
X192665557Y-86183814D01*
X192665555Y-86183814D01*
X192483152Y-86168700D01*
X192483146Y-86168700D01*
X192361254Y-86168700D01*
X192361248Y-86168700D01*
X192178844Y-86183814D01*
X192178840Y-86183814D01*
X192178839Y-86183815D01*
X192057155Y-86214630D01*
X191942112Y-86243763D01*
X191718490Y-86341852D01*
X191690713Y-86360000D01*
X191514056Y-86475416D01*
X191514054Y-86475417D01*
X191514055Y-86475417D01*
X191334394Y-86640804D01*
X191184406Y-86833512D01*
X191068183Y-87048272D01*
X190988893Y-87279235D01*
X190948700Y-87520102D01*
X190948700Y-87764298D01*
X190667500Y-87764298D01*
X190667500Y-85929163D01*
X190676939Y-85881710D01*
X190703819Y-85841482D01*
X190832186Y-85713115D01*
X190960596Y-85584704D01*
X190965998Y-85579618D01*
X191009332Y-85541229D01*
X191042212Y-85493591D01*
X191046609Y-85487614D01*
X191082325Y-85442029D01*
X191086167Y-85433489D01*
X191097197Y-85413934D01*
X191102518Y-85406226D01*
X191123041Y-85352110D01*
X191125897Y-85345215D01*
X191149650Y-85292439D01*
X191151338Y-85283222D01*
X191157364Y-85261608D01*
X191160688Y-85252845D01*
X191167663Y-85195396D01*
X191168790Y-85187993D01*
X191172437Y-85168091D01*
X191179219Y-85131085D01*
X191175726Y-85073342D01*
X191175500Y-85065855D01*
X191175500Y-85060217D01*
X191189511Y-85002960D01*
X191228376Y-84958642D01*
X191249444Y-84943890D01*
X191371401Y-84858495D01*
X191538495Y-84691401D01*
X191668426Y-84505839D01*
X191712743Y-84466975D01*
X191770000Y-84452964D01*
X191827257Y-84466975D01*
G37*
G04 #@! TD.AperFunction*
G04 #@! TA.AperFunction,Conductor*
G36*
X139095406Y-39218487D02*
G01*
X139141027Y-39266561D01*
X139155372Y-39331265D01*
X139134343Y-39394115D01*
X139083947Y-39437158D01*
X139022170Y-39465965D01*
X138828598Y-39601505D01*
X138661505Y-39768598D01*
X138525965Y-39962170D01*
X138426097Y-40176336D01*
X138364936Y-40404592D01*
X138344340Y-40640000D01*
X138364936Y-40875407D01*
X138398671Y-41001306D01*
X138426097Y-41103663D01*
X138525965Y-41317830D01*
X138661505Y-41511401D01*
X138828599Y-41678495D01*
X139014160Y-41808426D01*
X139053024Y-41852743D01*
X139067035Y-41910000D01*
X139053024Y-41967257D01*
X139014159Y-42011575D01*
X138828595Y-42141508D01*
X138661505Y-42308598D01*
X138525965Y-42502170D01*
X138426097Y-42716336D01*
X138364936Y-42944592D01*
X138344340Y-43179999D01*
X138364936Y-43415407D01*
X138428905Y-43654142D01*
X138427953Y-43654397D01*
X138437184Y-43703613D01*
X138418030Y-43762127D01*
X138373092Y-43804215D01*
X138313450Y-43819500D01*
X137029151Y-43819500D01*
X137021665Y-43819274D01*
X137019385Y-43819136D01*
X136963912Y-43815780D01*
X136907011Y-43826207D01*
X136899612Y-43827333D01*
X136842157Y-43834310D01*
X136833383Y-43837638D01*
X136811776Y-43843661D01*
X136802562Y-43845349D01*
X136749782Y-43869102D01*
X136742868Y-43871965D01*
X136688775Y-43892481D01*
X136681058Y-43897807D01*
X136661524Y-43908824D01*
X136652973Y-43912673D01*
X136607417Y-43948363D01*
X136601387Y-43952800D01*
X136553770Y-43985668D01*
X136515406Y-44028972D01*
X136510273Y-44034424D01*
X136355095Y-44189602D01*
X136308369Y-44218962D01*
X136150480Y-44274209D01*
X135997735Y-44370185D01*
X135870185Y-44497735D01*
X135774212Y-44650476D01*
X135774211Y-44650478D01*
X135734744Y-44763268D01*
X135714631Y-44820748D01*
X135694434Y-44999999D01*
X135714631Y-45179251D01*
X135714631Y-45179253D01*
X135714632Y-45179255D01*
X135774211Y-45349522D01*
X135774212Y-45349523D01*
X135870185Y-45502264D01*
X135997735Y-45629814D01*
X135997737Y-45629815D01*
X135997738Y-45629816D01*
X136150478Y-45725789D01*
X136320745Y-45785368D01*
X136500000Y-45805565D01*
X136679255Y-45785368D01*
X136849522Y-45725789D01*
X137002262Y-45629816D01*
X137129816Y-45502262D01*
X137225789Y-45349522D01*
X137259373Y-45253544D01*
X137285516Y-45210159D01*
X137326827Y-45180846D01*
X137376414Y-45170500D01*
X138226000Y-45170500D01*
X138288000Y-45187113D01*
X138333387Y-45232500D01*
X138350000Y-45294500D01*
X138350000Y-45470000D01*
X141050000Y-45470000D01*
X141050000Y-45294500D01*
X141066613Y-45232500D01*
X141112000Y-45187113D01*
X141174000Y-45170500D01*
X143306000Y-45170500D01*
X143368000Y-45187113D01*
X143413387Y-45232500D01*
X143430000Y-45294500D01*
X143430000Y-45470000D01*
X146130000Y-45470000D01*
X146130000Y-45294500D01*
X146146613Y-45232500D01*
X146192000Y-45187113D01*
X146254000Y-45170500D01*
X148163837Y-45170500D01*
X148211290Y-45179939D01*
X148251518Y-45206819D01*
X149005271Y-45960572D01*
X149010406Y-45966027D01*
X149048770Y-46009332D01*
X149096389Y-46042200D01*
X149102422Y-46046639D01*
X149147972Y-46082326D01*
X149156523Y-46086174D01*
X149176059Y-46097193D01*
X149183774Y-46102518D01*
X149237883Y-46123039D01*
X149244798Y-46125903D01*
X149297561Y-46149650D01*
X149306768Y-46151337D01*
X149328388Y-46157364D01*
X149337151Y-46160687D01*
X149337153Y-46160687D01*
X149337155Y-46160688D01*
X149394617Y-46167665D01*
X149401982Y-46168785D01*
X149458915Y-46179219D01*
X149516664Y-46175726D01*
X149524151Y-46175500D01*
X149976000Y-46175500D01*
X150038000Y-46192113D01*
X150083387Y-46237500D01*
X150100000Y-46299500D01*
X150100000Y-48400000D01*
X152300000Y-48400000D01*
X152300000Y-46299500D01*
X152316613Y-46237500D01*
X152362000Y-46192113D01*
X152424000Y-46175500D01*
X156928837Y-46175500D01*
X156976290Y-46184939D01*
X157016518Y-46211819D01*
X161204819Y-50400120D01*
X161236913Y-50455707D01*
X161236913Y-50519893D01*
X161224936Y-50564591D01*
X161204340Y-50800000D01*
X161224936Y-51035407D01*
X161243275Y-51103848D01*
X161286097Y-51263663D01*
X161385965Y-51477830D01*
X161521505Y-51671401D01*
X161688599Y-51838495D01*
X161874160Y-51968426D01*
X161913024Y-52012743D01*
X161927035Y-52070000D01*
X161913024Y-52127257D01*
X161874158Y-52171575D01*
X161723775Y-52276875D01*
X161688595Y-52301508D01*
X161521505Y-52468598D01*
X161385965Y-52662170D01*
X161286097Y-52876336D01*
X161224936Y-53104592D01*
X161204340Y-53340000D01*
X161224936Y-53575407D01*
X161288905Y-53814142D01*
X161287953Y-53814397D01*
X161297184Y-53863613D01*
X161278030Y-53922127D01*
X161233092Y-53964215D01*
X161173450Y-53979500D01*
X146426163Y-53979500D01*
X146378710Y-53970061D01*
X146338482Y-53943181D01*
X146135180Y-53739879D01*
X146103086Y-53684291D01*
X146103087Y-53620103D01*
X146115063Y-53575409D01*
X146135659Y-53340000D01*
X146115063Y-53104592D01*
X146076913Y-52962214D01*
X146053903Y-52876337D01*
X145954035Y-52662171D01*
X145818495Y-52468599D01*
X145651401Y-52301505D01*
X145465839Y-52171573D01*
X145426975Y-52127257D01*
X145412964Y-52070000D01*
X145426975Y-52012743D01*
X145465839Y-51968426D01*
X145651401Y-51838495D01*
X145818495Y-51671401D01*
X145954035Y-51477830D01*
X146053903Y-51263663D01*
X146070961Y-51200000D01*
X150100000Y-51200000D01*
X150100000Y-53400000D01*
X152300000Y-53400000D01*
X152300000Y-51200000D01*
X150100000Y-51200000D01*
X146070961Y-51200000D01*
X146115063Y-51035408D01*
X146135659Y-50800000D01*
X146120478Y-50626490D01*
X146115063Y-50564592D01*
X146090324Y-50472264D01*
X146053903Y-50336337D01*
X145954035Y-50122171D01*
X145818495Y-49928599D01*
X145651401Y-49761505D01*
X145465839Y-49631573D01*
X145426975Y-49587257D01*
X145412964Y-49530000D01*
X145426975Y-49472743D01*
X145465839Y-49428426D01*
X145651401Y-49298495D01*
X145818495Y-49131401D01*
X145954035Y-48937830D01*
X146053903Y-48723663D01*
X146060243Y-48700000D01*
X150100000Y-48700000D01*
X150100000Y-50900000D01*
X152300000Y-50900000D01*
X152300000Y-48700000D01*
X150100000Y-48700000D01*
X146060243Y-48700000D01*
X146115063Y-48495408D01*
X146135659Y-48260000D01*
X146115063Y-48024592D01*
X146053903Y-47796337D01*
X145954035Y-47582171D01*
X145818495Y-47388599D01*
X145696181Y-47266285D01*
X145664885Y-47213539D01*
X145662696Y-47152246D01*
X145690149Y-47097401D01*
X145740528Y-47062422D01*
X145872089Y-47013352D01*
X145987188Y-46927188D01*
X146073352Y-46812089D01*
X146123597Y-46677375D01*
X146130000Y-46617824D01*
X146130000Y-45970000D01*
X143430000Y-45970000D01*
X143430000Y-46617824D01*
X143436402Y-46677375D01*
X143486647Y-46812089D01*
X143572811Y-46927188D01*
X143687911Y-47013352D01*
X143819471Y-47062422D01*
X143869850Y-47097401D01*
X143897303Y-47152246D01*
X143895114Y-47213539D01*
X143863819Y-47266285D01*
X143741505Y-47388598D01*
X143711483Y-47431474D01*
X143676366Y-47481625D01*
X143632051Y-47520489D01*
X143574794Y-47534500D01*
X140905206Y-47534500D01*
X140847949Y-47520489D01*
X140803633Y-47481625D01*
X140738495Y-47388599D01*
X140616181Y-47266285D01*
X140584885Y-47213539D01*
X140582696Y-47152246D01*
X140610149Y-47097401D01*
X140660528Y-47062422D01*
X140792089Y-47013352D01*
X140907188Y-46927188D01*
X140993352Y-46812089D01*
X141043597Y-46677375D01*
X141050000Y-46617824D01*
X141050000Y-45970000D01*
X138350000Y-45970000D01*
X138350000Y-46617824D01*
X138356402Y-46677375D01*
X138406647Y-46812089D01*
X138492811Y-46927188D01*
X138607911Y-47013352D01*
X138739471Y-47062422D01*
X138789850Y-47097401D01*
X138817303Y-47152246D01*
X138815114Y-47213539D01*
X138783819Y-47266285D01*
X138661503Y-47388601D01*
X138525965Y-47582170D01*
X138426097Y-47796336D01*
X138364936Y-48024592D01*
X138344340Y-48259999D01*
X138364936Y-48495407D01*
X138409709Y-48662502D01*
X138426097Y-48723663D01*
X138525965Y-48937830D01*
X138661505Y-49131401D01*
X138828599Y-49298495D01*
X139014160Y-49428426D01*
X139053024Y-49472743D01*
X139067035Y-49530000D01*
X139053024Y-49587257D01*
X139014158Y-49631575D01*
X138874806Y-49729151D01*
X138828595Y-49761508D01*
X138661505Y-49928598D01*
X138525965Y-50122170D01*
X138426097Y-50336336D01*
X138364936Y-50564592D01*
X138344340Y-50799999D01*
X138364936Y-51035407D01*
X138383275Y-51103848D01*
X138426097Y-51263663D01*
X138525965Y-51477830D01*
X138661505Y-51671401D01*
X138828599Y-51838495D01*
X139014160Y-51968426D01*
X139053024Y-52012743D01*
X139067035Y-52070000D01*
X139053024Y-52127257D01*
X139014158Y-52171575D01*
X138863775Y-52276875D01*
X138828595Y-52301508D01*
X138661505Y-52468598D01*
X138525965Y-52662170D01*
X138426097Y-52876336D01*
X138364936Y-53104592D01*
X138344340Y-53340000D01*
X138364936Y-53575407D01*
X138394112Y-53684291D01*
X138426097Y-53803663D01*
X138525965Y-54017830D01*
X138661505Y-54211401D01*
X138828599Y-54378495D01*
X139014160Y-54508426D01*
X139053024Y-54552743D01*
X139067035Y-54610000D01*
X139053024Y-54667257D01*
X139014159Y-54711575D01*
X138828595Y-54841508D01*
X138661505Y-55008598D01*
X138525965Y-55202170D01*
X138426097Y-55416336D01*
X138364936Y-55644592D01*
X138344340Y-55880000D01*
X138364936Y-56115407D01*
X138398692Y-56241385D01*
X138426097Y-56343663D01*
X138525965Y-56557830D01*
X138661505Y-56751401D01*
X138661508Y-56751404D01*
X138783818Y-56873714D01*
X138815114Y-56926460D01*
X138817303Y-56987753D01*
X138789850Y-57042597D01*
X138739472Y-57077576D01*
X138607913Y-57126646D01*
X138492811Y-57212811D01*
X138406647Y-57327910D01*
X138356402Y-57462624D01*
X138350000Y-57522176D01*
X138350000Y-58170000D01*
X141050000Y-58170000D01*
X141050000Y-57522176D01*
X141043597Y-57462624D01*
X140993352Y-57327910D01*
X140907188Y-57212811D01*
X140792088Y-57126647D01*
X140660528Y-57077577D01*
X140610149Y-57042597D01*
X140582696Y-56987752D01*
X140584885Y-56926460D01*
X140616178Y-56873717D01*
X140738495Y-56751401D01*
X140803633Y-56658374D01*
X140847949Y-56619511D01*
X140905206Y-56605500D01*
X143574794Y-56605500D01*
X143632051Y-56619511D01*
X143676366Y-56658374D01*
X143741505Y-56751401D01*
X143741508Y-56751403D01*
X143741508Y-56751404D01*
X143863818Y-56873714D01*
X143895114Y-56926460D01*
X143897303Y-56987753D01*
X143869850Y-57042597D01*
X143819472Y-57077576D01*
X143687913Y-57126646D01*
X143572811Y-57212811D01*
X143486647Y-57327910D01*
X143436402Y-57462624D01*
X143430000Y-57522176D01*
X143430000Y-58170000D01*
X146130000Y-58170000D01*
X146130000Y-57522176D01*
X146123597Y-57462624D01*
X146073352Y-57327910D01*
X145987188Y-57212811D01*
X145872088Y-57126647D01*
X145740528Y-57077577D01*
X145690149Y-57042597D01*
X145662696Y-56987752D01*
X145664885Y-56926460D01*
X145696178Y-56873717D01*
X145818495Y-56751401D01*
X145918642Y-56608375D01*
X145962960Y-56569511D01*
X146020217Y-56555500D01*
X160496425Y-56555500D01*
X160543878Y-56564939D01*
X160584106Y-56591819D01*
X161224456Y-57232169D01*
X161257941Y-57293491D01*
X161252957Y-57363182D01*
X161215909Y-57462512D01*
X161209500Y-57522130D01*
X161209500Y-59317869D01*
X161215897Y-59377375D01*
X161215909Y-59377483D01*
X161266204Y-59512331D01*
X161352454Y-59627546D01*
X161467669Y-59713796D01*
X161557383Y-59747257D01*
X161599082Y-59762810D01*
X161649462Y-59797789D01*
X161676915Y-59852634D01*
X161674726Y-59913926D01*
X161643431Y-59966673D01*
X161521503Y-60088601D01*
X161385965Y-60282170D01*
X161286097Y-60496336D01*
X161224936Y-60724592D01*
X161204340Y-60959999D01*
X161224936Y-61195407D01*
X161243275Y-61263848D01*
X161286097Y-61423663D01*
X161385965Y-61637830D01*
X161521505Y-61831401D01*
X161688599Y-61998495D01*
X161874160Y-62128426D01*
X161913024Y-62172743D01*
X161927035Y-62230000D01*
X161913024Y-62287257D01*
X161874159Y-62331575D01*
X161688595Y-62461508D01*
X161521505Y-62628598D01*
X161385965Y-62822170D01*
X161286097Y-63036336D01*
X161224936Y-63264592D01*
X161204340Y-63500000D01*
X161224936Y-63735407D01*
X161267272Y-63893407D01*
X161269114Y-63949691D01*
X161245873Y-64000986D01*
X161202341Y-64036712D01*
X161147497Y-64049500D01*
X148876163Y-64049500D01*
X148828710Y-64040061D01*
X148788482Y-64013181D01*
X146135180Y-61359879D01*
X146103086Y-61304291D01*
X146103087Y-61240103D01*
X146115063Y-61195409D01*
X146135659Y-60959999D01*
X146115063Y-60724592D01*
X146096725Y-60656152D01*
X146053903Y-60496337D01*
X145954035Y-60282171D01*
X145818495Y-60088599D01*
X145696180Y-59966284D01*
X145664885Y-59913539D01*
X145662696Y-59852246D01*
X145690149Y-59797401D01*
X145740528Y-59762422D01*
X145872089Y-59713352D01*
X145987188Y-59627188D01*
X146073352Y-59512089D01*
X146123597Y-59377375D01*
X146130000Y-59317824D01*
X146130000Y-58670000D01*
X143430000Y-58670000D01*
X143430000Y-59317824D01*
X143436402Y-59377375D01*
X143486647Y-59512089D01*
X143572811Y-59627188D01*
X143687911Y-59713352D01*
X143819471Y-59762422D01*
X143869850Y-59797401D01*
X143897303Y-59852246D01*
X143895114Y-59913539D01*
X143863819Y-59966285D01*
X143741505Y-60088598D01*
X143737353Y-60094528D01*
X143676366Y-60181625D01*
X143632051Y-60220489D01*
X143574794Y-60234500D01*
X140905206Y-60234500D01*
X140847949Y-60220489D01*
X140803633Y-60181625D01*
X140738495Y-60088599D01*
X140616180Y-59966284D01*
X140584885Y-59913539D01*
X140582696Y-59852246D01*
X140610149Y-59797401D01*
X140660528Y-59762422D01*
X140792089Y-59713352D01*
X140907188Y-59627188D01*
X140993352Y-59512089D01*
X141043597Y-59377375D01*
X141050000Y-59317824D01*
X141050000Y-58670000D01*
X138350000Y-58670000D01*
X138350000Y-59317824D01*
X138356402Y-59377375D01*
X138406647Y-59512089D01*
X138492811Y-59627188D01*
X138607911Y-59713352D01*
X138739471Y-59762422D01*
X138789850Y-59797401D01*
X138817303Y-59852246D01*
X138815114Y-59913539D01*
X138783819Y-59966285D01*
X138661503Y-60088601D01*
X138525965Y-60282170D01*
X138426097Y-60496336D01*
X138364936Y-60724592D01*
X138344340Y-60959999D01*
X138364936Y-61195407D01*
X138383275Y-61263848D01*
X138426097Y-61423663D01*
X138525965Y-61637830D01*
X138661505Y-61831401D01*
X138828599Y-61998495D01*
X139014160Y-62128426D01*
X139053024Y-62172743D01*
X139067035Y-62230000D01*
X139053024Y-62287257D01*
X139014159Y-62331575D01*
X138828595Y-62461508D01*
X138661505Y-62628598D01*
X138525965Y-62822170D01*
X138426097Y-63036336D01*
X138364936Y-63264592D01*
X138344340Y-63499999D01*
X138364936Y-63735406D01*
X138376913Y-63780104D01*
X138376913Y-63844291D01*
X138344819Y-63899878D01*
X137080424Y-65164273D01*
X137074972Y-65169406D01*
X137031668Y-65207770D01*
X136998800Y-65255387D01*
X136994363Y-65261417D01*
X136958673Y-65306973D01*
X136954824Y-65315524D01*
X136943807Y-65335058D01*
X136938481Y-65342775D01*
X136917965Y-65396868D01*
X136915102Y-65403782D01*
X136891349Y-65456562D01*
X136889661Y-65465776D01*
X136883638Y-65487383D01*
X136880310Y-65496157D01*
X136873333Y-65553612D01*
X136872207Y-65561011D01*
X136861780Y-65617912D01*
X136865274Y-65675664D01*
X136865500Y-65683151D01*
X136865500Y-69206843D01*
X136857264Y-69251281D01*
X136833650Y-69289815D01*
X136808466Y-69317783D01*
X136713820Y-69481715D01*
X136655326Y-69661742D01*
X136635540Y-69849998D01*
X136655326Y-70038257D01*
X136713820Y-70218284D01*
X136808466Y-70382216D01*
X136935129Y-70522889D01*
X137088269Y-70634151D01*
X137261197Y-70711144D01*
X137446352Y-70750500D01*
X137446354Y-70750500D01*
X137635646Y-70750500D01*
X137635648Y-70750500D01*
X137759083Y-70724262D01*
X137820803Y-70711144D01*
X137993730Y-70634151D01*
X138015038Y-70618670D01*
X138153115Y-70518352D01*
X138216271Y-70495052D01*
X138282295Y-70508185D01*
X138331727Y-70553880D01*
X138350000Y-70618670D01*
X138350000Y-70870000D01*
X141050000Y-70870000D01*
X141050000Y-70222176D01*
X141043597Y-70162624D01*
X140993352Y-70027910D01*
X140907188Y-69912811D01*
X140792088Y-69826647D01*
X140660528Y-69777577D01*
X140610149Y-69742597D01*
X140582696Y-69687752D01*
X140584885Y-69626460D01*
X140616178Y-69573717D01*
X140738495Y-69451401D01*
X140874035Y-69257830D01*
X140973903Y-69043663D01*
X141035063Y-68815408D01*
X141055659Y-68580000D01*
X141035063Y-68344592D01*
X140973903Y-68116337D01*
X140874035Y-67902171D01*
X140738495Y-67708599D01*
X140571401Y-67541505D01*
X140385839Y-67411573D01*
X140346975Y-67367257D01*
X140332964Y-67310000D01*
X140346975Y-67252743D01*
X140385839Y-67208426D01*
X140571401Y-67078495D01*
X140738495Y-66911401D01*
X140874035Y-66717830D01*
X140973903Y-66503663D01*
X141035063Y-66275408D01*
X141055659Y-66040000D01*
X141035063Y-65804592D01*
X140973903Y-65576337D01*
X140874035Y-65362171D01*
X140738495Y-65168599D01*
X140571401Y-65001505D01*
X140385839Y-64871573D01*
X140346976Y-64827257D01*
X140332965Y-64770000D01*
X140346976Y-64712743D01*
X140385839Y-64668426D01*
X140571401Y-64538495D01*
X140738495Y-64371401D01*
X140874035Y-64177830D01*
X140973903Y-63963663D01*
X141035063Y-63735408D01*
X141055659Y-63500000D01*
X141035063Y-63264592D01*
X140973903Y-63036337D01*
X140874035Y-62822171D01*
X140738495Y-62628599D01*
X140571401Y-62461505D01*
X140385839Y-62331573D01*
X140346974Y-62287255D01*
X140332964Y-62229999D01*
X140346975Y-62172742D01*
X140385837Y-62128428D01*
X140571401Y-61998495D01*
X140738495Y-61831401D01*
X140803633Y-61738374D01*
X140847949Y-61699511D01*
X140905206Y-61685500D01*
X143574794Y-61685500D01*
X143632051Y-61699511D01*
X143676366Y-61738374D01*
X143741505Y-61831401D01*
X143908599Y-61998495D01*
X144094160Y-62128426D01*
X144133024Y-62172743D01*
X144147035Y-62230000D01*
X144133024Y-62287257D01*
X144094159Y-62331575D01*
X143908595Y-62461508D01*
X143741505Y-62628598D01*
X143605965Y-62822170D01*
X143506097Y-63036336D01*
X143444936Y-63264592D01*
X143424340Y-63500000D01*
X143444936Y-63735407D01*
X143478729Y-63861522D01*
X143506097Y-63963663D01*
X143605965Y-64177830D01*
X143741505Y-64371401D01*
X143908599Y-64538495D01*
X144094160Y-64668426D01*
X144133024Y-64712743D01*
X144147035Y-64770000D01*
X144133024Y-64827257D01*
X144094158Y-64871575D01*
X144002275Y-64935913D01*
X143908595Y-65001508D01*
X143741505Y-65168598D01*
X143605965Y-65362170D01*
X143506097Y-65576336D01*
X143444936Y-65804592D01*
X143424340Y-66040000D01*
X143444936Y-66275407D01*
X143463275Y-66343848D01*
X143506097Y-66503663D01*
X143605965Y-66717830D01*
X143741505Y-66911401D01*
X143908599Y-67078495D01*
X144094160Y-67208426D01*
X144133024Y-67252743D01*
X144147035Y-67310000D01*
X144133024Y-67367257D01*
X144094159Y-67411575D01*
X143908595Y-67541508D01*
X143741505Y-67708598D01*
X143605965Y-67902170D01*
X143506097Y-68116336D01*
X143444936Y-68344592D01*
X143424340Y-68579999D01*
X143444936Y-68815407D01*
X143474112Y-68924291D01*
X143506097Y-69043663D01*
X143605965Y-69257830D01*
X143741505Y-69451401D01*
X143741507Y-69451403D01*
X143741508Y-69451404D01*
X143863818Y-69573714D01*
X143895114Y-69626460D01*
X143897303Y-69687753D01*
X143869850Y-69742597D01*
X143819472Y-69777576D01*
X143687913Y-69826646D01*
X143572811Y-69912811D01*
X143486647Y-70027910D01*
X143436402Y-70162624D01*
X143430000Y-70222176D01*
X143430000Y-70870000D01*
X146130000Y-70870000D01*
X146130000Y-70222176D01*
X146123597Y-70162624D01*
X146073352Y-70027910D01*
X145987188Y-69912811D01*
X145872088Y-69826647D01*
X145740528Y-69777577D01*
X145690149Y-69742597D01*
X145662696Y-69687752D01*
X145664885Y-69626460D01*
X145696178Y-69573717D01*
X145818495Y-69451401D01*
X145954035Y-69257830D01*
X146053903Y-69043663D01*
X146115063Y-68815408D01*
X146135659Y-68580000D01*
X146115063Y-68344592D01*
X146053903Y-68116337D01*
X145954035Y-67902171D01*
X145818495Y-67708599D01*
X145651401Y-67541505D01*
X145465839Y-67411573D01*
X145426975Y-67367257D01*
X145412964Y-67310000D01*
X145426975Y-67252743D01*
X145465839Y-67208426D01*
X145651401Y-67078495D01*
X145818495Y-66911401D01*
X145918642Y-66768375D01*
X145962960Y-66729511D01*
X146020217Y-66715500D01*
X152587734Y-66715500D01*
X152653706Y-66734506D01*
X152699454Y-66785698D01*
X152710954Y-66853384D01*
X152694434Y-66999999D01*
X152714631Y-67179251D01*
X152714631Y-67179253D01*
X152714632Y-67179255D01*
X152774211Y-67349522D01*
X152774212Y-67349523D01*
X152870185Y-67502264D01*
X152997735Y-67629814D01*
X152997737Y-67629815D01*
X152997738Y-67629816D01*
X153150478Y-67725789D01*
X153308372Y-67781038D01*
X153355097Y-67810398D01*
X153505271Y-67960572D01*
X153510406Y-67966027D01*
X153548770Y-68009332D01*
X153596389Y-68042200D01*
X153602422Y-68046639D01*
X153647972Y-68082326D01*
X153656523Y-68086174D01*
X153676059Y-68097193D01*
X153683774Y-68102518D01*
X153737883Y-68123039D01*
X153744798Y-68125903D01*
X153797561Y-68149650D01*
X153806768Y-68151337D01*
X153828388Y-68157364D01*
X153837151Y-68160687D01*
X153837153Y-68160687D01*
X153837155Y-68160688D01*
X153894617Y-68167665D01*
X153901982Y-68168785D01*
X153958915Y-68179219D01*
X154016664Y-68175726D01*
X154024151Y-68175500D01*
X158168837Y-68175500D01*
X158216290Y-68184939D01*
X158256518Y-68211819D01*
X159837682Y-69792983D01*
X159864562Y-69833211D01*
X159874001Y-69880664D01*
X159874001Y-71532528D01*
X159860486Y-71588823D01*
X159822886Y-71632846D01*
X159769399Y-71655001D01*
X159711683Y-71650459D01*
X159662320Y-71620209D01*
X157081536Y-69039426D01*
X157076417Y-69033989D01*
X157038038Y-68990668D01*
X156990420Y-68957800D01*
X156984386Y-68953360D01*
X156953620Y-68929256D01*
X156938837Y-68917674D01*
X156938835Y-68917673D01*
X156930285Y-68913824D01*
X156910747Y-68902804D01*
X156903036Y-68897482D01*
X156848926Y-68876960D01*
X156842024Y-68874101D01*
X156810919Y-68860103D01*
X156789245Y-68850348D01*
X156780032Y-68848660D01*
X156758421Y-68842636D01*
X156749656Y-68839312D01*
X156692195Y-68832334D01*
X156684796Y-68831207D01*
X156627896Y-68820780D01*
X156572272Y-68824145D01*
X156570143Y-68824274D01*
X156562658Y-68824500D01*
X155965280Y-68824500D01*
X155899308Y-68805494D01*
X155889640Y-68799419D01*
X155849522Y-68774211D01*
X155679255Y-68714632D01*
X155679253Y-68714631D01*
X155679251Y-68714631D01*
X155500000Y-68694434D01*
X155320748Y-68714631D01*
X155320745Y-68714631D01*
X155320745Y-68714632D01*
X155150478Y-68774211D01*
X155150476Y-68774211D01*
X155150476Y-68774212D01*
X154997735Y-68870185D01*
X154870185Y-68997735D01*
X154793323Y-69120061D01*
X154774211Y-69150478D01*
X154715668Y-69317784D01*
X154714631Y-69320748D01*
X154694434Y-69500000D01*
X154714631Y-69679251D01*
X154714631Y-69679253D01*
X154714632Y-69679255D01*
X154774211Y-69849522D01*
X154776964Y-69853903D01*
X154870185Y-70002264D01*
X154997735Y-70129814D01*
X154997737Y-70129815D01*
X154997738Y-70129816D01*
X155150478Y-70225789D01*
X155320745Y-70285368D01*
X155500000Y-70305565D01*
X155679255Y-70285368D01*
X155849522Y-70225789D01*
X155899308Y-70194505D01*
X155965280Y-70175500D01*
X156255646Y-70175500D01*
X156303099Y-70184939D01*
X156343327Y-70211819D01*
X159206181Y-73074674D01*
X159233061Y-73114902D01*
X159242500Y-73162355D01*
X159242500Y-77806261D01*
X159242274Y-77813748D01*
X159238780Y-77871499D01*
X159249207Y-77928399D01*
X159250334Y-77935800D01*
X159255286Y-77976579D01*
X159247593Y-78036895D01*
X159212151Y-78086302D01*
X159157483Y-78112920D01*
X159096733Y-78110350D01*
X159044509Y-78079208D01*
X158191819Y-77226518D01*
X158164939Y-77186290D01*
X158155500Y-77138837D01*
X158155500Y-76665280D01*
X158174506Y-76599308D01*
X158178214Y-76593407D01*
X158205789Y-76549522D01*
X158265368Y-76379255D01*
X158285565Y-76200000D01*
X158265368Y-76020745D01*
X158205789Y-75850478D01*
X158109816Y-75697738D01*
X158109815Y-75697737D01*
X158109814Y-75697735D01*
X157982264Y-75570185D01*
X157893099Y-75514159D01*
X157829522Y-75474211D01*
X157659255Y-75414632D01*
X157659253Y-75414631D01*
X157659251Y-75414631D01*
X157479999Y-75394434D01*
X157404383Y-75402954D01*
X157336698Y-75391454D01*
X157285506Y-75345706D01*
X157266500Y-75279734D01*
X157266500Y-75141280D01*
X157285506Y-75075308D01*
X157316789Y-75025522D01*
X157376368Y-74855255D01*
X157396565Y-74676000D01*
X157376368Y-74496745D01*
X157316789Y-74326478D01*
X157220816Y-74173738D01*
X157220815Y-74173737D01*
X157220814Y-74173735D01*
X157093264Y-74046185D01*
X156962225Y-73963848D01*
X156940522Y-73950211D01*
X156770255Y-73890632D01*
X156770253Y-73890631D01*
X156770251Y-73890631D01*
X156591000Y-73870434D01*
X156411748Y-73890631D01*
X156241474Y-73950212D01*
X156212470Y-73968437D01*
X156146500Y-73987442D01*
X156080530Y-73968437D01*
X156051525Y-73950212D01*
X155942801Y-73912168D01*
X155881255Y-73890632D01*
X155881253Y-73890631D01*
X155881251Y-73890631D01*
X155702000Y-73870434D01*
X155522748Y-73890631D01*
X155522745Y-73890631D01*
X155522745Y-73890632D01*
X155352478Y-73950211D01*
X155352476Y-73950211D01*
X155352476Y-73950212D01*
X155199735Y-74046185D01*
X155072185Y-74173735D01*
X154976212Y-74326476D01*
X154916631Y-74496748D01*
X154896434Y-74676000D01*
X154916631Y-74855251D01*
X154916631Y-74855253D01*
X154916632Y-74855255D01*
X154976211Y-75025522D01*
X155007494Y-75075308D01*
X155026500Y-75141280D01*
X155026500Y-77634961D01*
X155026274Y-77642448D01*
X155022780Y-77700199D01*
X155033207Y-77757099D01*
X155034334Y-77764498D01*
X155041312Y-77821959D01*
X155044636Y-77830724D01*
X155050660Y-77852335D01*
X155052348Y-77861548D01*
X155056826Y-77871497D01*
X155076101Y-77914327D01*
X155078960Y-77921229D01*
X155099482Y-77975339D01*
X155104804Y-77983050D01*
X155115824Y-78002588D01*
X155119673Y-78011138D01*
X155119674Y-78011140D01*
X155150503Y-78050489D01*
X155155360Y-78056689D01*
X155159800Y-78062723D01*
X155192668Y-78110341D01*
X155235989Y-78148720D01*
X155241426Y-78153839D01*
X157081347Y-79993760D01*
X157110707Y-80040486D01*
X157165956Y-80198378D01*
X157261932Y-80351123D01*
X157389482Y-80478673D01*
X157389484Y-80478674D01*
X157389485Y-80478675D01*
X157542225Y-80574648D01*
X157712492Y-80634227D01*
X157724265Y-80635553D01*
X157776352Y-80653778D01*
X157815375Y-80692801D01*
X157901842Y-80830413D01*
X158029392Y-80957963D01*
X158029394Y-80957964D01*
X158029395Y-80957965D01*
X158182135Y-81053938D01*
X158352402Y-81113517D01*
X158481157Y-81128024D01*
X158533246Y-81146250D01*
X158572267Y-81185271D01*
X158628184Y-81274262D01*
X158755738Y-81401816D01*
X158908478Y-81497789D01*
X159078745Y-81557368D01*
X159258000Y-81577565D01*
X159437255Y-81557368D01*
X159607522Y-81497789D01*
X159760262Y-81401816D01*
X159887816Y-81274262D01*
X159983789Y-81121522D01*
X160043368Y-80951255D01*
X160063565Y-80772000D01*
X160043368Y-80592745D01*
X159983789Y-80422478D01*
X159952505Y-80372691D01*
X159933500Y-80306720D01*
X159933500Y-79272151D01*
X159933726Y-79264665D01*
X159933823Y-79263059D01*
X159937219Y-79206915D01*
X159926785Y-79149982D01*
X159925665Y-79142622D01*
X159920712Y-79101827D01*
X159928406Y-79041515D01*
X159963847Y-78992108D01*
X160018516Y-78965490D01*
X160079265Y-78968060D01*
X160131489Y-78999202D01*
X161455913Y-80323626D01*
X161485938Y-80372303D01*
X161490923Y-80429278D01*
X161469807Y-80482430D01*
X161385965Y-80602169D01*
X161286097Y-80816336D01*
X161224936Y-81044592D01*
X161204340Y-81280000D01*
X161224936Y-81515407D01*
X161243275Y-81583848D01*
X161286097Y-81743663D01*
X161385965Y-81957830D01*
X161521505Y-82151401D01*
X161521508Y-82151404D01*
X161643818Y-82273714D01*
X161675114Y-82326460D01*
X161677303Y-82387753D01*
X161649850Y-82442597D01*
X161599472Y-82477576D01*
X161467913Y-82526646D01*
X161352811Y-82612811D01*
X161266647Y-82727910D01*
X161216402Y-82862624D01*
X161210000Y-82922176D01*
X161210000Y-83570000D01*
X163910000Y-83570000D01*
X163910000Y-82922176D01*
X163903597Y-82862624D01*
X163853352Y-82727910D01*
X163767188Y-82612811D01*
X163652088Y-82526647D01*
X163520528Y-82477577D01*
X163470149Y-82442597D01*
X163442696Y-82387752D01*
X163444885Y-82326460D01*
X163476178Y-82273717D01*
X163598495Y-82151401D01*
X163734035Y-81957830D01*
X163833903Y-81743663D01*
X163895063Y-81515408D01*
X163915659Y-81280000D01*
X163895063Y-81044592D01*
X163852728Y-80886593D01*
X163850886Y-80830309D01*
X163874127Y-80779014D01*
X163917659Y-80743288D01*
X163972503Y-80730500D01*
X166227497Y-80730500D01*
X166282341Y-80743288D01*
X166325873Y-80779014D01*
X166349114Y-80830309D01*
X166347272Y-80886593D01*
X166304936Y-81044592D01*
X166284340Y-81280000D01*
X166304936Y-81515407D01*
X166323275Y-81583848D01*
X166366097Y-81743663D01*
X166465965Y-81957830D01*
X166601505Y-82151401D01*
X166601508Y-82151404D01*
X166723818Y-82273714D01*
X166755114Y-82326460D01*
X166757303Y-82387753D01*
X166729850Y-82442597D01*
X166679472Y-82477576D01*
X166547913Y-82526646D01*
X166432811Y-82612811D01*
X166346647Y-82727910D01*
X166296402Y-82862624D01*
X166290000Y-82922176D01*
X166290000Y-83570000D01*
X167766000Y-83570000D01*
X167828000Y-83586613D01*
X167873387Y-83632000D01*
X167890000Y-83694000D01*
X167890000Y-83946000D01*
X167873387Y-84008000D01*
X167828000Y-84053387D01*
X167766000Y-84070000D01*
X166290000Y-84070000D01*
X166290000Y-84717824D01*
X166296402Y-84777375D01*
X166346647Y-84912089D01*
X166432811Y-85027188D01*
X166547911Y-85113352D01*
X166679471Y-85162422D01*
X166729850Y-85197401D01*
X166757303Y-85252246D01*
X166755114Y-85313539D01*
X166723819Y-85366285D01*
X166601503Y-85488601D01*
X166465965Y-85682170D01*
X166366097Y-85896336D01*
X166304936Y-86124592D01*
X166284340Y-86360000D01*
X166304936Y-86595407D01*
X166368905Y-86834142D01*
X166367023Y-86834646D01*
X166375554Y-86880107D01*
X166356401Y-86938624D01*
X166311463Y-86980715D01*
X166251819Y-86996001D01*
X163948181Y-86996001D01*
X163888537Y-86980715D01*
X163843599Y-86938624D01*
X163824446Y-86880107D01*
X163832976Y-86834646D01*
X163831095Y-86834142D01*
X163836012Y-86815792D01*
X163895063Y-86595408D01*
X163915659Y-86360000D01*
X163895063Y-86124592D01*
X163833903Y-85896337D01*
X163734035Y-85682171D01*
X163598495Y-85488599D01*
X163476181Y-85366284D01*
X163444885Y-85313539D01*
X163442696Y-85252246D01*
X163470149Y-85197401D01*
X163520528Y-85162422D01*
X163652089Y-85113352D01*
X163767188Y-85027188D01*
X163853352Y-84912089D01*
X163903597Y-84777375D01*
X163910000Y-84717824D01*
X163910000Y-84070000D01*
X161210000Y-84070000D01*
X161210000Y-84717824D01*
X161216402Y-84777375D01*
X161266647Y-84912089D01*
X161352811Y-85027188D01*
X161467911Y-85113352D01*
X161599471Y-85162422D01*
X161649850Y-85197401D01*
X161677303Y-85252246D01*
X161675114Y-85313539D01*
X161643819Y-85366285D01*
X161521503Y-85488601D01*
X161385963Y-85682172D01*
X161361781Y-85734031D01*
X161324885Y-85780002D01*
X161270932Y-85803741D01*
X161212112Y-85799886D01*
X161161719Y-85769306D01*
X153671839Y-78279426D01*
X153666720Y-78273989D01*
X153628341Y-78230668D01*
X153580723Y-78197800D01*
X153574689Y-78193360D01*
X153560751Y-78182440D01*
X153529140Y-78157674D01*
X153529138Y-78157673D01*
X153520588Y-78153824D01*
X153501050Y-78142804D01*
X153493339Y-78137482D01*
X153439229Y-78116960D01*
X153432327Y-78114101D01*
X153406866Y-78102643D01*
X153379548Y-78090348D01*
X153370335Y-78088660D01*
X153348724Y-78082636D01*
X153339959Y-78079312D01*
X153282498Y-78072334D01*
X153275099Y-78071207D01*
X153218199Y-78060780D01*
X153162575Y-78064145D01*
X153160446Y-78064274D01*
X153152961Y-78064500D01*
X146020216Y-78064500D01*
X145962959Y-78050489D01*
X145918641Y-78011623D01*
X145850503Y-77914311D01*
X145818495Y-77868599D01*
X145651401Y-77701505D01*
X145465839Y-77571573D01*
X145426975Y-77527257D01*
X145412964Y-77470000D01*
X145426975Y-77412743D01*
X145465839Y-77368426D01*
X145651401Y-77238495D01*
X145818495Y-77071401D01*
X145954035Y-76877830D01*
X146053903Y-76663663D01*
X146115063Y-76435408D01*
X146135659Y-76200000D01*
X146115063Y-75964592D01*
X146053903Y-75736337D01*
X145954035Y-75522171D01*
X145818495Y-75328599D01*
X145651401Y-75161505D01*
X145465839Y-75031573D01*
X145426975Y-74987257D01*
X145412964Y-74930000D01*
X145426975Y-74872743D01*
X145465839Y-74828426D01*
X145651401Y-74698495D01*
X145818495Y-74531401D01*
X145954035Y-74337830D01*
X146053903Y-74123663D01*
X146115063Y-73895408D01*
X146135659Y-73660000D01*
X146115063Y-73424592D01*
X146053903Y-73196337D01*
X145954035Y-72982171D01*
X145818495Y-72788599D01*
X145696181Y-72666284D01*
X145664885Y-72613539D01*
X145662696Y-72552246D01*
X145690149Y-72497401D01*
X145740528Y-72462422D01*
X145872089Y-72413352D01*
X145987188Y-72327188D01*
X146073352Y-72212089D01*
X146123597Y-72077375D01*
X146130000Y-72017824D01*
X146130000Y-71370000D01*
X143430000Y-71370000D01*
X143430000Y-72017824D01*
X143436402Y-72077375D01*
X143486647Y-72212089D01*
X143572811Y-72327188D01*
X143687911Y-72413352D01*
X143819471Y-72462422D01*
X143869850Y-72497401D01*
X143897303Y-72552246D01*
X143895114Y-72613539D01*
X143863819Y-72666285D01*
X143741503Y-72788601D01*
X143605965Y-72982170D01*
X143506097Y-73196336D01*
X143444936Y-73424592D01*
X143424340Y-73659999D01*
X143444936Y-73895407D01*
X143485337Y-74046184D01*
X143506097Y-74123663D01*
X143605965Y-74337830D01*
X143741505Y-74531401D01*
X143908599Y-74698495D01*
X144094160Y-74828426D01*
X144133024Y-74872743D01*
X144147035Y-74930000D01*
X144133024Y-74987257D01*
X144094158Y-75031575D01*
X143937484Y-75141280D01*
X143908595Y-75161508D01*
X143741505Y-75328598D01*
X143605965Y-75522170D01*
X143506097Y-75736336D01*
X143444936Y-75964592D01*
X143424340Y-76200000D01*
X143444936Y-76435407D01*
X143487272Y-76593407D01*
X143506097Y-76663663D01*
X143605965Y-76877830D01*
X143741505Y-77071401D01*
X143908599Y-77238495D01*
X144094160Y-77368426D01*
X144133024Y-77412743D01*
X144147035Y-77470000D01*
X144133024Y-77527257D01*
X144094158Y-77571575D01*
X143992942Y-77642448D01*
X143908595Y-77701508D01*
X143741505Y-77868598D01*
X143605965Y-78062170D01*
X143506097Y-78276336D01*
X143444936Y-78504592D01*
X143424340Y-78739999D01*
X143444936Y-78975407D01*
X143462650Y-79041515D01*
X143506097Y-79203663D01*
X143605965Y-79417830D01*
X143741505Y-79611401D01*
X143908599Y-79778495D01*
X144094160Y-79908426D01*
X144133024Y-79952743D01*
X144147035Y-80010000D01*
X144133024Y-80067257D01*
X144094159Y-80111575D01*
X143908595Y-80241508D01*
X143741505Y-80408598D01*
X143605965Y-80602170D01*
X143506097Y-80816336D01*
X143444936Y-81044592D01*
X143424340Y-81280000D01*
X143444936Y-81515407D01*
X143463275Y-81583848D01*
X143506097Y-81743663D01*
X143605965Y-81957830D01*
X143741505Y-82151401D01*
X143741508Y-82151404D01*
X143863818Y-82273714D01*
X143895114Y-82326460D01*
X143897303Y-82387753D01*
X143869850Y-82442597D01*
X143819472Y-82477576D01*
X143687913Y-82526646D01*
X143572811Y-82612811D01*
X143486647Y-82727910D01*
X143436402Y-82862624D01*
X143430000Y-82922176D01*
X143430000Y-83570000D01*
X146130000Y-83570000D01*
X146130000Y-82922176D01*
X146123597Y-82862624D01*
X146073352Y-82727910D01*
X145987188Y-82612811D01*
X145872088Y-82526647D01*
X145740528Y-82477577D01*
X145690149Y-82442597D01*
X145662696Y-82387752D01*
X145664885Y-82326460D01*
X145696178Y-82273717D01*
X145818495Y-82151401D01*
X145918642Y-82008375D01*
X145962960Y-81969511D01*
X146020217Y-81955500D01*
X152053725Y-81955500D01*
X152101178Y-81964939D01*
X152141406Y-81991819D01*
X154733406Y-84583819D01*
X154763656Y-84633182D01*
X154768198Y-84690898D01*
X154746043Y-84744385D01*
X154702020Y-84781985D01*
X154645725Y-84795500D01*
X146254000Y-84795500D01*
X146192000Y-84778887D01*
X146146613Y-84733500D01*
X146130000Y-84671500D01*
X146130000Y-84070000D01*
X143430000Y-84070000D01*
X143430000Y-84717824D01*
X143436402Y-84777375D01*
X143486647Y-84912089D01*
X143572811Y-85027188D01*
X143687911Y-85113352D01*
X143819471Y-85162422D01*
X143869850Y-85197401D01*
X143897303Y-85252246D01*
X143895114Y-85313539D01*
X143863819Y-85366285D01*
X143741503Y-85488601D01*
X143605965Y-85682170D01*
X143506097Y-85896336D01*
X143444936Y-86124592D01*
X143424340Y-86360000D01*
X143444936Y-86595407D01*
X143479016Y-86722595D01*
X143506097Y-86823663D01*
X143605965Y-87037830D01*
X143741505Y-87231401D01*
X143908599Y-87398495D01*
X144094160Y-87528426D01*
X144133024Y-87572743D01*
X144147035Y-87630000D01*
X144133024Y-87687257D01*
X144094158Y-87731575D01*
X143913321Y-87858199D01*
X143908595Y-87861508D01*
X143741505Y-88028598D01*
X143605965Y-88222170D01*
X143506097Y-88436336D01*
X143444936Y-88664592D01*
X143424340Y-88899999D01*
X143444936Y-89135407D01*
X143476400Y-89252831D01*
X143506097Y-89363663D01*
X143605965Y-89577830D01*
X143741505Y-89771401D01*
X143908599Y-89938495D01*
X144102170Y-90074035D01*
X144316337Y-90173903D01*
X144533280Y-90232032D01*
X144544592Y-90235063D01*
X144779999Y-90255659D01*
X144779999Y-90255658D01*
X144780000Y-90255659D01*
X145015408Y-90235063D01*
X145243663Y-90173903D01*
X145457830Y-90074035D01*
X145651401Y-89938495D01*
X145818495Y-89771401D01*
X145954035Y-89577830D01*
X146053903Y-89363663D01*
X146115063Y-89135408D01*
X146135659Y-88900000D01*
X146115063Y-88664592D01*
X146103086Y-88619894D01*
X146103086Y-88555707D01*
X146135178Y-88500121D01*
X147055481Y-87579819D01*
X147095710Y-87552939D01*
X147143163Y-87543500D01*
X150047242Y-87543500D01*
X150103537Y-87557015D01*
X150147560Y-87594615D01*
X150169715Y-87648102D01*
X150165173Y-87705818D01*
X150134923Y-87755181D01*
X150091505Y-87798598D01*
X149955965Y-87992170D01*
X149856097Y-88206336D01*
X149794936Y-88434592D01*
X149774340Y-88670000D01*
X149794936Y-88905405D01*
X149821856Y-89005871D01*
X149821856Y-89070058D01*
X149789762Y-89125646D01*
X144286147Y-94629260D01*
X144239720Y-94658515D01*
X144185213Y-94664869D01*
X144159105Y-94662062D01*
X144153872Y-94661500D01*
X142358130Y-94661500D01*
X142298515Y-94667909D01*
X142163669Y-94718204D01*
X142048454Y-94804454D01*
X141962204Y-94919668D01*
X141911909Y-95054516D01*
X141905500Y-95114130D01*
X141905500Y-96909869D01*
X141911909Y-96969484D01*
X141917502Y-96984479D01*
X141962204Y-97104331D01*
X142048454Y-97219546D01*
X142163669Y-97305796D01*
X142298517Y-97356091D01*
X142358127Y-97362500D01*
X144153872Y-97362499D01*
X144213483Y-97356091D01*
X144348331Y-97305796D01*
X144463546Y-97219546D01*
X144549796Y-97104331D01*
X144599003Y-96972398D01*
X144633981Y-96922021D01*
X144688826Y-96894568D01*
X144750119Y-96896757D01*
X144802865Y-96928053D01*
X144924918Y-97050106D01*
X145118423Y-97185600D01*
X145332507Y-97285430D01*
X145545999Y-97342635D01*
X145546000Y-97342636D01*
X145546000Y-95886000D01*
X145562613Y-95824000D01*
X145608000Y-95778613D01*
X145670000Y-95762000D01*
X145922000Y-95762000D01*
X145984000Y-95778613D01*
X146029387Y-95824000D01*
X146046000Y-95886000D01*
X146046000Y-97342635D01*
X146259492Y-97285430D01*
X146473576Y-97185600D01*
X146667081Y-97050106D01*
X146834109Y-96883078D01*
X146964119Y-96697405D01*
X147008437Y-96658539D01*
X147065694Y-96644528D01*
X147122951Y-96658539D01*
X147167267Y-96697402D01*
X147297505Y-96883401D01*
X147464599Y-97050495D01*
X147658170Y-97186035D01*
X147872337Y-97285903D01*
X148100592Y-97347063D01*
X148336000Y-97367659D01*
X148571408Y-97347063D01*
X148799663Y-97285903D01*
X149013830Y-97186035D01*
X149207401Y-97050495D01*
X149288896Y-96969000D01*
X153694434Y-96969000D01*
X153714631Y-97148251D01*
X153714631Y-97148253D01*
X153714632Y-97148255D01*
X153774211Y-97318522D01*
X153824964Y-97399295D01*
X153870185Y-97471264D01*
X153997735Y-97598814D01*
X153997737Y-97598815D01*
X153997738Y-97598816D01*
X154150478Y-97694789D01*
X154320745Y-97754368D01*
X154500000Y-97774565D01*
X154679255Y-97754368D01*
X154849522Y-97694789D01*
X155002262Y-97598816D01*
X155129816Y-97471262D01*
X155225789Y-97318522D01*
X155281040Y-97160622D01*
X155310396Y-97113903D01*
X156960588Y-95463711D01*
X156966007Y-95458610D01*
X157009332Y-95420229D01*
X157042219Y-95372581D01*
X157046613Y-95366609D01*
X157082326Y-95321028D01*
X157086171Y-95312484D01*
X157097197Y-95292935D01*
X157098467Y-95291094D01*
X157102518Y-95285226D01*
X157123036Y-95231122D01*
X157125901Y-95224207D01*
X157149648Y-95171444D01*
X157149648Y-95171443D01*
X157149650Y-95171439D01*
X157151338Y-95162222D01*
X157157364Y-95140608D01*
X157160688Y-95131845D01*
X157167663Y-95074396D01*
X157168790Y-95066993D01*
X157179219Y-95010084D01*
X157175726Y-94952335D01*
X157175500Y-94944849D01*
X157175500Y-92965280D01*
X157194506Y-92899308D01*
X157201668Y-92887910D01*
X157225789Y-92849522D01*
X157285368Y-92679255D01*
X157305565Y-92500000D01*
X157285368Y-92320745D01*
X157225789Y-92150478D01*
X157129816Y-91997738D01*
X157129815Y-91997737D01*
X157129814Y-91997735D01*
X157002264Y-91870185D01*
X156915733Y-91815814D01*
X156849522Y-91774211D01*
X156679255Y-91714632D01*
X156679253Y-91714631D01*
X156679251Y-91714631D01*
X156500000Y-91694434D01*
X156320748Y-91714631D01*
X156320745Y-91714631D01*
X156320745Y-91714632D01*
X156150478Y-91774211D01*
X156150476Y-91774211D01*
X156150476Y-91774212D01*
X155997735Y-91870185D01*
X155870185Y-91997735D01*
X155793650Y-92119541D01*
X155774211Y-92150478D01*
X155721335Y-92301588D01*
X155714631Y-92320748D01*
X155694434Y-92500000D01*
X155714631Y-92679251D01*
X155714631Y-92679253D01*
X155714632Y-92679255D01*
X155774211Y-92849522D01*
X155798332Y-92887910D01*
X155805494Y-92899308D01*
X155824500Y-92965280D01*
X155824500Y-94637837D01*
X155815061Y-94685290D01*
X155788181Y-94725518D01*
X154355095Y-96158602D01*
X154308369Y-96187962D01*
X154150480Y-96243209D01*
X153997735Y-96339185D01*
X153870185Y-96466735D01*
X153836717Y-96520000D01*
X153774211Y-96619478D01*
X153726647Y-96755407D01*
X153714631Y-96789748D01*
X153694434Y-96969000D01*
X149288896Y-96969000D01*
X149374495Y-96883401D01*
X149510035Y-96689830D01*
X149609903Y-96475663D01*
X149671063Y-96247408D01*
X149681882Y-96123730D01*
X149693028Y-96082136D01*
X149717726Y-96046862D01*
X155754354Y-90010235D01*
X155809940Y-89978143D01*
X155874124Y-89978143D01*
X155974592Y-90005063D01*
X156210000Y-90025659D01*
X156445408Y-90005063D01*
X156673663Y-89943903D01*
X156887830Y-89844035D01*
X157081401Y-89708495D01*
X157248495Y-89541401D01*
X157384035Y-89347830D01*
X157483903Y-89133663D01*
X157545063Y-88905408D01*
X157565659Y-88670000D01*
X157545063Y-88434592D01*
X157483903Y-88206337D01*
X157384035Y-87992171D01*
X157248495Y-87798599D01*
X157081401Y-87631505D01*
X156887830Y-87495965D01*
X156818731Y-87463743D01*
X156766696Y-87418204D01*
X156747139Y-87351877D01*
X156766143Y-87285391D01*
X156808789Y-87217522D01*
X156868368Y-87047255D01*
X156872800Y-87007913D01*
X156899074Y-86944483D01*
X156955066Y-86904755D01*
X157023614Y-86900905D01*
X157083701Y-86934114D01*
X157544706Y-87395120D01*
X157996680Y-87847094D01*
X158023560Y-87887322D01*
X158032999Y-87934775D01*
X158032999Y-91135460D01*
X158032773Y-91142947D01*
X158029279Y-91200698D01*
X158039706Y-91257598D01*
X158040833Y-91264997D01*
X158047811Y-91322458D01*
X158051135Y-91331223D01*
X158057159Y-91352834D01*
X158058847Y-91362047D01*
X158060291Y-91365255D01*
X158082600Y-91414826D01*
X158085459Y-91421728D01*
X158105981Y-91475838D01*
X158111303Y-91483549D01*
X158122323Y-91503087D01*
X158123499Y-91505699D01*
X158126173Y-91511639D01*
X158151688Y-91544206D01*
X158161859Y-91557188D01*
X158166299Y-91563222D01*
X158199167Y-91610840D01*
X158242488Y-91649219D01*
X158247925Y-91654338D01*
X158831161Y-92237574D01*
X158836296Y-92243029D01*
X158874660Y-92286334D01*
X158922279Y-92319202D01*
X158928312Y-92323641D01*
X158973862Y-92359328D01*
X158982413Y-92363176D01*
X159001949Y-92374195D01*
X159009664Y-92379520D01*
X159063773Y-92400041D01*
X159070688Y-92402905D01*
X159123451Y-92426652D01*
X159132658Y-92428339D01*
X159154278Y-92434366D01*
X159163041Y-92437689D01*
X159163043Y-92437689D01*
X159163045Y-92437690D01*
X159195325Y-92441609D01*
X159250960Y-92462753D01*
X159290335Y-92507386D01*
X159304377Y-92565225D01*
X159289851Y-92622944D01*
X159250103Y-92667245D01*
X159217933Y-92679162D01*
X159218933Y-92682018D01*
X159205747Y-92686631D01*
X159205745Y-92686632D01*
X159035478Y-92746211D01*
X159035476Y-92746211D01*
X159035476Y-92746212D01*
X158882736Y-92842184D01*
X158879812Y-92845109D01*
X158833086Y-92874467D01*
X158778249Y-92880644D01*
X158726163Y-92862418D01*
X158595381Y-92780244D01*
X158591522Y-92777819D01*
X158421255Y-92718240D01*
X158421253Y-92718239D01*
X158421251Y-92718239D01*
X158242000Y-92698042D01*
X158062748Y-92718239D01*
X158062745Y-92718239D01*
X158062745Y-92718240D01*
X157892478Y-92777819D01*
X157892476Y-92777819D01*
X157892476Y-92777820D01*
X157739735Y-92873793D01*
X157612185Y-93001343D01*
X157521664Y-93145407D01*
X157516211Y-93154086D01*
X157481176Y-93254211D01*
X157456631Y-93324356D01*
X157436434Y-93503608D01*
X157456631Y-93682859D01*
X157456631Y-93682861D01*
X157456632Y-93682863D01*
X157516211Y-93853130D01*
X157516212Y-93853131D01*
X157547494Y-93902916D01*
X157566500Y-93968888D01*
X157566500Y-107417849D01*
X157566274Y-107425336D01*
X157562780Y-107483087D01*
X157573207Y-107539987D01*
X157574334Y-107547386D01*
X157581312Y-107604847D01*
X157584636Y-107613612D01*
X157590660Y-107635223D01*
X157592348Y-107644436D01*
X157604643Y-107671754D01*
X157616101Y-107697215D01*
X157618960Y-107704117D01*
X157639482Y-107758227D01*
X157644804Y-107765938D01*
X157655824Y-107785476D01*
X157659673Y-107794026D01*
X157659674Y-107794028D01*
X157663905Y-107799428D01*
X157695360Y-107839577D01*
X157699800Y-107845611D01*
X157732668Y-107893229D01*
X157775989Y-107931608D01*
X157781426Y-107936727D01*
X159525271Y-109680572D01*
X159530406Y-109686027D01*
X159568770Y-109729332D01*
X159616389Y-109762200D01*
X159622422Y-109766639D01*
X159667972Y-109802326D01*
X159676523Y-109806174D01*
X159696059Y-109817193D01*
X159703774Y-109822518D01*
X159757883Y-109843039D01*
X159764798Y-109845903D01*
X159817561Y-109869650D01*
X159826768Y-109871337D01*
X159848388Y-109877364D01*
X159857151Y-109880687D01*
X159857153Y-109880687D01*
X159857155Y-109880688D01*
X159914617Y-109887665D01*
X159921982Y-109888785D01*
X159978915Y-109899219D01*
X160036664Y-109895726D01*
X160044151Y-109895500D01*
X171479783Y-109895500D01*
X171537040Y-109909511D01*
X171581357Y-109948375D01*
X171681505Y-110091401D01*
X171848599Y-110258495D01*
X171871350Y-110274426D01*
X171911677Y-110321642D01*
X171924057Y-110382489D01*
X171905385Y-110441710D01*
X171860343Y-110484453D01*
X171800227Y-110500000D01*
X134351362Y-110500000D01*
X134303909Y-110490561D01*
X134263681Y-110463681D01*
X132736319Y-108936319D01*
X132709439Y-108896091D01*
X132700000Y-108848638D01*
X132700000Y-108322535D01*
X133697500Y-108322535D01*
X133732813Y-108534159D01*
X133736520Y-108556371D01*
X133813496Y-108780595D01*
X133926329Y-108989091D01*
X133926330Y-108989092D01*
X134071939Y-109176172D01*
X134127862Y-109227652D01*
X134246357Y-109336735D01*
X134444824Y-109466399D01*
X134661925Y-109561629D01*
X134891740Y-109619826D01*
X134962575Y-109625695D01*
X135068823Y-109634500D01*
X135068829Y-109634500D01*
X135187171Y-109634500D01*
X135187177Y-109634500D01*
X135283765Y-109626495D01*
X135364260Y-109619826D01*
X135594075Y-109561629D01*
X135811176Y-109466399D01*
X136009643Y-109336735D01*
X136184060Y-109176172D01*
X136329671Y-108989091D01*
X136442504Y-108780595D01*
X136519480Y-108556371D01*
X136558500Y-108322535D01*
X136558500Y-108085465D01*
X136519480Y-107851629D01*
X136442504Y-107627405D01*
X136329671Y-107418909D01*
X136247211Y-107312964D01*
X136184060Y-107231827D01*
X136088287Y-107143662D01*
X136009643Y-107071265D01*
X135811176Y-106941601D01*
X135594075Y-106846371D01*
X135364260Y-106788174D01*
X135364258Y-106788173D01*
X135364255Y-106788173D01*
X135187177Y-106773500D01*
X135187171Y-106773500D01*
X135068829Y-106773500D01*
X135068823Y-106773500D01*
X134891744Y-106788173D01*
X134661925Y-106846371D01*
X134444821Y-106941602D01*
X134246358Y-107071264D01*
X134071939Y-107231827D01*
X133926330Y-107418907D01*
X133926328Y-107418909D01*
X133926329Y-107418909D01*
X133820961Y-107613612D01*
X133813494Y-107627409D01*
X133736520Y-107851627D01*
X133697500Y-108085465D01*
X133697500Y-108322535D01*
X132700000Y-108322535D01*
X132700000Y-88899999D01*
X138344340Y-88899999D01*
X138364936Y-89135407D01*
X138396400Y-89252831D01*
X138426097Y-89363663D01*
X138525965Y-89577830D01*
X138661505Y-89771401D01*
X138828599Y-89938495D01*
X139022170Y-90074035D01*
X139236337Y-90173903D01*
X139453280Y-90232032D01*
X139464592Y-90235063D01*
X139699999Y-90255659D01*
X139699999Y-90255658D01*
X139700000Y-90255659D01*
X139935408Y-90235063D01*
X140163663Y-90173903D01*
X140377830Y-90074035D01*
X140571401Y-89938495D01*
X140738495Y-89771401D01*
X140874035Y-89577830D01*
X140973903Y-89363663D01*
X141035063Y-89135408D01*
X141055659Y-88900000D01*
X141035063Y-88664592D01*
X140973903Y-88436337D01*
X140874035Y-88222171D01*
X140738495Y-88028599D01*
X140571401Y-87861505D01*
X140385839Y-87731573D01*
X140346975Y-87687257D01*
X140332964Y-87630000D01*
X140346975Y-87572743D01*
X140385839Y-87528426D01*
X140571401Y-87398495D01*
X140738495Y-87231401D01*
X140874035Y-87037830D01*
X140973903Y-86823663D01*
X141035063Y-86595408D01*
X141055659Y-86360000D01*
X141035063Y-86124592D01*
X140973903Y-85896337D01*
X140874035Y-85682171D01*
X140738495Y-85488599D01*
X140616181Y-85366284D01*
X140584885Y-85313539D01*
X140582696Y-85252246D01*
X140610149Y-85197401D01*
X140660528Y-85162422D01*
X140792089Y-85113352D01*
X140907188Y-85027188D01*
X140993352Y-84912089D01*
X141043597Y-84777375D01*
X141050000Y-84717824D01*
X141050000Y-84070000D01*
X138350000Y-84070000D01*
X138350000Y-84717824D01*
X138356402Y-84777375D01*
X138406647Y-84912089D01*
X138492811Y-85027188D01*
X138607911Y-85113352D01*
X138739471Y-85162422D01*
X138789850Y-85197401D01*
X138817303Y-85252246D01*
X138815114Y-85313539D01*
X138783819Y-85366285D01*
X138661503Y-85488601D01*
X138525965Y-85682170D01*
X138426097Y-85896336D01*
X138364936Y-86124592D01*
X138344340Y-86360000D01*
X138364936Y-86595407D01*
X138399016Y-86722595D01*
X138426097Y-86823663D01*
X138525965Y-87037830D01*
X138661505Y-87231401D01*
X138828599Y-87398495D01*
X139014160Y-87528426D01*
X139053024Y-87572743D01*
X139067035Y-87630000D01*
X139053024Y-87687257D01*
X139014158Y-87731575D01*
X138833321Y-87858199D01*
X138828595Y-87861508D01*
X138661505Y-88028598D01*
X138525965Y-88222170D01*
X138426097Y-88436336D01*
X138364936Y-88664592D01*
X138344340Y-88899999D01*
X132700000Y-88899999D01*
X132700000Y-81280000D01*
X138344340Y-81280000D01*
X138364936Y-81515407D01*
X138383275Y-81583848D01*
X138426097Y-81743663D01*
X138525965Y-81957830D01*
X138661505Y-82151401D01*
X138661508Y-82151404D01*
X138783818Y-82273714D01*
X138815114Y-82326460D01*
X138817303Y-82387753D01*
X138789850Y-82442597D01*
X138739472Y-82477576D01*
X138607913Y-82526646D01*
X138492811Y-82612811D01*
X138406647Y-82727910D01*
X138356402Y-82862624D01*
X138350000Y-82922176D01*
X138350000Y-83570000D01*
X141050000Y-83570000D01*
X141050000Y-82922176D01*
X141043597Y-82862624D01*
X140993352Y-82727910D01*
X140907188Y-82612811D01*
X140792088Y-82526647D01*
X140660528Y-82477577D01*
X140610149Y-82442597D01*
X140582696Y-82387752D01*
X140584885Y-82326460D01*
X140616178Y-82273717D01*
X140738495Y-82151401D01*
X140874035Y-81957830D01*
X140973903Y-81743663D01*
X141035063Y-81515408D01*
X141055659Y-81280000D01*
X141035063Y-81044592D01*
X140973903Y-80816337D01*
X140874035Y-80602171D01*
X140738495Y-80408599D01*
X140571401Y-80241505D01*
X140385839Y-80111573D01*
X140346976Y-80067257D01*
X140332965Y-80010000D01*
X140346976Y-79952743D01*
X140385839Y-79908426D01*
X140571401Y-79778495D01*
X140738495Y-79611401D01*
X140874035Y-79417830D01*
X140973903Y-79203663D01*
X141035063Y-78975408D01*
X141055659Y-78740000D01*
X141035063Y-78504592D01*
X140973903Y-78276337D01*
X140874035Y-78062171D01*
X140738495Y-77868599D01*
X140571401Y-77701505D01*
X140385839Y-77571573D01*
X140346975Y-77527257D01*
X140332964Y-77470000D01*
X140346975Y-77412743D01*
X140385839Y-77368426D01*
X140571401Y-77238495D01*
X140738495Y-77071401D01*
X140874035Y-76877830D01*
X140973903Y-76663663D01*
X141035063Y-76435408D01*
X141055659Y-76200000D01*
X141035063Y-75964592D01*
X140973903Y-75736337D01*
X140874035Y-75522171D01*
X140738495Y-75328599D01*
X140571401Y-75161505D01*
X140385839Y-75031573D01*
X140346975Y-74987257D01*
X140332964Y-74930000D01*
X140346975Y-74872743D01*
X140385839Y-74828426D01*
X140571401Y-74698495D01*
X140738495Y-74531401D01*
X140874035Y-74337830D01*
X140973903Y-74123663D01*
X141035063Y-73895408D01*
X141055659Y-73660000D01*
X141035063Y-73424592D01*
X140973903Y-73196337D01*
X140874035Y-72982171D01*
X140738495Y-72788599D01*
X140616181Y-72666284D01*
X140584885Y-72613539D01*
X140582696Y-72552246D01*
X140610149Y-72497401D01*
X140660528Y-72462422D01*
X140792089Y-72413352D01*
X140907188Y-72327188D01*
X140993352Y-72212089D01*
X141043597Y-72077375D01*
X141050000Y-72017824D01*
X141050000Y-71370000D01*
X138350000Y-71370000D01*
X138350000Y-72017824D01*
X138356402Y-72077375D01*
X138406647Y-72212089D01*
X138492811Y-72327188D01*
X138607911Y-72413352D01*
X138739471Y-72462422D01*
X138789850Y-72497401D01*
X138817303Y-72552246D01*
X138815114Y-72613539D01*
X138783819Y-72666285D01*
X138661503Y-72788601D01*
X138525965Y-72982170D01*
X138426097Y-73196336D01*
X138364936Y-73424592D01*
X138344340Y-73660000D01*
X138364936Y-73895407D01*
X138405337Y-74046184D01*
X138426097Y-74123663D01*
X138525965Y-74337830D01*
X138661505Y-74531401D01*
X138828599Y-74698495D01*
X139014160Y-74828426D01*
X139053024Y-74872743D01*
X139067035Y-74930000D01*
X139053024Y-74987257D01*
X139014158Y-75031575D01*
X138857484Y-75141280D01*
X138828595Y-75161508D01*
X138661505Y-75328598D01*
X138525965Y-75522170D01*
X138426097Y-75736336D01*
X138364936Y-75964592D01*
X138344340Y-76199999D01*
X138364936Y-76435407D01*
X138407272Y-76593407D01*
X138426097Y-76663663D01*
X138525965Y-76877830D01*
X138661505Y-77071401D01*
X138828599Y-77238495D01*
X139014160Y-77368426D01*
X139053024Y-77412743D01*
X139067035Y-77470000D01*
X139053024Y-77527257D01*
X139014158Y-77571575D01*
X138912942Y-77642448D01*
X138828595Y-77701508D01*
X138661505Y-77868598D01*
X138525965Y-78062170D01*
X138426097Y-78276336D01*
X138364936Y-78504592D01*
X138344340Y-78739999D01*
X138364936Y-78975407D01*
X138382650Y-79041515D01*
X138426097Y-79203663D01*
X138525965Y-79417830D01*
X138661505Y-79611401D01*
X138828599Y-79778495D01*
X139014160Y-79908426D01*
X139053024Y-79952743D01*
X139067035Y-80010000D01*
X139053024Y-80067257D01*
X139014159Y-80111575D01*
X138828595Y-80241508D01*
X138661505Y-80408598D01*
X138525965Y-80602170D01*
X138426097Y-80816336D01*
X138364936Y-81044592D01*
X138344340Y-81280000D01*
X132700000Y-81280000D01*
X132700000Y-41774535D01*
X133697500Y-41774535D01*
X133736520Y-42008372D01*
X133813494Y-42232590D01*
X133813496Y-42232595D01*
X133926329Y-42441091D01*
X133926330Y-42441092D01*
X134071939Y-42628172D01*
X134158620Y-42707967D01*
X134246357Y-42788735D01*
X134444824Y-42918399D01*
X134661925Y-43013629D01*
X134891740Y-43071826D01*
X134962575Y-43077695D01*
X135068823Y-43086500D01*
X135068829Y-43086500D01*
X135187171Y-43086500D01*
X135187177Y-43086500D01*
X135283764Y-43078496D01*
X135364260Y-43071826D01*
X135594075Y-43013629D01*
X135811176Y-42918399D01*
X136009643Y-42788735D01*
X136184060Y-42628172D01*
X136329671Y-42441091D01*
X136442504Y-42232595D01*
X136519480Y-42008371D01*
X136558500Y-41774535D01*
X136558500Y-41537465D01*
X136519480Y-41303629D01*
X136442504Y-41079405D01*
X136329671Y-40870909D01*
X136267057Y-40790462D01*
X136184060Y-40683827D01*
X136062194Y-40571642D01*
X136009643Y-40523265D01*
X135894936Y-40448324D01*
X135811178Y-40393602D01*
X135811176Y-40393601D01*
X135594075Y-40298371D01*
X135364260Y-40240174D01*
X135364258Y-40240173D01*
X135364255Y-40240173D01*
X135187177Y-40225500D01*
X135187171Y-40225500D01*
X135068829Y-40225500D01*
X135068823Y-40225500D01*
X134891744Y-40240173D01*
X134661925Y-40298371D01*
X134444821Y-40393602D01*
X134246358Y-40523264D01*
X134071939Y-40683827D01*
X133926330Y-40870907D01*
X133926328Y-40870909D01*
X133926329Y-40870909D01*
X133843193Y-41024531D01*
X133813494Y-41079409D01*
X133736520Y-41303627D01*
X133697500Y-41537465D01*
X133697500Y-41774535D01*
X132700000Y-41774535D01*
X132700000Y-40751382D01*
X132709445Y-40703914D01*
X132736343Y-40663677D01*
X133006565Y-40393602D01*
X134163688Y-39237109D01*
X134203904Y-39210250D01*
X134251338Y-39200817D01*
X139031542Y-39200776D01*
X139095406Y-39218487D01*
G37*
G04 #@! TD.AperFunction*
G04 #@! TA.AperFunction,Conductor*
G36*
X159079818Y-104809232D02*
G01*
X159129180Y-104839481D01*
X160280187Y-105990489D01*
X161430279Y-107140581D01*
X161435413Y-107146035D01*
X161473771Y-107189332D01*
X161521405Y-107222211D01*
X161527407Y-107226627D01*
X161572972Y-107262325D01*
X161581510Y-107266167D01*
X161601061Y-107277194D01*
X161608775Y-107282519D01*
X161662883Y-107303039D01*
X161669798Y-107305903D01*
X161722560Y-107329649D01*
X161722561Y-107329650D01*
X161731767Y-107331337D01*
X161753389Y-107337363D01*
X161762155Y-107340688D01*
X161819617Y-107347665D01*
X161826982Y-107348785D01*
X161883915Y-107359219D01*
X161941657Y-107355726D01*
X161949145Y-107355500D01*
X171479783Y-107355500D01*
X171537040Y-107369511D01*
X171581357Y-107408375D01*
X171681505Y-107551401D01*
X171848599Y-107718495D01*
X172034160Y-107848426D01*
X172073024Y-107892743D01*
X172087035Y-107950000D01*
X172073024Y-108007257D01*
X172034158Y-108051575D01*
X171870579Y-108166115D01*
X171848595Y-108181508D01*
X171681505Y-108348598D01*
X171581359Y-108491623D01*
X171537041Y-108530489D01*
X171479784Y-108544500D01*
X160351163Y-108544500D01*
X160303710Y-108535061D01*
X160263482Y-108508181D01*
X158953819Y-107198518D01*
X158926939Y-107158290D01*
X158917500Y-107110837D01*
X158917500Y-104927163D01*
X158931015Y-104870868D01*
X158968615Y-104826845D01*
X159022102Y-104804690D01*
X159079818Y-104809232D01*
G37*
G04 #@! TD.AperFunction*
G04 #@! TA.AperFunction,Conductor*
G36*
X160222818Y-94426840D02*
G01*
X160272180Y-94457089D01*
X164089474Y-98274384D01*
X167875671Y-102060581D01*
X167880805Y-102066035D01*
X167919161Y-102109331D01*
X167966772Y-102142194D01*
X167972805Y-102146633D01*
X168018364Y-102182326D01*
X168026915Y-102186174D01*
X168046451Y-102197193D01*
X168054166Y-102202518D01*
X168108275Y-102223039D01*
X168115190Y-102225903D01*
X168167953Y-102249650D01*
X168177160Y-102251337D01*
X168198780Y-102257364D01*
X168207543Y-102260687D01*
X168207545Y-102260687D01*
X168207547Y-102260688D01*
X168265009Y-102267665D01*
X168272374Y-102268785D01*
X168329307Y-102279219D01*
X168387049Y-102275726D01*
X168394537Y-102275500D01*
X171479783Y-102275500D01*
X171537040Y-102289511D01*
X171581357Y-102328375D01*
X171681505Y-102471401D01*
X171848599Y-102638495D01*
X172034160Y-102768426D01*
X172073024Y-102812743D01*
X172087035Y-102870000D01*
X172073024Y-102927257D01*
X172034160Y-102971574D01*
X171870579Y-103086115D01*
X171848595Y-103101508D01*
X171681505Y-103268598D01*
X171545965Y-103462170D01*
X171446097Y-103676336D01*
X171384936Y-103904592D01*
X171364340Y-104140000D01*
X171384936Y-104375407D01*
X171429709Y-104542501D01*
X171446097Y-104603663D01*
X171545965Y-104817830D01*
X171681505Y-105011401D01*
X171848599Y-105178495D01*
X172034160Y-105308426D01*
X172073024Y-105352743D01*
X172087035Y-105410000D01*
X172073024Y-105467257D01*
X172034158Y-105511575D01*
X171870579Y-105626115D01*
X171848595Y-105641508D01*
X171681505Y-105808598D01*
X171581359Y-105951623D01*
X171537041Y-105990489D01*
X171479784Y-106004500D01*
X162256164Y-106004500D01*
X162208711Y-105995061D01*
X162168483Y-105968181D01*
X160096819Y-103896518D01*
X160069939Y-103856290D01*
X160060500Y-103808837D01*
X160060500Y-94544771D01*
X160074015Y-94488476D01*
X160111615Y-94444453D01*
X160165102Y-94422298D01*
X160222818Y-94426840D01*
G37*
G04 #@! TD.AperFunction*
G04 #@! TA.AperFunction,Conductor*
G36*
X171537040Y-99749511D02*
G01*
X171581357Y-99788375D01*
X171681505Y-99931401D01*
X171848599Y-100098495D01*
X172034160Y-100228426D01*
X172073024Y-100272743D01*
X172087035Y-100330000D01*
X172073024Y-100387257D01*
X172034160Y-100431574D01*
X171870579Y-100546115D01*
X171848595Y-100561508D01*
X171681505Y-100728598D01*
X171581359Y-100871623D01*
X171537041Y-100910489D01*
X171479784Y-100924500D01*
X168701556Y-100924500D01*
X168654103Y-100915061D01*
X168613875Y-100888181D01*
X167672875Y-99947181D01*
X167642625Y-99897818D01*
X167638083Y-99840102D01*
X167660238Y-99786615D01*
X167704261Y-99749015D01*
X167760556Y-99735500D01*
X171479783Y-99735500D01*
X171537040Y-99749511D01*
G37*
G04 #@! TD.AperFunction*
G04 #@! TA.AperFunction,Conductor*
G36*
X153858000Y-88436613D02*
G01*
X153903387Y-88482000D01*
X153920000Y-88544000D01*
X153920000Y-90024047D01*
X153910561Y-90071500D01*
X153883681Y-90111728D01*
X149171871Y-94823536D01*
X149123196Y-94853560D01*
X149066224Y-94858547D01*
X149024019Y-94841782D01*
X149023662Y-94842550D01*
X149013831Y-94837965D01*
X149013830Y-94837965D01*
X148799663Y-94738097D01*
X148738501Y-94721709D01*
X148571407Y-94676936D01*
X148336000Y-94656340D01*
X148100592Y-94676936D01*
X147872336Y-94738097D01*
X147658170Y-94837965D01*
X147464598Y-94973505D01*
X147297508Y-95140595D01*
X147297505Y-95140598D01*
X147297505Y-95140599D01*
X147223835Y-95245811D01*
X147167269Y-95326596D01*
X147122951Y-95365461D01*
X147065694Y-95379472D01*
X147008437Y-95365461D01*
X146964119Y-95326595D01*
X146834109Y-95140921D01*
X146667081Y-94973893D01*
X146473576Y-94838399D01*
X146259492Y-94738569D01*
X146219719Y-94727912D01*
X146164131Y-94695818D01*
X146132038Y-94640230D01*
X146132038Y-94576043D01*
X146164130Y-94520458D01*
X150674354Y-90010235D01*
X150729940Y-89978143D01*
X150794124Y-89978143D01*
X150894592Y-90005063D01*
X151130000Y-90025659D01*
X151365408Y-90005063D01*
X151593663Y-89943903D01*
X151807830Y-89844035D01*
X152001401Y-89708495D01*
X152123717Y-89586178D01*
X152176460Y-89554885D01*
X152237752Y-89552696D01*
X152292597Y-89580149D01*
X152327577Y-89630528D01*
X152376647Y-89762088D01*
X152462811Y-89877188D01*
X152577910Y-89963352D01*
X152712624Y-90013597D01*
X152772176Y-90020000D01*
X153420000Y-90020000D01*
X153420000Y-88544000D01*
X153436613Y-88482000D01*
X153482000Y-88436613D01*
X153544000Y-88420000D01*
X153796000Y-88420000D01*
X153858000Y-88436613D01*
G37*
G04 #@! TD.AperFunction*
G04 #@! TA.AperFunction,Conductor*
G36*
X164308878Y-65409939D02*
G01*
X164349106Y-65436819D01*
X166535913Y-67623626D01*
X166565938Y-67672303D01*
X166570923Y-67729278D01*
X166549807Y-67782430D01*
X166465965Y-67902169D01*
X166366097Y-68116336D01*
X166304936Y-68344592D01*
X166284340Y-68579999D01*
X166304936Y-68815407D01*
X166334112Y-68924291D01*
X166366097Y-69043663D01*
X166465965Y-69257830D01*
X166601505Y-69451401D01*
X166601507Y-69451403D01*
X166601508Y-69451404D01*
X166723818Y-69573714D01*
X166755114Y-69626460D01*
X166757303Y-69687753D01*
X166729850Y-69742597D01*
X166679472Y-69777576D01*
X166547913Y-69826646D01*
X166432811Y-69912811D01*
X166346647Y-70027910D01*
X166296402Y-70162624D01*
X166290000Y-70222176D01*
X166290000Y-70870000D01*
X168990000Y-70870000D01*
X168990000Y-70222176D01*
X168983597Y-70162624D01*
X168933352Y-70027910D01*
X168847188Y-69912811D01*
X168732088Y-69826647D01*
X168600528Y-69777577D01*
X168550149Y-69742597D01*
X168522696Y-69687752D01*
X168524885Y-69626460D01*
X168556178Y-69573717D01*
X168678495Y-69451401D01*
X168814035Y-69257830D01*
X168913903Y-69043663D01*
X168975063Y-68815408D01*
X168995659Y-68580000D01*
X168975063Y-68344592D01*
X168932728Y-68186593D01*
X168930886Y-68130309D01*
X168954127Y-68079014D01*
X168997659Y-68043288D01*
X169052503Y-68030500D01*
X171163837Y-68030500D01*
X171211290Y-68039939D01*
X171251518Y-68066819D01*
X171364819Y-68180120D01*
X171396913Y-68235707D01*
X171396913Y-68299893D01*
X171384936Y-68344591D01*
X171364340Y-68580000D01*
X171384936Y-68815407D01*
X171414112Y-68924291D01*
X171446097Y-69043663D01*
X171545965Y-69257830D01*
X171681505Y-69451401D01*
X171848599Y-69618495D01*
X172034160Y-69748426D01*
X172073024Y-69792743D01*
X172087035Y-69850000D01*
X172073024Y-69907257D01*
X172034160Y-69951574D01*
X171864015Y-70070711D01*
X171848595Y-70081508D01*
X171681505Y-70248598D01*
X171545965Y-70442170D01*
X171446097Y-70656336D01*
X171384936Y-70884592D01*
X171364340Y-71120000D01*
X171384936Y-71355407D01*
X171403275Y-71423848D01*
X171446097Y-71583663D01*
X171545965Y-71797830D01*
X171681505Y-71991401D01*
X171848599Y-72158495D01*
X172034160Y-72288426D01*
X172073024Y-72332743D01*
X172087035Y-72390000D01*
X172073024Y-72447257D01*
X172034158Y-72491575D01*
X171934503Y-72561355D01*
X171848595Y-72621508D01*
X171681505Y-72788598D01*
X171545965Y-72982170D01*
X171446097Y-73196336D01*
X171384936Y-73424592D01*
X171364340Y-73659999D01*
X171384936Y-73895407D01*
X171448905Y-74134142D01*
X171447953Y-74134397D01*
X171457184Y-74183613D01*
X171438030Y-74242127D01*
X171393092Y-74284215D01*
X171333450Y-74299500D01*
X169026550Y-74299500D01*
X168966908Y-74284215D01*
X168921970Y-74242127D01*
X168902816Y-74183613D01*
X168912046Y-74134397D01*
X168911095Y-74134142D01*
X168917647Y-74109691D01*
X168975063Y-73895408D01*
X168995659Y-73660000D01*
X168975063Y-73424592D01*
X168913903Y-73196337D01*
X168814035Y-72982171D01*
X168678495Y-72788599D01*
X168556181Y-72666284D01*
X168524885Y-72613539D01*
X168522696Y-72552246D01*
X168550149Y-72497401D01*
X168600528Y-72462422D01*
X168732089Y-72413352D01*
X168847188Y-72327188D01*
X168933352Y-72212089D01*
X168983597Y-72077375D01*
X168990000Y-72017824D01*
X168990000Y-71370000D01*
X166290000Y-71370000D01*
X166290000Y-72017824D01*
X166296402Y-72077375D01*
X166346647Y-72212089D01*
X166432811Y-72327188D01*
X166547911Y-72413352D01*
X166679471Y-72462422D01*
X166729850Y-72497401D01*
X166757303Y-72552246D01*
X166755114Y-72613539D01*
X166723819Y-72666285D01*
X166601503Y-72788601D01*
X166465965Y-72982170D01*
X166366097Y-73196336D01*
X166304936Y-73424592D01*
X166284340Y-73659999D01*
X166304936Y-73895407D01*
X166368905Y-74134142D01*
X166367953Y-74134397D01*
X166377184Y-74183613D01*
X166358030Y-74242127D01*
X166313092Y-74284215D01*
X166253450Y-74299500D01*
X163946550Y-74299500D01*
X163886908Y-74284215D01*
X163841970Y-74242127D01*
X163822816Y-74183613D01*
X163832046Y-74134397D01*
X163831095Y-74134142D01*
X163837647Y-74109691D01*
X163895063Y-73895408D01*
X163915659Y-73660000D01*
X163895063Y-73424592D01*
X163833903Y-73196337D01*
X163734035Y-72982171D01*
X163598495Y-72788599D01*
X163476181Y-72666284D01*
X163444885Y-72613539D01*
X163442696Y-72552246D01*
X163470149Y-72497401D01*
X163520528Y-72462422D01*
X163652089Y-72413352D01*
X163767188Y-72327188D01*
X163853352Y-72212089D01*
X163903597Y-72077375D01*
X163910000Y-72017824D01*
X163910000Y-71370000D01*
X162434000Y-71370000D01*
X162372000Y-71353387D01*
X162326613Y-71308000D01*
X162310000Y-71246000D01*
X162310000Y-70994000D01*
X162326613Y-70932000D01*
X162372000Y-70886613D01*
X162434000Y-70870000D01*
X163910000Y-70870000D01*
X163910000Y-70222176D01*
X163903597Y-70162624D01*
X163853352Y-70027910D01*
X163767188Y-69912811D01*
X163652088Y-69826647D01*
X163520528Y-69777577D01*
X163470149Y-69742597D01*
X163442696Y-69687752D01*
X163444885Y-69626460D01*
X163476178Y-69573717D01*
X163598495Y-69451401D01*
X163734035Y-69257830D01*
X163833903Y-69043663D01*
X163895063Y-68815408D01*
X163915659Y-68580000D01*
X163895063Y-68344592D01*
X163833903Y-68116337D01*
X163734035Y-67902171D01*
X163598495Y-67708599D01*
X163431401Y-67541505D01*
X163245839Y-67411573D01*
X163206975Y-67367257D01*
X163192964Y-67310000D01*
X163206975Y-67252743D01*
X163245839Y-67208426D01*
X163431401Y-67078495D01*
X163598495Y-66911401D01*
X163734035Y-66717830D01*
X163833903Y-66503663D01*
X163895063Y-66275408D01*
X163915659Y-66040000D01*
X163895063Y-65804592D01*
X163833903Y-65576337D01*
X163833903Y-65576336D01*
X163831095Y-65565857D01*
X163832047Y-65565601D01*
X163822815Y-65516391D01*
X163841969Y-65457875D01*
X163886907Y-65415786D01*
X163946550Y-65400500D01*
X164261425Y-65400500D01*
X164308878Y-65409939D01*
G37*
G04 #@! TD.AperFunction*
G04 #@! TA.AperFunction,Conductor*
G36*
X203218238Y-39218104D02*
G01*
X203263885Y-39266595D01*
X203277863Y-39331707D01*
X203256140Y-39394661D01*
X203204982Y-39437297D01*
X203171643Y-39452302D01*
X202886881Y-39624445D01*
X202624945Y-39829660D01*
X202389660Y-40064945D01*
X202184445Y-40326881D01*
X202012302Y-40611642D01*
X201875734Y-40915083D01*
X201776745Y-41232753D01*
X201716764Y-41560057D01*
X201696672Y-41892199D01*
X201713746Y-42174451D01*
X201716764Y-42224342D01*
X201773332Y-42533025D01*
X201776745Y-42551646D01*
X201875734Y-42869316D01*
X201875736Y-42869321D01*
X201875737Y-42869323D01*
X201971492Y-43082081D01*
X202012302Y-43172757D01*
X202184445Y-43457518D01*
X202327641Y-43640293D01*
X202389658Y-43719452D01*
X202624948Y-43954742D01*
X202719696Y-44028972D01*
X202886881Y-44159954D01*
X202908615Y-44173092D01*
X202914755Y-44176804D01*
X202919548Y-44179701D01*
X202960469Y-44219966D01*
X202978868Y-44274347D01*
X202970803Y-44331187D01*
X202938001Y-44378302D01*
X202887494Y-44405594D01*
X202736335Y-44446097D01*
X202522170Y-44545965D01*
X202328598Y-44681505D01*
X202161505Y-44848598D01*
X202025965Y-45042170D01*
X201926097Y-45256336D01*
X201864936Y-45484592D01*
X201844340Y-45719999D01*
X201864936Y-45955407D01*
X201909709Y-46122501D01*
X201926097Y-46183663D01*
X202025965Y-46397830D01*
X202161505Y-46591401D01*
X202328599Y-46758495D01*
X202514160Y-46888426D01*
X202553024Y-46932743D01*
X202567035Y-46990000D01*
X202553024Y-47047257D01*
X202514159Y-47091575D01*
X202328595Y-47221508D01*
X202161505Y-47388598D01*
X202025965Y-47582170D01*
X201926097Y-47796336D01*
X201864936Y-48024592D01*
X201844340Y-48260000D01*
X201864936Y-48495407D01*
X201909709Y-48662501D01*
X201926097Y-48723663D01*
X202025965Y-48937830D01*
X202161505Y-49131401D01*
X202328599Y-49298495D01*
X202514160Y-49428426D01*
X202553024Y-49472743D01*
X202567035Y-49530000D01*
X202553024Y-49587257D01*
X202514158Y-49631575D01*
X202374806Y-49729151D01*
X202328595Y-49761508D01*
X202161505Y-49928598D01*
X202025965Y-50122170D01*
X201926097Y-50336336D01*
X201864936Y-50564592D01*
X201844340Y-50799999D01*
X201864936Y-51035407D01*
X201883275Y-51103848D01*
X201926097Y-51263663D01*
X202025965Y-51477830D01*
X202161505Y-51671401D01*
X202161508Y-51671404D01*
X202283818Y-51793714D01*
X202315114Y-51846460D01*
X202317303Y-51907753D01*
X202289850Y-51962597D01*
X202239472Y-51997576D01*
X202107913Y-52046646D01*
X201992811Y-52132811D01*
X201906647Y-52247910D01*
X201856402Y-52382624D01*
X201850000Y-52442176D01*
X201850000Y-53090000D01*
X223646000Y-53090000D01*
X223708000Y-53106613D01*
X223753387Y-53152000D01*
X223770000Y-53214000D01*
X223770000Y-53466000D01*
X223753387Y-53528000D01*
X223708000Y-53573387D01*
X223646000Y-53590000D01*
X201850000Y-53590000D01*
X201850000Y-54237824D01*
X201856402Y-54297375D01*
X201906647Y-54432089D01*
X201992811Y-54547188D01*
X202107911Y-54633352D01*
X202239471Y-54682422D01*
X202289850Y-54717401D01*
X202317303Y-54772246D01*
X202315114Y-54833539D01*
X202283819Y-54886285D01*
X202161503Y-55008601D01*
X202025965Y-55202170D01*
X201926097Y-55416336D01*
X201864936Y-55644592D01*
X201844340Y-55879999D01*
X201864936Y-56115407D01*
X201907272Y-56273407D01*
X201909114Y-56329691D01*
X201885873Y-56380986D01*
X201842341Y-56416712D01*
X201787497Y-56429500D01*
X199532503Y-56429500D01*
X199477659Y-56416712D01*
X199434127Y-56380986D01*
X199410886Y-56329691D01*
X199412728Y-56273407D01*
X199444051Y-56156504D01*
X199455063Y-56115408D01*
X199475659Y-55880000D01*
X199455063Y-55644592D01*
X199393903Y-55416337D01*
X199294035Y-55202171D01*
X199158495Y-55008599D01*
X199036181Y-54886285D01*
X199004885Y-54833539D01*
X199002696Y-54772246D01*
X199030149Y-54717401D01*
X199080528Y-54682422D01*
X199212089Y-54633352D01*
X199327188Y-54547188D01*
X199413352Y-54432089D01*
X199463597Y-54297375D01*
X199470000Y-54237824D01*
X199470000Y-53590000D01*
X196770000Y-53590000D01*
X196770000Y-54237824D01*
X196776402Y-54297375D01*
X196826647Y-54432089D01*
X196912811Y-54547188D01*
X197027911Y-54633352D01*
X197159471Y-54682422D01*
X197209850Y-54717401D01*
X197237303Y-54772246D01*
X197235114Y-54833539D01*
X197203819Y-54886285D01*
X197081503Y-55008601D01*
X196945965Y-55202170D01*
X196846097Y-55416336D01*
X196784936Y-55644592D01*
X196764340Y-55879999D01*
X196784936Y-56115407D01*
X196827272Y-56273407D01*
X196829114Y-56329691D01*
X196805873Y-56380986D01*
X196762341Y-56416712D01*
X196707497Y-56429500D01*
X194596163Y-56429500D01*
X194548710Y-56420061D01*
X194508482Y-56393181D01*
X194395180Y-56279879D01*
X194363086Y-56224291D01*
X194363087Y-56160103D01*
X194375063Y-56115409D01*
X194395659Y-55879999D01*
X194375063Y-55644592D01*
X194356725Y-55576152D01*
X194313903Y-55416337D01*
X194214035Y-55202171D01*
X194078495Y-55008599D01*
X193956181Y-54886285D01*
X193924885Y-54833539D01*
X193922696Y-54772246D01*
X193950149Y-54717401D01*
X194000528Y-54682422D01*
X194132089Y-54633352D01*
X194247188Y-54547188D01*
X194333352Y-54432089D01*
X194383597Y-54297375D01*
X194390000Y-54237824D01*
X194390000Y-53590000D01*
X172594000Y-53590000D01*
X172532000Y-53573387D01*
X172486613Y-53528000D01*
X172470000Y-53466000D01*
X172470000Y-53214000D01*
X172486613Y-53152000D01*
X172532000Y-53106613D01*
X172594000Y-53090000D01*
X194390000Y-53090000D01*
X194390000Y-52442176D01*
X194383597Y-52382624D01*
X194333352Y-52247910D01*
X194247188Y-52132811D01*
X194132088Y-52046647D01*
X194000528Y-51997577D01*
X193950149Y-51962597D01*
X193922696Y-51907752D01*
X193924885Y-51846460D01*
X193956178Y-51793717D01*
X194078495Y-51671401D01*
X194214035Y-51477830D01*
X194313903Y-51263663D01*
X194375063Y-51035408D01*
X194395659Y-50800000D01*
X194395659Y-50799999D01*
X196764340Y-50799999D01*
X196784936Y-51035407D01*
X196803275Y-51103848D01*
X196846097Y-51263663D01*
X196945965Y-51477830D01*
X197081505Y-51671401D01*
X197081508Y-51671404D01*
X197203818Y-51793714D01*
X197235114Y-51846460D01*
X197237303Y-51907753D01*
X197209850Y-51962597D01*
X197159472Y-51997576D01*
X197027913Y-52046646D01*
X196912811Y-52132811D01*
X196826647Y-52247910D01*
X196776402Y-52382624D01*
X196770000Y-52442176D01*
X196770000Y-53090000D01*
X199470000Y-53090000D01*
X199470000Y-52442176D01*
X199463597Y-52382624D01*
X199413352Y-52247910D01*
X199327188Y-52132811D01*
X199212088Y-52046647D01*
X199080528Y-51997577D01*
X199030149Y-51962597D01*
X199002696Y-51907752D01*
X199004885Y-51846460D01*
X199036178Y-51793717D01*
X199158495Y-51671401D01*
X199294035Y-51477830D01*
X199393903Y-51263663D01*
X199455063Y-51035408D01*
X199475659Y-50800000D01*
X199460478Y-50626490D01*
X199455063Y-50564592D01*
X199430324Y-50472264D01*
X199393903Y-50336337D01*
X199294035Y-50122171D01*
X199158495Y-49928599D01*
X198991401Y-49761505D01*
X198805839Y-49631573D01*
X198766975Y-49587257D01*
X198752964Y-49530000D01*
X198766975Y-49472743D01*
X198805839Y-49428426D01*
X198991401Y-49298495D01*
X199158495Y-49131401D01*
X199294035Y-48937830D01*
X199393903Y-48723663D01*
X199455063Y-48495408D01*
X199475659Y-48260000D01*
X199455063Y-48024592D01*
X199393903Y-47796337D01*
X199294035Y-47582171D01*
X199158495Y-47388599D01*
X198991401Y-47221505D01*
X198805839Y-47091573D01*
X198766975Y-47047257D01*
X198752964Y-46990000D01*
X198766975Y-46932743D01*
X198805839Y-46888426D01*
X198991401Y-46758495D01*
X199158495Y-46591401D01*
X199294035Y-46397830D01*
X199393903Y-46183663D01*
X199455063Y-45955408D01*
X199475659Y-45720000D01*
X199455063Y-45484592D01*
X199393903Y-45256337D01*
X199294035Y-45042171D01*
X199158495Y-44848599D01*
X198991401Y-44681505D01*
X198797830Y-44545965D01*
X198583663Y-44446097D01*
X198511070Y-44426646D01*
X198355407Y-44384936D01*
X198120000Y-44364340D01*
X197884592Y-44384936D01*
X197656336Y-44446097D01*
X197442170Y-44545965D01*
X197248598Y-44681505D01*
X197081505Y-44848598D01*
X196945965Y-45042170D01*
X196846097Y-45256336D01*
X196784936Y-45484592D01*
X196764340Y-45719999D01*
X196784936Y-45955407D01*
X196829709Y-46122501D01*
X196846097Y-46183663D01*
X196945965Y-46397830D01*
X197081505Y-46591401D01*
X197248599Y-46758495D01*
X197434160Y-46888426D01*
X197473024Y-46932743D01*
X197487035Y-46990000D01*
X197473024Y-47047257D01*
X197434159Y-47091575D01*
X197248595Y-47221508D01*
X197081505Y-47388598D01*
X196945965Y-47582170D01*
X196846097Y-47796336D01*
X196784936Y-48024592D01*
X196764340Y-48260000D01*
X196784936Y-48495407D01*
X196829709Y-48662501D01*
X196846097Y-48723663D01*
X196945965Y-48937830D01*
X197081505Y-49131401D01*
X197248599Y-49298495D01*
X197434160Y-49428426D01*
X197473024Y-49472743D01*
X197487035Y-49530000D01*
X197473024Y-49587257D01*
X197434158Y-49631575D01*
X197294806Y-49729151D01*
X197248595Y-49761508D01*
X197081505Y-49928598D01*
X196945965Y-50122170D01*
X196846097Y-50336336D01*
X196784936Y-50564592D01*
X196764340Y-50799999D01*
X194395659Y-50799999D01*
X194380478Y-50626490D01*
X194375063Y-50564592D01*
X194350324Y-50472264D01*
X194313903Y-50336337D01*
X194214035Y-50122171D01*
X194078495Y-49928599D01*
X193911401Y-49761505D01*
X193725839Y-49631573D01*
X193686975Y-49587257D01*
X193672964Y-49530000D01*
X193686975Y-49472743D01*
X193725839Y-49428426D01*
X193911401Y-49298495D01*
X194078495Y-49131401D01*
X194214035Y-48937830D01*
X194313903Y-48723663D01*
X194375063Y-48495408D01*
X194395659Y-48260000D01*
X194375063Y-48024592D01*
X194313903Y-47796337D01*
X194214035Y-47582171D01*
X194078495Y-47388599D01*
X193911401Y-47221505D01*
X193725839Y-47091573D01*
X193686975Y-47047257D01*
X193672964Y-46990000D01*
X193686975Y-46932743D01*
X193725839Y-46888426D01*
X193911401Y-46758495D01*
X194078495Y-46591401D01*
X194214035Y-46397830D01*
X194313903Y-46183663D01*
X194375063Y-45955408D01*
X194395659Y-45720000D01*
X194375063Y-45484592D01*
X194313903Y-45256337D01*
X194214035Y-45042171D01*
X194078495Y-44848599D01*
X193911401Y-44681505D01*
X193717830Y-44545965D01*
X193503663Y-44446097D01*
X193503662Y-44446096D01*
X193341696Y-44402698D01*
X193291189Y-44375406D01*
X193258387Y-44328290D01*
X193250322Y-44271450D01*
X193268722Y-44217070D01*
X193309640Y-44176806D01*
X193337518Y-44159954D01*
X193599452Y-43954742D01*
X193834742Y-43719452D01*
X194039954Y-43457518D01*
X194212098Y-43172757D01*
X194348663Y-42869323D01*
X194447656Y-42551641D01*
X194507636Y-42224342D01*
X194527727Y-41892200D01*
X194507636Y-41560058D01*
X194447656Y-41232759D01*
X194395731Y-41066126D01*
X194348665Y-40915083D01*
X194348664Y-40915082D01*
X194348663Y-40915077D01*
X194212098Y-40611643D01*
X194113368Y-40448324D01*
X194039954Y-40326881D01*
X193919412Y-40173021D01*
X193834742Y-40064948D01*
X193599452Y-39829658D01*
X193480019Y-39736088D01*
X193337518Y-39624445D01*
X193113810Y-39489210D01*
X193052757Y-39452302D01*
X193019611Y-39437384D01*
X192968453Y-39394748D01*
X192946730Y-39331795D01*
X192960707Y-39266683D01*
X193006354Y-39218192D01*
X193070499Y-39200310D01*
X203154091Y-39200223D01*
X203218238Y-39218104D01*
G37*
G04 #@! TD.AperFunction*
G04 #@! TA.AperFunction,Conductor*
G36*
X172737654Y-39218368D02*
G01*
X172783301Y-39266858D01*
X172797279Y-39331971D01*
X172775556Y-39394924D01*
X172724398Y-39437560D01*
X172691643Y-39452302D01*
X172406881Y-39624445D01*
X172144945Y-39829660D01*
X171909660Y-40064945D01*
X171704445Y-40326881D01*
X171532302Y-40611642D01*
X171395734Y-40915083D01*
X171296745Y-41232753D01*
X171236764Y-41560057D01*
X171216672Y-41892199D01*
X171233746Y-42174451D01*
X171236764Y-42224342D01*
X171293332Y-42533025D01*
X171296745Y-42551646D01*
X171395734Y-42869316D01*
X171395736Y-42869321D01*
X171395737Y-42869323D01*
X171491492Y-43082081D01*
X171532302Y-43172757D01*
X171704445Y-43457518D01*
X171847641Y-43640293D01*
X171909658Y-43719452D01*
X172144948Y-43954742D01*
X172239696Y-44028972D01*
X172406881Y-44159954D01*
X172428615Y-44173092D01*
X172434755Y-44176804D01*
X172439548Y-44179701D01*
X172480469Y-44219966D01*
X172498868Y-44274347D01*
X172490803Y-44331187D01*
X172458001Y-44378302D01*
X172407494Y-44405594D01*
X172256335Y-44446097D01*
X172042170Y-44545965D01*
X171848598Y-44681505D01*
X171681505Y-44848598D01*
X171545965Y-45042170D01*
X171446097Y-45256336D01*
X171384936Y-45484592D01*
X171364340Y-45719999D01*
X171384936Y-45955407D01*
X171429709Y-46122501D01*
X171446097Y-46183663D01*
X171545965Y-46397830D01*
X171681505Y-46591401D01*
X171848599Y-46758495D01*
X172034160Y-46888426D01*
X172073024Y-46932743D01*
X172087035Y-46990000D01*
X172073024Y-47047257D01*
X172034159Y-47091575D01*
X171848595Y-47221508D01*
X171681508Y-47388595D01*
X171681505Y-47388598D01*
X171681505Y-47388599D01*
X171616366Y-47481625D01*
X171572051Y-47520489D01*
X171514794Y-47534500D01*
X170036798Y-47534500D01*
X170018828Y-47533191D01*
X170010875Y-47532026D01*
X169996155Y-47529870D01*
X169996154Y-47529870D01*
X169948627Y-47534028D01*
X169937820Y-47534500D01*
X169932655Y-47534500D01*
X169902952Y-47537971D01*
X169899368Y-47538337D01*
X169825669Y-47544785D01*
X169807911Y-47548721D01*
X169738389Y-47574025D01*
X169734985Y-47575208D01*
X169664756Y-47598480D01*
X169648377Y-47606410D01*
X169586552Y-47647071D01*
X169583514Y-47649006D01*
X169561879Y-47662351D01*
X169508936Y-47680216D01*
X169423167Y-47688664D01*
X169244001Y-47743014D01*
X169075349Y-47833159D01*
X169010587Y-47847639D01*
X168947632Y-47826651D01*
X168904515Y-47776205D01*
X168858444Y-47677406D01*
X168814035Y-47582171D01*
X168678495Y-47388599D01*
X168556180Y-47266284D01*
X168524885Y-47213539D01*
X168522696Y-47152246D01*
X168550149Y-47097401D01*
X168600528Y-47062422D01*
X168732089Y-47013352D01*
X168847188Y-46927188D01*
X168933352Y-46812089D01*
X168983597Y-46677375D01*
X168990000Y-46617824D01*
X168990000Y-45970000D01*
X166290000Y-45970000D01*
X166290000Y-46617824D01*
X166296402Y-46677375D01*
X166346647Y-46812089D01*
X166432811Y-46927188D01*
X166547911Y-47013352D01*
X166679471Y-47062422D01*
X166729850Y-47097401D01*
X166757303Y-47152246D01*
X166755114Y-47213539D01*
X166723819Y-47266285D01*
X166601503Y-47388601D01*
X166465965Y-47582170D01*
X166366097Y-47796336D01*
X166304936Y-48024592D01*
X166284340Y-48260000D01*
X166304936Y-48495407D01*
X166349709Y-48662501D01*
X166366097Y-48723663D01*
X166465965Y-48937830D01*
X166601505Y-49131401D01*
X166768599Y-49298495D01*
X166954160Y-49428426D01*
X166993024Y-49472743D01*
X167007035Y-49530000D01*
X166993024Y-49587257D01*
X166954158Y-49631575D01*
X166814806Y-49729151D01*
X166768595Y-49761508D01*
X166601505Y-49928598D01*
X166465965Y-50122170D01*
X166366097Y-50336336D01*
X166304936Y-50564592D01*
X166284340Y-50799999D01*
X166304936Y-51035407D01*
X166323275Y-51103848D01*
X166366097Y-51263663D01*
X166465965Y-51477830D01*
X166601505Y-51671401D01*
X166768599Y-51838495D01*
X166954160Y-51968426D01*
X166993024Y-52012743D01*
X167007035Y-52070000D01*
X166993024Y-52127257D01*
X166954158Y-52171575D01*
X166803775Y-52276875D01*
X166768595Y-52301508D01*
X166601505Y-52468598D01*
X166465965Y-52662170D01*
X166366097Y-52876336D01*
X166304936Y-53104592D01*
X166284340Y-53340000D01*
X166304936Y-53575407D01*
X166334112Y-53684291D01*
X166366097Y-53803663D01*
X166465965Y-54017830D01*
X166601505Y-54211401D01*
X166768599Y-54378495D01*
X166954160Y-54508426D01*
X166993024Y-54552743D01*
X167007035Y-54610000D01*
X166993024Y-54667257D01*
X166954159Y-54711575D01*
X166768595Y-54841508D01*
X166601505Y-55008598D01*
X166468568Y-55198453D01*
X166428993Y-55234717D01*
X166377800Y-55250858D01*
X166324582Y-55243852D01*
X166279312Y-55215011D01*
X165258727Y-54194426D01*
X165253608Y-54188989D01*
X165215229Y-54145668D01*
X165167611Y-54112800D01*
X165161577Y-54108360D01*
X165116028Y-54072674D01*
X165116026Y-54072673D01*
X165107476Y-54068824D01*
X165087938Y-54057804D01*
X165080227Y-54052482D01*
X165026117Y-54031960D01*
X165019215Y-54029101D01*
X164993754Y-54017643D01*
X164966436Y-54005348D01*
X164957223Y-54003660D01*
X164935612Y-53997636D01*
X164926847Y-53994312D01*
X164869386Y-53987334D01*
X164861987Y-53986207D01*
X164805087Y-53975780D01*
X164749463Y-53979145D01*
X164747334Y-53979274D01*
X164739849Y-53979500D01*
X163946550Y-53979500D01*
X163886908Y-53964215D01*
X163841970Y-53922127D01*
X163822816Y-53863613D01*
X163832046Y-53814397D01*
X163831095Y-53814142D01*
X163833903Y-53803662D01*
X163895063Y-53575408D01*
X163915659Y-53340000D01*
X163895063Y-53104592D01*
X163833903Y-52876337D01*
X163734035Y-52662171D01*
X163598495Y-52468599D01*
X163431401Y-52301505D01*
X163245839Y-52171573D01*
X163206975Y-52127257D01*
X163192964Y-52070000D01*
X163206975Y-52012743D01*
X163245839Y-51968426D01*
X163431401Y-51838495D01*
X163598495Y-51671401D01*
X163734035Y-51477830D01*
X163833903Y-51263663D01*
X163895063Y-51035408D01*
X163915659Y-50800000D01*
X163900478Y-50626490D01*
X163895063Y-50564592D01*
X163870324Y-50472264D01*
X163833903Y-50336337D01*
X163734035Y-50122171D01*
X163598495Y-49928599D01*
X163431401Y-49761505D01*
X163245839Y-49631573D01*
X163206975Y-49587257D01*
X163192964Y-49530000D01*
X163206975Y-49472743D01*
X163245839Y-49428426D01*
X163431401Y-49298495D01*
X163598495Y-49131401D01*
X163734035Y-48937830D01*
X163833903Y-48723663D01*
X163895063Y-48495408D01*
X163915659Y-48260000D01*
X163895063Y-48024592D01*
X163833903Y-47796337D01*
X163734035Y-47582171D01*
X163598495Y-47388599D01*
X163476180Y-47266284D01*
X163444885Y-47213539D01*
X163442696Y-47152246D01*
X163470149Y-47097401D01*
X163520528Y-47062422D01*
X163652089Y-47013352D01*
X163767188Y-46927188D01*
X163853352Y-46812089D01*
X163903597Y-46677375D01*
X163910000Y-46617824D01*
X163910000Y-45970000D01*
X161210000Y-45970000D01*
X161210000Y-46617824D01*
X161216402Y-46677375D01*
X161266647Y-46812089D01*
X161352811Y-46927188D01*
X161467911Y-47013352D01*
X161599471Y-47062422D01*
X161649850Y-47097401D01*
X161677303Y-47152246D01*
X161675114Y-47213539D01*
X161643819Y-47266285D01*
X161521503Y-47388601D01*
X161385965Y-47582170D01*
X161286097Y-47796336D01*
X161224936Y-48024592D01*
X161209090Y-48205707D01*
X161183938Y-48270386D01*
X161127972Y-48311421D01*
X161058723Y-48315960D01*
X160997881Y-48282580D01*
X157754727Y-45039426D01*
X157749608Y-45033989D01*
X157711229Y-44990668D01*
X157663611Y-44957800D01*
X157657577Y-44953360D01*
X157612028Y-44917674D01*
X157612026Y-44917673D01*
X157603476Y-44913824D01*
X157583938Y-44902804D01*
X157576228Y-44897482D01*
X157557100Y-44890228D01*
X157507025Y-44855101D01*
X157479835Y-44800309D01*
X157482146Y-44739186D01*
X157500000Y-44709143D01*
X157500000Y-41676159D01*
X157505155Y-41640778D01*
X157520190Y-41608339D01*
X157543233Y-41573067D01*
X157547317Y-41567196D01*
X157591879Y-41506947D01*
X157607163Y-41476630D01*
X157614079Y-41464632D01*
X157617704Y-41459082D01*
X157630924Y-41438849D01*
X157661123Y-41370000D01*
X157663927Y-41364045D01*
X157699207Y-41294074D01*
X157708150Y-41264868D01*
X157713158Y-41251374D01*
X157724157Y-41226300D01*
X157743453Y-41150099D01*
X157745088Y-41144255D01*
X157769015Y-41066126D01*
X157769014Y-41066126D01*
X157769016Y-41066123D01*
X157772461Y-41039215D01*
X157775247Y-41024548D01*
X157781134Y-41001305D01*
X157787903Y-40919600D01*
X157788484Y-40914095D01*
X157799298Y-40829654D01*
X157798291Y-40805960D01*
X157798602Y-40790481D01*
X157800300Y-40770000D01*
X157793248Y-40684902D01*
X157792938Y-40679944D01*
X157792247Y-40663677D01*
X157789180Y-40591468D01*
X157784907Y-40571642D01*
X157782547Y-40555756D01*
X157781134Y-40538695D01*
X157759328Y-40452589D01*
X157758336Y-40448354D01*
X157738954Y-40358419D01*
X157732665Y-40342770D01*
X157727521Y-40326989D01*
X157724157Y-40313700D01*
X157687102Y-40229224D01*
X157685621Y-40225696D01*
X157650066Y-40137214D01*
X157650064Y-40137210D01*
X157643016Y-40125764D01*
X157635051Y-40110561D01*
X157630924Y-40101151D01*
X157578628Y-40021106D01*
X157576879Y-40018350D01*
X157525069Y-39934205D01*
X157519535Y-39925217D01*
X157520983Y-39924324D01*
X157507988Y-39902712D01*
X157500000Y-39858925D01*
X157500000Y-39800000D01*
X157463005Y-39800000D01*
X157411929Y-39788992D01*
X157369921Y-39757923D01*
X157367563Y-39755243D01*
X157362440Y-39751107D01*
X157349114Y-39738618D01*
X157346784Y-39736087D01*
X157265936Y-39673161D01*
X157264199Y-39671783D01*
X157182082Y-39605477D01*
X157179315Y-39603932D01*
X157163637Y-39593538D01*
X157163626Y-39593529D01*
X157070552Y-39543161D01*
X157069209Y-39542423D01*
X156973954Y-39489210D01*
X156973947Y-39489207D01*
X156973753Y-39489099D01*
X156962401Y-39484059D01*
X156911944Y-39466737D01*
X156856252Y-39447617D01*
X156855272Y-39447276D01*
X156848050Y-39444725D01*
X156839026Y-39441536D01*
X156783204Y-39401695D01*
X156757095Y-39338277D01*
X156768687Y-39270683D01*
X156814433Y-39219587D01*
X156880335Y-39200622D01*
X161891968Y-39200579D01*
X161955830Y-39218289D01*
X162001451Y-39266362D01*
X162015796Y-39331066D01*
X161994767Y-39393917D01*
X161944372Y-39436960D01*
X161882168Y-39465966D01*
X161688598Y-39601505D01*
X161521505Y-39768598D01*
X161385965Y-39962170D01*
X161286097Y-40176336D01*
X161224936Y-40404592D01*
X161204340Y-40640000D01*
X161224936Y-40875407D01*
X161258671Y-41001306D01*
X161286097Y-41103663D01*
X161385965Y-41317830D01*
X161521505Y-41511401D01*
X161688599Y-41678495D01*
X161874160Y-41808426D01*
X161913024Y-41852743D01*
X161927035Y-41910000D01*
X161913024Y-41967257D01*
X161874159Y-42011575D01*
X161688595Y-42141508D01*
X161521505Y-42308598D01*
X161385965Y-42502170D01*
X161286097Y-42716336D01*
X161224936Y-42944592D01*
X161204340Y-43179999D01*
X161224936Y-43415407D01*
X161269709Y-43582501D01*
X161286097Y-43643663D01*
X161385965Y-43857830D01*
X161521505Y-44051401D01*
X161521508Y-44051404D01*
X161643818Y-44173714D01*
X161675114Y-44226460D01*
X161677303Y-44287753D01*
X161649850Y-44342597D01*
X161599472Y-44377576D01*
X161467913Y-44426646D01*
X161352811Y-44512811D01*
X161266647Y-44627910D01*
X161216402Y-44762624D01*
X161210000Y-44822176D01*
X161210000Y-45470000D01*
X163910000Y-45470000D01*
X163910000Y-44822176D01*
X163903597Y-44762624D01*
X163853352Y-44627910D01*
X163767188Y-44512811D01*
X163652088Y-44426647D01*
X163520528Y-44377577D01*
X163470149Y-44342597D01*
X163442696Y-44287752D01*
X163444885Y-44226460D01*
X163476178Y-44173717D01*
X163598495Y-44051401D01*
X163734035Y-43857830D01*
X163833903Y-43643663D01*
X163895063Y-43415408D01*
X163915659Y-43180000D01*
X163895063Y-42944592D01*
X163833903Y-42716337D01*
X163734035Y-42502171D01*
X163598495Y-42308599D01*
X163431401Y-42141505D01*
X163245839Y-42011573D01*
X163206975Y-41967257D01*
X163192964Y-41910000D01*
X163206975Y-41852743D01*
X163245839Y-41808426D01*
X163431401Y-41678495D01*
X163598495Y-41511401D01*
X163734035Y-41317830D01*
X163833903Y-41103663D01*
X163895063Y-40875408D01*
X163915659Y-40640000D01*
X163895063Y-40404592D01*
X163833903Y-40176337D01*
X163734035Y-39962171D01*
X163598495Y-39768599D01*
X163431401Y-39601505D01*
X163237830Y-39465965D01*
X163175602Y-39436947D01*
X163125208Y-39393905D01*
X163104179Y-39331055D01*
X163118523Y-39266352D01*
X163164144Y-39218278D01*
X163228002Y-39200567D01*
X166972063Y-39200535D01*
X167035924Y-39218245D01*
X167081545Y-39266318D01*
X167095890Y-39331022D01*
X167074861Y-39393873D01*
X167024466Y-39436916D01*
X166962168Y-39465966D01*
X166768598Y-39601505D01*
X166601505Y-39768598D01*
X166465965Y-39962170D01*
X166366097Y-40176336D01*
X166304936Y-40404592D01*
X166284340Y-40640000D01*
X166304936Y-40875407D01*
X166338671Y-41001306D01*
X166366097Y-41103663D01*
X166465965Y-41317830D01*
X166601505Y-41511401D01*
X166768599Y-41678495D01*
X166954160Y-41808426D01*
X166993024Y-41852743D01*
X167007035Y-41910000D01*
X166993024Y-41967257D01*
X166954159Y-42011575D01*
X166768595Y-42141508D01*
X166601505Y-42308598D01*
X166465965Y-42502170D01*
X166366097Y-42716336D01*
X166304936Y-42944592D01*
X166284340Y-43179999D01*
X166304936Y-43415407D01*
X166349709Y-43582501D01*
X166366097Y-43643663D01*
X166465965Y-43857830D01*
X166601505Y-44051401D01*
X166601508Y-44051404D01*
X166723818Y-44173714D01*
X166755114Y-44226460D01*
X166757303Y-44287753D01*
X166729850Y-44342597D01*
X166679472Y-44377576D01*
X166547913Y-44426646D01*
X166432811Y-44512811D01*
X166346647Y-44627910D01*
X166296402Y-44762624D01*
X166290000Y-44822176D01*
X166290000Y-45470000D01*
X168990000Y-45470000D01*
X168990000Y-44822176D01*
X168983597Y-44762624D01*
X168933352Y-44627910D01*
X168847188Y-44512811D01*
X168732088Y-44426647D01*
X168600528Y-44377577D01*
X168550149Y-44342597D01*
X168522696Y-44287752D01*
X168524885Y-44226460D01*
X168556178Y-44173717D01*
X168678495Y-44051401D01*
X168814035Y-43857830D01*
X168913903Y-43643663D01*
X168975063Y-43415408D01*
X168995659Y-43180000D01*
X168975063Y-42944592D01*
X168913903Y-42716337D01*
X168814035Y-42502171D01*
X168678495Y-42308599D01*
X168511401Y-42141505D01*
X168325839Y-42011573D01*
X168286975Y-41967257D01*
X168272964Y-41910000D01*
X168286975Y-41852743D01*
X168325839Y-41808426D01*
X168511401Y-41678495D01*
X168678495Y-41511401D01*
X168814035Y-41317830D01*
X168913903Y-41103663D01*
X168975063Y-40875408D01*
X168995659Y-40640000D01*
X168975063Y-40404592D01*
X168913903Y-40176337D01*
X168814035Y-39962171D01*
X168678495Y-39768599D01*
X168511401Y-39601505D01*
X168317830Y-39465965D01*
X168255509Y-39436904D01*
X168205114Y-39393863D01*
X168184085Y-39331013D01*
X168198429Y-39266309D01*
X168244050Y-39218235D01*
X168307911Y-39200523D01*
X172673507Y-39200486D01*
X172737654Y-39218368D01*
G37*
G04 #@! TD.AperFunction*
G04 #@! TA.AperFunction,Conductor*
G36*
X207676676Y-39217894D02*
G01*
X207722297Y-39265967D01*
X207736642Y-39330671D01*
X207715614Y-39393521D01*
X207665218Y-39436564D01*
X207602173Y-39465963D01*
X207408598Y-39601505D01*
X207241505Y-39768598D01*
X207105965Y-39962170D01*
X207006097Y-40176335D01*
X206965594Y-40327494D01*
X206938302Y-40378001D01*
X206891187Y-40410803D01*
X206834347Y-40418868D01*
X206779966Y-40400469D01*
X206739701Y-40359548D01*
X206719954Y-40326881D01*
X206599412Y-40173021D01*
X206514742Y-40064948D01*
X206279452Y-39829658D01*
X206160019Y-39736088D01*
X206017518Y-39624445D01*
X205732754Y-39452300D01*
X205699367Y-39437274D01*
X205648209Y-39394639D01*
X205626485Y-39331686D01*
X205640462Y-39266574D01*
X205686109Y-39218082D01*
X205750252Y-39200200D01*
X207612816Y-39200184D01*
X207676676Y-39217894D01*
G37*
G04 #@! TD.AperFunction*
G04 #@! TA.AperFunction,Conductor*
G36*
X177196112Y-39218157D02*
G01*
X177241733Y-39266230D01*
X177256078Y-39330934D01*
X177235050Y-39393784D01*
X177184654Y-39436827D01*
X177122173Y-39465963D01*
X176928598Y-39601505D01*
X176761505Y-39768598D01*
X176625965Y-39962170D01*
X176526097Y-40176335D01*
X176485594Y-40327494D01*
X176458302Y-40378001D01*
X176411187Y-40410803D01*
X176354347Y-40418868D01*
X176299966Y-40400469D01*
X176259701Y-40359548D01*
X176239954Y-40326881D01*
X176119412Y-40173021D01*
X176034742Y-40064948D01*
X175799452Y-39829658D01*
X175680019Y-39736088D01*
X175537518Y-39624445D01*
X175313810Y-39489210D01*
X175252757Y-39452302D01*
X175219951Y-39437537D01*
X175168793Y-39394901D01*
X175147070Y-39331948D01*
X175161047Y-39266836D01*
X175206694Y-39218345D01*
X175270837Y-39200463D01*
X177132252Y-39200447D01*
X177196112Y-39218157D01*
G37*
G04 #@! TD.AperFunction*
G04 #@! TA.AperFunction,Conductor*
G36*
X221018578Y-39217951D02*
G01*
X221064225Y-39266442D01*
X221078203Y-39331554D01*
X221056480Y-39394508D01*
X221005322Y-39437144D01*
X220971643Y-39452302D01*
X220686881Y-39624445D01*
X220424945Y-39829660D01*
X220189660Y-40064945D01*
X219984446Y-40326881D01*
X219975505Y-40341671D01*
X219935239Y-40382590D01*
X219880858Y-40400987D01*
X219824019Y-40392921D01*
X219776905Y-40360119D01*
X219749614Y-40309613D01*
X219731008Y-40240174D01*
X219713903Y-40176337D01*
X219614035Y-39962171D01*
X219478495Y-39768599D01*
X219311401Y-39601505D01*
X219117830Y-39465965D01*
X219054570Y-39436466D01*
X219004175Y-39393425D01*
X218983146Y-39330575D01*
X218997490Y-39265871D01*
X219043111Y-39217797D01*
X219106973Y-39200085D01*
X220954429Y-39200069D01*
X221018578Y-39217951D01*
G37*
G04 #@! TD.AperFunction*
G04 #@! TA.AperFunction,Conductor*
G36*
X190537994Y-39218215D02*
G01*
X190583641Y-39266705D01*
X190597619Y-39331818D01*
X190575896Y-39394771D01*
X190524738Y-39437407D01*
X190491643Y-39452302D01*
X190206881Y-39624445D01*
X189944945Y-39829660D01*
X189709660Y-40064945D01*
X189504446Y-40326881D01*
X189495505Y-40341671D01*
X189455239Y-40382590D01*
X189400858Y-40400987D01*
X189344019Y-40392921D01*
X189296905Y-40360119D01*
X189269614Y-40309613D01*
X189251008Y-40240174D01*
X189233903Y-40176337D01*
X189134035Y-39962171D01*
X188998495Y-39768599D01*
X188831401Y-39601505D01*
X188637830Y-39465965D01*
X188575134Y-39436729D01*
X188524739Y-39393688D01*
X188503710Y-39330838D01*
X188518054Y-39266134D01*
X188563675Y-39218060D01*
X188627537Y-39200348D01*
X190473845Y-39200332D01*
X190537994Y-39218215D01*
G37*
G04 #@! TD.AperFunction*
G04 #@! TA.AperFunction,Conductor*
G36*
X217836863Y-39217807D02*
G01*
X217882484Y-39265880D01*
X217896829Y-39330584D01*
X217875801Y-39393435D01*
X217825405Y-39436477D01*
X217762172Y-39465963D01*
X217568598Y-39601505D01*
X217401505Y-39768598D01*
X217271575Y-39954159D01*
X217227257Y-39993025D01*
X217170000Y-40007036D01*
X217112743Y-39993025D01*
X217068425Y-39954159D01*
X217035294Y-39906843D01*
X216938495Y-39768599D01*
X216771401Y-39601505D01*
X216577830Y-39465965D01*
X216532274Y-39444722D01*
X216514617Y-39436488D01*
X216464221Y-39393446D01*
X216443192Y-39330596D01*
X216457536Y-39265892D01*
X216503157Y-39217818D01*
X216567016Y-39200107D01*
X217773001Y-39200096D01*
X217836863Y-39217807D01*
G37*
G04 #@! TD.AperFunction*
G04 #@! TA.AperFunction,Conductor*
G36*
X215296816Y-39217829D02*
G01*
X215342437Y-39265902D01*
X215356782Y-39330606D01*
X215335753Y-39393457D01*
X215285358Y-39436499D01*
X215222172Y-39465963D01*
X215028598Y-39601505D01*
X214861505Y-39768598D01*
X214731575Y-39954159D01*
X214687257Y-39993025D01*
X214630000Y-40007036D01*
X214572743Y-39993025D01*
X214528425Y-39954159D01*
X214495294Y-39906843D01*
X214398495Y-39768599D01*
X214231401Y-39601505D01*
X214037830Y-39465965D01*
X213981586Y-39439738D01*
X213974664Y-39436510D01*
X213924268Y-39393468D01*
X213903239Y-39330618D01*
X213917583Y-39265914D01*
X213963204Y-39217840D01*
X214027063Y-39200129D01*
X215232953Y-39200118D01*
X215296816Y-39217829D01*
G37*
G04 #@! TD.AperFunction*
G04 #@! TA.AperFunction,Conductor*
G36*
X212756770Y-39217851D02*
G01*
X212802391Y-39265925D01*
X212816736Y-39330629D01*
X212795707Y-39393479D01*
X212745311Y-39436522D01*
X212682170Y-39465965D01*
X212488598Y-39601505D01*
X212321505Y-39768598D01*
X212191575Y-39954159D01*
X212147257Y-39993025D01*
X212090000Y-40007036D01*
X212032743Y-39993025D01*
X211988425Y-39954159D01*
X211955294Y-39906843D01*
X211858495Y-39768599D01*
X211691401Y-39601505D01*
X211497830Y-39465965D01*
X211440737Y-39439342D01*
X211434711Y-39436532D01*
X211384315Y-39393490D01*
X211363286Y-39330640D01*
X211377630Y-39265936D01*
X211423251Y-39217862D01*
X211487110Y-39200151D01*
X212692907Y-39200140D01*
X212756770Y-39217851D01*
G37*
G04 #@! TD.AperFunction*
G04 #@! TA.AperFunction,Conductor*
G36*
X210216723Y-39217872D02*
G01*
X210262344Y-39265945D01*
X210276689Y-39330649D01*
X210255661Y-39393499D01*
X210205266Y-39436542D01*
X210142171Y-39465964D01*
X209948598Y-39601505D01*
X209781505Y-39768598D01*
X209651575Y-39954159D01*
X209607257Y-39993025D01*
X209550000Y-40007036D01*
X209492743Y-39993025D01*
X209448425Y-39954159D01*
X209415294Y-39906843D01*
X209318495Y-39768599D01*
X209151401Y-39601505D01*
X208957830Y-39465965D01*
X208894757Y-39436553D01*
X208844362Y-39393512D01*
X208823333Y-39330662D01*
X208837677Y-39265958D01*
X208883298Y-39217884D01*
X208947158Y-39200173D01*
X210152863Y-39200162D01*
X210216723Y-39217872D01*
G37*
G04 #@! TD.AperFunction*
G04 #@! TA.AperFunction,Conductor*
G36*
X187356299Y-39218070D02*
G01*
X187401920Y-39266143D01*
X187416265Y-39330847D01*
X187395237Y-39393698D01*
X187344841Y-39436740D01*
X187282172Y-39465963D01*
X187088598Y-39601505D01*
X186921505Y-39768598D01*
X186791575Y-39954159D01*
X186747257Y-39993025D01*
X186690000Y-40007036D01*
X186632743Y-39993025D01*
X186588425Y-39954159D01*
X186555294Y-39906843D01*
X186458495Y-39768599D01*
X186291401Y-39601505D01*
X186097830Y-39465965D01*
X186052274Y-39444722D01*
X186035181Y-39436751D01*
X185984785Y-39393709D01*
X185963756Y-39330859D01*
X185978100Y-39266155D01*
X186023721Y-39218081D01*
X186087580Y-39200370D01*
X187292437Y-39200359D01*
X187356299Y-39218070D01*
G37*
G04 #@! TD.AperFunction*
G04 #@! TA.AperFunction,Conductor*
G36*
X184816252Y-39218092D02*
G01*
X184861873Y-39266165D01*
X184876218Y-39330869D01*
X184855189Y-39393720D01*
X184804794Y-39436762D01*
X184742172Y-39465963D01*
X184548598Y-39601505D01*
X184381505Y-39768598D01*
X184251575Y-39954159D01*
X184207257Y-39993025D01*
X184150000Y-40007036D01*
X184092743Y-39993025D01*
X184048425Y-39954159D01*
X184015294Y-39906843D01*
X183918495Y-39768599D01*
X183751401Y-39601505D01*
X183557830Y-39465965D01*
X183501586Y-39439738D01*
X183495228Y-39436773D01*
X183444832Y-39393731D01*
X183423803Y-39330881D01*
X183438147Y-39266177D01*
X183483768Y-39218103D01*
X183547627Y-39200392D01*
X184752389Y-39200381D01*
X184816252Y-39218092D01*
G37*
G04 #@! TD.AperFunction*
G04 #@! TA.AperFunction,Conductor*
G36*
X182276206Y-39218114D02*
G01*
X182321827Y-39266188D01*
X182336172Y-39330892D01*
X182315143Y-39393742D01*
X182264747Y-39436785D01*
X182202170Y-39465965D01*
X182008598Y-39601505D01*
X181841505Y-39768598D01*
X181711575Y-39954159D01*
X181667257Y-39993025D01*
X181610000Y-40007036D01*
X181552743Y-39993025D01*
X181508425Y-39954159D01*
X181475294Y-39906843D01*
X181378495Y-39768599D01*
X181211401Y-39601505D01*
X181017830Y-39465965D01*
X180961025Y-39439476D01*
X180955275Y-39436795D01*
X180904879Y-39393753D01*
X180883850Y-39330903D01*
X180898194Y-39266199D01*
X180943815Y-39218125D01*
X181007674Y-39200414D01*
X182212343Y-39200403D01*
X182276206Y-39218114D01*
G37*
G04 #@! TD.AperFunction*
G04 #@! TA.AperFunction,Conductor*
G36*
X179736159Y-39218135D02*
G01*
X179781780Y-39266208D01*
X179796125Y-39330912D01*
X179775097Y-39393762D01*
X179724702Y-39436805D01*
X179662171Y-39465964D01*
X179468598Y-39601505D01*
X179301505Y-39768598D01*
X179171575Y-39954159D01*
X179127257Y-39993025D01*
X179070000Y-40007036D01*
X179012743Y-39993025D01*
X178968425Y-39954159D01*
X178935294Y-39906843D01*
X178838495Y-39768599D01*
X178671401Y-39601505D01*
X178477830Y-39465965D01*
X178415321Y-39436816D01*
X178364926Y-39393775D01*
X178343897Y-39330925D01*
X178358241Y-39266221D01*
X178403862Y-39218147D01*
X178467722Y-39200436D01*
X179672299Y-39200425D01*
X179736159Y-39218135D01*
G37*
G04 #@! TD.AperFunction*
M02*
