G04 #@! TF.GenerationSoftware,KiCad,Pcbnew,7.0.1*
G04 #@! TF.CreationDate,2023-09-08T10:55:18-05:00*
G04 #@! TF.ProjectId,ProtoPropDuo,50726f74-6f50-4726-9f70-44756f2e6b69,B*
G04 #@! TF.SameCoordinates,Original*
G04 #@! TF.FileFunction,Paste,Top*
G04 #@! TF.FilePolarity,Positive*
%FSLAX46Y46*%
G04 Gerber Fmt 4.6, Leading zero omitted, Abs format (unit mm)*
G04 Created by KiCad (PCBNEW 7.0.1) date 2023-09-08 10:55:18*
%MOMM*%
%LPD*%
G01*
G04 APERTURE LIST*
G04 Aperture macros list*
%AMRoundRect*
0 Rectangle with rounded corners*
0 $1 Rounding radius*
0 $2 $3 $4 $5 $6 $7 $8 $9 X,Y pos of 4 corners*
0 Add a 4 corners polygon primitive as box body*
4,1,4,$2,$3,$4,$5,$6,$7,$8,$9,$2,$3,0*
0 Add four circle primitives for the rounded corners*
1,1,$1+$1,$2,$3*
1,1,$1+$1,$4,$5*
1,1,$1+$1,$6,$7*
1,1,$1+$1,$8,$9*
0 Add four rect primitives between the rounded corners*
20,1,$1+$1,$2,$3,$4,$5,0*
20,1,$1+$1,$4,$5,$6,$7,0*
20,1,$1+$1,$6,$7,$8,$9,0*
20,1,$1+$1,$8,$9,$2,$3,0*%
G04 Aperture macros list end*
%ADD10RoundRect,0.150000X-0.150000X-0.625000X0.150000X-0.625000X0.150000X0.625000X-0.150000X0.625000X0*%
%ADD11RoundRect,0.250000X-0.350000X-0.650000X0.350000X-0.650000X0.350000X0.650000X-0.350000X0.650000X0*%
%ADD12RoundRect,0.237500X-0.300000X-0.237500X0.300000X-0.237500X0.300000X0.237500X-0.300000X0.237500X0*%
%ADD13RoundRect,0.237500X-0.250000X-0.237500X0.250000X-0.237500X0.250000X0.237500X-0.250000X0.237500X0*%
%ADD14RoundRect,0.020500X-0.764500X-0.184500X0.764500X-0.184500X0.764500X0.184500X-0.764500X0.184500X0*%
%ADD15R,1.000000X0.700000*%
G04 APERTURE END LIST*
D10*
X140740000Y-105696000D03*
X141740000Y-105696000D03*
X142740000Y-105696000D03*
X143740000Y-105696000D03*
D11*
X139440000Y-109571000D03*
X145040000Y-109571000D03*
D12*
X203607500Y-99060000D03*
X205332500Y-99060000D03*
D13*
X209503000Y-104200000D03*
X211328000Y-104200000D03*
D14*
X199060000Y-101215000D03*
X199060000Y-101865000D03*
X199060000Y-102515000D03*
X199060000Y-103165000D03*
X199060000Y-103815000D03*
X199060000Y-104465000D03*
X199060000Y-105115000D03*
X199060000Y-105765000D03*
X199060000Y-106415000D03*
X199060000Y-107065000D03*
X204800000Y-107065000D03*
X204800000Y-106415000D03*
X204800000Y-105765000D03*
X204800000Y-105115000D03*
X204800000Y-104465000D03*
X204800000Y-103815000D03*
X204800000Y-103165000D03*
X204800000Y-102515000D03*
X204800000Y-101865000D03*
X204800000Y-101215000D03*
D13*
X209503000Y-101690000D03*
X211328000Y-101690000D03*
X209503000Y-99180000D03*
X211328000Y-99180000D03*
D15*
X152182000Y-96969000D03*
X156682000Y-96969000D03*
X152182000Y-99119000D03*
X156682000Y-99119000D03*
D13*
X209503000Y-109220000D03*
X211328000Y-109220000D03*
X209503000Y-106710000D03*
X211328000Y-106710000D03*
M02*
