G04 #@! TF.GenerationSoftware,KiCad,Pcbnew,7.0.1*
G04 #@! TF.CreationDate,2023-06-02T18:37:16-05:00*
G04 #@! TF.ProjectId,PicoFeatherWingDuo,5069636f-4665-4617-9468-657257696e67,1*
G04 #@! TF.SameCoordinates,Original*
G04 #@! TF.FileFunction,Soldermask,Bot*
G04 #@! TF.FilePolarity,Negative*
%FSLAX46Y46*%
G04 Gerber Fmt 4.6, Leading zero omitted, Abs format (unit mm)*
G04 Created by KiCad (PCBNEW 7.0.1) date 2023-06-02 18:37:16*
%MOMM*%
%LPD*%
G01*
G04 APERTURE LIST*
G04 Aperture macros list*
%AMRoundRect*
0 Rectangle with rounded corners*
0 $1 Rounding radius*
0 $2 $3 $4 $5 $6 $7 $8 $9 X,Y pos of 4 corners*
0 Add a 4 corners polygon primitive as box body*
4,1,4,$2,$3,$4,$5,$6,$7,$8,$9,$2,$3,0*
0 Add four circle primitives for the rounded corners*
1,1,$1+$1,$2,$3*
1,1,$1+$1,$4,$5*
1,1,$1+$1,$6,$7*
1,1,$1+$1,$8,$9*
0 Add four rect primitives between the rounded corners*
20,1,$1+$1,$2,$3,$4,$5,0*
20,1,$1+$1,$4,$5,$6,$7,0*
20,1,$1+$1,$6,$7,$8,$9,0*
20,1,$1+$1,$8,$9,$2,$3,0*%
G04 Aperture macros list end*
%ADD10O,1.776000X1.776000*%
%ADD11C,1.776000*%
%ADD12RoundRect,0.038000X-0.850000X-0.850000X0.850000X-0.850000X0.850000X0.850000X-0.850000X0.850000X0*%
%ADD13C,2.362000*%
%ADD14RoundRect,0.038000X-0.850000X0.850000X-0.850000X-0.850000X0.850000X-0.850000X0.850000X0.850000X0*%
%ADD15C,4.576000*%
%ADD16C,2.276000*%
%ADD17RoundRect,0.038000X0.850000X0.850000X-0.850000X0.850000X-0.850000X-0.850000X0.850000X-0.850000X0*%
%ADD18O,1.876000X1.876000*%
%ADD19O,1.576000X1.576000*%
G04 APERTURE END LIST*
D10*
X185420000Y-50800000D03*
X187960000Y-106680000D03*
D11*
X198120000Y-45720000D03*
D10*
X198120000Y-48260000D03*
X198120000Y-50800000D03*
D12*
X198120000Y-53340000D03*
D10*
X198120000Y-55880000D03*
X198120000Y-58420000D03*
X198120000Y-60960000D03*
X198120000Y-63500000D03*
X198120000Y-66040000D03*
X198120000Y-68580000D03*
X198120000Y-71120000D03*
X198120000Y-73660000D03*
X198120000Y-76200000D03*
X198120000Y-78740000D03*
X198120000Y-81280000D03*
X198120000Y-83820000D03*
X218440000Y-68580000D03*
X220980000Y-66040000D03*
X185420000Y-58420000D03*
X218440000Y-76200000D03*
X210820000Y-83820000D03*
X182880000Y-50800000D03*
X177800000Y-83820000D03*
X177800000Y-71120000D03*
D13*
X192422200Y-87642200D03*
X173372200Y-87642200D03*
D10*
X172720000Y-45720000D03*
X172720000Y-48260000D03*
X172720000Y-50800000D03*
D14*
X172720000Y-53340000D03*
D10*
X172720000Y-55880000D03*
X172720000Y-58420000D03*
X172720000Y-60960000D03*
X172720000Y-63500000D03*
X172720000Y-66040000D03*
X172720000Y-68580000D03*
X172720000Y-71120000D03*
X172720000Y-73660000D03*
X172720000Y-76200000D03*
X172720000Y-78740000D03*
X172720000Y-81280000D03*
X172694600Y-83820000D03*
X193040000Y-83820000D03*
X193040000Y-81280000D03*
X193040000Y-78740000D03*
X193040000Y-76200000D03*
X193040000Y-73660000D03*
X193040000Y-71120000D03*
X193040000Y-68580000D03*
X193040000Y-66040000D03*
X193040000Y-63500000D03*
X193040000Y-60960000D03*
X193040000Y-58420000D03*
X193040000Y-55880000D03*
D15*
X173972200Y-41892200D03*
X191772200Y-41892200D03*
D10*
X180340000Y-48260000D03*
X177800000Y-68580000D03*
X190500000Y-93980000D03*
X223520000Y-45720000D03*
X215900000Y-86360000D03*
X198120000Y-101600000D03*
X182880000Y-83820000D03*
X187960000Y-83820000D03*
X218440000Y-40640000D03*
X218440000Y-60960000D03*
X205740000Y-55880000D03*
X208280000Y-45720000D03*
X208280000Y-83820000D03*
X223520000Y-50800000D03*
X208280000Y-71120000D03*
X190500000Y-58420000D03*
X190500000Y-60960000D03*
X187960000Y-86360000D03*
X175260000Y-101600000D03*
X218440000Y-83820000D03*
X190500000Y-96520000D03*
X185420000Y-78740000D03*
X205740000Y-63500000D03*
X177800000Y-48260000D03*
X190500000Y-104140000D03*
X218440000Y-45720000D03*
X198120000Y-96520000D03*
X198120000Y-93980000D03*
D16*
X135128000Y-108204000D03*
D10*
X190500000Y-63500000D03*
D12*
X218440000Y-53340000D03*
D10*
X213360000Y-86360000D03*
X195580000Y-104140000D03*
X218440000Y-86360000D03*
X180340000Y-71120000D03*
X187960000Y-63500000D03*
X210820000Y-88900000D03*
X210820000Y-63500000D03*
X175260000Y-73660000D03*
X198120000Y-106680000D03*
X185420000Y-106680000D03*
X177800000Y-60960000D03*
X177800000Y-101600000D03*
X205740000Y-83820000D03*
X180340000Y-63500000D03*
X177800000Y-109220000D03*
X220980000Y-73660000D03*
X175260000Y-50800000D03*
X185420000Y-99060000D03*
X218440000Y-63500000D03*
X180340000Y-109220000D03*
D12*
X175260000Y-93980000D03*
D10*
X180340000Y-76200000D03*
X180340000Y-40640000D03*
X193040000Y-96520000D03*
X215900000Y-60960000D03*
X180340000Y-88900000D03*
X193040000Y-93980000D03*
X185420000Y-109220000D03*
X210820000Y-48260000D03*
X185420000Y-63500000D03*
D16*
X228092000Y-41656000D03*
D10*
X180340000Y-68580000D03*
X190500000Y-83820000D03*
X190500000Y-99060000D03*
X185420000Y-86360000D03*
X210820000Y-71120000D03*
X215900000Y-45720000D03*
X182880000Y-40640000D03*
X208280000Y-86360000D03*
X220980000Y-68580000D03*
X218440000Y-48260000D03*
X185420000Y-93980000D03*
X208280000Y-60960000D03*
X215900000Y-71120000D03*
D11*
X139700000Y-40640000D03*
D10*
X139700000Y-43180000D03*
D12*
X139700000Y-45720000D03*
D10*
X139700000Y-48260000D03*
X139700000Y-50800000D03*
X139700000Y-53340000D03*
X139700000Y-55880000D03*
D12*
X139700000Y-58420000D03*
D10*
X139700000Y-60960000D03*
X139700000Y-63500000D03*
X139700000Y-66040000D03*
X139700000Y-68580000D03*
D12*
X139700000Y-71120000D03*
D10*
X139700000Y-73660000D03*
X139700000Y-76200000D03*
X139700000Y-78740000D03*
X139700000Y-81280000D03*
D12*
X139700000Y-83820000D03*
D10*
X139700000Y-86360000D03*
X139700000Y-88900000D03*
X215900000Y-73660000D03*
X187960000Y-50800000D03*
X175260000Y-55880000D03*
X182880000Y-60960000D03*
D12*
X223520000Y-53340000D03*
D10*
X208280000Y-55880000D03*
X177800000Y-50800000D03*
X182880000Y-93980000D03*
X182880000Y-78740000D03*
X177800000Y-40640000D03*
X187960000Y-68580000D03*
X182880000Y-71120000D03*
X180340000Y-83820000D03*
X177800000Y-45720000D03*
X220980000Y-55880000D03*
X220980000Y-78740000D03*
X208280000Y-63500000D03*
X180340000Y-93980000D03*
X215900000Y-55880000D03*
X213360000Y-88900000D03*
X180340000Y-81280000D03*
X213360000Y-50800000D03*
X180340000Y-104140000D03*
X215900000Y-66040000D03*
X208280000Y-78740000D03*
X210820000Y-73660000D03*
D12*
X180340000Y-53340000D03*
D10*
X185420000Y-68580000D03*
X205740000Y-78740000D03*
X208280000Y-88900000D03*
X205740000Y-81280000D03*
X208280000Y-50800000D03*
X210820000Y-43180000D03*
X210820000Y-60960000D03*
X182880000Y-101600000D03*
X187960000Y-104140000D03*
X215900000Y-58420000D03*
D12*
X177800000Y-53340000D03*
D10*
X175260000Y-63500000D03*
D12*
X187960000Y-53340000D03*
D10*
X177800000Y-66040000D03*
X180340000Y-50800000D03*
X218440000Y-73660000D03*
X180340000Y-55880000D03*
X185420000Y-66040000D03*
X177800000Y-88900000D03*
X213360000Y-43180000D03*
X218440000Y-66040000D03*
D12*
X213360000Y-53340000D03*
D10*
X180340000Y-106680000D03*
X215900000Y-50800000D03*
D12*
X215900000Y-53340000D03*
D10*
X198120000Y-104140000D03*
X182880000Y-63500000D03*
X182880000Y-48260000D03*
X187960000Y-55880000D03*
X220980000Y-63500000D03*
X175260000Y-58420000D03*
X180340000Y-43180000D03*
X190500000Y-106680000D03*
X190500000Y-55880000D03*
X182880000Y-109220000D03*
X195580000Y-101600000D03*
X210820000Y-40640000D03*
X180340000Y-58420000D03*
X175260000Y-104140000D03*
X193040000Y-109220000D03*
X213360000Y-45720000D03*
X218440000Y-55880000D03*
X187960000Y-109220000D03*
X220980000Y-50800000D03*
X218440000Y-88900000D03*
X190500000Y-48260000D03*
X205740000Y-73660000D03*
X187960000Y-96520000D03*
X213360000Y-78740000D03*
X177800000Y-86360000D03*
X208280000Y-81280000D03*
X195580000Y-109220000D03*
X205740000Y-58420000D03*
D12*
X172720000Y-93980000D03*
D10*
X172720000Y-96520000D03*
X172720000Y-99060000D03*
X172720000Y-101600000D03*
X172720000Y-104140000D03*
X172720000Y-106680000D03*
X172720000Y-109220000D03*
X220980000Y-71120000D03*
D12*
X190500000Y-53340000D03*
D10*
X213360000Y-71120000D03*
X218440000Y-78740000D03*
X193040000Y-48260000D03*
D12*
X175260000Y-53340000D03*
D10*
X185420000Y-48260000D03*
X205740000Y-48260000D03*
X180340000Y-45720000D03*
X175260000Y-66040000D03*
X187960000Y-48260000D03*
X215900000Y-81280000D03*
X220980000Y-45720000D03*
D12*
X177800000Y-93980000D03*
D10*
X205740000Y-71120000D03*
X182880000Y-43180000D03*
X198120000Y-109220000D03*
X180340000Y-96520000D03*
X218440000Y-50800000D03*
X218440000Y-71120000D03*
X205740000Y-45720000D03*
X190500000Y-78740000D03*
X182880000Y-81280000D03*
X177800000Y-104140000D03*
X193040000Y-99060000D03*
X190500000Y-66040000D03*
X205740000Y-60960000D03*
X198120000Y-99060000D03*
X193040000Y-106680000D03*
X175260000Y-45720000D03*
X187960000Y-81280000D03*
X175260000Y-78740000D03*
X180340000Y-60960000D03*
X177800000Y-76200000D03*
X175260000Y-106680000D03*
X193040000Y-104140000D03*
X175260000Y-109220000D03*
X177800000Y-78740000D03*
X175260000Y-71120000D03*
X210820000Y-68580000D03*
X187960000Y-76200000D03*
X187960000Y-99060000D03*
X187960000Y-101600000D03*
X185420000Y-104140000D03*
X180340000Y-99060000D03*
X177800000Y-99060000D03*
X185420000Y-88900000D03*
D12*
X185420000Y-53340000D03*
D10*
X210820000Y-81280000D03*
X213360000Y-60960000D03*
X185420000Y-96520000D03*
X193040000Y-50800000D03*
X208280000Y-73660000D03*
X223520000Y-48260000D03*
X185420000Y-81280000D03*
X185420000Y-55880000D03*
X182880000Y-106680000D03*
X177800000Y-106680000D03*
X215900000Y-48260000D03*
D12*
X208280000Y-53340000D03*
D10*
X215900000Y-76200000D03*
X177800000Y-63500000D03*
X213360000Y-68580000D03*
X205740000Y-66040000D03*
X193040000Y-101600000D03*
X190500000Y-73660000D03*
X208280000Y-43180000D03*
X205740000Y-76200000D03*
D11*
X167640000Y-88900000D03*
D10*
X167640000Y-86360000D03*
D17*
X167640000Y-83820000D03*
D10*
X167640000Y-81280000D03*
X167640000Y-78740000D03*
X167640000Y-76200000D03*
X167640000Y-73660000D03*
D17*
X167640000Y-71120000D03*
D10*
X167640000Y-68580000D03*
X167640000Y-66040000D03*
X167640000Y-63500000D03*
X167640000Y-60960000D03*
D17*
X167640000Y-58420000D03*
D10*
X167640000Y-55880000D03*
X167640000Y-53340000D03*
X167640000Y-50800000D03*
X167640000Y-48260000D03*
D17*
X167640000Y-45720000D03*
D10*
X167640000Y-43180000D03*
X167640000Y-40640000D03*
X210820000Y-78740000D03*
X210820000Y-76200000D03*
X218440000Y-43180000D03*
X180340000Y-86360000D03*
X190500000Y-50800000D03*
X175260000Y-81280000D03*
X175260000Y-68580000D03*
X215900000Y-43180000D03*
X182880000Y-45720000D03*
X213360000Y-63500000D03*
X185420000Y-101600000D03*
D13*
X222902200Y-87642200D03*
X203852200Y-87642200D03*
D10*
X203200000Y-45720000D03*
X203200000Y-48260000D03*
X203200000Y-50800000D03*
D14*
X203200000Y-53340000D03*
D10*
X203200000Y-55880000D03*
X203200000Y-58420000D03*
X203200000Y-60960000D03*
X203200000Y-63500000D03*
X203200000Y-66040000D03*
X203200000Y-68580000D03*
X203200000Y-71120000D03*
X203200000Y-73660000D03*
X203200000Y-76200000D03*
X203200000Y-78740000D03*
X203200000Y-81280000D03*
X203174600Y-83820000D03*
X223520000Y-83820000D03*
X223520000Y-81280000D03*
X223520000Y-78740000D03*
X223520000Y-76200000D03*
X223520000Y-73660000D03*
X223520000Y-71120000D03*
X223520000Y-68580000D03*
X223520000Y-66040000D03*
X223520000Y-63500000D03*
X223520000Y-60960000D03*
X223520000Y-58420000D03*
X223520000Y-55880000D03*
D15*
X204452200Y-41892200D03*
X222252200Y-41892200D03*
D10*
X182880000Y-99060000D03*
X185420000Y-83820000D03*
X215900000Y-78740000D03*
D12*
X210820000Y-53340000D03*
D10*
X187960000Y-45720000D03*
X175260000Y-99060000D03*
D11*
X228600000Y-83820000D03*
D10*
X228600000Y-81280000D03*
X228600000Y-78740000D03*
X228600000Y-76200000D03*
X228600000Y-73660000D03*
X228600000Y-71120000D03*
X228600000Y-68580000D03*
X228600000Y-66040000D03*
X228600000Y-63500000D03*
X228600000Y-60960000D03*
X228600000Y-58420000D03*
X228600000Y-55880000D03*
X215900000Y-68580000D03*
X177800000Y-73660000D03*
X187960000Y-78740000D03*
X187960000Y-73660000D03*
X220980000Y-81280000D03*
X180340000Y-73660000D03*
X208280000Y-76200000D03*
X190500000Y-101600000D03*
X195580000Y-96520000D03*
D16*
X135128000Y-41656000D03*
D10*
X187960000Y-40640000D03*
X185420000Y-71120000D03*
X175260000Y-48260000D03*
X220980000Y-60960000D03*
X220980000Y-76200000D03*
X213360000Y-48260000D03*
X213360000Y-83820000D03*
X182880000Y-58420000D03*
X208280000Y-68580000D03*
X210820000Y-50800000D03*
X205740000Y-50800000D03*
X218440000Y-81280000D03*
X190500000Y-109220000D03*
X177800000Y-43180000D03*
X195580000Y-93980000D03*
X220980000Y-83820000D03*
X177800000Y-81280000D03*
X208280000Y-58420000D03*
X185420000Y-43180000D03*
X190500000Y-76200000D03*
X213360000Y-73660000D03*
D12*
X193040000Y-53340000D03*
D10*
X177800000Y-96520000D03*
X210820000Y-58420000D03*
X180340000Y-78740000D03*
X182880000Y-86360000D03*
X195580000Y-106680000D03*
X213360000Y-76200000D03*
X213360000Y-40640000D03*
X175260000Y-76200000D03*
X208280000Y-66040000D03*
X213360000Y-58420000D03*
X182880000Y-76200000D03*
D12*
X220980000Y-53340000D03*
D10*
X182880000Y-104140000D03*
X185420000Y-60960000D03*
X215900000Y-83820000D03*
X175260000Y-96520000D03*
X218440000Y-58420000D03*
X213360000Y-66040000D03*
X185420000Y-73660000D03*
X210820000Y-86360000D03*
X210820000Y-55880000D03*
X187960000Y-43180000D03*
X182880000Y-55880000D03*
X208280000Y-48260000D03*
D12*
X182880000Y-53340000D03*
D10*
X182880000Y-68580000D03*
X182880000Y-88900000D03*
X215900000Y-63500000D03*
X210820000Y-45720000D03*
X215900000Y-88900000D03*
X185420000Y-45720000D03*
X187960000Y-66040000D03*
X187960000Y-93980000D03*
X182880000Y-66040000D03*
X182880000Y-96520000D03*
X180340000Y-66040000D03*
X210820000Y-66040000D03*
X205740000Y-68580000D03*
X175260000Y-83820000D03*
X175260000Y-60960000D03*
D16*
X228092000Y-108204000D03*
D10*
X190500000Y-81280000D03*
X182880000Y-73660000D03*
X177800000Y-58420000D03*
X220980000Y-58420000D03*
D18*
X150945000Y-40770000D03*
D19*
X151245000Y-43800000D03*
X156095000Y-43800000D03*
D18*
X156395000Y-40770000D03*
D10*
X144780000Y-40640000D03*
X144780000Y-43180000D03*
D12*
X144780000Y-45720000D03*
D10*
X144780000Y-48260000D03*
X144780000Y-50800000D03*
X144780000Y-53340000D03*
X144780000Y-55880000D03*
D12*
X144780000Y-58420000D03*
D10*
X144780000Y-60960000D03*
X144780000Y-63500000D03*
X144780000Y-66040000D03*
X144780000Y-68580000D03*
D12*
X144780000Y-71120000D03*
D10*
X144780000Y-73660000D03*
X144780000Y-76200000D03*
X144780000Y-78740000D03*
X144780000Y-81280000D03*
D12*
X144780000Y-83820000D03*
D10*
X144780000Y-86360000D03*
X144780000Y-88900000D03*
X162560000Y-88900000D03*
X162560000Y-86360000D03*
D12*
X162560000Y-83820000D03*
D10*
X162560000Y-81280000D03*
X162560000Y-78740000D03*
X162560000Y-76200000D03*
X162560000Y-73660000D03*
D12*
X162560000Y-71120000D03*
D10*
X162560000Y-68580000D03*
X162560000Y-66040000D03*
X162560000Y-63500000D03*
X162560000Y-60960000D03*
D12*
X162560000Y-58420000D03*
D10*
X162560000Y-55880000D03*
X162560000Y-53340000D03*
X162560000Y-50800000D03*
X162560000Y-48260000D03*
D12*
X162560000Y-45720000D03*
D10*
X162560000Y-43180000D03*
X162560000Y-40640000D03*
X151130000Y-88670000D03*
D12*
X153670000Y-88670000D03*
D10*
X156210000Y-88670000D03*
X220980000Y-48260000D03*
X213360000Y-81280000D03*
X185420000Y-40640000D03*
X187960000Y-88900000D03*
X177800000Y-55880000D03*
X190500000Y-68580000D03*
X190500000Y-71120000D03*
X215900000Y-40640000D03*
X187960000Y-58420000D03*
X195580000Y-99060000D03*
X185420000Y-76200000D03*
X213360000Y-55880000D03*
X187960000Y-71120000D03*
X180340000Y-101600000D03*
X187960000Y-60960000D03*
X208280000Y-40640000D03*
D12*
X205740000Y-53340000D03*
M02*
